%TF.GenerationSoftware,KiCad,Pcbnew,(6.0.0)*%
%TF.CreationDate,2022-01-16T13:19:40+00:00*%
%TF.ProjectId,OpenBCI_ESP32_INPUT,4f70656e-4243-4495-9f45-535033325f49,rev?*%
%TF.SameCoordinates,Original*%
%TF.FileFunction,Soldermask,Bot*%
%TF.FilePolarity,Negative*%
%FSLAX46Y46*%
G04 Gerber Fmt 4.6, Leading zero omitted, Abs format (unit mm)*
G04 Created by KiCad (PCBNEW (6.0.0)) date 2022-01-16 13:19:40*
%MOMM*%
%LPD*%
G01*
G04 APERTURE LIST*
%ADD10R,1.700000X1.700000*%
%ADD11O,1.700000X1.700000*%
%ADD12C,2.700000*%
G04 APERTURE END LIST*
D10*
%TO.C,J1*%
X103970000Y-59750000D03*
D11*
X106510000Y-59750000D03*
X103970000Y-62290000D03*
X106510000Y-62290000D03*
D10*
X103970000Y-64830000D03*
D11*
X106510000Y-64830000D03*
X103970000Y-67370000D03*
X106510000Y-67370000D03*
X103970000Y-69910000D03*
X106510000Y-69910000D03*
X103970000Y-72450000D03*
X106510000Y-72450000D03*
X103970000Y-74990000D03*
X106510000Y-74990000D03*
X103970000Y-77530000D03*
X106510000Y-77530000D03*
X103970000Y-80070000D03*
X106510000Y-80070000D03*
X103970000Y-82610000D03*
X106510000Y-82610000D03*
X103970000Y-85150000D03*
X106510000Y-85150000D03*
X103970000Y-87690000D03*
X106510000Y-87690000D03*
D10*
X103970000Y-90230000D03*
D11*
X106510000Y-90230000D03*
%TD*%
D10*
%TO.C,J2*%
X148200000Y-69500000D03*
D11*
X145660000Y-69500000D03*
X148200000Y-72040000D03*
X145660000Y-72040000D03*
X148200000Y-74580000D03*
X145660000Y-74580000D03*
X148200000Y-77120000D03*
X145660000Y-77120000D03*
X148200000Y-79660000D03*
X145660000Y-79660000D03*
X148200000Y-82200000D03*
X145660000Y-82200000D03*
X148200000Y-84740000D03*
X145660000Y-84740000D03*
X148200000Y-87280000D03*
X145660000Y-87280000D03*
%TD*%
D10*
%TO.C,J3*%
X111000000Y-52000000D03*
D11*
X111000000Y-54540000D03*
X113540000Y-52000000D03*
X113540000Y-54540000D03*
X116080000Y-52000000D03*
X116080000Y-54540000D03*
%TD*%
D10*
%TO.C,J4*%
X111000000Y-95500000D03*
D11*
X111000000Y-98040000D03*
X113540000Y-95500000D03*
X113540000Y-98040000D03*
%TD*%
D12*
%TO.C,H1*%
X104000000Y-54000000D03*
%TD*%
%TO.C,H2*%
X104000000Y-96000000D03*
%TD*%
%TO.C,H3*%
X146000000Y-54000000D03*
%TD*%
%TO.C,H4*%
X146000000Y-96000000D03*
%TD*%
M02*
