%TF.GenerationSoftware,KiCad,Pcbnew,(6.0.0)*%
%TF.CreationDate,2022-01-16T13:19:40+00:00*%
%TF.ProjectId,OpenBCI_ESP32_INPUT,4f70656e-4243-4495-9f45-535033325f49,rev?*%
%TF.SameCoordinates,Original*%
%TF.FileFunction,Copper,L2,Bot*%
%TF.FilePolarity,Positive*%
%FSLAX46Y46*%
G04 Gerber Fmt 4.6, Leading zero omitted, Abs format (unit mm)*
G04 Created by KiCad (PCBNEW (6.0.0)) date 2022-01-16 13:19:40*
%MOMM*%
%LPD*%
G01*
G04 APERTURE LIST*
%TA.AperFunction,ComponentPad*%
%ADD10R,1.700000X1.700000*%
%TD*%
%TA.AperFunction,ComponentPad*%
%ADD11O,1.700000X1.700000*%
%TD*%
%TA.AperFunction,ViaPad*%
%ADD12C,0.800000*%
%TD*%
%TA.AperFunction,ViaPad*%
%ADD13C,1.200000*%
%TD*%
%TA.AperFunction,Conductor*%
%ADD14C,0.500000*%
%TD*%
%TA.AperFunction,Conductor*%
%ADD15C,0.250000*%
%TD*%
G04 APERTURE END LIST*
D10*
%TO.P,J1,1,Pin_1*%
%TO.N,+2V5*%
X103970000Y-59750000D03*
D11*
%TO.P,J1,2,Pin_2*%
X106510000Y-59750000D03*
%TO.P,J1,3,Pin_3*%
%TO.N,GND*%
X103970000Y-62290000D03*
%TO.P,J1,4,Pin_4*%
X106510000Y-62290000D03*
D10*
%TO.P,J1,5,Pin_5*%
%TO.N,/Analog_Input/BIAS*%
X103970000Y-64830000D03*
D11*
%TO.P,J1,6,Pin_6*%
X106510000Y-64830000D03*
%TO.P,J1,7,Pin_7*%
%TO.N,/Analog_Input/8N*%
X103970000Y-67370000D03*
%TO.P,J1,8,Pin_8*%
%TO.N,/Analog_Input/8P*%
X106510000Y-67370000D03*
%TO.P,J1,9,Pin_9*%
%TO.N,/Analog_Input/7N*%
X103970000Y-69910000D03*
%TO.P,J1,10,Pin_10*%
%TO.N,/Analog_Input/7P*%
X106510000Y-69910000D03*
%TO.P,J1,11,Pin_11*%
%TO.N,/Analog_Input/6N*%
X103970000Y-72450000D03*
%TO.P,J1,12,Pin_12*%
%TO.N,/Analog_Input/6P*%
X106510000Y-72450000D03*
%TO.P,J1,13,Pin_13*%
%TO.N,/Analog_Input/5N*%
X103970000Y-74990000D03*
%TO.P,J1,14,Pin_14*%
%TO.N,/Analog_Input/5P*%
X106510000Y-74990000D03*
%TO.P,J1,15,Pin_15*%
%TO.N,/Analog_Input/4N*%
X103970000Y-77530000D03*
%TO.P,J1,16,Pin_16*%
%TO.N,/Analog_Input/4P*%
X106510000Y-77530000D03*
%TO.P,J1,17,Pin_17*%
%TO.N,/Analog_Input/3N*%
X103970000Y-80070000D03*
%TO.P,J1,18,Pin_18*%
%TO.N,/Analog_Input/3P*%
X106510000Y-80070000D03*
%TO.P,J1,19,Pin_19*%
%TO.N,/Analog_Input/2N*%
X103970000Y-82610000D03*
%TO.P,J1,20,Pin_20*%
%TO.N,/Analog_Input/2P*%
X106510000Y-82610000D03*
%TO.P,J1,21,Pin_21*%
%TO.N,/Analog_Input/1N*%
X103970000Y-85150000D03*
%TO.P,J1,22,Pin_22*%
%TO.N,/Analog_Input/1P*%
X106510000Y-85150000D03*
%TO.P,J1,23,Pin_23*%
%TO.N,/Analog_Input/SRB2*%
X103970000Y-87690000D03*
%TO.P,J1,24,Pin_24*%
%TO.N,/Analog_Input/SRB1*%
X106510000Y-87690000D03*
D10*
%TO.P,J1,25,Pin_25*%
%TO.N,-2V5*%
X103970000Y-90230000D03*
D11*
%TO.P,J1,26,Pin_26*%
X106510000Y-90230000D03*
%TD*%
D10*
%TO.P,J2,1,Pin_1*%
%TO.N,+3V3*%
X148200000Y-69500000D03*
D11*
%TO.P,J2,2,Pin_2*%
X145660000Y-69500000D03*
%TO.P,J2,3,Pin_3*%
%TO.N,/ADS1299/DRDY2*%
X148200000Y-72040000D03*
%TO.P,J2,4,Pin_4*%
%TO.N,/ADS1299/DRDY1*%
X145660000Y-72040000D03*
%TO.P,J2,5,Pin_5*%
%TO.N,unconnected-(J2-Pad5)*%
X148200000Y-74580000D03*
%TO.P,J2,6,Pin_6*%
%TO.N,/ADS1299/DOUT*%
X145660000Y-74580000D03*
%TO.P,J2,7,Pin_7*%
%TO.N,unconnected-(J2-Pad7)*%
X148200000Y-77120000D03*
%TO.P,J2,8,Pin_8*%
%TO.N,/ADS1299/SCLK*%
X145660000Y-77120000D03*
%TO.P,J2,9,Pin_9*%
%TO.N,/ADS1299/CS2*%
X148200000Y-79660000D03*
%TO.P,J2,10,Pin_10*%
%TO.N,/ADS1299/CS1*%
X145660000Y-79660000D03*
%TO.P,J2,11,Pin_11*%
%TO.N,/ADS1299/RESET*%
X148200000Y-82200000D03*
%TO.P,J2,12,Pin_12*%
%TO.N,/ADS1299/CLK*%
X145660000Y-82200000D03*
%TO.P,J2,13,Pin_13*%
%TO.N,unconnected-(J2-Pad13)*%
X148200000Y-84740000D03*
%TO.P,J2,14,Pin_14*%
%TO.N,/ADS1299/DIN*%
X145660000Y-84740000D03*
%TO.P,J2,15,Pin_15*%
%TO.N,GND*%
X148200000Y-87280000D03*
%TO.P,J2,16,Pin_16*%
X145660000Y-87280000D03*
%TD*%
D10*
%TO.P,J3,1,Pin_1*%
%TO.N,GND*%
X111000000Y-52000000D03*
D11*
%TO.P,J3,2,Pin_2*%
%TO.N,+2V5*%
X111000000Y-54540000D03*
%TO.P,J3,3,Pin_3*%
%TO.N,GND*%
X113540000Y-52000000D03*
%TO.P,J3,4,Pin_4*%
%TO.N,+2V5*%
X113540000Y-54540000D03*
%TO.P,J3,5,Pin_5*%
%TO.N,GND*%
X116080000Y-52000000D03*
%TO.P,J3,6,Pin_6*%
%TO.N,/ADS1299/BIAS_INV*%
X116080000Y-54540000D03*
%TD*%
D10*
%TO.P,J4,1,Pin_1*%
%TO.N,GND*%
X111000000Y-95500000D03*
D11*
%TO.P,J4,2,Pin_2*%
%TO.N,-2V5*%
X111000000Y-98040000D03*
%TO.P,J4,3,Pin_3*%
%TO.N,GND*%
X113540000Y-95500000D03*
%TO.P,J4,4,Pin_4*%
%TO.N,-2V5*%
X113540000Y-98040000D03*
%TD*%
D12*
%TO.N,GND*%
X129000000Y-70100000D03*
X135520325Y-77757459D03*
X134325021Y-70299991D03*
X118300000Y-63900000D03*
X114300000Y-70700000D03*
X118312653Y-80912653D03*
X114300000Y-87800000D03*
D13*
X138600000Y-69800000D03*
D12*
X109200000Y-69900000D03*
X126800000Y-68500000D03*
X114300000Y-63900000D03*
X114300000Y-60500000D03*
X114300000Y-67300000D03*
X118300000Y-94600000D03*
D13*
X136000000Y-67600000D03*
D12*
X114335819Y-83589755D03*
X138600000Y-73925000D03*
X109200000Y-90900000D03*
X118300000Y-77500000D03*
X118300000Y-67300000D03*
X118300000Y-84400000D03*
X118300000Y-70700000D03*
X109200000Y-73900000D03*
X114368528Y-80111824D03*
X118300000Y-91100000D03*
X114213732Y-76688413D03*
X109200000Y-65900000D03*
X118300000Y-87800000D03*
X118300000Y-74100000D03*
X109157667Y-85834189D03*
X109166432Y-78535681D03*
X114300000Y-74100000D03*
%TO.N,-2V5*%
X128400000Y-84800000D03*
X129200000Y-81600000D03*
X109200000Y-89200000D03*
D13*
%TO.N,+3V3*%
X137300000Y-68300000D03*
D12*
%TO.N,+2V5*%
X128500000Y-63400000D03*
X132700000Y-67300000D03*
X134300000Y-67300000D03*
%TO.N,Net-(U7-Pad52)*%
X139900000Y-70600000D03*
X135050000Y-71050000D03*
%TD*%
D14*
%TO.N,-2V5*%
X109200000Y-89200000D02*
X108170000Y-90230000D01*
X106510000Y-93550000D02*
X111000000Y-98040000D01*
X103970000Y-90230000D02*
X106510000Y-90230000D01*
X129200000Y-81600000D02*
X128300000Y-82500000D01*
X106510000Y-90230000D02*
X108170000Y-90230000D01*
X128300000Y-84700000D02*
X128400000Y-84800000D01*
X106510000Y-93550000D02*
X106510000Y-90230000D01*
X111000000Y-98040000D02*
X113540000Y-98040000D01*
X128300000Y-82500000D02*
X128300000Y-84700000D01*
%TO.N,+3V3*%
X144460000Y-68300000D02*
X145660000Y-69500000D01*
X137300000Y-68300000D02*
X144460000Y-68300000D01*
X145660000Y-69500000D02*
X148200000Y-69500000D01*
%TO.N,+2V5*%
X128500000Y-63400000D02*
X132400000Y-67300000D01*
X111000000Y-54540000D02*
X113540000Y-54540000D01*
X132400000Y-67300000D02*
X132700000Y-67300000D01*
X124500000Y-59400000D02*
X128500000Y-63400000D01*
X132700000Y-67300000D02*
X134300000Y-67300000D01*
X106510000Y-59750000D02*
X111000000Y-55260000D01*
X113540000Y-54540000D02*
X118400000Y-59400000D01*
X111000000Y-55260000D02*
X111000000Y-54540000D01*
X103970000Y-59750000D02*
X106510000Y-59750000D01*
X118400000Y-59400000D02*
X124500000Y-59400000D01*
D15*
%TO.N,Net-(U7-Pad52)*%
X139250000Y-71050000D02*
X139450000Y-71050000D01*
X139450000Y-71050000D02*
X139900000Y-70600000D01*
X135050000Y-71050000D02*
X139250000Y-71050000D01*
%TD*%
%TA.AperFunction,Conductor*%
%TO.N,GND*%
G36*
X109849396Y-50528002D02*
G01*
X109895889Y-50581658D01*
X109905993Y-50651932D01*
X109876499Y-50716512D01*
X109856840Y-50734826D01*
X109794276Y-50781715D01*
X109781715Y-50794276D01*
X109705214Y-50896351D01*
X109696676Y-50911946D01*
X109651522Y-51032394D01*
X109647895Y-51047649D01*
X109642369Y-51098514D01*
X109642000Y-51105328D01*
X109642000Y-51727885D01*
X109646475Y-51743124D01*
X109647865Y-51744329D01*
X109655548Y-51746000D01*
X117398344Y-51746000D01*
X117411875Y-51742027D01*
X117413180Y-51732947D01*
X117371214Y-51565875D01*
X117367894Y-51556124D01*
X117282972Y-51360814D01*
X117278105Y-51351739D01*
X117162426Y-51172926D01*
X117156136Y-51164757D01*
X117012806Y-51007240D01*
X117005273Y-51000215D01*
X116838139Y-50868222D01*
X116829552Y-50862517D01*
X116643117Y-50759599D01*
X116633702Y-50755367D01*
X116626376Y-50752773D01*
X116568839Y-50711179D01*
X116542923Y-50645082D01*
X116556856Y-50575466D01*
X116606215Y-50524434D01*
X116668435Y-50508000D01*
X149366000Y-50508000D01*
X149434121Y-50528002D01*
X149480614Y-50581658D01*
X149492000Y-50634000D01*
X149492000Y-68095126D01*
X149471998Y-68163247D01*
X149418342Y-68209740D01*
X149348068Y-68219844D01*
X149305491Y-68205646D01*
X149303888Y-68204768D01*
X149296705Y-68199385D01*
X149288304Y-68196236D01*
X149288301Y-68196234D01*
X149200307Y-68163247D01*
X149160316Y-68148255D01*
X149098134Y-68141500D01*
X147301866Y-68141500D01*
X147239684Y-68148255D01*
X147103295Y-68199385D01*
X146986739Y-68286739D01*
X146899385Y-68403295D01*
X146896233Y-68411703D01*
X146854919Y-68521907D01*
X146812277Y-68578671D01*
X146745716Y-68603371D01*
X146676367Y-68588163D01*
X146643743Y-68562476D01*
X146593151Y-68506875D01*
X146593142Y-68506866D01*
X146589670Y-68503051D01*
X146585619Y-68499852D01*
X146585615Y-68499848D01*
X146418414Y-68367800D01*
X146418410Y-68367798D01*
X146414359Y-68364598D01*
X146218789Y-68256638D01*
X146213920Y-68254914D01*
X146213916Y-68254912D01*
X146013087Y-68183795D01*
X146013083Y-68183794D01*
X146008212Y-68182069D01*
X146003119Y-68181162D01*
X146003116Y-68181161D01*
X145793373Y-68143800D01*
X145793367Y-68143799D01*
X145788284Y-68142894D01*
X145717770Y-68142033D01*
X145570082Y-68140228D01*
X145570080Y-68140228D01*
X145564911Y-68140165D01*
X145541156Y-68143800D01*
X145461385Y-68156006D01*
X145391023Y-68146538D01*
X145353232Y-68120551D01*
X145043770Y-67811089D01*
X145031384Y-67796677D01*
X145022851Y-67785082D01*
X145022846Y-67785077D01*
X145018508Y-67779182D01*
X145012930Y-67774443D01*
X145012927Y-67774440D01*
X144978232Y-67744965D01*
X144970716Y-67738035D01*
X144965021Y-67732340D01*
X144958880Y-67727482D01*
X144942749Y-67714719D01*
X144939345Y-67711928D01*
X144889297Y-67669409D01*
X144889295Y-67669408D01*
X144883715Y-67664667D01*
X144877199Y-67661339D01*
X144872150Y-67657972D01*
X144867021Y-67654805D01*
X144861284Y-67650266D01*
X144795125Y-67619345D01*
X144791225Y-67617439D01*
X144726192Y-67584231D01*
X144719084Y-67582492D01*
X144713441Y-67580393D01*
X144707678Y-67578476D01*
X144701050Y-67575378D01*
X144629583Y-67560513D01*
X144625299Y-67559543D01*
X144554390Y-67542192D01*
X144548788Y-67541844D01*
X144548785Y-67541844D01*
X144543236Y-67541500D01*
X144543238Y-67541464D01*
X144539245Y-67541225D01*
X144535053Y-67540851D01*
X144527885Y-67539360D01*
X144461675Y-67541151D01*
X144450479Y-67541454D01*
X144447072Y-67541500D01*
X138161917Y-67541500D01*
X138093796Y-67521498D01*
X138076388Y-67508024D01*
X137981948Y-67420724D01*
X137977703Y-67416800D01*
X137898213Y-67366646D01*
X137810288Y-67311169D01*
X137810283Y-67311167D01*
X137805404Y-67308088D01*
X137616180Y-67232595D01*
X137416366Y-67192849D01*
X137410592Y-67192773D01*
X137410588Y-67192773D01*
X137307452Y-67191424D01*
X137212655Y-67190183D01*
X137206958Y-67191162D01*
X137206957Y-67191162D01*
X137017567Y-67223705D01*
X137011870Y-67224684D01*
X136820734Y-67295198D01*
X136815773Y-67298150D01*
X136815772Y-67298150D01*
X136689348Y-67373365D01*
X136645649Y-67399363D01*
X136492478Y-67533690D01*
X136488911Y-67538215D01*
X136488906Y-67538220D01*
X136450010Y-67587560D01*
X136366351Y-67693681D01*
X136363662Y-67698792D01*
X136363660Y-67698795D01*
X136322178Y-67777639D01*
X136271492Y-67873978D01*
X136211078Y-68068543D01*
X136187132Y-68270859D01*
X136200457Y-68474151D01*
X136250605Y-68671610D01*
X136335898Y-68856624D01*
X136453479Y-69022997D01*
X136599410Y-69165157D01*
X136604206Y-69168362D01*
X136604209Y-69168364D01*
X136713478Y-69241375D01*
X136768803Y-69278342D01*
X136774106Y-69280620D01*
X136774109Y-69280622D01*
X136863115Y-69318862D01*
X136955987Y-69358763D01*
X137028817Y-69375243D01*
X137149055Y-69402450D01*
X137149060Y-69402451D01*
X137154692Y-69403725D01*
X137160463Y-69403952D01*
X137160465Y-69403952D01*
X137223470Y-69406427D01*
X137358263Y-69411723D01*
X137559883Y-69382490D01*
X137565347Y-69380635D01*
X137565352Y-69380634D01*
X137747327Y-69318862D01*
X137747332Y-69318860D01*
X137752799Y-69317004D01*
X137930551Y-69217458D01*
X138086657Y-69087626D01*
X138151821Y-69059445D01*
X138167226Y-69058500D01*
X144093629Y-69058500D01*
X144161750Y-69078502D01*
X144182724Y-69095405D01*
X144279449Y-69192130D01*
X144313475Y-69254442D01*
X144315641Y-69294613D01*
X144297251Y-69466695D01*
X144310110Y-69689715D01*
X144311247Y-69694761D01*
X144311248Y-69694767D01*
X144335304Y-69801508D01*
X144359222Y-69907639D01*
X144443266Y-70114616D01*
X144460581Y-70142872D01*
X144530027Y-70256197D01*
X144559987Y-70305088D01*
X144706250Y-70473938D01*
X144878126Y-70616632D01*
X144948595Y-70657811D01*
X144951445Y-70659476D01*
X145000169Y-70711114D01*
X145013240Y-70780897D01*
X144986509Y-70846669D01*
X144946055Y-70880027D01*
X144933607Y-70886507D01*
X144929474Y-70889610D01*
X144929471Y-70889612D01*
X144805567Y-70982642D01*
X144754965Y-71020635D01*
X144708291Y-71069476D01*
X144610393Y-71171921D01*
X144600629Y-71182138D01*
X144597720Y-71186403D01*
X144597714Y-71186411D01*
X144585404Y-71204457D01*
X144474743Y-71366680D01*
X144445056Y-71430635D01*
X144387541Y-71554542D01*
X144380688Y-71569305D01*
X144320989Y-71784570D01*
X144297251Y-72006695D01*
X144310110Y-72229715D01*
X144311247Y-72234761D01*
X144311248Y-72234767D01*
X144335304Y-72341508D01*
X144359222Y-72447639D01*
X144443266Y-72654616D01*
X144491262Y-72732939D01*
X144557291Y-72840688D01*
X144559987Y-72845088D01*
X144706250Y-73013938D01*
X144878126Y-73156632D01*
X144948595Y-73197811D01*
X144951445Y-73199476D01*
X145000169Y-73251114D01*
X145013240Y-73320897D01*
X144986509Y-73386669D01*
X144946055Y-73420027D01*
X144933607Y-73426507D01*
X144929474Y-73429610D01*
X144929471Y-73429612D01*
X144759100Y-73557530D01*
X144754965Y-73560635D01*
X144708291Y-73609476D01*
X144610393Y-73711921D01*
X144600629Y-73722138D01*
X144474743Y-73906680D01*
X144380688Y-74109305D01*
X144320989Y-74324570D01*
X144297251Y-74546695D01*
X144310110Y-74769715D01*
X144311247Y-74774761D01*
X144311248Y-74774767D01*
X144335304Y-74881508D01*
X144359222Y-74987639D01*
X144443266Y-75194616D01*
X144491262Y-75272939D01*
X144557291Y-75380688D01*
X144559987Y-75385088D01*
X144706250Y-75553938D01*
X144878126Y-75696632D01*
X144948595Y-75737811D01*
X144951445Y-75739476D01*
X145000169Y-75791114D01*
X145013240Y-75860897D01*
X144986509Y-75926669D01*
X144946055Y-75960027D01*
X144933607Y-75966507D01*
X144929474Y-75969610D01*
X144929471Y-75969612D01*
X144759100Y-76097530D01*
X144754965Y-76100635D01*
X144708291Y-76149476D01*
X144610393Y-76251921D01*
X144600629Y-76262138D01*
X144474743Y-76446680D01*
X144380688Y-76649305D01*
X144320989Y-76864570D01*
X144297251Y-77086695D01*
X144310110Y-77309715D01*
X144311247Y-77314761D01*
X144311248Y-77314767D01*
X144335304Y-77421508D01*
X144359222Y-77527639D01*
X144443266Y-77734616D01*
X144491262Y-77812939D01*
X144557291Y-77920688D01*
X144559987Y-77925088D01*
X144706250Y-78093938D01*
X144878126Y-78236632D01*
X144948595Y-78277811D01*
X144951445Y-78279476D01*
X145000169Y-78331114D01*
X145013240Y-78400897D01*
X144986509Y-78466669D01*
X144946055Y-78500027D01*
X144933607Y-78506507D01*
X144929474Y-78509610D01*
X144929471Y-78509612D01*
X144759100Y-78637530D01*
X144754965Y-78640635D01*
X144708291Y-78689476D01*
X144610393Y-78791921D01*
X144600629Y-78802138D01*
X144474743Y-78986680D01*
X144380688Y-79189305D01*
X144320989Y-79404570D01*
X144297251Y-79626695D01*
X144310110Y-79849715D01*
X144311247Y-79854761D01*
X144311248Y-79854767D01*
X144335304Y-79961508D01*
X144359222Y-80067639D01*
X144443266Y-80274616D01*
X144491262Y-80352939D01*
X144557291Y-80460688D01*
X144559987Y-80465088D01*
X144706250Y-80633938D01*
X144878126Y-80776632D01*
X144939957Y-80812763D01*
X144951445Y-80819476D01*
X145000169Y-80871114D01*
X145013240Y-80940897D01*
X144986509Y-81006669D01*
X144946055Y-81040027D01*
X144933607Y-81046507D01*
X144929474Y-81049610D01*
X144929471Y-81049612D01*
X144759100Y-81177530D01*
X144754965Y-81180635D01*
X144714747Y-81222721D01*
X144610393Y-81331921D01*
X144600629Y-81342138D01*
X144597720Y-81346403D01*
X144597714Y-81346411D01*
X144528794Y-81447444D01*
X144474743Y-81526680D01*
X144380688Y-81729305D01*
X144320989Y-81944570D01*
X144297251Y-82166695D01*
X144297548Y-82171848D01*
X144297548Y-82171851D01*
X144306691Y-82330412D01*
X144310110Y-82389715D01*
X144311247Y-82394761D01*
X144311248Y-82394767D01*
X144319665Y-82432115D01*
X144359222Y-82607639D01*
X144391723Y-82687680D01*
X144436621Y-82798250D01*
X144443266Y-82814616D01*
X144491262Y-82892939D01*
X144557291Y-83000688D01*
X144559987Y-83005088D01*
X144706250Y-83173938D01*
X144878126Y-83316632D01*
X144948595Y-83357811D01*
X144951445Y-83359476D01*
X145000169Y-83411114D01*
X145013240Y-83480897D01*
X144986509Y-83546669D01*
X144946055Y-83580027D01*
X144933607Y-83586507D01*
X144929474Y-83589610D01*
X144929471Y-83589612D01*
X144759100Y-83717530D01*
X144754965Y-83720635D01*
X144708291Y-83769476D01*
X144610393Y-83871921D01*
X144600629Y-83882138D01*
X144474743Y-84066680D01*
X144445056Y-84130635D01*
X144383589Y-84263056D01*
X144380688Y-84269305D01*
X144320989Y-84484570D01*
X144297251Y-84706695D01*
X144310110Y-84929715D01*
X144311247Y-84934761D01*
X144311248Y-84934767D01*
X144335304Y-85041508D01*
X144359222Y-85147639D01*
X144443266Y-85354616D01*
X144491262Y-85432939D01*
X144557291Y-85540688D01*
X144559987Y-85545088D01*
X144706250Y-85713938D01*
X144878126Y-85856632D01*
X144951955Y-85899774D01*
X145000679Y-85951412D01*
X145013750Y-86021195D01*
X144987019Y-86086967D01*
X144946562Y-86120327D01*
X144938457Y-86124546D01*
X144929738Y-86130036D01*
X144759433Y-86257905D01*
X144751726Y-86264748D01*
X144604590Y-86418717D01*
X144598104Y-86426727D01*
X144478098Y-86602649D01*
X144473000Y-86611623D01*
X144383338Y-86804783D01*
X144379775Y-86814470D01*
X144324389Y-87014183D01*
X144325912Y-87022607D01*
X144338292Y-87026000D01*
X148328000Y-87026000D01*
X148396121Y-87046002D01*
X148442614Y-87099658D01*
X148454000Y-87152000D01*
X148454000Y-88598517D01*
X148458064Y-88612359D01*
X148471478Y-88614393D01*
X148478184Y-88613534D01*
X148488262Y-88611392D01*
X148692255Y-88550191D01*
X148701842Y-88546433D01*
X148893095Y-88452739D01*
X148901945Y-88447464D01*
X149075328Y-88323792D01*
X149083200Y-88317139D01*
X149234052Y-88166812D01*
X149240730Y-88158965D01*
X149263678Y-88127029D01*
X149319672Y-88083381D01*
X149390376Y-88076935D01*
X149453340Y-88109738D01*
X149488574Y-88171374D01*
X149492000Y-88200555D01*
X149492000Y-99366000D01*
X149471998Y-99434121D01*
X149418342Y-99480614D01*
X149366000Y-99492000D01*
X114207789Y-99492000D01*
X114139668Y-99471998D01*
X114093175Y-99418342D01*
X114083071Y-99348068D01*
X114112565Y-99283488D01*
X114152353Y-99252851D01*
X114237994Y-99210896D01*
X114419860Y-99081173D01*
X114578096Y-98923489D01*
X114637594Y-98840689D01*
X114705435Y-98746277D01*
X114708453Y-98742077D01*
X114807430Y-98541811D01*
X114872370Y-98328069D01*
X114901529Y-98106590D01*
X114903156Y-98040000D01*
X114884852Y-97817361D01*
X114830431Y-97600702D01*
X114741354Y-97395840D01*
X114667384Y-97281500D01*
X114622822Y-97212617D01*
X114622818Y-97212612D01*
X114620014Y-97208277D01*
X114469670Y-97043051D01*
X114465619Y-97039852D01*
X114465615Y-97039848D01*
X114298414Y-96907800D01*
X114298410Y-96907798D01*
X114294359Y-96904598D01*
X114252569Y-96881529D01*
X114202598Y-96831097D01*
X114187826Y-96761654D01*
X114212942Y-96695248D01*
X114240294Y-96668641D01*
X114415328Y-96543792D01*
X114423200Y-96537139D01*
X114574052Y-96386812D01*
X114580730Y-96378965D01*
X114705003Y-96206020D01*
X114710313Y-96197183D01*
X114786873Y-96042277D01*
X144137009Y-96042277D01*
X144162625Y-96310769D01*
X144163710Y-96315203D01*
X144163711Y-96315209D01*
X144218017Y-96537139D01*
X144226731Y-96572750D01*
X144327985Y-96822733D01*
X144363931Y-96884124D01*
X144458765Y-97046088D01*
X144464265Y-97055482D01*
X144467118Y-97059049D01*
X144584686Y-97206060D01*
X144632716Y-97266119D01*
X144829809Y-97450234D01*
X145051416Y-97603968D01*
X145055499Y-97605999D01*
X145055502Y-97606001D01*
X145171013Y-97663466D01*
X145292894Y-97724101D01*
X145297228Y-97725522D01*
X145297231Y-97725523D01*
X145544853Y-97806698D01*
X145544859Y-97806699D01*
X145549186Y-97808118D01*
X145553677Y-97808898D01*
X145553678Y-97808898D01*
X145811140Y-97853601D01*
X145811148Y-97853602D01*
X145814921Y-97854257D01*
X145818758Y-97854448D01*
X145898578Y-97858422D01*
X145898586Y-97858422D01*
X145900149Y-97858500D01*
X146068512Y-97858500D01*
X146070780Y-97858335D01*
X146070792Y-97858335D01*
X146201884Y-97848823D01*
X146269004Y-97843953D01*
X146273459Y-97842969D01*
X146273462Y-97842969D01*
X146527912Y-97786791D01*
X146527916Y-97786790D01*
X146532372Y-97785806D01*
X146674048Y-97732130D01*
X146780318Y-97691868D01*
X146780321Y-97691867D01*
X146784588Y-97690250D01*
X147020368Y-97559286D01*
X147234773Y-97395657D01*
X147423312Y-97202792D01*
X147582034Y-96984730D01*
X147634965Y-96884124D01*
X147705490Y-96750079D01*
X147705493Y-96750073D01*
X147707615Y-96746039D01*
X147720045Y-96710842D01*
X147795902Y-96496033D01*
X147795902Y-96496032D01*
X147797425Y-96491720D01*
X147849581Y-96227100D01*
X147849808Y-96222544D01*
X147862764Y-95962292D01*
X147862764Y-95962286D01*
X147862991Y-95957723D01*
X147837375Y-95689231D01*
X147792042Y-95503967D01*
X147774355Y-95431688D01*
X147773269Y-95427250D01*
X147672015Y-95177267D01*
X147535735Y-94944518D01*
X147417928Y-94797208D01*
X147370136Y-94737447D01*
X147370135Y-94737445D01*
X147367284Y-94733881D01*
X147170191Y-94549766D01*
X146948584Y-94396032D01*
X146944501Y-94394001D01*
X146944498Y-94393999D01*
X146779606Y-94311967D01*
X146707106Y-94275899D01*
X146702772Y-94274478D01*
X146702769Y-94274477D01*
X146455147Y-94193302D01*
X146455141Y-94193301D01*
X146450814Y-94191882D01*
X146446322Y-94191102D01*
X146188860Y-94146399D01*
X146188852Y-94146398D01*
X146185079Y-94145743D01*
X146167684Y-94144877D01*
X146101422Y-94141578D01*
X146101414Y-94141578D01*
X146099851Y-94141500D01*
X145931488Y-94141500D01*
X145929220Y-94141665D01*
X145929208Y-94141665D01*
X145798116Y-94151177D01*
X145730996Y-94156047D01*
X145726541Y-94157031D01*
X145726538Y-94157031D01*
X145472088Y-94213209D01*
X145472084Y-94213210D01*
X145467628Y-94214194D01*
X145393676Y-94242212D01*
X145219682Y-94308132D01*
X145219679Y-94308133D01*
X145215412Y-94309750D01*
X144979632Y-94440714D01*
X144976000Y-94443486D01*
X144769064Y-94601415D01*
X144765227Y-94604343D01*
X144576688Y-94797208D01*
X144417966Y-95015270D01*
X144415844Y-95019304D01*
X144294510Y-95249921D01*
X144294507Y-95249927D01*
X144292385Y-95253961D01*
X144290865Y-95258266D01*
X144290863Y-95258270D01*
X144204098Y-95503967D01*
X144202575Y-95508280D01*
X144201692Y-95512762D01*
X144153400Y-95757778D01*
X144150419Y-95772900D01*
X144150192Y-95777453D01*
X144150192Y-95777456D01*
X144138802Y-96006267D01*
X144137009Y-96042277D01*
X114786873Y-96042277D01*
X114804670Y-96006267D01*
X114808469Y-95996672D01*
X114870377Y-95792910D01*
X114872555Y-95782837D01*
X114873986Y-95771962D01*
X114871775Y-95757778D01*
X114858617Y-95754000D01*
X110872000Y-95754000D01*
X110803879Y-95733998D01*
X110757386Y-95680342D01*
X110746000Y-95628000D01*
X110746000Y-95227885D01*
X111254000Y-95227885D01*
X111258475Y-95243124D01*
X111259865Y-95244329D01*
X111267548Y-95246000D01*
X113267885Y-95246000D01*
X113283124Y-95241525D01*
X113284329Y-95240135D01*
X113286000Y-95232452D01*
X113286000Y-95227885D01*
X113794000Y-95227885D01*
X113798475Y-95243124D01*
X113799865Y-95244329D01*
X113807548Y-95246000D01*
X114858344Y-95246000D01*
X114871875Y-95242027D01*
X114873180Y-95232947D01*
X114831214Y-95065875D01*
X114827894Y-95056124D01*
X114742972Y-94860814D01*
X114738105Y-94851739D01*
X114622426Y-94672926D01*
X114616136Y-94664757D01*
X114472806Y-94507240D01*
X114465273Y-94500215D01*
X114298139Y-94368222D01*
X114289552Y-94362517D01*
X114103117Y-94259599D01*
X114093705Y-94255369D01*
X113892959Y-94184280D01*
X113882988Y-94181646D01*
X113811837Y-94168972D01*
X113798540Y-94170432D01*
X113794000Y-94184989D01*
X113794000Y-95227885D01*
X113286000Y-95227885D01*
X113286000Y-94183102D01*
X113282082Y-94169758D01*
X113267806Y-94167771D01*
X113229324Y-94173660D01*
X113219288Y-94176051D01*
X113016868Y-94242212D01*
X113007359Y-94246209D01*
X112818463Y-94344542D01*
X112809738Y-94350036D01*
X112639433Y-94477905D01*
X112631726Y-94484748D01*
X112554094Y-94565985D01*
X112492570Y-94601415D01*
X112421657Y-94597958D01*
X112363871Y-94556712D01*
X112345018Y-94523164D01*
X112303324Y-94411946D01*
X112294786Y-94396351D01*
X112218285Y-94294276D01*
X112205724Y-94281715D01*
X112103649Y-94205214D01*
X112088054Y-94196676D01*
X111967606Y-94151522D01*
X111952351Y-94147895D01*
X111901486Y-94142369D01*
X111894672Y-94142000D01*
X111272115Y-94142000D01*
X111256876Y-94146475D01*
X111255671Y-94147865D01*
X111254000Y-94155548D01*
X111254000Y-95227885D01*
X110746000Y-95227885D01*
X110746000Y-94160116D01*
X110741525Y-94144877D01*
X110740135Y-94143672D01*
X110732452Y-94142001D01*
X110105331Y-94142001D01*
X110098510Y-94142371D01*
X110047648Y-94147895D01*
X110032396Y-94151521D01*
X109911946Y-94196676D01*
X109896351Y-94205214D01*
X109794276Y-94281715D01*
X109781715Y-94294276D01*
X109705214Y-94396351D01*
X109696676Y-94411946D01*
X109651522Y-94532394D01*
X109647895Y-94547649D01*
X109642369Y-94598514D01*
X109642000Y-94605328D01*
X109642001Y-95305130D01*
X109621999Y-95373251D01*
X109568343Y-95419744D01*
X109498070Y-95429848D01*
X109433489Y-95400355D01*
X109426906Y-95394225D01*
X107305405Y-93272724D01*
X107271379Y-93210412D01*
X107268500Y-93183629D01*
X107268500Y-91422632D01*
X107288502Y-91354511D01*
X107321331Y-91320054D01*
X107389860Y-91271173D01*
X107548096Y-91113489D01*
X107600203Y-91040974D01*
X107656198Y-90997326D01*
X107702526Y-90988500D01*
X108102930Y-90988500D01*
X108121880Y-90989933D01*
X108136115Y-90992099D01*
X108136119Y-90992099D01*
X108143349Y-90993199D01*
X108150641Y-90992606D01*
X108150644Y-90992606D01*
X108196018Y-90988915D01*
X108206233Y-90988500D01*
X108214293Y-90988500D01*
X108227583Y-90986951D01*
X108242507Y-90985211D01*
X108246882Y-90984778D01*
X108312339Y-90979454D01*
X108312342Y-90979453D01*
X108319637Y-90978860D01*
X108326601Y-90976604D01*
X108332560Y-90975413D01*
X108338415Y-90974029D01*
X108345681Y-90973182D01*
X108414327Y-90948265D01*
X108418455Y-90946848D01*
X108480936Y-90926607D01*
X108480938Y-90926606D01*
X108487899Y-90924351D01*
X108494154Y-90920555D01*
X108499628Y-90918049D01*
X108505058Y-90915330D01*
X108511937Y-90912833D01*
X108572976Y-90872814D01*
X108576680Y-90870477D01*
X108639107Y-90832595D01*
X108647484Y-90825197D01*
X108647508Y-90825224D01*
X108650500Y-90822571D01*
X108653733Y-90819868D01*
X108659852Y-90815856D01*
X108713128Y-90759617D01*
X108715506Y-90757175D01*
X109356331Y-90116350D01*
X109419228Y-90082199D01*
X109475824Y-90070169D01*
X109475833Y-90070166D01*
X109482288Y-90068794D01*
X109488319Y-90066109D01*
X109650722Y-89993803D01*
X109650724Y-89993802D01*
X109656752Y-89991118D01*
X109811253Y-89878866D01*
X109939040Y-89736944D01*
X110034527Y-89571556D01*
X110093542Y-89389928D01*
X110099286Y-89335283D01*
X110112814Y-89206565D01*
X110113504Y-89200000D01*
X110105738Y-89126109D01*
X110094232Y-89016635D01*
X110094232Y-89016633D01*
X110093542Y-89010072D01*
X110034527Y-88828444D01*
X109939040Y-88663056D01*
X109811253Y-88521134D01*
X109656752Y-88408882D01*
X109650724Y-88406198D01*
X109650722Y-88406197D01*
X109488319Y-88333891D01*
X109488318Y-88333891D01*
X109482288Y-88331206D01*
X109357193Y-88304616D01*
X109301944Y-88292872D01*
X109301939Y-88292872D01*
X109295487Y-88291500D01*
X109104513Y-88291500D01*
X109098061Y-88292872D01*
X109098056Y-88292872D01*
X109042807Y-88304616D01*
X108917712Y-88331206D01*
X108911682Y-88333891D01*
X108911681Y-88333891D01*
X108749278Y-88406197D01*
X108749276Y-88406198D01*
X108743248Y-88408882D01*
X108588747Y-88521134D01*
X108460960Y-88663056D01*
X108365473Y-88828444D01*
X108346736Y-88886112D01*
X108310613Y-88997285D01*
X108279875Y-89047444D01*
X107892724Y-89434595D01*
X107830412Y-89468621D01*
X107803629Y-89471500D01*
X107705939Y-89471500D01*
X107637818Y-89451498D01*
X107600147Y-89413941D01*
X107592818Y-89402612D01*
X107590014Y-89398277D01*
X107439670Y-89233051D01*
X107435619Y-89229852D01*
X107435615Y-89229848D01*
X107268414Y-89097800D01*
X107268410Y-89097798D01*
X107264359Y-89094598D01*
X107223053Y-89071796D01*
X107173084Y-89021364D01*
X107158312Y-88951921D01*
X107183428Y-88885516D01*
X107210780Y-88858909D01*
X107261514Y-88822721D01*
X107389860Y-88731173D01*
X107548096Y-88573489D01*
X107607594Y-88490689D01*
X107675435Y-88396277D01*
X107678453Y-88392077D01*
X107699320Y-88349857D01*
X107775136Y-88196453D01*
X107775137Y-88196451D01*
X107777430Y-88191811D01*
X107842370Y-87978069D01*
X107871529Y-87756590D01*
X107873156Y-87690000D01*
X107861479Y-87547966D01*
X144328257Y-87547966D01*
X144358565Y-87682446D01*
X144361645Y-87692275D01*
X144441770Y-87889603D01*
X144446413Y-87898794D01*
X144557694Y-88080388D01*
X144563777Y-88088699D01*
X144703213Y-88249667D01*
X144710580Y-88256883D01*
X144874434Y-88392916D01*
X144882881Y-88398831D01*
X145066756Y-88506279D01*
X145076042Y-88510729D01*
X145275001Y-88586703D01*
X145284899Y-88589579D01*
X145388250Y-88610606D01*
X145402299Y-88609410D01*
X145406000Y-88599065D01*
X145406000Y-88598517D01*
X145914000Y-88598517D01*
X145918064Y-88612359D01*
X145931478Y-88614393D01*
X145938184Y-88613534D01*
X145948262Y-88611392D01*
X146152255Y-88550191D01*
X146161842Y-88546433D01*
X146353095Y-88452739D01*
X146361945Y-88447464D01*
X146535328Y-88323792D01*
X146543200Y-88317139D01*
X146694052Y-88166812D01*
X146700730Y-88158965D01*
X146828022Y-87981819D01*
X146829147Y-87982627D01*
X146876669Y-87938876D01*
X146946607Y-87926661D01*
X147012046Y-87954197D01*
X147039870Y-87986028D01*
X147097690Y-88080383D01*
X147103777Y-88088699D01*
X147243213Y-88249667D01*
X147250580Y-88256883D01*
X147414434Y-88392916D01*
X147422881Y-88398831D01*
X147606756Y-88506279D01*
X147616042Y-88510729D01*
X147815001Y-88586703D01*
X147824899Y-88589579D01*
X147928250Y-88610606D01*
X147942299Y-88609410D01*
X147946000Y-88599065D01*
X147946000Y-87552115D01*
X147941525Y-87536876D01*
X147940135Y-87535671D01*
X147932452Y-87534000D01*
X145932115Y-87534000D01*
X145916876Y-87538475D01*
X145915671Y-87539865D01*
X145914000Y-87547548D01*
X145914000Y-88598517D01*
X145406000Y-88598517D01*
X145406000Y-87552115D01*
X145401525Y-87536876D01*
X145400135Y-87535671D01*
X145392452Y-87534000D01*
X144343225Y-87534000D01*
X144329694Y-87537973D01*
X144328257Y-87547966D01*
X107861479Y-87547966D01*
X107854852Y-87467361D01*
X107800431Y-87250702D01*
X107711354Y-87045840D01*
X107590014Y-86858277D01*
X107439670Y-86693051D01*
X107435619Y-86689852D01*
X107435615Y-86689848D01*
X107268414Y-86557800D01*
X107268410Y-86557798D01*
X107264359Y-86554598D01*
X107223053Y-86531796D01*
X107173084Y-86481364D01*
X107158312Y-86411921D01*
X107183428Y-86345516D01*
X107210780Y-86318909D01*
X107265027Y-86280215D01*
X107389860Y-86191173D01*
X107548096Y-86033489D01*
X107607594Y-85950689D01*
X107675435Y-85856277D01*
X107678453Y-85852077D01*
X107699320Y-85809857D01*
X107775136Y-85656453D01*
X107775137Y-85656451D01*
X107777430Y-85651811D01*
X107831467Y-85473955D01*
X107840865Y-85443023D01*
X107840865Y-85443021D01*
X107842370Y-85438069D01*
X107871529Y-85216590D01*
X107871611Y-85213240D01*
X107873074Y-85153365D01*
X107873074Y-85153361D01*
X107873156Y-85150000D01*
X107854852Y-84927361D01*
X107822861Y-84800000D01*
X127486496Y-84800000D01*
X127487186Y-84806565D01*
X127499355Y-84922342D01*
X127506458Y-84989928D01*
X127565473Y-85171556D01*
X127660960Y-85336944D01*
X127665378Y-85341851D01*
X127665379Y-85341852D01*
X127747394Y-85432939D01*
X127788747Y-85478866D01*
X127943248Y-85591118D01*
X127949276Y-85593802D01*
X127949278Y-85593803D01*
X128101138Y-85661415D01*
X128117712Y-85668794D01*
X128211112Y-85688647D01*
X128298056Y-85707128D01*
X128298061Y-85707128D01*
X128304513Y-85708500D01*
X128495487Y-85708500D01*
X128501939Y-85707128D01*
X128501944Y-85707128D01*
X128588888Y-85688647D01*
X128682288Y-85668794D01*
X128698862Y-85661415D01*
X128850722Y-85593803D01*
X128850724Y-85593802D01*
X128856752Y-85591118D01*
X129011253Y-85478866D01*
X129052606Y-85432939D01*
X129134621Y-85341852D01*
X129134622Y-85341851D01*
X129139040Y-85336944D01*
X129234527Y-85171556D01*
X129293542Y-84989928D01*
X129300646Y-84922342D01*
X129312814Y-84806565D01*
X129313504Y-84800000D01*
X129303697Y-84706695D01*
X129294232Y-84616635D01*
X129294232Y-84616633D01*
X129293542Y-84610072D01*
X129234527Y-84428444D01*
X129139040Y-84263056D01*
X129090864Y-84209551D01*
X129060146Y-84145544D01*
X129058500Y-84125241D01*
X129058500Y-82866371D01*
X129078502Y-82798250D01*
X129095405Y-82777276D01*
X129356331Y-82516350D01*
X129419228Y-82482199D01*
X129475824Y-82470169D01*
X129475833Y-82470166D01*
X129482288Y-82468794D01*
X129488319Y-82466109D01*
X129650722Y-82393803D01*
X129650724Y-82393802D01*
X129656752Y-82391118D01*
X129811253Y-82278866D01*
X129822736Y-82266113D01*
X129934621Y-82141852D01*
X129934622Y-82141851D01*
X129939040Y-82136944D01*
X130034527Y-81971556D01*
X130093542Y-81789928D01*
X130094311Y-81782617D01*
X130112814Y-81606565D01*
X130113504Y-81600000D01*
X130102684Y-81497054D01*
X130094232Y-81416635D01*
X130094232Y-81416633D01*
X130093542Y-81410072D01*
X130034527Y-81228444D01*
X129939040Y-81063056D01*
X129919899Y-81041797D01*
X129815675Y-80926045D01*
X129815674Y-80926044D01*
X129811253Y-80921134D01*
X129684317Y-80828909D01*
X129662094Y-80812763D01*
X129662093Y-80812762D01*
X129656752Y-80808882D01*
X129650724Y-80806198D01*
X129650722Y-80806197D01*
X129488319Y-80733891D01*
X129488318Y-80733891D01*
X129482288Y-80731206D01*
X129388887Y-80711353D01*
X129301944Y-80692872D01*
X129301939Y-80692872D01*
X129295487Y-80691500D01*
X129104513Y-80691500D01*
X129098061Y-80692872D01*
X129098056Y-80692872D01*
X129011113Y-80711353D01*
X128917712Y-80731206D01*
X128911682Y-80733891D01*
X128911681Y-80733891D01*
X128749278Y-80806197D01*
X128749276Y-80806198D01*
X128743248Y-80808882D01*
X128737907Y-80812762D01*
X128737906Y-80812763D01*
X128715683Y-80828909D01*
X128588747Y-80921134D01*
X128584326Y-80926044D01*
X128584325Y-80926045D01*
X128480102Y-81041797D01*
X128460960Y-81063056D01*
X128365473Y-81228444D01*
X128321280Y-81364457D01*
X128310613Y-81397285D01*
X128279875Y-81447444D01*
X127811089Y-81916230D01*
X127796677Y-81928616D01*
X127785082Y-81937149D01*
X127785077Y-81937154D01*
X127779182Y-81941492D01*
X127774443Y-81947070D01*
X127774440Y-81947073D01*
X127744965Y-81981768D01*
X127738035Y-81989284D01*
X127732340Y-81994979D01*
X127730060Y-81997861D01*
X127714719Y-82017251D01*
X127711928Y-82020655D01*
X127669409Y-82070703D01*
X127664667Y-82076285D01*
X127661339Y-82082801D01*
X127657972Y-82087850D01*
X127654805Y-82092979D01*
X127650266Y-82098716D01*
X127619345Y-82164875D01*
X127617442Y-82168769D01*
X127584231Y-82233808D01*
X127582492Y-82240916D01*
X127580393Y-82246559D01*
X127578476Y-82252322D01*
X127575378Y-82258950D01*
X127573888Y-82266112D01*
X127573888Y-82266113D01*
X127560514Y-82330412D01*
X127559544Y-82334696D01*
X127542192Y-82405610D01*
X127541500Y-82416764D01*
X127541464Y-82416762D01*
X127541225Y-82420755D01*
X127540851Y-82424947D01*
X127539360Y-82432115D01*
X127539558Y-82439432D01*
X127541454Y-82509521D01*
X127541500Y-82512928D01*
X127541500Y-84482268D01*
X127535333Y-84521205D01*
X127506458Y-84610072D01*
X127505768Y-84616635D01*
X127505767Y-84616642D01*
X127495881Y-84710702D01*
X127486496Y-84800000D01*
X107822861Y-84800000D01*
X107800431Y-84710702D01*
X107711354Y-84505840D01*
X107590014Y-84318277D01*
X107439670Y-84153051D01*
X107435619Y-84149852D01*
X107435615Y-84149848D01*
X107268414Y-84017800D01*
X107268410Y-84017798D01*
X107264359Y-84014598D01*
X107223053Y-83991796D01*
X107173084Y-83941364D01*
X107158312Y-83871921D01*
X107183428Y-83805516D01*
X107210780Y-83778909D01*
X107261051Y-83743051D01*
X107389860Y-83651173D01*
X107548096Y-83493489D01*
X107607594Y-83410689D01*
X107675435Y-83316277D01*
X107678453Y-83312077D01*
X107699320Y-83269857D01*
X107775136Y-83116453D01*
X107775137Y-83116451D01*
X107777430Y-83111811D01*
X107812071Y-82997795D01*
X107840865Y-82903023D01*
X107840865Y-82903021D01*
X107842370Y-82898069D01*
X107871529Y-82676590D01*
X107873156Y-82610000D01*
X107854852Y-82387361D01*
X107800431Y-82170702D01*
X107711354Y-81965840D01*
X107601613Y-81796206D01*
X107592822Y-81782617D01*
X107592820Y-81782614D01*
X107590014Y-81778277D01*
X107439670Y-81613051D01*
X107435619Y-81609852D01*
X107435615Y-81609848D01*
X107268414Y-81477800D01*
X107268410Y-81477798D01*
X107264359Y-81474598D01*
X107223053Y-81451796D01*
X107173084Y-81401364D01*
X107158312Y-81331921D01*
X107183428Y-81265516D01*
X107210780Y-81238909D01*
X107261051Y-81203051D01*
X107389860Y-81111173D01*
X107432408Y-81068774D01*
X107544435Y-80957137D01*
X107548096Y-80953489D01*
X107567817Y-80926045D01*
X107675435Y-80776277D01*
X107678453Y-80772077D01*
X107699320Y-80729857D01*
X107775136Y-80576453D01*
X107775137Y-80576451D01*
X107777430Y-80571811D01*
X107812071Y-80457795D01*
X107840865Y-80363023D01*
X107840865Y-80363021D01*
X107842370Y-80358069D01*
X107871529Y-80136590D01*
X107873156Y-80070000D01*
X107854852Y-79847361D01*
X107800431Y-79630702D01*
X107711354Y-79425840D01*
X107590014Y-79238277D01*
X107439670Y-79073051D01*
X107435619Y-79069852D01*
X107435615Y-79069848D01*
X107268414Y-78937800D01*
X107268410Y-78937798D01*
X107264359Y-78934598D01*
X107223053Y-78911796D01*
X107173084Y-78861364D01*
X107158312Y-78791921D01*
X107183428Y-78725516D01*
X107210780Y-78698909D01*
X107261051Y-78663051D01*
X107389860Y-78571173D01*
X107548096Y-78413489D01*
X107607594Y-78330689D01*
X107675435Y-78236277D01*
X107678453Y-78232077D01*
X107699320Y-78189857D01*
X107775136Y-78036453D01*
X107775137Y-78036451D01*
X107777430Y-78031811D01*
X107812071Y-77917795D01*
X107840865Y-77823023D01*
X107840865Y-77823021D01*
X107842370Y-77818069D01*
X107871529Y-77596590D01*
X107873156Y-77530000D01*
X107854852Y-77307361D01*
X107800431Y-77090702D01*
X107711354Y-76885840D01*
X107590014Y-76698277D01*
X107439670Y-76533051D01*
X107435619Y-76529852D01*
X107435615Y-76529848D01*
X107268414Y-76397800D01*
X107268410Y-76397798D01*
X107264359Y-76394598D01*
X107223053Y-76371796D01*
X107173084Y-76321364D01*
X107158312Y-76251921D01*
X107183428Y-76185516D01*
X107210780Y-76158909D01*
X107261051Y-76123051D01*
X107389860Y-76031173D01*
X107548096Y-75873489D01*
X107607594Y-75790689D01*
X107675435Y-75696277D01*
X107678453Y-75692077D01*
X107699320Y-75649857D01*
X107775136Y-75496453D01*
X107775137Y-75496451D01*
X107777430Y-75491811D01*
X107812071Y-75377795D01*
X107840865Y-75283023D01*
X107840865Y-75283021D01*
X107842370Y-75278069D01*
X107871529Y-75056590D01*
X107873156Y-74990000D01*
X107854852Y-74767361D01*
X107800431Y-74550702D01*
X107711354Y-74345840D01*
X107590014Y-74158277D01*
X107439670Y-73993051D01*
X107435619Y-73989852D01*
X107435615Y-73989848D01*
X107268414Y-73857800D01*
X107268410Y-73857798D01*
X107264359Y-73854598D01*
X107223053Y-73831796D01*
X107173084Y-73781364D01*
X107158312Y-73711921D01*
X107183428Y-73645516D01*
X107210780Y-73618909D01*
X107261051Y-73583051D01*
X107389860Y-73491173D01*
X107548096Y-73333489D01*
X107607594Y-73250689D01*
X107675435Y-73156277D01*
X107678453Y-73152077D01*
X107699320Y-73109857D01*
X107775136Y-72956453D01*
X107775137Y-72956451D01*
X107777430Y-72951811D01*
X107812071Y-72837795D01*
X107840865Y-72743023D01*
X107840865Y-72743021D01*
X107842370Y-72738069D01*
X107871529Y-72516590D01*
X107873156Y-72450000D01*
X107854852Y-72227361D01*
X107800431Y-72010702D01*
X107711354Y-71805840D01*
X107631882Y-71682995D01*
X107592822Y-71622617D01*
X107592820Y-71622614D01*
X107590014Y-71618277D01*
X107439670Y-71453051D01*
X107435619Y-71449852D01*
X107435615Y-71449848D01*
X107268414Y-71317800D01*
X107268410Y-71317798D01*
X107264359Y-71314598D01*
X107223053Y-71291796D01*
X107173084Y-71241364D01*
X107158312Y-71171921D01*
X107183428Y-71105516D01*
X107210780Y-71078909D01*
X107251309Y-71050000D01*
X134136496Y-71050000D01*
X134137186Y-71056565D01*
X134153588Y-71212617D01*
X134156458Y-71239928D01*
X134215473Y-71421556D01*
X134218776Y-71427278D01*
X134218777Y-71427279D01*
X134241196Y-71466109D01*
X134310960Y-71586944D01*
X134315378Y-71591851D01*
X134315379Y-71591852D01*
X134397452Y-71683003D01*
X134438747Y-71728866D01*
X134593248Y-71841118D01*
X134599276Y-71843802D01*
X134599278Y-71843803D01*
X134761681Y-71916109D01*
X134767712Y-71918794D01*
X134861112Y-71938647D01*
X134948056Y-71957128D01*
X134948061Y-71957128D01*
X134954513Y-71958500D01*
X135145487Y-71958500D01*
X135151939Y-71957128D01*
X135151944Y-71957128D01*
X135238888Y-71938647D01*
X135332288Y-71918794D01*
X135338319Y-71916109D01*
X135500722Y-71843803D01*
X135500724Y-71843802D01*
X135506752Y-71841118D01*
X135570750Y-71794621D01*
X135639671Y-71744546D01*
X135661253Y-71728866D01*
X135665668Y-71723963D01*
X135670580Y-71719540D01*
X135671705Y-71720789D01*
X135725014Y-71687949D01*
X135758200Y-71683500D01*
X139371233Y-71683500D01*
X139382416Y-71684027D01*
X139389909Y-71685702D01*
X139397835Y-71685453D01*
X139397836Y-71685453D01*
X139457986Y-71683562D01*
X139461945Y-71683500D01*
X139489856Y-71683500D01*
X139493791Y-71683003D01*
X139493856Y-71682995D01*
X139505693Y-71682062D01*
X139537951Y-71681048D01*
X139541970Y-71680922D01*
X139549889Y-71680673D01*
X139569343Y-71675021D01*
X139588700Y-71671013D01*
X139600930Y-71669468D01*
X139600931Y-71669468D01*
X139608797Y-71668474D01*
X139616168Y-71665555D01*
X139616170Y-71665555D01*
X139649912Y-71652196D01*
X139661142Y-71648351D01*
X139695983Y-71638229D01*
X139695984Y-71638229D01*
X139703593Y-71636018D01*
X139710412Y-71631985D01*
X139710417Y-71631983D01*
X139721028Y-71625707D01*
X139738776Y-71617012D01*
X139757617Y-71609552D01*
X139793387Y-71583564D01*
X139803307Y-71577048D01*
X139834535Y-71558580D01*
X139834538Y-71558578D01*
X139841362Y-71554542D01*
X139850499Y-71545405D01*
X139912811Y-71511379D01*
X139939594Y-71508500D01*
X139995487Y-71508500D01*
X140001939Y-71507128D01*
X140001944Y-71507128D01*
X140088888Y-71488647D01*
X140182288Y-71468794D01*
X140224842Y-71449848D01*
X140350722Y-71393803D01*
X140350724Y-71393802D01*
X140356752Y-71391118D01*
X140365695Y-71384621D01*
X140465505Y-71312104D01*
X140511253Y-71278866D01*
X140594507Y-71186403D01*
X140634621Y-71141852D01*
X140634622Y-71141851D01*
X140639040Y-71136944D01*
X140707984Y-71017530D01*
X140731223Y-70977279D01*
X140731224Y-70977278D01*
X140734527Y-70971556D01*
X140793542Y-70789928D01*
X140795727Y-70769144D01*
X140812814Y-70606565D01*
X140813504Y-70600000D01*
X140797448Y-70447238D01*
X140794232Y-70416635D01*
X140794232Y-70416633D01*
X140793542Y-70410072D01*
X140734527Y-70228444D01*
X140639040Y-70063056D01*
X140558170Y-69973240D01*
X140515675Y-69926045D01*
X140515674Y-69926044D01*
X140511253Y-69921134D01*
X140356752Y-69808882D01*
X140350724Y-69806198D01*
X140350722Y-69806197D01*
X140188319Y-69733891D01*
X140188318Y-69733891D01*
X140182288Y-69731206D01*
X140088888Y-69711353D01*
X140001944Y-69692872D01*
X140001939Y-69692872D01*
X139995487Y-69691500D01*
X139804513Y-69691500D01*
X139798061Y-69692872D01*
X139798056Y-69692872D01*
X139711112Y-69711353D01*
X139617712Y-69731206D01*
X139611682Y-69733891D01*
X139611681Y-69733891D01*
X139449278Y-69806197D01*
X139449276Y-69806198D01*
X139443248Y-69808882D01*
X139288747Y-69921134D01*
X139284326Y-69926044D01*
X139284325Y-69926045D01*
X139241831Y-69973240D01*
X139160960Y-70063056D01*
X139065473Y-70228444D01*
X139055707Y-70258500D01*
X139032658Y-70329437D01*
X138992584Y-70388042D01*
X138927187Y-70415679D01*
X138912825Y-70416500D01*
X135758200Y-70416500D01*
X135690079Y-70396498D01*
X135670853Y-70380157D01*
X135670580Y-70380460D01*
X135665668Y-70376037D01*
X135661253Y-70371134D01*
X135580683Y-70312596D01*
X135512094Y-70262763D01*
X135512093Y-70262762D01*
X135506752Y-70258882D01*
X135500724Y-70256198D01*
X135500722Y-70256197D01*
X135338319Y-70183891D01*
X135338318Y-70183891D01*
X135332288Y-70181206D01*
X135238888Y-70161353D01*
X135151944Y-70142872D01*
X135151939Y-70142872D01*
X135145487Y-70141500D01*
X134954513Y-70141500D01*
X134948061Y-70142872D01*
X134948056Y-70142872D01*
X134861112Y-70161353D01*
X134767712Y-70181206D01*
X134761682Y-70183891D01*
X134761681Y-70183891D01*
X134599278Y-70256197D01*
X134599276Y-70256198D01*
X134593248Y-70258882D01*
X134438747Y-70371134D01*
X134434326Y-70376044D01*
X134434325Y-70376045D01*
X134382755Y-70433320D01*
X134310960Y-70513056D01*
X134215473Y-70678444D01*
X134156458Y-70860072D01*
X134155768Y-70866633D01*
X134155768Y-70866635D01*
X134139909Y-71017530D01*
X134136496Y-71050000D01*
X107251309Y-71050000D01*
X107261051Y-71043051D01*
X107389860Y-70951173D01*
X107548096Y-70793489D01*
X107558375Y-70779185D01*
X107675435Y-70616277D01*
X107678453Y-70612077D01*
X107686051Y-70596705D01*
X107775136Y-70416453D01*
X107775137Y-70416451D01*
X107777430Y-70411811D01*
X107842370Y-70198069D01*
X107871529Y-69976590D01*
X107873156Y-69910000D01*
X107854852Y-69687361D01*
X107800431Y-69470702D01*
X107711354Y-69265840D01*
X107596062Y-69087626D01*
X107592822Y-69082617D01*
X107592820Y-69082614D01*
X107590014Y-69078277D01*
X107439670Y-68913051D01*
X107435619Y-68909852D01*
X107435615Y-68909848D01*
X107268414Y-68777800D01*
X107268410Y-68777798D01*
X107264359Y-68774598D01*
X107223053Y-68751796D01*
X107173084Y-68701364D01*
X107158312Y-68631921D01*
X107183428Y-68565516D01*
X107210780Y-68538909D01*
X107261051Y-68503051D01*
X107389860Y-68411173D01*
X107548096Y-68253489D01*
X107582475Y-68205646D01*
X107675435Y-68076277D01*
X107678453Y-68072077D01*
X107682927Y-68063026D01*
X107775136Y-67876453D01*
X107775137Y-67876451D01*
X107777430Y-67871811D01*
X107826006Y-67711928D01*
X107840865Y-67663023D01*
X107840865Y-67663021D01*
X107842370Y-67658069D01*
X107871529Y-67436590D01*
X107872088Y-67413717D01*
X107873074Y-67373365D01*
X107873074Y-67373361D01*
X107873156Y-67370000D01*
X107854852Y-67147361D01*
X107800431Y-66930702D01*
X107711354Y-66725840D01*
X107590014Y-66538277D01*
X107439670Y-66373051D01*
X107435619Y-66369852D01*
X107435615Y-66369848D01*
X107268414Y-66237800D01*
X107268410Y-66237798D01*
X107264359Y-66234598D01*
X107223053Y-66211796D01*
X107173084Y-66161364D01*
X107158312Y-66091921D01*
X107183428Y-66025516D01*
X107210780Y-65998909D01*
X107254603Y-65967650D01*
X107389860Y-65871173D01*
X107548096Y-65713489D01*
X107678453Y-65532077D01*
X107777430Y-65331811D01*
X107842370Y-65118069D01*
X107871529Y-64896590D01*
X107873156Y-64830000D01*
X107854852Y-64607361D01*
X107800431Y-64390702D01*
X107711354Y-64185840D01*
X107671906Y-64124862D01*
X107592822Y-64002617D01*
X107592820Y-64002614D01*
X107590014Y-63998277D01*
X107439670Y-63833051D01*
X107435619Y-63829852D01*
X107435615Y-63829848D01*
X107268414Y-63697800D01*
X107268410Y-63697798D01*
X107264359Y-63694598D01*
X107222569Y-63671529D01*
X107172598Y-63621097D01*
X107157826Y-63551654D01*
X107182942Y-63485248D01*
X107210294Y-63458641D01*
X107385328Y-63333792D01*
X107393200Y-63327139D01*
X107544052Y-63176812D01*
X107550730Y-63168965D01*
X107675003Y-62996020D01*
X107680313Y-62987183D01*
X107774670Y-62796267D01*
X107778469Y-62786672D01*
X107840377Y-62582910D01*
X107842555Y-62572837D01*
X107843986Y-62561962D01*
X107841775Y-62547778D01*
X107828617Y-62544000D01*
X102653225Y-62544000D01*
X102639694Y-62547973D01*
X102638257Y-62557966D01*
X102668565Y-62692446D01*
X102671645Y-62702275D01*
X102751770Y-62899603D01*
X102756413Y-62908794D01*
X102867694Y-63090388D01*
X102873777Y-63098699D01*
X103013213Y-63259667D01*
X103020577Y-63266879D01*
X103025522Y-63270985D01*
X103065156Y-63329889D01*
X103066653Y-63400870D01*
X103029537Y-63461392D01*
X102989264Y-63485910D01*
X102881705Y-63526232D01*
X102881704Y-63526233D01*
X102873295Y-63529385D01*
X102756739Y-63616739D01*
X102669385Y-63733295D01*
X102618255Y-63869684D01*
X102611500Y-63931866D01*
X102611500Y-65728134D01*
X102618255Y-65790316D01*
X102669385Y-65926705D01*
X102756739Y-66043261D01*
X102873295Y-66130615D01*
X102881704Y-66133767D01*
X102881705Y-66133768D01*
X102990451Y-66174535D01*
X103047216Y-66217176D01*
X103071916Y-66283738D01*
X103056709Y-66353087D01*
X103037316Y-66379568D01*
X102910629Y-66512138D01*
X102907720Y-66516403D01*
X102907714Y-66516411D01*
X102889838Y-66542617D01*
X102784743Y-66696680D01*
X102690688Y-66899305D01*
X102630989Y-67114570D01*
X102607251Y-67336695D01*
X102607548Y-67341848D01*
X102607548Y-67341851D01*
X102617906Y-67521498D01*
X102620110Y-67559715D01*
X102621247Y-67564761D01*
X102621248Y-67564767D01*
X102624770Y-67580393D01*
X102669222Y-67777639D01*
X102753266Y-67984616D01*
X102798542Y-68058500D01*
X102867291Y-68170688D01*
X102869987Y-68175088D01*
X103016250Y-68343938D01*
X103100846Y-68414171D01*
X103173093Y-68474151D01*
X103188126Y-68486632D01*
X103210743Y-68499848D01*
X103261445Y-68529476D01*
X103310169Y-68581114D01*
X103323240Y-68650897D01*
X103296509Y-68716669D01*
X103256055Y-68750027D01*
X103243607Y-68756507D01*
X103239474Y-68759610D01*
X103239471Y-68759612D01*
X103215247Y-68777800D01*
X103064965Y-68890635D01*
X103061393Y-68894373D01*
X102934629Y-69027024D01*
X102910629Y-69052138D01*
X102907720Y-69056403D01*
X102907714Y-69056411D01*
X102895404Y-69074457D01*
X102784743Y-69236680D01*
X102769003Y-69270590D01*
X102707204Y-69403725D01*
X102690688Y-69439305D01*
X102630989Y-69654570D01*
X102607251Y-69876695D01*
X102607548Y-69881848D01*
X102607548Y-69881851D01*
X102613011Y-69976590D01*
X102620110Y-70099715D01*
X102621247Y-70104761D01*
X102621248Y-70104767D01*
X102629836Y-70142872D01*
X102669222Y-70317639D01*
X102753266Y-70524616D01*
X102792290Y-70588297D01*
X102867291Y-70710688D01*
X102869987Y-70715088D01*
X102873367Y-70718990D01*
X103001262Y-70866635D01*
X103016250Y-70883938D01*
X103092846Y-70947529D01*
X103180903Y-71020635D01*
X103188126Y-71026632D01*
X103258595Y-71067811D01*
X103261445Y-71069476D01*
X103310169Y-71121114D01*
X103323240Y-71190897D01*
X103296509Y-71256669D01*
X103256055Y-71290027D01*
X103243607Y-71296507D01*
X103239474Y-71299610D01*
X103239471Y-71299612D01*
X103069100Y-71427530D01*
X103064965Y-71430635D01*
X103061393Y-71434373D01*
X102915593Y-71586944D01*
X102910629Y-71592138D01*
X102907720Y-71596403D01*
X102907714Y-71596411D01*
X102850065Y-71680922D01*
X102784743Y-71776680D01*
X102690688Y-71979305D01*
X102630989Y-72194570D01*
X102607251Y-72416695D01*
X102607548Y-72421848D01*
X102607548Y-72421851D01*
X102613011Y-72516590D01*
X102620110Y-72639715D01*
X102621247Y-72644761D01*
X102621248Y-72644767D01*
X102630907Y-72687625D01*
X102669222Y-72857639D01*
X102753266Y-73064616D01*
X102804019Y-73147438D01*
X102867291Y-73250688D01*
X102869987Y-73255088D01*
X103016250Y-73423938D01*
X103092846Y-73487529D01*
X103180903Y-73560635D01*
X103188126Y-73566632D01*
X103222770Y-73586876D01*
X103261445Y-73609476D01*
X103310169Y-73661114D01*
X103323240Y-73730897D01*
X103296509Y-73796669D01*
X103256055Y-73830027D01*
X103243607Y-73836507D01*
X103239474Y-73839610D01*
X103239471Y-73839612D01*
X103069100Y-73967530D01*
X103064965Y-73970635D01*
X102910629Y-74132138D01*
X102784743Y-74316680D01*
X102690688Y-74519305D01*
X102630989Y-74734570D01*
X102607251Y-74956695D01*
X102607548Y-74961848D01*
X102607548Y-74961851D01*
X102613011Y-75056590D01*
X102620110Y-75179715D01*
X102621247Y-75184761D01*
X102621248Y-75184767D01*
X102630907Y-75227625D01*
X102669222Y-75397639D01*
X102753266Y-75604616D01*
X102804019Y-75687438D01*
X102867291Y-75790688D01*
X102869987Y-75795088D01*
X103016250Y-75963938D01*
X103092846Y-76027529D01*
X103180903Y-76100635D01*
X103188126Y-76106632D01*
X103222770Y-76126876D01*
X103261445Y-76149476D01*
X103310169Y-76201114D01*
X103323240Y-76270897D01*
X103296509Y-76336669D01*
X103256055Y-76370027D01*
X103243607Y-76376507D01*
X103239474Y-76379610D01*
X103239471Y-76379612D01*
X103069100Y-76507530D01*
X103064965Y-76510635D01*
X102910629Y-76672138D01*
X102784743Y-76856680D01*
X102690688Y-77059305D01*
X102630989Y-77274570D01*
X102607251Y-77496695D01*
X102607548Y-77501848D01*
X102607548Y-77501851D01*
X102613011Y-77596590D01*
X102620110Y-77719715D01*
X102621247Y-77724761D01*
X102621248Y-77724767D01*
X102630907Y-77767625D01*
X102669222Y-77937639D01*
X102753266Y-78144616D01*
X102804019Y-78227438D01*
X102867291Y-78330688D01*
X102869987Y-78335088D01*
X103016250Y-78503938D01*
X103092846Y-78567529D01*
X103180903Y-78640635D01*
X103188126Y-78646632D01*
X103222770Y-78666876D01*
X103261445Y-78689476D01*
X103310169Y-78741114D01*
X103323240Y-78810897D01*
X103296509Y-78876669D01*
X103256055Y-78910027D01*
X103243607Y-78916507D01*
X103239474Y-78919610D01*
X103239471Y-78919612D01*
X103069100Y-79047530D01*
X103064965Y-79050635D01*
X102910629Y-79212138D01*
X102784743Y-79396680D01*
X102690688Y-79599305D01*
X102630989Y-79814570D01*
X102607251Y-80036695D01*
X102607548Y-80041848D01*
X102607548Y-80041851D01*
X102613011Y-80136590D01*
X102620110Y-80259715D01*
X102621247Y-80264761D01*
X102621248Y-80264767D01*
X102630907Y-80307625D01*
X102669222Y-80477639D01*
X102753266Y-80684616D01*
X102804019Y-80767438D01*
X102867291Y-80870688D01*
X102869987Y-80875088D01*
X102873367Y-80878990D01*
X102914128Y-80926045D01*
X103016250Y-81043938D01*
X103092846Y-81107529D01*
X103180903Y-81180635D01*
X103188126Y-81186632D01*
X103222770Y-81206876D01*
X103261445Y-81229476D01*
X103310169Y-81281114D01*
X103323240Y-81350897D01*
X103296509Y-81416669D01*
X103256055Y-81450027D01*
X103243607Y-81456507D01*
X103239474Y-81459610D01*
X103239471Y-81459612D01*
X103069100Y-81587530D01*
X103064965Y-81590635D01*
X102910629Y-81752138D01*
X102784743Y-81936680D01*
X102769003Y-81970590D01*
X102709529Y-82098716D01*
X102690688Y-82139305D01*
X102630989Y-82354570D01*
X102607251Y-82576695D01*
X102607548Y-82581848D01*
X102607548Y-82581851D01*
X102613011Y-82676590D01*
X102620110Y-82799715D01*
X102621247Y-82804761D01*
X102621248Y-82804767D01*
X102630907Y-82847625D01*
X102669222Y-83017639D01*
X102753266Y-83224616D01*
X102804019Y-83307438D01*
X102867291Y-83410688D01*
X102869987Y-83415088D01*
X103016250Y-83583938D01*
X103092846Y-83647529D01*
X103180903Y-83720635D01*
X103188126Y-83726632D01*
X103222770Y-83746876D01*
X103261445Y-83769476D01*
X103310169Y-83821114D01*
X103323240Y-83890897D01*
X103296509Y-83956669D01*
X103256055Y-83990027D01*
X103243607Y-83996507D01*
X103239474Y-83999610D01*
X103239471Y-83999612D01*
X103072149Y-84125241D01*
X103064965Y-84130635D01*
X102910629Y-84292138D01*
X102784743Y-84476680D01*
X102690688Y-84679305D01*
X102630989Y-84894570D01*
X102607251Y-85116695D01*
X102607548Y-85121848D01*
X102607548Y-85121851D01*
X102613011Y-85216590D01*
X102620110Y-85339715D01*
X102621247Y-85344761D01*
X102621248Y-85344767D01*
X102630907Y-85387625D01*
X102669222Y-85557639D01*
X102753266Y-85764616D01*
X102804019Y-85847438D01*
X102867291Y-85950688D01*
X102869987Y-85955088D01*
X103016250Y-86123938D01*
X103188126Y-86266632D01*
X103211371Y-86280215D01*
X103261445Y-86309476D01*
X103310169Y-86361114D01*
X103323240Y-86430897D01*
X103296509Y-86496669D01*
X103256055Y-86530027D01*
X103243607Y-86536507D01*
X103239474Y-86539610D01*
X103239471Y-86539612D01*
X103069100Y-86667530D01*
X103064965Y-86670635D01*
X102910629Y-86832138D01*
X102784743Y-87016680D01*
X102690688Y-87219305D01*
X102630989Y-87434570D01*
X102607251Y-87656695D01*
X102607548Y-87661848D01*
X102607548Y-87661851D01*
X102613011Y-87756590D01*
X102620110Y-87879715D01*
X102621247Y-87884761D01*
X102621248Y-87884767D01*
X102636895Y-87954197D01*
X102669222Y-88097639D01*
X102753266Y-88304616D01*
X102804019Y-88387438D01*
X102867291Y-88490688D01*
X102869987Y-88495088D01*
X103016250Y-88663938D01*
X103020230Y-88667242D01*
X103024981Y-88671187D01*
X103064616Y-88730090D01*
X103066113Y-88801071D01*
X103028997Y-88861593D01*
X102988725Y-88886112D01*
X102900095Y-88919338D01*
X102873295Y-88929385D01*
X102756739Y-89016739D01*
X102669385Y-89133295D01*
X102618255Y-89269684D01*
X102611500Y-89331866D01*
X102611500Y-91128134D01*
X102618255Y-91190316D01*
X102669385Y-91326705D01*
X102756739Y-91443261D01*
X102873295Y-91530615D01*
X103009684Y-91581745D01*
X103071866Y-91588500D01*
X104868134Y-91588500D01*
X104930316Y-91581745D01*
X105066705Y-91530615D01*
X105183261Y-91443261D01*
X105270615Y-91326705D01*
X105292799Y-91267529D01*
X105314598Y-91209382D01*
X105357240Y-91152618D01*
X105423802Y-91127918D01*
X105493150Y-91143126D01*
X105527817Y-91171114D01*
X105556250Y-91203938D01*
X105704124Y-91326705D01*
X105705985Y-91328250D01*
X105745620Y-91387152D01*
X105751500Y-91425194D01*
X105751500Y-93482930D01*
X105750067Y-93501880D01*
X105746801Y-93523349D01*
X105747394Y-93530641D01*
X105747394Y-93530644D01*
X105751085Y-93576018D01*
X105751500Y-93586233D01*
X105751500Y-93594293D01*
X105751925Y-93597937D01*
X105754789Y-93622507D01*
X105755222Y-93626882D01*
X105761140Y-93699637D01*
X105763396Y-93706601D01*
X105764587Y-93712560D01*
X105765971Y-93718415D01*
X105766818Y-93725681D01*
X105791735Y-93794327D01*
X105793152Y-93798455D01*
X105815649Y-93867899D01*
X105819445Y-93874154D01*
X105821951Y-93879628D01*
X105824670Y-93885058D01*
X105827167Y-93891937D01*
X105831180Y-93898057D01*
X105831180Y-93898058D01*
X105867186Y-93952976D01*
X105869523Y-93956680D01*
X105907405Y-94019107D01*
X105911121Y-94023315D01*
X105911122Y-94023316D01*
X105914803Y-94027484D01*
X105914776Y-94027508D01*
X105917429Y-94030500D01*
X105920132Y-94033733D01*
X105924144Y-94039852D01*
X105929456Y-94044884D01*
X105980383Y-94093128D01*
X105982825Y-94095506D01*
X109619449Y-97732130D01*
X109653475Y-97794442D01*
X109655641Y-97834613D01*
X109637251Y-98006695D01*
X109637548Y-98011848D01*
X109637548Y-98011851D01*
X109643011Y-98106590D01*
X109650110Y-98229715D01*
X109651247Y-98234761D01*
X109651248Y-98234767D01*
X109671119Y-98322939D01*
X109699222Y-98447639D01*
X109783266Y-98654616D01*
X109899987Y-98845088D01*
X110046250Y-99013938D01*
X110218126Y-99156632D01*
X110382781Y-99252848D01*
X110390249Y-99257212D01*
X110438973Y-99308850D01*
X110452044Y-99378633D01*
X110425313Y-99444405D01*
X110367266Y-99485284D01*
X110326679Y-99492000D01*
X100634000Y-99492000D01*
X100565879Y-99471998D01*
X100519386Y-99418342D01*
X100508000Y-99366000D01*
X100508000Y-96042277D01*
X102137009Y-96042277D01*
X102162625Y-96310769D01*
X102163710Y-96315203D01*
X102163711Y-96315209D01*
X102218017Y-96537139D01*
X102226731Y-96572750D01*
X102327985Y-96822733D01*
X102363931Y-96884124D01*
X102458765Y-97046088D01*
X102464265Y-97055482D01*
X102467118Y-97059049D01*
X102584686Y-97206060D01*
X102632716Y-97266119D01*
X102829809Y-97450234D01*
X103051416Y-97603968D01*
X103055499Y-97605999D01*
X103055502Y-97606001D01*
X103171013Y-97663466D01*
X103292894Y-97724101D01*
X103297228Y-97725522D01*
X103297231Y-97725523D01*
X103544853Y-97806698D01*
X103544859Y-97806699D01*
X103549186Y-97808118D01*
X103553677Y-97808898D01*
X103553678Y-97808898D01*
X103811140Y-97853601D01*
X103811148Y-97853602D01*
X103814921Y-97854257D01*
X103818758Y-97854448D01*
X103898578Y-97858422D01*
X103898586Y-97858422D01*
X103900149Y-97858500D01*
X104068512Y-97858500D01*
X104070780Y-97858335D01*
X104070792Y-97858335D01*
X104201884Y-97848823D01*
X104269004Y-97843953D01*
X104273459Y-97842969D01*
X104273462Y-97842969D01*
X104527912Y-97786791D01*
X104527916Y-97786790D01*
X104532372Y-97785806D01*
X104674048Y-97732130D01*
X104780318Y-97691868D01*
X104780321Y-97691867D01*
X104784588Y-97690250D01*
X105020368Y-97559286D01*
X105234773Y-97395657D01*
X105423312Y-97202792D01*
X105582034Y-96984730D01*
X105634965Y-96884124D01*
X105705490Y-96750079D01*
X105705493Y-96750073D01*
X105707615Y-96746039D01*
X105720045Y-96710842D01*
X105795902Y-96496033D01*
X105795902Y-96496032D01*
X105797425Y-96491720D01*
X105849581Y-96227100D01*
X105849808Y-96222544D01*
X105862764Y-95962292D01*
X105862764Y-95962286D01*
X105862991Y-95957723D01*
X105837375Y-95689231D01*
X105792042Y-95503967D01*
X105774355Y-95431688D01*
X105773269Y-95427250D01*
X105672015Y-95177267D01*
X105535735Y-94944518D01*
X105417928Y-94797208D01*
X105370136Y-94737447D01*
X105370135Y-94737445D01*
X105367284Y-94733881D01*
X105170191Y-94549766D01*
X104948584Y-94396032D01*
X104944501Y-94394001D01*
X104944498Y-94393999D01*
X104779606Y-94311967D01*
X104707106Y-94275899D01*
X104702772Y-94274478D01*
X104702769Y-94274477D01*
X104455147Y-94193302D01*
X104455141Y-94193301D01*
X104450814Y-94191882D01*
X104446322Y-94191102D01*
X104188860Y-94146399D01*
X104188852Y-94146398D01*
X104185079Y-94145743D01*
X104167684Y-94144877D01*
X104101422Y-94141578D01*
X104101414Y-94141578D01*
X104099851Y-94141500D01*
X103931488Y-94141500D01*
X103929220Y-94141665D01*
X103929208Y-94141665D01*
X103798116Y-94151177D01*
X103730996Y-94156047D01*
X103726541Y-94157031D01*
X103726538Y-94157031D01*
X103472088Y-94213209D01*
X103472084Y-94213210D01*
X103467628Y-94214194D01*
X103393676Y-94242212D01*
X103219682Y-94308132D01*
X103219679Y-94308133D01*
X103215412Y-94309750D01*
X102979632Y-94440714D01*
X102976000Y-94443486D01*
X102769064Y-94601415D01*
X102765227Y-94604343D01*
X102576688Y-94797208D01*
X102417966Y-95015270D01*
X102415844Y-95019304D01*
X102294510Y-95249921D01*
X102294507Y-95249927D01*
X102292385Y-95253961D01*
X102290865Y-95258266D01*
X102290863Y-95258270D01*
X102204098Y-95503967D01*
X102202575Y-95508280D01*
X102201692Y-95512762D01*
X102153400Y-95757778D01*
X102150419Y-95772900D01*
X102150192Y-95777453D01*
X102150192Y-95777456D01*
X102138802Y-96006267D01*
X102137009Y-96042277D01*
X100508000Y-96042277D01*
X100508000Y-60648134D01*
X102611500Y-60648134D01*
X102618255Y-60710316D01*
X102669385Y-60846705D01*
X102756739Y-60963261D01*
X102873295Y-61050615D01*
X102881704Y-61053767D01*
X102881705Y-61053768D01*
X102990960Y-61094726D01*
X103047725Y-61137367D01*
X103072425Y-61203929D01*
X103057218Y-61273278D01*
X103037825Y-61299759D01*
X102914590Y-61428717D01*
X102908104Y-61436727D01*
X102788098Y-61612649D01*
X102783000Y-61621623D01*
X102693338Y-61814783D01*
X102689775Y-61824470D01*
X102634389Y-62024183D01*
X102635912Y-62032607D01*
X102648292Y-62036000D01*
X107828344Y-62036000D01*
X107841875Y-62032027D01*
X107843180Y-62022947D01*
X107801214Y-61855875D01*
X107797894Y-61846124D01*
X107712972Y-61650814D01*
X107708105Y-61641739D01*
X107592426Y-61462926D01*
X107586136Y-61454757D01*
X107442806Y-61297240D01*
X107435273Y-61290215D01*
X107268139Y-61158222D01*
X107259556Y-61152520D01*
X107222602Y-61132120D01*
X107172631Y-61081687D01*
X107157859Y-61012245D01*
X107182975Y-60945839D01*
X107210327Y-60919232D01*
X107233797Y-60902491D01*
X107389860Y-60791173D01*
X107548096Y-60633489D01*
X107678453Y-60452077D01*
X107777430Y-60251811D01*
X107817597Y-60119607D01*
X107840865Y-60043023D01*
X107840865Y-60043021D01*
X107842370Y-60038069D01*
X107871529Y-59816590D01*
X107873156Y-59750000D01*
X107855870Y-59539747D01*
X107870223Y-59470219D01*
X107892351Y-59440330D01*
X111488911Y-55843770D01*
X111503323Y-55831384D01*
X111514918Y-55822851D01*
X111514923Y-55822846D01*
X111520818Y-55818508D01*
X111525557Y-55812930D01*
X111525559Y-55812928D01*
X111534100Y-55802874D01*
X111574694Y-55771300D01*
X111637811Y-55740379D01*
X111693359Y-55713167D01*
X111693362Y-55713165D01*
X111697994Y-55710896D01*
X111879860Y-55581173D01*
X111904606Y-55556514D01*
X112034435Y-55427137D01*
X112038096Y-55423489D01*
X112060444Y-55392389D01*
X112090203Y-55350974D01*
X112146198Y-55307326D01*
X112192526Y-55298500D01*
X112342491Y-55298500D01*
X112410612Y-55318502D01*
X112439402Y-55345595D01*
X112439987Y-55345088D01*
X112586250Y-55513938D01*
X112758126Y-55656632D01*
X112951000Y-55769338D01*
X113159692Y-55849030D01*
X113164760Y-55850061D01*
X113164763Y-55850062D01*
X113272017Y-55871883D01*
X113378597Y-55893567D01*
X113383772Y-55893757D01*
X113383774Y-55893757D01*
X113596673Y-55901564D01*
X113596677Y-55901564D01*
X113601837Y-55901753D01*
X113741908Y-55883809D01*
X113812017Y-55894993D01*
X113847012Y-55919693D01*
X117816230Y-59888911D01*
X117828616Y-59903323D01*
X117837149Y-59914918D01*
X117837154Y-59914923D01*
X117841492Y-59920818D01*
X117847070Y-59925557D01*
X117847073Y-59925560D01*
X117881768Y-59955035D01*
X117889284Y-59961965D01*
X117894979Y-59967660D01*
X117897861Y-59969940D01*
X117917251Y-59985281D01*
X117920655Y-59988072D01*
X117970703Y-60030591D01*
X117976285Y-60035333D01*
X117982801Y-60038661D01*
X117987850Y-60042028D01*
X117992979Y-60045195D01*
X117998716Y-60049734D01*
X118064875Y-60080655D01*
X118068769Y-60082558D01*
X118133808Y-60115769D01*
X118140916Y-60117508D01*
X118146559Y-60119607D01*
X118152322Y-60121524D01*
X118158950Y-60124622D01*
X118166112Y-60126112D01*
X118166113Y-60126112D01*
X118230412Y-60139486D01*
X118234696Y-60140456D01*
X118305610Y-60157808D01*
X118311212Y-60158156D01*
X118311215Y-60158156D01*
X118316764Y-60158500D01*
X118316762Y-60158536D01*
X118320755Y-60158775D01*
X118324947Y-60159149D01*
X118332115Y-60160640D01*
X118409520Y-60158546D01*
X118412928Y-60158500D01*
X124133629Y-60158500D01*
X124201750Y-60178502D01*
X124222724Y-60195405D01*
X127579875Y-63552556D01*
X127610613Y-63602714D01*
X127665473Y-63771556D01*
X127760960Y-63936944D01*
X127888747Y-64078866D01*
X128043248Y-64191118D01*
X128049276Y-64193802D01*
X128049278Y-64193803D01*
X128211681Y-64266109D01*
X128217712Y-64268794D01*
X128224167Y-64270166D01*
X128224176Y-64270169D01*
X128280772Y-64282199D01*
X128343669Y-64316350D01*
X131816230Y-67788911D01*
X131828616Y-67803323D01*
X131837149Y-67814918D01*
X131837154Y-67814923D01*
X131841492Y-67820818D01*
X131847070Y-67825557D01*
X131847073Y-67825560D01*
X131881768Y-67855035D01*
X131889284Y-67861965D01*
X131894979Y-67867660D01*
X131897861Y-67869940D01*
X131917251Y-67885281D01*
X131920655Y-67888072D01*
X131970703Y-67930591D01*
X131976285Y-67935333D01*
X131982801Y-67938661D01*
X131987850Y-67942028D01*
X131992979Y-67945195D01*
X131998716Y-67949734D01*
X132064875Y-67980655D01*
X132068775Y-67982561D01*
X132133808Y-68015769D01*
X132133710Y-68015960D01*
X132156961Y-68028427D01*
X132179970Y-68045144D01*
X132237904Y-68087235D01*
X132243248Y-68091118D01*
X132249276Y-68093802D01*
X132249278Y-68093803D01*
X132405253Y-68163247D01*
X132417712Y-68168794D01*
X132480166Y-68182069D01*
X132598056Y-68207128D01*
X132598061Y-68207128D01*
X132604513Y-68208500D01*
X132795487Y-68208500D01*
X132801939Y-68207128D01*
X132801944Y-68207128D01*
X132919834Y-68182069D01*
X132982288Y-68168794D01*
X132994747Y-68163247D01*
X133150722Y-68093803D01*
X133150724Y-68093802D01*
X133156752Y-68091118D01*
X133162091Y-68087239D01*
X133162098Y-68087235D01*
X133168528Y-68082563D01*
X133242587Y-68058500D01*
X133757413Y-68058500D01*
X133831472Y-68082563D01*
X133837902Y-68087235D01*
X133837909Y-68087239D01*
X133843248Y-68091118D01*
X133849276Y-68093802D01*
X133849278Y-68093803D01*
X134005253Y-68163247D01*
X134017712Y-68168794D01*
X134080166Y-68182069D01*
X134198056Y-68207128D01*
X134198061Y-68207128D01*
X134204513Y-68208500D01*
X134395487Y-68208500D01*
X134401939Y-68207128D01*
X134401944Y-68207128D01*
X134519834Y-68182069D01*
X134582288Y-68168794D01*
X134594747Y-68163247D01*
X134750722Y-68093803D01*
X134750724Y-68093802D01*
X134756752Y-68091118D01*
X134762097Y-68087235D01*
X134812157Y-68050864D01*
X134911253Y-67978866D01*
X135003466Y-67876453D01*
X135034621Y-67841852D01*
X135034622Y-67841851D01*
X135039040Y-67836944D01*
X135134527Y-67671556D01*
X135193542Y-67489928D01*
X135213504Y-67300000D01*
X135193542Y-67110072D01*
X135134527Y-66928444D01*
X135039040Y-66763056D01*
X134911253Y-66621134D01*
X134767104Y-66516403D01*
X134762094Y-66512763D01*
X134762093Y-66512762D01*
X134756752Y-66508882D01*
X134750724Y-66506198D01*
X134750722Y-66506197D01*
X134588319Y-66433891D01*
X134588318Y-66433891D01*
X134582288Y-66431206D01*
X134488887Y-66411353D01*
X134401944Y-66392872D01*
X134401939Y-66392872D01*
X134395487Y-66391500D01*
X134204513Y-66391500D01*
X134198061Y-66392872D01*
X134198056Y-66392872D01*
X134111113Y-66411353D01*
X134017712Y-66431206D01*
X134011682Y-66433891D01*
X134011681Y-66433891D01*
X133849278Y-66506197D01*
X133849276Y-66506198D01*
X133843248Y-66508882D01*
X133837909Y-66512761D01*
X133837902Y-66512765D01*
X133831472Y-66517437D01*
X133757413Y-66541500D01*
X133242587Y-66541500D01*
X133168528Y-66517437D01*
X133162098Y-66512765D01*
X133162091Y-66512761D01*
X133156752Y-66508882D01*
X133150724Y-66506198D01*
X133150722Y-66506197D01*
X132988319Y-66433891D01*
X132988318Y-66433891D01*
X132982288Y-66431206D01*
X132888887Y-66411353D01*
X132801944Y-66392872D01*
X132801939Y-66392872D01*
X132795487Y-66391500D01*
X132616371Y-66391500D01*
X132548250Y-66371498D01*
X132527276Y-66354595D01*
X129420125Y-63247444D01*
X129389387Y-63197285D01*
X129336569Y-63034729D01*
X129334527Y-63028444D01*
X129239040Y-62863056D01*
X129111253Y-62721134D01*
X128956752Y-62608882D01*
X128950724Y-62606198D01*
X128950722Y-62606197D01*
X128788319Y-62533891D01*
X128788318Y-62533891D01*
X128782288Y-62531206D01*
X128775833Y-62529834D01*
X128775824Y-62529831D01*
X128719228Y-62517801D01*
X128656331Y-62483650D01*
X125083770Y-58911089D01*
X125071384Y-58896677D01*
X125062851Y-58885082D01*
X125062846Y-58885077D01*
X125058508Y-58879182D01*
X125052930Y-58874443D01*
X125052927Y-58874440D01*
X125018232Y-58844965D01*
X125010716Y-58838035D01*
X125005021Y-58832340D01*
X124998880Y-58827482D01*
X124982749Y-58814719D01*
X124979345Y-58811928D01*
X124929297Y-58769409D01*
X124929295Y-58769408D01*
X124923715Y-58764667D01*
X124917199Y-58761339D01*
X124912150Y-58757972D01*
X124907021Y-58754805D01*
X124901284Y-58750266D01*
X124835125Y-58719345D01*
X124831225Y-58717439D01*
X124766192Y-58684231D01*
X124759084Y-58682492D01*
X124753441Y-58680393D01*
X124747678Y-58678476D01*
X124741050Y-58675378D01*
X124669583Y-58660513D01*
X124665299Y-58659543D01*
X124639765Y-58653295D01*
X124594390Y-58642192D01*
X124588788Y-58641844D01*
X124588785Y-58641844D01*
X124583236Y-58641500D01*
X124583238Y-58641464D01*
X124579245Y-58641225D01*
X124575053Y-58640851D01*
X124567885Y-58639360D01*
X124501675Y-58641151D01*
X124490479Y-58641454D01*
X124487072Y-58641500D01*
X118766371Y-58641500D01*
X118698250Y-58621498D01*
X118677276Y-58604595D01*
X116174909Y-56102228D01*
X116140883Y-56039916D01*
X116145948Y-55969101D01*
X116188495Y-55912265D01*
X116247994Y-55888154D01*
X116358288Y-55874025D01*
X116358289Y-55874025D01*
X116363416Y-55873368D01*
X116368366Y-55871883D01*
X116572429Y-55810661D01*
X116572434Y-55810659D01*
X116577384Y-55809174D01*
X116777994Y-55710896D01*
X116959860Y-55581173D01*
X116984606Y-55556514D01*
X117114435Y-55427137D01*
X117118096Y-55423489D01*
X117140444Y-55392389D01*
X117245435Y-55246277D01*
X117248453Y-55242077D01*
X117340674Y-55055482D01*
X117345136Y-55046453D01*
X117345137Y-55046451D01*
X117347430Y-55041811D01*
X117412370Y-54828069D01*
X117441529Y-54606590D01*
X117441611Y-54603240D01*
X117443074Y-54543365D01*
X117443074Y-54543361D01*
X117443156Y-54540000D01*
X117424852Y-54317361D01*
X117370431Y-54100702D01*
X117345027Y-54042277D01*
X144137009Y-54042277D01*
X144162625Y-54310769D01*
X144163710Y-54315203D01*
X144163711Y-54315209D01*
X144225645Y-54568312D01*
X144226731Y-54572750D01*
X144327985Y-54822733D01*
X144464265Y-55055482D01*
X144467118Y-55059049D01*
X144599500Y-55224584D01*
X144632716Y-55266119D01*
X144829809Y-55450234D01*
X145051416Y-55603968D01*
X145055499Y-55605999D01*
X145055502Y-55606001D01*
X145150632Y-55653327D01*
X145292894Y-55724101D01*
X145297228Y-55725522D01*
X145297231Y-55725523D01*
X145544853Y-55806698D01*
X145544859Y-55806699D01*
X145549186Y-55808118D01*
X145553677Y-55808898D01*
X145553678Y-55808898D01*
X145811140Y-55853601D01*
X145811148Y-55853602D01*
X145814921Y-55854257D01*
X145818758Y-55854448D01*
X145898578Y-55858422D01*
X145898586Y-55858422D01*
X145900149Y-55858500D01*
X146068512Y-55858500D01*
X146070780Y-55858335D01*
X146070792Y-55858335D01*
X146201884Y-55848823D01*
X146269004Y-55843953D01*
X146273459Y-55842969D01*
X146273462Y-55842969D01*
X146527912Y-55786791D01*
X146527916Y-55786790D01*
X146532372Y-55785806D01*
X146658480Y-55738028D01*
X146780318Y-55691868D01*
X146780321Y-55691867D01*
X146784588Y-55690250D01*
X146946453Y-55600342D01*
X147016375Y-55561504D01*
X147016376Y-55561503D01*
X147020368Y-55559286D01*
X147167354Y-55447110D01*
X147231141Y-55398429D01*
X147231142Y-55398428D01*
X147234773Y-55395657D01*
X147319216Y-55309277D01*
X147420117Y-55206060D01*
X147423312Y-55202792D01*
X147582034Y-54984730D01*
X147667156Y-54822939D01*
X147705490Y-54750079D01*
X147705493Y-54750073D01*
X147707615Y-54746039D01*
X147770378Y-54568312D01*
X147795902Y-54496033D01*
X147795902Y-54496032D01*
X147797425Y-54491720D01*
X147833987Y-54306217D01*
X147848700Y-54231572D01*
X147848701Y-54231566D01*
X147849581Y-54227100D01*
X147849808Y-54222544D01*
X147862764Y-53962292D01*
X147862764Y-53962286D01*
X147862991Y-53957723D01*
X147837375Y-53689231D01*
X147835640Y-53682138D01*
X147774355Y-53431688D01*
X147773269Y-53427250D01*
X147672015Y-53177267D01*
X147555584Y-52978418D01*
X147538045Y-52948463D01*
X147538044Y-52948462D01*
X147535735Y-52944518D01*
X147417928Y-52797208D01*
X147370136Y-52737447D01*
X147370135Y-52737445D01*
X147367284Y-52733881D01*
X147170191Y-52549766D01*
X146948584Y-52396032D01*
X146944501Y-52394001D01*
X146944498Y-52393999D01*
X146779606Y-52311967D01*
X146707106Y-52275899D01*
X146702772Y-52274478D01*
X146702769Y-52274477D01*
X146455147Y-52193302D01*
X146455141Y-52193301D01*
X146450814Y-52191882D01*
X146446322Y-52191102D01*
X146188860Y-52146399D01*
X146188852Y-52146398D01*
X146185079Y-52145743D01*
X146173817Y-52145182D01*
X146101422Y-52141578D01*
X146101414Y-52141578D01*
X146099851Y-52141500D01*
X145931488Y-52141500D01*
X145929220Y-52141665D01*
X145929208Y-52141665D01*
X145798116Y-52151177D01*
X145730996Y-52156047D01*
X145726541Y-52157031D01*
X145726538Y-52157031D01*
X145472088Y-52213209D01*
X145472084Y-52213210D01*
X145467628Y-52214194D01*
X145362562Y-52254000D01*
X145219682Y-52308132D01*
X145219679Y-52308133D01*
X145215412Y-52309750D01*
X144979632Y-52440714D01*
X144765227Y-52604343D01*
X144576688Y-52797208D01*
X144417966Y-53015270D01*
X144402960Y-53043792D01*
X144294510Y-53249921D01*
X144294507Y-53249927D01*
X144292385Y-53253961D01*
X144290865Y-53258266D01*
X144290863Y-53258270D01*
X144221975Y-53453345D01*
X144202575Y-53508280D01*
X144201692Y-53512762D01*
X144159564Y-53726504D01*
X144150419Y-53772900D01*
X144150192Y-53777453D01*
X144150192Y-53777456D01*
X144140991Y-53962292D01*
X144137009Y-54042277D01*
X117345027Y-54042277D01*
X117281354Y-53895840D01*
X117201821Y-53772900D01*
X117162822Y-53712617D01*
X117162818Y-53712612D01*
X117160014Y-53708277D01*
X117009670Y-53543051D01*
X117005619Y-53539852D01*
X117005615Y-53539848D01*
X116838414Y-53407800D01*
X116838410Y-53407798D01*
X116834359Y-53404598D01*
X116792569Y-53381529D01*
X116742598Y-53331097D01*
X116727826Y-53261654D01*
X116752942Y-53195248D01*
X116780294Y-53168641D01*
X116955328Y-53043792D01*
X116963200Y-53037139D01*
X117114052Y-52886812D01*
X117120730Y-52878965D01*
X117245003Y-52706020D01*
X117250313Y-52697183D01*
X117344670Y-52506267D01*
X117348469Y-52496672D01*
X117410377Y-52292910D01*
X117412555Y-52282837D01*
X117413986Y-52271962D01*
X117411775Y-52257778D01*
X117398617Y-52254000D01*
X109660116Y-52254000D01*
X109644877Y-52258475D01*
X109643672Y-52259865D01*
X109642001Y-52267548D01*
X109642001Y-52894669D01*
X109642371Y-52901490D01*
X109647895Y-52952352D01*
X109651521Y-52967604D01*
X109696676Y-53088054D01*
X109705214Y-53103649D01*
X109781715Y-53205724D01*
X109794276Y-53218285D01*
X109896351Y-53294786D01*
X109911946Y-53303324D01*
X110020827Y-53344142D01*
X110077591Y-53386784D01*
X110102291Y-53453345D01*
X110087083Y-53522694D01*
X110067691Y-53549175D01*
X109944200Y-53678401D01*
X109940629Y-53682138D01*
X109937720Y-53686403D01*
X109937714Y-53686411D01*
X109886493Y-53761498D01*
X109814743Y-53866680D01*
X109720688Y-54069305D01*
X109660989Y-54284570D01*
X109637251Y-54506695D01*
X109637548Y-54511848D01*
X109637548Y-54511851D01*
X109643011Y-54606590D01*
X109650110Y-54729715D01*
X109651247Y-54734761D01*
X109651248Y-54734767D01*
X109671073Y-54822733D01*
X109699222Y-54947639D01*
X109783266Y-55154616D01*
X109785963Y-55159017D01*
X109785969Y-55159029D01*
X109826142Y-55224584D01*
X109844681Y-55293117D01*
X109823225Y-55360794D01*
X109807805Y-55379514D01*
X106817296Y-58370023D01*
X106754984Y-58404049D01*
X106706105Y-58404975D01*
X106638284Y-58392894D01*
X106564452Y-58391992D01*
X106420081Y-58390228D01*
X106420079Y-58390228D01*
X106414911Y-58390165D01*
X106194091Y-58423955D01*
X105981756Y-58493357D01*
X105783607Y-58596507D01*
X105779474Y-58599610D01*
X105779471Y-58599612D01*
X105619967Y-58719371D01*
X105604965Y-58730635D01*
X105524613Y-58814719D01*
X105524283Y-58815064D01*
X105462759Y-58850494D01*
X105391846Y-58847037D01*
X105334060Y-58805791D01*
X105315207Y-58772243D01*
X105273767Y-58661703D01*
X105270615Y-58653295D01*
X105183261Y-58536739D01*
X105066705Y-58449385D01*
X104930316Y-58398255D01*
X104868134Y-58391500D01*
X103071866Y-58391500D01*
X103009684Y-58398255D01*
X102873295Y-58449385D01*
X102756739Y-58536739D01*
X102669385Y-58653295D01*
X102618255Y-58789684D01*
X102611500Y-58851866D01*
X102611500Y-60648134D01*
X100508000Y-60648134D01*
X100508000Y-54042277D01*
X102137009Y-54042277D01*
X102162625Y-54310769D01*
X102163710Y-54315203D01*
X102163711Y-54315209D01*
X102225645Y-54568312D01*
X102226731Y-54572750D01*
X102327985Y-54822733D01*
X102464265Y-55055482D01*
X102467118Y-55059049D01*
X102599500Y-55224584D01*
X102632716Y-55266119D01*
X102829809Y-55450234D01*
X103051416Y-55603968D01*
X103055499Y-55605999D01*
X103055502Y-55606001D01*
X103150632Y-55653327D01*
X103292894Y-55724101D01*
X103297228Y-55725522D01*
X103297231Y-55725523D01*
X103544853Y-55806698D01*
X103544859Y-55806699D01*
X103549186Y-55808118D01*
X103553677Y-55808898D01*
X103553678Y-55808898D01*
X103811140Y-55853601D01*
X103811148Y-55853602D01*
X103814921Y-55854257D01*
X103818758Y-55854448D01*
X103898578Y-55858422D01*
X103898586Y-55858422D01*
X103900149Y-55858500D01*
X104068512Y-55858500D01*
X104070780Y-55858335D01*
X104070792Y-55858335D01*
X104201884Y-55848823D01*
X104269004Y-55843953D01*
X104273459Y-55842969D01*
X104273462Y-55842969D01*
X104527912Y-55786791D01*
X104527916Y-55786790D01*
X104532372Y-55785806D01*
X104658480Y-55738028D01*
X104780318Y-55691868D01*
X104780321Y-55691867D01*
X104784588Y-55690250D01*
X104946453Y-55600342D01*
X105016375Y-55561504D01*
X105016376Y-55561503D01*
X105020368Y-55559286D01*
X105167354Y-55447110D01*
X105231141Y-55398429D01*
X105231142Y-55398428D01*
X105234773Y-55395657D01*
X105319216Y-55309277D01*
X105420117Y-55206060D01*
X105423312Y-55202792D01*
X105582034Y-54984730D01*
X105667156Y-54822939D01*
X105705490Y-54750079D01*
X105705493Y-54750073D01*
X105707615Y-54746039D01*
X105770378Y-54568312D01*
X105795902Y-54496033D01*
X105795902Y-54496032D01*
X105797425Y-54491720D01*
X105833987Y-54306217D01*
X105848700Y-54231572D01*
X105848701Y-54231566D01*
X105849581Y-54227100D01*
X105849808Y-54222544D01*
X105862764Y-53962292D01*
X105862764Y-53962286D01*
X105862991Y-53957723D01*
X105837375Y-53689231D01*
X105835640Y-53682138D01*
X105774355Y-53431688D01*
X105773269Y-53427250D01*
X105672015Y-53177267D01*
X105555584Y-52978418D01*
X105538045Y-52948463D01*
X105538044Y-52948462D01*
X105535735Y-52944518D01*
X105417928Y-52797208D01*
X105370136Y-52737447D01*
X105370135Y-52737445D01*
X105367284Y-52733881D01*
X105170191Y-52549766D01*
X104948584Y-52396032D01*
X104944501Y-52394001D01*
X104944498Y-52393999D01*
X104779606Y-52311967D01*
X104707106Y-52275899D01*
X104702772Y-52274478D01*
X104702769Y-52274477D01*
X104455147Y-52193302D01*
X104455141Y-52193301D01*
X104450814Y-52191882D01*
X104446322Y-52191102D01*
X104188860Y-52146399D01*
X104188852Y-52146398D01*
X104185079Y-52145743D01*
X104173817Y-52145182D01*
X104101422Y-52141578D01*
X104101414Y-52141578D01*
X104099851Y-52141500D01*
X103931488Y-52141500D01*
X103929220Y-52141665D01*
X103929208Y-52141665D01*
X103798116Y-52151177D01*
X103730996Y-52156047D01*
X103726541Y-52157031D01*
X103726538Y-52157031D01*
X103472088Y-52213209D01*
X103472084Y-52213210D01*
X103467628Y-52214194D01*
X103362562Y-52254000D01*
X103219682Y-52308132D01*
X103219679Y-52308133D01*
X103215412Y-52309750D01*
X102979632Y-52440714D01*
X102765227Y-52604343D01*
X102576688Y-52797208D01*
X102417966Y-53015270D01*
X102402960Y-53043792D01*
X102294510Y-53249921D01*
X102294507Y-53249927D01*
X102292385Y-53253961D01*
X102290865Y-53258266D01*
X102290863Y-53258270D01*
X102221975Y-53453345D01*
X102202575Y-53508280D01*
X102201692Y-53512762D01*
X102159564Y-53726504D01*
X102150419Y-53772900D01*
X102150192Y-53777453D01*
X102150192Y-53777456D01*
X102140991Y-53962292D01*
X102137009Y-54042277D01*
X100508000Y-54042277D01*
X100508000Y-50634000D01*
X100528002Y-50565879D01*
X100581658Y-50519386D01*
X100634000Y-50508000D01*
X109781275Y-50508000D01*
X109849396Y-50528002D01*
G37*
%TD.AperFunction*%
%TD*%
M02*
