M48
; DRILL file {KiCad (7.0.0)} date Tue Mar  7 20:08:23 2023
; FORMAT={-:-/ absolute / metric / decimal}
; #@! TF.CreationDate,2023-03-07T20:08:23+00:00
; #@! TF.GenerationSoftware,Kicad,Pcbnew,(7.0.0)
; #@! TF.FileFunction,MixedPlating,1,6
FMAT,2
METRIC
; #@! TA.AperFunction,Plated,PTH,ViaDrill
T1C0.200
; #@! TA.AperFunction,Plated,PTH,ViaDrill
T2C0.400
; #@! TA.AperFunction,Plated,PTH,ComponentDrill
T3C0.800
; #@! TA.AperFunction,Plated,PTH,ComponentDrill
T4C1.000
; #@! TA.AperFunction,NonPlated,NPTH,ComponentDrill
T5C2.700
%
G90
G05
T1
X129.0Y-71.2
X129.0Y-72.0
X129.0Y-72.8
X129.0Y-73.6
X129.0Y-74.4
X129.0Y-75.2
X129.0Y-76.0
X129.0Y-76.8
X129.8Y-72.0
X129.8Y-72.8
X129.8Y-73.6
X129.8Y-74.4
X129.8Y-75.2
X129.8Y-76.0
X130.6Y-71.2
X130.6Y-72.0
X130.6Y-72.8
X130.6Y-73.6
X130.6Y-74.4
X130.6Y-75.2
X130.6Y-76.0
X130.6Y-76.8
X131.4Y-71.2
X131.4Y-72.0
X131.4Y-72.8
X131.4Y-73.6
X131.4Y-76.0
X132.2Y-71.2
X132.2Y-72.0
X132.2Y-72.8
X132.2Y-73.6
X132.2Y-75.2
X132.2Y-76.0
X133.0Y-71.2
X133.0Y-72.0
X133.0Y-72.8
X133.0Y-73.6
X133.0Y-75.2
X133.0Y-76.81
X133.8Y-71.2
X133.8Y-72.8
X133.8Y-73.6
T2
X109.1Y-65.7
X109.158Y-85.834
X109.166Y-78.536
X109.2Y-69.9
X109.2Y-73.9
X109.2Y-89.2
X110.0Y-91.3
X112.2Y-93.3
X114.2Y-63.4
X114.3Y-57.8
X118.3Y-91.1
X121.45Y-76.19
X121.86Y-61.76
X122.7Y-89.7
X123.36Y-78.78
X123.38Y-77.54
X123.42Y-76.26
X123.49Y-73.38
X123.55Y-72.19
X123.66Y-70.45
X123.79Y-68.76
X124.23Y-82.32
X124.64Y-85.79
X126.78Y-69.04
X127.36Y-89.58
X127.58Y-78.22
X128.49Y-82.4
X129.29Y-69.2
X130.55Y-78.13
X130.74Y-69.18
X132.24Y-82.36
X132.26Y-69.19
X132.62Y-78.09
X133.31Y-69.19
X133.9Y-78.15
X134.36Y-82.29
X134.44Y-69.13
X135.1Y-73.03
X135.16Y-74.94
X135.16Y-76.64
X135.52Y-71.14
X136.7Y-82.24
X137.13Y-66.95
X137.19Y-71.06
X138.73Y-80.35
X138.9Y-64.9
X139.05Y-76.76
X139.78Y-74.84
X141.7Y-67.9
T3
X124.6Y-84.2
X124.6Y-87.4
X125.2Y-64.9
X125.2Y-66.9
X126.6Y-84.2
X126.6Y-87.4
T4
X103.97Y-59.75
X103.97Y-62.29
X103.97Y-64.83
X103.97Y-67.37
X103.97Y-69.91
X103.97Y-72.45
X103.97Y-74.99
X103.97Y-77.53
X103.97Y-80.07
X103.97Y-82.61
X103.97Y-85.15
X103.97Y-87.69
X103.97Y-90.23
X106.51Y-59.75
X106.51Y-62.29
X106.51Y-64.83
X106.51Y-67.37
X106.51Y-69.91
X106.51Y-72.45
X106.51Y-74.99
X106.51Y-77.53
X106.51Y-80.07
X106.51Y-82.61
X106.51Y-85.15
X106.51Y-87.69
X106.51Y-90.23
X111.0Y-52.0
X111.0Y-54.54
X111.0Y-95.5
X111.0Y-98.04
X113.54Y-52.0
X113.54Y-54.54
X113.54Y-95.5
X113.54Y-98.04
X116.08Y-52.0
X116.08Y-54.54
X145.66Y-69.5
X145.66Y-72.04
X145.66Y-74.58
X145.66Y-77.12
X145.66Y-79.66
X145.66Y-82.2
X145.66Y-84.74
X145.66Y-87.28
X148.2Y-69.5
X148.2Y-72.04
X148.2Y-74.58
X148.2Y-77.12
X148.2Y-79.66
X148.2Y-82.2
X148.2Y-84.74
X148.2Y-87.28
T5
X104.0Y-54.0
X104.0Y-96.0
X146.0Y-54.0
X146.0Y-96.0
T0
M30
