%TF.GenerationSoftware,KiCad,Pcbnew,(7.0.0)*%
%TF.CreationDate,2023-03-07T20:08:13+00:00*%
%TF.ProjectId,OpenBCI_ESP32_ADS1298,4f70656e-4243-4495-9f45-535033325f41,rev?*%
%TF.SameCoordinates,Original*%
%TF.FileFunction,Soldermask,Bot*%
%TF.FilePolarity,Negative*%
%FSLAX46Y46*%
G04 Gerber Fmt 4.6, Leading zero omitted, Abs format (unit mm)*
G04 Created by KiCad (PCBNEW (7.0.0)) date 2023-03-07 20:08:13*
%MOMM*%
%LPD*%
G01*
G04 APERTURE LIST*
%ADD10R,1.700000X1.700000*%
%ADD11O,1.700000X1.700000*%
%ADD12C,2.700000*%
%ADD13R,1.350000X1.350000*%
%ADD14O,1.350000X1.350000*%
G04 APERTURE END LIST*
D10*
%TO.C,J1*%
X103969999Y-59749999D03*
D11*
X106509999Y-59749999D03*
X103969999Y-62289999D03*
X106509999Y-62289999D03*
D10*
X103969999Y-64829999D03*
D11*
X106509999Y-64829999D03*
X103969999Y-67369999D03*
X106509999Y-67369999D03*
X103969999Y-69909999D03*
X106509999Y-69909999D03*
X103969999Y-72449999D03*
X106509999Y-72449999D03*
X103969999Y-74989999D03*
X106509999Y-74989999D03*
X103969999Y-77529999D03*
X106509999Y-77529999D03*
X103969999Y-80069999D03*
X106509999Y-80069999D03*
X103969999Y-82609999D03*
X106509999Y-82609999D03*
X103969999Y-85149999D03*
X106509999Y-85149999D03*
X103969999Y-87689999D03*
X106509999Y-87689999D03*
D10*
X103969999Y-90229999D03*
D11*
X106509999Y-90229999D03*
%TD*%
D10*
%TO.C,J2*%
X148199999Y-69499999D03*
D11*
X145659999Y-69499999D03*
X148199999Y-72039999D03*
X145659999Y-72039999D03*
X148199999Y-74579999D03*
X145659999Y-74579999D03*
X148199999Y-77119999D03*
X145659999Y-77119999D03*
X148199999Y-79659999D03*
X145659999Y-79659999D03*
X148199999Y-82199999D03*
X145659999Y-82199999D03*
X148199999Y-84739999D03*
X145659999Y-84739999D03*
X148199999Y-87279999D03*
X145659999Y-87279999D03*
%TD*%
D10*
%TO.C,J3*%
X110999999Y-51999999D03*
D11*
X110999999Y-54539999D03*
X113539999Y-51999999D03*
X113539999Y-54539999D03*
X116079999Y-51999999D03*
X116079999Y-54539999D03*
%TD*%
D10*
%TO.C,J4*%
X110999999Y-95499999D03*
D11*
X110999999Y-98039999D03*
X113539999Y-95499999D03*
X113539999Y-98039999D03*
%TD*%
D12*
%TO.C,H1*%
X104000000Y-54000000D03*
%TD*%
%TO.C,H2*%
X104000000Y-96000000D03*
%TD*%
%TO.C,H3*%
X146000000Y-54000000D03*
%TD*%
%TO.C,H4*%
X146000000Y-96000000D03*
%TD*%
D13*
%TO.C,J5*%
X124599999Y-84199999D03*
D14*
X126599999Y-84199999D03*
%TD*%
D13*
%TO.C,J6*%
X124599999Y-87399999D03*
D14*
X126599999Y-87399999D03*
%TD*%
D13*
%TO.C,J7*%
X125199999Y-66899999D03*
D14*
X125199999Y-64899999D03*
%TD*%
M02*
