%TF.GenerationSoftware,KiCad,Pcbnew,(7.0.0)*%
%TF.CreationDate,2023-03-07T20:08:13+00:00*%
%TF.ProjectId,OpenBCI_ESP32_ADS1298,4f70656e-4243-4495-9f45-535033325f41,rev?*%
%TF.SameCoordinates,Original*%
%TF.FileFunction,Legend,Top*%
%TF.FilePolarity,Positive*%
%FSLAX46Y46*%
G04 Gerber Fmt 4.6, Leading zero omitted, Abs format (unit mm)*
G04 Created by KiCad (PCBNEW (7.0.0)) date 2023-03-07 20:08:13*
%MOMM*%
%LPD*%
G01*
G04 APERTURE LIST*
%ADD10C,0.150000*%
%ADD11C,0.300000*%
%ADD12C,0.120000*%
%ADD13C,0.100000*%
%ADD14C,0.200000*%
%ADD15C,0.010000*%
G04 APERTURE END LIST*
D10*
X139924286Y-77802619D02*
X139971905Y-77755000D01*
X139971905Y-77755000D02*
X140067143Y-77707380D01*
X140067143Y-77707380D02*
X140305238Y-77707380D01*
X140305238Y-77707380D02*
X140400476Y-77755000D01*
X140400476Y-77755000D02*
X140448095Y-77802619D01*
X140448095Y-77802619D02*
X140495714Y-77897857D01*
X140495714Y-77897857D02*
X140495714Y-77993095D01*
X140495714Y-77993095D02*
X140448095Y-78135952D01*
X140448095Y-78135952D02*
X139876667Y-78707380D01*
X139876667Y-78707380D02*
X140495714Y-78707380D01*
X139914286Y-73162619D02*
X139961905Y-73115000D01*
X139961905Y-73115000D02*
X140057143Y-73067380D01*
X140057143Y-73067380D02*
X140295238Y-73067380D01*
X140295238Y-73067380D02*
X140390476Y-73115000D01*
X140390476Y-73115000D02*
X140438095Y-73162619D01*
X140438095Y-73162619D02*
X140485714Y-73257857D01*
X140485714Y-73257857D02*
X140485714Y-73353095D01*
X140485714Y-73353095D02*
X140438095Y-73495952D01*
X140438095Y-73495952D02*
X139866667Y-74067380D01*
X139866667Y-74067380D02*
X140485714Y-74067380D01*
D11*
X120392858Y-54693928D02*
X120250001Y-54622500D01*
X120250001Y-54622500D02*
X120178572Y-54551071D01*
X120178572Y-54551071D02*
X120107144Y-54408214D01*
X120107144Y-54408214D02*
X120107144Y-54336785D01*
X120107144Y-54336785D02*
X120178572Y-54193928D01*
X120178572Y-54193928D02*
X120250001Y-54122500D01*
X120250001Y-54122500D02*
X120392858Y-54051071D01*
X120392858Y-54051071D02*
X120678572Y-54051071D01*
X120678572Y-54051071D02*
X120821430Y-54122500D01*
X120821430Y-54122500D02*
X120892858Y-54193928D01*
X120892858Y-54193928D02*
X120964287Y-54336785D01*
X120964287Y-54336785D02*
X120964287Y-54408214D01*
X120964287Y-54408214D02*
X120892858Y-54551071D01*
X120892858Y-54551071D02*
X120821430Y-54622500D01*
X120821430Y-54622500D02*
X120678572Y-54693928D01*
X120678572Y-54693928D02*
X120392858Y-54693928D01*
X120392858Y-54693928D02*
X120250001Y-54765357D01*
X120250001Y-54765357D02*
X120178572Y-54836785D01*
X120178572Y-54836785D02*
X120107144Y-54979642D01*
X120107144Y-54979642D02*
X120107144Y-55265357D01*
X120107144Y-55265357D02*
X120178572Y-55408214D01*
X120178572Y-55408214D02*
X120250001Y-55479642D01*
X120250001Y-55479642D02*
X120392858Y-55551071D01*
X120392858Y-55551071D02*
X120678572Y-55551071D01*
X120678572Y-55551071D02*
X120821430Y-55479642D01*
X120821430Y-55479642D02*
X120892858Y-55408214D01*
X120892858Y-55408214D02*
X120964287Y-55265357D01*
X120964287Y-55265357D02*
X120964287Y-54979642D01*
X120964287Y-54979642D02*
X120892858Y-54836785D01*
X120892858Y-54836785D02*
X120821430Y-54765357D01*
X120821430Y-54765357D02*
X120678572Y-54693928D01*
X123364286Y-55408214D02*
X123292858Y-55479642D01*
X123292858Y-55479642D02*
X123078572Y-55551071D01*
X123078572Y-55551071D02*
X122935715Y-55551071D01*
X122935715Y-55551071D02*
X122721429Y-55479642D01*
X122721429Y-55479642D02*
X122578572Y-55336785D01*
X122578572Y-55336785D02*
X122507143Y-55193928D01*
X122507143Y-55193928D02*
X122435715Y-54908214D01*
X122435715Y-54908214D02*
X122435715Y-54693928D01*
X122435715Y-54693928D02*
X122507143Y-54408214D01*
X122507143Y-54408214D02*
X122578572Y-54265357D01*
X122578572Y-54265357D02*
X122721429Y-54122500D01*
X122721429Y-54122500D02*
X122935715Y-54051071D01*
X122935715Y-54051071D02*
X123078572Y-54051071D01*
X123078572Y-54051071D02*
X123292858Y-54122500D01*
X123292858Y-54122500D02*
X123364286Y-54193928D01*
X124007143Y-55551071D02*
X124007143Y-54051071D01*
X124650001Y-55551071D02*
X124650001Y-54765357D01*
X124650001Y-54765357D02*
X124578572Y-54622500D01*
X124578572Y-54622500D02*
X124435715Y-54551071D01*
X124435715Y-54551071D02*
X124221429Y-54551071D01*
X124221429Y-54551071D02*
X124078572Y-54622500D01*
X124078572Y-54622500D02*
X124007143Y-54693928D01*
X126007144Y-55551071D02*
X126007144Y-54765357D01*
X126007144Y-54765357D02*
X125935715Y-54622500D01*
X125935715Y-54622500D02*
X125792858Y-54551071D01*
X125792858Y-54551071D02*
X125507144Y-54551071D01*
X125507144Y-54551071D02*
X125364286Y-54622500D01*
X126007144Y-55479642D02*
X125864286Y-55551071D01*
X125864286Y-55551071D02*
X125507144Y-55551071D01*
X125507144Y-55551071D02*
X125364286Y-55479642D01*
X125364286Y-55479642D02*
X125292858Y-55336785D01*
X125292858Y-55336785D02*
X125292858Y-55193928D01*
X125292858Y-55193928D02*
X125364286Y-55051071D01*
X125364286Y-55051071D02*
X125507144Y-54979642D01*
X125507144Y-54979642D02*
X125864286Y-54979642D01*
X125864286Y-54979642D02*
X126007144Y-54908214D01*
X126721429Y-54551071D02*
X126721429Y-55551071D01*
X126721429Y-54693928D02*
X126792858Y-54622500D01*
X126792858Y-54622500D02*
X126935715Y-54551071D01*
X126935715Y-54551071D02*
X127150001Y-54551071D01*
X127150001Y-54551071D02*
X127292858Y-54622500D01*
X127292858Y-54622500D02*
X127364287Y-54765357D01*
X127364287Y-54765357D02*
X127364287Y-55551071D01*
X128078572Y-54551071D02*
X128078572Y-55551071D01*
X128078572Y-54693928D02*
X128150001Y-54622500D01*
X128150001Y-54622500D02*
X128292858Y-54551071D01*
X128292858Y-54551071D02*
X128507144Y-54551071D01*
X128507144Y-54551071D02*
X128650001Y-54622500D01*
X128650001Y-54622500D02*
X128721430Y-54765357D01*
X128721430Y-54765357D02*
X128721430Y-55551071D01*
X130007144Y-55479642D02*
X129864287Y-55551071D01*
X129864287Y-55551071D02*
X129578573Y-55551071D01*
X129578573Y-55551071D02*
X129435715Y-55479642D01*
X129435715Y-55479642D02*
X129364287Y-55336785D01*
X129364287Y-55336785D02*
X129364287Y-54765357D01*
X129364287Y-54765357D02*
X129435715Y-54622500D01*
X129435715Y-54622500D02*
X129578573Y-54551071D01*
X129578573Y-54551071D02*
X129864287Y-54551071D01*
X129864287Y-54551071D02*
X130007144Y-54622500D01*
X130007144Y-54622500D02*
X130078573Y-54765357D01*
X130078573Y-54765357D02*
X130078573Y-54908214D01*
X130078573Y-54908214D02*
X129364287Y-55051071D01*
X130935715Y-55551071D02*
X130792858Y-55479642D01*
X130792858Y-55479642D02*
X130721429Y-55336785D01*
X130721429Y-55336785D02*
X130721429Y-54051071D01*
X132335715Y-55122500D02*
X133050001Y-55122500D01*
X132192858Y-55551071D02*
X132692858Y-54051071D01*
X132692858Y-54051071D02*
X133192858Y-55551071D01*
X133692857Y-55551071D02*
X133692857Y-54051071D01*
X133692857Y-54051071D02*
X134050000Y-54051071D01*
X134050000Y-54051071D02*
X134264286Y-54122500D01*
X134264286Y-54122500D02*
X134407143Y-54265357D01*
X134407143Y-54265357D02*
X134478572Y-54408214D01*
X134478572Y-54408214D02*
X134550000Y-54693928D01*
X134550000Y-54693928D02*
X134550000Y-54908214D01*
X134550000Y-54908214D02*
X134478572Y-55193928D01*
X134478572Y-55193928D02*
X134407143Y-55336785D01*
X134407143Y-55336785D02*
X134264286Y-55479642D01*
X134264286Y-55479642D02*
X134050000Y-55551071D01*
X134050000Y-55551071D02*
X133692857Y-55551071D01*
X135121429Y-55479642D02*
X135335715Y-55551071D01*
X135335715Y-55551071D02*
X135692857Y-55551071D01*
X135692857Y-55551071D02*
X135835715Y-55479642D01*
X135835715Y-55479642D02*
X135907143Y-55408214D01*
X135907143Y-55408214D02*
X135978572Y-55265357D01*
X135978572Y-55265357D02*
X135978572Y-55122500D01*
X135978572Y-55122500D02*
X135907143Y-54979642D01*
X135907143Y-54979642D02*
X135835715Y-54908214D01*
X135835715Y-54908214D02*
X135692857Y-54836785D01*
X135692857Y-54836785D02*
X135407143Y-54765357D01*
X135407143Y-54765357D02*
X135264286Y-54693928D01*
X135264286Y-54693928D02*
X135192857Y-54622500D01*
X135192857Y-54622500D02*
X135121429Y-54479642D01*
X135121429Y-54479642D02*
X135121429Y-54336785D01*
X135121429Y-54336785D02*
X135192857Y-54193928D01*
X135192857Y-54193928D02*
X135264286Y-54122500D01*
X135264286Y-54122500D02*
X135407143Y-54051071D01*
X135407143Y-54051071D02*
X135764286Y-54051071D01*
X135764286Y-54051071D02*
X135978572Y-54122500D01*
X137407143Y-55551071D02*
X136550000Y-55551071D01*
X136978571Y-55551071D02*
X136978571Y-54051071D01*
X136978571Y-54051071D02*
X136835714Y-54265357D01*
X136835714Y-54265357D02*
X136692857Y-54408214D01*
X136692857Y-54408214D02*
X136550000Y-54479642D01*
X137978571Y-54193928D02*
X138049999Y-54122500D01*
X138049999Y-54122500D02*
X138192857Y-54051071D01*
X138192857Y-54051071D02*
X138549999Y-54051071D01*
X138549999Y-54051071D02*
X138692857Y-54122500D01*
X138692857Y-54122500D02*
X138764285Y-54193928D01*
X138764285Y-54193928D02*
X138835714Y-54336785D01*
X138835714Y-54336785D02*
X138835714Y-54479642D01*
X138835714Y-54479642D02*
X138764285Y-54693928D01*
X138764285Y-54693928D02*
X137907142Y-55551071D01*
X137907142Y-55551071D02*
X138835714Y-55551071D01*
X139549999Y-55551071D02*
X139835713Y-55551071D01*
X139835713Y-55551071D02*
X139978570Y-55479642D01*
X139978570Y-55479642D02*
X140049999Y-55408214D01*
X140049999Y-55408214D02*
X140192856Y-55193928D01*
X140192856Y-55193928D02*
X140264285Y-54908214D01*
X140264285Y-54908214D02*
X140264285Y-54336785D01*
X140264285Y-54336785D02*
X140192856Y-54193928D01*
X140192856Y-54193928D02*
X140121428Y-54122500D01*
X140121428Y-54122500D02*
X139978570Y-54051071D01*
X139978570Y-54051071D02*
X139692856Y-54051071D01*
X139692856Y-54051071D02*
X139549999Y-54122500D01*
X139549999Y-54122500D02*
X139478570Y-54193928D01*
X139478570Y-54193928D02*
X139407142Y-54336785D01*
X139407142Y-54336785D02*
X139407142Y-54693928D01*
X139407142Y-54693928D02*
X139478570Y-54836785D01*
X139478570Y-54836785D02*
X139549999Y-54908214D01*
X139549999Y-54908214D02*
X139692856Y-54979642D01*
X139692856Y-54979642D02*
X139978570Y-54979642D01*
X139978570Y-54979642D02*
X140121428Y-54908214D01*
X140121428Y-54908214D02*
X140192856Y-54836785D01*
X140192856Y-54836785D02*
X140264285Y-54693928D01*
X141121427Y-54693928D02*
X140978570Y-54622500D01*
X140978570Y-54622500D02*
X140907141Y-54551071D01*
X140907141Y-54551071D02*
X140835713Y-54408214D01*
X140835713Y-54408214D02*
X140835713Y-54336785D01*
X140835713Y-54336785D02*
X140907141Y-54193928D01*
X140907141Y-54193928D02*
X140978570Y-54122500D01*
X140978570Y-54122500D02*
X141121427Y-54051071D01*
X141121427Y-54051071D02*
X141407141Y-54051071D01*
X141407141Y-54051071D02*
X141549999Y-54122500D01*
X141549999Y-54122500D02*
X141621427Y-54193928D01*
X141621427Y-54193928D02*
X141692856Y-54336785D01*
X141692856Y-54336785D02*
X141692856Y-54408214D01*
X141692856Y-54408214D02*
X141621427Y-54551071D01*
X141621427Y-54551071D02*
X141549999Y-54622500D01*
X141549999Y-54622500D02*
X141407141Y-54693928D01*
X141407141Y-54693928D02*
X141121427Y-54693928D01*
X141121427Y-54693928D02*
X140978570Y-54765357D01*
X140978570Y-54765357D02*
X140907141Y-54836785D01*
X140907141Y-54836785D02*
X140835713Y-54979642D01*
X140835713Y-54979642D02*
X140835713Y-55265357D01*
X140835713Y-55265357D02*
X140907141Y-55408214D01*
X140907141Y-55408214D02*
X140978570Y-55479642D01*
X140978570Y-55479642D02*
X141121427Y-55551071D01*
X141121427Y-55551071D02*
X141407141Y-55551071D01*
X141407141Y-55551071D02*
X141549999Y-55479642D01*
X141549999Y-55479642D02*
X141621427Y-55408214D01*
X141621427Y-55408214D02*
X141692856Y-55265357D01*
X141692856Y-55265357D02*
X141692856Y-54979642D01*
X141692856Y-54979642D02*
X141621427Y-54836785D01*
X141621427Y-54836785D02*
X141549999Y-54765357D01*
X141549999Y-54765357D02*
X141407141Y-54693928D01*
D10*
X140495714Y-77007380D02*
X139924286Y-77007380D01*
X140210000Y-77007380D02*
X140210000Y-76007380D01*
X140210000Y-76007380D02*
X140114762Y-76150238D01*
X140114762Y-76150238D02*
X140019524Y-76245476D01*
X140019524Y-76245476D02*
X139924286Y-76293095D01*
D11*
X119728571Y-51551071D02*
X120014285Y-51551071D01*
X120014285Y-51551071D02*
X120157142Y-51622500D01*
X120157142Y-51622500D02*
X120299999Y-51765357D01*
X120299999Y-51765357D02*
X120371428Y-52051071D01*
X120371428Y-52051071D02*
X120371428Y-52551071D01*
X120371428Y-52551071D02*
X120299999Y-52836785D01*
X120299999Y-52836785D02*
X120157142Y-52979642D01*
X120157142Y-52979642D02*
X120014285Y-53051071D01*
X120014285Y-53051071D02*
X119728571Y-53051071D01*
X119728571Y-53051071D02*
X119585714Y-52979642D01*
X119585714Y-52979642D02*
X119442856Y-52836785D01*
X119442856Y-52836785D02*
X119371428Y-52551071D01*
X119371428Y-52551071D02*
X119371428Y-52051071D01*
X119371428Y-52051071D02*
X119442856Y-51765357D01*
X119442856Y-51765357D02*
X119585714Y-51622500D01*
X119585714Y-51622500D02*
X119728571Y-51551071D01*
X121014285Y-52051071D02*
X121014285Y-53551071D01*
X121014285Y-52122500D02*
X121157143Y-52051071D01*
X121157143Y-52051071D02*
X121442857Y-52051071D01*
X121442857Y-52051071D02*
X121585714Y-52122500D01*
X121585714Y-52122500D02*
X121657143Y-52193928D01*
X121657143Y-52193928D02*
X121728571Y-52336785D01*
X121728571Y-52336785D02*
X121728571Y-52765357D01*
X121728571Y-52765357D02*
X121657143Y-52908214D01*
X121657143Y-52908214D02*
X121585714Y-52979642D01*
X121585714Y-52979642D02*
X121442857Y-53051071D01*
X121442857Y-53051071D02*
X121157143Y-53051071D01*
X121157143Y-53051071D02*
X121014285Y-52979642D01*
X122942857Y-52979642D02*
X122800000Y-53051071D01*
X122800000Y-53051071D02*
X122514286Y-53051071D01*
X122514286Y-53051071D02*
X122371428Y-52979642D01*
X122371428Y-52979642D02*
X122300000Y-52836785D01*
X122300000Y-52836785D02*
X122300000Y-52265357D01*
X122300000Y-52265357D02*
X122371428Y-52122500D01*
X122371428Y-52122500D02*
X122514286Y-52051071D01*
X122514286Y-52051071D02*
X122800000Y-52051071D01*
X122800000Y-52051071D02*
X122942857Y-52122500D01*
X122942857Y-52122500D02*
X123014286Y-52265357D01*
X123014286Y-52265357D02*
X123014286Y-52408214D01*
X123014286Y-52408214D02*
X122300000Y-52551071D01*
X123657142Y-52051071D02*
X123657142Y-53051071D01*
X123657142Y-52193928D02*
X123728571Y-52122500D01*
X123728571Y-52122500D02*
X123871428Y-52051071D01*
X123871428Y-52051071D02*
X124085714Y-52051071D01*
X124085714Y-52051071D02*
X124228571Y-52122500D01*
X124228571Y-52122500D02*
X124300000Y-52265357D01*
X124300000Y-52265357D02*
X124300000Y-53051071D01*
X125514285Y-52265357D02*
X125728571Y-52336785D01*
X125728571Y-52336785D02*
X125800000Y-52408214D01*
X125800000Y-52408214D02*
X125871428Y-52551071D01*
X125871428Y-52551071D02*
X125871428Y-52765357D01*
X125871428Y-52765357D02*
X125800000Y-52908214D01*
X125800000Y-52908214D02*
X125728571Y-52979642D01*
X125728571Y-52979642D02*
X125585714Y-53051071D01*
X125585714Y-53051071D02*
X125014285Y-53051071D01*
X125014285Y-53051071D02*
X125014285Y-51551071D01*
X125014285Y-51551071D02*
X125514285Y-51551071D01*
X125514285Y-51551071D02*
X125657143Y-51622500D01*
X125657143Y-51622500D02*
X125728571Y-51693928D01*
X125728571Y-51693928D02*
X125800000Y-51836785D01*
X125800000Y-51836785D02*
X125800000Y-51979642D01*
X125800000Y-51979642D02*
X125728571Y-52122500D01*
X125728571Y-52122500D02*
X125657143Y-52193928D01*
X125657143Y-52193928D02*
X125514285Y-52265357D01*
X125514285Y-52265357D02*
X125014285Y-52265357D01*
X127371428Y-52908214D02*
X127300000Y-52979642D01*
X127300000Y-52979642D02*
X127085714Y-53051071D01*
X127085714Y-53051071D02*
X126942857Y-53051071D01*
X126942857Y-53051071D02*
X126728571Y-52979642D01*
X126728571Y-52979642D02*
X126585714Y-52836785D01*
X126585714Y-52836785D02*
X126514285Y-52693928D01*
X126514285Y-52693928D02*
X126442857Y-52408214D01*
X126442857Y-52408214D02*
X126442857Y-52193928D01*
X126442857Y-52193928D02*
X126514285Y-51908214D01*
X126514285Y-51908214D02*
X126585714Y-51765357D01*
X126585714Y-51765357D02*
X126728571Y-51622500D01*
X126728571Y-51622500D02*
X126942857Y-51551071D01*
X126942857Y-51551071D02*
X127085714Y-51551071D01*
X127085714Y-51551071D02*
X127300000Y-51622500D01*
X127300000Y-51622500D02*
X127371428Y-51693928D01*
X128014285Y-53051071D02*
X128014285Y-51551071D01*
X129628571Y-53051071D02*
X129628571Y-51551071D01*
X130342857Y-52051071D02*
X130342857Y-53051071D01*
X130342857Y-52193928D02*
X130414286Y-52122500D01*
X130414286Y-52122500D02*
X130557143Y-52051071D01*
X130557143Y-52051071D02*
X130771429Y-52051071D01*
X130771429Y-52051071D02*
X130914286Y-52122500D01*
X130914286Y-52122500D02*
X130985715Y-52265357D01*
X130985715Y-52265357D02*
X130985715Y-53051071D01*
X131700000Y-52051071D02*
X131700000Y-53551071D01*
X131700000Y-52122500D02*
X131842858Y-52051071D01*
X131842858Y-52051071D02*
X132128572Y-52051071D01*
X132128572Y-52051071D02*
X132271429Y-52122500D01*
X132271429Y-52122500D02*
X132342858Y-52193928D01*
X132342858Y-52193928D02*
X132414286Y-52336785D01*
X132414286Y-52336785D02*
X132414286Y-52765357D01*
X132414286Y-52765357D02*
X132342858Y-52908214D01*
X132342858Y-52908214D02*
X132271429Y-52979642D01*
X132271429Y-52979642D02*
X132128572Y-53051071D01*
X132128572Y-53051071D02*
X131842858Y-53051071D01*
X131842858Y-53051071D02*
X131700000Y-52979642D01*
X133700001Y-52051071D02*
X133700001Y-53051071D01*
X133057143Y-52051071D02*
X133057143Y-52836785D01*
X133057143Y-52836785D02*
X133128572Y-52979642D01*
X133128572Y-52979642D02*
X133271429Y-53051071D01*
X133271429Y-53051071D02*
X133485715Y-53051071D01*
X133485715Y-53051071D02*
X133628572Y-52979642D01*
X133628572Y-52979642D02*
X133700001Y-52908214D01*
X134200001Y-52051071D02*
X134771429Y-52051071D01*
X134414286Y-51551071D02*
X134414286Y-52836785D01*
X134414286Y-52836785D02*
X134485715Y-52979642D01*
X134485715Y-52979642D02*
X134628572Y-53051071D01*
X134628572Y-53051071D02*
X134771429Y-53051071D01*
X136671429Y-52265357D02*
X136885715Y-52336785D01*
X136885715Y-52336785D02*
X136957144Y-52408214D01*
X136957144Y-52408214D02*
X137028572Y-52551071D01*
X137028572Y-52551071D02*
X137028572Y-52765357D01*
X137028572Y-52765357D02*
X136957144Y-52908214D01*
X136957144Y-52908214D02*
X136885715Y-52979642D01*
X136885715Y-52979642D02*
X136742858Y-53051071D01*
X136742858Y-53051071D02*
X136171429Y-53051071D01*
X136171429Y-53051071D02*
X136171429Y-51551071D01*
X136171429Y-51551071D02*
X136671429Y-51551071D01*
X136671429Y-51551071D02*
X136814287Y-51622500D01*
X136814287Y-51622500D02*
X136885715Y-51693928D01*
X136885715Y-51693928D02*
X136957144Y-51836785D01*
X136957144Y-51836785D02*
X136957144Y-51979642D01*
X136957144Y-51979642D02*
X136885715Y-52122500D01*
X136885715Y-52122500D02*
X136814287Y-52193928D01*
X136814287Y-52193928D02*
X136671429Y-52265357D01*
X136671429Y-52265357D02*
X136171429Y-52265357D01*
X137885715Y-53051071D02*
X137742858Y-52979642D01*
X137742858Y-52979642D02*
X137671429Y-52908214D01*
X137671429Y-52908214D02*
X137600001Y-52765357D01*
X137600001Y-52765357D02*
X137600001Y-52336785D01*
X137600001Y-52336785D02*
X137671429Y-52193928D01*
X137671429Y-52193928D02*
X137742858Y-52122500D01*
X137742858Y-52122500D02*
X137885715Y-52051071D01*
X137885715Y-52051071D02*
X138100001Y-52051071D01*
X138100001Y-52051071D02*
X138242858Y-52122500D01*
X138242858Y-52122500D02*
X138314287Y-52193928D01*
X138314287Y-52193928D02*
X138385715Y-52336785D01*
X138385715Y-52336785D02*
X138385715Y-52765357D01*
X138385715Y-52765357D02*
X138314287Y-52908214D01*
X138314287Y-52908214D02*
X138242858Y-52979642D01*
X138242858Y-52979642D02*
X138100001Y-53051071D01*
X138100001Y-53051071D02*
X137885715Y-53051071D01*
X139671430Y-53051071D02*
X139671430Y-52265357D01*
X139671430Y-52265357D02*
X139600001Y-52122500D01*
X139600001Y-52122500D02*
X139457144Y-52051071D01*
X139457144Y-52051071D02*
X139171430Y-52051071D01*
X139171430Y-52051071D02*
X139028572Y-52122500D01*
X139671430Y-52979642D02*
X139528572Y-53051071D01*
X139528572Y-53051071D02*
X139171430Y-53051071D01*
X139171430Y-53051071D02*
X139028572Y-52979642D01*
X139028572Y-52979642D02*
X138957144Y-52836785D01*
X138957144Y-52836785D02*
X138957144Y-52693928D01*
X138957144Y-52693928D02*
X139028572Y-52551071D01*
X139028572Y-52551071D02*
X139171430Y-52479642D01*
X139171430Y-52479642D02*
X139528572Y-52479642D01*
X139528572Y-52479642D02*
X139671430Y-52408214D01*
X140385715Y-53051071D02*
X140385715Y-52051071D01*
X140385715Y-52336785D02*
X140457144Y-52193928D01*
X140457144Y-52193928D02*
X140528573Y-52122500D01*
X140528573Y-52122500D02*
X140671430Y-52051071D01*
X140671430Y-52051071D02*
X140814287Y-52051071D01*
X141957144Y-53051071D02*
X141957144Y-51551071D01*
X141957144Y-52979642D02*
X141814286Y-53051071D01*
X141814286Y-53051071D02*
X141528572Y-53051071D01*
X141528572Y-53051071D02*
X141385715Y-52979642D01*
X141385715Y-52979642D02*
X141314286Y-52908214D01*
X141314286Y-52908214D02*
X141242858Y-52765357D01*
X141242858Y-52765357D02*
X141242858Y-52336785D01*
X141242858Y-52336785D02*
X141314286Y-52193928D01*
X141314286Y-52193928D02*
X141385715Y-52122500D01*
X141385715Y-52122500D02*
X141528572Y-52051071D01*
X141528572Y-52051071D02*
X141814286Y-52051071D01*
X141814286Y-52051071D02*
X141957144Y-52122500D01*
D10*
X141321428Y-75093571D02*
X141464285Y-75141190D01*
X141464285Y-75141190D02*
X141511904Y-75188809D01*
X141511904Y-75188809D02*
X141559523Y-75284047D01*
X141559523Y-75284047D02*
X141559523Y-75426904D01*
X141559523Y-75426904D02*
X141511904Y-75522142D01*
X141511904Y-75522142D02*
X141464285Y-75569761D01*
X141464285Y-75569761D02*
X141369047Y-75617380D01*
X141369047Y-75617380D02*
X140988095Y-75617380D01*
X140988095Y-75617380D02*
X140988095Y-74617380D01*
X140988095Y-74617380D02*
X141321428Y-74617380D01*
X141321428Y-74617380D02*
X141416666Y-74665000D01*
X141416666Y-74665000D02*
X141464285Y-74712619D01*
X141464285Y-74712619D02*
X141511904Y-74807857D01*
X141511904Y-74807857D02*
X141511904Y-74903095D01*
X141511904Y-74903095D02*
X141464285Y-74998333D01*
X141464285Y-74998333D02*
X141416666Y-75045952D01*
X141416666Y-75045952D02*
X141321428Y-75093571D01*
X141321428Y-75093571D02*
X140988095Y-75093571D01*
X142559523Y-75617380D02*
X142226190Y-75141190D01*
X141988095Y-75617380D02*
X141988095Y-74617380D01*
X141988095Y-74617380D02*
X142369047Y-74617380D01*
X142369047Y-74617380D02*
X142464285Y-74665000D01*
X142464285Y-74665000D02*
X142511904Y-74712619D01*
X142511904Y-74712619D02*
X142559523Y-74807857D01*
X142559523Y-74807857D02*
X142559523Y-74950714D01*
X142559523Y-74950714D02*
X142511904Y-75045952D01*
X142511904Y-75045952D02*
X142464285Y-75093571D01*
X142464285Y-75093571D02*
X142369047Y-75141190D01*
X142369047Y-75141190D02*
X141988095Y-75141190D01*
X142988095Y-75617380D02*
X142988095Y-74617380D01*
X142988095Y-74617380D02*
X143226190Y-74617380D01*
X143226190Y-74617380D02*
X143369047Y-74665000D01*
X143369047Y-74665000D02*
X143464285Y-74760238D01*
X143464285Y-74760238D02*
X143511904Y-74855476D01*
X143511904Y-74855476D02*
X143559523Y-75045952D01*
X143559523Y-75045952D02*
X143559523Y-75188809D01*
X143559523Y-75188809D02*
X143511904Y-75379285D01*
X143511904Y-75379285D02*
X143464285Y-75474523D01*
X143464285Y-75474523D02*
X143369047Y-75569761D01*
X143369047Y-75569761D02*
X143226190Y-75617380D01*
X143226190Y-75617380D02*
X142988095Y-75617380D01*
X140485714Y-72367380D02*
X139914286Y-72367380D01*
X140200000Y-72367380D02*
X140200000Y-71367380D01*
X140200000Y-71367380D02*
X140104762Y-71510238D01*
X140104762Y-71510238D02*
X140009524Y-71605476D01*
X140009524Y-71605476D02*
X139914286Y-71653095D01*
%TO.C,C1*%
X122333333Y-87672142D02*
X122285714Y-87719761D01*
X122285714Y-87719761D02*
X122142857Y-87767380D01*
X122142857Y-87767380D02*
X122047619Y-87767380D01*
X122047619Y-87767380D02*
X121904762Y-87719761D01*
X121904762Y-87719761D02*
X121809524Y-87624523D01*
X121809524Y-87624523D02*
X121761905Y-87529285D01*
X121761905Y-87529285D02*
X121714286Y-87338809D01*
X121714286Y-87338809D02*
X121714286Y-87195952D01*
X121714286Y-87195952D02*
X121761905Y-87005476D01*
X121761905Y-87005476D02*
X121809524Y-86910238D01*
X121809524Y-86910238D02*
X121904762Y-86815000D01*
X121904762Y-86815000D02*
X122047619Y-86767380D01*
X122047619Y-86767380D02*
X122142857Y-86767380D01*
X122142857Y-86767380D02*
X122285714Y-86815000D01*
X122285714Y-86815000D02*
X122333333Y-86862619D01*
X123285714Y-87767380D02*
X122714286Y-87767380D01*
X123000000Y-87767380D02*
X123000000Y-86767380D01*
X123000000Y-86767380D02*
X122904762Y-86910238D01*
X122904762Y-86910238D02*
X122809524Y-87005476D01*
X122809524Y-87005476D02*
X122714286Y-87053095D01*
%TO.C,C2*%
X122333333Y-84272142D02*
X122285714Y-84319761D01*
X122285714Y-84319761D02*
X122142857Y-84367380D01*
X122142857Y-84367380D02*
X122047619Y-84367380D01*
X122047619Y-84367380D02*
X121904762Y-84319761D01*
X121904762Y-84319761D02*
X121809524Y-84224523D01*
X121809524Y-84224523D02*
X121761905Y-84129285D01*
X121761905Y-84129285D02*
X121714286Y-83938809D01*
X121714286Y-83938809D02*
X121714286Y-83795952D01*
X121714286Y-83795952D02*
X121761905Y-83605476D01*
X121761905Y-83605476D02*
X121809524Y-83510238D01*
X121809524Y-83510238D02*
X121904762Y-83415000D01*
X121904762Y-83415000D02*
X122047619Y-83367380D01*
X122047619Y-83367380D02*
X122142857Y-83367380D01*
X122142857Y-83367380D02*
X122285714Y-83415000D01*
X122285714Y-83415000D02*
X122333333Y-83462619D01*
X122714286Y-83462619D02*
X122761905Y-83415000D01*
X122761905Y-83415000D02*
X122857143Y-83367380D01*
X122857143Y-83367380D02*
X123095238Y-83367380D01*
X123095238Y-83367380D02*
X123190476Y-83415000D01*
X123190476Y-83415000D02*
X123238095Y-83462619D01*
X123238095Y-83462619D02*
X123285714Y-83557857D01*
X123285714Y-83557857D02*
X123285714Y-83653095D01*
X123285714Y-83653095D02*
X123238095Y-83795952D01*
X123238095Y-83795952D02*
X122666667Y-84367380D01*
X122666667Y-84367380D02*
X123285714Y-84367380D01*
%TO.C,C3*%
X122333333Y-80772142D02*
X122285714Y-80819761D01*
X122285714Y-80819761D02*
X122142857Y-80867380D01*
X122142857Y-80867380D02*
X122047619Y-80867380D01*
X122047619Y-80867380D02*
X121904762Y-80819761D01*
X121904762Y-80819761D02*
X121809524Y-80724523D01*
X121809524Y-80724523D02*
X121761905Y-80629285D01*
X121761905Y-80629285D02*
X121714286Y-80438809D01*
X121714286Y-80438809D02*
X121714286Y-80295952D01*
X121714286Y-80295952D02*
X121761905Y-80105476D01*
X121761905Y-80105476D02*
X121809524Y-80010238D01*
X121809524Y-80010238D02*
X121904762Y-79915000D01*
X121904762Y-79915000D02*
X122047619Y-79867380D01*
X122047619Y-79867380D02*
X122142857Y-79867380D01*
X122142857Y-79867380D02*
X122285714Y-79915000D01*
X122285714Y-79915000D02*
X122333333Y-79962619D01*
X122666667Y-79867380D02*
X123285714Y-79867380D01*
X123285714Y-79867380D02*
X122952381Y-80248333D01*
X122952381Y-80248333D02*
X123095238Y-80248333D01*
X123095238Y-80248333D02*
X123190476Y-80295952D01*
X123190476Y-80295952D02*
X123238095Y-80343571D01*
X123238095Y-80343571D02*
X123285714Y-80438809D01*
X123285714Y-80438809D02*
X123285714Y-80676904D01*
X123285714Y-80676904D02*
X123238095Y-80772142D01*
X123238095Y-80772142D02*
X123190476Y-80819761D01*
X123190476Y-80819761D02*
X123095238Y-80867380D01*
X123095238Y-80867380D02*
X122809524Y-80867380D01*
X122809524Y-80867380D02*
X122714286Y-80819761D01*
X122714286Y-80819761D02*
X122666667Y-80772142D01*
%TO.C,C4*%
X122333333Y-77372142D02*
X122285714Y-77419761D01*
X122285714Y-77419761D02*
X122142857Y-77467380D01*
X122142857Y-77467380D02*
X122047619Y-77467380D01*
X122047619Y-77467380D02*
X121904762Y-77419761D01*
X121904762Y-77419761D02*
X121809524Y-77324523D01*
X121809524Y-77324523D02*
X121761905Y-77229285D01*
X121761905Y-77229285D02*
X121714286Y-77038809D01*
X121714286Y-77038809D02*
X121714286Y-76895952D01*
X121714286Y-76895952D02*
X121761905Y-76705476D01*
X121761905Y-76705476D02*
X121809524Y-76610238D01*
X121809524Y-76610238D02*
X121904762Y-76515000D01*
X121904762Y-76515000D02*
X122047619Y-76467380D01*
X122047619Y-76467380D02*
X122142857Y-76467380D01*
X122142857Y-76467380D02*
X122285714Y-76515000D01*
X122285714Y-76515000D02*
X122333333Y-76562619D01*
X123190476Y-76800714D02*
X123190476Y-77467380D01*
X122952381Y-76419761D02*
X122714286Y-77134047D01*
X122714286Y-77134047D02*
X123333333Y-77134047D01*
%TO.C,C5*%
X122333333Y-73972142D02*
X122285714Y-74019761D01*
X122285714Y-74019761D02*
X122142857Y-74067380D01*
X122142857Y-74067380D02*
X122047619Y-74067380D01*
X122047619Y-74067380D02*
X121904762Y-74019761D01*
X121904762Y-74019761D02*
X121809524Y-73924523D01*
X121809524Y-73924523D02*
X121761905Y-73829285D01*
X121761905Y-73829285D02*
X121714286Y-73638809D01*
X121714286Y-73638809D02*
X121714286Y-73495952D01*
X121714286Y-73495952D02*
X121761905Y-73305476D01*
X121761905Y-73305476D02*
X121809524Y-73210238D01*
X121809524Y-73210238D02*
X121904762Y-73115000D01*
X121904762Y-73115000D02*
X122047619Y-73067380D01*
X122047619Y-73067380D02*
X122142857Y-73067380D01*
X122142857Y-73067380D02*
X122285714Y-73115000D01*
X122285714Y-73115000D02*
X122333333Y-73162619D01*
X123238095Y-73067380D02*
X122761905Y-73067380D01*
X122761905Y-73067380D02*
X122714286Y-73543571D01*
X122714286Y-73543571D02*
X122761905Y-73495952D01*
X122761905Y-73495952D02*
X122857143Y-73448333D01*
X122857143Y-73448333D02*
X123095238Y-73448333D01*
X123095238Y-73448333D02*
X123190476Y-73495952D01*
X123190476Y-73495952D02*
X123238095Y-73543571D01*
X123238095Y-73543571D02*
X123285714Y-73638809D01*
X123285714Y-73638809D02*
X123285714Y-73876904D01*
X123285714Y-73876904D02*
X123238095Y-73972142D01*
X123238095Y-73972142D02*
X123190476Y-74019761D01*
X123190476Y-74019761D02*
X123095238Y-74067380D01*
X123095238Y-74067380D02*
X122857143Y-74067380D01*
X122857143Y-74067380D02*
X122761905Y-74019761D01*
X122761905Y-74019761D02*
X122714286Y-73972142D01*
%TO.C,C6*%
X122333333Y-70572142D02*
X122285714Y-70619761D01*
X122285714Y-70619761D02*
X122142857Y-70667380D01*
X122142857Y-70667380D02*
X122047619Y-70667380D01*
X122047619Y-70667380D02*
X121904762Y-70619761D01*
X121904762Y-70619761D02*
X121809524Y-70524523D01*
X121809524Y-70524523D02*
X121761905Y-70429285D01*
X121761905Y-70429285D02*
X121714286Y-70238809D01*
X121714286Y-70238809D02*
X121714286Y-70095952D01*
X121714286Y-70095952D02*
X121761905Y-69905476D01*
X121761905Y-69905476D02*
X121809524Y-69810238D01*
X121809524Y-69810238D02*
X121904762Y-69715000D01*
X121904762Y-69715000D02*
X122047619Y-69667380D01*
X122047619Y-69667380D02*
X122142857Y-69667380D01*
X122142857Y-69667380D02*
X122285714Y-69715000D01*
X122285714Y-69715000D02*
X122333333Y-69762619D01*
X123190476Y-69667380D02*
X123000000Y-69667380D01*
X123000000Y-69667380D02*
X122904762Y-69715000D01*
X122904762Y-69715000D02*
X122857143Y-69762619D01*
X122857143Y-69762619D02*
X122761905Y-69905476D01*
X122761905Y-69905476D02*
X122714286Y-70095952D01*
X122714286Y-70095952D02*
X122714286Y-70476904D01*
X122714286Y-70476904D02*
X122761905Y-70572142D01*
X122761905Y-70572142D02*
X122809524Y-70619761D01*
X122809524Y-70619761D02*
X122904762Y-70667380D01*
X122904762Y-70667380D02*
X123095238Y-70667380D01*
X123095238Y-70667380D02*
X123190476Y-70619761D01*
X123190476Y-70619761D02*
X123238095Y-70572142D01*
X123238095Y-70572142D02*
X123285714Y-70476904D01*
X123285714Y-70476904D02*
X123285714Y-70238809D01*
X123285714Y-70238809D02*
X123238095Y-70143571D01*
X123238095Y-70143571D02*
X123190476Y-70095952D01*
X123190476Y-70095952D02*
X123095238Y-70048333D01*
X123095238Y-70048333D02*
X122904762Y-70048333D01*
X122904762Y-70048333D02*
X122809524Y-70095952D01*
X122809524Y-70095952D02*
X122761905Y-70143571D01*
X122761905Y-70143571D02*
X122714286Y-70238809D01*
%TO.C,C7*%
X122333333Y-67272142D02*
X122285714Y-67319761D01*
X122285714Y-67319761D02*
X122142857Y-67367380D01*
X122142857Y-67367380D02*
X122047619Y-67367380D01*
X122047619Y-67367380D02*
X121904762Y-67319761D01*
X121904762Y-67319761D02*
X121809524Y-67224523D01*
X121809524Y-67224523D02*
X121761905Y-67129285D01*
X121761905Y-67129285D02*
X121714286Y-66938809D01*
X121714286Y-66938809D02*
X121714286Y-66795952D01*
X121714286Y-66795952D02*
X121761905Y-66605476D01*
X121761905Y-66605476D02*
X121809524Y-66510238D01*
X121809524Y-66510238D02*
X121904762Y-66415000D01*
X121904762Y-66415000D02*
X122047619Y-66367380D01*
X122047619Y-66367380D02*
X122142857Y-66367380D01*
X122142857Y-66367380D02*
X122285714Y-66415000D01*
X122285714Y-66415000D02*
X122333333Y-66462619D01*
X122666667Y-66367380D02*
X123333333Y-66367380D01*
X123333333Y-66367380D02*
X122904762Y-67367380D01*
%TO.C,C8*%
X122333333Y-63772142D02*
X122285714Y-63819761D01*
X122285714Y-63819761D02*
X122142857Y-63867380D01*
X122142857Y-63867380D02*
X122047619Y-63867380D01*
X122047619Y-63867380D02*
X121904762Y-63819761D01*
X121904762Y-63819761D02*
X121809524Y-63724523D01*
X121809524Y-63724523D02*
X121761905Y-63629285D01*
X121761905Y-63629285D02*
X121714286Y-63438809D01*
X121714286Y-63438809D02*
X121714286Y-63295952D01*
X121714286Y-63295952D02*
X121761905Y-63105476D01*
X121761905Y-63105476D02*
X121809524Y-63010238D01*
X121809524Y-63010238D02*
X121904762Y-62915000D01*
X121904762Y-62915000D02*
X122047619Y-62867380D01*
X122047619Y-62867380D02*
X122142857Y-62867380D01*
X122142857Y-62867380D02*
X122285714Y-62915000D01*
X122285714Y-62915000D02*
X122333333Y-62962619D01*
X122904762Y-63295952D02*
X122809524Y-63248333D01*
X122809524Y-63248333D02*
X122761905Y-63200714D01*
X122761905Y-63200714D02*
X122714286Y-63105476D01*
X122714286Y-63105476D02*
X122714286Y-63057857D01*
X122714286Y-63057857D02*
X122761905Y-62962619D01*
X122761905Y-62962619D02*
X122809524Y-62915000D01*
X122809524Y-62915000D02*
X122904762Y-62867380D01*
X122904762Y-62867380D02*
X123095238Y-62867380D01*
X123095238Y-62867380D02*
X123190476Y-62915000D01*
X123190476Y-62915000D02*
X123238095Y-62962619D01*
X123238095Y-62962619D02*
X123285714Y-63057857D01*
X123285714Y-63057857D02*
X123285714Y-63105476D01*
X123285714Y-63105476D02*
X123238095Y-63200714D01*
X123238095Y-63200714D02*
X123190476Y-63248333D01*
X123190476Y-63248333D02*
X123095238Y-63295952D01*
X123095238Y-63295952D02*
X122904762Y-63295952D01*
X122904762Y-63295952D02*
X122809524Y-63343571D01*
X122809524Y-63343571D02*
X122761905Y-63391190D01*
X122761905Y-63391190D02*
X122714286Y-63486428D01*
X122714286Y-63486428D02*
X122714286Y-63676904D01*
X122714286Y-63676904D02*
X122761905Y-63772142D01*
X122761905Y-63772142D02*
X122809524Y-63819761D01*
X122809524Y-63819761D02*
X122904762Y-63867380D01*
X122904762Y-63867380D02*
X123095238Y-63867380D01*
X123095238Y-63867380D02*
X123190476Y-63819761D01*
X123190476Y-63819761D02*
X123238095Y-63772142D01*
X123238095Y-63772142D02*
X123285714Y-63676904D01*
X123285714Y-63676904D02*
X123285714Y-63486428D01*
X123285714Y-63486428D02*
X123238095Y-63391190D01*
X123238095Y-63391190D02*
X123190476Y-63343571D01*
X123190476Y-63343571D02*
X123095238Y-63295952D01*
%TO.C,C17*%
X131522142Y-84392857D02*
X131569761Y-84440476D01*
X131569761Y-84440476D02*
X131617380Y-84583333D01*
X131617380Y-84583333D02*
X131617380Y-84678571D01*
X131617380Y-84678571D02*
X131569761Y-84821428D01*
X131569761Y-84821428D02*
X131474523Y-84916666D01*
X131474523Y-84916666D02*
X131379285Y-84964285D01*
X131379285Y-84964285D02*
X131188809Y-85011904D01*
X131188809Y-85011904D02*
X131045952Y-85011904D01*
X131045952Y-85011904D02*
X130855476Y-84964285D01*
X130855476Y-84964285D02*
X130760238Y-84916666D01*
X130760238Y-84916666D02*
X130665000Y-84821428D01*
X130665000Y-84821428D02*
X130617380Y-84678571D01*
X130617380Y-84678571D02*
X130617380Y-84583333D01*
X130617380Y-84583333D02*
X130665000Y-84440476D01*
X130665000Y-84440476D02*
X130712619Y-84392857D01*
X131617380Y-83440476D02*
X131617380Y-84011904D01*
X131617380Y-83726190D02*
X130617380Y-83726190D01*
X130617380Y-83726190D02*
X130760238Y-83821428D01*
X130760238Y-83821428D02*
X130855476Y-83916666D01*
X130855476Y-83916666D02*
X130903095Y-84011904D01*
X130617380Y-83107142D02*
X130617380Y-82440476D01*
X130617380Y-82440476D02*
X131617380Y-82869047D01*
%TO.C,C18*%
X137102142Y-84622857D02*
X137149761Y-84670476D01*
X137149761Y-84670476D02*
X137197380Y-84813333D01*
X137197380Y-84813333D02*
X137197380Y-84908571D01*
X137197380Y-84908571D02*
X137149761Y-85051428D01*
X137149761Y-85051428D02*
X137054523Y-85146666D01*
X137054523Y-85146666D02*
X136959285Y-85194285D01*
X136959285Y-85194285D02*
X136768809Y-85241904D01*
X136768809Y-85241904D02*
X136625952Y-85241904D01*
X136625952Y-85241904D02*
X136435476Y-85194285D01*
X136435476Y-85194285D02*
X136340238Y-85146666D01*
X136340238Y-85146666D02*
X136245000Y-85051428D01*
X136245000Y-85051428D02*
X136197380Y-84908571D01*
X136197380Y-84908571D02*
X136197380Y-84813333D01*
X136197380Y-84813333D02*
X136245000Y-84670476D01*
X136245000Y-84670476D02*
X136292619Y-84622857D01*
X137197380Y-83670476D02*
X137197380Y-84241904D01*
X137197380Y-83956190D02*
X136197380Y-83956190D01*
X136197380Y-83956190D02*
X136340238Y-84051428D01*
X136340238Y-84051428D02*
X136435476Y-84146666D01*
X136435476Y-84146666D02*
X136483095Y-84241904D01*
X136625952Y-83099047D02*
X136578333Y-83194285D01*
X136578333Y-83194285D02*
X136530714Y-83241904D01*
X136530714Y-83241904D02*
X136435476Y-83289523D01*
X136435476Y-83289523D02*
X136387857Y-83289523D01*
X136387857Y-83289523D02*
X136292619Y-83241904D01*
X136292619Y-83241904D02*
X136245000Y-83194285D01*
X136245000Y-83194285D02*
X136197380Y-83099047D01*
X136197380Y-83099047D02*
X136197380Y-82908571D01*
X136197380Y-82908571D02*
X136245000Y-82813333D01*
X136245000Y-82813333D02*
X136292619Y-82765714D01*
X136292619Y-82765714D02*
X136387857Y-82718095D01*
X136387857Y-82718095D02*
X136435476Y-82718095D01*
X136435476Y-82718095D02*
X136530714Y-82765714D01*
X136530714Y-82765714D02*
X136578333Y-82813333D01*
X136578333Y-82813333D02*
X136625952Y-82908571D01*
X136625952Y-82908571D02*
X136625952Y-83099047D01*
X136625952Y-83099047D02*
X136673571Y-83194285D01*
X136673571Y-83194285D02*
X136721190Y-83241904D01*
X136721190Y-83241904D02*
X136816428Y-83289523D01*
X136816428Y-83289523D02*
X137006904Y-83289523D01*
X137006904Y-83289523D02*
X137102142Y-83241904D01*
X137102142Y-83241904D02*
X137149761Y-83194285D01*
X137149761Y-83194285D02*
X137197380Y-83099047D01*
X137197380Y-83099047D02*
X137197380Y-82908571D01*
X137197380Y-82908571D02*
X137149761Y-82813333D01*
X137149761Y-82813333D02*
X137102142Y-82765714D01*
X137102142Y-82765714D02*
X137006904Y-82718095D01*
X137006904Y-82718095D02*
X136816428Y-82718095D01*
X136816428Y-82718095D02*
X136721190Y-82765714D01*
X136721190Y-82765714D02*
X136673571Y-82813333D01*
X136673571Y-82813333D02*
X136625952Y-82908571D01*
%TO.C,C19*%
X131597142Y-65032142D02*
X131549523Y-65079761D01*
X131549523Y-65079761D02*
X131406666Y-65127380D01*
X131406666Y-65127380D02*
X131311428Y-65127380D01*
X131311428Y-65127380D02*
X131168571Y-65079761D01*
X131168571Y-65079761D02*
X131073333Y-64984523D01*
X131073333Y-64984523D02*
X131025714Y-64889285D01*
X131025714Y-64889285D02*
X130978095Y-64698809D01*
X130978095Y-64698809D02*
X130978095Y-64555952D01*
X130978095Y-64555952D02*
X131025714Y-64365476D01*
X131025714Y-64365476D02*
X131073333Y-64270238D01*
X131073333Y-64270238D02*
X131168571Y-64175000D01*
X131168571Y-64175000D02*
X131311428Y-64127380D01*
X131311428Y-64127380D02*
X131406666Y-64127380D01*
X131406666Y-64127380D02*
X131549523Y-64175000D01*
X131549523Y-64175000D02*
X131597142Y-64222619D01*
X132549523Y-65127380D02*
X131978095Y-65127380D01*
X132263809Y-65127380D02*
X132263809Y-64127380D01*
X132263809Y-64127380D02*
X132168571Y-64270238D01*
X132168571Y-64270238D02*
X132073333Y-64365476D01*
X132073333Y-64365476D02*
X131978095Y-64413095D01*
X133025714Y-65127380D02*
X133216190Y-65127380D01*
X133216190Y-65127380D02*
X133311428Y-65079761D01*
X133311428Y-65079761D02*
X133359047Y-65032142D01*
X133359047Y-65032142D02*
X133454285Y-64889285D01*
X133454285Y-64889285D02*
X133501904Y-64698809D01*
X133501904Y-64698809D02*
X133501904Y-64317857D01*
X133501904Y-64317857D02*
X133454285Y-64222619D01*
X133454285Y-64222619D02*
X133406666Y-64175000D01*
X133406666Y-64175000D02*
X133311428Y-64127380D01*
X133311428Y-64127380D02*
X133120952Y-64127380D01*
X133120952Y-64127380D02*
X133025714Y-64175000D01*
X133025714Y-64175000D02*
X132978095Y-64222619D01*
X132978095Y-64222619D02*
X132930476Y-64317857D01*
X132930476Y-64317857D02*
X132930476Y-64555952D01*
X132930476Y-64555952D02*
X132978095Y-64651190D01*
X132978095Y-64651190D02*
X133025714Y-64698809D01*
X133025714Y-64698809D02*
X133120952Y-64746428D01*
X133120952Y-64746428D02*
X133311428Y-64746428D01*
X133311428Y-64746428D02*
X133406666Y-64698809D01*
X133406666Y-64698809D02*
X133454285Y-64651190D01*
X133454285Y-64651190D02*
X133501904Y-64555952D01*
%TO.C,C20*%
X131517142Y-69592142D02*
X131469523Y-69639761D01*
X131469523Y-69639761D02*
X131326666Y-69687380D01*
X131326666Y-69687380D02*
X131231428Y-69687380D01*
X131231428Y-69687380D02*
X131088571Y-69639761D01*
X131088571Y-69639761D02*
X130993333Y-69544523D01*
X130993333Y-69544523D02*
X130945714Y-69449285D01*
X130945714Y-69449285D02*
X130898095Y-69258809D01*
X130898095Y-69258809D02*
X130898095Y-69115952D01*
X130898095Y-69115952D02*
X130945714Y-68925476D01*
X130945714Y-68925476D02*
X130993333Y-68830238D01*
X130993333Y-68830238D02*
X131088571Y-68735000D01*
X131088571Y-68735000D02*
X131231428Y-68687380D01*
X131231428Y-68687380D02*
X131326666Y-68687380D01*
X131326666Y-68687380D02*
X131469523Y-68735000D01*
X131469523Y-68735000D02*
X131517142Y-68782619D01*
X131898095Y-68782619D02*
X131945714Y-68735000D01*
X131945714Y-68735000D02*
X132040952Y-68687380D01*
X132040952Y-68687380D02*
X132279047Y-68687380D01*
X132279047Y-68687380D02*
X132374285Y-68735000D01*
X132374285Y-68735000D02*
X132421904Y-68782619D01*
X132421904Y-68782619D02*
X132469523Y-68877857D01*
X132469523Y-68877857D02*
X132469523Y-68973095D01*
X132469523Y-68973095D02*
X132421904Y-69115952D01*
X132421904Y-69115952D02*
X131850476Y-69687380D01*
X131850476Y-69687380D02*
X132469523Y-69687380D01*
X133088571Y-68687380D02*
X133183809Y-68687380D01*
X133183809Y-68687380D02*
X133279047Y-68735000D01*
X133279047Y-68735000D02*
X133326666Y-68782619D01*
X133326666Y-68782619D02*
X133374285Y-68877857D01*
X133374285Y-68877857D02*
X133421904Y-69068333D01*
X133421904Y-69068333D02*
X133421904Y-69306428D01*
X133421904Y-69306428D02*
X133374285Y-69496904D01*
X133374285Y-69496904D02*
X133326666Y-69592142D01*
X133326666Y-69592142D02*
X133279047Y-69639761D01*
X133279047Y-69639761D02*
X133183809Y-69687380D01*
X133183809Y-69687380D02*
X133088571Y-69687380D01*
X133088571Y-69687380D02*
X132993333Y-69639761D01*
X132993333Y-69639761D02*
X132945714Y-69592142D01*
X132945714Y-69592142D02*
X132898095Y-69496904D01*
X132898095Y-69496904D02*
X132850476Y-69306428D01*
X132850476Y-69306428D02*
X132850476Y-69068333D01*
X132850476Y-69068333D02*
X132898095Y-68877857D01*
X132898095Y-68877857D02*
X132945714Y-68782619D01*
X132945714Y-68782619D02*
X132993333Y-68735000D01*
X132993333Y-68735000D02*
X133088571Y-68687380D01*
%TO.C,C21*%
X124077142Y-78372142D02*
X124029523Y-78419761D01*
X124029523Y-78419761D02*
X123886666Y-78467380D01*
X123886666Y-78467380D02*
X123791428Y-78467380D01*
X123791428Y-78467380D02*
X123648571Y-78419761D01*
X123648571Y-78419761D02*
X123553333Y-78324523D01*
X123553333Y-78324523D02*
X123505714Y-78229285D01*
X123505714Y-78229285D02*
X123458095Y-78038809D01*
X123458095Y-78038809D02*
X123458095Y-77895952D01*
X123458095Y-77895952D02*
X123505714Y-77705476D01*
X123505714Y-77705476D02*
X123553333Y-77610238D01*
X123553333Y-77610238D02*
X123648571Y-77515000D01*
X123648571Y-77515000D02*
X123791428Y-77467380D01*
X123791428Y-77467380D02*
X123886666Y-77467380D01*
X123886666Y-77467380D02*
X124029523Y-77515000D01*
X124029523Y-77515000D02*
X124077142Y-77562619D01*
X124458095Y-77562619D02*
X124505714Y-77515000D01*
X124505714Y-77515000D02*
X124600952Y-77467380D01*
X124600952Y-77467380D02*
X124839047Y-77467380D01*
X124839047Y-77467380D02*
X124934285Y-77515000D01*
X124934285Y-77515000D02*
X124981904Y-77562619D01*
X124981904Y-77562619D02*
X125029523Y-77657857D01*
X125029523Y-77657857D02*
X125029523Y-77753095D01*
X125029523Y-77753095D02*
X124981904Y-77895952D01*
X124981904Y-77895952D02*
X124410476Y-78467380D01*
X124410476Y-78467380D02*
X125029523Y-78467380D01*
X125981904Y-78467380D02*
X125410476Y-78467380D01*
X125696190Y-78467380D02*
X125696190Y-77467380D01*
X125696190Y-77467380D02*
X125600952Y-77610238D01*
X125600952Y-77610238D02*
X125505714Y-77705476D01*
X125505714Y-77705476D02*
X125410476Y-77753095D01*
%TO.C,C22*%
X125487142Y-82862142D02*
X125439523Y-82909761D01*
X125439523Y-82909761D02*
X125296666Y-82957380D01*
X125296666Y-82957380D02*
X125201428Y-82957380D01*
X125201428Y-82957380D02*
X125058571Y-82909761D01*
X125058571Y-82909761D02*
X124963333Y-82814523D01*
X124963333Y-82814523D02*
X124915714Y-82719285D01*
X124915714Y-82719285D02*
X124868095Y-82528809D01*
X124868095Y-82528809D02*
X124868095Y-82385952D01*
X124868095Y-82385952D02*
X124915714Y-82195476D01*
X124915714Y-82195476D02*
X124963333Y-82100238D01*
X124963333Y-82100238D02*
X125058571Y-82005000D01*
X125058571Y-82005000D02*
X125201428Y-81957380D01*
X125201428Y-81957380D02*
X125296666Y-81957380D01*
X125296666Y-81957380D02*
X125439523Y-82005000D01*
X125439523Y-82005000D02*
X125487142Y-82052619D01*
X125868095Y-82052619D02*
X125915714Y-82005000D01*
X125915714Y-82005000D02*
X126010952Y-81957380D01*
X126010952Y-81957380D02*
X126249047Y-81957380D01*
X126249047Y-81957380D02*
X126344285Y-82005000D01*
X126344285Y-82005000D02*
X126391904Y-82052619D01*
X126391904Y-82052619D02*
X126439523Y-82147857D01*
X126439523Y-82147857D02*
X126439523Y-82243095D01*
X126439523Y-82243095D02*
X126391904Y-82385952D01*
X126391904Y-82385952D02*
X125820476Y-82957380D01*
X125820476Y-82957380D02*
X126439523Y-82957380D01*
X126820476Y-82052619D02*
X126868095Y-82005000D01*
X126868095Y-82005000D02*
X126963333Y-81957380D01*
X126963333Y-81957380D02*
X127201428Y-81957380D01*
X127201428Y-81957380D02*
X127296666Y-82005000D01*
X127296666Y-82005000D02*
X127344285Y-82052619D01*
X127344285Y-82052619D02*
X127391904Y-82147857D01*
X127391904Y-82147857D02*
X127391904Y-82243095D01*
X127391904Y-82243095D02*
X127344285Y-82385952D01*
X127344285Y-82385952D02*
X126772857Y-82957380D01*
X126772857Y-82957380D02*
X127391904Y-82957380D01*
%TO.C,C23*%
X129182142Y-83772857D02*
X129229761Y-83820476D01*
X129229761Y-83820476D02*
X129277380Y-83963333D01*
X129277380Y-83963333D02*
X129277380Y-84058571D01*
X129277380Y-84058571D02*
X129229761Y-84201428D01*
X129229761Y-84201428D02*
X129134523Y-84296666D01*
X129134523Y-84296666D02*
X129039285Y-84344285D01*
X129039285Y-84344285D02*
X128848809Y-84391904D01*
X128848809Y-84391904D02*
X128705952Y-84391904D01*
X128705952Y-84391904D02*
X128515476Y-84344285D01*
X128515476Y-84344285D02*
X128420238Y-84296666D01*
X128420238Y-84296666D02*
X128325000Y-84201428D01*
X128325000Y-84201428D02*
X128277380Y-84058571D01*
X128277380Y-84058571D02*
X128277380Y-83963333D01*
X128277380Y-83963333D02*
X128325000Y-83820476D01*
X128325000Y-83820476D02*
X128372619Y-83772857D01*
X128372619Y-83391904D02*
X128325000Y-83344285D01*
X128325000Y-83344285D02*
X128277380Y-83249047D01*
X128277380Y-83249047D02*
X128277380Y-83010952D01*
X128277380Y-83010952D02*
X128325000Y-82915714D01*
X128325000Y-82915714D02*
X128372619Y-82868095D01*
X128372619Y-82868095D02*
X128467857Y-82820476D01*
X128467857Y-82820476D02*
X128563095Y-82820476D01*
X128563095Y-82820476D02*
X128705952Y-82868095D01*
X128705952Y-82868095D02*
X129277380Y-83439523D01*
X129277380Y-83439523D02*
X129277380Y-82820476D01*
X128277380Y-82487142D02*
X128277380Y-81868095D01*
X128277380Y-81868095D02*
X128658333Y-82201428D01*
X128658333Y-82201428D02*
X128658333Y-82058571D01*
X128658333Y-82058571D02*
X128705952Y-81963333D01*
X128705952Y-81963333D02*
X128753571Y-81915714D01*
X128753571Y-81915714D02*
X128848809Y-81868095D01*
X128848809Y-81868095D02*
X129086904Y-81868095D01*
X129086904Y-81868095D02*
X129182142Y-81915714D01*
X129182142Y-81915714D02*
X129229761Y-81963333D01*
X129229761Y-81963333D02*
X129277380Y-82058571D01*
X129277380Y-82058571D02*
X129277380Y-82344285D01*
X129277380Y-82344285D02*
X129229761Y-82439523D01*
X129229761Y-82439523D02*
X129182142Y-82487142D01*
%TO.C,C25*%
X136447142Y-73762142D02*
X136399523Y-73809761D01*
X136399523Y-73809761D02*
X136256666Y-73857380D01*
X136256666Y-73857380D02*
X136161428Y-73857380D01*
X136161428Y-73857380D02*
X136018571Y-73809761D01*
X136018571Y-73809761D02*
X135923333Y-73714523D01*
X135923333Y-73714523D02*
X135875714Y-73619285D01*
X135875714Y-73619285D02*
X135828095Y-73428809D01*
X135828095Y-73428809D02*
X135828095Y-73285952D01*
X135828095Y-73285952D02*
X135875714Y-73095476D01*
X135875714Y-73095476D02*
X135923333Y-73000238D01*
X135923333Y-73000238D02*
X136018571Y-72905000D01*
X136018571Y-72905000D02*
X136161428Y-72857380D01*
X136161428Y-72857380D02*
X136256666Y-72857380D01*
X136256666Y-72857380D02*
X136399523Y-72905000D01*
X136399523Y-72905000D02*
X136447142Y-72952619D01*
X136828095Y-72952619D02*
X136875714Y-72905000D01*
X136875714Y-72905000D02*
X136970952Y-72857380D01*
X136970952Y-72857380D02*
X137209047Y-72857380D01*
X137209047Y-72857380D02*
X137304285Y-72905000D01*
X137304285Y-72905000D02*
X137351904Y-72952619D01*
X137351904Y-72952619D02*
X137399523Y-73047857D01*
X137399523Y-73047857D02*
X137399523Y-73143095D01*
X137399523Y-73143095D02*
X137351904Y-73285952D01*
X137351904Y-73285952D02*
X136780476Y-73857380D01*
X136780476Y-73857380D02*
X137399523Y-73857380D01*
X138304285Y-72857380D02*
X137828095Y-72857380D01*
X137828095Y-72857380D02*
X137780476Y-73333571D01*
X137780476Y-73333571D02*
X137828095Y-73285952D01*
X137828095Y-73285952D02*
X137923333Y-73238333D01*
X137923333Y-73238333D02*
X138161428Y-73238333D01*
X138161428Y-73238333D02*
X138256666Y-73285952D01*
X138256666Y-73285952D02*
X138304285Y-73333571D01*
X138304285Y-73333571D02*
X138351904Y-73428809D01*
X138351904Y-73428809D02*
X138351904Y-73666904D01*
X138351904Y-73666904D02*
X138304285Y-73762142D01*
X138304285Y-73762142D02*
X138256666Y-73809761D01*
X138256666Y-73809761D02*
X138161428Y-73857380D01*
X138161428Y-73857380D02*
X137923333Y-73857380D01*
X137923333Y-73857380D02*
X137828095Y-73809761D01*
X137828095Y-73809761D02*
X137780476Y-73762142D01*
%TO.C,C26*%
X137597142Y-69232142D02*
X137549523Y-69279761D01*
X137549523Y-69279761D02*
X137406666Y-69327380D01*
X137406666Y-69327380D02*
X137311428Y-69327380D01*
X137311428Y-69327380D02*
X137168571Y-69279761D01*
X137168571Y-69279761D02*
X137073333Y-69184523D01*
X137073333Y-69184523D02*
X137025714Y-69089285D01*
X137025714Y-69089285D02*
X136978095Y-68898809D01*
X136978095Y-68898809D02*
X136978095Y-68755952D01*
X136978095Y-68755952D02*
X137025714Y-68565476D01*
X137025714Y-68565476D02*
X137073333Y-68470238D01*
X137073333Y-68470238D02*
X137168571Y-68375000D01*
X137168571Y-68375000D02*
X137311428Y-68327380D01*
X137311428Y-68327380D02*
X137406666Y-68327380D01*
X137406666Y-68327380D02*
X137549523Y-68375000D01*
X137549523Y-68375000D02*
X137597142Y-68422619D01*
X137978095Y-68422619D02*
X138025714Y-68375000D01*
X138025714Y-68375000D02*
X138120952Y-68327380D01*
X138120952Y-68327380D02*
X138359047Y-68327380D01*
X138359047Y-68327380D02*
X138454285Y-68375000D01*
X138454285Y-68375000D02*
X138501904Y-68422619D01*
X138501904Y-68422619D02*
X138549523Y-68517857D01*
X138549523Y-68517857D02*
X138549523Y-68613095D01*
X138549523Y-68613095D02*
X138501904Y-68755952D01*
X138501904Y-68755952D02*
X137930476Y-69327380D01*
X137930476Y-69327380D02*
X138549523Y-69327380D01*
X139406666Y-68327380D02*
X139216190Y-68327380D01*
X139216190Y-68327380D02*
X139120952Y-68375000D01*
X139120952Y-68375000D02*
X139073333Y-68422619D01*
X139073333Y-68422619D02*
X138978095Y-68565476D01*
X138978095Y-68565476D02*
X138930476Y-68755952D01*
X138930476Y-68755952D02*
X138930476Y-69136904D01*
X138930476Y-69136904D02*
X138978095Y-69232142D01*
X138978095Y-69232142D02*
X139025714Y-69279761D01*
X139025714Y-69279761D02*
X139120952Y-69327380D01*
X139120952Y-69327380D02*
X139311428Y-69327380D01*
X139311428Y-69327380D02*
X139406666Y-69279761D01*
X139406666Y-69279761D02*
X139454285Y-69232142D01*
X139454285Y-69232142D02*
X139501904Y-69136904D01*
X139501904Y-69136904D02*
X139501904Y-68898809D01*
X139501904Y-68898809D02*
X139454285Y-68803571D01*
X139454285Y-68803571D02*
X139406666Y-68755952D01*
X139406666Y-68755952D02*
X139311428Y-68708333D01*
X139311428Y-68708333D02*
X139120952Y-68708333D01*
X139120952Y-68708333D02*
X139025714Y-68755952D01*
X139025714Y-68755952D02*
X138978095Y-68803571D01*
X138978095Y-68803571D02*
X138930476Y-68898809D01*
%TO.C,C27*%
X134807142Y-69632142D02*
X134759523Y-69679761D01*
X134759523Y-69679761D02*
X134616666Y-69727380D01*
X134616666Y-69727380D02*
X134521428Y-69727380D01*
X134521428Y-69727380D02*
X134378571Y-69679761D01*
X134378571Y-69679761D02*
X134283333Y-69584523D01*
X134283333Y-69584523D02*
X134235714Y-69489285D01*
X134235714Y-69489285D02*
X134188095Y-69298809D01*
X134188095Y-69298809D02*
X134188095Y-69155952D01*
X134188095Y-69155952D02*
X134235714Y-68965476D01*
X134235714Y-68965476D02*
X134283333Y-68870238D01*
X134283333Y-68870238D02*
X134378571Y-68775000D01*
X134378571Y-68775000D02*
X134521428Y-68727380D01*
X134521428Y-68727380D02*
X134616666Y-68727380D01*
X134616666Y-68727380D02*
X134759523Y-68775000D01*
X134759523Y-68775000D02*
X134807142Y-68822619D01*
X135188095Y-68822619D02*
X135235714Y-68775000D01*
X135235714Y-68775000D02*
X135330952Y-68727380D01*
X135330952Y-68727380D02*
X135569047Y-68727380D01*
X135569047Y-68727380D02*
X135664285Y-68775000D01*
X135664285Y-68775000D02*
X135711904Y-68822619D01*
X135711904Y-68822619D02*
X135759523Y-68917857D01*
X135759523Y-68917857D02*
X135759523Y-69013095D01*
X135759523Y-69013095D02*
X135711904Y-69155952D01*
X135711904Y-69155952D02*
X135140476Y-69727380D01*
X135140476Y-69727380D02*
X135759523Y-69727380D01*
X136092857Y-68727380D02*
X136759523Y-68727380D01*
X136759523Y-68727380D02*
X136330952Y-69727380D01*
%TO.C,C28*%
X134767142Y-65042142D02*
X134719523Y-65089761D01*
X134719523Y-65089761D02*
X134576666Y-65137380D01*
X134576666Y-65137380D02*
X134481428Y-65137380D01*
X134481428Y-65137380D02*
X134338571Y-65089761D01*
X134338571Y-65089761D02*
X134243333Y-64994523D01*
X134243333Y-64994523D02*
X134195714Y-64899285D01*
X134195714Y-64899285D02*
X134148095Y-64708809D01*
X134148095Y-64708809D02*
X134148095Y-64565952D01*
X134148095Y-64565952D02*
X134195714Y-64375476D01*
X134195714Y-64375476D02*
X134243333Y-64280238D01*
X134243333Y-64280238D02*
X134338571Y-64185000D01*
X134338571Y-64185000D02*
X134481428Y-64137380D01*
X134481428Y-64137380D02*
X134576666Y-64137380D01*
X134576666Y-64137380D02*
X134719523Y-64185000D01*
X134719523Y-64185000D02*
X134767142Y-64232619D01*
X135148095Y-64232619D02*
X135195714Y-64185000D01*
X135195714Y-64185000D02*
X135290952Y-64137380D01*
X135290952Y-64137380D02*
X135529047Y-64137380D01*
X135529047Y-64137380D02*
X135624285Y-64185000D01*
X135624285Y-64185000D02*
X135671904Y-64232619D01*
X135671904Y-64232619D02*
X135719523Y-64327857D01*
X135719523Y-64327857D02*
X135719523Y-64423095D01*
X135719523Y-64423095D02*
X135671904Y-64565952D01*
X135671904Y-64565952D02*
X135100476Y-65137380D01*
X135100476Y-65137380D02*
X135719523Y-65137380D01*
X136290952Y-64565952D02*
X136195714Y-64518333D01*
X136195714Y-64518333D02*
X136148095Y-64470714D01*
X136148095Y-64470714D02*
X136100476Y-64375476D01*
X136100476Y-64375476D02*
X136100476Y-64327857D01*
X136100476Y-64327857D02*
X136148095Y-64232619D01*
X136148095Y-64232619D02*
X136195714Y-64185000D01*
X136195714Y-64185000D02*
X136290952Y-64137380D01*
X136290952Y-64137380D02*
X136481428Y-64137380D01*
X136481428Y-64137380D02*
X136576666Y-64185000D01*
X136576666Y-64185000D02*
X136624285Y-64232619D01*
X136624285Y-64232619D02*
X136671904Y-64327857D01*
X136671904Y-64327857D02*
X136671904Y-64375476D01*
X136671904Y-64375476D02*
X136624285Y-64470714D01*
X136624285Y-64470714D02*
X136576666Y-64518333D01*
X136576666Y-64518333D02*
X136481428Y-64565952D01*
X136481428Y-64565952D02*
X136290952Y-64565952D01*
X136290952Y-64565952D02*
X136195714Y-64613571D01*
X136195714Y-64613571D02*
X136148095Y-64661190D01*
X136148095Y-64661190D02*
X136100476Y-64756428D01*
X136100476Y-64756428D02*
X136100476Y-64946904D01*
X136100476Y-64946904D02*
X136148095Y-65042142D01*
X136148095Y-65042142D02*
X136195714Y-65089761D01*
X136195714Y-65089761D02*
X136290952Y-65137380D01*
X136290952Y-65137380D02*
X136481428Y-65137380D01*
X136481428Y-65137380D02*
X136576666Y-65089761D01*
X136576666Y-65089761D02*
X136624285Y-65042142D01*
X136624285Y-65042142D02*
X136671904Y-64946904D01*
X136671904Y-64946904D02*
X136671904Y-64756428D01*
X136671904Y-64756428D02*
X136624285Y-64661190D01*
X136624285Y-64661190D02*
X136576666Y-64613571D01*
X136576666Y-64613571D02*
X136481428Y-64565952D01*
%TO.C,C29*%
X133872142Y-84502857D02*
X133919761Y-84550476D01*
X133919761Y-84550476D02*
X133967380Y-84693333D01*
X133967380Y-84693333D02*
X133967380Y-84788571D01*
X133967380Y-84788571D02*
X133919761Y-84931428D01*
X133919761Y-84931428D02*
X133824523Y-85026666D01*
X133824523Y-85026666D02*
X133729285Y-85074285D01*
X133729285Y-85074285D02*
X133538809Y-85121904D01*
X133538809Y-85121904D02*
X133395952Y-85121904D01*
X133395952Y-85121904D02*
X133205476Y-85074285D01*
X133205476Y-85074285D02*
X133110238Y-85026666D01*
X133110238Y-85026666D02*
X133015000Y-84931428D01*
X133015000Y-84931428D02*
X132967380Y-84788571D01*
X132967380Y-84788571D02*
X132967380Y-84693333D01*
X132967380Y-84693333D02*
X133015000Y-84550476D01*
X133015000Y-84550476D02*
X133062619Y-84502857D01*
X133062619Y-84121904D02*
X133015000Y-84074285D01*
X133015000Y-84074285D02*
X132967380Y-83979047D01*
X132967380Y-83979047D02*
X132967380Y-83740952D01*
X132967380Y-83740952D02*
X133015000Y-83645714D01*
X133015000Y-83645714D02*
X133062619Y-83598095D01*
X133062619Y-83598095D02*
X133157857Y-83550476D01*
X133157857Y-83550476D02*
X133253095Y-83550476D01*
X133253095Y-83550476D02*
X133395952Y-83598095D01*
X133395952Y-83598095D02*
X133967380Y-84169523D01*
X133967380Y-84169523D02*
X133967380Y-83550476D01*
X133967380Y-83074285D02*
X133967380Y-82883809D01*
X133967380Y-82883809D02*
X133919761Y-82788571D01*
X133919761Y-82788571D02*
X133872142Y-82740952D01*
X133872142Y-82740952D02*
X133729285Y-82645714D01*
X133729285Y-82645714D02*
X133538809Y-82598095D01*
X133538809Y-82598095D02*
X133157857Y-82598095D01*
X133157857Y-82598095D02*
X133062619Y-82645714D01*
X133062619Y-82645714D02*
X133015000Y-82693333D01*
X133015000Y-82693333D02*
X132967380Y-82788571D01*
X132967380Y-82788571D02*
X132967380Y-82979047D01*
X132967380Y-82979047D02*
X133015000Y-83074285D01*
X133015000Y-83074285D02*
X133062619Y-83121904D01*
X133062619Y-83121904D02*
X133157857Y-83169523D01*
X133157857Y-83169523D02*
X133395952Y-83169523D01*
X133395952Y-83169523D02*
X133491190Y-83121904D01*
X133491190Y-83121904D02*
X133538809Y-83074285D01*
X133538809Y-83074285D02*
X133586428Y-82979047D01*
X133586428Y-82979047D02*
X133586428Y-82788571D01*
X133586428Y-82788571D02*
X133538809Y-82693333D01*
X133538809Y-82693333D02*
X133491190Y-82645714D01*
X133491190Y-82645714D02*
X133395952Y-82598095D01*
%TO.C,C30*%
X135322142Y-84552857D02*
X135369761Y-84600476D01*
X135369761Y-84600476D02*
X135417380Y-84743333D01*
X135417380Y-84743333D02*
X135417380Y-84838571D01*
X135417380Y-84838571D02*
X135369761Y-84981428D01*
X135369761Y-84981428D02*
X135274523Y-85076666D01*
X135274523Y-85076666D02*
X135179285Y-85124285D01*
X135179285Y-85124285D02*
X134988809Y-85171904D01*
X134988809Y-85171904D02*
X134845952Y-85171904D01*
X134845952Y-85171904D02*
X134655476Y-85124285D01*
X134655476Y-85124285D02*
X134560238Y-85076666D01*
X134560238Y-85076666D02*
X134465000Y-84981428D01*
X134465000Y-84981428D02*
X134417380Y-84838571D01*
X134417380Y-84838571D02*
X134417380Y-84743333D01*
X134417380Y-84743333D02*
X134465000Y-84600476D01*
X134465000Y-84600476D02*
X134512619Y-84552857D01*
X134417380Y-84219523D02*
X134417380Y-83600476D01*
X134417380Y-83600476D02*
X134798333Y-83933809D01*
X134798333Y-83933809D02*
X134798333Y-83790952D01*
X134798333Y-83790952D02*
X134845952Y-83695714D01*
X134845952Y-83695714D02*
X134893571Y-83648095D01*
X134893571Y-83648095D02*
X134988809Y-83600476D01*
X134988809Y-83600476D02*
X135226904Y-83600476D01*
X135226904Y-83600476D02*
X135322142Y-83648095D01*
X135322142Y-83648095D02*
X135369761Y-83695714D01*
X135369761Y-83695714D02*
X135417380Y-83790952D01*
X135417380Y-83790952D02*
X135417380Y-84076666D01*
X135417380Y-84076666D02*
X135369761Y-84171904D01*
X135369761Y-84171904D02*
X135322142Y-84219523D01*
X134417380Y-82981428D02*
X134417380Y-82886190D01*
X134417380Y-82886190D02*
X134465000Y-82790952D01*
X134465000Y-82790952D02*
X134512619Y-82743333D01*
X134512619Y-82743333D02*
X134607857Y-82695714D01*
X134607857Y-82695714D02*
X134798333Y-82648095D01*
X134798333Y-82648095D02*
X135036428Y-82648095D01*
X135036428Y-82648095D02*
X135226904Y-82695714D01*
X135226904Y-82695714D02*
X135322142Y-82743333D01*
X135322142Y-82743333D02*
X135369761Y-82790952D01*
X135369761Y-82790952D02*
X135417380Y-82886190D01*
X135417380Y-82886190D02*
X135417380Y-82981428D01*
X135417380Y-82981428D02*
X135369761Y-83076666D01*
X135369761Y-83076666D02*
X135322142Y-83124285D01*
X135322142Y-83124285D02*
X135226904Y-83171904D01*
X135226904Y-83171904D02*
X135036428Y-83219523D01*
X135036428Y-83219523D02*
X134798333Y-83219523D01*
X134798333Y-83219523D02*
X134607857Y-83171904D01*
X134607857Y-83171904D02*
X134512619Y-83124285D01*
X134512619Y-83124285D02*
X134465000Y-83076666D01*
X134465000Y-83076666D02*
X134417380Y-82981428D01*
%TO.C,C31*%
X128527142Y-69622142D02*
X128479523Y-69669761D01*
X128479523Y-69669761D02*
X128336666Y-69717380D01*
X128336666Y-69717380D02*
X128241428Y-69717380D01*
X128241428Y-69717380D02*
X128098571Y-69669761D01*
X128098571Y-69669761D02*
X128003333Y-69574523D01*
X128003333Y-69574523D02*
X127955714Y-69479285D01*
X127955714Y-69479285D02*
X127908095Y-69288809D01*
X127908095Y-69288809D02*
X127908095Y-69145952D01*
X127908095Y-69145952D02*
X127955714Y-68955476D01*
X127955714Y-68955476D02*
X128003333Y-68860238D01*
X128003333Y-68860238D02*
X128098571Y-68765000D01*
X128098571Y-68765000D02*
X128241428Y-68717380D01*
X128241428Y-68717380D02*
X128336666Y-68717380D01*
X128336666Y-68717380D02*
X128479523Y-68765000D01*
X128479523Y-68765000D02*
X128527142Y-68812619D01*
X128860476Y-68717380D02*
X129479523Y-68717380D01*
X129479523Y-68717380D02*
X129146190Y-69098333D01*
X129146190Y-69098333D02*
X129289047Y-69098333D01*
X129289047Y-69098333D02*
X129384285Y-69145952D01*
X129384285Y-69145952D02*
X129431904Y-69193571D01*
X129431904Y-69193571D02*
X129479523Y-69288809D01*
X129479523Y-69288809D02*
X129479523Y-69526904D01*
X129479523Y-69526904D02*
X129431904Y-69622142D01*
X129431904Y-69622142D02*
X129384285Y-69669761D01*
X129384285Y-69669761D02*
X129289047Y-69717380D01*
X129289047Y-69717380D02*
X129003333Y-69717380D01*
X129003333Y-69717380D02*
X128908095Y-69669761D01*
X128908095Y-69669761D02*
X128860476Y-69622142D01*
X130431904Y-69717380D02*
X129860476Y-69717380D01*
X130146190Y-69717380D02*
X130146190Y-68717380D01*
X130146190Y-68717380D02*
X130050952Y-68860238D01*
X130050952Y-68860238D02*
X129955714Y-68955476D01*
X129955714Y-68955476D02*
X129860476Y-69003095D01*
%TO.C,C32*%
X128427142Y-65022142D02*
X128379523Y-65069761D01*
X128379523Y-65069761D02*
X128236666Y-65117380D01*
X128236666Y-65117380D02*
X128141428Y-65117380D01*
X128141428Y-65117380D02*
X127998571Y-65069761D01*
X127998571Y-65069761D02*
X127903333Y-64974523D01*
X127903333Y-64974523D02*
X127855714Y-64879285D01*
X127855714Y-64879285D02*
X127808095Y-64688809D01*
X127808095Y-64688809D02*
X127808095Y-64545952D01*
X127808095Y-64545952D02*
X127855714Y-64355476D01*
X127855714Y-64355476D02*
X127903333Y-64260238D01*
X127903333Y-64260238D02*
X127998571Y-64165000D01*
X127998571Y-64165000D02*
X128141428Y-64117380D01*
X128141428Y-64117380D02*
X128236666Y-64117380D01*
X128236666Y-64117380D02*
X128379523Y-64165000D01*
X128379523Y-64165000D02*
X128427142Y-64212619D01*
X128760476Y-64117380D02*
X129379523Y-64117380D01*
X129379523Y-64117380D02*
X129046190Y-64498333D01*
X129046190Y-64498333D02*
X129189047Y-64498333D01*
X129189047Y-64498333D02*
X129284285Y-64545952D01*
X129284285Y-64545952D02*
X129331904Y-64593571D01*
X129331904Y-64593571D02*
X129379523Y-64688809D01*
X129379523Y-64688809D02*
X129379523Y-64926904D01*
X129379523Y-64926904D02*
X129331904Y-65022142D01*
X129331904Y-65022142D02*
X129284285Y-65069761D01*
X129284285Y-65069761D02*
X129189047Y-65117380D01*
X129189047Y-65117380D02*
X128903333Y-65117380D01*
X128903333Y-65117380D02*
X128808095Y-65069761D01*
X128808095Y-65069761D02*
X128760476Y-65022142D01*
X129760476Y-64212619D02*
X129808095Y-64165000D01*
X129808095Y-64165000D02*
X129903333Y-64117380D01*
X129903333Y-64117380D02*
X130141428Y-64117380D01*
X130141428Y-64117380D02*
X130236666Y-64165000D01*
X130236666Y-64165000D02*
X130284285Y-64212619D01*
X130284285Y-64212619D02*
X130331904Y-64307857D01*
X130331904Y-64307857D02*
X130331904Y-64403095D01*
X130331904Y-64403095D02*
X130284285Y-64545952D01*
X130284285Y-64545952D02*
X129712857Y-65117380D01*
X129712857Y-65117380D02*
X130331904Y-65117380D01*
%TO.C,J1*%
X100866666Y-92267380D02*
X100866666Y-92981666D01*
X100866666Y-92981666D02*
X100819047Y-93124523D01*
X100819047Y-93124523D02*
X100723809Y-93219761D01*
X100723809Y-93219761D02*
X100580952Y-93267380D01*
X100580952Y-93267380D02*
X100485714Y-93267380D01*
X101866666Y-93267380D02*
X101295238Y-93267380D01*
X101580952Y-93267380D02*
X101580952Y-92267380D01*
X101580952Y-92267380D02*
X101485714Y-92410238D01*
X101485714Y-92410238D02*
X101390476Y-92505476D01*
X101390476Y-92505476D02*
X101295238Y-92553095D01*
%TO.C,R1*%
X122333333Y-89467380D02*
X122000000Y-88991190D01*
X121761905Y-89467380D02*
X121761905Y-88467380D01*
X121761905Y-88467380D02*
X122142857Y-88467380D01*
X122142857Y-88467380D02*
X122238095Y-88515000D01*
X122238095Y-88515000D02*
X122285714Y-88562619D01*
X122285714Y-88562619D02*
X122333333Y-88657857D01*
X122333333Y-88657857D02*
X122333333Y-88800714D01*
X122333333Y-88800714D02*
X122285714Y-88895952D01*
X122285714Y-88895952D02*
X122238095Y-88943571D01*
X122238095Y-88943571D02*
X122142857Y-88991190D01*
X122142857Y-88991190D02*
X121761905Y-88991190D01*
X123285714Y-89467380D02*
X122714286Y-89467380D01*
X123000000Y-89467380D02*
X123000000Y-88467380D01*
X123000000Y-88467380D02*
X122904762Y-88610238D01*
X122904762Y-88610238D02*
X122809524Y-88705476D01*
X122809524Y-88705476D02*
X122714286Y-88753095D01*
%TO.C,R2*%
X122333333Y-86067380D02*
X122000000Y-85591190D01*
X121761905Y-86067380D02*
X121761905Y-85067380D01*
X121761905Y-85067380D02*
X122142857Y-85067380D01*
X122142857Y-85067380D02*
X122238095Y-85115000D01*
X122238095Y-85115000D02*
X122285714Y-85162619D01*
X122285714Y-85162619D02*
X122333333Y-85257857D01*
X122333333Y-85257857D02*
X122333333Y-85400714D01*
X122333333Y-85400714D02*
X122285714Y-85495952D01*
X122285714Y-85495952D02*
X122238095Y-85543571D01*
X122238095Y-85543571D02*
X122142857Y-85591190D01*
X122142857Y-85591190D02*
X121761905Y-85591190D01*
X122714286Y-85162619D02*
X122761905Y-85115000D01*
X122761905Y-85115000D02*
X122857143Y-85067380D01*
X122857143Y-85067380D02*
X123095238Y-85067380D01*
X123095238Y-85067380D02*
X123190476Y-85115000D01*
X123190476Y-85115000D02*
X123238095Y-85162619D01*
X123238095Y-85162619D02*
X123285714Y-85257857D01*
X123285714Y-85257857D02*
X123285714Y-85353095D01*
X123285714Y-85353095D02*
X123238095Y-85495952D01*
X123238095Y-85495952D02*
X122666667Y-86067380D01*
X122666667Y-86067380D02*
X123285714Y-86067380D01*
%TO.C,R3*%
X122333333Y-82667380D02*
X122000000Y-82191190D01*
X121761905Y-82667380D02*
X121761905Y-81667380D01*
X121761905Y-81667380D02*
X122142857Y-81667380D01*
X122142857Y-81667380D02*
X122238095Y-81715000D01*
X122238095Y-81715000D02*
X122285714Y-81762619D01*
X122285714Y-81762619D02*
X122333333Y-81857857D01*
X122333333Y-81857857D02*
X122333333Y-82000714D01*
X122333333Y-82000714D02*
X122285714Y-82095952D01*
X122285714Y-82095952D02*
X122238095Y-82143571D01*
X122238095Y-82143571D02*
X122142857Y-82191190D01*
X122142857Y-82191190D02*
X121761905Y-82191190D01*
X122666667Y-81667380D02*
X123285714Y-81667380D01*
X123285714Y-81667380D02*
X122952381Y-82048333D01*
X122952381Y-82048333D02*
X123095238Y-82048333D01*
X123095238Y-82048333D02*
X123190476Y-82095952D01*
X123190476Y-82095952D02*
X123238095Y-82143571D01*
X123238095Y-82143571D02*
X123285714Y-82238809D01*
X123285714Y-82238809D02*
X123285714Y-82476904D01*
X123285714Y-82476904D02*
X123238095Y-82572142D01*
X123238095Y-82572142D02*
X123190476Y-82619761D01*
X123190476Y-82619761D02*
X123095238Y-82667380D01*
X123095238Y-82667380D02*
X122809524Y-82667380D01*
X122809524Y-82667380D02*
X122714286Y-82619761D01*
X122714286Y-82619761D02*
X122666667Y-82572142D01*
%TO.C,R4*%
X122333333Y-79267380D02*
X122000000Y-78791190D01*
X121761905Y-79267380D02*
X121761905Y-78267380D01*
X121761905Y-78267380D02*
X122142857Y-78267380D01*
X122142857Y-78267380D02*
X122238095Y-78315000D01*
X122238095Y-78315000D02*
X122285714Y-78362619D01*
X122285714Y-78362619D02*
X122333333Y-78457857D01*
X122333333Y-78457857D02*
X122333333Y-78600714D01*
X122333333Y-78600714D02*
X122285714Y-78695952D01*
X122285714Y-78695952D02*
X122238095Y-78743571D01*
X122238095Y-78743571D02*
X122142857Y-78791190D01*
X122142857Y-78791190D02*
X121761905Y-78791190D01*
X123190476Y-78600714D02*
X123190476Y-79267380D01*
X122952381Y-78219761D02*
X122714286Y-78934047D01*
X122714286Y-78934047D02*
X123333333Y-78934047D01*
%TO.C,R5*%
X122333333Y-75767380D02*
X122000000Y-75291190D01*
X121761905Y-75767380D02*
X121761905Y-74767380D01*
X121761905Y-74767380D02*
X122142857Y-74767380D01*
X122142857Y-74767380D02*
X122238095Y-74815000D01*
X122238095Y-74815000D02*
X122285714Y-74862619D01*
X122285714Y-74862619D02*
X122333333Y-74957857D01*
X122333333Y-74957857D02*
X122333333Y-75100714D01*
X122333333Y-75100714D02*
X122285714Y-75195952D01*
X122285714Y-75195952D02*
X122238095Y-75243571D01*
X122238095Y-75243571D02*
X122142857Y-75291190D01*
X122142857Y-75291190D02*
X121761905Y-75291190D01*
X123238095Y-74767380D02*
X122761905Y-74767380D01*
X122761905Y-74767380D02*
X122714286Y-75243571D01*
X122714286Y-75243571D02*
X122761905Y-75195952D01*
X122761905Y-75195952D02*
X122857143Y-75148333D01*
X122857143Y-75148333D02*
X123095238Y-75148333D01*
X123095238Y-75148333D02*
X123190476Y-75195952D01*
X123190476Y-75195952D02*
X123238095Y-75243571D01*
X123238095Y-75243571D02*
X123285714Y-75338809D01*
X123285714Y-75338809D02*
X123285714Y-75576904D01*
X123285714Y-75576904D02*
X123238095Y-75672142D01*
X123238095Y-75672142D02*
X123190476Y-75719761D01*
X123190476Y-75719761D02*
X123095238Y-75767380D01*
X123095238Y-75767380D02*
X122857143Y-75767380D01*
X122857143Y-75767380D02*
X122761905Y-75719761D01*
X122761905Y-75719761D02*
X122714286Y-75672142D01*
%TO.C,R6*%
X122333333Y-72367380D02*
X122000000Y-71891190D01*
X121761905Y-72367380D02*
X121761905Y-71367380D01*
X121761905Y-71367380D02*
X122142857Y-71367380D01*
X122142857Y-71367380D02*
X122238095Y-71415000D01*
X122238095Y-71415000D02*
X122285714Y-71462619D01*
X122285714Y-71462619D02*
X122333333Y-71557857D01*
X122333333Y-71557857D02*
X122333333Y-71700714D01*
X122333333Y-71700714D02*
X122285714Y-71795952D01*
X122285714Y-71795952D02*
X122238095Y-71843571D01*
X122238095Y-71843571D02*
X122142857Y-71891190D01*
X122142857Y-71891190D02*
X121761905Y-71891190D01*
X123190476Y-71367380D02*
X123000000Y-71367380D01*
X123000000Y-71367380D02*
X122904762Y-71415000D01*
X122904762Y-71415000D02*
X122857143Y-71462619D01*
X122857143Y-71462619D02*
X122761905Y-71605476D01*
X122761905Y-71605476D02*
X122714286Y-71795952D01*
X122714286Y-71795952D02*
X122714286Y-72176904D01*
X122714286Y-72176904D02*
X122761905Y-72272142D01*
X122761905Y-72272142D02*
X122809524Y-72319761D01*
X122809524Y-72319761D02*
X122904762Y-72367380D01*
X122904762Y-72367380D02*
X123095238Y-72367380D01*
X123095238Y-72367380D02*
X123190476Y-72319761D01*
X123190476Y-72319761D02*
X123238095Y-72272142D01*
X123238095Y-72272142D02*
X123285714Y-72176904D01*
X123285714Y-72176904D02*
X123285714Y-71938809D01*
X123285714Y-71938809D02*
X123238095Y-71843571D01*
X123238095Y-71843571D02*
X123190476Y-71795952D01*
X123190476Y-71795952D02*
X123095238Y-71748333D01*
X123095238Y-71748333D02*
X122904762Y-71748333D01*
X122904762Y-71748333D02*
X122809524Y-71795952D01*
X122809524Y-71795952D02*
X122761905Y-71843571D01*
X122761905Y-71843571D02*
X122714286Y-71938809D01*
%TO.C,R7*%
X122433333Y-68967380D02*
X122100000Y-68491190D01*
X121861905Y-68967380D02*
X121861905Y-67967380D01*
X121861905Y-67967380D02*
X122242857Y-67967380D01*
X122242857Y-67967380D02*
X122338095Y-68015000D01*
X122338095Y-68015000D02*
X122385714Y-68062619D01*
X122385714Y-68062619D02*
X122433333Y-68157857D01*
X122433333Y-68157857D02*
X122433333Y-68300714D01*
X122433333Y-68300714D02*
X122385714Y-68395952D01*
X122385714Y-68395952D02*
X122338095Y-68443571D01*
X122338095Y-68443571D02*
X122242857Y-68491190D01*
X122242857Y-68491190D02*
X121861905Y-68491190D01*
X122766667Y-67967380D02*
X123433333Y-67967380D01*
X123433333Y-67967380D02*
X123004762Y-68967380D01*
%TO.C,R8*%
X122333333Y-65567380D02*
X122000000Y-65091190D01*
X121761905Y-65567380D02*
X121761905Y-64567380D01*
X121761905Y-64567380D02*
X122142857Y-64567380D01*
X122142857Y-64567380D02*
X122238095Y-64615000D01*
X122238095Y-64615000D02*
X122285714Y-64662619D01*
X122285714Y-64662619D02*
X122333333Y-64757857D01*
X122333333Y-64757857D02*
X122333333Y-64900714D01*
X122333333Y-64900714D02*
X122285714Y-64995952D01*
X122285714Y-64995952D02*
X122238095Y-65043571D01*
X122238095Y-65043571D02*
X122142857Y-65091190D01*
X122142857Y-65091190D02*
X121761905Y-65091190D01*
X122904762Y-64995952D02*
X122809524Y-64948333D01*
X122809524Y-64948333D02*
X122761905Y-64900714D01*
X122761905Y-64900714D02*
X122714286Y-64805476D01*
X122714286Y-64805476D02*
X122714286Y-64757857D01*
X122714286Y-64757857D02*
X122761905Y-64662619D01*
X122761905Y-64662619D02*
X122809524Y-64615000D01*
X122809524Y-64615000D02*
X122904762Y-64567380D01*
X122904762Y-64567380D02*
X123095238Y-64567380D01*
X123095238Y-64567380D02*
X123190476Y-64615000D01*
X123190476Y-64615000D02*
X123238095Y-64662619D01*
X123238095Y-64662619D02*
X123285714Y-64757857D01*
X123285714Y-64757857D02*
X123285714Y-64805476D01*
X123285714Y-64805476D02*
X123238095Y-64900714D01*
X123238095Y-64900714D02*
X123190476Y-64948333D01*
X123190476Y-64948333D02*
X123095238Y-64995952D01*
X123095238Y-64995952D02*
X122904762Y-64995952D01*
X122904762Y-64995952D02*
X122809524Y-65043571D01*
X122809524Y-65043571D02*
X122761905Y-65091190D01*
X122761905Y-65091190D02*
X122714286Y-65186428D01*
X122714286Y-65186428D02*
X122714286Y-65376904D01*
X122714286Y-65376904D02*
X122761905Y-65472142D01*
X122761905Y-65472142D02*
X122809524Y-65519761D01*
X122809524Y-65519761D02*
X122904762Y-65567380D01*
X122904762Y-65567380D02*
X123095238Y-65567380D01*
X123095238Y-65567380D02*
X123190476Y-65519761D01*
X123190476Y-65519761D02*
X123238095Y-65472142D01*
X123238095Y-65472142D02*
X123285714Y-65376904D01*
X123285714Y-65376904D02*
X123285714Y-65186428D01*
X123285714Y-65186428D02*
X123238095Y-65091190D01*
X123238095Y-65091190D02*
X123190476Y-65043571D01*
X123190476Y-65043571D02*
X123095238Y-64995952D01*
%TO.C,R9*%
X115833333Y-88067380D02*
X115500000Y-87591190D01*
X115261905Y-88067380D02*
X115261905Y-87067380D01*
X115261905Y-87067380D02*
X115642857Y-87067380D01*
X115642857Y-87067380D02*
X115738095Y-87115000D01*
X115738095Y-87115000D02*
X115785714Y-87162619D01*
X115785714Y-87162619D02*
X115833333Y-87257857D01*
X115833333Y-87257857D02*
X115833333Y-87400714D01*
X115833333Y-87400714D02*
X115785714Y-87495952D01*
X115785714Y-87495952D02*
X115738095Y-87543571D01*
X115738095Y-87543571D02*
X115642857Y-87591190D01*
X115642857Y-87591190D02*
X115261905Y-87591190D01*
X116309524Y-88067380D02*
X116500000Y-88067380D01*
X116500000Y-88067380D02*
X116595238Y-88019761D01*
X116595238Y-88019761D02*
X116642857Y-87972142D01*
X116642857Y-87972142D02*
X116738095Y-87829285D01*
X116738095Y-87829285D02*
X116785714Y-87638809D01*
X116785714Y-87638809D02*
X116785714Y-87257857D01*
X116785714Y-87257857D02*
X116738095Y-87162619D01*
X116738095Y-87162619D02*
X116690476Y-87115000D01*
X116690476Y-87115000D02*
X116595238Y-87067380D01*
X116595238Y-87067380D02*
X116404762Y-87067380D01*
X116404762Y-87067380D02*
X116309524Y-87115000D01*
X116309524Y-87115000D02*
X116261905Y-87162619D01*
X116261905Y-87162619D02*
X116214286Y-87257857D01*
X116214286Y-87257857D02*
X116214286Y-87495952D01*
X116214286Y-87495952D02*
X116261905Y-87591190D01*
X116261905Y-87591190D02*
X116309524Y-87638809D01*
X116309524Y-87638809D02*
X116404762Y-87686428D01*
X116404762Y-87686428D02*
X116595238Y-87686428D01*
X116595238Y-87686428D02*
X116690476Y-87638809D01*
X116690476Y-87638809D02*
X116738095Y-87591190D01*
X116738095Y-87591190D02*
X116785714Y-87495952D01*
%TO.C,R10*%
X115357142Y-84667380D02*
X115023809Y-84191190D01*
X114785714Y-84667380D02*
X114785714Y-83667380D01*
X114785714Y-83667380D02*
X115166666Y-83667380D01*
X115166666Y-83667380D02*
X115261904Y-83715000D01*
X115261904Y-83715000D02*
X115309523Y-83762619D01*
X115309523Y-83762619D02*
X115357142Y-83857857D01*
X115357142Y-83857857D02*
X115357142Y-84000714D01*
X115357142Y-84000714D02*
X115309523Y-84095952D01*
X115309523Y-84095952D02*
X115261904Y-84143571D01*
X115261904Y-84143571D02*
X115166666Y-84191190D01*
X115166666Y-84191190D02*
X114785714Y-84191190D01*
X116309523Y-84667380D02*
X115738095Y-84667380D01*
X116023809Y-84667380D02*
X116023809Y-83667380D01*
X116023809Y-83667380D02*
X115928571Y-83810238D01*
X115928571Y-83810238D02*
X115833333Y-83905476D01*
X115833333Y-83905476D02*
X115738095Y-83953095D01*
X116928571Y-83667380D02*
X117023809Y-83667380D01*
X117023809Y-83667380D02*
X117119047Y-83715000D01*
X117119047Y-83715000D02*
X117166666Y-83762619D01*
X117166666Y-83762619D02*
X117214285Y-83857857D01*
X117214285Y-83857857D02*
X117261904Y-84048333D01*
X117261904Y-84048333D02*
X117261904Y-84286428D01*
X117261904Y-84286428D02*
X117214285Y-84476904D01*
X117214285Y-84476904D02*
X117166666Y-84572142D01*
X117166666Y-84572142D02*
X117119047Y-84619761D01*
X117119047Y-84619761D02*
X117023809Y-84667380D01*
X117023809Y-84667380D02*
X116928571Y-84667380D01*
X116928571Y-84667380D02*
X116833333Y-84619761D01*
X116833333Y-84619761D02*
X116785714Y-84572142D01*
X116785714Y-84572142D02*
X116738095Y-84476904D01*
X116738095Y-84476904D02*
X116690476Y-84286428D01*
X116690476Y-84286428D02*
X116690476Y-84048333D01*
X116690476Y-84048333D02*
X116738095Y-83857857D01*
X116738095Y-83857857D02*
X116785714Y-83762619D01*
X116785714Y-83762619D02*
X116833333Y-83715000D01*
X116833333Y-83715000D02*
X116928571Y-83667380D01*
%TO.C,R11*%
X115357142Y-81267380D02*
X115023809Y-80791190D01*
X114785714Y-81267380D02*
X114785714Y-80267380D01*
X114785714Y-80267380D02*
X115166666Y-80267380D01*
X115166666Y-80267380D02*
X115261904Y-80315000D01*
X115261904Y-80315000D02*
X115309523Y-80362619D01*
X115309523Y-80362619D02*
X115357142Y-80457857D01*
X115357142Y-80457857D02*
X115357142Y-80600714D01*
X115357142Y-80600714D02*
X115309523Y-80695952D01*
X115309523Y-80695952D02*
X115261904Y-80743571D01*
X115261904Y-80743571D02*
X115166666Y-80791190D01*
X115166666Y-80791190D02*
X114785714Y-80791190D01*
X116309523Y-81267380D02*
X115738095Y-81267380D01*
X116023809Y-81267380D02*
X116023809Y-80267380D01*
X116023809Y-80267380D02*
X115928571Y-80410238D01*
X115928571Y-80410238D02*
X115833333Y-80505476D01*
X115833333Y-80505476D02*
X115738095Y-80553095D01*
X117261904Y-81267380D02*
X116690476Y-81267380D01*
X116976190Y-81267380D02*
X116976190Y-80267380D01*
X116976190Y-80267380D02*
X116880952Y-80410238D01*
X116880952Y-80410238D02*
X116785714Y-80505476D01*
X116785714Y-80505476D02*
X116690476Y-80553095D01*
%TO.C,R12*%
X115357142Y-77767380D02*
X115023809Y-77291190D01*
X114785714Y-77767380D02*
X114785714Y-76767380D01*
X114785714Y-76767380D02*
X115166666Y-76767380D01*
X115166666Y-76767380D02*
X115261904Y-76815000D01*
X115261904Y-76815000D02*
X115309523Y-76862619D01*
X115309523Y-76862619D02*
X115357142Y-76957857D01*
X115357142Y-76957857D02*
X115357142Y-77100714D01*
X115357142Y-77100714D02*
X115309523Y-77195952D01*
X115309523Y-77195952D02*
X115261904Y-77243571D01*
X115261904Y-77243571D02*
X115166666Y-77291190D01*
X115166666Y-77291190D02*
X114785714Y-77291190D01*
X116309523Y-77767380D02*
X115738095Y-77767380D01*
X116023809Y-77767380D02*
X116023809Y-76767380D01*
X116023809Y-76767380D02*
X115928571Y-76910238D01*
X115928571Y-76910238D02*
X115833333Y-77005476D01*
X115833333Y-77005476D02*
X115738095Y-77053095D01*
X116690476Y-76862619D02*
X116738095Y-76815000D01*
X116738095Y-76815000D02*
X116833333Y-76767380D01*
X116833333Y-76767380D02*
X117071428Y-76767380D01*
X117071428Y-76767380D02*
X117166666Y-76815000D01*
X117166666Y-76815000D02*
X117214285Y-76862619D01*
X117214285Y-76862619D02*
X117261904Y-76957857D01*
X117261904Y-76957857D02*
X117261904Y-77053095D01*
X117261904Y-77053095D02*
X117214285Y-77195952D01*
X117214285Y-77195952D02*
X116642857Y-77767380D01*
X116642857Y-77767380D02*
X117261904Y-77767380D01*
%TO.C,R13*%
X115357142Y-74367380D02*
X115023809Y-73891190D01*
X114785714Y-74367380D02*
X114785714Y-73367380D01*
X114785714Y-73367380D02*
X115166666Y-73367380D01*
X115166666Y-73367380D02*
X115261904Y-73415000D01*
X115261904Y-73415000D02*
X115309523Y-73462619D01*
X115309523Y-73462619D02*
X115357142Y-73557857D01*
X115357142Y-73557857D02*
X115357142Y-73700714D01*
X115357142Y-73700714D02*
X115309523Y-73795952D01*
X115309523Y-73795952D02*
X115261904Y-73843571D01*
X115261904Y-73843571D02*
X115166666Y-73891190D01*
X115166666Y-73891190D02*
X114785714Y-73891190D01*
X116309523Y-74367380D02*
X115738095Y-74367380D01*
X116023809Y-74367380D02*
X116023809Y-73367380D01*
X116023809Y-73367380D02*
X115928571Y-73510238D01*
X115928571Y-73510238D02*
X115833333Y-73605476D01*
X115833333Y-73605476D02*
X115738095Y-73653095D01*
X116642857Y-73367380D02*
X117261904Y-73367380D01*
X117261904Y-73367380D02*
X116928571Y-73748333D01*
X116928571Y-73748333D02*
X117071428Y-73748333D01*
X117071428Y-73748333D02*
X117166666Y-73795952D01*
X117166666Y-73795952D02*
X117214285Y-73843571D01*
X117214285Y-73843571D02*
X117261904Y-73938809D01*
X117261904Y-73938809D02*
X117261904Y-74176904D01*
X117261904Y-74176904D02*
X117214285Y-74272142D01*
X117214285Y-74272142D02*
X117166666Y-74319761D01*
X117166666Y-74319761D02*
X117071428Y-74367380D01*
X117071428Y-74367380D02*
X116785714Y-74367380D01*
X116785714Y-74367380D02*
X116690476Y-74319761D01*
X116690476Y-74319761D02*
X116642857Y-74272142D01*
%TO.C,R14*%
X115357142Y-70967380D02*
X115023809Y-70491190D01*
X114785714Y-70967380D02*
X114785714Y-69967380D01*
X114785714Y-69967380D02*
X115166666Y-69967380D01*
X115166666Y-69967380D02*
X115261904Y-70015000D01*
X115261904Y-70015000D02*
X115309523Y-70062619D01*
X115309523Y-70062619D02*
X115357142Y-70157857D01*
X115357142Y-70157857D02*
X115357142Y-70300714D01*
X115357142Y-70300714D02*
X115309523Y-70395952D01*
X115309523Y-70395952D02*
X115261904Y-70443571D01*
X115261904Y-70443571D02*
X115166666Y-70491190D01*
X115166666Y-70491190D02*
X114785714Y-70491190D01*
X116309523Y-70967380D02*
X115738095Y-70967380D01*
X116023809Y-70967380D02*
X116023809Y-69967380D01*
X116023809Y-69967380D02*
X115928571Y-70110238D01*
X115928571Y-70110238D02*
X115833333Y-70205476D01*
X115833333Y-70205476D02*
X115738095Y-70253095D01*
X117166666Y-70300714D02*
X117166666Y-70967380D01*
X116928571Y-69919761D02*
X116690476Y-70634047D01*
X116690476Y-70634047D02*
X117309523Y-70634047D01*
%TO.C,R15*%
X115357142Y-67467380D02*
X115023809Y-66991190D01*
X114785714Y-67467380D02*
X114785714Y-66467380D01*
X114785714Y-66467380D02*
X115166666Y-66467380D01*
X115166666Y-66467380D02*
X115261904Y-66515000D01*
X115261904Y-66515000D02*
X115309523Y-66562619D01*
X115309523Y-66562619D02*
X115357142Y-66657857D01*
X115357142Y-66657857D02*
X115357142Y-66800714D01*
X115357142Y-66800714D02*
X115309523Y-66895952D01*
X115309523Y-66895952D02*
X115261904Y-66943571D01*
X115261904Y-66943571D02*
X115166666Y-66991190D01*
X115166666Y-66991190D02*
X114785714Y-66991190D01*
X116309523Y-67467380D02*
X115738095Y-67467380D01*
X116023809Y-67467380D02*
X116023809Y-66467380D01*
X116023809Y-66467380D02*
X115928571Y-66610238D01*
X115928571Y-66610238D02*
X115833333Y-66705476D01*
X115833333Y-66705476D02*
X115738095Y-66753095D01*
X117214285Y-66467380D02*
X116738095Y-66467380D01*
X116738095Y-66467380D02*
X116690476Y-66943571D01*
X116690476Y-66943571D02*
X116738095Y-66895952D01*
X116738095Y-66895952D02*
X116833333Y-66848333D01*
X116833333Y-66848333D02*
X117071428Y-66848333D01*
X117071428Y-66848333D02*
X117166666Y-66895952D01*
X117166666Y-66895952D02*
X117214285Y-66943571D01*
X117214285Y-66943571D02*
X117261904Y-67038809D01*
X117261904Y-67038809D02*
X117261904Y-67276904D01*
X117261904Y-67276904D02*
X117214285Y-67372142D01*
X117214285Y-67372142D02*
X117166666Y-67419761D01*
X117166666Y-67419761D02*
X117071428Y-67467380D01*
X117071428Y-67467380D02*
X116833333Y-67467380D01*
X116833333Y-67467380D02*
X116738095Y-67419761D01*
X116738095Y-67419761D02*
X116690476Y-67372142D01*
%TO.C,R16*%
X115357142Y-64067380D02*
X115023809Y-63591190D01*
X114785714Y-64067380D02*
X114785714Y-63067380D01*
X114785714Y-63067380D02*
X115166666Y-63067380D01*
X115166666Y-63067380D02*
X115261904Y-63115000D01*
X115261904Y-63115000D02*
X115309523Y-63162619D01*
X115309523Y-63162619D02*
X115357142Y-63257857D01*
X115357142Y-63257857D02*
X115357142Y-63400714D01*
X115357142Y-63400714D02*
X115309523Y-63495952D01*
X115309523Y-63495952D02*
X115261904Y-63543571D01*
X115261904Y-63543571D02*
X115166666Y-63591190D01*
X115166666Y-63591190D02*
X114785714Y-63591190D01*
X116309523Y-64067380D02*
X115738095Y-64067380D01*
X116023809Y-64067380D02*
X116023809Y-63067380D01*
X116023809Y-63067380D02*
X115928571Y-63210238D01*
X115928571Y-63210238D02*
X115833333Y-63305476D01*
X115833333Y-63305476D02*
X115738095Y-63353095D01*
X117166666Y-63067380D02*
X116976190Y-63067380D01*
X116976190Y-63067380D02*
X116880952Y-63115000D01*
X116880952Y-63115000D02*
X116833333Y-63162619D01*
X116833333Y-63162619D02*
X116738095Y-63305476D01*
X116738095Y-63305476D02*
X116690476Y-63495952D01*
X116690476Y-63495952D02*
X116690476Y-63876904D01*
X116690476Y-63876904D02*
X116738095Y-63972142D01*
X116738095Y-63972142D02*
X116785714Y-64019761D01*
X116785714Y-64019761D02*
X116880952Y-64067380D01*
X116880952Y-64067380D02*
X117071428Y-64067380D01*
X117071428Y-64067380D02*
X117166666Y-64019761D01*
X117166666Y-64019761D02*
X117214285Y-63972142D01*
X117214285Y-63972142D02*
X117261904Y-63876904D01*
X117261904Y-63876904D02*
X117261904Y-63638809D01*
X117261904Y-63638809D02*
X117214285Y-63543571D01*
X117214285Y-63543571D02*
X117166666Y-63495952D01*
X117166666Y-63495952D02*
X117071428Y-63448333D01*
X117071428Y-63448333D02*
X116880952Y-63448333D01*
X116880952Y-63448333D02*
X116785714Y-63495952D01*
X116785714Y-63495952D02*
X116738095Y-63543571D01*
X116738095Y-63543571D02*
X116690476Y-63638809D01*
%TO.C,U1*%
X110238095Y-87367380D02*
X110238095Y-88176904D01*
X110238095Y-88176904D02*
X110285714Y-88272142D01*
X110285714Y-88272142D02*
X110333333Y-88319761D01*
X110333333Y-88319761D02*
X110428571Y-88367380D01*
X110428571Y-88367380D02*
X110619047Y-88367380D01*
X110619047Y-88367380D02*
X110714285Y-88319761D01*
X110714285Y-88319761D02*
X110761904Y-88272142D01*
X110761904Y-88272142D02*
X110809523Y-88176904D01*
X110809523Y-88176904D02*
X110809523Y-87367380D01*
X111809523Y-88367380D02*
X111238095Y-88367380D01*
X111523809Y-88367380D02*
X111523809Y-87367380D01*
X111523809Y-87367380D02*
X111428571Y-87510238D01*
X111428571Y-87510238D02*
X111333333Y-87605476D01*
X111333333Y-87605476D02*
X111238095Y-87653095D01*
%TO.C,U2*%
X110238095Y-82367380D02*
X110238095Y-83176904D01*
X110238095Y-83176904D02*
X110285714Y-83272142D01*
X110285714Y-83272142D02*
X110333333Y-83319761D01*
X110333333Y-83319761D02*
X110428571Y-83367380D01*
X110428571Y-83367380D02*
X110619047Y-83367380D01*
X110619047Y-83367380D02*
X110714285Y-83319761D01*
X110714285Y-83319761D02*
X110761904Y-83272142D01*
X110761904Y-83272142D02*
X110809523Y-83176904D01*
X110809523Y-83176904D02*
X110809523Y-82367380D01*
X111238095Y-82462619D02*
X111285714Y-82415000D01*
X111285714Y-82415000D02*
X111380952Y-82367380D01*
X111380952Y-82367380D02*
X111619047Y-82367380D01*
X111619047Y-82367380D02*
X111714285Y-82415000D01*
X111714285Y-82415000D02*
X111761904Y-82462619D01*
X111761904Y-82462619D02*
X111809523Y-82557857D01*
X111809523Y-82557857D02*
X111809523Y-82653095D01*
X111809523Y-82653095D02*
X111761904Y-82795952D01*
X111761904Y-82795952D02*
X111190476Y-83367380D01*
X111190476Y-83367380D02*
X111809523Y-83367380D01*
%TO.C,U3*%
X110238095Y-75367380D02*
X110238095Y-76176904D01*
X110238095Y-76176904D02*
X110285714Y-76272142D01*
X110285714Y-76272142D02*
X110333333Y-76319761D01*
X110333333Y-76319761D02*
X110428571Y-76367380D01*
X110428571Y-76367380D02*
X110619047Y-76367380D01*
X110619047Y-76367380D02*
X110714285Y-76319761D01*
X110714285Y-76319761D02*
X110761904Y-76272142D01*
X110761904Y-76272142D02*
X110809523Y-76176904D01*
X110809523Y-76176904D02*
X110809523Y-75367380D01*
X111190476Y-75367380D02*
X111809523Y-75367380D01*
X111809523Y-75367380D02*
X111476190Y-75748333D01*
X111476190Y-75748333D02*
X111619047Y-75748333D01*
X111619047Y-75748333D02*
X111714285Y-75795952D01*
X111714285Y-75795952D02*
X111761904Y-75843571D01*
X111761904Y-75843571D02*
X111809523Y-75938809D01*
X111809523Y-75938809D02*
X111809523Y-76176904D01*
X111809523Y-76176904D02*
X111761904Y-76272142D01*
X111761904Y-76272142D02*
X111714285Y-76319761D01*
X111714285Y-76319761D02*
X111619047Y-76367380D01*
X111619047Y-76367380D02*
X111333333Y-76367380D01*
X111333333Y-76367380D02*
X111238095Y-76319761D01*
X111238095Y-76319761D02*
X111190476Y-76272142D01*
%TO.C,U4*%
X110238095Y-70367380D02*
X110238095Y-71176904D01*
X110238095Y-71176904D02*
X110285714Y-71272142D01*
X110285714Y-71272142D02*
X110333333Y-71319761D01*
X110333333Y-71319761D02*
X110428571Y-71367380D01*
X110428571Y-71367380D02*
X110619047Y-71367380D01*
X110619047Y-71367380D02*
X110714285Y-71319761D01*
X110714285Y-71319761D02*
X110761904Y-71272142D01*
X110761904Y-71272142D02*
X110809523Y-71176904D01*
X110809523Y-71176904D02*
X110809523Y-70367380D01*
X111714285Y-70700714D02*
X111714285Y-71367380D01*
X111476190Y-70319761D02*
X111238095Y-71034047D01*
X111238095Y-71034047D02*
X111857142Y-71034047D01*
%TO.C,U5*%
X110238095Y-66367380D02*
X110238095Y-67176904D01*
X110238095Y-67176904D02*
X110285714Y-67272142D01*
X110285714Y-67272142D02*
X110333333Y-67319761D01*
X110333333Y-67319761D02*
X110428571Y-67367380D01*
X110428571Y-67367380D02*
X110619047Y-67367380D01*
X110619047Y-67367380D02*
X110714285Y-67319761D01*
X110714285Y-67319761D02*
X110761904Y-67272142D01*
X110761904Y-67272142D02*
X110809523Y-67176904D01*
X110809523Y-67176904D02*
X110809523Y-66367380D01*
X111761904Y-66367380D02*
X111285714Y-66367380D01*
X111285714Y-66367380D02*
X111238095Y-66843571D01*
X111238095Y-66843571D02*
X111285714Y-66795952D01*
X111285714Y-66795952D02*
X111380952Y-66748333D01*
X111380952Y-66748333D02*
X111619047Y-66748333D01*
X111619047Y-66748333D02*
X111714285Y-66795952D01*
X111714285Y-66795952D02*
X111761904Y-66843571D01*
X111761904Y-66843571D02*
X111809523Y-66938809D01*
X111809523Y-66938809D02*
X111809523Y-67176904D01*
X111809523Y-67176904D02*
X111761904Y-67272142D01*
X111761904Y-67272142D02*
X111714285Y-67319761D01*
X111714285Y-67319761D02*
X111619047Y-67367380D01*
X111619047Y-67367380D02*
X111380952Y-67367380D01*
X111380952Y-67367380D02*
X111285714Y-67319761D01*
X111285714Y-67319761D02*
X111238095Y-67272142D01*
%TO.C,U6*%
X110238095Y-62367380D02*
X110238095Y-63176904D01*
X110238095Y-63176904D02*
X110285714Y-63272142D01*
X110285714Y-63272142D02*
X110333333Y-63319761D01*
X110333333Y-63319761D02*
X110428571Y-63367380D01*
X110428571Y-63367380D02*
X110619047Y-63367380D01*
X110619047Y-63367380D02*
X110714285Y-63319761D01*
X110714285Y-63319761D02*
X110761904Y-63272142D01*
X110761904Y-63272142D02*
X110809523Y-63176904D01*
X110809523Y-63176904D02*
X110809523Y-62367380D01*
X111714285Y-62367380D02*
X111523809Y-62367380D01*
X111523809Y-62367380D02*
X111428571Y-62415000D01*
X111428571Y-62415000D02*
X111380952Y-62462619D01*
X111380952Y-62462619D02*
X111285714Y-62605476D01*
X111285714Y-62605476D02*
X111238095Y-62795952D01*
X111238095Y-62795952D02*
X111238095Y-63176904D01*
X111238095Y-63176904D02*
X111285714Y-63272142D01*
X111285714Y-63272142D02*
X111333333Y-63319761D01*
X111333333Y-63319761D02*
X111428571Y-63367380D01*
X111428571Y-63367380D02*
X111619047Y-63367380D01*
X111619047Y-63367380D02*
X111714285Y-63319761D01*
X111714285Y-63319761D02*
X111761904Y-63272142D01*
X111761904Y-63272142D02*
X111809523Y-63176904D01*
X111809523Y-63176904D02*
X111809523Y-62938809D01*
X111809523Y-62938809D02*
X111761904Y-62843571D01*
X111761904Y-62843571D02*
X111714285Y-62795952D01*
X111714285Y-62795952D02*
X111619047Y-62748333D01*
X111619047Y-62748333D02*
X111428571Y-62748333D01*
X111428571Y-62748333D02*
X111333333Y-62795952D01*
X111333333Y-62795952D02*
X111285714Y-62843571D01*
X111285714Y-62843571D02*
X111238095Y-62938809D01*
%TO.C,U7*%
X124838095Y-69567380D02*
X124838095Y-70376904D01*
X124838095Y-70376904D02*
X124885714Y-70472142D01*
X124885714Y-70472142D02*
X124933333Y-70519761D01*
X124933333Y-70519761D02*
X125028571Y-70567380D01*
X125028571Y-70567380D02*
X125219047Y-70567380D01*
X125219047Y-70567380D02*
X125314285Y-70519761D01*
X125314285Y-70519761D02*
X125361904Y-70472142D01*
X125361904Y-70472142D02*
X125409523Y-70376904D01*
X125409523Y-70376904D02*
X125409523Y-69567380D01*
X125790476Y-69567380D02*
X126457142Y-69567380D01*
X126457142Y-69567380D02*
X126028571Y-70567380D01*
%TO.C,J2*%
X146566666Y-89267380D02*
X146566666Y-89981666D01*
X146566666Y-89981666D02*
X146519047Y-90124523D01*
X146519047Y-90124523D02*
X146423809Y-90219761D01*
X146423809Y-90219761D02*
X146280952Y-90267380D01*
X146280952Y-90267380D02*
X146185714Y-90267380D01*
X146995238Y-89362619D02*
X147042857Y-89315000D01*
X147042857Y-89315000D02*
X147138095Y-89267380D01*
X147138095Y-89267380D02*
X147376190Y-89267380D01*
X147376190Y-89267380D02*
X147471428Y-89315000D01*
X147471428Y-89315000D02*
X147519047Y-89362619D01*
X147519047Y-89362619D02*
X147566666Y-89457857D01*
X147566666Y-89457857D02*
X147566666Y-89553095D01*
X147566666Y-89553095D02*
X147519047Y-89695952D01*
X147519047Y-89695952D02*
X146947619Y-90267380D01*
X146947619Y-90267380D02*
X147566666Y-90267380D01*
%TO.C,C33*%
X111357142Y-59172142D02*
X111309523Y-59219761D01*
X111309523Y-59219761D02*
X111166666Y-59267380D01*
X111166666Y-59267380D02*
X111071428Y-59267380D01*
X111071428Y-59267380D02*
X110928571Y-59219761D01*
X110928571Y-59219761D02*
X110833333Y-59124523D01*
X110833333Y-59124523D02*
X110785714Y-59029285D01*
X110785714Y-59029285D02*
X110738095Y-58838809D01*
X110738095Y-58838809D02*
X110738095Y-58695952D01*
X110738095Y-58695952D02*
X110785714Y-58505476D01*
X110785714Y-58505476D02*
X110833333Y-58410238D01*
X110833333Y-58410238D02*
X110928571Y-58315000D01*
X110928571Y-58315000D02*
X111071428Y-58267380D01*
X111071428Y-58267380D02*
X111166666Y-58267380D01*
X111166666Y-58267380D02*
X111309523Y-58315000D01*
X111309523Y-58315000D02*
X111357142Y-58362619D01*
X111690476Y-58267380D02*
X112309523Y-58267380D01*
X112309523Y-58267380D02*
X111976190Y-58648333D01*
X111976190Y-58648333D02*
X112119047Y-58648333D01*
X112119047Y-58648333D02*
X112214285Y-58695952D01*
X112214285Y-58695952D02*
X112261904Y-58743571D01*
X112261904Y-58743571D02*
X112309523Y-58838809D01*
X112309523Y-58838809D02*
X112309523Y-59076904D01*
X112309523Y-59076904D02*
X112261904Y-59172142D01*
X112261904Y-59172142D02*
X112214285Y-59219761D01*
X112214285Y-59219761D02*
X112119047Y-59267380D01*
X112119047Y-59267380D02*
X111833333Y-59267380D01*
X111833333Y-59267380D02*
X111738095Y-59219761D01*
X111738095Y-59219761D02*
X111690476Y-59172142D01*
X112642857Y-58267380D02*
X113261904Y-58267380D01*
X113261904Y-58267380D02*
X112928571Y-58648333D01*
X112928571Y-58648333D02*
X113071428Y-58648333D01*
X113071428Y-58648333D02*
X113166666Y-58695952D01*
X113166666Y-58695952D02*
X113214285Y-58743571D01*
X113214285Y-58743571D02*
X113261904Y-58838809D01*
X113261904Y-58838809D02*
X113261904Y-59076904D01*
X113261904Y-59076904D02*
X113214285Y-59172142D01*
X113214285Y-59172142D02*
X113166666Y-59219761D01*
X113166666Y-59219761D02*
X113071428Y-59267380D01*
X113071428Y-59267380D02*
X112785714Y-59267380D01*
X112785714Y-59267380D02*
X112690476Y-59219761D01*
X112690476Y-59219761D02*
X112642857Y-59172142D01*
%TO.C,C34*%
X122357142Y-90972142D02*
X122309523Y-91019761D01*
X122309523Y-91019761D02*
X122166666Y-91067380D01*
X122166666Y-91067380D02*
X122071428Y-91067380D01*
X122071428Y-91067380D02*
X121928571Y-91019761D01*
X121928571Y-91019761D02*
X121833333Y-90924523D01*
X121833333Y-90924523D02*
X121785714Y-90829285D01*
X121785714Y-90829285D02*
X121738095Y-90638809D01*
X121738095Y-90638809D02*
X121738095Y-90495952D01*
X121738095Y-90495952D02*
X121785714Y-90305476D01*
X121785714Y-90305476D02*
X121833333Y-90210238D01*
X121833333Y-90210238D02*
X121928571Y-90115000D01*
X121928571Y-90115000D02*
X122071428Y-90067380D01*
X122071428Y-90067380D02*
X122166666Y-90067380D01*
X122166666Y-90067380D02*
X122309523Y-90115000D01*
X122309523Y-90115000D02*
X122357142Y-90162619D01*
X122690476Y-90067380D02*
X123309523Y-90067380D01*
X123309523Y-90067380D02*
X122976190Y-90448333D01*
X122976190Y-90448333D02*
X123119047Y-90448333D01*
X123119047Y-90448333D02*
X123214285Y-90495952D01*
X123214285Y-90495952D02*
X123261904Y-90543571D01*
X123261904Y-90543571D02*
X123309523Y-90638809D01*
X123309523Y-90638809D02*
X123309523Y-90876904D01*
X123309523Y-90876904D02*
X123261904Y-90972142D01*
X123261904Y-90972142D02*
X123214285Y-91019761D01*
X123214285Y-91019761D02*
X123119047Y-91067380D01*
X123119047Y-91067380D02*
X122833333Y-91067380D01*
X122833333Y-91067380D02*
X122738095Y-91019761D01*
X122738095Y-91019761D02*
X122690476Y-90972142D01*
X124166666Y-90400714D02*
X124166666Y-91067380D01*
X123928571Y-90019761D02*
X123690476Y-90734047D01*
X123690476Y-90734047D02*
X124309523Y-90734047D01*
%TO.C,R22*%
X111357142Y-60942380D02*
X111023809Y-60466190D01*
X110785714Y-60942380D02*
X110785714Y-59942380D01*
X110785714Y-59942380D02*
X111166666Y-59942380D01*
X111166666Y-59942380D02*
X111261904Y-59990000D01*
X111261904Y-59990000D02*
X111309523Y-60037619D01*
X111309523Y-60037619D02*
X111357142Y-60132857D01*
X111357142Y-60132857D02*
X111357142Y-60275714D01*
X111357142Y-60275714D02*
X111309523Y-60370952D01*
X111309523Y-60370952D02*
X111261904Y-60418571D01*
X111261904Y-60418571D02*
X111166666Y-60466190D01*
X111166666Y-60466190D02*
X110785714Y-60466190D01*
X111738095Y-60037619D02*
X111785714Y-59990000D01*
X111785714Y-59990000D02*
X111880952Y-59942380D01*
X111880952Y-59942380D02*
X112119047Y-59942380D01*
X112119047Y-59942380D02*
X112214285Y-59990000D01*
X112214285Y-59990000D02*
X112261904Y-60037619D01*
X112261904Y-60037619D02*
X112309523Y-60132857D01*
X112309523Y-60132857D02*
X112309523Y-60228095D01*
X112309523Y-60228095D02*
X112261904Y-60370952D01*
X112261904Y-60370952D02*
X111690476Y-60942380D01*
X111690476Y-60942380D02*
X112309523Y-60942380D01*
X112690476Y-60037619D02*
X112738095Y-59990000D01*
X112738095Y-59990000D02*
X112833333Y-59942380D01*
X112833333Y-59942380D02*
X113071428Y-59942380D01*
X113071428Y-59942380D02*
X113166666Y-59990000D01*
X113166666Y-59990000D02*
X113214285Y-60037619D01*
X113214285Y-60037619D02*
X113261904Y-60132857D01*
X113261904Y-60132857D02*
X113261904Y-60228095D01*
X113261904Y-60228095D02*
X113214285Y-60370952D01*
X113214285Y-60370952D02*
X112642857Y-60942380D01*
X112642857Y-60942380D02*
X113261904Y-60942380D01*
%TO.C,R23*%
X122357142Y-92767380D02*
X122023809Y-92291190D01*
X121785714Y-92767380D02*
X121785714Y-91767380D01*
X121785714Y-91767380D02*
X122166666Y-91767380D01*
X122166666Y-91767380D02*
X122261904Y-91815000D01*
X122261904Y-91815000D02*
X122309523Y-91862619D01*
X122309523Y-91862619D02*
X122357142Y-91957857D01*
X122357142Y-91957857D02*
X122357142Y-92100714D01*
X122357142Y-92100714D02*
X122309523Y-92195952D01*
X122309523Y-92195952D02*
X122261904Y-92243571D01*
X122261904Y-92243571D02*
X122166666Y-92291190D01*
X122166666Y-92291190D02*
X121785714Y-92291190D01*
X122738095Y-91862619D02*
X122785714Y-91815000D01*
X122785714Y-91815000D02*
X122880952Y-91767380D01*
X122880952Y-91767380D02*
X123119047Y-91767380D01*
X123119047Y-91767380D02*
X123214285Y-91815000D01*
X123214285Y-91815000D02*
X123261904Y-91862619D01*
X123261904Y-91862619D02*
X123309523Y-91957857D01*
X123309523Y-91957857D02*
X123309523Y-92053095D01*
X123309523Y-92053095D02*
X123261904Y-92195952D01*
X123261904Y-92195952D02*
X122690476Y-92767380D01*
X122690476Y-92767380D02*
X123309523Y-92767380D01*
X123642857Y-91767380D02*
X124261904Y-91767380D01*
X124261904Y-91767380D02*
X123928571Y-92148333D01*
X123928571Y-92148333D02*
X124071428Y-92148333D01*
X124071428Y-92148333D02*
X124166666Y-92195952D01*
X124166666Y-92195952D02*
X124214285Y-92243571D01*
X124214285Y-92243571D02*
X124261904Y-92338809D01*
X124261904Y-92338809D02*
X124261904Y-92576904D01*
X124261904Y-92576904D02*
X124214285Y-92672142D01*
X124214285Y-92672142D02*
X124166666Y-92719761D01*
X124166666Y-92719761D02*
X124071428Y-92767380D01*
X124071428Y-92767380D02*
X123785714Y-92767380D01*
X123785714Y-92767380D02*
X123690476Y-92719761D01*
X123690476Y-92719761D02*
X123642857Y-92672142D01*
%TO.C,R24*%
X121182142Y-60967380D02*
X120848809Y-60491190D01*
X120610714Y-60967380D02*
X120610714Y-59967380D01*
X120610714Y-59967380D02*
X120991666Y-59967380D01*
X120991666Y-59967380D02*
X121086904Y-60015000D01*
X121086904Y-60015000D02*
X121134523Y-60062619D01*
X121134523Y-60062619D02*
X121182142Y-60157857D01*
X121182142Y-60157857D02*
X121182142Y-60300714D01*
X121182142Y-60300714D02*
X121134523Y-60395952D01*
X121134523Y-60395952D02*
X121086904Y-60443571D01*
X121086904Y-60443571D02*
X120991666Y-60491190D01*
X120991666Y-60491190D02*
X120610714Y-60491190D01*
X121563095Y-60062619D02*
X121610714Y-60015000D01*
X121610714Y-60015000D02*
X121705952Y-59967380D01*
X121705952Y-59967380D02*
X121944047Y-59967380D01*
X121944047Y-59967380D02*
X122039285Y-60015000D01*
X122039285Y-60015000D02*
X122086904Y-60062619D01*
X122086904Y-60062619D02*
X122134523Y-60157857D01*
X122134523Y-60157857D02*
X122134523Y-60253095D01*
X122134523Y-60253095D02*
X122086904Y-60395952D01*
X122086904Y-60395952D02*
X121515476Y-60967380D01*
X121515476Y-60967380D02*
X122134523Y-60967380D01*
X122991666Y-60300714D02*
X122991666Y-60967380D01*
X122753571Y-59919761D02*
X122515476Y-60634047D01*
X122515476Y-60634047D02*
X123134523Y-60634047D01*
%TO.C,J3*%
X109386666Y-56577380D02*
X109386666Y-57291666D01*
X109386666Y-57291666D02*
X109339047Y-57434523D01*
X109339047Y-57434523D02*
X109243809Y-57529761D01*
X109243809Y-57529761D02*
X109100952Y-57577380D01*
X109100952Y-57577380D02*
X109005714Y-57577380D01*
X109767619Y-56577380D02*
X110386666Y-56577380D01*
X110386666Y-56577380D02*
X110053333Y-56958333D01*
X110053333Y-56958333D02*
X110196190Y-56958333D01*
X110196190Y-56958333D02*
X110291428Y-57005952D01*
X110291428Y-57005952D02*
X110339047Y-57053571D01*
X110339047Y-57053571D02*
X110386666Y-57148809D01*
X110386666Y-57148809D02*
X110386666Y-57386904D01*
X110386666Y-57386904D02*
X110339047Y-57482142D01*
X110339047Y-57482142D02*
X110291428Y-57529761D01*
X110291428Y-57529761D02*
X110196190Y-57577380D01*
X110196190Y-57577380D02*
X109910476Y-57577380D01*
X109910476Y-57577380D02*
X109815238Y-57529761D01*
X109815238Y-57529761D02*
X109767619Y-57482142D01*
%TO.C,J4*%
X113896666Y-92167380D02*
X113896666Y-92881666D01*
X113896666Y-92881666D02*
X113849047Y-93024523D01*
X113849047Y-93024523D02*
X113753809Y-93119761D01*
X113753809Y-93119761D02*
X113610952Y-93167380D01*
X113610952Y-93167380D02*
X113515714Y-93167380D01*
X114801428Y-92500714D02*
X114801428Y-93167380D01*
X114563333Y-92119761D02*
X114325238Y-92834047D01*
X114325238Y-92834047D02*
X114944285Y-92834047D01*
%TO.C,R25*%
X141497142Y-69427380D02*
X141163809Y-68951190D01*
X140925714Y-69427380D02*
X140925714Y-68427380D01*
X140925714Y-68427380D02*
X141306666Y-68427380D01*
X141306666Y-68427380D02*
X141401904Y-68475000D01*
X141401904Y-68475000D02*
X141449523Y-68522619D01*
X141449523Y-68522619D02*
X141497142Y-68617857D01*
X141497142Y-68617857D02*
X141497142Y-68760714D01*
X141497142Y-68760714D02*
X141449523Y-68855952D01*
X141449523Y-68855952D02*
X141401904Y-68903571D01*
X141401904Y-68903571D02*
X141306666Y-68951190D01*
X141306666Y-68951190D02*
X140925714Y-68951190D01*
X141878095Y-68522619D02*
X141925714Y-68475000D01*
X141925714Y-68475000D02*
X142020952Y-68427380D01*
X142020952Y-68427380D02*
X142259047Y-68427380D01*
X142259047Y-68427380D02*
X142354285Y-68475000D01*
X142354285Y-68475000D02*
X142401904Y-68522619D01*
X142401904Y-68522619D02*
X142449523Y-68617857D01*
X142449523Y-68617857D02*
X142449523Y-68713095D01*
X142449523Y-68713095D02*
X142401904Y-68855952D01*
X142401904Y-68855952D02*
X141830476Y-69427380D01*
X141830476Y-69427380D02*
X142449523Y-69427380D01*
X143354285Y-68427380D02*
X142878095Y-68427380D01*
X142878095Y-68427380D02*
X142830476Y-68903571D01*
X142830476Y-68903571D02*
X142878095Y-68855952D01*
X142878095Y-68855952D02*
X142973333Y-68808333D01*
X142973333Y-68808333D02*
X143211428Y-68808333D01*
X143211428Y-68808333D02*
X143306666Y-68855952D01*
X143306666Y-68855952D02*
X143354285Y-68903571D01*
X143354285Y-68903571D02*
X143401904Y-68998809D01*
X143401904Y-68998809D02*
X143401904Y-69236904D01*
X143401904Y-69236904D02*
X143354285Y-69332142D01*
X143354285Y-69332142D02*
X143306666Y-69379761D01*
X143306666Y-69379761D02*
X143211428Y-69427380D01*
X143211428Y-69427380D02*
X142973333Y-69427380D01*
X142973333Y-69427380D02*
X142878095Y-69379761D01*
X142878095Y-69379761D02*
X142830476Y-69332142D01*
%TO.C,J5*%
X128616666Y-84777380D02*
X128616666Y-85491666D01*
X128616666Y-85491666D02*
X128569047Y-85634523D01*
X128569047Y-85634523D02*
X128473809Y-85729761D01*
X128473809Y-85729761D02*
X128330952Y-85777380D01*
X128330952Y-85777380D02*
X128235714Y-85777380D01*
X129569047Y-84777380D02*
X129092857Y-84777380D01*
X129092857Y-84777380D02*
X129045238Y-85253571D01*
X129045238Y-85253571D02*
X129092857Y-85205952D01*
X129092857Y-85205952D02*
X129188095Y-85158333D01*
X129188095Y-85158333D02*
X129426190Y-85158333D01*
X129426190Y-85158333D02*
X129521428Y-85205952D01*
X129521428Y-85205952D02*
X129569047Y-85253571D01*
X129569047Y-85253571D02*
X129616666Y-85348809D01*
X129616666Y-85348809D02*
X129616666Y-85586904D01*
X129616666Y-85586904D02*
X129569047Y-85682142D01*
X129569047Y-85682142D02*
X129521428Y-85729761D01*
X129521428Y-85729761D02*
X129426190Y-85777380D01*
X129426190Y-85777380D02*
X129188095Y-85777380D01*
X129188095Y-85777380D02*
X129092857Y-85729761D01*
X129092857Y-85729761D02*
X129045238Y-85682142D01*
%TO.C,J6*%
X125026666Y-89067380D02*
X125026666Y-89781666D01*
X125026666Y-89781666D02*
X124979047Y-89924523D01*
X124979047Y-89924523D02*
X124883809Y-90019761D01*
X124883809Y-90019761D02*
X124740952Y-90067380D01*
X124740952Y-90067380D02*
X124645714Y-90067380D01*
X125931428Y-89067380D02*
X125740952Y-89067380D01*
X125740952Y-89067380D02*
X125645714Y-89115000D01*
X125645714Y-89115000D02*
X125598095Y-89162619D01*
X125598095Y-89162619D02*
X125502857Y-89305476D01*
X125502857Y-89305476D02*
X125455238Y-89495952D01*
X125455238Y-89495952D02*
X125455238Y-89876904D01*
X125455238Y-89876904D02*
X125502857Y-89972142D01*
X125502857Y-89972142D02*
X125550476Y-90019761D01*
X125550476Y-90019761D02*
X125645714Y-90067380D01*
X125645714Y-90067380D02*
X125836190Y-90067380D01*
X125836190Y-90067380D02*
X125931428Y-90019761D01*
X125931428Y-90019761D02*
X125979047Y-89972142D01*
X125979047Y-89972142D02*
X126026666Y-89876904D01*
X126026666Y-89876904D02*
X126026666Y-89638809D01*
X126026666Y-89638809D02*
X125979047Y-89543571D01*
X125979047Y-89543571D02*
X125931428Y-89495952D01*
X125931428Y-89495952D02*
X125836190Y-89448333D01*
X125836190Y-89448333D02*
X125645714Y-89448333D01*
X125645714Y-89448333D02*
X125550476Y-89495952D01*
X125550476Y-89495952D02*
X125502857Y-89543571D01*
X125502857Y-89543571D02*
X125455238Y-89638809D01*
%TO.C,J7*%
X124866666Y-62167380D02*
X124866666Y-62881666D01*
X124866666Y-62881666D02*
X124819047Y-63024523D01*
X124819047Y-63024523D02*
X124723809Y-63119761D01*
X124723809Y-63119761D02*
X124580952Y-63167380D01*
X124580952Y-63167380D02*
X124485714Y-63167380D01*
X125247619Y-62167380D02*
X125914285Y-62167380D01*
X125914285Y-62167380D02*
X125485714Y-63167380D01*
%TO.C,R26*%
X136507142Y-78567380D02*
X136173809Y-78091190D01*
X135935714Y-78567380D02*
X135935714Y-77567380D01*
X135935714Y-77567380D02*
X136316666Y-77567380D01*
X136316666Y-77567380D02*
X136411904Y-77615000D01*
X136411904Y-77615000D02*
X136459523Y-77662619D01*
X136459523Y-77662619D02*
X136507142Y-77757857D01*
X136507142Y-77757857D02*
X136507142Y-77900714D01*
X136507142Y-77900714D02*
X136459523Y-77995952D01*
X136459523Y-77995952D02*
X136411904Y-78043571D01*
X136411904Y-78043571D02*
X136316666Y-78091190D01*
X136316666Y-78091190D02*
X135935714Y-78091190D01*
X136888095Y-77662619D02*
X136935714Y-77615000D01*
X136935714Y-77615000D02*
X137030952Y-77567380D01*
X137030952Y-77567380D02*
X137269047Y-77567380D01*
X137269047Y-77567380D02*
X137364285Y-77615000D01*
X137364285Y-77615000D02*
X137411904Y-77662619D01*
X137411904Y-77662619D02*
X137459523Y-77757857D01*
X137459523Y-77757857D02*
X137459523Y-77853095D01*
X137459523Y-77853095D02*
X137411904Y-77995952D01*
X137411904Y-77995952D02*
X136840476Y-78567380D01*
X136840476Y-78567380D02*
X137459523Y-78567380D01*
X138316666Y-77567380D02*
X138126190Y-77567380D01*
X138126190Y-77567380D02*
X138030952Y-77615000D01*
X138030952Y-77615000D02*
X137983333Y-77662619D01*
X137983333Y-77662619D02*
X137888095Y-77805476D01*
X137888095Y-77805476D02*
X137840476Y-77995952D01*
X137840476Y-77995952D02*
X137840476Y-78376904D01*
X137840476Y-78376904D02*
X137888095Y-78472142D01*
X137888095Y-78472142D02*
X137935714Y-78519761D01*
X137935714Y-78519761D02*
X138030952Y-78567380D01*
X138030952Y-78567380D02*
X138221428Y-78567380D01*
X138221428Y-78567380D02*
X138316666Y-78519761D01*
X138316666Y-78519761D02*
X138364285Y-78472142D01*
X138364285Y-78472142D02*
X138411904Y-78376904D01*
X138411904Y-78376904D02*
X138411904Y-78138809D01*
X138411904Y-78138809D02*
X138364285Y-78043571D01*
X138364285Y-78043571D02*
X138316666Y-77995952D01*
X138316666Y-77995952D02*
X138221428Y-77948333D01*
X138221428Y-77948333D02*
X138030952Y-77948333D01*
X138030952Y-77948333D02*
X137935714Y-77995952D01*
X137935714Y-77995952D02*
X137888095Y-78043571D01*
X137888095Y-78043571D02*
X137840476Y-78138809D01*
%TO.C,R17*%
X139677380Y-75632857D02*
X139201190Y-75966190D01*
X139677380Y-76204285D02*
X138677380Y-76204285D01*
X138677380Y-76204285D02*
X138677380Y-75823333D01*
X138677380Y-75823333D02*
X138725000Y-75728095D01*
X138725000Y-75728095D02*
X138772619Y-75680476D01*
X138772619Y-75680476D02*
X138867857Y-75632857D01*
X138867857Y-75632857D02*
X139010714Y-75632857D01*
X139010714Y-75632857D02*
X139105952Y-75680476D01*
X139105952Y-75680476D02*
X139153571Y-75728095D01*
X139153571Y-75728095D02*
X139201190Y-75823333D01*
X139201190Y-75823333D02*
X139201190Y-76204285D01*
X139677380Y-74680476D02*
X139677380Y-75251904D01*
X139677380Y-74966190D02*
X138677380Y-74966190D01*
X138677380Y-74966190D02*
X138820238Y-75061428D01*
X138820238Y-75061428D02*
X138915476Y-75156666D01*
X138915476Y-75156666D02*
X138963095Y-75251904D01*
X138677380Y-74347142D02*
X138677380Y-73680476D01*
X138677380Y-73680476D02*
X139677380Y-74109047D01*
%TO.C,C9*%
X121258333Y-59172142D02*
X121210714Y-59219761D01*
X121210714Y-59219761D02*
X121067857Y-59267380D01*
X121067857Y-59267380D02*
X120972619Y-59267380D01*
X120972619Y-59267380D02*
X120829762Y-59219761D01*
X120829762Y-59219761D02*
X120734524Y-59124523D01*
X120734524Y-59124523D02*
X120686905Y-59029285D01*
X120686905Y-59029285D02*
X120639286Y-58838809D01*
X120639286Y-58838809D02*
X120639286Y-58695952D01*
X120639286Y-58695952D02*
X120686905Y-58505476D01*
X120686905Y-58505476D02*
X120734524Y-58410238D01*
X120734524Y-58410238D02*
X120829762Y-58315000D01*
X120829762Y-58315000D02*
X120972619Y-58267380D01*
X120972619Y-58267380D02*
X121067857Y-58267380D01*
X121067857Y-58267380D02*
X121210714Y-58315000D01*
X121210714Y-58315000D02*
X121258333Y-58362619D01*
X121734524Y-59267380D02*
X121925000Y-59267380D01*
X121925000Y-59267380D02*
X122020238Y-59219761D01*
X122020238Y-59219761D02*
X122067857Y-59172142D01*
X122067857Y-59172142D02*
X122163095Y-59029285D01*
X122163095Y-59029285D02*
X122210714Y-58838809D01*
X122210714Y-58838809D02*
X122210714Y-58457857D01*
X122210714Y-58457857D02*
X122163095Y-58362619D01*
X122163095Y-58362619D02*
X122115476Y-58315000D01*
X122115476Y-58315000D02*
X122020238Y-58267380D01*
X122020238Y-58267380D02*
X121829762Y-58267380D01*
X121829762Y-58267380D02*
X121734524Y-58315000D01*
X121734524Y-58315000D02*
X121686905Y-58362619D01*
X121686905Y-58362619D02*
X121639286Y-58457857D01*
X121639286Y-58457857D02*
X121639286Y-58695952D01*
X121639286Y-58695952D02*
X121686905Y-58791190D01*
X121686905Y-58791190D02*
X121734524Y-58838809D01*
X121734524Y-58838809D02*
X121829762Y-58886428D01*
X121829762Y-58886428D02*
X122020238Y-58886428D01*
X122020238Y-58886428D02*
X122115476Y-58838809D01*
X122115476Y-58838809D02*
X122163095Y-58791190D01*
X122163095Y-58791190D02*
X122210714Y-58695952D01*
%TO.C,R29*%
X143182142Y-67217380D02*
X142848809Y-66741190D01*
X142610714Y-67217380D02*
X142610714Y-66217380D01*
X142610714Y-66217380D02*
X142991666Y-66217380D01*
X142991666Y-66217380D02*
X143086904Y-66265000D01*
X143086904Y-66265000D02*
X143134523Y-66312619D01*
X143134523Y-66312619D02*
X143182142Y-66407857D01*
X143182142Y-66407857D02*
X143182142Y-66550714D01*
X143182142Y-66550714D02*
X143134523Y-66645952D01*
X143134523Y-66645952D02*
X143086904Y-66693571D01*
X143086904Y-66693571D02*
X142991666Y-66741190D01*
X142991666Y-66741190D02*
X142610714Y-66741190D01*
X143563095Y-66312619D02*
X143610714Y-66265000D01*
X143610714Y-66265000D02*
X143705952Y-66217380D01*
X143705952Y-66217380D02*
X143944047Y-66217380D01*
X143944047Y-66217380D02*
X144039285Y-66265000D01*
X144039285Y-66265000D02*
X144086904Y-66312619D01*
X144086904Y-66312619D02*
X144134523Y-66407857D01*
X144134523Y-66407857D02*
X144134523Y-66503095D01*
X144134523Y-66503095D02*
X144086904Y-66645952D01*
X144086904Y-66645952D02*
X143515476Y-67217380D01*
X143515476Y-67217380D02*
X144134523Y-67217380D01*
X144610714Y-67217380D02*
X144801190Y-67217380D01*
X144801190Y-67217380D02*
X144896428Y-67169761D01*
X144896428Y-67169761D02*
X144944047Y-67122142D01*
X144944047Y-67122142D02*
X145039285Y-66979285D01*
X145039285Y-66979285D02*
X145086904Y-66788809D01*
X145086904Y-66788809D02*
X145086904Y-66407857D01*
X145086904Y-66407857D02*
X145039285Y-66312619D01*
X145039285Y-66312619D02*
X144991666Y-66265000D01*
X144991666Y-66265000D02*
X144896428Y-66217380D01*
X144896428Y-66217380D02*
X144705952Y-66217380D01*
X144705952Y-66217380D02*
X144610714Y-66265000D01*
X144610714Y-66265000D02*
X144563095Y-66312619D01*
X144563095Y-66312619D02*
X144515476Y-66407857D01*
X144515476Y-66407857D02*
X144515476Y-66645952D01*
X144515476Y-66645952D02*
X144563095Y-66741190D01*
X144563095Y-66741190D02*
X144610714Y-66788809D01*
X144610714Y-66788809D02*
X144705952Y-66836428D01*
X144705952Y-66836428D02*
X144896428Y-66836428D01*
X144896428Y-66836428D02*
X144991666Y-66788809D01*
X144991666Y-66788809D02*
X145039285Y-66741190D01*
X145039285Y-66741190D02*
X145086904Y-66645952D01*
%TO.C,R30*%
X127347142Y-59277380D02*
X127013809Y-58801190D01*
X126775714Y-59277380D02*
X126775714Y-58277380D01*
X126775714Y-58277380D02*
X127156666Y-58277380D01*
X127156666Y-58277380D02*
X127251904Y-58325000D01*
X127251904Y-58325000D02*
X127299523Y-58372619D01*
X127299523Y-58372619D02*
X127347142Y-58467857D01*
X127347142Y-58467857D02*
X127347142Y-58610714D01*
X127347142Y-58610714D02*
X127299523Y-58705952D01*
X127299523Y-58705952D02*
X127251904Y-58753571D01*
X127251904Y-58753571D02*
X127156666Y-58801190D01*
X127156666Y-58801190D02*
X126775714Y-58801190D01*
X127680476Y-58277380D02*
X128299523Y-58277380D01*
X128299523Y-58277380D02*
X127966190Y-58658333D01*
X127966190Y-58658333D02*
X128109047Y-58658333D01*
X128109047Y-58658333D02*
X128204285Y-58705952D01*
X128204285Y-58705952D02*
X128251904Y-58753571D01*
X128251904Y-58753571D02*
X128299523Y-58848809D01*
X128299523Y-58848809D02*
X128299523Y-59086904D01*
X128299523Y-59086904D02*
X128251904Y-59182142D01*
X128251904Y-59182142D02*
X128204285Y-59229761D01*
X128204285Y-59229761D02*
X128109047Y-59277380D01*
X128109047Y-59277380D02*
X127823333Y-59277380D01*
X127823333Y-59277380D02*
X127728095Y-59229761D01*
X127728095Y-59229761D02*
X127680476Y-59182142D01*
X128918571Y-58277380D02*
X129013809Y-58277380D01*
X129013809Y-58277380D02*
X129109047Y-58325000D01*
X129109047Y-58325000D02*
X129156666Y-58372619D01*
X129156666Y-58372619D02*
X129204285Y-58467857D01*
X129204285Y-58467857D02*
X129251904Y-58658333D01*
X129251904Y-58658333D02*
X129251904Y-58896428D01*
X129251904Y-58896428D02*
X129204285Y-59086904D01*
X129204285Y-59086904D02*
X129156666Y-59182142D01*
X129156666Y-59182142D02*
X129109047Y-59229761D01*
X129109047Y-59229761D02*
X129013809Y-59277380D01*
X129013809Y-59277380D02*
X128918571Y-59277380D01*
X128918571Y-59277380D02*
X128823333Y-59229761D01*
X128823333Y-59229761D02*
X128775714Y-59182142D01*
X128775714Y-59182142D02*
X128728095Y-59086904D01*
X128728095Y-59086904D02*
X128680476Y-58896428D01*
X128680476Y-58896428D02*
X128680476Y-58658333D01*
X128680476Y-58658333D02*
X128728095Y-58467857D01*
X128728095Y-58467857D02*
X128775714Y-58372619D01*
X128775714Y-58372619D02*
X128823333Y-58325000D01*
X128823333Y-58325000D02*
X128918571Y-58277380D01*
%TO.C,R28*%
X143182142Y-65317380D02*
X142848809Y-64841190D01*
X142610714Y-65317380D02*
X142610714Y-64317380D01*
X142610714Y-64317380D02*
X142991666Y-64317380D01*
X142991666Y-64317380D02*
X143086904Y-64365000D01*
X143086904Y-64365000D02*
X143134523Y-64412619D01*
X143134523Y-64412619D02*
X143182142Y-64507857D01*
X143182142Y-64507857D02*
X143182142Y-64650714D01*
X143182142Y-64650714D02*
X143134523Y-64745952D01*
X143134523Y-64745952D02*
X143086904Y-64793571D01*
X143086904Y-64793571D02*
X142991666Y-64841190D01*
X142991666Y-64841190D02*
X142610714Y-64841190D01*
X143563095Y-64412619D02*
X143610714Y-64365000D01*
X143610714Y-64365000D02*
X143705952Y-64317380D01*
X143705952Y-64317380D02*
X143944047Y-64317380D01*
X143944047Y-64317380D02*
X144039285Y-64365000D01*
X144039285Y-64365000D02*
X144086904Y-64412619D01*
X144086904Y-64412619D02*
X144134523Y-64507857D01*
X144134523Y-64507857D02*
X144134523Y-64603095D01*
X144134523Y-64603095D02*
X144086904Y-64745952D01*
X144086904Y-64745952D02*
X143515476Y-65317380D01*
X143515476Y-65317380D02*
X144134523Y-65317380D01*
X144705952Y-64745952D02*
X144610714Y-64698333D01*
X144610714Y-64698333D02*
X144563095Y-64650714D01*
X144563095Y-64650714D02*
X144515476Y-64555476D01*
X144515476Y-64555476D02*
X144515476Y-64507857D01*
X144515476Y-64507857D02*
X144563095Y-64412619D01*
X144563095Y-64412619D02*
X144610714Y-64365000D01*
X144610714Y-64365000D02*
X144705952Y-64317380D01*
X144705952Y-64317380D02*
X144896428Y-64317380D01*
X144896428Y-64317380D02*
X144991666Y-64365000D01*
X144991666Y-64365000D02*
X145039285Y-64412619D01*
X145039285Y-64412619D02*
X145086904Y-64507857D01*
X145086904Y-64507857D02*
X145086904Y-64555476D01*
X145086904Y-64555476D02*
X145039285Y-64650714D01*
X145039285Y-64650714D02*
X144991666Y-64698333D01*
X144991666Y-64698333D02*
X144896428Y-64745952D01*
X144896428Y-64745952D02*
X144705952Y-64745952D01*
X144705952Y-64745952D02*
X144610714Y-64793571D01*
X144610714Y-64793571D02*
X144563095Y-64841190D01*
X144563095Y-64841190D02*
X144515476Y-64936428D01*
X144515476Y-64936428D02*
X144515476Y-65126904D01*
X144515476Y-65126904D02*
X144563095Y-65222142D01*
X144563095Y-65222142D02*
X144610714Y-65269761D01*
X144610714Y-65269761D02*
X144705952Y-65317380D01*
X144705952Y-65317380D02*
X144896428Y-65317380D01*
X144896428Y-65317380D02*
X144991666Y-65269761D01*
X144991666Y-65269761D02*
X145039285Y-65222142D01*
X145039285Y-65222142D02*
X145086904Y-65126904D01*
X145086904Y-65126904D02*
X145086904Y-64936428D01*
X145086904Y-64936428D02*
X145039285Y-64841190D01*
X145039285Y-64841190D02*
X144991666Y-64793571D01*
X144991666Y-64793571D02*
X144896428Y-64745952D01*
%TO.C,R27*%
X127307142Y-61097380D02*
X126973809Y-60621190D01*
X126735714Y-61097380D02*
X126735714Y-60097380D01*
X126735714Y-60097380D02*
X127116666Y-60097380D01*
X127116666Y-60097380D02*
X127211904Y-60145000D01*
X127211904Y-60145000D02*
X127259523Y-60192619D01*
X127259523Y-60192619D02*
X127307142Y-60287857D01*
X127307142Y-60287857D02*
X127307142Y-60430714D01*
X127307142Y-60430714D02*
X127259523Y-60525952D01*
X127259523Y-60525952D02*
X127211904Y-60573571D01*
X127211904Y-60573571D02*
X127116666Y-60621190D01*
X127116666Y-60621190D02*
X126735714Y-60621190D01*
X127688095Y-60192619D02*
X127735714Y-60145000D01*
X127735714Y-60145000D02*
X127830952Y-60097380D01*
X127830952Y-60097380D02*
X128069047Y-60097380D01*
X128069047Y-60097380D02*
X128164285Y-60145000D01*
X128164285Y-60145000D02*
X128211904Y-60192619D01*
X128211904Y-60192619D02*
X128259523Y-60287857D01*
X128259523Y-60287857D02*
X128259523Y-60383095D01*
X128259523Y-60383095D02*
X128211904Y-60525952D01*
X128211904Y-60525952D02*
X127640476Y-61097380D01*
X127640476Y-61097380D02*
X128259523Y-61097380D01*
X128592857Y-60097380D02*
X129259523Y-60097380D01*
X129259523Y-60097380D02*
X128830952Y-61097380D01*
D12*
%TO.C,C1*%
X119859420Y-87810000D02*
X120140580Y-87810000D01*
X119859420Y-86790000D02*
X120140580Y-86790000D01*
%TO.C,C2*%
X119859420Y-84410000D02*
X120140580Y-84410000D01*
X119859420Y-83390000D02*
X120140580Y-83390000D01*
%TO.C,C3*%
X119859420Y-80910000D02*
X120140580Y-80910000D01*
X119859420Y-79890000D02*
X120140580Y-79890000D01*
%TO.C,C4*%
X119859420Y-76490000D02*
X120140580Y-76490000D01*
X119859420Y-77510000D02*
X120140580Y-77510000D01*
%TO.C,C5*%
X119859420Y-74110000D02*
X120140580Y-74110000D01*
X119859420Y-73090000D02*
X120140580Y-73090000D01*
%TO.C,C6*%
X119859420Y-70710000D02*
X120140580Y-70710000D01*
X119859420Y-69690000D02*
X120140580Y-69690000D01*
%TO.C,C7*%
X119859420Y-67310000D02*
X120140580Y-67310000D01*
X119859420Y-66290000D02*
X120140580Y-66290000D01*
%TO.C,C8*%
X119859420Y-63910000D02*
X120140580Y-63910000D01*
X119859420Y-62890000D02*
X120140580Y-62890000D01*
%TO.C,C17*%
X130295000Y-80228748D02*
X130295000Y-80751252D01*
X131765000Y-80228748D02*
X131765000Y-80751252D01*
%TO.C,C18*%
X136190000Y-80124420D02*
X136190000Y-80405580D01*
X137210000Y-80124420D02*
X137210000Y-80405580D01*
%TO.C,C19*%
X132099420Y-66700000D02*
X132380580Y-66700000D01*
X132099420Y-65680000D02*
X132380580Y-65680000D01*
%TO.C,C20*%
X132099420Y-67380000D02*
X132380580Y-67380000D01*
X132099420Y-68400000D02*
X132380580Y-68400000D01*
%TO.C,C21*%
X124320000Y-80034420D02*
X124320000Y-80315580D01*
X125340000Y-80034420D02*
X125340000Y-80315580D01*
%TO.C,C22*%
X125895000Y-80138748D02*
X125895000Y-80661252D01*
X127365000Y-80138748D02*
X127365000Y-80661252D01*
%TO.C,C23*%
X127920000Y-80054420D02*
X127920000Y-80335580D01*
X128940000Y-80054420D02*
X128940000Y-80335580D01*
%TO.C,C25*%
X136984420Y-72505000D02*
X137265580Y-72505000D01*
X136984420Y-71485000D02*
X137265580Y-71485000D01*
%TO.C,C26*%
X136989420Y-70705000D02*
X137270580Y-70705000D01*
X136989420Y-69685000D02*
X137270580Y-69685000D01*
%TO.C,C27*%
X135249420Y-68420000D02*
X135530580Y-68420000D01*
X135249420Y-67400000D02*
X135530580Y-67400000D01*
%TO.C,C28*%
X135269420Y-66710000D02*
X135550580Y-66710000D01*
X135269420Y-65690000D02*
X135550580Y-65690000D01*
%TO.C,C29*%
X133040000Y-80124420D02*
X133040000Y-80405580D01*
X134060000Y-80124420D02*
X134060000Y-80405580D01*
%TO.C,C30*%
X134620000Y-80124420D02*
X134620000Y-80405580D01*
X135640000Y-80124420D02*
X135640000Y-80405580D01*
%TO.C,C31*%
X128939420Y-68420000D02*
X129220580Y-68420000D01*
X128939420Y-67400000D02*
X129220580Y-67400000D01*
%TO.C,C32*%
X128929420Y-66690000D02*
X129210580Y-66690000D01*
X128929420Y-65670000D02*
X129210580Y-65670000D01*
%TO.C,J1*%
X99906000Y-63560000D02*
X99906000Y-88960000D01*
X102446000Y-58353000D02*
X107907000Y-58353000D01*
X102446000Y-63560000D02*
X102446000Y-58353000D01*
X102446000Y-88960000D02*
X102446000Y-63560000D01*
X102446000Y-88960000D02*
X102446000Y-91500000D01*
X102530000Y-63560000D02*
X99870000Y-63560000D01*
X102530000Y-66100000D02*
X99870000Y-66100000D01*
X102530000Y-68640000D02*
X99870000Y-68640000D01*
X102530000Y-71180000D02*
X99870000Y-71180000D01*
X102530000Y-73720000D02*
X99870000Y-73720000D01*
X102530000Y-76260000D02*
X99870000Y-76260000D01*
X102530000Y-78800000D02*
X99870000Y-78800000D01*
X102530000Y-81340000D02*
X99870000Y-81340000D01*
X102530000Y-83880000D02*
X99870000Y-83880000D01*
X102530000Y-86420000D02*
X99870000Y-86420000D01*
X102530000Y-88960000D02*
X99870000Y-88960000D01*
X102927071Y-59370000D02*
X102530000Y-59370000D01*
X102927071Y-60130000D02*
X102530000Y-60130000D01*
X102927071Y-61910000D02*
X102530000Y-61910000D01*
X102927071Y-62670000D02*
X102530000Y-62670000D01*
X102927071Y-64450000D02*
X102530000Y-64450000D01*
X102927071Y-65210000D02*
X102530000Y-65210000D01*
X102927071Y-66990000D02*
X102530000Y-66990000D01*
X102927071Y-67750000D02*
X102530000Y-67750000D01*
X102927071Y-69530000D02*
X102530000Y-69530000D01*
X102927071Y-70290000D02*
X102530000Y-70290000D01*
X102927071Y-72070000D02*
X102530000Y-72070000D01*
X102927071Y-72830000D02*
X102530000Y-72830000D01*
X102927071Y-74610000D02*
X102530000Y-74610000D01*
X102927071Y-75370000D02*
X102530000Y-75370000D01*
X102927071Y-77150000D02*
X102530000Y-77150000D01*
X102927071Y-77910000D02*
X102530000Y-77910000D01*
X102927071Y-79690000D02*
X102530000Y-79690000D01*
X102927071Y-80450000D02*
X102530000Y-80450000D01*
X102927071Y-82230000D02*
X102530000Y-82230000D01*
X102927071Y-82990000D02*
X102530000Y-82990000D01*
X102927071Y-84770000D02*
X102530000Y-84770000D01*
X102927071Y-85530000D02*
X102530000Y-85530000D01*
X102927071Y-87310000D02*
X102530000Y-87310000D01*
X102927071Y-88070000D02*
X102530000Y-88070000D01*
X102927071Y-89850000D02*
X102530000Y-89850000D01*
X102927071Y-90610000D02*
X102530000Y-90610000D01*
X105400000Y-89850000D02*
X105012929Y-89850000D01*
X105400000Y-90610000D02*
X105012929Y-90610000D01*
X105467071Y-59370000D02*
X105012929Y-59370000D01*
X105467071Y-60130000D02*
X105012929Y-60130000D01*
X105467071Y-61910000D02*
X105012929Y-61910000D01*
X105467071Y-62670000D02*
X105012929Y-62670000D01*
X105467071Y-64450000D02*
X105012929Y-64450000D01*
X105467071Y-65210000D02*
X105012929Y-65210000D01*
X105467071Y-66990000D02*
X105012929Y-66990000D01*
X105467071Y-67750000D02*
X105012929Y-67750000D01*
X105467071Y-69530000D02*
X105012929Y-69530000D01*
X105467071Y-70290000D02*
X105012929Y-70290000D01*
X105467071Y-72070000D02*
X105012929Y-72070000D01*
X105467071Y-72830000D02*
X105012929Y-72830000D01*
X105467071Y-74610000D02*
X105012929Y-74610000D01*
X105467071Y-75370000D02*
X105012929Y-75370000D01*
X105467071Y-77150000D02*
X105012929Y-77150000D01*
X105467071Y-77910000D02*
X105012929Y-77910000D01*
X105467071Y-79690000D02*
X105012929Y-79690000D01*
X105467071Y-80450000D02*
X105012929Y-80450000D01*
X105467071Y-82230000D02*
X105012929Y-82230000D01*
X105467071Y-82990000D02*
X105012929Y-82990000D01*
X105467071Y-84770000D02*
X105012929Y-84770000D01*
X105467071Y-85530000D02*
X105012929Y-85530000D01*
X105467071Y-87310000D02*
X105012929Y-87310000D01*
X105467071Y-88070000D02*
X105012929Y-88070000D01*
X107907000Y-58353000D02*
X107907000Y-63560000D01*
X107907000Y-63560000D02*
X102530000Y-63560000D01*
X107907000Y-63560000D02*
X107907000Y-88960000D01*
X107907000Y-88960000D02*
X102446000Y-88960000D01*
X107907000Y-88960000D02*
X107907000Y-91500000D01*
X107907000Y-91500000D02*
X102446000Y-91500000D01*
G36*
X102446000Y-66100000D02*
G01*
X99906000Y-66100000D01*
X99906000Y-63623500D01*
X102446000Y-63623500D01*
X102446000Y-66100000D01*
G37*
D13*
X102446000Y-66100000D02*
X99906000Y-66100000D01*
X99906000Y-63623500D01*
X102446000Y-63623500D01*
X102446000Y-66100000D01*
D12*
%TO.C,R1*%
X120237258Y-88477500D02*
X119762742Y-88477500D01*
X120237258Y-89522500D02*
X119762742Y-89522500D01*
%TO.C,R2*%
X120237258Y-85077500D02*
X119762742Y-85077500D01*
X120237258Y-86122500D02*
X119762742Y-86122500D01*
%TO.C,R3*%
X120237258Y-81677500D02*
X119762742Y-81677500D01*
X120237258Y-82722500D02*
X119762742Y-82722500D01*
%TO.C,R4*%
X120237258Y-79222500D02*
X119762742Y-79222500D01*
X120237258Y-78177500D02*
X119762742Y-78177500D01*
%TO.C,R5*%
X120237258Y-74777500D02*
X119762742Y-74777500D01*
X120237258Y-75822500D02*
X119762742Y-75822500D01*
%TO.C,R6*%
X120237258Y-71377500D02*
X119762742Y-71377500D01*
X120237258Y-72422500D02*
X119762742Y-72422500D01*
%TO.C,R7*%
X120237258Y-67977500D02*
X119762742Y-67977500D01*
X120237258Y-69022500D02*
X119762742Y-69022500D01*
%TO.C,R8*%
X120237258Y-64577500D02*
X119762742Y-64577500D01*
X120237258Y-65622500D02*
X119762742Y-65622500D01*
%TO.C,R9*%
X116237258Y-88477500D02*
X115762742Y-88477500D01*
X116237258Y-89522500D02*
X115762742Y-89522500D01*
%TO.C,R10*%
X116237258Y-85077500D02*
X115762742Y-85077500D01*
X116237258Y-86122500D02*
X115762742Y-86122500D01*
%TO.C,R11*%
X116237258Y-81677500D02*
X115762742Y-81677500D01*
X116237258Y-82722500D02*
X115762742Y-82722500D01*
%TO.C,R12*%
X116237258Y-78177500D02*
X115762742Y-78177500D01*
X116237258Y-79222500D02*
X115762742Y-79222500D01*
%TO.C,R13*%
X116237258Y-74777500D02*
X115762742Y-74777500D01*
X116237258Y-75822500D02*
X115762742Y-75822500D01*
%TO.C,R14*%
X116237258Y-71377500D02*
X115762742Y-71377500D01*
X116237258Y-72422500D02*
X115762742Y-72422500D01*
%TO.C,R15*%
X116237258Y-67977500D02*
X115762742Y-67977500D01*
X116237258Y-69022500D02*
X115762742Y-69022500D01*
%TO.C,R16*%
X116237258Y-64577500D02*
X115762742Y-64577500D01*
X116237258Y-65622500D02*
X115762742Y-65622500D01*
%TO.C,U1*%
X110300000Y-91160000D02*
X111700000Y-91160000D01*
X111700000Y-88840000D02*
X109800000Y-88840000D01*
%TO.C,U2*%
X110300000Y-86160000D02*
X111700000Y-86160000D01*
X111700000Y-83840000D02*
X109800000Y-83840000D01*
%TO.C,U3*%
X110300000Y-79160000D02*
X111700000Y-79160000D01*
X111700000Y-76840000D02*
X109800000Y-76840000D01*
%TO.C,U4*%
X110300000Y-74160000D02*
X111700000Y-74160000D01*
X111700000Y-71840000D02*
X109800000Y-71840000D01*
%TO.C,U5*%
X110300000Y-70160000D02*
X111700000Y-70160000D01*
X111700000Y-67840000D02*
X109800000Y-67840000D01*
%TO.C,U6*%
X110300000Y-66160000D02*
X111700000Y-66160000D01*
X111700000Y-63840000D02*
X109800000Y-63840000D01*
D14*
%TO.C,U7*%
X127100000Y-70000000D02*
G75*
G03*
X127100000Y-70000000I-100000J0D01*
G01*
D12*
X135120000Y-78120000D02*
X135120000Y-76120000D01*
X135120000Y-69880000D02*
X135120000Y-71880000D01*
X135120000Y-69880000D02*
X135120000Y-71880000D01*
X135120000Y-69880000D02*
X135120000Y-71880000D01*
X133120000Y-78120000D02*
X135120000Y-78120000D01*
X133120000Y-69880000D02*
X135120000Y-69880000D01*
X133120000Y-69880000D02*
X135120000Y-69880000D01*
X133120000Y-69880000D02*
X135120000Y-69880000D01*
X128880000Y-78120000D02*
X126880000Y-78120000D01*
X128880000Y-69880000D02*
X128000000Y-69880000D01*
X128000000Y-69880000D02*
X126880000Y-71000000D01*
X126880000Y-78120000D02*
X126880000Y-76120000D01*
X126880000Y-71000000D02*
X126880000Y-71880000D01*
%TO.C,J2*%
X148200000Y-68170000D02*
X149530000Y-68170000D01*
X149530000Y-68170000D02*
X149530000Y-69500000D01*
X144330000Y-68170000D02*
X146930000Y-68170000D01*
X144330000Y-68170000D02*
X144330000Y-88610000D01*
X146930000Y-68170000D02*
X146930000Y-70770000D01*
X149530000Y-70770000D02*
X149530000Y-88610000D01*
X146930000Y-70770000D02*
X149530000Y-70770000D01*
X144330000Y-88610000D02*
X149530000Y-88610000D01*
%TO.C,R18*%
X142447258Y-76117500D02*
X141972742Y-76117500D01*
X142447258Y-77162500D02*
X141972742Y-77162500D01*
%TO.C,R19*%
X142447258Y-77817500D02*
X141972742Y-77817500D01*
X142447258Y-78862500D02*
X141972742Y-78862500D01*
%TO.C,R20*%
X142437258Y-71477500D02*
X141962742Y-71477500D01*
X142437258Y-72522500D02*
X141962742Y-72522500D01*
%TO.C,R21*%
X142437258Y-73177500D02*
X141962742Y-73177500D01*
X142437258Y-74222500D02*
X141962742Y-74222500D01*
%TO.C,C33*%
X115140580Y-58265000D02*
X114859420Y-58265000D01*
X115140580Y-59285000D02*
X114859420Y-59285000D01*
%TO.C,C34*%
X120140580Y-90190000D02*
X119859420Y-90190000D01*
X120140580Y-91210000D02*
X119859420Y-91210000D01*
%TO.C,R22*%
X115237258Y-59952500D02*
X114762742Y-59952500D01*
X115237258Y-60997500D02*
X114762742Y-60997500D01*
%TO.C,R23*%
X120237258Y-91877500D02*
X119762742Y-91877500D01*
X120237258Y-92922500D02*
X119762742Y-92922500D01*
%TO.C,R24*%
X118587742Y-61022500D02*
X119062258Y-61022500D01*
X118587742Y-59977500D02*
X119062258Y-59977500D01*
%TO.C,J3*%
X117410000Y-55870000D02*
X117410000Y-50670000D01*
X112270000Y-53270000D02*
X112270000Y-50670000D01*
X109670000Y-55870000D02*
X117410000Y-55870000D01*
X109670000Y-52000000D02*
X109670000Y-50670000D01*
X112270000Y-50670000D02*
X117410000Y-50670000D01*
X109670000Y-55870000D02*
X109670000Y-53270000D01*
X109670000Y-53270000D02*
X112270000Y-53270000D01*
X109670000Y-50670000D02*
X111000000Y-50670000D01*
%TO.C,J4*%
X109670000Y-99370000D02*
X114870000Y-99370000D01*
X112270000Y-96770000D02*
X112270000Y-94170000D01*
X109670000Y-96770000D02*
X112270000Y-96770000D01*
X109670000Y-94170000D02*
X111000000Y-94170000D01*
X112270000Y-94170000D02*
X114870000Y-94170000D01*
X114870000Y-99370000D02*
X114870000Y-94170000D01*
X109670000Y-99370000D02*
X109670000Y-96770000D01*
X109670000Y-95500000D02*
X109670000Y-94170000D01*
%TO.C,LOGO1*%
G36*
X136979833Y-96588663D02*
G01*
X136982048Y-96626850D01*
X136983784Y-96684886D01*
X136984899Y-96758180D01*
X136985257Y-96835055D01*
X136985257Y-97095196D01*
X136939326Y-97141127D01*
X136907675Y-97169429D01*
X136879890Y-97180893D01*
X136841915Y-97180168D01*
X136826840Y-97178321D01*
X136779726Y-97172948D01*
X136740756Y-97169869D01*
X136731257Y-97169585D01*
X136699233Y-97171445D01*
X136653432Y-97176114D01*
X136635674Y-97178321D01*
X136592057Y-97181735D01*
X136562745Y-97174320D01*
X136533680Y-97151427D01*
X136523188Y-97141127D01*
X136477257Y-97095196D01*
X136477257Y-96608602D01*
X136514226Y-96591758D01*
X136546059Y-96579282D01*
X136564683Y-96574914D01*
X136569458Y-96588718D01*
X136573921Y-96627286D01*
X136577775Y-96686356D01*
X136580722Y-96761663D01*
X136582143Y-96825286D01*
X136586114Y-97075657D01*
X136620759Y-97080556D01*
X136652268Y-97077131D01*
X136667708Y-97066041D01*
X136672023Y-97045308D01*
X136675708Y-97001145D01*
X136678469Y-96939146D01*
X136680012Y-96864909D01*
X136680235Y-96826706D01*
X136680457Y-96606783D01*
X136726166Y-96590849D01*
X136758518Y-96580015D01*
X136776115Y-96574962D01*
X136776623Y-96574914D01*
X136778388Y-96588648D01*
X136780329Y-96626730D01*
X136782282Y-96684482D01*
X136784084Y-96757227D01*
X136785343Y-96825286D01*
X136789314Y-97075657D01*
X136876400Y-97075657D01*
X136880396Y-96847240D01*
X136884392Y-96618822D01*
X136926847Y-96596868D01*
X136958192Y-96581793D01*
X136976744Y-96574951D01*
X136977279Y-96574914D01*
X136979833Y-96588663D01*
G37*
D15*
X136979833Y-96588663D02*
X136982048Y-96626850D01*
X136983784Y-96684886D01*
X136984899Y-96758180D01*
X136985257Y-96835055D01*
X136985257Y-97095196D01*
X136939326Y-97141127D01*
X136907675Y-97169429D01*
X136879890Y-97180893D01*
X136841915Y-97180168D01*
X136826840Y-97178321D01*
X136779726Y-97172948D01*
X136740756Y-97169869D01*
X136731257Y-97169585D01*
X136699233Y-97171445D01*
X136653432Y-97176114D01*
X136635674Y-97178321D01*
X136592057Y-97181735D01*
X136562745Y-97174320D01*
X136533680Y-97151427D01*
X136523188Y-97141127D01*
X136477257Y-97095196D01*
X136477257Y-96608602D01*
X136514226Y-96591758D01*
X136546059Y-96579282D01*
X136564683Y-96574914D01*
X136569458Y-96588718D01*
X136573921Y-96627286D01*
X136577775Y-96686356D01*
X136580722Y-96761663D01*
X136582143Y-96825286D01*
X136586114Y-97075657D01*
X136620759Y-97080556D01*
X136652268Y-97077131D01*
X136667708Y-97066041D01*
X136672023Y-97045308D01*
X136675708Y-97001145D01*
X136678469Y-96939146D01*
X136680012Y-96864909D01*
X136680235Y-96826706D01*
X136680457Y-96606783D01*
X136726166Y-96590849D01*
X136758518Y-96580015D01*
X136776115Y-96574962D01*
X136776623Y-96574914D01*
X136778388Y-96588648D01*
X136780329Y-96626730D01*
X136782282Y-96684482D01*
X136784084Y-96757227D01*
X136785343Y-96825286D01*
X136789314Y-97075657D01*
X136876400Y-97075657D01*
X136880396Y-96847240D01*
X136884392Y-96618822D01*
X136926847Y-96596868D01*
X136958192Y-96581793D01*
X136976744Y-96574951D01*
X136977279Y-96574914D01*
X136979833Y-96588663D01*
G36*
X131934322Y-96860192D02*
G01*
X132079429Y-96860192D01*
X132080273Y-96926430D01*
X132083596Y-96970386D01*
X132090583Y-96998779D01*
X132102416Y-97018325D01*
X132108457Y-97024857D01*
X132143186Y-97049680D01*
X132176903Y-97048548D01*
X132210995Y-97027016D01*
X132231329Y-97004029D01*
X132243371Y-96970478D01*
X132250134Y-96917569D01*
X132250598Y-96911399D01*
X132251752Y-96815513D01*
X132239688Y-96744299D01*
X132214570Y-96698194D01*
X132176560Y-96677635D01*
X132162992Y-96676514D01*
X132127364Y-96682152D01*
X132102994Y-96701686D01*
X132088093Y-96739042D01*
X132080875Y-96798150D01*
X132079429Y-96860192D01*
X131934322Y-96860192D01*
X131934826Y-96790413D01*
X131937096Y-96738159D01*
X131942068Y-96701949D01*
X131950713Y-96675299D01*
X131964005Y-96651722D01*
X131966943Y-96647338D01*
X132016313Y-96588249D01*
X132070109Y-96553947D01*
X132135602Y-96540331D01*
X132157842Y-96539665D01*
X132241115Y-96551962D01*
X132309145Y-96587733D01*
X132359351Y-96645301D01*
X132377185Y-96682312D01*
X132391063Y-96737882D01*
X132398167Y-96808096D01*
X132398840Y-96884727D01*
X132393427Y-96959552D01*
X132382270Y-97024342D01*
X132365714Y-97070873D01*
X132360626Y-97078887D01*
X132300355Y-97138707D01*
X132228769Y-97174535D01*
X132151092Y-97185020D01*
X132072548Y-97168810D01*
X132050689Y-97159092D01*
X132008122Y-97129143D01*
X131970763Y-97089433D01*
X131967232Y-97084397D01*
X131952881Y-97060124D01*
X131943394Y-97034178D01*
X131937790Y-97000022D01*
X131935086Y-96951119D01*
X131934299Y-96880935D01*
X131934286Y-96865200D01*
X131934322Y-96860192D01*
G37*
X131934322Y-96860192D02*
X132079429Y-96860192D01*
X132080273Y-96926430D01*
X132083596Y-96970386D01*
X132090583Y-96998779D01*
X132102416Y-97018325D01*
X132108457Y-97024857D01*
X132143186Y-97049680D01*
X132176903Y-97048548D01*
X132210995Y-97027016D01*
X132231329Y-97004029D01*
X132243371Y-96970478D01*
X132250134Y-96917569D01*
X132250598Y-96911399D01*
X132251752Y-96815513D01*
X132239688Y-96744299D01*
X132214570Y-96698194D01*
X132176560Y-96677635D01*
X132162992Y-96676514D01*
X132127364Y-96682152D01*
X132102994Y-96701686D01*
X132088093Y-96739042D01*
X132080875Y-96798150D01*
X132079429Y-96860192D01*
X131934322Y-96860192D01*
X131934826Y-96790413D01*
X131937096Y-96738159D01*
X131942068Y-96701949D01*
X131950713Y-96675299D01*
X131964005Y-96651722D01*
X131966943Y-96647338D01*
X132016313Y-96588249D01*
X132070109Y-96553947D01*
X132135602Y-96540331D01*
X132157842Y-96539665D01*
X132241115Y-96551962D01*
X132309145Y-96587733D01*
X132359351Y-96645301D01*
X132377185Y-96682312D01*
X132391063Y-96737882D01*
X132398167Y-96808096D01*
X132398840Y-96884727D01*
X132393427Y-96959552D01*
X132382270Y-97024342D01*
X132365714Y-97070873D01*
X132360626Y-97078887D01*
X132300355Y-97138707D01*
X132228769Y-97174535D01*
X132151092Y-97185020D01*
X132072548Y-97168810D01*
X132050689Y-97159092D01*
X132008122Y-97129143D01*
X131970763Y-97089433D01*
X131967232Y-97084397D01*
X131952881Y-97060124D01*
X131943394Y-97034178D01*
X131937790Y-97000022D01*
X131935086Y-96951119D01*
X131934299Y-96880935D01*
X131934286Y-96865200D01*
X131934322Y-96860192D01*
G36*
X138060372Y-96836247D02*
G01*
X138148007Y-96836247D01*
X138149023Y-96861126D01*
X138151556Y-96865200D01*
X138168274Y-96859665D01*
X138204249Y-96845017D01*
X138252331Y-96824190D01*
X138262386Y-96819714D01*
X138323152Y-96788814D01*
X138356632Y-96761657D01*
X138363990Y-96736220D01*
X138346391Y-96710481D01*
X138331856Y-96699109D01*
X138279410Y-96676364D01*
X138230322Y-96680122D01*
X138189227Y-96707884D01*
X138160758Y-96757152D01*
X138151631Y-96796257D01*
X138148007Y-96836247D01*
X138060372Y-96836247D01*
X138061285Y-96792249D01*
X138068196Y-96725384D01*
X138081884Y-96676695D01*
X138104096Y-96640849D01*
X138136574Y-96612513D01*
X138150733Y-96603355D01*
X138215053Y-96579507D01*
X138285473Y-96578006D01*
X138353595Y-96596966D01*
X138411021Y-96634497D01*
X138438719Y-96668096D01*
X138460662Y-96729064D01*
X138462405Y-96777308D01*
X138458457Y-96841816D01*
X138309686Y-96906934D01*
X138237349Y-96940202D01*
X138190084Y-96966964D01*
X138165507Y-96990144D01*
X138161237Y-97012667D01*
X138174889Y-97037455D01*
X138189943Y-97053886D01*
X138233746Y-97080235D01*
X138281389Y-97082081D01*
X138325145Y-97061546D01*
X138357289Y-97020752D01*
X138363038Y-97006347D01*
X138390576Y-96961356D01*
X138422258Y-96942182D01*
X138465714Y-96925779D01*
X138465714Y-96987966D01*
X138461872Y-97030283D01*
X138446823Y-97065969D01*
X138415280Y-97106943D01*
X138410592Y-97112267D01*
X138375506Y-97148720D01*
X138345347Y-97168283D01*
X138307615Y-97177283D01*
X138276335Y-97180230D01*
X138220385Y-97180965D01*
X138180555Y-97171660D01*
X138155708Y-97157846D01*
X138116656Y-97127467D01*
X138089625Y-97094613D01*
X138072517Y-97053294D01*
X138063238Y-96997521D01*
X138059693Y-96921305D01*
X138059410Y-96882622D01*
X138060372Y-96836247D01*
G37*
X138060372Y-96836247D02*
X138148007Y-96836247D01*
X138149023Y-96861126D01*
X138151556Y-96865200D01*
X138168274Y-96859665D01*
X138204249Y-96845017D01*
X138252331Y-96824190D01*
X138262386Y-96819714D01*
X138323152Y-96788814D01*
X138356632Y-96761657D01*
X138363990Y-96736220D01*
X138346391Y-96710481D01*
X138331856Y-96699109D01*
X138279410Y-96676364D01*
X138230322Y-96680122D01*
X138189227Y-96707884D01*
X138160758Y-96757152D01*
X138151631Y-96796257D01*
X138148007Y-96836247D01*
X138060372Y-96836247D01*
X138061285Y-96792249D01*
X138068196Y-96725384D01*
X138081884Y-96676695D01*
X138104096Y-96640849D01*
X138136574Y-96612513D01*
X138150733Y-96603355D01*
X138215053Y-96579507D01*
X138285473Y-96578006D01*
X138353595Y-96596966D01*
X138411021Y-96634497D01*
X138438719Y-96668096D01*
X138460662Y-96729064D01*
X138462405Y-96777308D01*
X138458457Y-96841816D01*
X138309686Y-96906934D01*
X138237349Y-96940202D01*
X138190084Y-96966964D01*
X138165507Y-96990144D01*
X138161237Y-97012667D01*
X138174889Y-97037455D01*
X138189943Y-97053886D01*
X138233746Y-97080235D01*
X138281389Y-97082081D01*
X138325145Y-97061546D01*
X138357289Y-97020752D01*
X138363038Y-97006347D01*
X138390576Y-96961356D01*
X138422258Y-96942182D01*
X138465714Y-96925779D01*
X138465714Y-96987966D01*
X138461872Y-97030283D01*
X138446823Y-97065969D01*
X138415280Y-97106943D01*
X138410592Y-97112267D01*
X138375506Y-97148720D01*
X138345347Y-97168283D01*
X138307615Y-97177283D01*
X138276335Y-97180230D01*
X138220385Y-97180965D01*
X138180555Y-97171660D01*
X138155708Y-97157846D01*
X138116656Y-97127467D01*
X138089625Y-97094613D01*
X138072517Y-97053294D01*
X138063238Y-96997521D01*
X138059693Y-96921305D01*
X138059410Y-96882622D01*
X138060372Y-96836247D01*
G36*
X133916093Y-96557780D02*
G01*
X133962672Y-96584723D01*
X133995057Y-96611466D01*
X134018742Y-96639484D01*
X134035059Y-96673748D01*
X134045339Y-96719227D01*
X134050914Y-96780892D01*
X134053116Y-96863711D01*
X134053371Y-96923246D01*
X134053371Y-97142391D01*
X133991686Y-97170044D01*
X133930000Y-97197697D01*
X133922743Y-96957670D01*
X133919744Y-96868028D01*
X133916598Y-96802962D01*
X133912701Y-96758026D01*
X133907447Y-96728770D01*
X133900231Y-96710748D01*
X133890450Y-96699511D01*
X133887312Y-96697079D01*
X133839761Y-96678083D01*
X133791697Y-96685600D01*
X133763086Y-96705543D01*
X133751447Y-96719675D01*
X133743391Y-96738220D01*
X133738271Y-96766334D01*
X133735441Y-96809173D01*
X133734256Y-96871895D01*
X133734057Y-96937261D01*
X133734018Y-97019268D01*
X133732614Y-97077316D01*
X133727914Y-97116465D01*
X133717987Y-97141780D01*
X133700903Y-97158323D01*
X133674732Y-97171156D01*
X133639775Y-97184491D01*
X133601596Y-97199007D01*
X133606141Y-96941389D01*
X133607971Y-96848519D01*
X133610112Y-96779889D01*
X133613181Y-96730711D01*
X133617794Y-96696198D01*
X133624568Y-96671562D01*
X133634119Y-96652016D01*
X133645634Y-96634770D01*
X133701190Y-96579680D01*
X133768980Y-96547822D01*
X133842713Y-96540191D01*
X133916093Y-96557780D01*
G37*
X133916093Y-96557780D02*
X133962672Y-96584723D01*
X133995057Y-96611466D01*
X134018742Y-96639484D01*
X134035059Y-96673748D01*
X134045339Y-96719227D01*
X134050914Y-96780892D01*
X134053116Y-96863711D01*
X134053371Y-96923246D01*
X134053371Y-97142391D01*
X133991686Y-97170044D01*
X133930000Y-97197697D01*
X133922743Y-96957670D01*
X133919744Y-96868028D01*
X133916598Y-96802962D01*
X133912701Y-96758026D01*
X133907447Y-96728770D01*
X133900231Y-96710748D01*
X133890450Y-96699511D01*
X133887312Y-96697079D01*
X133839761Y-96678083D01*
X133791697Y-96685600D01*
X133763086Y-96705543D01*
X133751447Y-96719675D01*
X133743391Y-96738220D01*
X133738271Y-96766334D01*
X133735441Y-96809173D01*
X133734256Y-96871895D01*
X133734057Y-96937261D01*
X133734018Y-97019268D01*
X133732614Y-97077316D01*
X133727914Y-97116465D01*
X133717987Y-97141780D01*
X133700903Y-97158323D01*
X133674732Y-97171156D01*
X133639775Y-97184491D01*
X133601596Y-97199007D01*
X133606141Y-96941389D01*
X133607971Y-96848519D01*
X133610112Y-96779889D01*
X133613181Y-96730711D01*
X133617794Y-96696198D01*
X133624568Y-96671562D01*
X133634119Y-96652016D01*
X133645634Y-96634770D01*
X133701190Y-96579680D01*
X133768980Y-96547822D01*
X133842713Y-96540191D01*
X133916093Y-96557780D01*
G36*
X137852600Y-96588752D02*
G01*
X137869948Y-96596334D01*
X137911356Y-96629128D01*
X137946765Y-96676547D01*
X137968664Y-96727151D01*
X137972229Y-96752098D01*
X137960279Y-96786927D01*
X137934067Y-96805357D01*
X137905964Y-96816516D01*
X137893095Y-96818572D01*
X137886829Y-96803649D01*
X137874456Y-96771175D01*
X137869028Y-96756502D01*
X137838590Y-96705744D01*
X137794520Y-96680427D01*
X137738010Y-96681206D01*
X137733825Y-96682203D01*
X137703655Y-96696507D01*
X137681476Y-96724393D01*
X137666327Y-96769287D01*
X137657250Y-96834615D01*
X137653286Y-96923804D01*
X137652914Y-96971261D01*
X137652730Y-97046071D01*
X137651522Y-97097069D01*
X137648309Y-97129471D01*
X137642109Y-97148495D01*
X137631940Y-97159356D01*
X137616819Y-97167272D01*
X137615946Y-97167670D01*
X137586828Y-97179981D01*
X137572403Y-97184514D01*
X137570186Y-97170809D01*
X137568289Y-97132925D01*
X137566847Y-97075715D01*
X137565998Y-97004027D01*
X137565829Y-96951565D01*
X137566692Y-96850047D01*
X137570070Y-96773032D01*
X137577142Y-96716023D01*
X137589088Y-96674526D01*
X137607090Y-96644043D01*
X137632327Y-96620080D01*
X137657247Y-96603355D01*
X137717171Y-96581097D01*
X137786911Y-96576076D01*
X137852600Y-96588752D01*
G37*
X137852600Y-96588752D02*
X137869948Y-96596334D01*
X137911356Y-96629128D01*
X137946765Y-96676547D01*
X137968664Y-96727151D01*
X137972229Y-96752098D01*
X137960279Y-96786927D01*
X137934067Y-96805357D01*
X137905964Y-96816516D01*
X137893095Y-96818572D01*
X137886829Y-96803649D01*
X137874456Y-96771175D01*
X137869028Y-96756502D01*
X137838590Y-96705744D01*
X137794520Y-96680427D01*
X137738010Y-96681206D01*
X137733825Y-96682203D01*
X137703655Y-96696507D01*
X137681476Y-96724393D01*
X137666327Y-96769287D01*
X137657250Y-96834615D01*
X137653286Y-96923804D01*
X137652914Y-96971261D01*
X137652730Y-97046071D01*
X137651522Y-97097069D01*
X137648309Y-97129471D01*
X137642109Y-97148495D01*
X137631940Y-97159356D01*
X137616819Y-97167272D01*
X137615946Y-97167670D01*
X137586828Y-97179981D01*
X137572403Y-97184514D01*
X137570186Y-97170809D01*
X137568289Y-97132925D01*
X137566847Y-97075715D01*
X137565998Y-97004027D01*
X137565829Y-96951565D01*
X137566692Y-96850047D01*
X137570070Y-96773032D01*
X137577142Y-96716023D01*
X137589088Y-96674526D01*
X137607090Y-96644043D01*
X137632327Y-96620080D01*
X137657247Y-96603355D01*
X137717171Y-96581097D01*
X137786911Y-96576076D01*
X137852600Y-96588752D01*
G36*
X135969458Y-96875647D02*
G01*
X136070857Y-96875647D01*
X136071476Y-96940550D01*
X136074314Y-96983514D01*
X136080840Y-97011622D01*
X136092523Y-97031953D01*
X136106483Y-97047288D01*
X136153365Y-97076890D01*
X136203701Y-97079419D01*
X136251276Y-97054705D01*
X136254979Y-97051356D01*
X136270783Y-97033935D01*
X136280693Y-97013209D01*
X136286058Y-96982362D01*
X136288228Y-96934577D01*
X136288571Y-96881748D01*
X136287827Y-96815381D01*
X136284748Y-96771106D01*
X136278061Y-96742009D01*
X136266496Y-96721173D01*
X136257013Y-96710107D01*
X136212960Y-96682198D01*
X136162224Y-96678843D01*
X136113796Y-96700159D01*
X136104450Y-96708073D01*
X136088540Y-96725647D01*
X136078610Y-96746587D01*
X136073278Y-96777782D01*
X136071163Y-96826122D01*
X136070857Y-96875647D01*
X135969458Y-96875647D01*
X135972810Y-96788568D01*
X135984726Y-96720086D01*
X136007135Y-96668600D01*
X136042124Y-96628443D01*
X136069375Y-96607861D01*
X136118907Y-96585625D01*
X136176316Y-96575304D01*
X136229682Y-96578067D01*
X136259543Y-96589212D01*
X136271261Y-96592383D01*
X136279037Y-96580557D01*
X136284465Y-96548866D01*
X136288571Y-96500593D01*
X136293067Y-96446829D01*
X136299313Y-96414482D01*
X136310676Y-96395985D01*
X136330528Y-96383770D01*
X136343000Y-96378362D01*
X136390171Y-96358601D01*
X136390117Y-96695358D01*
X136389933Y-96803837D01*
X136389219Y-96887287D01*
X136387675Y-96949704D01*
X136385001Y-96995085D01*
X136380894Y-97027429D01*
X136375055Y-97050733D01*
X136367182Y-97068995D01*
X136361221Y-97079418D01*
X136311855Y-97135945D01*
X136249264Y-97171377D01*
X136180013Y-97184090D01*
X136110668Y-97172463D01*
X136069375Y-97151568D01*
X136026025Y-97115422D01*
X135996481Y-97071276D01*
X135978655Y-97013462D01*
X135970463Y-96936313D01*
X135969302Y-96879714D01*
X135969458Y-96875647D01*
G37*
X135969458Y-96875647D02*
X136070857Y-96875647D01*
X136071476Y-96940550D01*
X136074314Y-96983514D01*
X136080840Y-97011622D01*
X136092523Y-97031953D01*
X136106483Y-97047288D01*
X136153365Y-97076890D01*
X136203701Y-97079419D01*
X136251276Y-97054705D01*
X136254979Y-97051356D01*
X136270783Y-97033935D01*
X136280693Y-97013209D01*
X136286058Y-96982362D01*
X136288228Y-96934577D01*
X136288571Y-96881748D01*
X136287827Y-96815381D01*
X136284748Y-96771106D01*
X136278061Y-96742009D01*
X136266496Y-96721173D01*
X136257013Y-96710107D01*
X136212960Y-96682198D01*
X136162224Y-96678843D01*
X136113796Y-96700159D01*
X136104450Y-96708073D01*
X136088540Y-96725647D01*
X136078610Y-96746587D01*
X136073278Y-96777782D01*
X136071163Y-96826122D01*
X136070857Y-96875647D01*
X135969458Y-96875647D01*
X135972810Y-96788568D01*
X135984726Y-96720086D01*
X136007135Y-96668600D01*
X136042124Y-96628443D01*
X136069375Y-96607861D01*
X136118907Y-96585625D01*
X136176316Y-96575304D01*
X136229682Y-96578067D01*
X136259543Y-96589212D01*
X136271261Y-96592383D01*
X136279037Y-96580557D01*
X136284465Y-96548866D01*
X136288571Y-96500593D01*
X136293067Y-96446829D01*
X136299313Y-96414482D01*
X136310676Y-96395985D01*
X136330528Y-96383770D01*
X136343000Y-96378362D01*
X136390171Y-96358601D01*
X136390117Y-96695358D01*
X136389933Y-96803837D01*
X136389219Y-96887287D01*
X136387675Y-96949704D01*
X136385001Y-96995085D01*
X136380894Y-97027429D01*
X136375055Y-97050733D01*
X136367182Y-97068995D01*
X136361221Y-97079418D01*
X136311855Y-97135945D01*
X136249264Y-97171377D01*
X136180013Y-97184090D01*
X136110668Y-97172463D01*
X136069375Y-97151568D01*
X136026025Y-97115422D01*
X135996481Y-97071276D01*
X135978655Y-97013462D01*
X135970463Y-96936313D01*
X135969302Y-96879714D01*
X135969458Y-96875647D01*
G36*
X134575886Y-96481289D02*
G01*
X134580139Y-96540613D01*
X134585025Y-96575572D01*
X134591795Y-96590820D01*
X134601702Y-96591015D01*
X134604914Y-96589195D01*
X134647644Y-96576015D01*
X134703227Y-96576785D01*
X134759737Y-96590333D01*
X134795082Y-96607861D01*
X134831321Y-96635861D01*
X134857813Y-96667549D01*
X134875999Y-96707813D01*
X134887322Y-96761543D01*
X134893222Y-96833626D01*
X134895143Y-96928951D01*
X134895177Y-96947237D01*
X134895200Y-97152646D01*
X134849491Y-97168580D01*
X134817027Y-97179420D01*
X134799215Y-97184468D01*
X134798691Y-97184514D01*
X134796937Y-97170828D01*
X134795444Y-97133076D01*
X134794326Y-97076224D01*
X134793697Y-97005234D01*
X134793600Y-96962073D01*
X134793398Y-96876973D01*
X134792358Y-96815981D01*
X134789831Y-96774177D01*
X134785164Y-96746642D01*
X134777707Y-96728456D01*
X134766811Y-96714698D01*
X134760007Y-96708073D01*
X134713272Y-96681375D01*
X134662272Y-96679375D01*
X134616001Y-96701955D01*
X134607444Y-96710107D01*
X134594893Y-96725436D01*
X134586188Y-96743618D01*
X134580631Y-96769909D01*
X134577526Y-96809562D01*
X134576176Y-96867832D01*
X134575886Y-96948173D01*
X134575886Y-97152646D01*
X134530177Y-97168580D01*
X134497713Y-97179420D01*
X134479901Y-97184468D01*
X134479377Y-97184514D01*
X134478037Y-97170623D01*
X134476828Y-97131439D01*
X134475801Y-97070700D01*
X134475002Y-96992141D01*
X134474481Y-96899498D01*
X134474286Y-96796509D01*
X134474286Y-96399342D01*
X134521457Y-96379444D01*
X134568629Y-96359547D01*
X134575886Y-96481289D01*
G37*
X134575886Y-96481289D02*
X134580139Y-96540613D01*
X134585025Y-96575572D01*
X134591795Y-96590820D01*
X134601702Y-96591015D01*
X134604914Y-96589195D01*
X134647644Y-96576015D01*
X134703227Y-96576785D01*
X134759737Y-96590333D01*
X134795082Y-96607861D01*
X134831321Y-96635861D01*
X134857813Y-96667549D01*
X134875999Y-96707813D01*
X134887322Y-96761543D01*
X134893222Y-96833626D01*
X134895143Y-96928951D01*
X134895177Y-96947237D01*
X134895200Y-97152646D01*
X134849491Y-97168580D01*
X134817027Y-97179420D01*
X134799215Y-97184468D01*
X134798691Y-97184514D01*
X134796937Y-97170828D01*
X134795444Y-97133076D01*
X134794326Y-97076224D01*
X134793697Y-97005234D01*
X134793600Y-96962073D01*
X134793398Y-96876973D01*
X134792358Y-96815981D01*
X134789831Y-96774177D01*
X134785164Y-96746642D01*
X134777707Y-96728456D01*
X134766811Y-96714698D01*
X134760007Y-96708073D01*
X134713272Y-96681375D01*
X134662272Y-96679375D01*
X134616001Y-96701955D01*
X134607444Y-96710107D01*
X134594893Y-96725436D01*
X134586188Y-96743618D01*
X134580631Y-96769909D01*
X134577526Y-96809562D01*
X134576176Y-96867832D01*
X134575886Y-96948173D01*
X134575886Y-97152646D01*
X134530177Y-97168580D01*
X134497713Y-97179420D01*
X134479901Y-97184468D01*
X134479377Y-97184514D01*
X134478037Y-97170623D01*
X134476828Y-97131439D01*
X134475801Y-97070700D01*
X134475002Y-96992141D01*
X134474481Y-96899498D01*
X134474286Y-96796509D01*
X134474286Y-96399342D01*
X134521457Y-96379444D01*
X134568629Y-96359547D01*
X134575886Y-96481289D01*
G36*
X135239744Y-96580968D02*
G01*
X135296616Y-96602087D01*
X135297267Y-96602493D01*
X135332440Y-96628380D01*
X135358407Y-96658633D01*
X135376670Y-96698058D01*
X135388732Y-96751462D01*
X135396096Y-96823651D01*
X135400264Y-96919432D01*
X135400629Y-96933078D01*
X135405876Y-97138842D01*
X135361716Y-97161678D01*
X135329763Y-97177110D01*
X135310470Y-97184423D01*
X135309578Y-97184514D01*
X135306239Y-97171022D01*
X135303587Y-97134626D01*
X135301956Y-97081452D01*
X135301600Y-97038393D01*
X135301592Y-96968641D01*
X135298403Y-96924837D01*
X135287288Y-96903944D01*
X135263501Y-96902925D01*
X135222296Y-96918741D01*
X135160086Y-96947815D01*
X135114341Y-96971963D01*
X135090813Y-96992913D01*
X135083896Y-97015747D01*
X135083886Y-97016877D01*
X135095299Y-97056212D01*
X135129092Y-97077462D01*
X135180809Y-97080539D01*
X135218061Y-97080006D01*
X135237703Y-97090735D01*
X135249952Y-97116505D01*
X135257002Y-97149337D01*
X135246842Y-97167966D01*
X135243017Y-97170632D01*
X135207001Y-97181340D01*
X135156566Y-97182856D01*
X135104626Y-97175759D01*
X135067822Y-97162788D01*
X135016938Y-97119585D01*
X134988014Y-97059446D01*
X134982286Y-97012462D01*
X134986657Y-96970082D01*
X135002475Y-96935488D01*
X135033797Y-96904763D01*
X135084678Y-96873990D01*
X135159176Y-96839252D01*
X135163714Y-96837288D01*
X135230821Y-96806287D01*
X135272232Y-96780862D01*
X135289981Y-96758014D01*
X135286107Y-96734745D01*
X135262643Y-96708056D01*
X135255627Y-96701914D01*
X135208630Y-96678100D01*
X135159933Y-96679103D01*
X135117522Y-96702451D01*
X135089384Y-96745675D01*
X135086769Y-96754160D01*
X135061308Y-96795308D01*
X135029001Y-96815128D01*
X134982286Y-96834770D01*
X134982286Y-96783950D01*
X134996496Y-96710082D01*
X135038675Y-96642327D01*
X135060624Y-96619661D01*
X135110517Y-96590569D01*
X135173967Y-96577400D01*
X135239744Y-96580968D01*
G37*
X135239744Y-96580968D02*
X135296616Y-96602087D01*
X135297267Y-96602493D01*
X135332440Y-96628380D01*
X135358407Y-96658633D01*
X135376670Y-96698058D01*
X135388732Y-96751462D01*
X135396096Y-96823651D01*
X135400264Y-96919432D01*
X135400629Y-96933078D01*
X135405876Y-97138842D01*
X135361716Y-97161678D01*
X135329763Y-97177110D01*
X135310470Y-97184423D01*
X135309578Y-97184514D01*
X135306239Y-97171022D01*
X135303587Y-97134626D01*
X135301956Y-97081452D01*
X135301600Y-97038393D01*
X135301592Y-96968641D01*
X135298403Y-96924837D01*
X135287288Y-96903944D01*
X135263501Y-96902925D01*
X135222296Y-96918741D01*
X135160086Y-96947815D01*
X135114341Y-96971963D01*
X135090813Y-96992913D01*
X135083896Y-97015747D01*
X135083886Y-97016877D01*
X135095299Y-97056212D01*
X135129092Y-97077462D01*
X135180809Y-97080539D01*
X135218061Y-97080006D01*
X135237703Y-97090735D01*
X135249952Y-97116505D01*
X135257002Y-97149337D01*
X135246842Y-97167966D01*
X135243017Y-97170632D01*
X135207001Y-97181340D01*
X135156566Y-97182856D01*
X135104626Y-97175759D01*
X135067822Y-97162788D01*
X135016938Y-97119585D01*
X134988014Y-97059446D01*
X134982286Y-97012462D01*
X134986657Y-96970082D01*
X135002475Y-96935488D01*
X135033797Y-96904763D01*
X135084678Y-96873990D01*
X135159176Y-96839252D01*
X135163714Y-96837288D01*
X135230821Y-96806287D01*
X135272232Y-96780862D01*
X135289981Y-96758014D01*
X135286107Y-96734745D01*
X135262643Y-96708056D01*
X135255627Y-96701914D01*
X135208630Y-96678100D01*
X135159933Y-96679103D01*
X135117522Y-96702451D01*
X135089384Y-96745675D01*
X135086769Y-96754160D01*
X135061308Y-96795308D01*
X135029001Y-96815128D01*
X134982286Y-96834770D01*
X134982286Y-96783950D01*
X134996496Y-96710082D01*
X135038675Y-96642327D01*
X135060624Y-96619661D01*
X135110517Y-96590569D01*
X135173967Y-96577400D01*
X135239744Y-96580968D01*
G36*
X135303910Y-91872348D02*
G01*
X135382454Y-91872778D01*
X135439298Y-91873942D01*
X135478105Y-91876207D01*
X135502538Y-91879940D01*
X135516262Y-91885506D01*
X135522940Y-91893273D01*
X135526236Y-91903605D01*
X135526556Y-91904943D01*
X135531562Y-91929079D01*
X135540829Y-91976701D01*
X135553392Y-92042741D01*
X135568287Y-92122128D01*
X135584551Y-92209796D01*
X135585119Y-92212875D01*
X135601410Y-92298789D01*
X135616652Y-92374696D01*
X135629861Y-92436045D01*
X135640054Y-92478282D01*
X135646248Y-92496855D01*
X135646543Y-92497184D01*
X135664788Y-92506253D01*
X135702405Y-92521367D01*
X135751271Y-92539262D01*
X135751543Y-92539358D01*
X135813093Y-92562493D01*
X135885657Y-92591965D01*
X135954057Y-92621597D01*
X135957294Y-92623062D01*
X136068702Y-92673626D01*
X136315399Y-92505160D01*
X136391077Y-92453803D01*
X136459631Y-92407889D01*
X136517088Y-92370030D01*
X136559476Y-92342837D01*
X136582825Y-92328921D01*
X136585042Y-92327889D01*
X136602010Y-92332484D01*
X136633701Y-92354655D01*
X136681352Y-92395447D01*
X136746198Y-92455905D01*
X136812397Y-92520227D01*
X136876214Y-92583612D01*
X136933329Y-92641451D01*
X136980305Y-92690175D01*
X137013703Y-92726210D01*
X137030085Y-92745984D01*
X137030694Y-92747002D01*
X137032505Y-92760572D01*
X137025683Y-92782733D01*
X137008540Y-92816478D01*
X136979393Y-92864800D01*
X136936555Y-92930692D01*
X136879448Y-93015517D01*
X136828766Y-93090177D01*
X136783461Y-93157140D01*
X136746150Y-93212516D01*
X136719452Y-93252420D01*
X136705985Y-93272962D01*
X136705137Y-93274356D01*
X136706781Y-93294038D01*
X136719245Y-93332293D01*
X136740048Y-93381889D01*
X136747462Y-93397728D01*
X136779814Y-93468290D01*
X136814328Y-93548353D01*
X136842365Y-93617629D01*
X136862568Y-93669045D01*
X136878615Y-93708119D01*
X136887888Y-93728541D01*
X136889041Y-93730114D01*
X136906096Y-93732721D01*
X136946298Y-93739863D01*
X137004302Y-93750523D01*
X137074763Y-93763685D01*
X137152335Y-93778333D01*
X137231672Y-93793449D01*
X137307431Y-93808018D01*
X137374264Y-93821022D01*
X137426828Y-93831445D01*
X137459776Y-93838270D01*
X137467857Y-93840199D01*
X137476205Y-93844962D01*
X137482506Y-93855718D01*
X137487045Y-93876098D01*
X137490104Y-93909734D01*
X137491967Y-93960255D01*
X137492918Y-94031292D01*
X137493240Y-94126476D01*
X137493257Y-94165492D01*
X137493257Y-94482799D01*
X137417057Y-94497839D01*
X137374663Y-94505995D01*
X137311400Y-94517899D01*
X137234962Y-94532116D01*
X137153043Y-94547210D01*
X137130400Y-94551355D01*
X137054806Y-94566053D01*
X136988953Y-94580505D01*
X136938366Y-94593375D01*
X136908574Y-94603322D01*
X136903612Y-94606287D01*
X136891426Y-94627283D01*
X136873953Y-94667967D01*
X136854577Y-94720322D01*
X136850734Y-94731600D01*
X136825339Y-94801523D01*
X136793817Y-94880418D01*
X136762969Y-94951266D01*
X136762817Y-94951595D01*
X136711447Y-95062733D01*
X136880399Y-95311253D01*
X137049352Y-95559772D01*
X136832429Y-95777058D01*
X136766819Y-95841726D01*
X136706979Y-95898733D01*
X136656267Y-95945033D01*
X136618046Y-95977584D01*
X136595675Y-95993343D01*
X136592466Y-95994343D01*
X136573626Y-95986469D01*
X136535180Y-95964578D01*
X136481330Y-95931267D01*
X136416276Y-95889131D01*
X136345940Y-95841943D01*
X136274555Y-95793810D01*
X136210908Y-95751928D01*
X136159041Y-95718871D01*
X136122995Y-95697218D01*
X136106867Y-95689543D01*
X136087189Y-95696037D01*
X136049875Y-95713150D01*
X136002621Y-95737326D01*
X135997612Y-95740013D01*
X135933977Y-95771927D01*
X135890341Y-95787579D01*
X135863202Y-95787745D01*
X135849057Y-95773204D01*
X135848975Y-95773000D01*
X135841905Y-95755779D01*
X135825042Y-95714899D01*
X135799695Y-95653525D01*
X135767171Y-95574819D01*
X135728778Y-95481947D01*
X135685822Y-95378072D01*
X135644222Y-95277502D01*
X135598504Y-95166516D01*
X135556526Y-95063703D01*
X135519548Y-94972215D01*
X135488827Y-94895201D01*
X135465622Y-94835815D01*
X135451190Y-94797209D01*
X135446743Y-94782800D01*
X135457896Y-94766272D01*
X135487069Y-94739930D01*
X135525971Y-94710887D01*
X135636757Y-94619039D01*
X135723351Y-94513759D01*
X135784716Y-94397266D01*
X135819815Y-94271776D01*
X135827608Y-94139507D01*
X135821943Y-94078457D01*
X135791078Y-93951795D01*
X135737920Y-93839941D01*
X135665767Y-93744001D01*
X135577917Y-93665076D01*
X135477665Y-93604270D01*
X135368310Y-93562687D01*
X135253147Y-93541428D01*
X135135475Y-93541599D01*
X135018590Y-93564301D01*
X134905789Y-93610638D01*
X134800369Y-93681713D01*
X134756368Y-93721911D01*
X134671979Y-93825129D01*
X134613222Y-93937925D01*
X134579704Y-94057010D01*
X134571035Y-94179095D01*
X134586823Y-94300893D01*
X134626678Y-94419116D01*
X134690207Y-94530475D01*
X134777021Y-94631684D01*
X134874029Y-94710887D01*
X134914437Y-94741162D01*
X134942982Y-94767219D01*
X134953257Y-94782825D01*
X134947877Y-94799843D01*
X134932575Y-94840500D01*
X134908612Y-94901642D01*
X134877244Y-94980119D01*
X134839732Y-95072780D01*
X134797333Y-95176472D01*
X134755663Y-95277526D01*
X134709690Y-95388607D01*
X134667107Y-95491541D01*
X134629221Y-95583165D01*
X134597340Y-95660316D01*
X134572771Y-95719831D01*
X134556820Y-95758544D01*
X134550910Y-95773000D01*
X134536948Y-95787685D01*
X134509940Y-95787642D01*
X134466413Y-95772099D01*
X134402890Y-95740284D01*
X134402388Y-95740013D01*
X134354560Y-95715323D01*
X134315897Y-95697338D01*
X134294095Y-95689614D01*
X134293133Y-95689543D01*
X134276721Y-95697378D01*
X134240487Y-95719165D01*
X134188474Y-95752328D01*
X134124725Y-95794291D01*
X134054060Y-95841943D01*
X133982116Y-95890191D01*
X133917274Y-95932151D01*
X133863735Y-95965227D01*
X133825697Y-95986821D01*
X133807533Y-95994343D01*
X133790808Y-95984457D01*
X133757180Y-95956826D01*
X133710010Y-95914495D01*
X133652658Y-95860505D01*
X133588484Y-95797899D01*
X133567497Y-95776983D01*
X133350499Y-95559623D01*
X133515668Y-95317220D01*
X133565864Y-95242781D01*
X133609919Y-95175972D01*
X133645362Y-95120665D01*
X133669719Y-95080729D01*
X133680522Y-95060036D01*
X133680838Y-95058563D01*
X133675143Y-95039058D01*
X133659826Y-94999822D01*
X133637537Y-94947430D01*
X133621893Y-94912355D01*
X133592641Y-94845201D01*
X133565094Y-94777358D01*
X133543737Y-94720034D01*
X133537935Y-94702572D01*
X133521452Y-94655938D01*
X133505340Y-94619905D01*
X133496490Y-94606287D01*
X133476960Y-94597952D01*
X133434334Y-94586137D01*
X133374145Y-94572181D01*
X133301922Y-94557422D01*
X133269600Y-94551355D01*
X133187522Y-94536273D01*
X133108795Y-94521669D01*
X133041109Y-94508980D01*
X132992160Y-94499642D01*
X132982943Y-94497839D01*
X132906743Y-94482799D01*
X132906743Y-94165492D01*
X132906914Y-94061154D01*
X132907616Y-93982213D01*
X132909134Y-93925038D01*
X132911749Y-93885999D01*
X132915746Y-93861465D01*
X132921409Y-93847805D01*
X132929020Y-93841389D01*
X132932143Y-93840199D01*
X132950978Y-93835980D01*
X132992588Y-93827562D01*
X133051630Y-93815961D01*
X133122757Y-93802195D01*
X133200625Y-93787280D01*
X133279887Y-93772232D01*
X133355198Y-93758069D01*
X133421213Y-93745806D01*
X133472587Y-93736461D01*
X133503975Y-93731050D01*
X133510959Y-93730114D01*
X133517285Y-93717596D01*
X133531290Y-93684246D01*
X133550355Y-93636377D01*
X133557634Y-93617629D01*
X133586996Y-93545195D01*
X133621571Y-93465170D01*
X133652537Y-93397728D01*
X133675323Y-93346159D01*
X133690482Y-93303785D01*
X133695542Y-93277834D01*
X133694736Y-93274356D01*
X133684041Y-93257936D01*
X133659620Y-93221417D01*
X133624095Y-93168687D01*
X133580087Y-93103635D01*
X133530217Y-93030151D01*
X133520356Y-93015645D01*
X133462492Y-92929704D01*
X133419956Y-92864261D01*
X133391054Y-92816304D01*
X133374090Y-92782820D01*
X133367367Y-92760795D01*
X133369190Y-92747217D01*
X133369236Y-92747131D01*
X133383586Y-92729297D01*
X133415323Y-92694817D01*
X133461010Y-92647268D01*
X133517204Y-92590222D01*
X133580468Y-92527255D01*
X133587602Y-92520227D01*
X133667330Y-92443020D01*
X133728857Y-92386330D01*
X133773421Y-92349110D01*
X133802257Y-92330315D01*
X133814958Y-92327889D01*
X133833494Y-92338471D01*
X133871961Y-92362916D01*
X133926386Y-92398612D01*
X133992798Y-92442947D01*
X134067225Y-92493311D01*
X134084601Y-92505160D01*
X134331297Y-92673626D01*
X134442706Y-92623062D01*
X134510457Y-92593595D01*
X134583183Y-92563959D01*
X134645703Y-92540330D01*
X134648457Y-92539358D01*
X134697360Y-92521457D01*
X134735057Y-92506320D01*
X134753425Y-92497210D01*
X134753456Y-92497184D01*
X134759285Y-92480717D01*
X134769192Y-92440219D01*
X134782195Y-92380242D01*
X134797309Y-92305340D01*
X134813552Y-92220064D01*
X134814881Y-92212875D01*
X134831175Y-92125014D01*
X134846133Y-92045260D01*
X134858791Y-91978681D01*
X134868186Y-91930347D01*
X134873354Y-91905325D01*
X134873444Y-91904943D01*
X134876589Y-91894299D01*
X134882704Y-91886262D01*
X134895453Y-91880467D01*
X134918500Y-91876547D01*
X134955509Y-91874135D01*
X135010144Y-91872865D01*
X135086067Y-91872371D01*
X135186944Y-91872286D01*
X135200000Y-91872286D01*
X135303910Y-91872348D01*
G37*
X135303910Y-91872348D02*
X135382454Y-91872778D01*
X135439298Y-91873942D01*
X135478105Y-91876207D01*
X135502538Y-91879940D01*
X135516262Y-91885506D01*
X135522940Y-91893273D01*
X135526236Y-91903605D01*
X135526556Y-91904943D01*
X135531562Y-91929079D01*
X135540829Y-91976701D01*
X135553392Y-92042741D01*
X135568287Y-92122128D01*
X135584551Y-92209796D01*
X135585119Y-92212875D01*
X135601410Y-92298789D01*
X135616652Y-92374696D01*
X135629861Y-92436045D01*
X135640054Y-92478282D01*
X135646248Y-92496855D01*
X135646543Y-92497184D01*
X135664788Y-92506253D01*
X135702405Y-92521367D01*
X135751271Y-92539262D01*
X135751543Y-92539358D01*
X135813093Y-92562493D01*
X135885657Y-92591965D01*
X135954057Y-92621597D01*
X135957294Y-92623062D01*
X136068702Y-92673626D01*
X136315399Y-92505160D01*
X136391077Y-92453803D01*
X136459631Y-92407889D01*
X136517088Y-92370030D01*
X136559476Y-92342837D01*
X136582825Y-92328921D01*
X136585042Y-92327889D01*
X136602010Y-92332484D01*
X136633701Y-92354655D01*
X136681352Y-92395447D01*
X136746198Y-92455905D01*
X136812397Y-92520227D01*
X136876214Y-92583612D01*
X136933329Y-92641451D01*
X136980305Y-92690175D01*
X137013703Y-92726210D01*
X137030085Y-92745984D01*
X137030694Y-92747002D01*
X137032505Y-92760572D01*
X137025683Y-92782733D01*
X137008540Y-92816478D01*
X136979393Y-92864800D01*
X136936555Y-92930692D01*
X136879448Y-93015517D01*
X136828766Y-93090177D01*
X136783461Y-93157140D01*
X136746150Y-93212516D01*
X136719452Y-93252420D01*
X136705985Y-93272962D01*
X136705137Y-93274356D01*
X136706781Y-93294038D01*
X136719245Y-93332293D01*
X136740048Y-93381889D01*
X136747462Y-93397728D01*
X136779814Y-93468290D01*
X136814328Y-93548353D01*
X136842365Y-93617629D01*
X136862568Y-93669045D01*
X136878615Y-93708119D01*
X136887888Y-93728541D01*
X136889041Y-93730114D01*
X136906096Y-93732721D01*
X136946298Y-93739863D01*
X137004302Y-93750523D01*
X137074763Y-93763685D01*
X137152335Y-93778333D01*
X137231672Y-93793449D01*
X137307431Y-93808018D01*
X137374264Y-93821022D01*
X137426828Y-93831445D01*
X137459776Y-93838270D01*
X137467857Y-93840199D01*
X137476205Y-93844962D01*
X137482506Y-93855718D01*
X137487045Y-93876098D01*
X137490104Y-93909734D01*
X137491967Y-93960255D01*
X137492918Y-94031292D01*
X137493240Y-94126476D01*
X137493257Y-94165492D01*
X137493257Y-94482799D01*
X137417057Y-94497839D01*
X137374663Y-94505995D01*
X137311400Y-94517899D01*
X137234962Y-94532116D01*
X137153043Y-94547210D01*
X137130400Y-94551355D01*
X137054806Y-94566053D01*
X136988953Y-94580505D01*
X136938366Y-94593375D01*
X136908574Y-94603322D01*
X136903612Y-94606287D01*
X136891426Y-94627283D01*
X136873953Y-94667967D01*
X136854577Y-94720322D01*
X136850734Y-94731600D01*
X136825339Y-94801523D01*
X136793817Y-94880418D01*
X136762969Y-94951266D01*
X136762817Y-94951595D01*
X136711447Y-95062733D01*
X136880399Y-95311253D01*
X137049352Y-95559772D01*
X136832429Y-95777058D01*
X136766819Y-95841726D01*
X136706979Y-95898733D01*
X136656267Y-95945033D01*
X136618046Y-95977584D01*
X136595675Y-95993343D01*
X136592466Y-95994343D01*
X136573626Y-95986469D01*
X136535180Y-95964578D01*
X136481330Y-95931267D01*
X136416276Y-95889131D01*
X136345940Y-95841943D01*
X136274555Y-95793810D01*
X136210908Y-95751928D01*
X136159041Y-95718871D01*
X136122995Y-95697218D01*
X136106867Y-95689543D01*
X136087189Y-95696037D01*
X136049875Y-95713150D01*
X136002621Y-95737326D01*
X135997612Y-95740013D01*
X135933977Y-95771927D01*
X135890341Y-95787579D01*
X135863202Y-95787745D01*
X135849057Y-95773204D01*
X135848975Y-95773000D01*
X135841905Y-95755779D01*
X135825042Y-95714899D01*
X135799695Y-95653525D01*
X135767171Y-95574819D01*
X135728778Y-95481947D01*
X135685822Y-95378072D01*
X135644222Y-95277502D01*
X135598504Y-95166516D01*
X135556526Y-95063703D01*
X135519548Y-94972215D01*
X135488827Y-94895201D01*
X135465622Y-94835815D01*
X135451190Y-94797209D01*
X135446743Y-94782800D01*
X135457896Y-94766272D01*
X135487069Y-94739930D01*
X135525971Y-94710887D01*
X135636757Y-94619039D01*
X135723351Y-94513759D01*
X135784716Y-94397266D01*
X135819815Y-94271776D01*
X135827608Y-94139507D01*
X135821943Y-94078457D01*
X135791078Y-93951795D01*
X135737920Y-93839941D01*
X135665767Y-93744001D01*
X135577917Y-93665076D01*
X135477665Y-93604270D01*
X135368310Y-93562687D01*
X135253147Y-93541428D01*
X135135475Y-93541599D01*
X135018590Y-93564301D01*
X134905789Y-93610638D01*
X134800369Y-93681713D01*
X134756368Y-93721911D01*
X134671979Y-93825129D01*
X134613222Y-93937925D01*
X134579704Y-94057010D01*
X134571035Y-94179095D01*
X134586823Y-94300893D01*
X134626678Y-94419116D01*
X134690207Y-94530475D01*
X134777021Y-94631684D01*
X134874029Y-94710887D01*
X134914437Y-94741162D01*
X134942982Y-94767219D01*
X134953257Y-94782825D01*
X134947877Y-94799843D01*
X134932575Y-94840500D01*
X134908612Y-94901642D01*
X134877244Y-94980119D01*
X134839732Y-95072780D01*
X134797333Y-95176472D01*
X134755663Y-95277526D01*
X134709690Y-95388607D01*
X134667107Y-95491541D01*
X134629221Y-95583165D01*
X134597340Y-95660316D01*
X134572771Y-95719831D01*
X134556820Y-95758544D01*
X134550910Y-95773000D01*
X134536948Y-95787685D01*
X134509940Y-95787642D01*
X134466413Y-95772099D01*
X134402890Y-95740284D01*
X134402388Y-95740013D01*
X134354560Y-95715323D01*
X134315897Y-95697338D01*
X134294095Y-95689614D01*
X134293133Y-95689543D01*
X134276721Y-95697378D01*
X134240487Y-95719165D01*
X134188474Y-95752328D01*
X134124725Y-95794291D01*
X134054060Y-95841943D01*
X133982116Y-95890191D01*
X133917274Y-95932151D01*
X133863735Y-95965227D01*
X133825697Y-95986821D01*
X133807533Y-95994343D01*
X133790808Y-95984457D01*
X133757180Y-95956826D01*
X133710010Y-95914495D01*
X133652658Y-95860505D01*
X133588484Y-95797899D01*
X133567497Y-95776983D01*
X133350499Y-95559623D01*
X133515668Y-95317220D01*
X133565864Y-95242781D01*
X133609919Y-95175972D01*
X133645362Y-95120665D01*
X133669719Y-95080729D01*
X133680522Y-95060036D01*
X133680838Y-95058563D01*
X133675143Y-95039058D01*
X133659826Y-94999822D01*
X133637537Y-94947430D01*
X133621893Y-94912355D01*
X133592641Y-94845201D01*
X133565094Y-94777358D01*
X133543737Y-94720034D01*
X133537935Y-94702572D01*
X133521452Y-94655938D01*
X133505340Y-94619905D01*
X133496490Y-94606287D01*
X133476960Y-94597952D01*
X133434334Y-94586137D01*
X133374145Y-94572181D01*
X133301922Y-94557422D01*
X133269600Y-94551355D01*
X133187522Y-94536273D01*
X133108795Y-94521669D01*
X133041109Y-94508980D01*
X132992160Y-94499642D01*
X132982943Y-94497839D01*
X132906743Y-94482799D01*
X132906743Y-94165492D01*
X132906914Y-94061154D01*
X132907616Y-93982213D01*
X132909134Y-93925038D01*
X132911749Y-93885999D01*
X132915746Y-93861465D01*
X132921409Y-93847805D01*
X132929020Y-93841389D01*
X132932143Y-93840199D01*
X132950978Y-93835980D01*
X132992588Y-93827562D01*
X133051630Y-93815961D01*
X133122757Y-93802195D01*
X133200625Y-93787280D01*
X133279887Y-93772232D01*
X133355198Y-93758069D01*
X133421213Y-93745806D01*
X133472587Y-93736461D01*
X133503975Y-93731050D01*
X133510959Y-93730114D01*
X133517285Y-93717596D01*
X133531290Y-93684246D01*
X133550355Y-93636377D01*
X133557634Y-93617629D01*
X133586996Y-93545195D01*
X133621571Y-93465170D01*
X133652537Y-93397728D01*
X133675323Y-93346159D01*
X133690482Y-93303785D01*
X133695542Y-93277834D01*
X133694736Y-93274356D01*
X133684041Y-93257936D01*
X133659620Y-93221417D01*
X133624095Y-93168687D01*
X133580087Y-93103635D01*
X133530217Y-93030151D01*
X133520356Y-93015645D01*
X133462492Y-92929704D01*
X133419956Y-92864261D01*
X133391054Y-92816304D01*
X133374090Y-92782820D01*
X133367367Y-92760795D01*
X133369190Y-92747217D01*
X133369236Y-92747131D01*
X133383586Y-92729297D01*
X133415323Y-92694817D01*
X133461010Y-92647268D01*
X133517204Y-92590222D01*
X133580468Y-92527255D01*
X133587602Y-92520227D01*
X133667330Y-92443020D01*
X133728857Y-92386330D01*
X133773421Y-92349110D01*
X133802257Y-92330315D01*
X133814958Y-92327889D01*
X133833494Y-92338471D01*
X133871961Y-92362916D01*
X133926386Y-92398612D01*
X133992798Y-92442947D01*
X134067225Y-92493311D01*
X134084601Y-92505160D01*
X134331297Y-92673626D01*
X134442706Y-92623062D01*
X134510457Y-92593595D01*
X134583183Y-92563959D01*
X134645703Y-92540330D01*
X134648457Y-92539358D01*
X134697360Y-92521457D01*
X134735057Y-92506320D01*
X134753425Y-92497210D01*
X134753456Y-92497184D01*
X134759285Y-92480717D01*
X134769192Y-92440219D01*
X134782195Y-92380242D01*
X134797309Y-92305340D01*
X134813552Y-92220064D01*
X134814881Y-92212875D01*
X134831175Y-92125014D01*
X134846133Y-92045260D01*
X134858791Y-91978681D01*
X134868186Y-91930347D01*
X134873354Y-91905325D01*
X134873444Y-91904943D01*
X134876589Y-91894299D01*
X134882704Y-91886262D01*
X134895453Y-91880467D01*
X134918500Y-91876547D01*
X134955509Y-91874135D01*
X135010144Y-91872865D01*
X135086067Y-91872371D01*
X135186944Y-91872286D01*
X135200000Y-91872286D01*
X135303910Y-91872348D01*
G36*
X137344876Y-96586335D02*
G01*
X137386667Y-96605344D01*
X137419469Y-96628378D01*
X137443503Y-96654133D01*
X137460097Y-96687358D01*
X137470577Y-96732800D01*
X137476271Y-96795207D01*
X137478507Y-96879327D01*
X137478743Y-96934721D01*
X137478743Y-97150826D01*
X137441774Y-97167670D01*
X137412656Y-97179981D01*
X137398231Y-97184514D01*
X137395472Y-97171025D01*
X137393282Y-97134653D01*
X137391942Y-97081542D01*
X137391657Y-97039372D01*
X137390434Y-96978447D01*
X137387136Y-96930115D01*
X137382321Y-96900518D01*
X137378496Y-96894229D01*
X137352783Y-96900652D01*
X137312418Y-96917125D01*
X137265679Y-96939458D01*
X137220845Y-96963457D01*
X137186193Y-96984930D01*
X137170002Y-96999685D01*
X137169938Y-96999845D01*
X137171330Y-97027152D01*
X137183818Y-97053219D01*
X137205743Y-97074392D01*
X137237743Y-97081474D01*
X137265092Y-97080649D01*
X137303826Y-97080042D01*
X137324158Y-97089116D01*
X137336369Y-97113092D01*
X137337909Y-97117613D01*
X137343203Y-97151806D01*
X137329047Y-97172568D01*
X137292148Y-97182462D01*
X137252289Y-97184292D01*
X137180562Y-97170727D01*
X137143432Y-97151355D01*
X137097576Y-97105845D01*
X137073256Y-97049983D01*
X137071073Y-96990957D01*
X137091629Y-96935953D01*
X137122549Y-96901486D01*
X137153420Y-96882189D01*
X137201942Y-96857759D01*
X137258485Y-96832985D01*
X137267910Y-96829199D01*
X137330019Y-96801791D01*
X137365822Y-96777634D01*
X137377337Y-96753619D01*
X137366580Y-96726635D01*
X137348114Y-96705543D01*
X137304469Y-96679572D01*
X137256446Y-96677624D01*
X137212406Y-96697637D01*
X137180709Y-96737551D01*
X137176549Y-96747848D01*
X137152327Y-96785724D01*
X137116965Y-96813842D01*
X137072343Y-96836917D01*
X137072343Y-96771485D01*
X137074969Y-96731506D01*
X137086230Y-96699997D01*
X137111199Y-96666378D01*
X137135169Y-96640484D01*
X137172441Y-96603817D01*
X137201401Y-96584121D01*
X137232505Y-96576220D01*
X137267713Y-96574914D01*
X137344876Y-96586335D01*
G37*
X137344876Y-96586335D02*
X137386667Y-96605344D01*
X137419469Y-96628378D01*
X137443503Y-96654133D01*
X137460097Y-96687358D01*
X137470577Y-96732800D01*
X137476271Y-96795207D01*
X137478507Y-96879327D01*
X137478743Y-96934721D01*
X137478743Y-97150826D01*
X137441774Y-97167670D01*
X137412656Y-97179981D01*
X137398231Y-97184514D01*
X137395472Y-97171025D01*
X137393282Y-97134653D01*
X137391942Y-97081542D01*
X137391657Y-97039372D01*
X137390434Y-96978447D01*
X137387136Y-96930115D01*
X137382321Y-96900518D01*
X137378496Y-96894229D01*
X137352783Y-96900652D01*
X137312418Y-96917125D01*
X137265679Y-96939458D01*
X137220845Y-96963457D01*
X137186193Y-96984930D01*
X137170002Y-96999685D01*
X137169938Y-96999845D01*
X137171330Y-97027152D01*
X137183818Y-97053219D01*
X137205743Y-97074392D01*
X137237743Y-97081474D01*
X137265092Y-97080649D01*
X137303826Y-97080042D01*
X137324158Y-97089116D01*
X137336369Y-97113092D01*
X137337909Y-97117613D01*
X137343203Y-97151806D01*
X137329047Y-97172568D01*
X137292148Y-97182462D01*
X137252289Y-97184292D01*
X137180562Y-97170727D01*
X137143432Y-97151355D01*
X137097576Y-97105845D01*
X137073256Y-97049983D01*
X137071073Y-96990957D01*
X137091629Y-96935953D01*
X137122549Y-96901486D01*
X137153420Y-96882189D01*
X137201942Y-96857759D01*
X137258485Y-96832985D01*
X137267910Y-96829199D01*
X137330019Y-96801791D01*
X137365822Y-96777634D01*
X137377337Y-96753619D01*
X137366580Y-96726635D01*
X137348114Y-96705543D01*
X137304469Y-96679572D01*
X137256446Y-96677624D01*
X137212406Y-96697637D01*
X137180709Y-96737551D01*
X137176549Y-96747848D01*
X137152327Y-96785724D01*
X137116965Y-96813842D01*
X137072343Y-96836917D01*
X137072343Y-96771485D01*
X137074969Y-96731506D01*
X137086230Y-96699997D01*
X137111199Y-96666378D01*
X137135169Y-96640484D01*
X137172441Y-96603817D01*
X137201401Y-96584121D01*
X137232505Y-96576220D01*
X137267713Y-96574914D01*
X137344876Y-96586335D01*
G36*
X133043233Y-96772748D02*
G01*
X133182514Y-96772748D01*
X133184324Y-96804753D01*
X133194222Y-96814093D01*
X133218898Y-96807105D01*
X133257795Y-96790587D01*
X133301275Y-96769881D01*
X133302356Y-96769333D01*
X133339209Y-96749949D01*
X133354000Y-96737013D01*
X133350353Y-96723451D01*
X133334995Y-96705632D01*
X133295923Y-96679845D01*
X133253846Y-96677950D01*
X133216103Y-96696717D01*
X133190034Y-96732915D01*
X133182514Y-96772748D01*
X133043233Y-96772748D01*
X133047194Y-96736027D01*
X133071550Y-96666212D01*
X133105456Y-96617302D01*
X133166653Y-96567878D01*
X133234063Y-96543359D01*
X133302880Y-96541797D01*
X133368303Y-96561239D01*
X133425527Y-96599735D01*
X133469749Y-96655335D01*
X133496167Y-96726086D01*
X133501510Y-96778162D01*
X133500903Y-96799893D01*
X133495822Y-96816531D01*
X133481855Y-96831437D01*
X133454589Y-96847973D01*
X133409612Y-96869498D01*
X133342511Y-96899374D01*
X133342171Y-96899524D01*
X133280407Y-96927813D01*
X133229759Y-96952933D01*
X133195404Y-96972179D01*
X133182518Y-96982848D01*
X133182514Y-96982934D01*
X133193872Y-97006166D01*
X133220431Y-97031774D01*
X133250923Y-97050221D01*
X133266370Y-97053886D01*
X133308515Y-97041212D01*
X133344808Y-97009471D01*
X133362517Y-96974572D01*
X133379552Y-96948845D01*
X133412922Y-96919546D01*
X133452149Y-96894235D01*
X133486756Y-96880471D01*
X133493993Y-96879714D01*
X133502139Y-96892160D01*
X133502630Y-96923972D01*
X133496643Y-96966866D01*
X133485357Y-97012558D01*
X133469950Y-97052761D01*
X133469171Y-97054322D01*
X133422804Y-97119062D01*
X133362711Y-97163097D01*
X133294465Y-97184711D01*
X133223638Y-97182185D01*
X133155804Y-97153804D01*
X133152788Y-97151808D01*
X133099427Y-97103448D01*
X133064340Y-97040352D01*
X133044922Y-96957387D01*
X133042316Y-96934078D01*
X133037701Y-96824055D01*
X133043233Y-96772748D01*
G37*
X133043233Y-96772748D02*
X133182514Y-96772748D01*
X133184324Y-96804753D01*
X133194222Y-96814093D01*
X133218898Y-96807105D01*
X133257795Y-96790587D01*
X133301275Y-96769881D01*
X133302356Y-96769333D01*
X133339209Y-96749949D01*
X133354000Y-96737013D01*
X133350353Y-96723451D01*
X133334995Y-96705632D01*
X133295923Y-96679845D01*
X133253846Y-96677950D01*
X133216103Y-96696717D01*
X133190034Y-96732915D01*
X133182514Y-96772748D01*
X133043233Y-96772748D01*
X133047194Y-96736027D01*
X133071550Y-96666212D01*
X133105456Y-96617302D01*
X133166653Y-96567878D01*
X133234063Y-96543359D01*
X133302880Y-96541797D01*
X133368303Y-96561239D01*
X133425527Y-96599735D01*
X133469749Y-96655335D01*
X133496167Y-96726086D01*
X133501510Y-96778162D01*
X133500903Y-96799893D01*
X133495822Y-96816531D01*
X133481855Y-96831437D01*
X133454589Y-96847973D01*
X133409612Y-96869498D01*
X133342511Y-96899374D01*
X133342171Y-96899524D01*
X133280407Y-96927813D01*
X133229759Y-96952933D01*
X133195404Y-96972179D01*
X133182518Y-96982848D01*
X133182514Y-96982934D01*
X133193872Y-97006166D01*
X133220431Y-97031774D01*
X133250923Y-97050221D01*
X133266370Y-97053886D01*
X133308515Y-97041212D01*
X133344808Y-97009471D01*
X133362517Y-96974572D01*
X133379552Y-96948845D01*
X133412922Y-96919546D01*
X133452149Y-96894235D01*
X133486756Y-96880471D01*
X133493993Y-96879714D01*
X133502139Y-96892160D01*
X133502630Y-96923972D01*
X133496643Y-96966866D01*
X133485357Y-97012558D01*
X133469950Y-97052761D01*
X133469171Y-97054322D01*
X133422804Y-97119062D01*
X133362711Y-97163097D01*
X133294465Y-97184711D01*
X133223638Y-97182185D01*
X133155804Y-97153804D01*
X133152788Y-97151808D01*
X133099427Y-97103448D01*
X133064340Y-97040352D01*
X133044922Y-96957387D01*
X133042316Y-96934078D01*
X133037701Y-96824055D01*
X133043233Y-96772748D01*
G36*
X135729926Y-96579755D02*
G01*
X135795858Y-96604084D01*
X135849273Y-96647117D01*
X135870164Y-96677409D01*
X135892939Y-96732994D01*
X135892466Y-96773186D01*
X135868562Y-96800217D01*
X135859717Y-96804813D01*
X135821530Y-96819144D01*
X135802028Y-96815472D01*
X135795422Y-96791407D01*
X135795086Y-96778114D01*
X135782992Y-96729210D01*
X135751471Y-96694999D01*
X135707659Y-96678476D01*
X135658695Y-96682634D01*
X135618894Y-96704227D01*
X135605450Y-96716544D01*
X135595921Y-96731487D01*
X135589485Y-96754075D01*
X135585317Y-96789328D01*
X135582597Y-96842266D01*
X135580502Y-96917907D01*
X135579960Y-96941857D01*
X135577981Y-97023790D01*
X135575731Y-97081455D01*
X135572357Y-97119608D01*
X135567006Y-97143004D01*
X135558824Y-97156398D01*
X135546959Y-97164545D01*
X135539362Y-97168144D01*
X135507102Y-97180452D01*
X135488111Y-97184514D01*
X135481836Y-97170948D01*
X135478006Y-97129934D01*
X135476600Y-97060999D01*
X135477598Y-96963669D01*
X135477908Y-96948657D01*
X135480101Y-96859859D01*
X135482693Y-96795019D01*
X135486382Y-96749067D01*
X135491864Y-96716935D01*
X135499835Y-96693553D01*
X135510993Y-96673852D01*
X135516830Y-96665410D01*
X135550296Y-96628057D01*
X135587727Y-96599003D01*
X135592309Y-96596467D01*
X135659426Y-96576443D01*
X135729926Y-96579755D01*
G37*
X135729926Y-96579755D02*
X135795858Y-96604084D01*
X135849273Y-96647117D01*
X135870164Y-96677409D01*
X135892939Y-96732994D01*
X135892466Y-96773186D01*
X135868562Y-96800217D01*
X135859717Y-96804813D01*
X135821530Y-96819144D01*
X135802028Y-96815472D01*
X135795422Y-96791407D01*
X135795086Y-96778114D01*
X135782992Y-96729210D01*
X135751471Y-96694999D01*
X135707659Y-96678476D01*
X135658695Y-96682634D01*
X135618894Y-96704227D01*
X135605450Y-96716544D01*
X135595921Y-96731487D01*
X135589485Y-96754075D01*
X135585317Y-96789328D01*
X135582597Y-96842266D01*
X135580502Y-96917907D01*
X135579960Y-96941857D01*
X135577981Y-97023790D01*
X135575731Y-97081455D01*
X135572357Y-97119608D01*
X135567006Y-97143004D01*
X135558824Y-97156398D01*
X135546959Y-97164545D01*
X135539362Y-97168144D01*
X135507102Y-97180452D01*
X135488111Y-97184514D01*
X135481836Y-97170948D01*
X135478006Y-97129934D01*
X135476600Y-97060999D01*
X135477598Y-96963669D01*
X135477908Y-96948657D01*
X135480101Y-96859859D01*
X135482693Y-96795019D01*
X135486382Y-96749067D01*
X135491864Y-96716935D01*
X135499835Y-96693553D01*
X135510993Y-96673852D01*
X135516830Y-96665410D01*
X135550296Y-96628057D01*
X135587727Y-96599003D01*
X135592309Y-96596467D01*
X135659426Y-96576443D01*
X135729926Y-96579755D01*
G36*
X132491472Y-96858603D02*
G01*
X132630971Y-96858603D01*
X132631755Y-96920499D01*
X132635240Y-96960997D01*
X132643124Y-96987708D01*
X132657105Y-97008244D01*
X132666597Y-97018260D01*
X132705404Y-97047567D01*
X132739763Y-97049952D01*
X132775216Y-97025750D01*
X132776114Y-97024857D01*
X132790539Y-97006153D01*
X132799313Y-96980732D01*
X132803739Y-96941584D01*
X132805118Y-96881697D01*
X132805143Y-96868430D01*
X132801812Y-96785901D01*
X132790969Y-96728691D01*
X132771340Y-96693766D01*
X132741650Y-96678094D01*
X132724491Y-96676514D01*
X132683766Y-96683926D01*
X132655832Y-96708330D01*
X132639017Y-96752980D01*
X132631650Y-96821130D01*
X132630971Y-96858603D01*
X132491472Y-96858603D01*
X132491708Y-96845245D01*
X132493677Y-96780333D01*
X132496450Y-96732958D01*
X132500388Y-96699290D01*
X132505849Y-96675498D01*
X132513192Y-96657753D01*
X132522777Y-96642224D01*
X132526887Y-96636381D01*
X132581405Y-96581185D01*
X132650336Y-96549890D01*
X132730072Y-96541165D01*
X132799744Y-96549918D01*
X132855201Y-96577568D01*
X132904148Y-96628480D01*
X132917629Y-96647338D01*
X132932314Y-96672015D01*
X132941842Y-96698816D01*
X132947293Y-96734587D01*
X132949747Y-96786169D01*
X132950286Y-96854267D01*
X132947852Y-96947588D01*
X132939394Y-97017657D01*
X132923174Y-97069931D01*
X132897454Y-97109869D01*
X132860497Y-97142929D01*
X132857782Y-97144886D01*
X132821360Y-97164908D01*
X132777502Y-97174815D01*
X132721724Y-97177257D01*
X132631048Y-97177257D01*
X132631010Y-97265283D01*
X132630166Y-97314308D01*
X132625024Y-97343065D01*
X132611587Y-97360311D01*
X132585858Y-97374808D01*
X132579679Y-97377769D01*
X132550764Y-97391648D01*
X132528376Y-97400414D01*
X132511729Y-97401171D01*
X132500036Y-97391023D01*
X132492510Y-97367073D01*
X132488366Y-97326426D01*
X132486815Y-97266186D01*
X132487071Y-97183455D01*
X132488349Y-97075339D01*
X132488748Y-97043000D01*
X132490185Y-96931524D01*
X132491472Y-96858603D01*
G37*
X132491472Y-96858603D02*
X132630971Y-96858603D01*
X132631755Y-96920499D01*
X132635240Y-96960997D01*
X132643124Y-96987708D01*
X132657105Y-97008244D01*
X132666597Y-97018260D01*
X132705404Y-97047567D01*
X132739763Y-97049952D01*
X132775216Y-97025750D01*
X132776114Y-97024857D01*
X132790539Y-97006153D01*
X132799313Y-96980732D01*
X132803739Y-96941584D01*
X132805118Y-96881697D01*
X132805143Y-96868430D01*
X132801812Y-96785901D01*
X132790969Y-96728691D01*
X132771340Y-96693766D01*
X132741650Y-96678094D01*
X132724491Y-96676514D01*
X132683766Y-96683926D01*
X132655832Y-96708330D01*
X132639017Y-96752980D01*
X132631650Y-96821130D01*
X132630971Y-96858603D01*
X132491472Y-96858603D01*
X132491708Y-96845245D01*
X132493677Y-96780333D01*
X132496450Y-96732958D01*
X132500388Y-96699290D01*
X132505849Y-96675498D01*
X132513192Y-96657753D01*
X132522777Y-96642224D01*
X132526887Y-96636381D01*
X132581405Y-96581185D01*
X132650336Y-96549890D01*
X132730072Y-96541165D01*
X132799744Y-96549918D01*
X132855201Y-96577568D01*
X132904148Y-96628480D01*
X132917629Y-96647338D01*
X132932314Y-96672015D01*
X132941842Y-96698816D01*
X132947293Y-96734587D01*
X132949747Y-96786169D01*
X132950286Y-96854267D01*
X132947852Y-96947588D01*
X132939394Y-97017657D01*
X132923174Y-97069931D01*
X132897454Y-97109869D01*
X132860497Y-97142929D01*
X132857782Y-97144886D01*
X132821360Y-97164908D01*
X132777502Y-97174815D01*
X132721724Y-97177257D01*
X132631048Y-97177257D01*
X132631010Y-97265283D01*
X132630166Y-97314308D01*
X132625024Y-97343065D01*
X132611587Y-97360311D01*
X132585858Y-97374808D01*
X132579679Y-97377769D01*
X132550764Y-97391648D01*
X132528376Y-97400414D01*
X132511729Y-97401171D01*
X132500036Y-97391023D01*
X132492510Y-97367073D01*
X132488366Y-97326426D01*
X132486815Y-97266186D01*
X132487071Y-97183455D01*
X132488349Y-97075339D01*
X132488748Y-97043000D01*
X132490185Y-96931524D01*
X132491472Y-96858603D01*
D12*
%TO.C,R25*%
X142452258Y-69717500D02*
X141977742Y-69717500D01*
X142452258Y-70762500D02*
X141977742Y-70762500D01*
%TO.C,J5*%
X125600000Y-83140000D02*
X127660000Y-83140000D01*
X124600000Y-85260000D02*
X123540000Y-85260000D01*
X123540000Y-85260000D02*
X123540000Y-84200000D01*
X125600000Y-85260000D02*
X125600000Y-83140000D01*
X127660000Y-85260000D02*
X127660000Y-83140000D01*
X125600000Y-85260000D02*
X127660000Y-85260000D01*
%TO.C,J6*%
X125600000Y-86340000D02*
X127660000Y-86340000D01*
X124600000Y-88460000D02*
X123540000Y-88460000D01*
X123540000Y-88460000D02*
X123540000Y-87400000D01*
X125600000Y-88460000D02*
X125600000Y-86340000D01*
X127660000Y-88460000D02*
X127660000Y-86340000D01*
X125600000Y-88460000D02*
X127660000Y-88460000D01*
%TO.C,J7*%
X124140000Y-65900000D02*
X124140000Y-63840000D01*
X126260000Y-66900000D02*
X126260000Y-67960000D01*
X126260000Y-67960000D02*
X125200000Y-67960000D01*
X126260000Y-65900000D02*
X124140000Y-65900000D01*
X126260000Y-63840000D02*
X124140000Y-63840000D01*
X126260000Y-65900000D02*
X126260000Y-63840000D01*
%TO.C,R26*%
X136902742Y-77162500D02*
X137377258Y-77162500D01*
X136902742Y-76117500D02*
X137377258Y-76117500D01*
%TO.C,R17*%
X136902742Y-75322500D02*
X137377258Y-75322500D01*
X136902742Y-74277500D02*
X137377258Y-74277500D01*
%TO.C,C9*%
X118965580Y-58290000D02*
X118684420Y-58290000D01*
X118965580Y-59310000D02*
X118684420Y-59310000D01*
%TO.C,R29*%
X140637742Y-67222500D02*
X141112258Y-67222500D01*
X140637742Y-66177500D02*
X141112258Y-66177500D01*
%TO.C,R30*%
X125127258Y-58287500D02*
X124652742Y-58287500D01*
X125127258Y-59332500D02*
X124652742Y-59332500D01*
%TO.C,R28*%
X140637742Y-65422500D02*
X141112258Y-65422500D01*
X140637742Y-64377500D02*
X141112258Y-64377500D01*
%TO.C,R27*%
X125112258Y-60007500D02*
X124637742Y-60007500D01*
X125112258Y-61052500D02*
X124637742Y-61052500D01*
%TD*%
M02*
