%TF.GenerationSoftware,KiCad,Pcbnew,(7.0.0)*%
%TF.CreationDate,2023-03-07T20:08:13+00:00*%
%TF.ProjectId,OpenBCI_ESP32_ADS1298,4f70656e-4243-4495-9f45-535033325f41,rev?*%
%TF.SameCoordinates,Original*%
%TF.FileFunction,Paste,Top*%
%TF.FilePolarity,Positive*%
%FSLAX46Y46*%
G04 Gerber Fmt 4.6, Leading zero omitted, Abs format (unit mm)*
G04 Created by KiCad (PCBNEW (7.0.0)) date 2023-03-07 20:08:13*
%MOMM*%
%LPD*%
G01*
G04 APERTURE LIST*
G04 Aperture macros list*
%AMRoundRect*
0 Rectangle with rounded corners*
0 $1 Rounding radius*
0 $2 $3 $4 $5 $6 $7 $8 $9 X,Y pos of 4 corners*
0 Add a 4 corners polygon primitive as box body*
4,1,4,$2,$3,$4,$5,$6,$7,$8,$9,$2,$3,0*
0 Add four circle primitives for the rounded corners*
1,1,$1+$1,$2,$3*
1,1,$1+$1,$4,$5*
1,1,$1+$1,$6,$7*
1,1,$1+$1,$8,$9*
0 Add four rect primitives between the rounded corners*
20,1,$1+$1,$2,$3,$4,$5,0*
20,1,$1+$1,$4,$5,$6,$7,0*
20,1,$1+$1,$6,$7,$8,$9,0*
20,1,$1+$1,$8,$9,$2,$3,0*%
G04 Aperture macros list end*
%ADD10RoundRect,0.225000X-0.225000X-0.250000X0.225000X-0.250000X0.225000X0.250000X-0.225000X0.250000X0*%
%ADD11RoundRect,0.250000X-0.475000X0.250000X-0.475000X-0.250000X0.475000X-0.250000X0.475000X0.250000X0*%
%ADD12RoundRect,0.225000X-0.250000X0.225000X-0.250000X-0.225000X0.250000X-0.225000X0.250000X0.225000X0*%
%ADD13RoundRect,0.200000X0.200000X0.275000X-0.200000X0.275000X-0.200000X-0.275000X0.200000X-0.275000X0*%
%ADD14R,0.650000X0.400000*%
%ADD15C,0.554000*%
%ADD16RoundRect,0.225000X0.225000X0.250000X-0.225000X0.250000X-0.225000X-0.250000X0.225000X-0.250000X0*%
%ADD17RoundRect,0.200000X-0.200000X-0.275000X0.200000X-0.275000X0.200000X0.275000X-0.200000X0.275000X0*%
G04 APERTURE END LIST*
D10*
%TO.C,C1*%
X119225000Y-87300000D03*
X120775000Y-87300000D03*
%TD*%
%TO.C,C2*%
X119225000Y-83900000D03*
X120775000Y-83900000D03*
%TD*%
%TO.C,C3*%
X119225000Y-80400000D03*
X120775000Y-80400000D03*
%TD*%
%TO.C,C4*%
X120775000Y-77000000D03*
X119225000Y-77000000D03*
%TD*%
%TO.C,C5*%
X119225000Y-73600000D03*
X120775000Y-73600000D03*
%TD*%
%TO.C,C6*%
X119225000Y-70200000D03*
X120775000Y-70200000D03*
%TD*%
%TO.C,C7*%
X119225000Y-66800000D03*
X120775000Y-66800000D03*
%TD*%
%TO.C,C8*%
X119225000Y-63400000D03*
X120775000Y-63400000D03*
%TD*%
D11*
%TO.C,C17*%
X131030000Y-79540000D03*
X131030000Y-81440000D03*
%TD*%
D12*
%TO.C,C18*%
X136700000Y-79490000D03*
X136700000Y-81040000D03*
%TD*%
D10*
%TO.C,C19*%
X131465000Y-66190000D03*
X133015000Y-66190000D03*
%TD*%
%TO.C,C20*%
X133015000Y-67890000D03*
X131465000Y-67890000D03*
%TD*%
D12*
%TO.C,C21*%
X124830000Y-79400000D03*
X124830000Y-80950000D03*
%TD*%
D11*
%TO.C,C22*%
X126630000Y-79450000D03*
X126630000Y-81350000D03*
%TD*%
D12*
%TO.C,C23*%
X128430000Y-79420000D03*
X128430000Y-80970000D03*
%TD*%
D10*
%TO.C,C25*%
X136350000Y-71995000D03*
X137900000Y-71995000D03*
%TD*%
%TO.C,C26*%
X136355000Y-70195000D03*
X137905000Y-70195000D03*
%TD*%
%TO.C,C27*%
X134615000Y-67910000D03*
X136165000Y-67910000D03*
%TD*%
%TO.C,C28*%
X134635000Y-66200000D03*
X136185000Y-66200000D03*
%TD*%
D12*
%TO.C,C29*%
X133550000Y-79490000D03*
X133550000Y-81040000D03*
%TD*%
%TO.C,C30*%
X135130000Y-79490000D03*
X135130000Y-81040000D03*
%TD*%
D10*
%TO.C,C31*%
X128305000Y-67910000D03*
X129855000Y-67910000D03*
%TD*%
%TO.C,C32*%
X128295000Y-66180000D03*
X129845000Y-66180000D03*
%TD*%
D13*
%TO.C,R1*%
X120825000Y-89000000D03*
X119175000Y-89000000D03*
%TD*%
%TO.C,R2*%
X120825000Y-85600000D03*
X119175000Y-85600000D03*
%TD*%
%TO.C,R3*%
X120825000Y-82200000D03*
X119175000Y-82200000D03*
%TD*%
%TO.C,R4*%
X119175000Y-78700000D03*
X120825000Y-78700000D03*
%TD*%
%TO.C,R5*%
X120825000Y-75300000D03*
X119175000Y-75300000D03*
%TD*%
%TO.C,R6*%
X120825000Y-71900000D03*
X119175000Y-71900000D03*
%TD*%
%TO.C,R7*%
X120825000Y-68500000D03*
X119175000Y-68500000D03*
%TD*%
%TO.C,R8*%
X120825000Y-65100000D03*
X119175000Y-65100000D03*
%TD*%
%TO.C,R9*%
X116825000Y-89000000D03*
X115175000Y-89000000D03*
%TD*%
%TO.C,R10*%
X116825000Y-85600000D03*
X115175000Y-85600000D03*
%TD*%
%TO.C,R11*%
X116825000Y-82200000D03*
X115175000Y-82200000D03*
%TD*%
%TO.C,R12*%
X116825000Y-78700000D03*
X115175000Y-78700000D03*
%TD*%
%TO.C,R13*%
X116825000Y-75300000D03*
X115175000Y-75300000D03*
%TD*%
%TO.C,R14*%
X116825000Y-71900000D03*
X115175000Y-71900000D03*
%TD*%
%TO.C,R15*%
X116825000Y-68500000D03*
X115175000Y-68500000D03*
%TD*%
%TO.C,R16*%
X116825000Y-65100000D03*
X115175000Y-65100000D03*
%TD*%
D14*
%TO.C,U1*%
X110049999Y-89349999D03*
X110049999Y-89999999D03*
X110049999Y-90649999D03*
X111949999Y-90649999D03*
X111949999Y-89999999D03*
X111949999Y-89349999D03*
%TD*%
%TO.C,U2*%
X110049999Y-84349999D03*
X110049999Y-84999999D03*
X110049999Y-85649999D03*
X111949999Y-85649999D03*
X111949999Y-84999999D03*
X111949999Y-84349999D03*
%TD*%
%TO.C,U3*%
X110049999Y-77349999D03*
X110049999Y-77999999D03*
X110049999Y-78649999D03*
X111949999Y-78649999D03*
X111949999Y-77999999D03*
X111949999Y-77349999D03*
%TD*%
%TO.C,U4*%
X110049999Y-72349999D03*
X110049999Y-72999999D03*
X110049999Y-73649999D03*
X111949999Y-73649999D03*
X111949999Y-72999999D03*
X111949999Y-72349999D03*
%TD*%
%TO.C,U5*%
X110049999Y-68349999D03*
X110049999Y-68999999D03*
X110049999Y-69649999D03*
X111949999Y-69649999D03*
X111949999Y-68999999D03*
X111949999Y-68349999D03*
%TD*%
%TO.C,U6*%
X110049999Y-64349999D03*
X110049999Y-64999999D03*
X110049999Y-65649999D03*
X111949999Y-65649999D03*
X111949999Y-64999999D03*
X111949999Y-64349999D03*
%TD*%
D15*
%TO.C,U7*%
X133800000Y-76800000D03*
X133000000Y-76800000D03*
X132200000Y-76800000D03*
X131400000Y-76800000D03*
X130600000Y-76800000D03*
X129800000Y-76800000D03*
X129000000Y-76800000D03*
X128200000Y-76800000D03*
X133800000Y-76000000D03*
X133000000Y-76000000D03*
X132200000Y-76000000D03*
X131400000Y-76000000D03*
X130600000Y-76000000D03*
X129800000Y-76000000D03*
X129000000Y-76000000D03*
X128200000Y-76000000D03*
X133800000Y-75200000D03*
X133000000Y-75200000D03*
X132200000Y-75200000D03*
X131400000Y-75200000D03*
X130600000Y-75200000D03*
X129800000Y-75200000D03*
X129000000Y-75200000D03*
X128200000Y-75200000D03*
X133800000Y-74400000D03*
X133000000Y-74400000D03*
X132200000Y-74400000D03*
X131400000Y-74400000D03*
X130600000Y-74400000D03*
X129800000Y-74400000D03*
X129000000Y-74400000D03*
X128200000Y-74400000D03*
X133800000Y-73600000D03*
X133000000Y-73600000D03*
X132200000Y-73600000D03*
X131400000Y-73600000D03*
X130600000Y-73600000D03*
X129800000Y-73600000D03*
X129000000Y-73600000D03*
X128200000Y-73600000D03*
X133800000Y-72800000D03*
X133000000Y-72800000D03*
X132200000Y-72800000D03*
X131400000Y-72800000D03*
X130600000Y-72800000D03*
X129800000Y-72800000D03*
X129000000Y-72800000D03*
X128200000Y-72800000D03*
X133800000Y-72000000D03*
X133000000Y-72000000D03*
X132200000Y-72000000D03*
X131400000Y-72000000D03*
X130600000Y-72000000D03*
X129800000Y-72000000D03*
X129000000Y-72000000D03*
X128200000Y-72000000D03*
X133800000Y-71200000D03*
X133000000Y-71200000D03*
X132200000Y-71200000D03*
X131400000Y-71200000D03*
X130600000Y-71200000D03*
X129800000Y-71200000D03*
X129000000Y-71200000D03*
X128200000Y-71200000D03*
%TD*%
D13*
%TO.C,R18*%
X143035000Y-76640000D03*
X141385000Y-76640000D03*
%TD*%
%TO.C,R19*%
X143035000Y-78340000D03*
X141385000Y-78340000D03*
%TD*%
%TO.C,R20*%
X143025000Y-72000000D03*
X141375000Y-72000000D03*
%TD*%
%TO.C,R21*%
X143025000Y-73700000D03*
X141375000Y-73700000D03*
%TD*%
D16*
%TO.C,C33*%
X115775000Y-58775000D03*
X114225000Y-58775000D03*
%TD*%
%TO.C,C34*%
X120775000Y-90700000D03*
X119225000Y-90700000D03*
%TD*%
D13*
%TO.C,R22*%
X115825000Y-60475000D03*
X114175000Y-60475000D03*
%TD*%
%TO.C,R23*%
X120825000Y-92400000D03*
X119175000Y-92400000D03*
%TD*%
D17*
%TO.C,R24*%
X118000000Y-60500000D03*
X119650000Y-60500000D03*
%TD*%
D13*
%TO.C,R25*%
X143040000Y-70240000D03*
X141390000Y-70240000D03*
%TD*%
D17*
%TO.C,R26*%
X136315000Y-76640000D03*
X137965000Y-76640000D03*
%TD*%
%TO.C,R17*%
X136315000Y-74800000D03*
X137965000Y-74800000D03*
%TD*%
D16*
%TO.C,C9*%
X119600000Y-58800000D03*
X118050000Y-58800000D03*
%TD*%
D17*
%TO.C,R29*%
X140050000Y-66700000D03*
X141700000Y-66700000D03*
%TD*%
D13*
%TO.C,R30*%
X125715000Y-58810000D03*
X124065000Y-58810000D03*
%TD*%
D17*
%TO.C,R28*%
X140050000Y-64900000D03*
X141700000Y-64900000D03*
%TD*%
D13*
%TO.C,R27*%
X125700000Y-60530000D03*
X124050000Y-60530000D03*
%TD*%
M02*
