M48
; DRILL file {KiCad (6.0.0)} date Sun Jan 16 13:19:56 2022
; FORMAT={-:-/ absolute / metric / decimal}
; #@! TF.CreationDate,2022-01-16T13:19:56+00:00
; #@! TF.GenerationSoftware,Kicad,Pcbnew,(6.0.0)
; #@! TF.FileFunction,MixedPlating,1,2
FMAT,2
METRIC
; #@! TA.AperFunction,Plated,PTH,ViaDrill
T1C0.400
; #@! TA.AperFunction,Plated,PTH,ViaDrill
T2C0.600
; #@! TA.AperFunction,Plated,PTH,ComponentDrill
T3C1.000
; #@! TA.AperFunction,NonPlated,NPTH,ComponentDrill
T4C2.700
%
G90
G05
T1
X109.158Y-85.834
X109.166Y-78.536
X109.2Y-65.9
X109.2Y-69.9
X109.2Y-73.9
X109.2Y-89.2
X109.2Y-90.9
X114.214Y-76.688
X114.3Y-60.5
X114.3Y-63.9
X114.3Y-67.3
X114.3Y-70.7
X114.3Y-74.1
X114.3Y-87.8
X114.336Y-83.59
X114.369Y-80.112
X118.3Y-63.9
X118.3Y-67.3
X118.3Y-70.7
X118.3Y-74.1
X118.3Y-77.5
X118.3Y-84.4
X118.3Y-87.8
X118.3Y-91.1
X118.3Y-94.6
X118.313Y-80.913
X126.8Y-68.5
X128.4Y-84.8
X128.5Y-63.4
X129.0Y-70.1
X129.2Y-81.6
X132.7Y-67.3
X134.3Y-67.3
X134.325Y-70.3
X135.05Y-71.05
X135.52Y-77.757
X138.6Y-73.925
X139.9Y-70.6
T2
X136.0Y-67.6
X137.3Y-68.3
X138.6Y-69.8
T3
X103.97Y-59.75
X103.97Y-62.29
X103.97Y-64.83
X103.97Y-67.37
X103.97Y-69.91
X103.97Y-72.45
X103.97Y-74.99
X103.97Y-77.53
X103.97Y-80.07
X103.97Y-82.61
X103.97Y-85.15
X103.97Y-87.69
X103.97Y-90.23
X106.51Y-59.75
X106.51Y-62.29
X106.51Y-64.83
X106.51Y-67.37
X106.51Y-69.91
X106.51Y-72.45
X106.51Y-74.99
X106.51Y-77.53
X106.51Y-80.07
X106.51Y-82.61
X106.51Y-85.15
X106.51Y-87.69
X106.51Y-90.23
X111.0Y-52.0
X111.0Y-54.54
X111.0Y-95.5
X111.0Y-98.04
X113.54Y-52.0
X113.54Y-54.54
X113.54Y-95.5
X113.54Y-98.04
X116.08Y-52.0
X116.08Y-54.54
X145.66Y-69.5
X145.66Y-72.04
X145.66Y-74.58
X145.66Y-77.12
X145.66Y-79.66
X145.66Y-82.2
X145.66Y-84.74
X145.66Y-87.28
X148.2Y-69.5
X148.2Y-72.04
X148.2Y-74.58
X148.2Y-77.12
X148.2Y-79.66
X148.2Y-82.2
X148.2Y-84.74
X148.2Y-87.28
T4
X104.0Y-54.0
X104.0Y-96.0
X146.0Y-54.0
X146.0Y-96.0
T0
M30
