%TF.GenerationSoftware,KiCad,Pcbnew,(6.0.1)*%
%TF.CreationDate,2022-02-11T18:11:36+00:00*%
%TF.ProjectId,OpenBCI_ESP32_BASE,4f70656e-4243-4495-9f45-535033325f42,rev?*%
%TF.SameCoordinates,Original*%
%TF.FileFunction,Copper,L2,Bot*%
%TF.FilePolarity,Positive*%
%FSLAX46Y46*%
G04 Gerber Fmt 4.6, Leading zero omitted, Abs format (unit mm)*
G04 Created by KiCad (PCBNEW (6.0.1)) date 2022-02-11 18:11:36*
%MOMM*%
%LPD*%
G01*
G04 APERTURE LIST*
G04 Aperture macros list*
%AMRoundRect*
0 Rectangle with rounded corners*
0 $1 Rounding radius*
0 $2 $3 $4 $5 $6 $7 $8 $9 X,Y pos of 4 corners*
0 Add a 4 corners polygon primitive as box body*
4,1,4,$2,$3,$4,$5,$6,$7,$8,$9,$2,$3,0*
0 Add four circle primitives for the rounded corners*
1,1,$1+$1,$2,$3*
1,1,$1+$1,$4,$5*
1,1,$1+$1,$6,$7*
1,1,$1+$1,$8,$9*
0 Add four rect primitives between the rounded corners*
20,1,$1+$1,$2,$3,$4,$5,0*
20,1,$1+$1,$4,$5,$6,$7,0*
20,1,$1+$1,$6,$7,$8,$9,0*
20,1,$1+$1,$8,$9,$2,$3,0*%
G04 Aperture macros list end*
%TA.AperFunction,ComponentPad*%
%ADD10O,1.200000X2.000000*%
%TD*%
%TA.AperFunction,ComponentPad*%
%ADD11RoundRect,0.300000X0.300000X0.700000X-0.300000X0.700000X-0.300000X-0.700000X0.300000X-0.700000X0*%
%TD*%
%TA.AperFunction,ComponentPad*%
%ADD12R,1.700000X1.700000*%
%TD*%
%TA.AperFunction,ComponentPad*%
%ADD13O,1.700000X1.700000*%
%TD*%
%TA.AperFunction,ViaPad*%
%ADD14C,0.800000*%
%TD*%
%TA.AperFunction,Conductor*%
%ADD15C,0.250000*%
%TD*%
%TA.AperFunction,Conductor*%
%ADD16C,1.000000*%
%TD*%
%TA.AperFunction,Conductor*%
%ADD17C,0.500000*%
%TD*%
G04 APERTURE END LIST*
D10*
%TO.P,U2,1,3V3*%
%TO.N,+3V3*%
X148473580Y-65303680D03*
%TO.P,U2,2,CHIP_PU*%
%TO.N,unconnected-(U2-Pad2)*%
X145933580Y-65303680D03*
%TO.P,U2,3,SENSOR_VP/GPIO36/ADC1_CH0*%
%TO.N,Net-(R5-Pad2)*%
X143393580Y-65303680D03*
%TO.P,U2,4,SENSOR_VN/GPIO39/ADC1_CH3*%
%TO.N,unconnected-(U2-Pad4)*%
X140853580Y-65303680D03*
%TO.P,U2,5,VDET_1/GPIO34/ADC1_CH6*%
%TO.N,unconnected-(U2-Pad5)*%
X138313580Y-65303680D03*
%TO.P,U2,6,VDET_2/GPIO35/ADC1_CH7*%
%TO.N,unconnected-(U2-Pad6)*%
X135773580Y-65303680D03*
%TO.P,U2,7,32K_XP/GPIO32/ADC1_CH4*%
%TO.N,/OpenBCI_ESP_DEVKIT/SDCD*%
X133233580Y-65303680D03*
%TO.P,U2,8,32K_XN/GPIO33/ADC1_CH5*%
%TO.N,unconnected-(U2-Pad8)*%
X130693580Y-65303680D03*
%TO.P,U2,9,DAC_1/ADC2_CH8/GPIO25*%
%TO.N,/OpenBCI_ESP_DEVKIT/ADSDRDY1*%
X128153580Y-65303680D03*
%TO.P,U2,10,DAC_2/ADC2_CH9/GPIO26*%
%TO.N,/OpenBCI_ESP_DEVKIT/ADSDRDY2*%
X125613580Y-65303680D03*
%TO.P,U2,11,ADC2_CH7/GPIO27*%
%TO.N,/OpenBCI_ESP_DEVKIT/INT1*%
X123073580Y-65303680D03*
%TO.P,U2,12,MTMS/GPIO14/ADC2_CH6*%
%TO.N,/OpenBCI_ESP_DEVKIT/ADSCLK*%
X120533580Y-65303680D03*
%TO.P,U2,13,\u002AMTDI/GPIO12/ADC2_CH5*%
%TO.N,/OpenBCI_ESP_DEVKIT/ADSMISO*%
X117993580Y-65303680D03*
D11*
%TO.P,U2,14,GND*%
%TO.N,GND*%
X115453580Y-65303680D03*
D10*
%TO.P,U2,15,MTCK/GPIO13/ADC2_CH4*%
%TO.N,/OpenBCI_ESP_DEVKIT/ADSMOSI*%
X112913580Y-65303680D03*
%TO.P,U2,16,SD_DATA2/GPIO9*%
%TO.N,unconnected-(U2-Pad16)*%
X110373580Y-65303680D03*
%TO.P,U2,17,SD_DATA3/GPIO10*%
%TO.N,unconnected-(U2-Pad17)*%
X107833580Y-65303680D03*
%TO.P,U2,18,CMD*%
%TO.N,unconnected-(U2-Pad18)*%
X105293580Y-65303680D03*
%TO.P,U2,19,5V*%
%TO.N,+5V*%
X102753580Y-65303680D03*
%TO.P,U2,20,SD_CLK/GPIO6*%
%TO.N,unconnected-(U2-Pad20)*%
X102756300Y-90700000D03*
%TO.P,U2,21,SD_DATA0/GPIO7*%
%TO.N,unconnected-(U2-Pad21)*%
X105296300Y-90700000D03*
%TO.P,U2,22,SD_DATA1/GPIO8*%
%TO.N,unconnected-(U2-Pad22)*%
X107833580Y-90703680D03*
%TO.P,U2,23,\u002AMTDO/GPIO15/ADC2_CH3*%
%TO.N,/OpenBCI_ESP_DEVKIT/ADSCS1*%
X110373580Y-90703680D03*
%TO.P,U2,24,ADC2_CH2/\u002AGPIO2*%
%TO.N,unconnected-(U2-Pad24)*%
X112913580Y-90703680D03*
%TO.P,U2,25,\u002AGPIO0/BOOT/ADC2_CH1*%
%TO.N,unconnected-(U2-Pad25)*%
X115453580Y-90703680D03*
%TO.P,U2,26,ADC2_CH0/GPIO4*%
%TO.N,unconnected-(U2-Pad26)*%
X117993580Y-90703680D03*
%TO.P,U2,27,GPIO16*%
%TO.N,/OpenBCI_ESP_DEVKIT/ADSCS2*%
X120533580Y-90703680D03*
%TO.P,U2,28,GPIO17*%
%TO.N,/OpenBCI_ESP_DEVKIT/ADSRST*%
X123073580Y-90703680D03*
%TO.P,U2,29,\u002AGPIO5*%
%TO.N,/OpenBCI_ESP_DEVKIT/SDCS*%
X125613580Y-90703680D03*
%TO.P,U2,30,GPIO18*%
%TO.N,/OpenBCI_ESP_DEVKIT/SDCLK*%
X128153580Y-90703680D03*
%TO.P,U2,31,GPIO19*%
%TO.N,/OpenBCI_ESP_DEVKIT/SDMISO*%
X130693580Y-90703680D03*
%TO.P,U2,32,GND*%
%TO.N,GND*%
X133233580Y-90703680D03*
%TO.P,U2,33,GPIO21*%
%TO.N,/OpenBCI_ESP_DEVKIT/SDA*%
X135773580Y-90703680D03*
%TO.P,U2,34,U0RXD/GPIO3*%
%TO.N,unconnected-(U2-Pad34)*%
X138313580Y-90703680D03*
%TO.P,U2,35,U0TXD/GPIO1*%
%TO.N,unconnected-(U2-Pad35)*%
X140853580Y-90703680D03*
%TO.P,U2,36,GPIO22*%
%TO.N,/OpenBCI_ESP_DEVKIT/SCL*%
X143393580Y-90703680D03*
%TO.P,U2,37,GPIO23*%
%TO.N,/OpenBCI_ESP_DEVKIT/SDMOSI*%
X145933580Y-90703680D03*
D11*
%TO.P,U2,38,GND*%
%TO.N,GND*%
X148473580Y-90703680D03*
%TD*%
D12*
%TO.P,J2,1,Pin_1*%
%TO.N,GND*%
X111000000Y-52000000D03*
D13*
%TO.P,J2,2,Pin_2*%
%TO.N,+2V5*%
X111000000Y-54540000D03*
%TO.P,J2,3,Pin_3*%
%TO.N,GND*%
X113540000Y-52000000D03*
%TO.P,J2,4,Pin_4*%
%TO.N,+2V5*%
X113540000Y-54540000D03*
%TO.P,J2,5,Pin_5*%
%TO.N,GND*%
X116080000Y-52000000D03*
%TO.P,J2,6,Pin_6*%
%TO.N,unconnected-(J2-Pad6)*%
X116080000Y-54540000D03*
%TD*%
D12*
%TO.P,J3,1,Pin_1*%
%TO.N,GND*%
X111000000Y-95500000D03*
D13*
%TO.P,J3,2,Pin_2*%
%TO.N,-2V5*%
X111000000Y-98040000D03*
%TO.P,J3,3,Pin_3*%
%TO.N,GND*%
X113540000Y-95500000D03*
%TO.P,J3,4,Pin_4*%
%TO.N,-2V5*%
X113540000Y-98040000D03*
%TD*%
D12*
%TO.P,J4,1,Pin_1*%
%TO.N,+3V3*%
X148200000Y-69500000D03*
D13*
%TO.P,J4,2,Pin_2*%
X145660000Y-69500000D03*
%TO.P,J4,3,Pin_3*%
%TO.N,/OpenBCI_ESP_DEVKIT/ADSDRDY2*%
X148200000Y-72040000D03*
%TO.P,J4,4,Pin_4*%
%TO.N,/OpenBCI_ESP_DEVKIT/ADSDRDY1*%
X145660000Y-72040000D03*
%TO.P,J4,5,Pin_5*%
%TO.N,unconnected-(J4-Pad5)*%
X148200000Y-74580000D03*
%TO.P,J4,6,Pin_6*%
%TO.N,/OpenBCI_ESP_DEVKIT/ADSMISO*%
X145660000Y-74580000D03*
%TO.P,J4,7,Pin_7*%
%TO.N,unconnected-(J4-Pad7)*%
X148200000Y-77120000D03*
%TO.P,J4,8,Pin_8*%
%TO.N,/OpenBCI_ESP_DEVKIT/ADSCLK*%
X145660000Y-77120000D03*
%TO.P,J4,9,Pin_9*%
%TO.N,/OpenBCI_ESP_DEVKIT/ADSCS2*%
X148200000Y-79660000D03*
%TO.P,J4,10,Pin_10*%
%TO.N,/OpenBCI_ESP_DEVKIT/ADSCS1*%
X145660000Y-79660000D03*
%TO.P,J4,11,Pin_11*%
%TO.N,/OpenBCI_ESP_DEVKIT/ADSRST*%
X148200000Y-82200000D03*
%TO.P,J4,12,Pin_12*%
%TO.N,unconnected-(J4-Pad12)*%
X145660000Y-82200000D03*
%TO.P,J4,13,Pin_13*%
%TO.N,unconnected-(J4-Pad13)*%
X148200000Y-84740000D03*
%TO.P,J4,14,Pin_14*%
%TO.N,/OpenBCI_ESP_DEVKIT/ADSMOSI*%
X145660000Y-84740000D03*
%TO.P,J4,15,Pin_15*%
%TO.N,GND*%
X148200000Y-87280000D03*
%TO.P,J4,16,Pin_16*%
X145660000Y-87280000D03*
%TD*%
D14*
%TO.N,GND*%
X139250000Y-83400000D03*
X132750000Y-56700000D03*
X130500000Y-93000000D03*
X119350000Y-51600000D03*
X107850000Y-51500000D03*
X102350000Y-58400000D03*
X140950000Y-59150000D03*
X116500000Y-93300000D03*
X131800000Y-76000000D03*
X111050000Y-93250000D03*
X137033000Y-70688200D03*
X112100000Y-82450000D03*
X144700000Y-61600000D03*
X137800000Y-80600000D03*
X143050000Y-78750000D03*
X123480150Y-95800000D03*
X134050000Y-85900000D03*
X121350000Y-81800000D03*
X142950000Y-86300000D03*
X119400000Y-53850000D03*
X128000000Y-77100000D03*
X135000000Y-62850000D03*
X133150000Y-97850000D03*
X120800000Y-55900000D03*
X145950000Y-58450000D03*
X135100000Y-94050000D03*
X132750000Y-59200000D03*
X141500000Y-94000000D03*
X125650000Y-85900000D03*
X134650000Y-56750000D03*
X122550000Y-70350000D03*
X124150000Y-77400000D03*
X121300000Y-93250000D03*
X108150000Y-98150000D03*
X134750000Y-59250000D03*
X130750000Y-82900000D03*
X109950000Y-57850000D03*
X116650000Y-70550000D03*
X115900000Y-98600000D03*
X118850000Y-58300000D03*
X104650000Y-77250000D03*
X116950000Y-85150000D03*
X112100000Y-73050000D03*
X135600000Y-77000000D03*
%TO.N,+5V*%
X122100000Y-60825000D03*
%TO.N,Net-(C34-Pad1)*%
X122200000Y-71900000D03*
X129850000Y-67300000D03*
%TO.N,/OpenBCI_ESP_DEVKIT/INT1*%
X140251500Y-79500000D03*
X141900000Y-75700000D03*
X127250000Y-69500000D03*
%TO.N,/OpenBCI_ESP_DEVKIT/SDMOSI*%
X113299996Y-78300000D03*
X137600000Y-86500000D03*
%TO.N,/OpenBCI_ESP_DEVKIT/SCL*%
X136922280Y-79977720D03*
X136922280Y-84000000D03*
%TO.N,/OpenBCI_ESP_DEVKIT/ADSCLK*%
X122100000Y-67751500D03*
%TO.N,+3V3*%
X117100000Y-74848500D03*
X137800000Y-76800000D03*
X116300000Y-77250000D03*
X120700000Y-71300000D03*
X139600000Y-81500000D03*
X134350000Y-77751500D03*
X116500000Y-81500000D03*
%TO.N,/OpenBCI_ESP_DEVKIT/SDCD*%
X127600000Y-72100000D03*
%TD*%
D15*
%TO.N,GND*%
X137800000Y-79200000D02*
X135600000Y-77000000D01*
X128000000Y-77100000D02*
X135500000Y-77100000D01*
X137800000Y-80600000D02*
X137800000Y-79200000D01*
X135500000Y-77100000D02*
X135600000Y-77000000D01*
D16*
%TO.N,+5V*%
X103373600Y-63500000D02*
X121200000Y-63500000D01*
X103177280Y-65303680D02*
X103177280Y-63696320D01*
X122100000Y-62600000D02*
X122100000Y-60825000D01*
X103177280Y-63696320D02*
X103373600Y-63500000D01*
X121200000Y-63500000D02*
X122100000Y-62600000D01*
D17*
%TO.N,Net-(C34-Pad1)*%
X126229121Y-71900000D02*
X122200000Y-71900000D01*
X129850000Y-68279121D02*
X126229121Y-71900000D01*
X129850000Y-67300000D02*
X129850000Y-68279121D01*
D15*
%TO.N,/OpenBCI_ESP_DEVKIT/INT1*%
X140250000Y-77350000D02*
X141900000Y-75700000D01*
X123097280Y-65347280D02*
X123097280Y-65303680D01*
X127250000Y-69500000D02*
X123097280Y-65347280D01*
X140250000Y-79498500D02*
X140250000Y-77350000D01*
X140251500Y-79500000D02*
X140250000Y-79498500D01*
%TO.N,/OpenBCI_ESP_DEVKIT/SDMOSI*%
X113299996Y-79949996D02*
X113299996Y-78300000D01*
X135300000Y-84200000D02*
X117550000Y-84200000D01*
X137600000Y-86500000D02*
X135300000Y-84200000D01*
X117550000Y-84200000D02*
X113299996Y-79949996D01*
%TO.N,/OpenBCI_ESP_DEVKIT/SCL*%
X136922280Y-84000000D02*
X136922280Y-79977720D01*
%TO.N,/OpenBCI_ESP_DEVKIT/ADSCS2*%
X123410949Y-88250011D02*
X137813579Y-88250011D01*
X137813579Y-88250011D02*
X145228589Y-80835001D01*
X147024999Y-80835001D02*
X148200000Y-79660000D01*
X145228589Y-80835001D02*
X147024999Y-80835001D01*
X120957280Y-90703680D02*
X123410949Y-88250011D01*
%TO.N,/OpenBCI_ESP_DEVKIT/ADSRST*%
X137999978Y-88700022D02*
X143135001Y-83564999D01*
X143135001Y-83564999D02*
X146835001Y-83564999D01*
X123497280Y-90703680D02*
X125500938Y-88700022D01*
X146835001Y-83564999D02*
X148200000Y-82200000D01*
X125500938Y-88700022D02*
X137999978Y-88700022D01*
%TO.N,/OpenBCI_ESP_DEVKIT/ADSCS1*%
X113700960Y-87800000D02*
X137520000Y-87800000D01*
X110797280Y-90703680D02*
X113700960Y-87800000D01*
X137520000Y-87800000D02*
X145660000Y-79660000D01*
%TO.N,/OpenBCI_ESP_DEVKIT/ADSCLK*%
X122100000Y-66446400D02*
X120957280Y-65303680D01*
X122100000Y-67751500D02*
X122100000Y-66446400D01*
D17*
%TO.N,+3V3*%
X116500000Y-81500000D02*
X116300000Y-81300000D01*
X133998500Y-77751500D02*
X134350000Y-77751500D01*
D16*
X145660000Y-69500000D02*
X144520400Y-69500000D01*
D17*
X116500000Y-81500000D02*
X117900000Y-81500000D01*
X116300000Y-77250000D02*
X116300000Y-74900000D01*
D16*
X144520400Y-69500000D02*
X137800000Y-76220400D01*
D17*
X117900000Y-81500000D02*
X119900000Y-83500000D01*
X119900000Y-71300000D02*
X116950000Y-74250000D01*
D15*
X117100000Y-74848500D02*
X117100000Y-74400000D01*
D17*
X116300000Y-81300000D02*
X116300000Y-77250000D01*
X116300000Y-74900000D02*
X116950000Y-74250000D01*
D15*
X117100000Y-74400000D02*
X116950000Y-74250000D01*
D16*
X148200000Y-69500000D02*
X145660000Y-69500000D01*
D17*
X137800000Y-77750000D02*
X137800000Y-76800000D01*
X139600000Y-81500000D02*
X139150000Y-81050000D01*
X120700000Y-71300000D02*
X119900000Y-71300000D01*
D16*
X137800000Y-76220400D02*
X137800000Y-76800000D01*
D17*
X119900000Y-83500000D02*
X128250000Y-83500000D01*
X128250000Y-83500000D02*
X133998500Y-77751500D01*
X139150000Y-81050000D02*
X139150000Y-79100000D01*
X139150000Y-79100000D02*
X137800000Y-77750000D01*
D15*
%TO.N,/OpenBCI_ESP_DEVKIT/SDCD*%
X127600000Y-71900000D02*
X133657280Y-65842720D01*
X127600000Y-72100000D02*
X127600000Y-71900000D01*
X133657280Y-65842720D02*
X133657280Y-65303680D01*
%TD*%
%TA.AperFunction,Conductor*%
%TO.N,GND*%
G36*
X109849396Y-50528002D02*
G01*
X109895889Y-50581658D01*
X109905993Y-50651932D01*
X109876499Y-50716512D01*
X109856840Y-50734826D01*
X109794276Y-50781715D01*
X109781715Y-50794276D01*
X109705214Y-50896351D01*
X109696676Y-50911946D01*
X109651522Y-51032394D01*
X109647895Y-51047649D01*
X109642369Y-51098514D01*
X109642000Y-51105328D01*
X109642000Y-51727885D01*
X109646475Y-51743124D01*
X109647865Y-51744329D01*
X109655548Y-51746000D01*
X117398344Y-51746000D01*
X117411875Y-51742027D01*
X117413180Y-51732947D01*
X117371214Y-51565875D01*
X117367894Y-51556124D01*
X117282972Y-51360814D01*
X117278105Y-51351739D01*
X117162426Y-51172926D01*
X117156136Y-51164757D01*
X117012806Y-51007240D01*
X117005273Y-51000215D01*
X116838139Y-50868222D01*
X116829552Y-50862517D01*
X116643117Y-50759599D01*
X116633702Y-50755367D01*
X116626376Y-50752773D01*
X116568839Y-50711179D01*
X116542923Y-50645082D01*
X116556856Y-50575466D01*
X116606215Y-50524434D01*
X116668435Y-50508000D01*
X149366000Y-50508000D01*
X149434121Y-50528002D01*
X149480614Y-50581658D01*
X149492000Y-50634000D01*
X149492000Y-64044211D01*
X149471998Y-64112332D01*
X149418342Y-64158825D01*
X149348068Y-64168929D01*
X149283488Y-64139435D01*
X149280994Y-64137056D01*
X149279976Y-64135760D01*
X149120217Y-63997128D01*
X149115031Y-63994128D01*
X149115027Y-63994125D01*
X148942322Y-63894213D01*
X148937126Y-63891207D01*
X148737309Y-63821819D01*
X148731374Y-63820958D01*
X148731372Y-63820958D01*
X148533916Y-63792328D01*
X148533913Y-63792328D01*
X148527976Y-63791467D01*
X148316681Y-63801247D01*
X148185503Y-63832861D01*
X148116879Y-63849399D01*
X148116877Y-63849400D01*
X148111046Y-63850805D01*
X148105588Y-63853287D01*
X148105584Y-63853288D01*
X148015325Y-63894327D01*
X147918493Y-63938354D01*
X147745969Y-64060734D01*
X147599699Y-64213530D01*
X147484960Y-64391228D01*
X147482717Y-64396794D01*
X147414373Y-64566379D01*
X147405894Y-64587417D01*
X147365352Y-64795017D01*
X147365080Y-64800579D01*
X147365080Y-65756526D01*
X147380128Y-65914246D01*
X147439672Y-66117214D01*
X147536522Y-66305260D01*
X147667184Y-66471600D01*
X147671715Y-66475532D01*
X147671718Y-66475535D01*
X147757638Y-66550092D01*
X147826943Y-66610232D01*
X147832129Y-66613232D01*
X147832133Y-66613235D01*
X147985573Y-66702002D01*
X148010034Y-66716153D01*
X148209851Y-66785541D01*
X148215786Y-66786402D01*
X148215788Y-66786402D01*
X148413244Y-66815032D01*
X148413247Y-66815032D01*
X148419184Y-66815893D01*
X148630479Y-66806113D01*
X148790450Y-66767560D01*
X148830281Y-66757961D01*
X148830283Y-66757960D01*
X148836114Y-66756555D01*
X148841572Y-66754073D01*
X148841576Y-66754072D01*
X148988350Y-66687337D01*
X149028667Y-66669006D01*
X149201191Y-66546626D01*
X149274981Y-66469543D01*
X149336537Y-66434167D01*
X149407447Y-66437686D01*
X149465197Y-66478983D01*
X149491453Y-66544946D01*
X149492000Y-66556674D01*
X149492000Y-68095126D01*
X149471998Y-68163247D01*
X149418342Y-68209740D01*
X149348068Y-68219844D01*
X149305491Y-68205646D01*
X149303888Y-68204768D01*
X149296705Y-68199385D01*
X149288304Y-68196236D01*
X149288301Y-68196234D01*
X149200307Y-68163247D01*
X149160316Y-68148255D01*
X149098134Y-68141500D01*
X147301866Y-68141500D01*
X147239684Y-68148255D01*
X147103295Y-68199385D01*
X146986739Y-68286739D01*
X146899385Y-68403295D01*
X146896233Y-68411704D01*
X146891923Y-68419575D01*
X146890259Y-68418664D01*
X146854337Y-68466490D01*
X146787776Y-68491193D01*
X146778991Y-68491500D01*
X146618799Y-68491500D01*
X146550678Y-68471498D01*
X146540707Y-68464382D01*
X146418414Y-68367800D01*
X146418410Y-68367798D01*
X146414359Y-68364598D01*
X146218789Y-68256638D01*
X146213920Y-68254914D01*
X146213916Y-68254912D01*
X146013087Y-68183795D01*
X146013083Y-68183794D01*
X146008212Y-68182069D01*
X146003119Y-68181162D01*
X146003116Y-68181161D01*
X145793373Y-68143800D01*
X145793367Y-68143799D01*
X145788284Y-68142894D01*
X145714452Y-68141992D01*
X145570081Y-68140228D01*
X145570079Y-68140228D01*
X145564911Y-68140165D01*
X145344091Y-68173955D01*
X145131756Y-68243357D01*
X144933607Y-68346507D01*
X144929474Y-68349610D01*
X144929471Y-68349612D01*
X144774111Y-68466260D01*
X144707626Y-68491166D01*
X144698458Y-68491500D01*
X144582243Y-68491500D01*
X144568636Y-68490763D01*
X144537138Y-68487341D01*
X144537133Y-68487341D01*
X144531012Y-68486676D01*
X144504762Y-68488973D01*
X144481012Y-68491050D01*
X144476186Y-68491379D01*
X144473714Y-68491500D01*
X144470631Y-68491500D01*
X144458662Y-68492674D01*
X144427894Y-68495690D01*
X144426581Y-68495812D01*
X144382316Y-68499685D01*
X144333987Y-68503913D01*
X144328868Y-68505400D01*
X144323567Y-68505920D01*
X144234566Y-68532791D01*
X144233433Y-68533126D01*
X144149986Y-68557370D01*
X144149982Y-68557372D01*
X144144064Y-68559091D01*
X144139332Y-68561544D01*
X144134231Y-68563084D01*
X144128788Y-68565978D01*
X144052140Y-68606731D01*
X144050974Y-68607343D01*
X144025990Y-68620294D01*
X143968474Y-68650108D01*
X143964311Y-68653431D01*
X143959604Y-68655934D01*
X143954829Y-68659828D01*
X143954828Y-68659829D01*
X143887502Y-68714739D01*
X143886475Y-68715567D01*
X143850192Y-68744531D01*
X143850187Y-68744536D01*
X143847428Y-68746738D01*
X143844927Y-68749239D01*
X143844209Y-68749881D01*
X143839861Y-68753594D01*
X143806338Y-68780935D01*
X143802415Y-68785677D01*
X143802413Y-68785679D01*
X143777103Y-68816273D01*
X143769113Y-68825053D01*
X137130621Y-75463545D01*
X137120478Y-75472647D01*
X137090975Y-75496368D01*
X137061706Y-75531249D01*
X137058709Y-75534821D01*
X137055528Y-75538469D01*
X137053885Y-75540281D01*
X137051691Y-75542475D01*
X137024358Y-75575749D01*
X137023696Y-75576547D01*
X136963846Y-75647874D01*
X136961278Y-75652544D01*
X136957897Y-75656661D01*
X136934659Y-75700000D01*
X136914023Y-75738486D01*
X136913394Y-75739645D01*
X136871538Y-75815781D01*
X136871535Y-75815789D01*
X136868567Y-75821187D01*
X136866955Y-75826269D01*
X136864438Y-75830963D01*
X136837238Y-75919931D01*
X136836918Y-75920959D01*
X136808765Y-76009706D01*
X136808171Y-76015002D01*
X136806613Y-76020098D01*
X136798748Y-76097530D01*
X136797218Y-76112587D01*
X136797089Y-76113793D01*
X136791500Y-76163627D01*
X136791500Y-76167154D01*
X136791445Y-76168139D01*
X136790998Y-76173819D01*
X136786626Y-76216862D01*
X136790553Y-76258401D01*
X136790941Y-76262509D01*
X136791500Y-76274367D01*
X136791500Y-76849769D01*
X136791800Y-76852825D01*
X136791800Y-76852832D01*
X136794928Y-76884729D01*
X136805920Y-76996833D01*
X136807702Y-77002734D01*
X136807702Y-77002736D01*
X136823450Y-77054894D01*
X136863084Y-77186169D01*
X136955934Y-77360796D01*
X136976677Y-77386229D01*
X137013143Y-77430941D01*
X137040697Y-77496373D01*
X137041500Y-77510577D01*
X137041500Y-77682930D01*
X137040067Y-77701880D01*
X137036801Y-77723349D01*
X137037394Y-77730641D01*
X137037394Y-77730644D01*
X137041085Y-77776018D01*
X137041500Y-77786233D01*
X137041500Y-77794293D01*
X137041925Y-77797937D01*
X137044789Y-77822507D01*
X137045222Y-77826882D01*
X137051140Y-77899637D01*
X137053396Y-77906601D01*
X137054587Y-77912560D01*
X137055971Y-77918415D01*
X137056818Y-77925681D01*
X137081735Y-77994327D01*
X137083152Y-77998455D01*
X137105649Y-78067899D01*
X137109445Y-78074154D01*
X137111951Y-78079628D01*
X137114670Y-78085058D01*
X137117167Y-78091937D01*
X137121180Y-78098057D01*
X137121180Y-78098058D01*
X137157186Y-78152976D01*
X137159523Y-78156680D01*
X137197405Y-78219107D01*
X137201121Y-78223315D01*
X137201122Y-78223316D01*
X137204803Y-78227484D01*
X137204776Y-78227508D01*
X137207429Y-78230500D01*
X137210132Y-78233733D01*
X137214144Y-78239852D01*
X137265929Y-78288909D01*
X137270383Y-78293128D01*
X137272825Y-78295506D01*
X138354595Y-79377276D01*
X138388621Y-79439588D01*
X138391500Y-79466371D01*
X138391500Y-80982930D01*
X138390067Y-81001880D01*
X138386801Y-81023349D01*
X138387394Y-81030641D01*
X138387394Y-81030644D01*
X138391085Y-81076018D01*
X138391500Y-81086233D01*
X138391500Y-81094293D01*
X138391925Y-81097937D01*
X138394789Y-81122507D01*
X138395222Y-81126882D01*
X138401140Y-81199637D01*
X138403396Y-81206601D01*
X138404587Y-81212560D01*
X138405971Y-81218415D01*
X138406818Y-81225681D01*
X138431735Y-81294327D01*
X138433152Y-81298455D01*
X138449548Y-81349065D01*
X138455649Y-81367899D01*
X138459445Y-81374154D01*
X138461951Y-81379628D01*
X138464670Y-81385058D01*
X138467167Y-81391937D01*
X138471180Y-81398057D01*
X138471180Y-81398058D01*
X138507186Y-81452976D01*
X138509523Y-81456680D01*
X138547405Y-81519107D01*
X138551121Y-81523315D01*
X138551122Y-81523316D01*
X138554803Y-81527484D01*
X138554776Y-81527508D01*
X138557429Y-81530500D01*
X138560132Y-81533733D01*
X138564144Y-81539852D01*
X138569456Y-81544884D01*
X138620383Y-81593128D01*
X138622825Y-81595506D01*
X138679875Y-81652556D01*
X138710613Y-81702714D01*
X138765473Y-81871556D01*
X138768776Y-81877278D01*
X138768777Y-81877279D01*
X138794265Y-81921425D01*
X138860960Y-82036944D01*
X138988747Y-82178866D01*
X139004306Y-82190170D01*
X139137904Y-82287235D01*
X139143248Y-82291118D01*
X139149276Y-82293802D01*
X139149278Y-82293803D01*
X139311681Y-82366109D01*
X139317712Y-82368794D01*
X139411113Y-82388647D01*
X139498056Y-82407128D01*
X139498061Y-82407128D01*
X139504513Y-82408500D01*
X139695487Y-82408500D01*
X139701939Y-82407128D01*
X139701944Y-82407128D01*
X139788887Y-82388647D01*
X139882288Y-82368794D01*
X139888319Y-82366109D01*
X140050722Y-82293803D01*
X140050724Y-82293802D01*
X140056752Y-82291118D01*
X140062097Y-82287235D01*
X140195694Y-82190170D01*
X140211253Y-82178866D01*
X140339040Y-82036944D01*
X140405735Y-81921425D01*
X140431223Y-81877279D01*
X140431224Y-81877278D01*
X140434527Y-81871556D01*
X140493542Y-81689928D01*
X140508691Y-81545798D01*
X140512814Y-81506565D01*
X140513504Y-81500000D01*
X140508562Y-81452976D01*
X140494232Y-81316635D01*
X140494232Y-81316633D01*
X140493542Y-81310072D01*
X140434527Y-81128444D01*
X140427414Y-81116123D01*
X140397314Y-81063990D01*
X140339040Y-80963056D01*
X140333857Y-80957299D01*
X140215675Y-80826045D01*
X140215674Y-80826044D01*
X140211253Y-80821134D01*
X140098701Y-80739360D01*
X140062094Y-80712763D01*
X140062093Y-80712762D01*
X140056752Y-80708882D01*
X140050724Y-80706198D01*
X140050722Y-80706197D01*
X139983251Y-80676157D01*
X139929155Y-80630176D01*
X139908500Y-80561050D01*
X139908500Y-80511487D01*
X139928502Y-80443366D01*
X139982158Y-80396873D01*
X140052432Y-80386769D01*
X140060697Y-80388240D01*
X140149556Y-80407128D01*
X140149561Y-80407128D01*
X140156013Y-80408500D01*
X140346987Y-80408500D01*
X140353439Y-80407128D01*
X140353444Y-80407128D01*
X140449223Y-80386769D01*
X140533788Y-80368794D01*
X140539819Y-80366109D01*
X140702222Y-80293803D01*
X140702224Y-80293802D01*
X140708252Y-80291118D01*
X140754368Y-80257613D01*
X140792980Y-80229559D01*
X140862753Y-80178866D01*
X140925847Y-80108793D01*
X140986121Y-80041852D01*
X140986122Y-80041851D01*
X140990540Y-80036944D01*
X141075433Y-79889905D01*
X141082723Y-79877279D01*
X141082724Y-79877278D01*
X141086027Y-79871556D01*
X141145042Y-79689928D01*
X141152228Y-79621562D01*
X141164314Y-79506565D01*
X141165004Y-79500000D01*
X141164314Y-79493435D01*
X141145732Y-79316635D01*
X141145732Y-79316633D01*
X141145042Y-79310072D01*
X141086027Y-79128444D01*
X141076309Y-79111611D01*
X141019255Y-79012792D01*
X140990540Y-78963056D01*
X140915863Y-78880119D01*
X140885147Y-78816113D01*
X140883500Y-78795810D01*
X140883500Y-77664594D01*
X140903502Y-77596473D01*
X140920405Y-77575499D01*
X141850499Y-76645405D01*
X141912811Y-76611379D01*
X141939594Y-76608500D01*
X141995487Y-76608500D01*
X142001939Y-76607128D01*
X142001944Y-76607128D01*
X142088888Y-76588647D01*
X142182288Y-76568794D01*
X142188319Y-76566109D01*
X142350722Y-76493803D01*
X142350724Y-76493802D01*
X142356752Y-76491118D01*
X142381976Y-76472792D01*
X142458692Y-76417054D01*
X142511253Y-76378866D01*
X142515675Y-76373955D01*
X142634621Y-76241852D01*
X142634622Y-76241851D01*
X142639040Y-76236944D01*
X142734527Y-76071556D01*
X142793542Y-75889928D01*
X142797826Y-75849174D01*
X142812814Y-75706565D01*
X142813504Y-75700000D01*
X142800428Y-75575586D01*
X142794232Y-75516635D01*
X142794232Y-75516633D01*
X142793542Y-75510072D01*
X142734527Y-75328444D01*
X142639040Y-75163056D01*
X142511253Y-75021134D01*
X142356752Y-74908882D01*
X142350724Y-74906198D01*
X142350722Y-74906197D01*
X142188319Y-74833891D01*
X142188318Y-74833891D01*
X142182288Y-74831206D01*
X142088238Y-74811215D01*
X142001944Y-74792872D01*
X142001939Y-74792872D01*
X141995487Y-74791500D01*
X141804513Y-74791500D01*
X141798061Y-74792872D01*
X141798056Y-74792872D01*
X141711762Y-74811215D01*
X141617712Y-74831206D01*
X141611682Y-74833891D01*
X141611681Y-74833891D01*
X141449278Y-74906197D01*
X141449276Y-74906198D01*
X141443248Y-74908882D01*
X141288747Y-75021134D01*
X141160960Y-75163056D01*
X141065473Y-75328444D01*
X141006458Y-75510072D01*
X141005768Y-75516633D01*
X141005768Y-75516635D01*
X140999572Y-75575586D01*
X140992471Y-75643156D01*
X140989093Y-75675292D01*
X140962080Y-75740949D01*
X140952878Y-75751217D01*
X139857747Y-76846348D01*
X139849461Y-76853888D01*
X139842982Y-76858000D01*
X139837557Y-76863777D01*
X139796357Y-76907651D01*
X139793602Y-76910493D01*
X139773865Y-76930230D01*
X139771385Y-76933427D01*
X139763682Y-76942447D01*
X139733414Y-76974679D01*
X139729595Y-76981625D01*
X139729593Y-76981628D01*
X139723652Y-76992434D01*
X139712801Y-77008953D01*
X139700386Y-77024959D01*
X139697241Y-77032228D01*
X139697238Y-77032232D01*
X139682826Y-77065537D01*
X139677609Y-77076187D01*
X139656305Y-77114940D01*
X139654334Y-77122615D01*
X139654334Y-77122616D01*
X139651267Y-77134562D01*
X139644863Y-77153266D01*
X139642001Y-77159881D01*
X139636819Y-77171855D01*
X139635580Y-77179678D01*
X139635577Y-77179688D01*
X139629901Y-77215524D01*
X139627495Y-77227144D01*
X139616500Y-77269970D01*
X139616500Y-77290224D01*
X139614949Y-77309934D01*
X139611780Y-77329943D01*
X139614697Y-77360796D01*
X139615941Y-77373961D01*
X139616500Y-77385819D01*
X139616500Y-78189629D01*
X139596498Y-78257750D01*
X139542842Y-78304243D01*
X139472568Y-78314347D01*
X139407988Y-78284853D01*
X139401405Y-78278724D01*
X138652405Y-77529724D01*
X138618379Y-77467412D01*
X138623444Y-77396597D01*
X138635586Y-77373203D01*
X138636154Y-77372526D01*
X138655226Y-77337835D01*
X138728467Y-77204608D01*
X138731433Y-77199213D01*
X138733846Y-77191608D01*
X138789373Y-77016564D01*
X138789373Y-77016563D01*
X138791235Y-77010694D01*
X138808500Y-76856773D01*
X138808500Y-76690325D01*
X138828502Y-76622204D01*
X138845405Y-76601230D01*
X141569581Y-73877054D01*
X144370641Y-71075993D01*
X144432953Y-71041967D01*
X144503768Y-71047032D01*
X144560604Y-71089579D01*
X144585415Y-71156099D01*
X144570324Y-71225473D01*
X144563824Y-71236092D01*
X144474743Y-71366680D01*
X144380688Y-71569305D01*
X144320989Y-71784570D01*
X144297251Y-72006695D01*
X144297548Y-72011848D01*
X144297548Y-72011851D01*
X144306597Y-72168794D01*
X144310110Y-72229715D01*
X144311247Y-72234761D01*
X144311248Y-72234767D01*
X144335304Y-72341508D01*
X144359222Y-72447639D01*
X144443266Y-72654616D01*
X144494942Y-72738944D01*
X144557291Y-72840688D01*
X144559987Y-72845088D01*
X144706250Y-73013938D01*
X144878126Y-73156632D01*
X144928813Y-73186251D01*
X144951445Y-73199476D01*
X145000169Y-73251114D01*
X145013240Y-73320897D01*
X144986509Y-73386669D01*
X144946055Y-73420027D01*
X144933607Y-73426507D01*
X144929474Y-73429610D01*
X144929471Y-73429612D01*
X144905247Y-73447800D01*
X144754965Y-73560635D01*
X144600629Y-73722138D01*
X144474743Y-73906680D01*
X144380688Y-74109305D01*
X144320989Y-74324570D01*
X144297251Y-74546695D01*
X144310110Y-74769715D01*
X144311247Y-74774761D01*
X144311248Y-74774767D01*
X144326386Y-74841935D01*
X144359222Y-74987639D01*
X144443266Y-75194616D01*
X144494942Y-75278944D01*
X144557291Y-75380688D01*
X144559987Y-75385088D01*
X144706250Y-75553938D01*
X144878126Y-75696632D01*
X144908890Y-75714609D01*
X144951445Y-75739476D01*
X145000169Y-75791114D01*
X145013240Y-75860897D01*
X144986509Y-75926669D01*
X144946055Y-75960027D01*
X144933607Y-75966507D01*
X144929474Y-75969610D01*
X144929471Y-75969612D01*
X144786072Y-76077279D01*
X144754965Y-76100635D01*
X144600629Y-76262138D01*
X144474743Y-76446680D01*
X144427716Y-76547992D01*
X144398293Y-76611379D01*
X144380688Y-76649305D01*
X144320989Y-76864570D01*
X144297251Y-77086695D01*
X144297548Y-77091848D01*
X144297548Y-77091851D01*
X144308986Y-77290224D01*
X144310110Y-77309715D01*
X144311247Y-77314761D01*
X144311248Y-77314767D01*
X144329690Y-77396597D01*
X144359222Y-77527639D01*
X144414833Y-77664594D01*
X144435754Y-77716115D01*
X144443266Y-77734616D01*
X144482069Y-77797937D01*
X144557291Y-77920688D01*
X144559987Y-77925088D01*
X144706250Y-78093938D01*
X144878126Y-78236632D01*
X144948595Y-78277811D01*
X144951445Y-78279476D01*
X145000169Y-78331114D01*
X145013240Y-78400897D01*
X144986509Y-78466669D01*
X144946055Y-78500027D01*
X144933607Y-78506507D01*
X144929474Y-78509610D01*
X144929471Y-78509612D01*
X144780229Y-78621666D01*
X144754965Y-78640635D01*
X144600629Y-78802138D01*
X144597720Y-78806403D01*
X144597714Y-78806411D01*
X144579838Y-78832617D01*
X144474743Y-78986680D01*
X144436429Y-79069220D01*
X144408939Y-79128444D01*
X144380688Y-79189305D01*
X144320989Y-79404570D01*
X144297251Y-79626695D01*
X144297548Y-79631848D01*
X144297548Y-79631851D01*
X144300762Y-79687591D01*
X144310110Y-79849715D01*
X144311247Y-79854761D01*
X144311248Y-79854767D01*
X144334509Y-79957982D01*
X144341692Y-79989852D01*
X144343453Y-79997668D01*
X144338917Y-80068520D01*
X144309631Y-80114464D01*
X138490729Y-85933366D01*
X138428417Y-85967392D01*
X138357602Y-85962327D01*
X138308001Y-85928584D01*
X138211253Y-85821134D01*
X138056752Y-85708882D01*
X138050724Y-85706198D01*
X138050722Y-85706197D01*
X137888319Y-85633891D01*
X137888318Y-85633891D01*
X137882288Y-85631206D01*
X137788887Y-85611353D01*
X137701944Y-85592872D01*
X137701939Y-85592872D01*
X137695487Y-85591500D01*
X137639595Y-85591500D01*
X137571474Y-85571498D01*
X137550500Y-85554595D01*
X137088370Y-85092465D01*
X137054344Y-85030153D01*
X137059409Y-84959338D01*
X137101956Y-84902502D01*
X137151269Y-84880123D01*
X137164221Y-84877370D01*
X137198110Y-84870167D01*
X137198113Y-84870166D01*
X137204568Y-84868794D01*
X137273239Y-84838220D01*
X137373002Y-84793803D01*
X137373004Y-84793802D01*
X137379032Y-84791118D01*
X137533533Y-84678866D01*
X137556230Y-84653658D01*
X137656901Y-84541852D01*
X137656902Y-84541851D01*
X137661320Y-84536944D01*
X137756807Y-84371556D01*
X137815822Y-84189928D01*
X137835784Y-84000000D01*
X137815822Y-83810072D01*
X137756807Y-83628444D01*
X137743040Y-83604598D01*
X137709495Y-83546498D01*
X137661320Y-83463056D01*
X137588143Y-83381785D01*
X137557427Y-83317779D01*
X137555780Y-83297476D01*
X137555780Y-80680244D01*
X137575782Y-80612123D01*
X137588138Y-80595941D01*
X137661320Y-80514664D01*
X137745538Y-80368794D01*
X137753503Y-80354999D01*
X137753504Y-80354998D01*
X137756807Y-80349276D01*
X137815822Y-80167648D01*
X137817107Y-80155427D01*
X137835094Y-79984285D01*
X137835784Y-79977720D01*
X137824626Y-79871556D01*
X137816512Y-79794355D01*
X137816512Y-79794353D01*
X137815822Y-79787792D01*
X137756807Y-79606164D01*
X137661320Y-79440776D01*
X137633346Y-79409707D01*
X137537955Y-79303765D01*
X137537954Y-79303764D01*
X137533533Y-79298854D01*
X137379032Y-79186602D01*
X137373004Y-79183918D01*
X137373002Y-79183917D01*
X137210599Y-79111611D01*
X137210598Y-79111611D01*
X137204568Y-79108926D01*
X137111168Y-79089073D01*
X137024224Y-79070592D01*
X137024219Y-79070592D01*
X137017767Y-79069220D01*
X136826793Y-79069220D01*
X136820341Y-79070592D01*
X136820336Y-79070592D01*
X136733392Y-79089073D01*
X136639992Y-79108926D01*
X136633962Y-79111611D01*
X136633961Y-79111611D01*
X136471558Y-79183917D01*
X136471556Y-79183918D01*
X136465528Y-79186602D01*
X136311027Y-79298854D01*
X136306606Y-79303764D01*
X136306605Y-79303765D01*
X136211215Y-79409707D01*
X136183240Y-79440776D01*
X136087753Y-79606164D01*
X136028738Y-79787792D01*
X136028048Y-79794353D01*
X136028048Y-79794355D01*
X136019934Y-79871556D01*
X136008776Y-79977720D01*
X136009466Y-79984285D01*
X136027454Y-80155427D01*
X136028738Y-80167648D01*
X136087753Y-80349276D01*
X136091056Y-80354998D01*
X136091057Y-80354999D01*
X136099022Y-80368794D01*
X136183240Y-80514664D01*
X136256417Y-80595935D01*
X136287133Y-80659941D01*
X136288780Y-80680244D01*
X136288780Y-83297476D01*
X136268778Y-83365597D01*
X136256422Y-83381779D01*
X136183240Y-83463056D01*
X136135065Y-83546498D01*
X136101521Y-83604598D01*
X136087753Y-83628444D01*
X136037646Y-83782657D01*
X135997574Y-83841261D01*
X135932177Y-83868898D01*
X135862220Y-83856791D01*
X135828719Y-83832814D01*
X135803652Y-83807747D01*
X135796112Y-83799461D01*
X135792000Y-83792982D01*
X135742348Y-83746356D01*
X135739507Y-83743602D01*
X135719770Y-83723865D01*
X135716573Y-83721385D01*
X135707551Y-83713680D01*
X135681100Y-83688841D01*
X135675321Y-83683414D01*
X135668375Y-83679595D01*
X135668372Y-83679593D01*
X135657566Y-83673652D01*
X135641047Y-83662801D01*
X135640583Y-83662441D01*
X135625041Y-83650386D01*
X135617772Y-83647241D01*
X135617768Y-83647238D01*
X135584463Y-83632826D01*
X135573813Y-83627609D01*
X135535060Y-83606305D01*
X135515437Y-83601267D01*
X135496734Y-83594863D01*
X135485420Y-83589967D01*
X135485419Y-83589967D01*
X135478145Y-83586819D01*
X135470322Y-83585580D01*
X135470312Y-83585577D01*
X135434476Y-83579901D01*
X135422856Y-83577495D01*
X135387711Y-83568472D01*
X135387710Y-83568472D01*
X135380030Y-83566500D01*
X135359776Y-83566500D01*
X135340065Y-83564949D01*
X135327886Y-83563020D01*
X135320057Y-83561780D01*
X135312165Y-83562526D01*
X135276039Y-83565941D01*
X135264181Y-83566500D01*
X129560371Y-83566500D01*
X129492250Y-83546498D01*
X129445757Y-83492842D01*
X129435653Y-83422568D01*
X129465147Y-83357988D01*
X129471276Y-83351405D01*
X134130403Y-78692278D01*
X134192715Y-78658252D01*
X134241464Y-78658135D01*
X134241485Y-78657937D01*
X134243328Y-78658131D01*
X134245691Y-78658125D01*
X134246289Y-78658252D01*
X134254513Y-78660000D01*
X134445487Y-78660000D01*
X134451939Y-78658628D01*
X134451944Y-78658628D01*
X134551199Y-78637530D01*
X134632288Y-78620294D01*
X134638319Y-78617609D01*
X134800722Y-78545303D01*
X134800724Y-78545302D01*
X134806752Y-78542618D01*
X134859743Y-78504118D01*
X134911286Y-78466669D01*
X134961253Y-78430366D01*
X134995981Y-78391797D01*
X135084621Y-78293352D01*
X135084622Y-78293351D01*
X135089040Y-78288444D01*
X135164624Y-78157529D01*
X135181223Y-78128779D01*
X135181224Y-78128778D01*
X135184527Y-78123056D01*
X135243542Y-77941428D01*
X135245260Y-77925088D01*
X135262814Y-77758065D01*
X135263504Y-77751500D01*
X135249873Y-77621811D01*
X135244232Y-77568135D01*
X135244232Y-77568133D01*
X135243542Y-77561572D01*
X135184527Y-77379944D01*
X135089040Y-77214556D01*
X135049783Y-77170956D01*
X134965675Y-77077545D01*
X134965674Y-77077544D01*
X134961253Y-77072634D01*
X134848480Y-76990699D01*
X134812094Y-76964263D01*
X134812093Y-76964262D01*
X134806752Y-76960382D01*
X134800724Y-76957698D01*
X134800722Y-76957697D01*
X134638319Y-76885391D01*
X134638318Y-76885391D01*
X134632288Y-76882706D01*
X134523527Y-76859588D01*
X134451944Y-76844372D01*
X134451939Y-76844372D01*
X134445487Y-76843000D01*
X134254513Y-76843000D01*
X134248061Y-76844372D01*
X134248056Y-76844372D01*
X134176473Y-76859588D01*
X134067712Y-76882706D01*
X134061682Y-76885391D01*
X134061681Y-76885391D01*
X133899278Y-76957697D01*
X133899276Y-76957698D01*
X133893248Y-76960382D01*
X133846083Y-76994649D01*
X133815020Y-77011149D01*
X133754176Y-77033235D01*
X133750098Y-77034635D01*
X133680601Y-77057148D01*
X133674346Y-77060944D01*
X133668887Y-77063443D01*
X133663439Y-77066171D01*
X133656563Y-77068667D01*
X133595510Y-77108695D01*
X133591827Y-77111019D01*
X133534186Y-77145996D01*
X133534182Y-77145999D01*
X133529393Y-77148905D01*
X133525194Y-77152614D01*
X133525189Y-77152617D01*
X133521016Y-77156303D01*
X133520992Y-77156276D01*
X133518000Y-77158929D01*
X133514767Y-77161632D01*
X133508648Y-77165644D01*
X133503616Y-77170956D01*
X133455372Y-77221883D01*
X133452994Y-77224325D01*
X127972724Y-82704595D01*
X127910412Y-82738621D01*
X127883629Y-82741500D01*
X120266371Y-82741500D01*
X120198250Y-82721498D01*
X120177276Y-82704595D01*
X118483770Y-81011089D01*
X118471384Y-80996677D01*
X118462851Y-80985082D01*
X118462846Y-80985077D01*
X118458508Y-80979182D01*
X118452930Y-80974443D01*
X118452927Y-80974440D01*
X118418232Y-80944965D01*
X118410716Y-80938035D01*
X118405021Y-80932340D01*
X118391852Y-80921921D01*
X118382749Y-80914719D01*
X118379345Y-80911928D01*
X118329297Y-80869409D01*
X118329295Y-80869408D01*
X118323715Y-80864667D01*
X118317199Y-80861339D01*
X118312150Y-80857972D01*
X118307021Y-80854805D01*
X118301284Y-80850266D01*
X118235125Y-80819345D01*
X118231225Y-80817439D01*
X118230857Y-80817251D01*
X118166192Y-80784231D01*
X118159084Y-80782492D01*
X118153441Y-80780393D01*
X118147678Y-80778476D01*
X118141050Y-80775378D01*
X118069583Y-80760513D01*
X118065299Y-80759543D01*
X117994390Y-80742192D01*
X117988788Y-80741844D01*
X117988785Y-80741844D01*
X117983236Y-80741500D01*
X117983238Y-80741464D01*
X117979245Y-80741225D01*
X117975053Y-80740851D01*
X117967885Y-80739360D01*
X117901675Y-80741151D01*
X117890479Y-80741454D01*
X117887072Y-80741500D01*
X117184500Y-80741500D01*
X117116379Y-80721498D01*
X117069886Y-80667842D01*
X117058500Y-80615500D01*
X117058500Y-77786999D01*
X117075381Y-77723999D01*
X117075757Y-77723349D01*
X117134527Y-77621556D01*
X117193542Y-77439928D01*
X117199847Y-77379944D01*
X117212814Y-77256565D01*
X117213504Y-77250000D01*
X117211102Y-77227144D01*
X117194232Y-77066635D01*
X117194232Y-77066633D01*
X117193542Y-77060072D01*
X117134527Y-76878444D01*
X117123641Y-76859588D01*
X117075381Y-76776001D01*
X117058500Y-76713001D01*
X117058500Y-75883000D01*
X117078502Y-75814879D01*
X117132158Y-75768386D01*
X117184500Y-75757000D01*
X117195487Y-75757000D01*
X117201939Y-75755628D01*
X117201944Y-75755628D01*
X117288888Y-75737147D01*
X117382288Y-75717294D01*
X117406386Y-75706565D01*
X117550722Y-75642303D01*
X117550724Y-75642302D01*
X117556752Y-75639618D01*
X117711253Y-75527366D01*
X117764368Y-75468376D01*
X117834621Y-75390352D01*
X117834622Y-75390351D01*
X117839040Y-75385444D01*
X117934527Y-75220056D01*
X117993542Y-75038428D01*
X117994844Y-75026045D01*
X118012814Y-74855065D01*
X118013504Y-74848500D01*
X118011542Y-74829834D01*
X117994232Y-74665135D01*
X117994232Y-74665133D01*
X117993542Y-74658572D01*
X117934527Y-74476944D01*
X117931223Y-74471221D01*
X117928539Y-74465193D01*
X117930081Y-74464506D01*
X117915330Y-74403677D01*
X117938557Y-74336588D01*
X117952092Y-74320589D01*
X120139332Y-72133349D01*
X120201644Y-72099323D01*
X120272459Y-72104388D01*
X120279675Y-72107337D01*
X120411677Y-72166108D01*
X120411685Y-72166111D01*
X120417712Y-72168794D01*
X120511113Y-72188647D01*
X120598056Y-72207128D01*
X120598061Y-72207128D01*
X120604513Y-72208500D01*
X120795487Y-72208500D01*
X120801939Y-72207128D01*
X120801944Y-72207128D01*
X120888887Y-72188647D01*
X120982288Y-72168794D01*
X120989777Y-72165460D01*
X121156752Y-72091118D01*
X121157587Y-72092993D01*
X121217159Y-72078540D01*
X121284252Y-72101759D01*
X121328140Y-72157565D01*
X121331000Y-72165460D01*
X121365473Y-72271556D01*
X121460960Y-72436944D01*
X121465378Y-72441851D01*
X121465379Y-72441852D01*
X121556286Y-72542814D01*
X121588747Y-72578866D01*
X121677270Y-72643182D01*
X121737904Y-72687235D01*
X121743248Y-72691118D01*
X121749276Y-72693802D01*
X121749278Y-72693803D01*
X121857704Y-72742077D01*
X121917712Y-72768794D01*
X121983365Y-72782749D01*
X122098056Y-72807128D01*
X122098061Y-72807128D01*
X122104513Y-72808500D01*
X122295487Y-72808500D01*
X122301939Y-72807128D01*
X122301944Y-72807128D01*
X122416635Y-72782749D01*
X122482288Y-72768794D01*
X122542296Y-72742077D01*
X122650722Y-72693803D01*
X122650724Y-72693802D01*
X122656752Y-72691118D01*
X122662091Y-72687239D01*
X122662098Y-72687235D01*
X122668528Y-72682563D01*
X122742587Y-72658500D01*
X126162051Y-72658500D01*
X126181001Y-72659933D01*
X126195236Y-72662099D01*
X126195240Y-72662099D01*
X126202470Y-72663199D01*
X126209762Y-72662606D01*
X126209765Y-72662606D01*
X126255139Y-72658915D01*
X126265354Y-72658500D01*
X126273414Y-72658500D01*
X126286704Y-72656951D01*
X126301628Y-72655211D01*
X126306003Y-72654778D01*
X126371460Y-72649454D01*
X126371463Y-72649453D01*
X126378758Y-72648860D01*
X126385722Y-72646604D01*
X126391681Y-72645413D01*
X126397536Y-72644029D01*
X126404802Y-72643182D01*
X126473448Y-72618265D01*
X126477576Y-72616848D01*
X126540057Y-72596607D01*
X126540059Y-72596606D01*
X126547020Y-72594351D01*
X126553275Y-72590555D01*
X126558749Y-72588049D01*
X126564179Y-72585330D01*
X126571058Y-72582833D01*
X126577179Y-72578820D01*
X126632097Y-72542814D01*
X126635814Y-72540469D01*
X126651200Y-72531132D01*
X126719813Y-72512891D01*
X126787396Y-72534641D01*
X126825686Y-72575848D01*
X126860960Y-72636944D01*
X126865378Y-72641851D01*
X126865379Y-72641852D01*
X126979678Y-72768794D01*
X126988747Y-72778866D01*
X127143248Y-72891118D01*
X127149276Y-72893802D01*
X127149278Y-72893803D01*
X127224148Y-72927137D01*
X127317712Y-72968794D01*
X127385421Y-72983186D01*
X127498056Y-73007128D01*
X127498061Y-73007128D01*
X127504513Y-73008500D01*
X127695487Y-73008500D01*
X127701939Y-73007128D01*
X127701944Y-73007128D01*
X127814579Y-72983186D01*
X127882288Y-72968794D01*
X127975852Y-72927137D01*
X128050722Y-72893803D01*
X128050724Y-72893802D01*
X128056752Y-72891118D01*
X128211253Y-72778866D01*
X128220322Y-72768794D01*
X128334621Y-72641852D01*
X128334622Y-72641851D01*
X128339040Y-72636944D01*
X128434527Y-72471556D01*
X128493542Y-72289928D01*
X128494872Y-72277279D01*
X128512814Y-72106565D01*
X128513504Y-72100000D01*
X128512445Y-72089928D01*
X128499091Y-71962863D01*
X128511863Y-71893025D01*
X128535306Y-71860598D01*
X133659244Y-66736660D01*
X133696186Y-66711055D01*
X133788667Y-66669006D01*
X133961191Y-66546626D01*
X134107461Y-66393830D01*
X134222200Y-66216132D01*
X134264381Y-66111466D01*
X134299022Y-66025512D01*
X134299023Y-66025509D01*
X134301266Y-66019943D01*
X134341808Y-65812343D01*
X134342080Y-65806781D01*
X134342080Y-65756526D01*
X134665080Y-65756526D01*
X134680128Y-65914246D01*
X134739672Y-66117214D01*
X134836522Y-66305260D01*
X134967184Y-66471600D01*
X134971715Y-66475532D01*
X134971718Y-66475535D01*
X135057638Y-66550092D01*
X135126943Y-66610232D01*
X135132129Y-66613232D01*
X135132133Y-66613235D01*
X135285573Y-66702002D01*
X135310034Y-66716153D01*
X135509851Y-66785541D01*
X135515786Y-66786402D01*
X135515788Y-66786402D01*
X135713244Y-66815032D01*
X135713247Y-66815032D01*
X135719184Y-66815893D01*
X135930479Y-66806113D01*
X136090450Y-66767560D01*
X136130281Y-66757961D01*
X136130283Y-66757960D01*
X136136114Y-66756555D01*
X136141572Y-66754073D01*
X136141576Y-66754072D01*
X136288350Y-66687337D01*
X136328667Y-66669006D01*
X136501191Y-66546626D01*
X136647461Y-66393830D01*
X136762200Y-66216132D01*
X136804381Y-66111466D01*
X136839022Y-66025512D01*
X136839023Y-66025509D01*
X136841266Y-66019943D01*
X136881808Y-65812343D01*
X136882080Y-65806781D01*
X136882080Y-65756526D01*
X137205080Y-65756526D01*
X137220128Y-65914246D01*
X137279672Y-66117214D01*
X137376522Y-66305260D01*
X137507184Y-66471600D01*
X137511715Y-66475532D01*
X137511718Y-66475535D01*
X137597638Y-66550092D01*
X137666943Y-66610232D01*
X137672129Y-66613232D01*
X137672133Y-66613235D01*
X137825573Y-66702002D01*
X137850034Y-66716153D01*
X138049851Y-66785541D01*
X138055786Y-66786402D01*
X138055788Y-66786402D01*
X138253244Y-66815032D01*
X138253247Y-66815032D01*
X138259184Y-66815893D01*
X138470479Y-66806113D01*
X138630450Y-66767560D01*
X138670281Y-66757961D01*
X138670283Y-66757960D01*
X138676114Y-66756555D01*
X138681572Y-66754073D01*
X138681576Y-66754072D01*
X138828350Y-66687337D01*
X138868667Y-66669006D01*
X139041191Y-66546626D01*
X139187461Y-66393830D01*
X139302200Y-66216132D01*
X139344381Y-66111466D01*
X139379022Y-66025512D01*
X139379023Y-66025509D01*
X139381266Y-66019943D01*
X139421808Y-65812343D01*
X139422080Y-65806781D01*
X139422080Y-65756526D01*
X139745080Y-65756526D01*
X139760128Y-65914246D01*
X139819672Y-66117214D01*
X139916522Y-66305260D01*
X140047184Y-66471600D01*
X140051715Y-66475532D01*
X140051718Y-66475535D01*
X140137638Y-66550092D01*
X140206943Y-66610232D01*
X140212129Y-66613232D01*
X140212133Y-66613235D01*
X140365573Y-66702002D01*
X140390034Y-66716153D01*
X140589851Y-66785541D01*
X140595786Y-66786402D01*
X140595788Y-66786402D01*
X140793244Y-66815032D01*
X140793247Y-66815032D01*
X140799184Y-66815893D01*
X141010479Y-66806113D01*
X141170450Y-66767560D01*
X141210281Y-66757961D01*
X141210283Y-66757960D01*
X141216114Y-66756555D01*
X141221572Y-66754073D01*
X141221576Y-66754072D01*
X141368350Y-66687337D01*
X141408667Y-66669006D01*
X141581191Y-66546626D01*
X141727461Y-66393830D01*
X141842200Y-66216132D01*
X141884381Y-66111466D01*
X141919022Y-66025512D01*
X141919023Y-66025509D01*
X141921266Y-66019943D01*
X141961808Y-65812343D01*
X141962080Y-65806781D01*
X141962080Y-65756526D01*
X142285080Y-65756526D01*
X142300128Y-65914246D01*
X142359672Y-66117214D01*
X142456522Y-66305260D01*
X142587184Y-66471600D01*
X142591715Y-66475532D01*
X142591718Y-66475535D01*
X142677638Y-66550092D01*
X142746943Y-66610232D01*
X142752129Y-66613232D01*
X142752133Y-66613235D01*
X142905573Y-66702002D01*
X142930034Y-66716153D01*
X143129851Y-66785541D01*
X143135786Y-66786402D01*
X143135788Y-66786402D01*
X143333244Y-66815032D01*
X143333247Y-66815032D01*
X143339184Y-66815893D01*
X143550479Y-66806113D01*
X143710450Y-66767560D01*
X143750281Y-66757961D01*
X143750283Y-66757960D01*
X143756114Y-66756555D01*
X143761572Y-66754073D01*
X143761576Y-66754072D01*
X143908350Y-66687337D01*
X143948667Y-66669006D01*
X144121191Y-66546626D01*
X144267461Y-66393830D01*
X144382200Y-66216132D01*
X144424381Y-66111466D01*
X144459022Y-66025512D01*
X144459023Y-66025509D01*
X144461266Y-66019943D01*
X144501808Y-65812343D01*
X144502080Y-65806781D01*
X144502080Y-65756526D01*
X144825080Y-65756526D01*
X144840128Y-65914246D01*
X144899672Y-66117214D01*
X144996522Y-66305260D01*
X145127184Y-66471600D01*
X145131715Y-66475532D01*
X145131718Y-66475535D01*
X145217638Y-66550092D01*
X145286943Y-66610232D01*
X145292129Y-66613232D01*
X145292133Y-66613235D01*
X145445573Y-66702002D01*
X145470034Y-66716153D01*
X145669851Y-66785541D01*
X145675786Y-66786402D01*
X145675788Y-66786402D01*
X145873244Y-66815032D01*
X145873247Y-66815032D01*
X145879184Y-66815893D01*
X146090479Y-66806113D01*
X146250450Y-66767560D01*
X146290281Y-66757961D01*
X146290283Y-66757960D01*
X146296114Y-66756555D01*
X146301572Y-66754073D01*
X146301576Y-66754072D01*
X146448350Y-66687337D01*
X146488667Y-66669006D01*
X146661191Y-66546626D01*
X146807461Y-66393830D01*
X146922200Y-66216132D01*
X146964381Y-66111466D01*
X146999022Y-66025512D01*
X146999023Y-66025509D01*
X147001266Y-66019943D01*
X147041808Y-65812343D01*
X147042080Y-65806781D01*
X147042080Y-64850834D01*
X147027032Y-64693114D01*
X146967488Y-64490146D01*
X146895309Y-64350001D01*
X146873384Y-64307431D01*
X146873382Y-64307428D01*
X146870638Y-64302100D01*
X146739976Y-64135760D01*
X146735445Y-64131828D01*
X146735442Y-64131825D01*
X146584747Y-64001059D01*
X146580217Y-63997128D01*
X146575031Y-63994128D01*
X146575027Y-63994125D01*
X146402322Y-63894213D01*
X146397126Y-63891207D01*
X146197309Y-63821819D01*
X146191374Y-63820958D01*
X146191372Y-63820958D01*
X145993916Y-63792328D01*
X145993913Y-63792328D01*
X145987976Y-63791467D01*
X145776681Y-63801247D01*
X145645503Y-63832861D01*
X145576879Y-63849399D01*
X145576877Y-63849400D01*
X145571046Y-63850805D01*
X145565588Y-63853287D01*
X145565584Y-63853288D01*
X145475325Y-63894327D01*
X145378493Y-63938354D01*
X145205969Y-64060734D01*
X145059699Y-64213530D01*
X144944960Y-64391228D01*
X144942717Y-64396794D01*
X144874373Y-64566379D01*
X144865894Y-64587417D01*
X144825352Y-64795017D01*
X144825080Y-64800579D01*
X144825080Y-65756526D01*
X144502080Y-65756526D01*
X144502080Y-64850834D01*
X144487032Y-64693114D01*
X144427488Y-64490146D01*
X144355309Y-64350001D01*
X144333384Y-64307431D01*
X144333382Y-64307428D01*
X144330638Y-64302100D01*
X144199976Y-64135760D01*
X144195445Y-64131828D01*
X144195442Y-64131825D01*
X144044747Y-64001059D01*
X144040217Y-63997128D01*
X144035031Y-63994128D01*
X144035027Y-63994125D01*
X143862322Y-63894213D01*
X143857126Y-63891207D01*
X143657309Y-63821819D01*
X143651374Y-63820958D01*
X143651372Y-63820958D01*
X143453916Y-63792328D01*
X143453913Y-63792328D01*
X143447976Y-63791467D01*
X143236681Y-63801247D01*
X143105503Y-63832861D01*
X143036879Y-63849399D01*
X143036877Y-63849400D01*
X143031046Y-63850805D01*
X143025588Y-63853287D01*
X143025584Y-63853288D01*
X142935325Y-63894327D01*
X142838493Y-63938354D01*
X142665969Y-64060734D01*
X142519699Y-64213530D01*
X142404960Y-64391228D01*
X142402717Y-64396794D01*
X142334373Y-64566379D01*
X142325894Y-64587417D01*
X142285352Y-64795017D01*
X142285080Y-64800579D01*
X142285080Y-65756526D01*
X141962080Y-65756526D01*
X141962080Y-64850834D01*
X141947032Y-64693114D01*
X141887488Y-64490146D01*
X141815309Y-64350001D01*
X141793384Y-64307431D01*
X141793382Y-64307428D01*
X141790638Y-64302100D01*
X141659976Y-64135760D01*
X141655445Y-64131828D01*
X141655442Y-64131825D01*
X141504747Y-64001059D01*
X141500217Y-63997128D01*
X141495031Y-63994128D01*
X141495027Y-63994125D01*
X141322322Y-63894213D01*
X141317126Y-63891207D01*
X141117309Y-63821819D01*
X141111374Y-63820958D01*
X141111372Y-63820958D01*
X140913916Y-63792328D01*
X140913913Y-63792328D01*
X140907976Y-63791467D01*
X140696681Y-63801247D01*
X140565503Y-63832861D01*
X140496879Y-63849399D01*
X140496877Y-63849400D01*
X140491046Y-63850805D01*
X140485588Y-63853287D01*
X140485584Y-63853288D01*
X140395325Y-63894327D01*
X140298493Y-63938354D01*
X140125969Y-64060734D01*
X139979699Y-64213530D01*
X139864960Y-64391228D01*
X139862717Y-64396794D01*
X139794373Y-64566379D01*
X139785894Y-64587417D01*
X139745352Y-64795017D01*
X139745080Y-64800579D01*
X139745080Y-65756526D01*
X139422080Y-65756526D01*
X139422080Y-64850834D01*
X139407032Y-64693114D01*
X139347488Y-64490146D01*
X139275309Y-64350001D01*
X139253384Y-64307431D01*
X139253382Y-64307428D01*
X139250638Y-64302100D01*
X139119976Y-64135760D01*
X139115445Y-64131828D01*
X139115442Y-64131825D01*
X138964747Y-64001059D01*
X138960217Y-63997128D01*
X138955031Y-63994128D01*
X138955027Y-63994125D01*
X138782322Y-63894213D01*
X138777126Y-63891207D01*
X138577309Y-63821819D01*
X138571374Y-63820958D01*
X138571372Y-63820958D01*
X138373916Y-63792328D01*
X138373913Y-63792328D01*
X138367976Y-63791467D01*
X138156681Y-63801247D01*
X138025503Y-63832861D01*
X137956879Y-63849399D01*
X137956877Y-63849400D01*
X137951046Y-63850805D01*
X137945588Y-63853287D01*
X137945584Y-63853288D01*
X137855325Y-63894327D01*
X137758493Y-63938354D01*
X137585969Y-64060734D01*
X137439699Y-64213530D01*
X137324960Y-64391228D01*
X137322717Y-64396794D01*
X137254373Y-64566379D01*
X137245894Y-64587417D01*
X137205352Y-64795017D01*
X137205080Y-64800579D01*
X137205080Y-65756526D01*
X136882080Y-65756526D01*
X136882080Y-64850834D01*
X136867032Y-64693114D01*
X136807488Y-64490146D01*
X136735309Y-64350001D01*
X136713384Y-64307431D01*
X136713382Y-64307428D01*
X136710638Y-64302100D01*
X136579976Y-64135760D01*
X136575445Y-64131828D01*
X136575442Y-64131825D01*
X136424747Y-64001059D01*
X136420217Y-63997128D01*
X136415031Y-63994128D01*
X136415027Y-63994125D01*
X136242322Y-63894213D01*
X136237126Y-63891207D01*
X136037309Y-63821819D01*
X136031374Y-63820958D01*
X136031372Y-63820958D01*
X135833916Y-63792328D01*
X135833913Y-63792328D01*
X135827976Y-63791467D01*
X135616681Y-63801247D01*
X135485503Y-63832861D01*
X135416879Y-63849399D01*
X135416877Y-63849400D01*
X135411046Y-63850805D01*
X135405588Y-63853287D01*
X135405584Y-63853288D01*
X135315325Y-63894327D01*
X135218493Y-63938354D01*
X135045969Y-64060734D01*
X134899699Y-64213530D01*
X134784960Y-64391228D01*
X134782717Y-64396794D01*
X134714373Y-64566379D01*
X134705894Y-64587417D01*
X134665352Y-64795017D01*
X134665080Y-64800579D01*
X134665080Y-65756526D01*
X134342080Y-65756526D01*
X134342080Y-64850834D01*
X134327032Y-64693114D01*
X134267488Y-64490146D01*
X134195309Y-64350001D01*
X134173384Y-64307431D01*
X134173382Y-64307428D01*
X134170638Y-64302100D01*
X134039976Y-64135760D01*
X134035445Y-64131828D01*
X134035442Y-64131825D01*
X133884747Y-64001059D01*
X133880217Y-63997128D01*
X133875031Y-63994128D01*
X133875027Y-63994125D01*
X133702322Y-63894213D01*
X133697126Y-63891207D01*
X133497309Y-63821819D01*
X133491374Y-63820958D01*
X133491372Y-63820958D01*
X133293916Y-63792328D01*
X133293913Y-63792328D01*
X133287976Y-63791467D01*
X133076681Y-63801247D01*
X132945503Y-63832861D01*
X132876879Y-63849399D01*
X132876877Y-63849400D01*
X132871046Y-63850805D01*
X132865588Y-63853287D01*
X132865584Y-63853288D01*
X132775325Y-63894327D01*
X132678493Y-63938354D01*
X132505969Y-64060734D01*
X132359699Y-64213530D01*
X132244960Y-64391228D01*
X132242717Y-64396794D01*
X132174373Y-64566379D01*
X132165894Y-64587417D01*
X132125352Y-64795017D01*
X132125080Y-64800579D01*
X132125080Y-65756526D01*
X132140128Y-65914246D01*
X132199672Y-66117214D01*
X132255202Y-66225032D01*
X132268610Y-66294747D01*
X132242197Y-66360648D01*
X132232280Y-66371816D01*
X130936266Y-67667830D01*
X130873954Y-67701856D01*
X130803139Y-67696791D01*
X130746303Y-67654244D01*
X130721492Y-67587724D01*
X130727338Y-67539799D01*
X130741502Y-67496206D01*
X130743542Y-67489928D01*
X130763504Y-67300000D01*
X130745982Y-67133287D01*
X130744232Y-67116635D01*
X130744232Y-67116633D01*
X130743542Y-67110072D01*
X130714915Y-67021968D01*
X130698892Y-66972653D01*
X130696865Y-66901685D01*
X130733527Y-66840888D01*
X130797239Y-66809562D01*
X130812896Y-66807853D01*
X130850479Y-66806113D01*
X131010450Y-66767560D01*
X131050281Y-66757961D01*
X131050283Y-66757960D01*
X131056114Y-66756555D01*
X131061572Y-66754073D01*
X131061576Y-66754072D01*
X131208350Y-66687337D01*
X131248667Y-66669006D01*
X131421191Y-66546626D01*
X131567461Y-66393830D01*
X131682200Y-66216132D01*
X131724381Y-66111466D01*
X131759022Y-66025512D01*
X131759023Y-66025509D01*
X131761266Y-66019943D01*
X131801808Y-65812343D01*
X131802080Y-65806781D01*
X131802080Y-64850834D01*
X131787032Y-64693114D01*
X131727488Y-64490146D01*
X131655309Y-64350001D01*
X131633384Y-64307431D01*
X131633382Y-64307428D01*
X131630638Y-64302100D01*
X131499976Y-64135760D01*
X131495445Y-64131828D01*
X131495442Y-64131825D01*
X131344747Y-64001059D01*
X131340217Y-63997128D01*
X131335031Y-63994128D01*
X131335027Y-63994125D01*
X131162322Y-63894213D01*
X131157126Y-63891207D01*
X130957309Y-63821819D01*
X130951374Y-63820958D01*
X130951372Y-63820958D01*
X130753916Y-63792328D01*
X130753913Y-63792328D01*
X130747976Y-63791467D01*
X130536681Y-63801247D01*
X130405503Y-63832861D01*
X130336879Y-63849399D01*
X130336877Y-63849400D01*
X130331046Y-63850805D01*
X130325588Y-63853287D01*
X130325584Y-63853288D01*
X130235325Y-63894327D01*
X130138493Y-63938354D01*
X129965969Y-64060734D01*
X129819699Y-64213530D01*
X129704960Y-64391228D01*
X129702717Y-64396794D01*
X129634373Y-64566379D01*
X129625894Y-64587417D01*
X129585352Y-64795017D01*
X129585080Y-64800579D01*
X129585080Y-65756526D01*
X129600128Y-65914246D01*
X129659672Y-66117214D01*
X129662414Y-66122537D01*
X129662416Y-66122542D01*
X129720831Y-66235962D01*
X129734240Y-66305681D01*
X129707827Y-66371581D01*
X129649978Y-66412741D01*
X129635014Y-66416900D01*
X129567712Y-66431206D01*
X129561682Y-66433891D01*
X129561681Y-66433891D01*
X129399278Y-66506197D01*
X129399276Y-66506198D01*
X129393248Y-66508882D01*
X129238747Y-66621134D01*
X129234326Y-66626044D01*
X129234325Y-66626045D01*
X129115548Y-66757961D01*
X129110960Y-66763056D01*
X129015473Y-66928444D01*
X128956458Y-67110072D01*
X128955768Y-67116633D01*
X128955768Y-67116635D01*
X128954018Y-67133287D01*
X128936496Y-67300000D01*
X128956458Y-67489928D01*
X129015473Y-67671556D01*
X129018776Y-67677278D01*
X129018777Y-67677279D01*
X129074619Y-67773999D01*
X129091500Y-67836999D01*
X129091500Y-67912750D01*
X129071498Y-67980871D01*
X129054595Y-68001845D01*
X128132364Y-68924076D01*
X128070052Y-68958102D01*
X127999237Y-68953037D01*
X127949637Y-68919294D01*
X127861253Y-68821134D01*
X127715953Y-68715567D01*
X127712094Y-68712763D01*
X127712093Y-68712762D01*
X127706752Y-68708882D01*
X127700724Y-68706198D01*
X127700722Y-68706197D01*
X127538319Y-68633891D01*
X127538318Y-68633891D01*
X127532288Y-68631206D01*
X127438887Y-68611353D01*
X127351944Y-68592872D01*
X127351939Y-68592872D01*
X127345487Y-68591500D01*
X127289594Y-68591500D01*
X127221473Y-68571498D01*
X127200499Y-68554595D01*
X125667873Y-67021968D01*
X125633847Y-66959656D01*
X125638912Y-66888840D01*
X125681459Y-66832005D01*
X125751142Y-66807008D01*
X125770479Y-66806113D01*
X125930450Y-66767560D01*
X125970281Y-66757961D01*
X125970283Y-66757960D01*
X125976114Y-66756555D01*
X125981572Y-66754073D01*
X125981576Y-66754072D01*
X126128350Y-66687337D01*
X126168667Y-66669006D01*
X126341191Y-66546626D01*
X126487461Y-66393830D01*
X126602200Y-66216132D01*
X126644381Y-66111466D01*
X126679022Y-66025512D01*
X126679023Y-66025509D01*
X126681266Y-66019943D01*
X126721808Y-65812343D01*
X126722080Y-65806781D01*
X126722080Y-65756526D01*
X127045080Y-65756526D01*
X127060128Y-65914246D01*
X127119672Y-66117214D01*
X127216522Y-66305260D01*
X127347184Y-66471600D01*
X127351715Y-66475532D01*
X127351718Y-66475535D01*
X127437638Y-66550092D01*
X127506943Y-66610232D01*
X127512129Y-66613232D01*
X127512133Y-66613235D01*
X127665573Y-66702002D01*
X127690034Y-66716153D01*
X127889851Y-66785541D01*
X127895786Y-66786402D01*
X127895788Y-66786402D01*
X128093244Y-66815032D01*
X128093247Y-66815032D01*
X128099184Y-66815893D01*
X128310479Y-66806113D01*
X128470450Y-66767560D01*
X128510281Y-66757961D01*
X128510283Y-66757960D01*
X128516114Y-66756555D01*
X128521572Y-66754073D01*
X128521576Y-66754072D01*
X128668350Y-66687337D01*
X128708667Y-66669006D01*
X128881191Y-66546626D01*
X129027461Y-66393830D01*
X129142200Y-66216132D01*
X129184381Y-66111466D01*
X129219022Y-66025512D01*
X129219023Y-66025509D01*
X129221266Y-66019943D01*
X129261808Y-65812343D01*
X129262080Y-65806781D01*
X129262080Y-64850834D01*
X129247032Y-64693114D01*
X129187488Y-64490146D01*
X129115309Y-64350001D01*
X129093384Y-64307431D01*
X129093382Y-64307428D01*
X129090638Y-64302100D01*
X128959976Y-64135760D01*
X128955445Y-64131828D01*
X128955442Y-64131825D01*
X128804747Y-64001059D01*
X128800217Y-63997128D01*
X128795031Y-63994128D01*
X128795027Y-63994125D01*
X128622322Y-63894213D01*
X128617126Y-63891207D01*
X128417309Y-63821819D01*
X128411374Y-63820958D01*
X128411372Y-63820958D01*
X128213916Y-63792328D01*
X128213913Y-63792328D01*
X128207976Y-63791467D01*
X127996681Y-63801247D01*
X127865503Y-63832861D01*
X127796879Y-63849399D01*
X127796877Y-63849400D01*
X127791046Y-63850805D01*
X127785588Y-63853287D01*
X127785584Y-63853288D01*
X127695325Y-63894327D01*
X127598493Y-63938354D01*
X127425969Y-64060734D01*
X127279699Y-64213530D01*
X127164960Y-64391228D01*
X127162717Y-64396794D01*
X127094373Y-64566379D01*
X127085894Y-64587417D01*
X127045352Y-64795017D01*
X127045080Y-64800579D01*
X127045080Y-65756526D01*
X126722080Y-65756526D01*
X126722080Y-64850834D01*
X126707032Y-64693114D01*
X126647488Y-64490146D01*
X126575309Y-64350001D01*
X126553384Y-64307431D01*
X126553382Y-64307428D01*
X126550638Y-64302100D01*
X126419976Y-64135760D01*
X126415445Y-64131828D01*
X126415442Y-64131825D01*
X126264747Y-64001059D01*
X126260217Y-63997128D01*
X126255031Y-63994128D01*
X126255027Y-63994125D01*
X126082322Y-63894213D01*
X126077126Y-63891207D01*
X125877309Y-63821819D01*
X125871374Y-63820958D01*
X125871372Y-63820958D01*
X125673916Y-63792328D01*
X125673913Y-63792328D01*
X125667976Y-63791467D01*
X125456681Y-63801247D01*
X125325503Y-63832861D01*
X125256879Y-63849399D01*
X125256877Y-63849400D01*
X125251046Y-63850805D01*
X125245588Y-63853287D01*
X125245584Y-63853288D01*
X125155325Y-63894327D01*
X125058493Y-63938354D01*
X124885969Y-64060734D01*
X124739699Y-64213530D01*
X124624960Y-64391228D01*
X124622717Y-64396794D01*
X124554373Y-64566379D01*
X124545894Y-64587417D01*
X124505352Y-64795017D01*
X124505080Y-64800579D01*
X124505080Y-65554985D01*
X124485078Y-65623106D01*
X124431422Y-65669599D01*
X124361148Y-65679703D01*
X124296568Y-65650209D01*
X124289985Y-65644080D01*
X124218985Y-65573080D01*
X124184959Y-65510768D01*
X124182080Y-65483985D01*
X124182080Y-64850834D01*
X124167032Y-64693114D01*
X124107488Y-64490146D01*
X124035309Y-64350001D01*
X124013384Y-64307431D01*
X124013382Y-64307428D01*
X124010638Y-64302100D01*
X123879976Y-64135760D01*
X123875445Y-64131828D01*
X123875442Y-64131825D01*
X123724747Y-64001059D01*
X123720217Y-63997128D01*
X123715031Y-63994128D01*
X123715027Y-63994125D01*
X123542322Y-63894213D01*
X123537126Y-63891207D01*
X123337309Y-63821819D01*
X123331374Y-63820958D01*
X123331372Y-63820958D01*
X123133916Y-63792328D01*
X123133913Y-63792328D01*
X123127976Y-63791467D01*
X122916681Y-63801247D01*
X122785503Y-63832861D01*
X122716879Y-63849399D01*
X122716877Y-63849400D01*
X122711046Y-63850805D01*
X122705588Y-63853287D01*
X122705584Y-63853288D01*
X122544955Y-63926322D01*
X122474665Y-63936308D01*
X122410133Y-63906708D01*
X122371849Y-63846918D01*
X122371967Y-63775921D01*
X122403709Y-63722526D01*
X122769384Y-63356851D01*
X122779527Y-63347749D01*
X122804218Y-63327897D01*
X122809025Y-63324032D01*
X122841292Y-63285578D01*
X122844472Y-63281931D01*
X122846115Y-63280119D01*
X122848309Y-63277925D01*
X122875642Y-63244651D01*
X122876348Y-63243800D01*
X122901013Y-63214406D01*
X122936154Y-63172526D01*
X122938722Y-63167856D01*
X122942103Y-63163739D01*
X122985977Y-63081914D01*
X122986606Y-63080755D01*
X123028462Y-63004619D01*
X123028465Y-63004611D01*
X123031433Y-62999213D01*
X123033045Y-62994131D01*
X123035562Y-62989437D01*
X123062762Y-62900469D01*
X123063108Y-62899358D01*
X123089373Y-62816563D01*
X123091235Y-62810694D01*
X123091829Y-62805398D01*
X123093387Y-62800302D01*
X123102790Y-62707743D01*
X123102911Y-62706607D01*
X123108500Y-62656773D01*
X123108500Y-62653246D01*
X123108555Y-62652261D01*
X123109002Y-62646581D01*
X123113374Y-62603538D01*
X123109059Y-62557891D01*
X123108500Y-62546033D01*
X123108500Y-60775231D01*
X123107814Y-60768227D01*
X123094681Y-60634301D01*
X123094080Y-60628167D01*
X123036916Y-60438831D01*
X122944066Y-60264204D01*
X122873709Y-60177938D01*
X122822960Y-60115713D01*
X122822957Y-60115710D01*
X122819065Y-60110938D01*
X122812724Y-60105692D01*
X122671425Y-59988799D01*
X122671421Y-59988797D01*
X122666675Y-59984870D01*
X122492701Y-59890802D01*
X122303768Y-59832318D01*
X122297643Y-59831674D01*
X122297642Y-59831674D01*
X122113204Y-59812289D01*
X122113202Y-59812289D01*
X122107075Y-59811645D01*
X122024576Y-59819153D01*
X121916251Y-59829011D01*
X121916248Y-59829012D01*
X121910112Y-59829570D01*
X121904206Y-59831308D01*
X121904202Y-59831309D01*
X121799076Y-59862249D01*
X121720381Y-59885410D01*
X121714923Y-59888263D01*
X121714919Y-59888265D01*
X121624147Y-59935720D01*
X121545110Y-59977040D01*
X121390975Y-60100968D01*
X121263846Y-60252474D01*
X121260879Y-60257872D01*
X121260875Y-60257877D01*
X121257397Y-60264204D01*
X121168567Y-60425787D01*
X121166706Y-60431654D01*
X121166705Y-60431656D01*
X121110627Y-60608436D01*
X121108765Y-60614306D01*
X121091500Y-60768227D01*
X121091500Y-62130074D01*
X121071498Y-62198195D01*
X121054596Y-62219169D01*
X120819171Y-62454595D01*
X120756858Y-62488620D01*
X120730075Y-62491500D01*
X103435440Y-62491500D01*
X103421832Y-62490763D01*
X103390336Y-62487341D01*
X103390332Y-62487341D01*
X103384211Y-62486676D01*
X103366211Y-62488251D01*
X103334209Y-62491050D01*
X103329384Y-62491379D01*
X103326913Y-62491500D01*
X103323831Y-62491500D01*
X103301363Y-62493703D01*
X103281089Y-62495691D01*
X103279774Y-62495813D01*
X103247513Y-62498636D01*
X103187187Y-62503913D01*
X103182068Y-62505400D01*
X103176767Y-62505920D01*
X103087794Y-62532782D01*
X103086654Y-62533120D01*
X102997263Y-62559091D01*
X102992529Y-62561545D01*
X102987431Y-62563084D01*
X102981987Y-62565978D01*
X102981986Y-62565979D01*
X102905431Y-62606684D01*
X102904263Y-62607298D01*
X102899701Y-62609663D01*
X102821674Y-62650108D01*
X102817511Y-62653431D01*
X102812804Y-62655934D01*
X102808030Y-62659828D01*
X102808028Y-62659829D01*
X102740705Y-62714737D01*
X102739760Y-62715500D01*
X102700627Y-62746739D01*
X102698136Y-62749230D01*
X102697409Y-62749880D01*
X102693063Y-62753592D01*
X102674188Y-62768987D01*
X102659538Y-62780935D01*
X102655615Y-62785677D01*
X102655613Y-62785679D01*
X102630303Y-62816273D01*
X102622313Y-62825053D01*
X102507901Y-62939465D01*
X102497758Y-62948567D01*
X102468255Y-62972288D01*
X102445662Y-62999213D01*
X102435989Y-63010741D01*
X102432808Y-63014389D01*
X102431165Y-63016201D01*
X102428971Y-63018395D01*
X102401638Y-63051669D01*
X102400976Y-63052467D01*
X102341126Y-63123794D01*
X102338558Y-63128464D01*
X102335177Y-63132581D01*
X102311229Y-63177244D01*
X102291303Y-63214406D01*
X102290674Y-63215565D01*
X102248818Y-63291701D01*
X102248815Y-63291709D01*
X102245847Y-63297107D01*
X102244235Y-63302189D01*
X102241718Y-63306883D01*
X102214518Y-63395851D01*
X102214198Y-63396879D01*
X102186045Y-63485626D01*
X102185451Y-63490922D01*
X102183893Y-63496018D01*
X102183270Y-63502154D01*
X102174498Y-63588507D01*
X102174369Y-63589713D01*
X102168780Y-63639547D01*
X102168780Y-63643074D01*
X102168725Y-63644059D01*
X102168278Y-63649739D01*
X102163906Y-63692782D01*
X102164486Y-63698913D01*
X102168221Y-63738429D01*
X102168780Y-63750287D01*
X102168780Y-63894327D01*
X102148778Y-63962448D01*
X102115680Y-63997097D01*
X102110095Y-64001059D01*
X102025969Y-64060734D01*
X101879699Y-64213530D01*
X101764960Y-64391228D01*
X101762717Y-64396794D01*
X101694373Y-64566379D01*
X101685894Y-64587417D01*
X101645352Y-64795017D01*
X101645080Y-64800579D01*
X101645080Y-65756526D01*
X101660128Y-65914246D01*
X101719672Y-66117214D01*
X101816522Y-66305260D01*
X101947184Y-66471600D01*
X101951715Y-66475532D01*
X101951718Y-66475535D01*
X102037638Y-66550092D01*
X102106943Y-66610232D01*
X102112129Y-66613232D01*
X102112133Y-66613235D01*
X102265573Y-66702002D01*
X102290034Y-66716153D01*
X102489851Y-66785541D01*
X102495786Y-66786402D01*
X102495788Y-66786402D01*
X102693244Y-66815032D01*
X102693247Y-66815032D01*
X102699184Y-66815893D01*
X102910479Y-66806113D01*
X103070450Y-66767560D01*
X103110281Y-66757961D01*
X103110283Y-66757960D01*
X103116114Y-66756555D01*
X103121572Y-66754073D01*
X103121576Y-66754072D01*
X103268350Y-66687337D01*
X103308667Y-66669006D01*
X103481191Y-66546626D01*
X103627461Y-66393830D01*
X103700890Y-66280110D01*
X103738948Y-66221169D01*
X103738950Y-66221166D01*
X103742200Y-66216132D01*
X103773168Y-66139291D01*
X103811082Y-66088194D01*
X103881493Y-66031582D01*
X103881499Y-66031576D01*
X103886305Y-66027712D01*
X103992291Y-65901403D01*
X104051398Y-65862078D01*
X104122386Y-65860952D01*
X104182713Y-65898383D01*
X104209715Y-65946926D01*
X104259672Y-66117214D01*
X104356522Y-66305260D01*
X104487184Y-66471600D01*
X104491715Y-66475532D01*
X104491718Y-66475535D01*
X104577638Y-66550092D01*
X104646943Y-66610232D01*
X104652129Y-66613232D01*
X104652133Y-66613235D01*
X104805573Y-66702002D01*
X104830034Y-66716153D01*
X105029851Y-66785541D01*
X105035786Y-66786402D01*
X105035788Y-66786402D01*
X105233244Y-66815032D01*
X105233247Y-66815032D01*
X105239184Y-66815893D01*
X105450479Y-66806113D01*
X105610450Y-66767560D01*
X105650281Y-66757961D01*
X105650283Y-66757960D01*
X105656114Y-66756555D01*
X105661572Y-66754073D01*
X105661576Y-66754072D01*
X105808350Y-66687337D01*
X105848667Y-66669006D01*
X106021191Y-66546626D01*
X106167461Y-66393830D01*
X106282200Y-66216132D01*
X106324381Y-66111466D01*
X106359022Y-66025512D01*
X106359023Y-66025509D01*
X106361266Y-66019943D01*
X106401808Y-65812343D01*
X106402080Y-65806781D01*
X106402080Y-64850834D01*
X106387032Y-64693114D01*
X106385344Y-64687360D01*
X106385343Y-64687354D01*
X106380243Y-64669971D01*
X106380259Y-64598974D01*
X106418656Y-64539257D01*
X106483244Y-64509778D01*
X106501147Y-64508500D01*
X106628319Y-64508500D01*
X106696440Y-64528502D01*
X106742933Y-64582158D01*
X106751983Y-64658650D01*
X106725352Y-64795017D01*
X106725080Y-64800579D01*
X106725080Y-65756526D01*
X106740128Y-65914246D01*
X106799672Y-66117214D01*
X106896522Y-66305260D01*
X107027184Y-66471600D01*
X107031715Y-66475532D01*
X107031718Y-66475535D01*
X107117638Y-66550092D01*
X107186943Y-66610232D01*
X107192129Y-66613232D01*
X107192133Y-66613235D01*
X107345573Y-66702002D01*
X107370034Y-66716153D01*
X107569851Y-66785541D01*
X107575786Y-66786402D01*
X107575788Y-66786402D01*
X107773244Y-66815032D01*
X107773247Y-66815032D01*
X107779184Y-66815893D01*
X107990479Y-66806113D01*
X108150450Y-66767560D01*
X108190281Y-66757961D01*
X108190283Y-66757960D01*
X108196114Y-66756555D01*
X108201572Y-66754073D01*
X108201576Y-66754072D01*
X108348350Y-66687337D01*
X108388667Y-66669006D01*
X108561191Y-66546626D01*
X108707461Y-66393830D01*
X108822200Y-66216132D01*
X108864381Y-66111466D01*
X108899022Y-66025512D01*
X108899023Y-66025509D01*
X108901266Y-66019943D01*
X108941808Y-65812343D01*
X108942080Y-65806781D01*
X108942080Y-64850834D01*
X108927032Y-64693114D01*
X108925344Y-64687360D01*
X108925343Y-64687354D01*
X108920243Y-64669971D01*
X108920259Y-64598974D01*
X108958656Y-64539257D01*
X109023244Y-64509778D01*
X109041147Y-64508500D01*
X109168319Y-64508500D01*
X109236440Y-64528502D01*
X109282933Y-64582158D01*
X109291983Y-64658650D01*
X109265352Y-64795017D01*
X109265080Y-64800579D01*
X109265080Y-65756526D01*
X109280128Y-65914246D01*
X109339672Y-66117214D01*
X109436522Y-66305260D01*
X109567184Y-66471600D01*
X109571715Y-66475532D01*
X109571718Y-66475535D01*
X109657638Y-66550092D01*
X109726943Y-66610232D01*
X109732129Y-66613232D01*
X109732133Y-66613235D01*
X109885573Y-66702002D01*
X109910034Y-66716153D01*
X110109851Y-66785541D01*
X110115786Y-66786402D01*
X110115788Y-66786402D01*
X110313244Y-66815032D01*
X110313247Y-66815032D01*
X110319184Y-66815893D01*
X110530479Y-66806113D01*
X110690450Y-66767560D01*
X110730281Y-66757961D01*
X110730283Y-66757960D01*
X110736114Y-66756555D01*
X110741572Y-66754073D01*
X110741576Y-66754072D01*
X110888350Y-66687337D01*
X110928667Y-66669006D01*
X111101191Y-66546626D01*
X111247461Y-66393830D01*
X111362200Y-66216132D01*
X111404381Y-66111466D01*
X111439022Y-66025512D01*
X111439023Y-66025509D01*
X111441266Y-66019943D01*
X111481808Y-65812343D01*
X111482080Y-65806781D01*
X111482080Y-64850834D01*
X111467032Y-64693114D01*
X111465344Y-64687360D01*
X111465343Y-64687354D01*
X111460243Y-64669971D01*
X111460259Y-64598974D01*
X111498656Y-64539257D01*
X111563244Y-64509778D01*
X111581147Y-64508500D01*
X111708319Y-64508500D01*
X111776440Y-64528502D01*
X111822933Y-64582158D01*
X111831983Y-64658650D01*
X111805352Y-64795017D01*
X111805080Y-64800579D01*
X111805080Y-65756526D01*
X111820128Y-65914246D01*
X111879672Y-66117214D01*
X111976522Y-66305260D01*
X112107184Y-66471600D01*
X112111715Y-66475532D01*
X112111718Y-66475535D01*
X112197638Y-66550092D01*
X112266943Y-66610232D01*
X112272129Y-66613232D01*
X112272133Y-66613235D01*
X112425573Y-66702002D01*
X112450034Y-66716153D01*
X112649851Y-66785541D01*
X112655786Y-66786402D01*
X112655788Y-66786402D01*
X112853244Y-66815032D01*
X112853247Y-66815032D01*
X112859184Y-66815893D01*
X113070479Y-66806113D01*
X113230450Y-66767560D01*
X113270281Y-66757961D01*
X113270283Y-66757960D01*
X113276114Y-66756555D01*
X113281572Y-66754073D01*
X113281576Y-66754072D01*
X113428350Y-66687337D01*
X113468667Y-66669006D01*
X113641191Y-66546626D01*
X113787461Y-66393830D01*
X113902200Y-66216132D01*
X113944381Y-66111466D01*
X113952808Y-66090557D01*
X114345581Y-66090557D01*
X114345634Y-66092394D01*
X114347057Y-66102337D01*
X114385048Y-66266900D01*
X114389700Y-66280110D01*
X114462462Y-66430625D01*
X114469923Y-66442473D01*
X114574233Y-66573140D01*
X114584120Y-66583027D01*
X114714787Y-66687337D01*
X114726635Y-66694798D01*
X114877150Y-66767560D01*
X114890360Y-66772212D01*
X115054922Y-66810203D01*
X115064857Y-66811626D01*
X115066733Y-66811680D01*
X115181465Y-66811680D01*
X115196704Y-66807205D01*
X115197909Y-66805815D01*
X115199580Y-66798132D01*
X115199580Y-66793564D01*
X115707580Y-66793564D01*
X115712055Y-66808803D01*
X115713445Y-66810008D01*
X115721128Y-66811679D01*
X115840457Y-66811679D01*
X115842294Y-66811626D01*
X115852237Y-66810203D01*
X116016800Y-66772212D01*
X116030010Y-66767560D01*
X116180525Y-66694798D01*
X116192373Y-66687337D01*
X116323040Y-66583027D01*
X116332927Y-66573140D01*
X116437237Y-66442473D01*
X116444698Y-66430625D01*
X116517460Y-66280110D01*
X116522112Y-66266900D01*
X116560103Y-66102338D01*
X116561526Y-66092403D01*
X116561580Y-66090527D01*
X116561580Y-65575795D01*
X116557105Y-65560556D01*
X116555715Y-65559351D01*
X116548032Y-65557680D01*
X115725695Y-65557680D01*
X115710456Y-65562155D01*
X115709251Y-65563545D01*
X115707580Y-65571228D01*
X115707580Y-66793564D01*
X115199580Y-66793564D01*
X115199580Y-65575795D01*
X115195105Y-65560556D01*
X115193715Y-65559351D01*
X115186032Y-65557680D01*
X114363696Y-65557680D01*
X114348457Y-65562155D01*
X114347252Y-65563545D01*
X114345581Y-65571228D01*
X114345581Y-66090557D01*
X113952808Y-66090557D01*
X113979022Y-66025512D01*
X113979023Y-66025509D01*
X113981266Y-66019943D01*
X114021808Y-65812343D01*
X114022080Y-65806781D01*
X114022080Y-64850834D01*
X114007032Y-64693114D01*
X114005344Y-64687360D01*
X114005343Y-64687354D01*
X114000243Y-64669971D01*
X114000259Y-64598974D01*
X114038656Y-64539257D01*
X114103244Y-64509778D01*
X114121147Y-64508500D01*
X114219580Y-64508500D01*
X114287701Y-64528502D01*
X114334194Y-64582158D01*
X114345580Y-64634500D01*
X114345580Y-65031565D01*
X114350055Y-65046804D01*
X114351445Y-65048009D01*
X114359128Y-65049680D01*
X116543464Y-65049680D01*
X116558703Y-65045205D01*
X116559908Y-65043815D01*
X116561579Y-65036132D01*
X116561579Y-64634500D01*
X116581581Y-64566379D01*
X116635237Y-64519886D01*
X116687579Y-64508500D01*
X116788319Y-64508500D01*
X116856440Y-64528502D01*
X116902933Y-64582158D01*
X116911983Y-64658650D01*
X116885352Y-64795017D01*
X116885080Y-64800579D01*
X116885080Y-65756526D01*
X116900128Y-65914246D01*
X116959672Y-66117214D01*
X117056522Y-66305260D01*
X117187184Y-66471600D01*
X117191715Y-66475532D01*
X117191718Y-66475535D01*
X117277638Y-66550092D01*
X117346943Y-66610232D01*
X117352129Y-66613232D01*
X117352133Y-66613235D01*
X117505573Y-66702002D01*
X117530034Y-66716153D01*
X117729851Y-66785541D01*
X117735786Y-66786402D01*
X117735788Y-66786402D01*
X117933244Y-66815032D01*
X117933247Y-66815032D01*
X117939184Y-66815893D01*
X118150479Y-66806113D01*
X118310450Y-66767560D01*
X118350281Y-66757961D01*
X118350283Y-66757960D01*
X118356114Y-66756555D01*
X118361572Y-66754073D01*
X118361576Y-66754072D01*
X118508350Y-66687337D01*
X118548667Y-66669006D01*
X118721191Y-66546626D01*
X118867461Y-66393830D01*
X118982200Y-66216132D01*
X119024381Y-66111466D01*
X119059022Y-66025512D01*
X119059023Y-66025509D01*
X119061266Y-66019943D01*
X119101808Y-65812343D01*
X119102080Y-65806781D01*
X119102080Y-64850834D01*
X119087032Y-64693114D01*
X119085344Y-64687360D01*
X119085343Y-64687354D01*
X119080243Y-64669971D01*
X119080259Y-64598974D01*
X119118656Y-64539257D01*
X119183244Y-64509778D01*
X119201147Y-64508500D01*
X119328319Y-64508500D01*
X119396440Y-64528502D01*
X119442933Y-64582158D01*
X119451983Y-64658650D01*
X119425352Y-64795017D01*
X119425080Y-64800579D01*
X119425080Y-65756526D01*
X119440128Y-65914246D01*
X119499672Y-66117214D01*
X119596522Y-66305260D01*
X119727184Y-66471600D01*
X119731715Y-66475532D01*
X119731718Y-66475535D01*
X119817638Y-66550092D01*
X119886943Y-66610232D01*
X119892129Y-66613232D01*
X119892133Y-66613235D01*
X120045573Y-66702002D01*
X120070034Y-66716153D01*
X120269851Y-66785541D01*
X120275786Y-66786402D01*
X120275788Y-66786402D01*
X120473244Y-66815032D01*
X120473247Y-66815032D01*
X120479184Y-66815893D01*
X120690479Y-66806113D01*
X120850450Y-66767560D01*
X120890281Y-66757961D01*
X120890283Y-66757960D01*
X120896114Y-66756555D01*
X120901572Y-66754073D01*
X120901576Y-66754072D01*
X121048350Y-66687337D01*
X121088667Y-66669006D01*
X121199653Y-66590278D01*
X121266787Y-66567180D01*
X121335752Y-66584044D01*
X121361647Y-66603952D01*
X121429596Y-66671901D01*
X121463621Y-66734214D01*
X121466500Y-66760996D01*
X121466500Y-67048976D01*
X121446498Y-67117097D01*
X121434142Y-67133279D01*
X121360960Y-67214556D01*
X121265473Y-67379944D01*
X121206458Y-67561572D01*
X121186496Y-67751500D01*
X121206458Y-67941428D01*
X121265473Y-68123056D01*
X121268776Y-68128778D01*
X121268777Y-68128779D01*
X121279529Y-68147402D01*
X121360960Y-68288444D01*
X121488747Y-68430366D01*
X121535566Y-68464382D01*
X121629669Y-68532752D01*
X121643248Y-68542618D01*
X121649276Y-68545302D01*
X121649278Y-68545303D01*
X121787929Y-68607034D01*
X121817712Y-68620294D01*
X121911113Y-68640147D01*
X121998056Y-68658628D01*
X121998061Y-68658628D01*
X122004513Y-68660000D01*
X122195487Y-68660000D01*
X122201939Y-68658628D01*
X122201944Y-68658628D01*
X122288887Y-68640147D01*
X122382288Y-68620294D01*
X122412071Y-68607034D01*
X122550722Y-68545303D01*
X122550724Y-68545302D01*
X122556752Y-68542618D01*
X122570332Y-68532752D01*
X122664434Y-68464382D01*
X122711253Y-68430366D01*
X122839040Y-68288444D01*
X122920471Y-68147402D01*
X122931223Y-68128779D01*
X122931224Y-68128778D01*
X122934527Y-68123056D01*
X122993542Y-67941428D01*
X123013504Y-67751500D01*
X122993542Y-67561572D01*
X122934527Y-67379944D01*
X122839040Y-67214556D01*
X122765863Y-67133285D01*
X122735147Y-67069279D01*
X122733500Y-67048976D01*
X122733500Y-66920057D01*
X122753502Y-66851936D01*
X122807158Y-66805443D01*
X122877579Y-66795361D01*
X122942043Y-66804708D01*
X123013244Y-66815032D01*
X123013247Y-66815032D01*
X123019184Y-66815893D01*
X123230479Y-66806113D01*
X123390450Y-66767560D01*
X123430281Y-66757961D01*
X123430283Y-66757960D01*
X123436114Y-66756555D01*
X123441572Y-66754073D01*
X123441576Y-66754072D01*
X123456427Y-66747319D01*
X123476601Y-66738147D01*
X123546890Y-66728159D01*
X123611422Y-66757759D01*
X123617847Y-66763752D01*
X126302878Y-69448783D01*
X126336904Y-69511095D01*
X126339093Y-69524706D01*
X126356458Y-69689928D01*
X126415473Y-69871556D01*
X126510960Y-70036944D01*
X126638747Y-70178866D01*
X126644089Y-70182747D01*
X126644091Y-70182749D01*
X126649169Y-70186438D01*
X126657721Y-70192651D01*
X126701075Y-70248871D01*
X126707153Y-70319607D01*
X126672757Y-70383683D01*
X125951845Y-71104595D01*
X125889533Y-71138621D01*
X125862750Y-71141500D01*
X122742587Y-71141500D01*
X122668528Y-71117437D01*
X122662098Y-71112765D01*
X122662091Y-71112761D01*
X122656752Y-71108882D01*
X122650724Y-71106198D01*
X122650722Y-71106197D01*
X122488319Y-71033891D01*
X122488318Y-71033891D01*
X122482288Y-71031206D01*
X122388888Y-71011353D01*
X122301944Y-70992872D01*
X122301939Y-70992872D01*
X122295487Y-70991500D01*
X122104513Y-70991500D01*
X122098061Y-70992872D01*
X122098056Y-70992872D01*
X122011112Y-71011353D01*
X121917712Y-71031206D01*
X121911682Y-71033891D01*
X121911681Y-71033891D01*
X121883388Y-71046488D01*
X121743248Y-71108882D01*
X121742413Y-71107007D01*
X121682841Y-71121460D01*
X121615748Y-71098241D01*
X121571860Y-71042435D01*
X121569000Y-71034540D01*
X121552137Y-70982642D01*
X121534527Y-70928444D01*
X121520760Y-70904598D01*
X121460725Y-70800615D01*
X121439040Y-70763056D01*
X121399783Y-70719456D01*
X121315675Y-70626045D01*
X121315674Y-70626044D01*
X121311253Y-70621134D01*
X121201197Y-70541173D01*
X121162094Y-70512763D01*
X121162093Y-70512762D01*
X121156752Y-70508882D01*
X121150724Y-70506198D01*
X121150722Y-70506197D01*
X120988319Y-70433891D01*
X120988318Y-70433891D01*
X120982288Y-70431206D01*
X120888887Y-70411353D01*
X120801944Y-70392872D01*
X120801939Y-70392872D01*
X120795487Y-70391500D01*
X120604513Y-70391500D01*
X120598061Y-70392872D01*
X120598056Y-70392872D01*
X120511113Y-70411353D01*
X120417712Y-70431206D01*
X120411682Y-70433891D01*
X120411681Y-70433891D01*
X120249278Y-70506197D01*
X120249276Y-70506198D01*
X120243248Y-70508882D01*
X120237909Y-70512761D01*
X120237902Y-70512765D01*
X120231472Y-70517437D01*
X120157413Y-70541500D01*
X119967070Y-70541500D01*
X119948120Y-70540067D01*
X119933885Y-70537901D01*
X119933881Y-70537901D01*
X119926651Y-70536801D01*
X119919359Y-70537394D01*
X119919356Y-70537394D01*
X119873982Y-70541085D01*
X119863767Y-70541500D01*
X119855707Y-70541500D01*
X119842417Y-70543049D01*
X119827493Y-70544789D01*
X119823118Y-70545222D01*
X119757661Y-70550546D01*
X119757658Y-70550547D01*
X119750363Y-70551140D01*
X119743399Y-70553396D01*
X119737440Y-70554587D01*
X119731585Y-70555971D01*
X119724319Y-70556818D01*
X119655673Y-70581735D01*
X119651545Y-70583152D01*
X119589064Y-70603393D01*
X119589062Y-70603394D01*
X119582101Y-70605649D01*
X119575846Y-70609445D01*
X119570372Y-70611951D01*
X119564942Y-70614670D01*
X119558063Y-70617167D01*
X119551943Y-70621180D01*
X119551942Y-70621180D01*
X119497024Y-70657186D01*
X119493320Y-70659523D01*
X119430893Y-70697405D01*
X119422516Y-70704803D01*
X119422492Y-70704776D01*
X119419500Y-70707429D01*
X119416267Y-70710132D01*
X119410148Y-70714144D01*
X119405116Y-70719456D01*
X119356872Y-70770383D01*
X119354494Y-70772825D01*
X115811089Y-74316230D01*
X115796677Y-74328616D01*
X115785082Y-74337149D01*
X115785077Y-74337154D01*
X115779182Y-74341492D01*
X115774443Y-74347070D01*
X115774440Y-74347073D01*
X115744965Y-74381768D01*
X115738035Y-74389284D01*
X115732340Y-74394979D01*
X115730060Y-74397861D01*
X115714719Y-74417251D01*
X115711928Y-74420655D01*
X115674674Y-74464506D01*
X115664667Y-74476285D01*
X115661339Y-74482801D01*
X115657972Y-74487850D01*
X115654805Y-74492979D01*
X115650266Y-74498716D01*
X115619345Y-74564875D01*
X115617442Y-74568769D01*
X115584231Y-74633808D01*
X115582492Y-74640916D01*
X115580393Y-74646559D01*
X115578476Y-74652322D01*
X115575378Y-74658950D01*
X115573888Y-74666112D01*
X115573888Y-74666113D01*
X115560514Y-74730412D01*
X115559544Y-74734696D01*
X115542192Y-74805610D01*
X115541500Y-74816764D01*
X115541464Y-74816762D01*
X115541225Y-74820755D01*
X115540851Y-74824947D01*
X115539360Y-74832115D01*
X115539558Y-74839432D01*
X115541454Y-74909521D01*
X115541500Y-74912928D01*
X115541500Y-76713001D01*
X115524619Y-76776001D01*
X115476360Y-76859588D01*
X115465473Y-76878444D01*
X115406458Y-77060072D01*
X115405768Y-77066633D01*
X115405768Y-77066635D01*
X115388898Y-77227144D01*
X115386496Y-77250000D01*
X115387186Y-77256565D01*
X115400154Y-77379944D01*
X115406458Y-77439928D01*
X115465473Y-77621556D01*
X115524244Y-77723349D01*
X115524619Y-77723999D01*
X115541500Y-77786999D01*
X115541500Y-80991405D01*
X115521498Y-81059526D01*
X115467842Y-81106019D01*
X115397568Y-81116123D01*
X115332988Y-81086629D01*
X115326405Y-81080500D01*
X113970401Y-79724496D01*
X113936375Y-79662184D01*
X113933496Y-79635401D01*
X113933496Y-79002524D01*
X113953498Y-78934403D01*
X113965854Y-78918221D01*
X114039036Y-78836944D01*
X114134523Y-78671556D01*
X114193538Y-78489928D01*
X114202896Y-78400897D01*
X114212810Y-78306565D01*
X114213500Y-78300000D01*
X114206840Y-78236632D01*
X114194228Y-78116635D01*
X114194228Y-78116633D01*
X114193538Y-78110072D01*
X114134523Y-77928444D01*
X114125353Y-77912560D01*
X114073112Y-77822077D01*
X114039036Y-77763056D01*
X113911249Y-77621134D01*
X113789152Y-77532425D01*
X113762090Y-77512763D01*
X113762089Y-77512762D01*
X113756748Y-77508882D01*
X113750720Y-77506198D01*
X113750718Y-77506197D01*
X113588315Y-77433891D01*
X113588314Y-77433891D01*
X113582284Y-77431206D01*
X113488883Y-77411353D01*
X113401940Y-77392872D01*
X113401935Y-77392872D01*
X113395483Y-77391500D01*
X113204509Y-77391500D01*
X113198057Y-77392872D01*
X113198052Y-77392872D01*
X113111109Y-77411353D01*
X113017708Y-77431206D01*
X113011678Y-77433891D01*
X113011677Y-77433891D01*
X112849274Y-77506197D01*
X112849272Y-77506198D01*
X112843244Y-77508882D01*
X112837903Y-77512762D01*
X112837902Y-77512763D01*
X112810840Y-77532425D01*
X112688743Y-77621134D01*
X112560956Y-77763056D01*
X112526880Y-77822077D01*
X112474640Y-77912560D01*
X112465469Y-77928444D01*
X112406454Y-78110072D01*
X112405764Y-78116633D01*
X112405764Y-78116635D01*
X112393152Y-78236632D01*
X112386492Y-78300000D01*
X112387182Y-78306565D01*
X112397097Y-78400897D01*
X112406454Y-78489928D01*
X112465469Y-78671556D01*
X112560956Y-78836944D01*
X112634133Y-78918215D01*
X112664849Y-78982221D01*
X112666496Y-79002524D01*
X112666496Y-79871229D01*
X112665969Y-79882412D01*
X112664294Y-79889905D01*
X112664543Y-79897831D01*
X112664543Y-79897832D01*
X112666434Y-79957982D01*
X112666496Y-79961941D01*
X112666496Y-79989852D01*
X112666993Y-79993786D01*
X112666993Y-79993787D01*
X112667001Y-79993852D01*
X112667934Y-80005689D01*
X112669323Y-80049885D01*
X112674737Y-80068520D01*
X112674974Y-80069335D01*
X112678983Y-80088696D01*
X112681522Y-80108793D01*
X112684441Y-80116164D01*
X112684441Y-80116166D01*
X112697800Y-80149908D01*
X112701645Y-80161138D01*
X112711767Y-80195979D01*
X112713978Y-80203589D01*
X112718011Y-80210408D01*
X112718013Y-80210413D01*
X112724289Y-80221024D01*
X112732984Y-80238772D01*
X112740444Y-80257613D01*
X112745106Y-80264029D01*
X112745106Y-80264030D01*
X112766432Y-80293383D01*
X112772948Y-80303303D01*
X112795454Y-80341358D01*
X112809775Y-80355679D01*
X112822615Y-80370712D01*
X112834524Y-80387103D01*
X112863777Y-80411303D01*
X112868601Y-80415294D01*
X112877380Y-80423284D01*
X117046343Y-84592247D01*
X117053887Y-84600537D01*
X117058000Y-84607018D01*
X117063777Y-84612443D01*
X117107667Y-84653658D01*
X117110509Y-84656413D01*
X117130230Y-84676134D01*
X117133425Y-84678612D01*
X117142447Y-84686318D01*
X117174679Y-84716586D01*
X117181628Y-84720406D01*
X117192432Y-84726346D01*
X117208956Y-84737199D01*
X117224959Y-84749613D01*
X117265543Y-84767176D01*
X117276173Y-84772383D01*
X117314940Y-84793695D01*
X117322617Y-84795666D01*
X117322622Y-84795668D01*
X117334558Y-84798732D01*
X117353266Y-84805137D01*
X117371855Y-84813181D01*
X117379683Y-84814421D01*
X117379690Y-84814423D01*
X117415524Y-84820099D01*
X117427144Y-84822505D01*
X117462289Y-84831528D01*
X117469970Y-84833500D01*
X117490224Y-84833500D01*
X117509934Y-84835051D01*
X117529943Y-84838220D01*
X117537835Y-84837474D01*
X117573961Y-84834059D01*
X117585819Y-84833500D01*
X134985406Y-84833500D01*
X135053527Y-84853502D01*
X135074501Y-84870405D01*
X136652878Y-86448782D01*
X136686904Y-86511094D01*
X136689092Y-86524703D01*
X136706458Y-86689928D01*
X136765473Y-86871556D01*
X136768776Y-86877278D01*
X136768777Y-86877279D01*
X136826640Y-86977500D01*
X136843378Y-87046495D01*
X136820158Y-87113587D01*
X136764351Y-87157474D01*
X136717521Y-87166500D01*
X113779728Y-87166500D01*
X113768545Y-87165973D01*
X113761052Y-87164298D01*
X113753126Y-87164547D01*
X113753125Y-87164547D01*
X113692962Y-87166438D01*
X113689004Y-87166500D01*
X113661104Y-87166500D01*
X113657114Y-87167004D01*
X113645280Y-87167936D01*
X113601071Y-87169326D01*
X113593455Y-87171539D01*
X113593453Y-87171539D01*
X113581612Y-87174979D01*
X113562253Y-87178988D01*
X113560943Y-87179154D01*
X113542163Y-87181526D01*
X113534797Y-87184442D01*
X113534791Y-87184444D01*
X113501058Y-87197800D01*
X113489828Y-87201645D01*
X113454977Y-87211770D01*
X113447367Y-87213981D01*
X113440544Y-87218016D01*
X113429926Y-87224295D01*
X113412173Y-87232992D01*
X113404528Y-87236019D01*
X113393343Y-87240448D01*
X113386928Y-87245109D01*
X113357572Y-87266437D01*
X113347655Y-87272951D01*
X113309598Y-87295458D01*
X113295277Y-87309779D01*
X113280244Y-87322619D01*
X113263853Y-87334528D01*
X113258802Y-87340634D01*
X113235662Y-87368605D01*
X113227672Y-87377384D01*
X111203726Y-89401329D01*
X111141416Y-89435354D01*
X111070601Y-89430289D01*
X111032052Y-89407398D01*
X111024747Y-89401059D01*
X111020217Y-89397128D01*
X110837126Y-89291207D01*
X110637309Y-89221819D01*
X110631374Y-89220958D01*
X110631372Y-89220958D01*
X110433916Y-89192328D01*
X110433913Y-89192328D01*
X110427976Y-89191467D01*
X110216681Y-89201247D01*
X110085503Y-89232861D01*
X110016879Y-89249399D01*
X110016877Y-89249400D01*
X110011046Y-89250805D01*
X110005588Y-89253287D01*
X110005584Y-89253288D01*
X109890539Y-89305596D01*
X109818493Y-89338354D01*
X109645969Y-89460734D01*
X109499699Y-89613530D01*
X109384960Y-89791228D01*
X109305894Y-89987417D01*
X109265352Y-90195017D01*
X109265080Y-90200579D01*
X109265080Y-91156526D01*
X109280128Y-91314246D01*
X109339672Y-91517214D01*
X109342416Y-91522541D01*
X109342416Y-91522542D01*
X109433637Y-91699658D01*
X109436522Y-91705260D01*
X109567184Y-91871600D01*
X109571715Y-91875532D01*
X109571718Y-91875535D01*
X109657200Y-91949712D01*
X109726943Y-92010232D01*
X109732129Y-92013232D01*
X109732133Y-92013235D01*
X109894245Y-92107019D01*
X109910034Y-92116153D01*
X110109851Y-92185541D01*
X110115786Y-92186402D01*
X110115788Y-92186402D01*
X110313244Y-92215032D01*
X110313247Y-92215032D01*
X110319184Y-92215893D01*
X110530479Y-92206113D01*
X110671147Y-92172212D01*
X110730281Y-92157961D01*
X110730283Y-92157960D01*
X110736114Y-92156555D01*
X110741572Y-92154073D01*
X110741576Y-92154072D01*
X110888350Y-92087337D01*
X110928667Y-92069006D01*
X111101191Y-91946626D01*
X111247461Y-91793830D01*
X111362200Y-91616132D01*
X111404457Y-91511279D01*
X111439022Y-91425512D01*
X111439023Y-91425509D01*
X111441266Y-91419943D01*
X111481808Y-91212343D01*
X111482080Y-91206781D01*
X111482080Y-90966974D01*
X111502082Y-90898853D01*
X111518985Y-90877879D01*
X111589985Y-90806879D01*
X111652297Y-90772853D01*
X111723112Y-90777918D01*
X111779948Y-90820465D01*
X111804759Y-90886985D01*
X111805080Y-90895974D01*
X111805080Y-91156526D01*
X111820128Y-91314246D01*
X111879672Y-91517214D01*
X111882416Y-91522541D01*
X111882416Y-91522542D01*
X111973637Y-91699658D01*
X111976522Y-91705260D01*
X112107184Y-91871600D01*
X112111715Y-91875532D01*
X112111718Y-91875535D01*
X112197200Y-91949712D01*
X112266943Y-92010232D01*
X112272129Y-92013232D01*
X112272133Y-92013235D01*
X112434245Y-92107019D01*
X112450034Y-92116153D01*
X112649851Y-92185541D01*
X112655786Y-92186402D01*
X112655788Y-92186402D01*
X112853244Y-92215032D01*
X112853247Y-92215032D01*
X112859184Y-92215893D01*
X113070479Y-92206113D01*
X113211147Y-92172212D01*
X113270281Y-92157961D01*
X113270283Y-92157960D01*
X113276114Y-92156555D01*
X113281572Y-92154073D01*
X113281576Y-92154072D01*
X113428350Y-92087337D01*
X113468667Y-92069006D01*
X113641191Y-91946626D01*
X113787461Y-91793830D01*
X113902200Y-91616132D01*
X113944457Y-91511279D01*
X113979022Y-91425512D01*
X113979023Y-91425509D01*
X113981266Y-91419943D01*
X114021808Y-91212343D01*
X114022080Y-91206781D01*
X114022080Y-91156526D01*
X114345080Y-91156526D01*
X114360128Y-91314246D01*
X114419672Y-91517214D01*
X114422416Y-91522541D01*
X114422416Y-91522542D01*
X114513637Y-91699658D01*
X114516522Y-91705260D01*
X114647184Y-91871600D01*
X114651715Y-91875532D01*
X114651718Y-91875535D01*
X114737200Y-91949712D01*
X114806943Y-92010232D01*
X114812129Y-92013232D01*
X114812133Y-92013235D01*
X114974245Y-92107019D01*
X114990034Y-92116153D01*
X115189851Y-92185541D01*
X115195786Y-92186402D01*
X115195788Y-92186402D01*
X115393244Y-92215032D01*
X115393247Y-92215032D01*
X115399184Y-92215893D01*
X115610479Y-92206113D01*
X115751147Y-92172212D01*
X115810281Y-92157961D01*
X115810283Y-92157960D01*
X115816114Y-92156555D01*
X115821572Y-92154073D01*
X115821576Y-92154072D01*
X115968350Y-92087337D01*
X116008667Y-92069006D01*
X116181191Y-91946626D01*
X116327461Y-91793830D01*
X116442200Y-91616132D01*
X116484457Y-91511279D01*
X116519022Y-91425512D01*
X116519023Y-91425509D01*
X116521266Y-91419943D01*
X116561808Y-91212343D01*
X116562080Y-91206781D01*
X116562080Y-91156526D01*
X116885080Y-91156526D01*
X116900128Y-91314246D01*
X116959672Y-91517214D01*
X116962416Y-91522541D01*
X116962416Y-91522542D01*
X117053637Y-91699658D01*
X117056522Y-91705260D01*
X117187184Y-91871600D01*
X117191715Y-91875532D01*
X117191718Y-91875535D01*
X117277200Y-91949712D01*
X117346943Y-92010232D01*
X117352129Y-92013232D01*
X117352133Y-92013235D01*
X117514245Y-92107019D01*
X117530034Y-92116153D01*
X117729851Y-92185541D01*
X117735786Y-92186402D01*
X117735788Y-92186402D01*
X117933244Y-92215032D01*
X117933247Y-92215032D01*
X117939184Y-92215893D01*
X118150479Y-92206113D01*
X118291147Y-92172212D01*
X118350281Y-92157961D01*
X118350283Y-92157960D01*
X118356114Y-92156555D01*
X118361572Y-92154073D01*
X118361576Y-92154072D01*
X118508350Y-92087337D01*
X118548667Y-92069006D01*
X118721191Y-91946626D01*
X118867461Y-91793830D01*
X118982200Y-91616132D01*
X119024457Y-91511279D01*
X119059022Y-91425512D01*
X119059023Y-91425509D01*
X119061266Y-91419943D01*
X119101808Y-91212343D01*
X119102080Y-91206781D01*
X119102080Y-90250834D01*
X119087032Y-90093114D01*
X119027488Y-89890146D01*
X118973948Y-89786191D01*
X118933384Y-89707431D01*
X118933382Y-89707428D01*
X118930638Y-89702100D01*
X118799976Y-89535760D01*
X118795445Y-89531828D01*
X118795442Y-89531825D01*
X118644747Y-89401059D01*
X118640217Y-89397128D01*
X118635031Y-89394128D01*
X118635027Y-89394125D01*
X118462322Y-89294213D01*
X118457126Y-89291207D01*
X118257309Y-89221819D01*
X118251374Y-89220958D01*
X118251372Y-89220958D01*
X118053916Y-89192328D01*
X118053913Y-89192328D01*
X118047976Y-89191467D01*
X117836681Y-89201247D01*
X117705503Y-89232861D01*
X117636879Y-89249399D01*
X117636877Y-89249400D01*
X117631046Y-89250805D01*
X117625588Y-89253287D01*
X117625584Y-89253288D01*
X117510539Y-89305596D01*
X117438493Y-89338354D01*
X117265969Y-89460734D01*
X117119699Y-89613530D01*
X117004960Y-89791228D01*
X116925894Y-89987417D01*
X116885352Y-90195017D01*
X116885080Y-90200579D01*
X116885080Y-91156526D01*
X116562080Y-91156526D01*
X116562080Y-90250834D01*
X116547032Y-90093114D01*
X116487488Y-89890146D01*
X116433948Y-89786191D01*
X116393384Y-89707431D01*
X116393382Y-89707428D01*
X116390638Y-89702100D01*
X116259976Y-89535760D01*
X116255445Y-89531828D01*
X116255442Y-89531825D01*
X116104747Y-89401059D01*
X116100217Y-89397128D01*
X116095031Y-89394128D01*
X116095027Y-89394125D01*
X115922322Y-89294213D01*
X115917126Y-89291207D01*
X115717309Y-89221819D01*
X115711374Y-89220958D01*
X115711372Y-89220958D01*
X115513916Y-89192328D01*
X115513913Y-89192328D01*
X115507976Y-89191467D01*
X115296681Y-89201247D01*
X115165503Y-89232861D01*
X115096879Y-89249399D01*
X115096877Y-89249400D01*
X115091046Y-89250805D01*
X115085588Y-89253287D01*
X115085584Y-89253288D01*
X114970539Y-89305596D01*
X114898493Y-89338354D01*
X114725969Y-89460734D01*
X114579699Y-89613530D01*
X114464960Y-89791228D01*
X114385894Y-89987417D01*
X114345352Y-90195017D01*
X114345080Y-90200579D01*
X114345080Y-91156526D01*
X114022080Y-91156526D01*
X114022080Y-90250834D01*
X114007032Y-90093114D01*
X113947488Y-89890146D01*
X113893948Y-89786191D01*
X113853384Y-89707431D01*
X113853382Y-89707428D01*
X113850638Y-89702100D01*
X113719976Y-89535760D01*
X113715445Y-89531828D01*
X113715442Y-89531825D01*
X113564747Y-89401059D01*
X113560217Y-89397128D01*
X113555031Y-89394128D01*
X113555027Y-89394125D01*
X113382322Y-89294213D01*
X113377126Y-89291207D01*
X113371459Y-89289239D01*
X113371457Y-89289238D01*
X113365556Y-89287189D01*
X113307767Y-89245946D01*
X113281450Y-89180007D01*
X113294959Y-89110308D01*
X113317797Y-89079067D01*
X113926459Y-88470405D01*
X113988771Y-88436379D01*
X114015554Y-88433500D01*
X122027366Y-88433500D01*
X122095487Y-88453502D01*
X122141980Y-88507158D01*
X122152084Y-88577432D01*
X122122590Y-88642012D01*
X122116464Y-88648592D01*
X121363726Y-89401329D01*
X121301416Y-89435354D01*
X121230601Y-89430289D01*
X121192052Y-89407398D01*
X121184747Y-89401059D01*
X121180217Y-89397128D01*
X120997126Y-89291207D01*
X120797309Y-89221819D01*
X120791374Y-89220958D01*
X120791372Y-89220958D01*
X120593916Y-89192328D01*
X120593913Y-89192328D01*
X120587976Y-89191467D01*
X120376681Y-89201247D01*
X120245503Y-89232861D01*
X120176879Y-89249399D01*
X120176877Y-89249400D01*
X120171046Y-89250805D01*
X120165588Y-89253287D01*
X120165584Y-89253288D01*
X120050539Y-89305596D01*
X119978493Y-89338354D01*
X119805969Y-89460734D01*
X119659699Y-89613530D01*
X119544960Y-89791228D01*
X119465894Y-89987417D01*
X119425352Y-90195017D01*
X119425080Y-90200579D01*
X119425080Y-91156526D01*
X119440128Y-91314246D01*
X119499672Y-91517214D01*
X119502416Y-91522541D01*
X119502416Y-91522542D01*
X119593637Y-91699658D01*
X119596522Y-91705260D01*
X119727184Y-91871600D01*
X119731715Y-91875532D01*
X119731718Y-91875535D01*
X119817200Y-91949712D01*
X119886943Y-92010232D01*
X119892129Y-92013232D01*
X119892133Y-92013235D01*
X120054245Y-92107019D01*
X120070034Y-92116153D01*
X120269851Y-92185541D01*
X120275786Y-92186402D01*
X120275788Y-92186402D01*
X120473244Y-92215032D01*
X120473247Y-92215032D01*
X120479184Y-92215893D01*
X120690479Y-92206113D01*
X120831147Y-92172212D01*
X120890281Y-92157961D01*
X120890283Y-92157960D01*
X120896114Y-92156555D01*
X120901572Y-92154073D01*
X120901576Y-92154072D01*
X121048350Y-92087337D01*
X121088667Y-92069006D01*
X121261191Y-91946626D01*
X121407461Y-91793830D01*
X121522200Y-91616132D01*
X121564457Y-91511279D01*
X121599022Y-91425512D01*
X121599023Y-91425509D01*
X121601266Y-91419943D01*
X121641808Y-91212343D01*
X121642080Y-91206781D01*
X121642080Y-90966974D01*
X121662082Y-90898853D01*
X121678985Y-90877879D01*
X121749985Y-90806879D01*
X121812297Y-90772853D01*
X121883112Y-90777918D01*
X121939948Y-90820465D01*
X121964759Y-90886985D01*
X121965080Y-90895974D01*
X121965080Y-91156526D01*
X121980128Y-91314246D01*
X122039672Y-91517214D01*
X122042416Y-91522541D01*
X122042416Y-91522542D01*
X122133637Y-91699658D01*
X122136522Y-91705260D01*
X122267184Y-91871600D01*
X122271715Y-91875532D01*
X122271718Y-91875535D01*
X122357200Y-91949712D01*
X122426943Y-92010232D01*
X122432129Y-92013232D01*
X122432133Y-92013235D01*
X122594245Y-92107019D01*
X122610034Y-92116153D01*
X122809851Y-92185541D01*
X122815786Y-92186402D01*
X122815788Y-92186402D01*
X123013244Y-92215032D01*
X123013247Y-92215032D01*
X123019184Y-92215893D01*
X123230479Y-92206113D01*
X123371147Y-92172212D01*
X123430281Y-92157961D01*
X123430283Y-92157960D01*
X123436114Y-92156555D01*
X123441572Y-92154073D01*
X123441576Y-92154072D01*
X123588350Y-92087337D01*
X123628667Y-92069006D01*
X123801191Y-91946626D01*
X123947461Y-91793830D01*
X124062200Y-91616132D01*
X124104457Y-91511279D01*
X124139022Y-91425512D01*
X124139023Y-91425509D01*
X124141266Y-91419943D01*
X124181808Y-91212343D01*
X124182080Y-91206781D01*
X124182080Y-90966974D01*
X124202082Y-90898853D01*
X124218985Y-90877879D01*
X124289985Y-90806879D01*
X124352297Y-90772853D01*
X124423112Y-90777918D01*
X124479948Y-90820465D01*
X124504759Y-90886985D01*
X124505080Y-90895974D01*
X124505080Y-91156526D01*
X124520128Y-91314246D01*
X124579672Y-91517214D01*
X124582416Y-91522541D01*
X124582416Y-91522542D01*
X124673637Y-91699658D01*
X124676522Y-91705260D01*
X124807184Y-91871600D01*
X124811715Y-91875532D01*
X124811718Y-91875535D01*
X124897200Y-91949712D01*
X124966943Y-92010232D01*
X124972129Y-92013232D01*
X124972133Y-92013235D01*
X125134245Y-92107019D01*
X125150034Y-92116153D01*
X125349851Y-92185541D01*
X125355786Y-92186402D01*
X125355788Y-92186402D01*
X125553244Y-92215032D01*
X125553247Y-92215032D01*
X125559184Y-92215893D01*
X125770479Y-92206113D01*
X125911147Y-92172212D01*
X125970281Y-92157961D01*
X125970283Y-92157960D01*
X125976114Y-92156555D01*
X125981572Y-92154073D01*
X125981576Y-92154072D01*
X126128350Y-92087337D01*
X126168667Y-92069006D01*
X126341191Y-91946626D01*
X126487461Y-91793830D01*
X126602200Y-91616132D01*
X126644457Y-91511279D01*
X126679022Y-91425512D01*
X126679023Y-91425509D01*
X126681266Y-91419943D01*
X126721808Y-91212343D01*
X126722080Y-91206781D01*
X126722080Y-90250834D01*
X126707032Y-90093114D01*
X126647488Y-89890146D01*
X126593948Y-89786191D01*
X126553384Y-89707431D01*
X126553382Y-89707428D01*
X126550638Y-89702100D01*
X126421229Y-89537355D01*
X126394879Y-89471429D01*
X126408354Y-89401723D01*
X126457376Y-89350368D01*
X126520315Y-89333522D01*
X127252702Y-89333522D01*
X127320823Y-89353524D01*
X127367316Y-89407180D01*
X127377420Y-89477454D01*
X127343720Y-89546652D01*
X127279699Y-89613530D01*
X127164960Y-89791228D01*
X127085894Y-89987417D01*
X127045352Y-90195017D01*
X127045080Y-90200579D01*
X127045080Y-91156526D01*
X127060128Y-91314246D01*
X127119672Y-91517214D01*
X127122416Y-91522541D01*
X127122416Y-91522542D01*
X127213637Y-91699658D01*
X127216522Y-91705260D01*
X127347184Y-91871600D01*
X127351715Y-91875532D01*
X127351718Y-91875535D01*
X127437200Y-91949712D01*
X127506943Y-92010232D01*
X127512129Y-92013232D01*
X127512133Y-92013235D01*
X127674245Y-92107019D01*
X127690034Y-92116153D01*
X127889851Y-92185541D01*
X127895786Y-92186402D01*
X127895788Y-92186402D01*
X128093244Y-92215032D01*
X128093247Y-92215032D01*
X128099184Y-92215893D01*
X128310479Y-92206113D01*
X128451147Y-92172212D01*
X128510281Y-92157961D01*
X128510283Y-92157960D01*
X128516114Y-92156555D01*
X128521572Y-92154073D01*
X128521576Y-92154072D01*
X128668350Y-92087337D01*
X128708667Y-92069006D01*
X128881191Y-91946626D01*
X129027461Y-91793830D01*
X129142200Y-91616132D01*
X129184457Y-91511279D01*
X129219022Y-91425512D01*
X129219023Y-91425509D01*
X129221266Y-91419943D01*
X129261808Y-91212343D01*
X129262080Y-91206781D01*
X129262080Y-90250834D01*
X129247032Y-90093114D01*
X129187488Y-89890146D01*
X129133948Y-89786191D01*
X129093384Y-89707431D01*
X129093382Y-89707428D01*
X129090638Y-89702100D01*
X128961229Y-89537355D01*
X128934879Y-89471429D01*
X128948354Y-89401723D01*
X128997376Y-89350368D01*
X129060315Y-89333522D01*
X129792702Y-89333522D01*
X129860823Y-89353524D01*
X129907316Y-89407180D01*
X129917420Y-89477454D01*
X129883720Y-89546652D01*
X129819699Y-89613530D01*
X129704960Y-89791228D01*
X129625894Y-89987417D01*
X129585352Y-90195017D01*
X129585080Y-90200579D01*
X129585080Y-91156526D01*
X129600128Y-91314246D01*
X129659672Y-91517214D01*
X129662416Y-91522541D01*
X129662416Y-91522542D01*
X129753637Y-91699658D01*
X129756522Y-91705260D01*
X129887184Y-91871600D01*
X129891715Y-91875532D01*
X129891718Y-91875535D01*
X129977200Y-91949712D01*
X130046943Y-92010232D01*
X130052129Y-92013232D01*
X130052133Y-92013235D01*
X130214245Y-92107019D01*
X130230034Y-92116153D01*
X130429851Y-92185541D01*
X130435786Y-92186402D01*
X130435788Y-92186402D01*
X130633244Y-92215032D01*
X130633247Y-92215032D01*
X130639184Y-92215893D01*
X130850479Y-92206113D01*
X130991147Y-92172212D01*
X131050281Y-92157961D01*
X131050283Y-92157960D01*
X131056114Y-92156555D01*
X131061572Y-92154073D01*
X131061576Y-92154072D01*
X131208350Y-92087337D01*
X131248667Y-92069006D01*
X131421191Y-91946626D01*
X131567461Y-91793830D01*
X131682200Y-91616132D01*
X131724457Y-91511279D01*
X131759022Y-91425512D01*
X131759023Y-91425509D01*
X131761266Y-91419943D01*
X131801808Y-91212343D01*
X131802080Y-91206781D01*
X131802080Y-91153512D01*
X132125580Y-91153512D01*
X132125865Y-91159488D01*
X132140051Y-91308174D01*
X132142310Y-91319908D01*
X132198452Y-91511279D01*
X132202882Y-91522355D01*
X132294199Y-91699658D01*
X132300649Y-91709704D01*
X132423842Y-91866537D01*
X132432079Y-91875186D01*
X132582703Y-92005892D01*
X132592427Y-92012827D01*
X132765047Y-92112690D01*
X132775911Y-92117664D01*
X132964307Y-92183087D01*
X132965296Y-92183328D01*
X132975588Y-92181860D01*
X132979580Y-92168295D01*
X132979580Y-92164082D01*
X133487580Y-92164082D01*
X133491553Y-92177613D01*
X133500979Y-92178968D01*
X133590117Y-92157486D01*
X133601412Y-92153597D01*
X133782962Y-92071051D01*
X133793304Y-92065104D01*
X133955977Y-91949712D01*
X133965005Y-91941919D01*
X134102922Y-91797849D01*
X134110318Y-91788484D01*
X134218501Y-91620939D01*
X134223997Y-91610335D01*
X134298541Y-91425368D01*
X134301935Y-91413910D01*
X134340437Y-91216752D01*
X134341514Y-91207889D01*
X134341580Y-91205180D01*
X134341580Y-90975795D01*
X134337105Y-90960556D01*
X134335715Y-90959351D01*
X134328032Y-90957680D01*
X133505695Y-90957680D01*
X133490456Y-90962155D01*
X133489251Y-90963545D01*
X133487580Y-90971228D01*
X133487580Y-92164082D01*
X132979580Y-92164082D01*
X132979580Y-90975795D01*
X132975105Y-90960556D01*
X132973715Y-90959351D01*
X132966032Y-90957680D01*
X132143695Y-90957680D01*
X132128456Y-90962155D01*
X132127251Y-90963545D01*
X132125580Y-90971228D01*
X132125580Y-91153512D01*
X131802080Y-91153512D01*
X131802080Y-90250834D01*
X131787032Y-90093114D01*
X131727488Y-89890146D01*
X131673948Y-89786191D01*
X131633384Y-89707431D01*
X131633382Y-89707428D01*
X131630638Y-89702100D01*
X131501229Y-89537355D01*
X131474879Y-89471429D01*
X131488354Y-89401723D01*
X131537376Y-89350368D01*
X131600315Y-89333522D01*
X132333393Y-89333522D01*
X132401514Y-89353524D01*
X132448007Y-89407180D01*
X132458111Y-89477454D01*
X132424411Y-89546652D01*
X132364243Y-89609505D01*
X132356842Y-89618876D01*
X132248659Y-89786421D01*
X132243163Y-89797025D01*
X132168619Y-89981992D01*
X132165225Y-89993450D01*
X132126723Y-90190608D01*
X132125646Y-90199471D01*
X132125580Y-90202180D01*
X132125580Y-90431565D01*
X132130055Y-90446804D01*
X132131445Y-90448009D01*
X132139128Y-90449680D01*
X134323465Y-90449680D01*
X134338704Y-90445205D01*
X134339909Y-90443815D01*
X134341580Y-90436132D01*
X134341580Y-90253848D01*
X134341295Y-90247872D01*
X134327109Y-90099186D01*
X134324850Y-90087452D01*
X134268708Y-89896081D01*
X134264278Y-89885005D01*
X134172961Y-89707702D01*
X134166511Y-89697656D01*
X134040593Y-89537355D01*
X134014243Y-89471430D01*
X134027718Y-89401723D01*
X134076740Y-89350368D01*
X134139679Y-89333522D01*
X134872702Y-89333522D01*
X134940823Y-89353524D01*
X134987316Y-89407180D01*
X134997420Y-89477454D01*
X134963720Y-89546652D01*
X134899699Y-89613530D01*
X134784960Y-89791228D01*
X134705894Y-89987417D01*
X134665352Y-90195017D01*
X134665080Y-90200579D01*
X134665080Y-91156526D01*
X134680128Y-91314246D01*
X134739672Y-91517214D01*
X134742416Y-91522541D01*
X134742416Y-91522542D01*
X134833637Y-91699658D01*
X134836522Y-91705260D01*
X134967184Y-91871600D01*
X134971715Y-91875532D01*
X134971718Y-91875535D01*
X135057200Y-91949712D01*
X135126943Y-92010232D01*
X135132129Y-92013232D01*
X135132133Y-92013235D01*
X135294245Y-92107019D01*
X135310034Y-92116153D01*
X135509851Y-92185541D01*
X135515786Y-92186402D01*
X135515788Y-92186402D01*
X135713244Y-92215032D01*
X135713247Y-92215032D01*
X135719184Y-92215893D01*
X135930479Y-92206113D01*
X136071147Y-92172212D01*
X136130281Y-92157961D01*
X136130283Y-92157960D01*
X136136114Y-92156555D01*
X136141572Y-92154073D01*
X136141576Y-92154072D01*
X136288350Y-92087337D01*
X136328667Y-92069006D01*
X136501191Y-91946626D01*
X136647461Y-91793830D01*
X136762200Y-91616132D01*
X136804457Y-91511279D01*
X136839022Y-91425512D01*
X136839023Y-91425509D01*
X136841266Y-91419943D01*
X136881808Y-91212343D01*
X136882080Y-91206781D01*
X136882080Y-90250834D01*
X136867032Y-90093114D01*
X136807488Y-89890146D01*
X136753948Y-89786191D01*
X136713384Y-89707431D01*
X136713382Y-89707428D01*
X136710638Y-89702100D01*
X136581229Y-89537355D01*
X136554879Y-89471429D01*
X136568354Y-89401723D01*
X136617376Y-89350368D01*
X136680315Y-89333522D01*
X137412702Y-89333522D01*
X137480823Y-89353524D01*
X137527316Y-89407180D01*
X137537420Y-89477454D01*
X137503720Y-89546652D01*
X137439699Y-89613530D01*
X137324960Y-89791228D01*
X137245894Y-89987417D01*
X137205352Y-90195017D01*
X137205080Y-90200579D01*
X137205080Y-91156526D01*
X137220128Y-91314246D01*
X137279672Y-91517214D01*
X137282416Y-91522541D01*
X137282416Y-91522542D01*
X137373637Y-91699658D01*
X137376522Y-91705260D01*
X137507184Y-91871600D01*
X137511715Y-91875532D01*
X137511718Y-91875535D01*
X137597200Y-91949712D01*
X137666943Y-92010232D01*
X137672129Y-92013232D01*
X137672133Y-92013235D01*
X137834245Y-92107019D01*
X137850034Y-92116153D01*
X138049851Y-92185541D01*
X138055786Y-92186402D01*
X138055788Y-92186402D01*
X138253244Y-92215032D01*
X138253247Y-92215032D01*
X138259184Y-92215893D01*
X138470479Y-92206113D01*
X138611147Y-92172212D01*
X138670281Y-92157961D01*
X138670283Y-92157960D01*
X138676114Y-92156555D01*
X138681572Y-92154073D01*
X138681576Y-92154072D01*
X138828350Y-92087337D01*
X138868667Y-92069006D01*
X139041191Y-91946626D01*
X139187461Y-91793830D01*
X139302200Y-91616132D01*
X139344457Y-91511279D01*
X139379022Y-91425512D01*
X139379023Y-91425509D01*
X139381266Y-91419943D01*
X139421808Y-91212343D01*
X139422080Y-91206781D01*
X139422080Y-91156526D01*
X139745080Y-91156526D01*
X139760128Y-91314246D01*
X139819672Y-91517214D01*
X139822416Y-91522541D01*
X139822416Y-91522542D01*
X139913637Y-91699658D01*
X139916522Y-91705260D01*
X140047184Y-91871600D01*
X140051715Y-91875532D01*
X140051718Y-91875535D01*
X140137200Y-91949712D01*
X140206943Y-92010232D01*
X140212129Y-92013232D01*
X140212133Y-92013235D01*
X140374245Y-92107019D01*
X140390034Y-92116153D01*
X140589851Y-92185541D01*
X140595786Y-92186402D01*
X140595788Y-92186402D01*
X140793244Y-92215032D01*
X140793247Y-92215032D01*
X140799184Y-92215893D01*
X141010479Y-92206113D01*
X141151147Y-92172212D01*
X141210281Y-92157961D01*
X141210283Y-92157960D01*
X141216114Y-92156555D01*
X141221572Y-92154073D01*
X141221576Y-92154072D01*
X141368350Y-92087337D01*
X141408667Y-92069006D01*
X141581191Y-91946626D01*
X141727461Y-91793830D01*
X141842200Y-91616132D01*
X141884457Y-91511279D01*
X141919022Y-91425512D01*
X141919023Y-91425509D01*
X141921266Y-91419943D01*
X141961808Y-91212343D01*
X141962080Y-91206781D01*
X141962080Y-91156526D01*
X142285080Y-91156526D01*
X142300128Y-91314246D01*
X142359672Y-91517214D01*
X142362416Y-91522541D01*
X142362416Y-91522542D01*
X142453637Y-91699658D01*
X142456522Y-91705260D01*
X142587184Y-91871600D01*
X142591715Y-91875532D01*
X142591718Y-91875535D01*
X142677200Y-91949712D01*
X142746943Y-92010232D01*
X142752129Y-92013232D01*
X142752133Y-92013235D01*
X142914245Y-92107019D01*
X142930034Y-92116153D01*
X143129851Y-92185541D01*
X143135786Y-92186402D01*
X143135788Y-92186402D01*
X143333244Y-92215032D01*
X143333247Y-92215032D01*
X143339184Y-92215893D01*
X143550479Y-92206113D01*
X143691147Y-92172212D01*
X143750281Y-92157961D01*
X143750283Y-92157960D01*
X143756114Y-92156555D01*
X143761572Y-92154073D01*
X143761576Y-92154072D01*
X143908350Y-92087337D01*
X143948667Y-92069006D01*
X144121191Y-91946626D01*
X144267461Y-91793830D01*
X144382200Y-91616132D01*
X144424457Y-91511279D01*
X144459022Y-91425512D01*
X144459023Y-91425509D01*
X144461266Y-91419943D01*
X144501808Y-91212343D01*
X144502080Y-91206781D01*
X144502080Y-91156526D01*
X144825080Y-91156526D01*
X144840128Y-91314246D01*
X144899672Y-91517214D01*
X144902416Y-91522541D01*
X144902416Y-91522542D01*
X144993637Y-91699658D01*
X144996522Y-91705260D01*
X145127184Y-91871600D01*
X145131715Y-91875532D01*
X145131718Y-91875535D01*
X145217200Y-91949712D01*
X145286943Y-92010232D01*
X145292129Y-92013232D01*
X145292133Y-92013235D01*
X145454245Y-92107019D01*
X145470034Y-92116153D01*
X145669851Y-92185541D01*
X145675786Y-92186402D01*
X145675788Y-92186402D01*
X145873244Y-92215032D01*
X145873247Y-92215032D01*
X145879184Y-92215893D01*
X146090479Y-92206113D01*
X146231147Y-92172212D01*
X146290281Y-92157961D01*
X146290283Y-92157960D01*
X146296114Y-92156555D01*
X146301572Y-92154073D01*
X146301576Y-92154072D01*
X146448350Y-92087337D01*
X146488667Y-92069006D01*
X146661191Y-91946626D01*
X146807461Y-91793830D01*
X146922200Y-91616132D01*
X146964457Y-91511279D01*
X146972808Y-91490557D01*
X147365581Y-91490557D01*
X147365634Y-91492394D01*
X147367057Y-91502337D01*
X147405048Y-91666900D01*
X147409700Y-91680110D01*
X147482462Y-91830625D01*
X147489923Y-91842473D01*
X147594233Y-91973140D01*
X147604120Y-91983027D01*
X147734787Y-92087337D01*
X147746635Y-92094798D01*
X147897150Y-92167560D01*
X147910360Y-92172212D01*
X148074922Y-92210203D01*
X148084857Y-92211626D01*
X148086733Y-92211680D01*
X148201465Y-92211680D01*
X148216704Y-92207205D01*
X148217909Y-92205815D01*
X148219580Y-92198132D01*
X148219580Y-90975795D01*
X148215105Y-90960556D01*
X148213715Y-90959351D01*
X148206032Y-90957680D01*
X147383696Y-90957680D01*
X147368457Y-90962155D01*
X147367252Y-90963545D01*
X147365581Y-90971228D01*
X147365581Y-91490557D01*
X146972808Y-91490557D01*
X146999022Y-91425512D01*
X146999023Y-91425509D01*
X147001266Y-91419943D01*
X147041808Y-91212343D01*
X147042080Y-91206781D01*
X147042080Y-90431565D01*
X147365580Y-90431565D01*
X147370055Y-90446804D01*
X147371445Y-90448009D01*
X147379128Y-90449680D01*
X148201465Y-90449680D01*
X148216704Y-90445205D01*
X148217909Y-90443815D01*
X148219580Y-90436132D01*
X148219580Y-89213796D01*
X148215105Y-89198557D01*
X148213715Y-89197352D01*
X148206032Y-89195681D01*
X148086703Y-89195681D01*
X148084866Y-89195734D01*
X148074923Y-89197157D01*
X147910360Y-89235148D01*
X147897150Y-89239800D01*
X147746635Y-89312562D01*
X147734787Y-89320023D01*
X147604120Y-89424333D01*
X147594233Y-89434220D01*
X147489923Y-89564887D01*
X147482462Y-89576735D01*
X147409700Y-89727250D01*
X147405048Y-89740460D01*
X147367057Y-89905022D01*
X147365634Y-89914957D01*
X147365580Y-89916833D01*
X147365580Y-90431565D01*
X147042080Y-90431565D01*
X147042080Y-90250834D01*
X147027032Y-90093114D01*
X146967488Y-89890146D01*
X146913948Y-89786191D01*
X146873384Y-89707431D01*
X146873382Y-89707428D01*
X146870638Y-89702100D01*
X146739976Y-89535760D01*
X146735445Y-89531828D01*
X146735442Y-89531825D01*
X146584747Y-89401059D01*
X146580217Y-89397128D01*
X146575031Y-89394128D01*
X146575027Y-89394125D01*
X146402322Y-89294213D01*
X146397126Y-89291207D01*
X146197309Y-89221819D01*
X146191374Y-89220958D01*
X146191372Y-89220958D01*
X145993916Y-89192328D01*
X145993913Y-89192328D01*
X145987976Y-89191467D01*
X145776681Y-89201247D01*
X145645503Y-89232861D01*
X145576879Y-89249399D01*
X145576877Y-89249400D01*
X145571046Y-89250805D01*
X145565588Y-89253287D01*
X145565584Y-89253288D01*
X145450539Y-89305596D01*
X145378493Y-89338354D01*
X145205969Y-89460734D01*
X145059699Y-89613530D01*
X144944960Y-89791228D01*
X144865894Y-89987417D01*
X144825352Y-90195017D01*
X144825080Y-90200579D01*
X144825080Y-91156526D01*
X144502080Y-91156526D01*
X144502080Y-90250834D01*
X144487032Y-90093114D01*
X144427488Y-89890146D01*
X144373948Y-89786191D01*
X144333384Y-89707431D01*
X144333382Y-89707428D01*
X144330638Y-89702100D01*
X144199976Y-89535760D01*
X144195445Y-89531828D01*
X144195442Y-89531825D01*
X144044747Y-89401059D01*
X144040217Y-89397128D01*
X144035031Y-89394128D01*
X144035027Y-89394125D01*
X143862322Y-89294213D01*
X143857126Y-89291207D01*
X143657309Y-89221819D01*
X143651374Y-89220958D01*
X143651372Y-89220958D01*
X143453916Y-89192328D01*
X143453913Y-89192328D01*
X143447976Y-89191467D01*
X143236681Y-89201247D01*
X143105503Y-89232861D01*
X143036879Y-89249399D01*
X143036877Y-89249400D01*
X143031046Y-89250805D01*
X143025588Y-89253287D01*
X143025584Y-89253288D01*
X142910539Y-89305596D01*
X142838493Y-89338354D01*
X142665969Y-89460734D01*
X142519699Y-89613530D01*
X142404960Y-89791228D01*
X142325894Y-89987417D01*
X142285352Y-90195017D01*
X142285080Y-90200579D01*
X142285080Y-91156526D01*
X141962080Y-91156526D01*
X141962080Y-90250834D01*
X141947032Y-90093114D01*
X141887488Y-89890146D01*
X141833948Y-89786191D01*
X141793384Y-89707431D01*
X141793382Y-89707428D01*
X141790638Y-89702100D01*
X141659976Y-89535760D01*
X141655445Y-89531828D01*
X141655442Y-89531825D01*
X141504747Y-89401059D01*
X141500217Y-89397128D01*
X141495031Y-89394128D01*
X141495027Y-89394125D01*
X141322322Y-89294213D01*
X141317126Y-89291207D01*
X141117309Y-89221819D01*
X141111374Y-89220958D01*
X141111372Y-89220958D01*
X140913916Y-89192328D01*
X140913913Y-89192328D01*
X140907976Y-89191467D01*
X140696681Y-89201247D01*
X140565503Y-89232861D01*
X140496879Y-89249399D01*
X140496877Y-89249400D01*
X140491046Y-89250805D01*
X140485588Y-89253287D01*
X140485584Y-89253288D01*
X140370539Y-89305596D01*
X140298493Y-89338354D01*
X140125969Y-89460734D01*
X139979699Y-89613530D01*
X139864960Y-89791228D01*
X139785894Y-89987417D01*
X139745352Y-90195017D01*
X139745080Y-90200579D01*
X139745080Y-91156526D01*
X139422080Y-91156526D01*
X139422080Y-90250834D01*
X139407032Y-90093114D01*
X139347488Y-89890146D01*
X139293948Y-89786191D01*
X139253384Y-89707431D01*
X139253382Y-89707428D01*
X139250638Y-89702100D01*
X139119976Y-89535760D01*
X139115445Y-89531828D01*
X139115442Y-89531825D01*
X138964747Y-89401059D01*
X138960217Y-89397128D01*
X138955031Y-89394128D01*
X138955027Y-89394125D01*
X138782322Y-89294213D01*
X138777126Y-89291207D01*
X138771456Y-89289238D01*
X138771452Y-89289236D01*
X138616396Y-89235391D01*
X138558607Y-89194150D01*
X138532288Y-89128211D01*
X138545796Y-89058512D01*
X138568635Y-89027269D01*
X140047938Y-87547966D01*
X144328257Y-87547966D01*
X144358565Y-87682446D01*
X144361645Y-87692275D01*
X144441770Y-87889603D01*
X144446413Y-87898794D01*
X144557694Y-88080388D01*
X144563777Y-88088699D01*
X144703213Y-88249667D01*
X144710580Y-88256883D01*
X144874434Y-88392916D01*
X144882881Y-88398831D01*
X145066756Y-88506279D01*
X145076042Y-88510729D01*
X145275001Y-88586703D01*
X145284899Y-88589579D01*
X145388250Y-88610606D01*
X145402299Y-88609410D01*
X145406000Y-88599065D01*
X145406000Y-88598517D01*
X145914000Y-88598517D01*
X145918064Y-88612359D01*
X145931478Y-88614393D01*
X145938184Y-88613534D01*
X145948262Y-88611392D01*
X146152255Y-88550191D01*
X146161842Y-88546433D01*
X146353095Y-88452739D01*
X146361945Y-88447464D01*
X146535328Y-88323792D01*
X146543200Y-88317139D01*
X146694052Y-88166812D01*
X146700730Y-88158965D01*
X146828022Y-87981819D01*
X146829147Y-87982627D01*
X146876669Y-87938876D01*
X146946607Y-87926661D01*
X147012046Y-87954197D01*
X147039870Y-87986028D01*
X147097690Y-88080383D01*
X147103777Y-88088699D01*
X147243213Y-88249667D01*
X147250580Y-88256883D01*
X147414434Y-88392916D01*
X147422881Y-88398831D01*
X147606756Y-88506279D01*
X147616042Y-88510729D01*
X147815001Y-88586703D01*
X147824899Y-88589579D01*
X147928250Y-88610606D01*
X147942299Y-88609410D01*
X147946000Y-88599065D01*
X147946000Y-87552115D01*
X147941525Y-87536876D01*
X147940135Y-87535671D01*
X147932452Y-87534000D01*
X145932115Y-87534000D01*
X145916876Y-87538475D01*
X145915671Y-87539865D01*
X145914000Y-87547548D01*
X145914000Y-88598517D01*
X145406000Y-88598517D01*
X145406000Y-87552115D01*
X145401525Y-87536876D01*
X145400135Y-87535671D01*
X145392452Y-87534000D01*
X144343225Y-87534000D01*
X144329694Y-87537973D01*
X144328257Y-87547966D01*
X140047938Y-87547966D01*
X143360500Y-84235404D01*
X143422812Y-84201378D01*
X143449595Y-84198499D01*
X144234626Y-84198499D01*
X144302747Y-84218501D01*
X144349240Y-84272157D01*
X144359344Y-84342431D01*
X144356043Y-84358171D01*
X144320989Y-84484570D01*
X144297251Y-84706695D01*
X144297548Y-84711848D01*
X144297548Y-84711851D01*
X144306690Y-84870405D01*
X144310110Y-84929715D01*
X144311247Y-84934761D01*
X144311248Y-84934767D01*
X144316786Y-84959338D01*
X144359222Y-85147639D01*
X144443266Y-85354616D01*
X144494942Y-85438944D01*
X144557291Y-85540688D01*
X144559987Y-85545088D01*
X144706250Y-85713938D01*
X144878126Y-85856632D01*
X144951955Y-85899774D01*
X145000679Y-85951412D01*
X145013750Y-86021195D01*
X144987019Y-86086967D01*
X144946562Y-86120327D01*
X144938457Y-86124546D01*
X144929738Y-86130036D01*
X144759433Y-86257905D01*
X144751726Y-86264748D01*
X144604590Y-86418717D01*
X144598104Y-86426727D01*
X144478098Y-86602649D01*
X144473000Y-86611623D01*
X144383338Y-86804783D01*
X144379775Y-86814470D01*
X144324389Y-87014183D01*
X144325912Y-87022607D01*
X144338292Y-87026000D01*
X148328000Y-87026000D01*
X148396121Y-87046002D01*
X148442614Y-87099658D01*
X148454000Y-87152000D01*
X148454000Y-88598517D01*
X148458064Y-88612359D01*
X148471478Y-88614393D01*
X148478184Y-88613534D01*
X148488262Y-88611392D01*
X148692255Y-88550191D01*
X148701842Y-88546433D01*
X148893095Y-88452739D01*
X148901945Y-88447464D01*
X149075328Y-88323792D01*
X149083200Y-88317139D01*
X149234052Y-88166812D01*
X149240730Y-88158965D01*
X149263678Y-88127029D01*
X149319672Y-88083381D01*
X149390376Y-88076935D01*
X149453340Y-88109738D01*
X149488574Y-88171374D01*
X149492000Y-88200555D01*
X149492000Y-89281437D01*
X149471998Y-89349558D01*
X149418342Y-89396051D01*
X149348068Y-89406155D01*
X149287391Y-89379909D01*
X149212373Y-89320023D01*
X149200525Y-89312562D01*
X149050010Y-89239800D01*
X149036800Y-89235148D01*
X148872238Y-89197157D01*
X148862303Y-89195734D01*
X148860427Y-89195680D01*
X148745695Y-89195680D01*
X148730456Y-89200155D01*
X148729251Y-89201545D01*
X148727580Y-89209228D01*
X148727580Y-92193564D01*
X148732055Y-92208803D01*
X148733445Y-92210008D01*
X148741128Y-92211679D01*
X148860457Y-92211679D01*
X148862294Y-92211626D01*
X148872237Y-92210203D01*
X149036800Y-92172212D01*
X149050010Y-92167560D01*
X149200525Y-92094798D01*
X149212373Y-92087337D01*
X149287391Y-92027451D01*
X149353108Y-92000584D01*
X149422917Y-92013511D01*
X149474656Y-92062128D01*
X149492000Y-92125923D01*
X149492000Y-99366000D01*
X149471998Y-99434121D01*
X149418342Y-99480614D01*
X149366000Y-99492000D01*
X114207789Y-99492000D01*
X114139668Y-99471998D01*
X114093175Y-99418342D01*
X114083071Y-99348068D01*
X114112565Y-99283488D01*
X114152353Y-99252851D01*
X114237994Y-99210896D01*
X114419860Y-99081173D01*
X114578096Y-98923489D01*
X114637594Y-98840689D01*
X114705435Y-98746277D01*
X114708453Y-98742077D01*
X114729320Y-98699857D01*
X114805136Y-98546453D01*
X114805137Y-98546451D01*
X114807430Y-98541811D01*
X114872370Y-98328069D01*
X114901529Y-98106590D01*
X114903156Y-98040000D01*
X114884852Y-97817361D01*
X114830431Y-97600702D01*
X114741354Y-97395840D01*
X114620014Y-97208277D01*
X114469670Y-97043051D01*
X114465619Y-97039852D01*
X114465615Y-97039848D01*
X114298414Y-96907800D01*
X114298410Y-96907798D01*
X114294359Y-96904598D01*
X114252569Y-96881529D01*
X114202598Y-96831097D01*
X114187826Y-96761654D01*
X114212942Y-96695248D01*
X114240294Y-96668641D01*
X114415328Y-96543792D01*
X114423200Y-96537139D01*
X114574052Y-96386812D01*
X114580730Y-96378965D01*
X114705003Y-96206020D01*
X114710313Y-96197183D01*
X114786873Y-96042277D01*
X144137009Y-96042277D01*
X144162625Y-96310769D01*
X144163710Y-96315203D01*
X144163711Y-96315209D01*
X144218017Y-96537139D01*
X144226731Y-96572750D01*
X144327985Y-96822733D01*
X144367144Y-96889612D01*
X144458765Y-97046088D01*
X144464265Y-97055482D01*
X144467118Y-97059049D01*
X144584686Y-97206060D01*
X144632716Y-97266119D01*
X144829809Y-97450234D01*
X145051416Y-97603968D01*
X145055499Y-97605999D01*
X145055502Y-97606001D01*
X145171013Y-97663466D01*
X145292894Y-97724101D01*
X145297228Y-97725522D01*
X145297231Y-97725523D01*
X145544853Y-97806698D01*
X145544859Y-97806699D01*
X145549186Y-97808118D01*
X145553677Y-97808898D01*
X145553678Y-97808898D01*
X145811140Y-97853601D01*
X145811148Y-97853602D01*
X145814921Y-97854257D01*
X145818758Y-97854448D01*
X145898578Y-97858422D01*
X145898586Y-97858422D01*
X145900149Y-97858500D01*
X146068512Y-97858500D01*
X146070780Y-97858335D01*
X146070792Y-97858335D01*
X146201884Y-97848823D01*
X146269004Y-97843953D01*
X146273459Y-97842969D01*
X146273462Y-97842969D01*
X146527912Y-97786791D01*
X146527916Y-97786790D01*
X146532372Y-97785806D01*
X146658480Y-97738028D01*
X146780318Y-97691868D01*
X146780321Y-97691867D01*
X146784588Y-97690250D01*
X147020368Y-97559286D01*
X147234773Y-97395657D01*
X147245562Y-97384621D01*
X147420117Y-97206060D01*
X147423312Y-97202792D01*
X147582034Y-96984730D01*
X147634965Y-96884124D01*
X147705490Y-96750079D01*
X147705493Y-96750073D01*
X147707615Y-96746039D01*
X147720045Y-96710842D01*
X147795902Y-96496033D01*
X147795902Y-96496032D01*
X147797425Y-96491720D01*
X147849581Y-96227100D01*
X147849808Y-96222544D01*
X147862764Y-95962292D01*
X147862764Y-95962286D01*
X147862991Y-95957723D01*
X147837375Y-95689231D01*
X147792042Y-95503967D01*
X147774355Y-95431688D01*
X147773269Y-95427250D01*
X147672015Y-95177267D01*
X147535735Y-94944518D01*
X147417928Y-94797208D01*
X147370136Y-94737447D01*
X147370135Y-94737445D01*
X147367284Y-94733881D01*
X147170191Y-94549766D01*
X146948584Y-94396032D01*
X146944501Y-94394001D01*
X146944498Y-94393999D01*
X146779606Y-94311967D01*
X146707106Y-94275899D01*
X146702772Y-94274478D01*
X146702769Y-94274477D01*
X146455147Y-94193302D01*
X146455141Y-94193301D01*
X146450814Y-94191882D01*
X146446322Y-94191102D01*
X146188860Y-94146399D01*
X146188852Y-94146398D01*
X146185079Y-94145743D01*
X146167684Y-94144877D01*
X146101422Y-94141578D01*
X146101414Y-94141578D01*
X146099851Y-94141500D01*
X145931488Y-94141500D01*
X145929220Y-94141665D01*
X145929208Y-94141665D01*
X145798116Y-94151177D01*
X145730996Y-94156047D01*
X145726541Y-94157031D01*
X145726538Y-94157031D01*
X145472088Y-94213209D01*
X145472084Y-94213210D01*
X145467628Y-94214194D01*
X145393676Y-94242212D01*
X145219682Y-94308132D01*
X145219679Y-94308133D01*
X145215412Y-94309750D01*
X144979632Y-94440714D01*
X144976000Y-94443486D01*
X144769064Y-94601415D01*
X144765227Y-94604343D01*
X144576688Y-94797208D01*
X144417966Y-95015270D01*
X144415844Y-95019304D01*
X144294510Y-95249921D01*
X144294507Y-95249927D01*
X144292385Y-95253961D01*
X144290865Y-95258266D01*
X144290863Y-95258270D01*
X144204098Y-95503967D01*
X144202575Y-95508280D01*
X144201692Y-95512762D01*
X144151474Y-95767548D01*
X144150419Y-95772900D01*
X144150192Y-95777453D01*
X144150192Y-95777456D01*
X144138802Y-96006267D01*
X144137009Y-96042277D01*
X114786873Y-96042277D01*
X114804670Y-96006267D01*
X114808469Y-95996672D01*
X114870377Y-95792910D01*
X114872555Y-95782837D01*
X114873986Y-95771962D01*
X114871775Y-95757778D01*
X114858617Y-95754000D01*
X109660116Y-95754000D01*
X109644877Y-95758475D01*
X109643672Y-95759865D01*
X109642001Y-95767548D01*
X109642001Y-96394669D01*
X109642371Y-96401490D01*
X109647895Y-96452352D01*
X109651521Y-96467604D01*
X109696676Y-96588054D01*
X109705214Y-96603649D01*
X109781715Y-96705724D01*
X109794276Y-96718285D01*
X109896351Y-96794786D01*
X109911946Y-96803324D01*
X110020827Y-96844142D01*
X110077591Y-96886784D01*
X110102291Y-96953345D01*
X110087083Y-97022694D01*
X110067691Y-97049175D01*
X109944200Y-97178401D01*
X109940629Y-97182138D01*
X109937720Y-97186403D01*
X109937714Y-97186411D01*
X109922798Y-97208277D01*
X109814743Y-97366680D01*
X109800006Y-97398429D01*
X109725339Y-97559286D01*
X109720688Y-97569305D01*
X109660989Y-97784570D01*
X109637251Y-98006695D01*
X109637548Y-98011848D01*
X109637548Y-98011851D01*
X109643011Y-98106590D01*
X109650110Y-98229715D01*
X109651247Y-98234761D01*
X109651248Y-98234767D01*
X109671119Y-98322939D01*
X109699222Y-98447639D01*
X109783266Y-98654616D01*
X109834019Y-98737438D01*
X109897291Y-98840688D01*
X109899987Y-98845088D01*
X110046250Y-99013938D01*
X110218126Y-99156632D01*
X110382781Y-99252848D01*
X110390249Y-99257212D01*
X110438973Y-99308850D01*
X110452044Y-99378633D01*
X110425313Y-99444405D01*
X110367266Y-99485284D01*
X110326679Y-99492000D01*
X100634000Y-99492000D01*
X100565879Y-99471998D01*
X100519386Y-99418342D01*
X100508000Y-99366000D01*
X100508000Y-96042277D01*
X102137009Y-96042277D01*
X102162625Y-96310769D01*
X102163710Y-96315203D01*
X102163711Y-96315209D01*
X102218017Y-96537139D01*
X102226731Y-96572750D01*
X102327985Y-96822733D01*
X102367144Y-96889612D01*
X102458765Y-97046088D01*
X102464265Y-97055482D01*
X102467118Y-97059049D01*
X102584686Y-97206060D01*
X102632716Y-97266119D01*
X102829809Y-97450234D01*
X103051416Y-97603968D01*
X103055499Y-97605999D01*
X103055502Y-97606001D01*
X103171013Y-97663466D01*
X103292894Y-97724101D01*
X103297228Y-97725522D01*
X103297231Y-97725523D01*
X103544853Y-97806698D01*
X103544859Y-97806699D01*
X103549186Y-97808118D01*
X103553677Y-97808898D01*
X103553678Y-97808898D01*
X103811140Y-97853601D01*
X103811148Y-97853602D01*
X103814921Y-97854257D01*
X103818758Y-97854448D01*
X103898578Y-97858422D01*
X103898586Y-97858422D01*
X103900149Y-97858500D01*
X104068512Y-97858500D01*
X104070780Y-97858335D01*
X104070792Y-97858335D01*
X104201884Y-97848823D01*
X104269004Y-97843953D01*
X104273459Y-97842969D01*
X104273462Y-97842969D01*
X104527912Y-97786791D01*
X104527916Y-97786790D01*
X104532372Y-97785806D01*
X104658480Y-97738028D01*
X104780318Y-97691868D01*
X104780321Y-97691867D01*
X104784588Y-97690250D01*
X105020368Y-97559286D01*
X105234773Y-97395657D01*
X105245562Y-97384621D01*
X105420117Y-97206060D01*
X105423312Y-97202792D01*
X105582034Y-96984730D01*
X105634965Y-96884124D01*
X105705490Y-96750079D01*
X105705493Y-96750073D01*
X105707615Y-96746039D01*
X105720045Y-96710842D01*
X105795902Y-96496033D01*
X105795902Y-96496032D01*
X105797425Y-96491720D01*
X105849581Y-96227100D01*
X105849808Y-96222544D01*
X105862764Y-95962292D01*
X105862764Y-95962286D01*
X105862991Y-95957723D01*
X105837375Y-95689231D01*
X105792042Y-95503967D01*
X105774355Y-95431688D01*
X105773269Y-95427250D01*
X105692517Y-95227885D01*
X109642000Y-95227885D01*
X109646475Y-95243124D01*
X109647865Y-95244329D01*
X109655548Y-95246000D01*
X110727885Y-95246000D01*
X110743124Y-95241525D01*
X110744329Y-95240135D01*
X110746000Y-95232452D01*
X110746000Y-95227885D01*
X111254000Y-95227885D01*
X111258475Y-95243124D01*
X111259865Y-95244329D01*
X111267548Y-95246000D01*
X113267885Y-95246000D01*
X113283124Y-95241525D01*
X113284329Y-95240135D01*
X113286000Y-95232452D01*
X113286000Y-95227885D01*
X113794000Y-95227885D01*
X113798475Y-95243124D01*
X113799865Y-95244329D01*
X113807548Y-95246000D01*
X114858344Y-95246000D01*
X114871875Y-95242027D01*
X114873180Y-95232947D01*
X114831214Y-95065875D01*
X114827894Y-95056124D01*
X114742972Y-94860814D01*
X114738105Y-94851739D01*
X114622426Y-94672926D01*
X114616136Y-94664757D01*
X114472806Y-94507240D01*
X114465273Y-94500215D01*
X114298139Y-94368222D01*
X114289552Y-94362517D01*
X114103117Y-94259599D01*
X114093705Y-94255369D01*
X113892959Y-94184280D01*
X113882988Y-94181646D01*
X113811837Y-94168972D01*
X113798540Y-94170432D01*
X113794000Y-94184989D01*
X113794000Y-95227885D01*
X113286000Y-95227885D01*
X113286000Y-94183102D01*
X113282082Y-94169758D01*
X113267806Y-94167771D01*
X113229324Y-94173660D01*
X113219288Y-94176051D01*
X113016868Y-94242212D01*
X113007359Y-94246209D01*
X112818463Y-94344542D01*
X112809738Y-94350036D01*
X112639433Y-94477905D01*
X112631726Y-94484748D01*
X112554094Y-94565985D01*
X112492570Y-94601415D01*
X112421657Y-94597958D01*
X112363871Y-94556712D01*
X112345018Y-94523164D01*
X112303324Y-94411946D01*
X112294786Y-94396351D01*
X112218285Y-94294276D01*
X112205724Y-94281715D01*
X112103649Y-94205214D01*
X112088054Y-94196676D01*
X111967606Y-94151522D01*
X111952351Y-94147895D01*
X111901486Y-94142369D01*
X111894672Y-94142000D01*
X111272115Y-94142000D01*
X111256876Y-94146475D01*
X111255671Y-94147865D01*
X111254000Y-94155548D01*
X111254000Y-95227885D01*
X110746000Y-95227885D01*
X110746000Y-94160116D01*
X110741525Y-94144877D01*
X110740135Y-94143672D01*
X110732452Y-94142001D01*
X110105331Y-94142001D01*
X110098510Y-94142371D01*
X110047648Y-94147895D01*
X110032396Y-94151521D01*
X109911946Y-94196676D01*
X109896351Y-94205214D01*
X109794276Y-94281715D01*
X109781715Y-94294276D01*
X109705214Y-94396351D01*
X109696676Y-94411946D01*
X109651522Y-94532394D01*
X109647895Y-94547649D01*
X109642369Y-94598514D01*
X109642000Y-94605328D01*
X109642000Y-95227885D01*
X105692517Y-95227885D01*
X105672015Y-95177267D01*
X105535735Y-94944518D01*
X105417928Y-94797208D01*
X105370136Y-94737447D01*
X105370135Y-94737445D01*
X105367284Y-94733881D01*
X105170191Y-94549766D01*
X104948584Y-94396032D01*
X104944501Y-94394001D01*
X104944498Y-94393999D01*
X104779606Y-94311967D01*
X104707106Y-94275899D01*
X104702772Y-94274478D01*
X104702769Y-94274477D01*
X104455147Y-94193302D01*
X104455141Y-94193301D01*
X104450814Y-94191882D01*
X104446322Y-94191102D01*
X104188860Y-94146399D01*
X104188852Y-94146398D01*
X104185079Y-94145743D01*
X104167684Y-94144877D01*
X104101422Y-94141578D01*
X104101414Y-94141578D01*
X104099851Y-94141500D01*
X103931488Y-94141500D01*
X103929220Y-94141665D01*
X103929208Y-94141665D01*
X103798116Y-94151177D01*
X103730996Y-94156047D01*
X103726541Y-94157031D01*
X103726538Y-94157031D01*
X103472088Y-94213209D01*
X103472084Y-94213210D01*
X103467628Y-94214194D01*
X103393676Y-94242212D01*
X103219682Y-94308132D01*
X103219679Y-94308133D01*
X103215412Y-94309750D01*
X102979632Y-94440714D01*
X102976000Y-94443486D01*
X102769064Y-94601415D01*
X102765227Y-94604343D01*
X102576688Y-94797208D01*
X102417966Y-95015270D01*
X102415844Y-95019304D01*
X102294510Y-95249921D01*
X102294507Y-95249927D01*
X102292385Y-95253961D01*
X102290865Y-95258266D01*
X102290863Y-95258270D01*
X102204098Y-95503967D01*
X102202575Y-95508280D01*
X102201692Y-95512762D01*
X102151474Y-95767548D01*
X102150419Y-95772900D01*
X102150192Y-95777453D01*
X102150192Y-95777456D01*
X102138802Y-96006267D01*
X102137009Y-96042277D01*
X100508000Y-96042277D01*
X100508000Y-91152846D01*
X101647800Y-91152846D01*
X101662848Y-91310566D01*
X101722392Y-91513534D01*
X101725136Y-91518861D01*
X101725136Y-91518862D01*
X101801381Y-91666900D01*
X101819242Y-91701580D01*
X101949904Y-91867920D01*
X101954435Y-91871852D01*
X101954438Y-91871855D01*
X102071159Y-91973140D01*
X102109663Y-92006552D01*
X102114849Y-92009552D01*
X102114853Y-92009555D01*
X102221905Y-92071486D01*
X102292754Y-92112473D01*
X102492571Y-92181861D01*
X102498506Y-92182722D01*
X102498508Y-92182722D01*
X102695964Y-92211352D01*
X102695967Y-92211352D01*
X102701904Y-92212213D01*
X102913199Y-92202433D01*
X103054851Y-92168295D01*
X103113001Y-92154281D01*
X103113003Y-92154280D01*
X103118834Y-92152875D01*
X103124292Y-92150393D01*
X103124296Y-92150392D01*
X103246567Y-92094798D01*
X103311387Y-92065326D01*
X103483911Y-91942946D01*
X103630181Y-91790150D01*
X103744920Y-91612452D01*
X103787101Y-91507786D01*
X103821742Y-91421832D01*
X103821743Y-91421829D01*
X103823986Y-91416263D01*
X103864528Y-91208663D01*
X103864800Y-91203101D01*
X103864800Y-91152846D01*
X104187800Y-91152846D01*
X104202848Y-91310566D01*
X104262392Y-91513534D01*
X104265136Y-91518861D01*
X104265136Y-91518862D01*
X104341381Y-91666900D01*
X104359242Y-91701580D01*
X104489904Y-91867920D01*
X104494435Y-91871852D01*
X104494438Y-91871855D01*
X104611159Y-91973140D01*
X104649663Y-92006552D01*
X104654849Y-92009552D01*
X104654853Y-92009555D01*
X104761905Y-92071486D01*
X104832754Y-92112473D01*
X105032571Y-92181861D01*
X105038506Y-92182722D01*
X105038508Y-92182722D01*
X105235964Y-92211352D01*
X105235967Y-92211352D01*
X105241904Y-92212213D01*
X105453199Y-92202433D01*
X105594851Y-92168295D01*
X105653001Y-92154281D01*
X105653003Y-92154280D01*
X105658834Y-92152875D01*
X105664292Y-92150393D01*
X105664296Y-92150392D01*
X105786567Y-92094798D01*
X105851387Y-92065326D01*
X106023911Y-91942946D01*
X106170181Y-91790150D01*
X106284920Y-91612452D01*
X106327101Y-91507786D01*
X106361742Y-91421832D01*
X106361743Y-91421829D01*
X106363986Y-91416263D01*
X106404528Y-91208663D01*
X106404800Y-91203101D01*
X106404800Y-91156526D01*
X106725080Y-91156526D01*
X106740128Y-91314246D01*
X106799672Y-91517214D01*
X106802416Y-91522541D01*
X106802416Y-91522542D01*
X106893637Y-91699658D01*
X106896522Y-91705260D01*
X107027184Y-91871600D01*
X107031715Y-91875532D01*
X107031718Y-91875535D01*
X107117200Y-91949712D01*
X107186943Y-92010232D01*
X107192129Y-92013232D01*
X107192133Y-92013235D01*
X107354245Y-92107019D01*
X107370034Y-92116153D01*
X107569851Y-92185541D01*
X107575786Y-92186402D01*
X107575788Y-92186402D01*
X107773244Y-92215032D01*
X107773247Y-92215032D01*
X107779184Y-92215893D01*
X107990479Y-92206113D01*
X108131147Y-92172212D01*
X108190281Y-92157961D01*
X108190283Y-92157960D01*
X108196114Y-92156555D01*
X108201572Y-92154073D01*
X108201576Y-92154072D01*
X108348350Y-92087337D01*
X108388667Y-92069006D01*
X108561191Y-91946626D01*
X108707461Y-91793830D01*
X108822200Y-91616132D01*
X108864457Y-91511279D01*
X108899022Y-91425512D01*
X108899023Y-91425509D01*
X108901266Y-91419943D01*
X108941808Y-91212343D01*
X108942080Y-91206781D01*
X108942080Y-90250834D01*
X108927032Y-90093114D01*
X108867488Y-89890146D01*
X108813948Y-89786191D01*
X108773384Y-89707431D01*
X108773382Y-89707428D01*
X108770638Y-89702100D01*
X108639976Y-89535760D01*
X108635445Y-89531828D01*
X108635442Y-89531825D01*
X108484747Y-89401059D01*
X108480217Y-89397128D01*
X108475031Y-89394128D01*
X108475027Y-89394125D01*
X108302322Y-89294213D01*
X108297126Y-89291207D01*
X108097309Y-89221819D01*
X108091374Y-89220958D01*
X108091372Y-89220958D01*
X107893916Y-89192328D01*
X107893913Y-89192328D01*
X107887976Y-89191467D01*
X107676681Y-89201247D01*
X107545503Y-89232861D01*
X107476879Y-89249399D01*
X107476877Y-89249400D01*
X107471046Y-89250805D01*
X107465588Y-89253287D01*
X107465584Y-89253288D01*
X107350539Y-89305596D01*
X107278493Y-89338354D01*
X107105969Y-89460734D01*
X106959699Y-89613530D01*
X106844960Y-89791228D01*
X106765894Y-89987417D01*
X106725352Y-90195017D01*
X106725080Y-90200579D01*
X106725080Y-91156526D01*
X106404800Y-91156526D01*
X106404800Y-90247154D01*
X106389752Y-90089434D01*
X106330208Y-89886466D01*
X106279262Y-89787548D01*
X106236104Y-89703751D01*
X106236102Y-89703748D01*
X106233358Y-89698420D01*
X106102696Y-89532080D01*
X106098165Y-89528148D01*
X106098162Y-89528145D01*
X105947467Y-89397379D01*
X105942937Y-89393448D01*
X105937751Y-89390448D01*
X105937747Y-89390445D01*
X105765042Y-89290533D01*
X105759846Y-89287527D01*
X105560029Y-89218139D01*
X105554094Y-89217278D01*
X105554092Y-89217278D01*
X105356636Y-89188648D01*
X105356633Y-89188648D01*
X105350696Y-89187787D01*
X105139401Y-89197567D01*
X105008223Y-89229181D01*
X104939599Y-89245719D01*
X104939597Y-89245720D01*
X104933766Y-89247125D01*
X104928308Y-89249607D01*
X104928304Y-89249608D01*
X104836813Y-89291207D01*
X104741213Y-89334674D01*
X104568689Y-89457054D01*
X104422419Y-89609850D01*
X104307680Y-89787548D01*
X104305437Y-89793114D01*
X104264016Y-89895894D01*
X104228614Y-89983737D01*
X104188072Y-90191337D01*
X104187800Y-90196899D01*
X104187800Y-91152846D01*
X103864800Y-91152846D01*
X103864800Y-90247154D01*
X103849752Y-90089434D01*
X103790208Y-89886466D01*
X103739262Y-89787548D01*
X103696104Y-89703751D01*
X103696102Y-89703748D01*
X103693358Y-89698420D01*
X103562696Y-89532080D01*
X103558165Y-89528148D01*
X103558162Y-89528145D01*
X103407467Y-89397379D01*
X103402937Y-89393448D01*
X103397751Y-89390448D01*
X103397747Y-89390445D01*
X103225042Y-89290533D01*
X103219846Y-89287527D01*
X103020029Y-89218139D01*
X103014094Y-89217278D01*
X103014092Y-89217278D01*
X102816636Y-89188648D01*
X102816633Y-89188648D01*
X102810696Y-89187787D01*
X102599401Y-89197567D01*
X102468223Y-89229181D01*
X102399599Y-89245719D01*
X102399597Y-89245720D01*
X102393766Y-89247125D01*
X102388308Y-89249607D01*
X102388304Y-89249608D01*
X102296813Y-89291207D01*
X102201213Y-89334674D01*
X102028689Y-89457054D01*
X101882419Y-89609850D01*
X101767680Y-89787548D01*
X101765437Y-89793114D01*
X101724016Y-89895894D01*
X101688614Y-89983737D01*
X101648072Y-90191337D01*
X101647800Y-90196899D01*
X101647800Y-91152846D01*
X100508000Y-91152846D01*
X100508000Y-81342925D01*
X103486645Y-81342925D01*
X103491864Y-81400274D01*
X103503767Y-81531062D01*
X103504570Y-81539888D01*
X103560410Y-81729619D01*
X103563263Y-81735077D01*
X103563265Y-81735081D01*
X103576660Y-81760702D01*
X103652040Y-81904890D01*
X103775968Y-82059025D01*
X103780692Y-82062989D01*
X103787933Y-82069065D01*
X103927474Y-82186154D01*
X103932872Y-82189121D01*
X103932877Y-82189125D01*
X104059072Y-82258500D01*
X104100787Y-82281433D01*
X104106654Y-82283294D01*
X104106656Y-82283295D01*
X104144832Y-82295405D01*
X104289306Y-82341235D01*
X104443227Y-82358500D01*
X104549769Y-82358500D01*
X104552825Y-82358200D01*
X104552832Y-82358200D01*
X104611340Y-82352463D01*
X104696833Y-82344080D01*
X104702734Y-82342298D01*
X104702736Y-82342298D01*
X104776053Y-82320162D01*
X104886169Y-82286916D01*
X105060796Y-82194066D01*
X105147062Y-82123709D01*
X105209287Y-82072960D01*
X105209290Y-82072957D01*
X105214062Y-82069065D01*
X105245365Y-82031226D01*
X105336201Y-81921425D01*
X105336203Y-81921421D01*
X105340130Y-81916675D01*
X105434198Y-81742701D01*
X105492682Y-81553768D01*
X105494786Y-81533749D01*
X105512711Y-81363204D01*
X105512711Y-81363202D01*
X105513355Y-81357075D01*
X105500203Y-81212560D01*
X105495989Y-81166251D01*
X105495988Y-81166248D01*
X105495430Y-81160112D01*
X105487960Y-81134729D01*
X105449586Y-81004345D01*
X105439590Y-80970381D01*
X105432406Y-80956638D01*
X105375177Y-80847171D01*
X105347960Y-80795110D01*
X105224032Y-80640975D01*
X105217727Y-80635684D01*
X105128781Y-80561050D01*
X105072526Y-80513846D01*
X105067128Y-80510879D01*
X105067123Y-80510875D01*
X104904608Y-80421533D01*
X104904609Y-80421533D01*
X104899213Y-80418567D01*
X104893346Y-80416706D01*
X104893344Y-80416705D01*
X104716564Y-80360627D01*
X104716563Y-80360627D01*
X104710694Y-80358765D01*
X104556773Y-80341500D01*
X104450231Y-80341500D01*
X104447175Y-80341800D01*
X104447168Y-80341800D01*
X104388660Y-80347537D01*
X104303167Y-80355920D01*
X104297266Y-80357702D01*
X104297264Y-80357702D01*
X104269419Y-80366109D01*
X104113831Y-80413084D01*
X103939204Y-80505934D01*
X103882435Y-80552234D01*
X103790713Y-80627040D01*
X103790710Y-80627043D01*
X103785938Y-80630935D01*
X103782011Y-80635682D01*
X103782009Y-80635684D01*
X103663799Y-80778575D01*
X103663797Y-80778579D01*
X103659870Y-80783325D01*
X103565802Y-80957299D01*
X103507318Y-81146232D01*
X103506674Y-81152357D01*
X103506674Y-81152358D01*
X103493958Y-81273349D01*
X103486645Y-81342925D01*
X100508000Y-81342925D01*
X100508000Y-73362925D01*
X103486645Y-73362925D01*
X103504570Y-73559888D01*
X103560410Y-73749619D01*
X103563263Y-73755077D01*
X103563265Y-73755081D01*
X103576436Y-73780274D01*
X103652040Y-73924890D01*
X103775968Y-74079025D01*
X103780692Y-74082989D01*
X103787933Y-74089065D01*
X103927474Y-74206154D01*
X103932872Y-74209121D01*
X103932877Y-74209125D01*
X104076180Y-74287905D01*
X104100787Y-74301433D01*
X104106654Y-74303294D01*
X104106656Y-74303295D01*
X104227068Y-74341492D01*
X104289306Y-74361235D01*
X104443227Y-74378500D01*
X104549769Y-74378500D01*
X104552825Y-74378200D01*
X104552832Y-74378200D01*
X104611340Y-74372463D01*
X104696833Y-74364080D01*
X104702734Y-74362298D01*
X104702736Y-74362298D01*
X104787891Y-74336588D01*
X104886169Y-74306916D01*
X105060796Y-74214066D01*
X105183125Y-74114297D01*
X105209287Y-74092960D01*
X105209290Y-74092957D01*
X105214062Y-74089065D01*
X105226344Y-74074219D01*
X105336201Y-73941425D01*
X105336203Y-73941421D01*
X105340130Y-73936675D01*
X105434198Y-73762701D01*
X105492682Y-73573768D01*
X105493520Y-73565798D01*
X105512711Y-73383204D01*
X105512711Y-73383202D01*
X105513355Y-73377075D01*
X105498051Y-73208909D01*
X105495989Y-73186251D01*
X105495988Y-73186248D01*
X105495430Y-73180112D01*
X105467194Y-73084171D01*
X105445373Y-73010031D01*
X105439590Y-72990381D01*
X105429919Y-72971881D01*
X105385667Y-72887237D01*
X105347960Y-72815110D01*
X105224032Y-72660975D01*
X105217727Y-72655684D01*
X105173145Y-72618276D01*
X105072526Y-72533846D01*
X105067128Y-72530879D01*
X105067123Y-72530875D01*
X104904608Y-72441533D01*
X104904609Y-72441533D01*
X104899213Y-72438567D01*
X104893346Y-72436706D01*
X104893344Y-72436705D01*
X104716564Y-72380627D01*
X104716563Y-72380627D01*
X104710694Y-72378765D01*
X104556773Y-72361500D01*
X104450231Y-72361500D01*
X104447175Y-72361800D01*
X104447168Y-72361800D01*
X104388660Y-72367537D01*
X104303167Y-72375920D01*
X104297266Y-72377702D01*
X104297264Y-72377702D01*
X104223947Y-72399838D01*
X104113831Y-72433084D01*
X103939204Y-72525934D01*
X103874360Y-72578820D01*
X103790713Y-72647040D01*
X103790710Y-72647043D01*
X103785938Y-72650935D01*
X103782011Y-72655682D01*
X103782009Y-72655684D01*
X103663799Y-72798575D01*
X103663797Y-72798579D01*
X103659870Y-72803325D01*
X103565802Y-72977299D01*
X103507318Y-73166232D01*
X103506674Y-73172357D01*
X103506674Y-73172358D01*
X103492298Y-73309144D01*
X103486645Y-73362925D01*
X100508000Y-73362925D01*
X100508000Y-54042277D01*
X102137009Y-54042277D01*
X102162625Y-54310769D01*
X102163710Y-54315203D01*
X102163711Y-54315209D01*
X102225645Y-54568312D01*
X102226731Y-54572750D01*
X102327985Y-54822733D01*
X102464265Y-55055482D01*
X102467118Y-55059049D01*
X102614250Y-55243028D01*
X102632716Y-55266119D01*
X102829809Y-55450234D01*
X103051416Y-55603968D01*
X103055499Y-55605999D01*
X103055502Y-55606001D01*
X103150632Y-55653327D01*
X103292894Y-55724101D01*
X103297228Y-55725522D01*
X103297231Y-55725523D01*
X103544853Y-55806698D01*
X103544859Y-55806699D01*
X103549186Y-55808118D01*
X103553677Y-55808898D01*
X103553678Y-55808898D01*
X103811140Y-55853601D01*
X103811148Y-55853602D01*
X103814921Y-55854257D01*
X103818758Y-55854448D01*
X103898578Y-55858422D01*
X103898586Y-55858422D01*
X103900149Y-55858500D01*
X104068512Y-55858500D01*
X104070780Y-55858335D01*
X104070792Y-55858335D01*
X104201884Y-55848823D01*
X104269004Y-55843953D01*
X104273459Y-55842969D01*
X104273462Y-55842969D01*
X104527912Y-55786791D01*
X104527916Y-55786790D01*
X104532372Y-55785806D01*
X104658480Y-55738028D01*
X104780318Y-55691868D01*
X104780321Y-55691867D01*
X104784588Y-55690250D01*
X104946453Y-55600342D01*
X105016375Y-55561504D01*
X105016376Y-55561503D01*
X105020368Y-55559286D01*
X105167354Y-55447110D01*
X105231141Y-55398429D01*
X105231142Y-55398428D01*
X105234773Y-55395657D01*
X105423312Y-55202792D01*
X105582034Y-54984730D01*
X105667156Y-54822939D01*
X105705490Y-54750079D01*
X105705493Y-54750073D01*
X105707615Y-54746039D01*
X105770378Y-54568312D01*
X105792137Y-54506695D01*
X109637251Y-54506695D01*
X109637548Y-54511848D01*
X109637548Y-54511851D01*
X109643011Y-54606590D01*
X109650110Y-54729715D01*
X109651247Y-54734761D01*
X109651248Y-54734767D01*
X109671073Y-54822733D01*
X109699222Y-54947639D01*
X109783266Y-55154616D01*
X109834019Y-55237438D01*
X109897291Y-55340688D01*
X109899987Y-55345088D01*
X110046250Y-55513938D01*
X110218126Y-55656632D01*
X110411000Y-55769338D01*
X110619692Y-55849030D01*
X110624760Y-55850061D01*
X110624763Y-55850062D01*
X110732017Y-55871883D01*
X110838597Y-55893567D01*
X110843772Y-55893757D01*
X110843774Y-55893757D01*
X111056673Y-55901564D01*
X111056677Y-55901564D01*
X111061837Y-55901753D01*
X111066957Y-55901097D01*
X111066959Y-55901097D01*
X111278288Y-55874025D01*
X111278289Y-55874025D01*
X111283416Y-55873368D01*
X111288366Y-55871883D01*
X111492429Y-55810661D01*
X111492434Y-55810659D01*
X111497384Y-55809174D01*
X111697994Y-55710896D01*
X111879860Y-55581173D01*
X111904606Y-55556514D01*
X112034435Y-55427137D01*
X112038096Y-55423489D01*
X112060444Y-55392389D01*
X112168453Y-55242077D01*
X112169776Y-55243028D01*
X112216645Y-55199857D01*
X112286580Y-55187625D01*
X112352026Y-55215144D01*
X112379875Y-55246994D01*
X112439987Y-55345088D01*
X112586250Y-55513938D01*
X112758126Y-55656632D01*
X112951000Y-55769338D01*
X113159692Y-55849030D01*
X113164760Y-55850061D01*
X113164763Y-55850062D01*
X113272017Y-55871883D01*
X113378597Y-55893567D01*
X113383772Y-55893757D01*
X113383774Y-55893757D01*
X113596673Y-55901564D01*
X113596677Y-55901564D01*
X113601837Y-55901753D01*
X113606957Y-55901097D01*
X113606959Y-55901097D01*
X113818288Y-55874025D01*
X113818289Y-55874025D01*
X113823416Y-55873368D01*
X113828366Y-55871883D01*
X114032429Y-55810661D01*
X114032434Y-55810659D01*
X114037384Y-55809174D01*
X114237994Y-55710896D01*
X114419860Y-55581173D01*
X114444606Y-55556514D01*
X114574435Y-55427137D01*
X114578096Y-55423489D01*
X114600444Y-55392389D01*
X114708453Y-55242077D01*
X114709776Y-55243028D01*
X114756645Y-55199857D01*
X114826580Y-55187625D01*
X114892026Y-55215144D01*
X114919875Y-55246994D01*
X114979987Y-55345088D01*
X115126250Y-55513938D01*
X115298126Y-55656632D01*
X115491000Y-55769338D01*
X115699692Y-55849030D01*
X115704760Y-55850061D01*
X115704763Y-55850062D01*
X115812017Y-55871883D01*
X115918597Y-55893567D01*
X115923772Y-55893757D01*
X115923774Y-55893757D01*
X116136673Y-55901564D01*
X116136677Y-55901564D01*
X116141837Y-55901753D01*
X116146957Y-55901097D01*
X116146959Y-55901097D01*
X116358288Y-55874025D01*
X116358289Y-55874025D01*
X116363416Y-55873368D01*
X116368366Y-55871883D01*
X116572429Y-55810661D01*
X116572434Y-55810659D01*
X116577384Y-55809174D01*
X116777994Y-55710896D01*
X116959860Y-55581173D01*
X116984606Y-55556514D01*
X117114435Y-55427137D01*
X117118096Y-55423489D01*
X117140444Y-55392389D01*
X117245435Y-55246277D01*
X117248453Y-55242077D01*
X117269320Y-55199857D01*
X117345136Y-55046453D01*
X117345137Y-55046451D01*
X117347430Y-55041811D01*
X117412370Y-54828069D01*
X117441529Y-54606590D01*
X117441611Y-54603240D01*
X117443074Y-54543365D01*
X117443074Y-54543361D01*
X117443156Y-54540000D01*
X117424852Y-54317361D01*
X117370431Y-54100702D01*
X117345027Y-54042277D01*
X144137009Y-54042277D01*
X144162625Y-54310769D01*
X144163710Y-54315203D01*
X144163711Y-54315209D01*
X144225645Y-54568312D01*
X144226731Y-54572750D01*
X144327985Y-54822733D01*
X144464265Y-55055482D01*
X144467118Y-55059049D01*
X144614250Y-55243028D01*
X144632716Y-55266119D01*
X144829809Y-55450234D01*
X145051416Y-55603968D01*
X145055499Y-55605999D01*
X145055502Y-55606001D01*
X145150632Y-55653327D01*
X145292894Y-55724101D01*
X145297228Y-55725522D01*
X145297231Y-55725523D01*
X145544853Y-55806698D01*
X145544859Y-55806699D01*
X145549186Y-55808118D01*
X145553677Y-55808898D01*
X145553678Y-55808898D01*
X145811140Y-55853601D01*
X145811148Y-55853602D01*
X145814921Y-55854257D01*
X145818758Y-55854448D01*
X145898578Y-55858422D01*
X145898586Y-55858422D01*
X145900149Y-55858500D01*
X146068512Y-55858500D01*
X146070780Y-55858335D01*
X146070792Y-55858335D01*
X146201884Y-55848823D01*
X146269004Y-55843953D01*
X146273459Y-55842969D01*
X146273462Y-55842969D01*
X146527912Y-55786791D01*
X146527916Y-55786790D01*
X146532372Y-55785806D01*
X146658480Y-55738028D01*
X146780318Y-55691868D01*
X146780321Y-55691867D01*
X146784588Y-55690250D01*
X146946453Y-55600342D01*
X147016375Y-55561504D01*
X147016376Y-55561503D01*
X147020368Y-55559286D01*
X147167354Y-55447110D01*
X147231141Y-55398429D01*
X147231142Y-55398428D01*
X147234773Y-55395657D01*
X147423312Y-55202792D01*
X147582034Y-54984730D01*
X147667156Y-54822939D01*
X147705490Y-54750079D01*
X147705493Y-54750073D01*
X147707615Y-54746039D01*
X147770378Y-54568312D01*
X147795902Y-54496033D01*
X147795902Y-54496032D01*
X147797425Y-54491720D01*
X147833987Y-54306217D01*
X147848700Y-54231572D01*
X147848701Y-54231566D01*
X147849581Y-54227100D01*
X147849808Y-54222544D01*
X147862764Y-53962292D01*
X147862764Y-53962286D01*
X147862991Y-53957723D01*
X147837375Y-53689231D01*
X147835640Y-53682138D01*
X147774355Y-53431688D01*
X147773269Y-53427250D01*
X147672015Y-53177267D01*
X147555584Y-52978418D01*
X147538045Y-52948463D01*
X147538044Y-52948462D01*
X147535735Y-52944518D01*
X147417928Y-52797208D01*
X147370136Y-52737447D01*
X147370135Y-52737445D01*
X147367284Y-52733881D01*
X147170191Y-52549766D01*
X146948584Y-52396032D01*
X146944501Y-52394001D01*
X146944498Y-52393999D01*
X146779606Y-52311967D01*
X146707106Y-52275899D01*
X146702772Y-52274478D01*
X146702769Y-52274477D01*
X146455147Y-52193302D01*
X146455141Y-52193301D01*
X146450814Y-52191882D01*
X146446322Y-52191102D01*
X146188860Y-52146399D01*
X146188852Y-52146398D01*
X146185079Y-52145743D01*
X146173817Y-52145182D01*
X146101422Y-52141578D01*
X146101414Y-52141578D01*
X146099851Y-52141500D01*
X145931488Y-52141500D01*
X145929220Y-52141665D01*
X145929208Y-52141665D01*
X145798116Y-52151177D01*
X145730996Y-52156047D01*
X145726541Y-52157031D01*
X145726538Y-52157031D01*
X145472088Y-52213209D01*
X145472084Y-52213210D01*
X145467628Y-52214194D01*
X145382046Y-52246618D01*
X145219682Y-52308132D01*
X145219679Y-52308133D01*
X145215412Y-52309750D01*
X144979632Y-52440714D01*
X144765227Y-52604343D01*
X144762034Y-52607609D01*
X144762032Y-52607611D01*
X144734447Y-52635829D01*
X144576688Y-52797208D01*
X144417966Y-53015270D01*
X144402960Y-53043792D01*
X144294510Y-53249921D01*
X144294507Y-53249927D01*
X144292385Y-53253961D01*
X144290865Y-53258266D01*
X144290863Y-53258270D01*
X144221975Y-53453345D01*
X144202575Y-53508280D01*
X144201692Y-53512762D01*
X144162301Y-53712617D01*
X144150419Y-53772900D01*
X144150192Y-53777453D01*
X144150192Y-53777456D01*
X144140991Y-53962292D01*
X144137009Y-54042277D01*
X117345027Y-54042277D01*
X117281354Y-53895840D01*
X117201821Y-53772900D01*
X117162822Y-53712617D01*
X117162820Y-53712614D01*
X117160014Y-53708277D01*
X117009670Y-53543051D01*
X117005619Y-53539852D01*
X117005615Y-53539848D01*
X116838414Y-53407800D01*
X116838410Y-53407798D01*
X116834359Y-53404598D01*
X116792569Y-53381529D01*
X116742598Y-53331097D01*
X116727826Y-53261654D01*
X116752942Y-53195248D01*
X116780294Y-53168641D01*
X116955328Y-53043792D01*
X116963200Y-53037139D01*
X117114052Y-52886812D01*
X117120730Y-52878965D01*
X117245003Y-52706020D01*
X117250313Y-52697183D01*
X117344670Y-52506267D01*
X117348469Y-52496672D01*
X117393924Y-52347064D01*
X121637707Y-52347064D01*
X121666825Y-52539599D01*
X121669028Y-52545585D01*
X121669029Y-52545591D01*
X121731860Y-52716360D01*
X121731862Y-52716365D01*
X121734063Y-52722346D01*
X121836674Y-52887840D01*
X121841055Y-52892473D01*
X121841056Y-52892474D01*
X121966081Y-53024685D01*
X121970466Y-53029322D01*
X122129975Y-53141011D01*
X122135838Y-53143548D01*
X122302825Y-53215810D01*
X122302829Y-53215811D01*
X122308684Y-53218345D01*
X122314931Y-53219650D01*
X122314934Y-53219651D01*
X122494557Y-53257176D01*
X122494562Y-53257177D01*
X122499293Y-53258165D01*
X122505685Y-53258500D01*
X122648663Y-53258500D01*
X122733122Y-53249921D01*
X122787378Y-53244410D01*
X122787379Y-53244410D01*
X122793727Y-53243765D01*
X122875035Y-53218285D01*
X122973451Y-53187444D01*
X122973456Y-53187442D01*
X122979541Y-53185535D01*
X123110548Y-53112916D01*
X123144271Y-53094223D01*
X123144274Y-53094221D01*
X123149850Y-53091130D01*
X123154691Y-53086981D01*
X123154695Y-53086978D01*
X123292855Y-52968560D01*
X123297698Y-52964409D01*
X123307051Y-52952352D01*
X123413131Y-52815594D01*
X123417046Y-52810547D01*
X123421794Y-52800899D01*
X123500200Y-52641556D01*
X123503018Y-52635829D01*
X123526114Y-52547162D01*
X123550492Y-52453575D01*
X123550492Y-52453572D01*
X123552102Y-52447393D01*
X123557360Y-52347064D01*
X128437707Y-52347064D01*
X128466825Y-52539599D01*
X128469028Y-52545585D01*
X128469029Y-52545591D01*
X128531860Y-52716360D01*
X128531862Y-52716365D01*
X128534063Y-52722346D01*
X128636674Y-52887840D01*
X128641055Y-52892473D01*
X128641056Y-52892474D01*
X128766081Y-53024685D01*
X128770466Y-53029322D01*
X128929975Y-53141011D01*
X128935838Y-53143548D01*
X129102825Y-53215810D01*
X129102829Y-53215811D01*
X129108684Y-53218345D01*
X129114931Y-53219650D01*
X129114934Y-53219651D01*
X129294557Y-53257176D01*
X129294562Y-53257177D01*
X129299293Y-53258165D01*
X129305685Y-53258500D01*
X129448663Y-53258500D01*
X129533122Y-53249921D01*
X129587378Y-53244410D01*
X129587379Y-53244410D01*
X129593727Y-53243765D01*
X129675035Y-53218285D01*
X129773451Y-53187444D01*
X129773456Y-53187442D01*
X129779541Y-53185535D01*
X129910548Y-53112916D01*
X129944271Y-53094223D01*
X129944274Y-53094221D01*
X129949850Y-53091130D01*
X129954691Y-53086981D01*
X129954695Y-53086978D01*
X130092855Y-52968560D01*
X130097698Y-52964409D01*
X130107051Y-52952352D01*
X130213131Y-52815594D01*
X130217046Y-52810547D01*
X130221794Y-52800899D01*
X130300200Y-52641556D01*
X130303018Y-52635829D01*
X130326114Y-52547162D01*
X130350492Y-52453575D01*
X130350492Y-52453572D01*
X130352102Y-52447393D01*
X130357694Y-52340683D01*
X130361959Y-52259317D01*
X130361959Y-52259313D01*
X130362293Y-52252936D01*
X130333175Y-52060401D01*
X130330972Y-52054415D01*
X130330971Y-52054409D01*
X130268140Y-51883640D01*
X130268138Y-51883635D01*
X130265937Y-51877654D01*
X130182525Y-51743124D01*
X130166688Y-51717582D01*
X130166687Y-51717581D01*
X130163326Y-51712160D01*
X130029534Y-51570678D01*
X129870025Y-51458989D01*
X129822013Y-51438212D01*
X129697175Y-51384190D01*
X129697171Y-51384189D01*
X129691316Y-51381655D01*
X129685069Y-51380350D01*
X129685066Y-51380349D01*
X129505443Y-51342824D01*
X129505438Y-51342823D01*
X129500707Y-51341835D01*
X129494315Y-51341500D01*
X129351337Y-51341500D01*
X129282049Y-51348538D01*
X129212622Y-51355590D01*
X129212621Y-51355590D01*
X129206273Y-51356235D01*
X129149939Y-51373889D01*
X129026549Y-51412556D01*
X129026544Y-51412558D01*
X129020459Y-51414465D01*
X128944713Y-51456452D01*
X128855729Y-51505777D01*
X128855726Y-51505779D01*
X128850150Y-51508870D01*
X128845309Y-51513019D01*
X128845305Y-51513022D01*
X128783641Y-51565875D01*
X128702302Y-51635591D01*
X128582954Y-51789453D01*
X128580138Y-51795176D01*
X128580136Y-51795179D01*
X128536608Y-51883640D01*
X128496982Y-51964171D01*
X128495373Y-51970349D01*
X128495372Y-51970351D01*
X128449736Y-52145552D01*
X128447898Y-52152607D01*
X128447564Y-52158986D01*
X128439663Y-52309750D01*
X128437707Y-52347064D01*
X123557360Y-52347064D01*
X123557694Y-52340683D01*
X123561959Y-52259317D01*
X123561959Y-52259313D01*
X123562293Y-52252936D01*
X123533175Y-52060401D01*
X123530972Y-52054415D01*
X123530971Y-52054409D01*
X123468140Y-51883640D01*
X123468138Y-51883635D01*
X123465937Y-51877654D01*
X123382525Y-51743124D01*
X123366688Y-51717582D01*
X123366687Y-51717581D01*
X123363326Y-51712160D01*
X123229534Y-51570678D01*
X123070025Y-51458989D01*
X123022013Y-51438212D01*
X122897175Y-51384190D01*
X122897171Y-51384189D01*
X122891316Y-51381655D01*
X122885069Y-51380350D01*
X122885066Y-51380349D01*
X122705443Y-51342824D01*
X122705438Y-51342823D01*
X122700707Y-51341835D01*
X122694315Y-51341500D01*
X122551337Y-51341500D01*
X122482049Y-51348538D01*
X122412622Y-51355590D01*
X122412621Y-51355590D01*
X122406273Y-51356235D01*
X122349939Y-51373889D01*
X122226549Y-51412556D01*
X122226544Y-51412558D01*
X122220459Y-51414465D01*
X122144713Y-51456452D01*
X122055729Y-51505777D01*
X122055726Y-51505779D01*
X122050150Y-51508870D01*
X122045309Y-51513019D01*
X122045305Y-51513022D01*
X121983641Y-51565875D01*
X121902302Y-51635591D01*
X121782954Y-51789453D01*
X121780138Y-51795176D01*
X121780136Y-51795179D01*
X121736608Y-51883640D01*
X121696982Y-51964171D01*
X121695373Y-51970349D01*
X121695372Y-51970351D01*
X121649736Y-52145552D01*
X121647898Y-52152607D01*
X121647564Y-52158986D01*
X121639663Y-52309750D01*
X121637707Y-52347064D01*
X117393924Y-52347064D01*
X117410377Y-52292910D01*
X117412555Y-52282837D01*
X117413986Y-52271962D01*
X117411775Y-52257778D01*
X117398617Y-52254000D01*
X109660116Y-52254000D01*
X109644877Y-52258475D01*
X109643672Y-52259865D01*
X109642001Y-52267548D01*
X109642001Y-52894669D01*
X109642371Y-52901490D01*
X109647895Y-52952352D01*
X109651521Y-52967604D01*
X109696676Y-53088054D01*
X109705214Y-53103649D01*
X109781715Y-53205724D01*
X109794276Y-53218285D01*
X109896351Y-53294786D01*
X109911946Y-53303324D01*
X110020827Y-53344142D01*
X110077591Y-53386784D01*
X110102291Y-53453345D01*
X110087083Y-53522694D01*
X110067691Y-53549175D01*
X109944200Y-53678401D01*
X109940629Y-53682138D01*
X109814743Y-53866680D01*
X109720688Y-54069305D01*
X109660989Y-54284570D01*
X109637251Y-54506695D01*
X105792137Y-54506695D01*
X105795902Y-54496033D01*
X105795902Y-54496032D01*
X105797425Y-54491720D01*
X105833987Y-54306217D01*
X105848700Y-54231572D01*
X105848701Y-54231566D01*
X105849581Y-54227100D01*
X105849808Y-54222544D01*
X105862764Y-53962292D01*
X105862764Y-53962286D01*
X105862991Y-53957723D01*
X105837375Y-53689231D01*
X105835640Y-53682138D01*
X105774355Y-53431688D01*
X105773269Y-53427250D01*
X105672015Y-53177267D01*
X105555584Y-52978418D01*
X105538045Y-52948463D01*
X105538044Y-52948462D01*
X105535735Y-52944518D01*
X105417928Y-52797208D01*
X105370136Y-52737447D01*
X105370135Y-52737445D01*
X105367284Y-52733881D01*
X105170191Y-52549766D01*
X104948584Y-52396032D01*
X104944501Y-52394001D01*
X104944498Y-52393999D01*
X104779606Y-52311967D01*
X104707106Y-52275899D01*
X104702772Y-52274478D01*
X104702769Y-52274477D01*
X104455147Y-52193302D01*
X104455141Y-52193301D01*
X104450814Y-52191882D01*
X104446322Y-52191102D01*
X104188860Y-52146399D01*
X104188852Y-52146398D01*
X104185079Y-52145743D01*
X104173817Y-52145182D01*
X104101422Y-52141578D01*
X104101414Y-52141578D01*
X104099851Y-52141500D01*
X103931488Y-52141500D01*
X103929220Y-52141665D01*
X103929208Y-52141665D01*
X103798116Y-52151177D01*
X103730996Y-52156047D01*
X103726541Y-52157031D01*
X103726538Y-52157031D01*
X103472088Y-52213209D01*
X103472084Y-52213210D01*
X103467628Y-52214194D01*
X103382046Y-52246618D01*
X103219682Y-52308132D01*
X103219679Y-52308133D01*
X103215412Y-52309750D01*
X102979632Y-52440714D01*
X102765227Y-52604343D01*
X102762034Y-52607609D01*
X102762032Y-52607611D01*
X102734447Y-52635829D01*
X102576688Y-52797208D01*
X102417966Y-53015270D01*
X102402960Y-53043792D01*
X102294510Y-53249921D01*
X102294507Y-53249927D01*
X102292385Y-53253961D01*
X102290865Y-53258266D01*
X102290863Y-53258270D01*
X102221975Y-53453345D01*
X102202575Y-53508280D01*
X102201692Y-53512762D01*
X102162301Y-53712617D01*
X102150419Y-53772900D01*
X102150192Y-53777453D01*
X102150192Y-53777456D01*
X102140991Y-53962292D01*
X102137009Y-54042277D01*
X100508000Y-54042277D01*
X100508000Y-50634000D01*
X100528002Y-50565879D01*
X100581658Y-50519386D01*
X100634000Y-50508000D01*
X109781275Y-50508000D01*
X109849396Y-50528002D01*
G37*
%TD.AperFunction*%
%TD*%
M02*
