M48
; DRILL file {KiCad (6.0.1)} date Fri Feb 11 18:11:40 2022
; FORMAT={-:-/ absolute / metric / decimal}
; #@! TF.CreationDate,2022-02-11T18:11:40+00:00
; #@! TF.GenerationSoftware,Kicad,Pcbnew,(6.0.1)
; #@! TF.FileFunction,MixedPlating,1,2
FMAT,2
METRIC
; #@! TA.AperFunction,Plated,PTH,ViaDrill
T1C0.400
; #@! TA.AperFunction,Plated,PTH,ComponentDrill
T2C0.800
; #@! TA.AperFunction,Plated,PTH,ComponentDrill
T3C1.000
; #@! TA.AperFunction,NonPlated,NPTH,ComponentDrill
T4C0.900
; #@! TA.AperFunction,NonPlated,NPTH,ComponentDrill
T5C1.000
; #@! TA.AperFunction,NonPlated,NPTH,ComponentDrill
T6C2.700
%
G90
G05
T1
X102.35Y-58.4
X104.65Y-77.25
X107.85Y-51.5
X108.15Y-98.15
X109.95Y-57.85
X111.05Y-93.25
X112.1Y-73.05
X112.1Y-82.45
X113.3Y-78.3
X115.9Y-98.6
X116.3Y-77.25
X116.5Y-81.5
X116.5Y-93.3
X116.65Y-70.55
X116.95Y-85.15
X117.1Y-74.849
X118.85Y-58.3
X119.35Y-51.6
X119.4Y-53.85
X120.7Y-71.3
X120.8Y-55.9
X121.3Y-93.25
X121.35Y-81.8
X122.1Y-60.825
X122.1Y-67.751
X122.2Y-71.9
X122.55Y-70.35
X123.48Y-95.8
X124.15Y-77.4
X125.65Y-85.9
X127.25Y-69.5
X127.6Y-72.1
X128.0Y-77.1
X129.85Y-67.3
X130.5Y-93.0
X130.75Y-82.9
X131.8Y-76.0
X132.75Y-56.7
X132.75Y-59.2
X133.15Y-97.85
X134.05Y-85.9
X134.35Y-77.751
X134.65Y-56.75
X134.75Y-59.25
X135.0Y-62.85
X135.1Y-94.05
X135.6Y-77.0
X136.922Y-79.978
X136.922Y-84.0
X137.033Y-70.688
X137.6Y-86.5
X137.8Y-76.8
X137.8Y-80.6
X139.25Y-83.4
X139.6Y-81.5
X140.251Y-79.5
X140.95Y-59.15
X141.5Y-94.0
X141.9Y-75.7
X142.95Y-86.3
X143.05Y-78.75
X144.7Y-61.6
X145.95Y-58.45
T2
X102.754Y-65.304
X102.756Y-90.7
X105.294Y-65.304
X105.296Y-90.7
X107.834Y-65.304
X107.834Y-90.704
X110.374Y-65.304
X110.374Y-90.704
X112.914Y-65.304
X112.914Y-90.704
X115.454Y-65.304
X115.454Y-90.704
X117.994Y-65.304
X117.994Y-90.704
X120.534Y-65.304
X120.534Y-90.704
X123.074Y-65.304
X123.074Y-90.704
X125.614Y-65.304
X125.614Y-90.704
X128.154Y-65.304
X128.154Y-90.704
X130.694Y-65.304
X130.694Y-90.704
X133.234Y-65.304
X133.234Y-90.704
X135.774Y-65.304
X135.774Y-90.704
X138.314Y-65.304
X138.314Y-90.704
X140.854Y-65.304
X140.854Y-90.704
X143.394Y-65.304
X143.394Y-90.704
X145.934Y-65.304
X145.934Y-90.704
X148.474Y-65.304
X148.474Y-90.704
T3
X111.0Y-52.0
X111.0Y-54.54
X111.0Y-95.5
X111.0Y-98.04
X113.54Y-52.0
X113.54Y-54.54
X113.54Y-95.5
X113.54Y-98.04
X116.08Y-52.0
X116.08Y-54.54
X145.66Y-69.5
X145.66Y-72.04
X145.66Y-74.58
X145.66Y-77.12
X145.66Y-79.66
X145.66Y-82.2
X145.66Y-84.74
X145.66Y-87.28
X148.2Y-69.5
X148.2Y-72.04
X148.2Y-74.58
X148.2Y-77.12
X148.2Y-79.66
X148.2Y-82.2
X148.2Y-84.74
X148.2Y-87.28
T4
X122.6Y-52.3
X129.4Y-52.3
T5
X104.5Y-73.37
X104.5Y-81.35
T6
X104.0Y-54.0
X104.0Y-96.0
X146.0Y-54.0
X146.0Y-96.0
T0
M30
