%TF.GenerationSoftware,KiCad,Pcbnew,(6.0.1)*%
%TF.CreationDate,2022-02-11T18:11:36+00:00*%
%TF.ProjectId,OpenBCI_ESP32_BASE,4f70656e-4243-4495-9f45-535033325f42,rev?*%
%TF.SameCoordinates,Original*%
%TF.FileFunction,Legend,Bot*%
%TF.FilePolarity,Positive*%
%FSLAX46Y46*%
G04 Gerber Fmt 4.6, Leading zero omitted, Abs format (unit mm)*
G04 Created by KiCad (PCBNEW (6.0.1)) date 2022-02-11 18:11:36*
%MOMM*%
%LPD*%
G01*
G04 APERTURE LIST*
%ADD10C,0.150000*%
%ADD11C,0.120000*%
G04 APERTURE END LIST*
D10*
%TO.C,J2*%
X107682380Y-52936666D02*
X108396666Y-52936666D01*
X108539523Y-52889047D01*
X108634761Y-52793809D01*
X108682380Y-52650952D01*
X108682380Y-52555714D01*
X107777619Y-53365238D02*
X107730000Y-53412857D01*
X107682380Y-53508095D01*
X107682380Y-53746190D01*
X107730000Y-53841428D01*
X107777619Y-53889047D01*
X107872857Y-53936666D01*
X107968095Y-53936666D01*
X108110952Y-53889047D01*
X108682380Y-53317619D01*
X108682380Y-53936666D01*
%TO.C,J3*%
X107658380Y-96500166D02*
X108372666Y-96500166D01*
X108515523Y-96452547D01*
X108610761Y-96357309D01*
X108658380Y-96214452D01*
X108658380Y-96119214D01*
X107658380Y-96881119D02*
X107658380Y-97500166D01*
X108039333Y-97166833D01*
X108039333Y-97309690D01*
X108086952Y-97404928D01*
X108134571Y-97452547D01*
X108229809Y-97500166D01*
X108467904Y-97500166D01*
X108563142Y-97452547D01*
X108610761Y-97404928D01*
X108658380Y-97309690D01*
X108658380Y-97023976D01*
X108610761Y-96928738D01*
X108563142Y-96881119D01*
%TO.C,J4*%
X143133333Y-67852380D02*
X143133333Y-68566666D01*
X143180952Y-68709523D01*
X143276190Y-68804761D01*
X143419047Y-68852380D01*
X143514285Y-68852380D01*
X142228571Y-68185714D02*
X142228571Y-68852380D01*
X142466666Y-67804761D02*
X142704761Y-68519047D01*
X142085714Y-68519047D01*
D11*
%TO.C,J2*%
X112270000Y-53270000D02*
X112270000Y-50666500D01*
X109666500Y-53270000D02*
X112270000Y-53270000D01*
X109666500Y-50666500D02*
X117413500Y-50666500D01*
X117413500Y-55873500D02*
X109666500Y-55873500D01*
X117413500Y-50666500D02*
X117413500Y-55873500D01*
X109666500Y-55873500D02*
X109666500Y-50666500D01*
%TO.C,J3*%
X112270000Y-96770000D02*
X112270000Y-94166500D01*
X109666500Y-96770000D02*
X112270000Y-96770000D01*
X109666500Y-94166500D02*
X109666500Y-99373500D01*
X114873500Y-99373500D02*
X114873500Y-94166500D01*
X114873500Y-94166500D02*
X109666500Y-94166500D01*
X109666500Y-99373500D02*
X114873500Y-99373500D01*
%TO.C,J4*%
X144326500Y-68166500D02*
X149533500Y-68166500D01*
X146930000Y-68166500D02*
X146930000Y-70770000D01*
X146930000Y-70770000D02*
X149533500Y-70770000D01*
X149533500Y-68166500D02*
X149533500Y-88613500D01*
X144326500Y-88613500D02*
X144326500Y-68166500D01*
X149533500Y-88613500D02*
X144326500Y-88613500D01*
%TD*%
M02*
