%TF.GenerationSoftware,KiCad,Pcbnew,(6.0.0)*%
%TF.CreationDate,2022-01-16T13:15:06+00:00*%
%TF.ProjectId,OpenBCI_ESP32_BASE,4f70656e-4243-4495-9f45-535033325f42,rev?*%
%TF.SameCoordinates,Original*%
%TF.FileFunction,Soldermask,Top*%
%TF.FilePolarity,Negative*%
%FSLAX46Y46*%
G04 Gerber Fmt 4.6, Leading zero omitted, Abs format (unit mm)*
G04 Created by KiCad (PCBNEW (6.0.0)) date 2022-01-16 13:15:06*
%MOMM*%
%LPD*%
G01*
G04 APERTURE LIST*
G04 Aperture macros list*
%AMRoundRect*
0 Rectangle with rounded corners*
0 $1 Rounding radius*
0 $2 $3 $4 $5 $6 $7 $8 $9 X,Y pos of 4 corners*
0 Add a 4 corners polygon primitive as box body*
4,1,4,$2,$3,$4,$5,$6,$7,$8,$9,$2,$3,0*
0 Add four circle primitives for the rounded corners*
1,1,$1+$1,$2,$3*
1,1,$1+$1,$4,$5*
1,1,$1+$1,$6,$7*
1,1,$1+$1,$8,$9*
0 Add four rect primitives between the rounded corners*
20,1,$1+$1,$2,$3,$4,$5,0*
20,1,$1+$1,$4,$5,$6,$7,0*
20,1,$1+$1,$6,$7,$8,$9,0*
20,1,$1+$1,$8,$9,$2,$3,0*%
G04 Aperture macros list end*
%ADD10RoundRect,0.250000X-0.475000X0.250000X-0.475000X-0.250000X0.475000X-0.250000X0.475000X0.250000X0*%
%ADD11RoundRect,0.250000X0.250000X0.475000X-0.250000X0.475000X-0.250000X-0.475000X0.250000X-0.475000X0*%
%ADD12RoundRect,0.225000X0.250000X-0.225000X0.250000X0.225000X-0.250000X0.225000X-0.250000X-0.225000X0*%
%ADD13RoundRect,0.225000X-0.250000X0.225000X-0.250000X-0.225000X0.250000X-0.225000X0.250000X0.225000X0*%
%ADD14RoundRect,0.225000X-0.225000X-0.250000X0.225000X-0.250000X0.225000X0.250000X-0.225000X0.250000X0*%
%ADD15RoundRect,0.250000X0.475000X-0.250000X0.475000X0.250000X-0.475000X0.250000X-0.475000X-0.250000X0*%
%ADD16RoundRect,0.250000X-0.250000X-0.475000X0.250000X-0.475000X0.250000X0.475000X-0.250000X0.475000X0*%
%ADD17RoundRect,0.218750X-0.218750X-0.381250X0.218750X-0.381250X0.218750X0.381250X-0.218750X0.381250X0*%
%ADD18RoundRect,0.218750X0.218750X0.381250X-0.218750X0.381250X-0.218750X-0.381250X0.218750X-0.381250X0*%
%ADD19RoundRect,0.150000X-0.150000X0.512500X-0.150000X-0.512500X0.150000X-0.512500X0.150000X0.512500X0*%
%ADD20RoundRect,0.150000X0.512500X0.150000X-0.512500X0.150000X-0.512500X-0.150000X0.512500X-0.150000X0*%
%ADD21RoundRect,0.087500X-0.187500X-0.087500X0.187500X-0.087500X0.187500X0.087500X-0.187500X0.087500X0*%
%ADD22RoundRect,0.087500X-0.087500X-0.187500X0.087500X-0.187500X0.087500X0.187500X-0.087500X0.187500X0*%
%ADD23O,1.200000X2.000000*%
%ADD24RoundRect,0.300000X0.300000X0.700000X-0.300000X0.700000X-0.300000X-0.700000X0.300000X-0.700000X0*%
%ADD25R,1.600000X0.700000*%
%ADD26R,2.200000X1.200000*%
%ADD27R,1.400000X1.200000*%
%ADD28R,1.400000X1.600000*%
%ADD29R,1.200000X0.900000*%
%ADD30RoundRect,0.250000X0.250000X1.500000X-0.250000X1.500000X-0.250000X-1.500000X0.250000X-1.500000X0*%
%ADD31RoundRect,0.250001X0.499999X1.449999X-0.499999X1.449999X-0.499999X-1.449999X0.499999X-1.449999X0*%
%ADD32R,1.700000X1.700000*%
%ADD33O,1.700000X1.700000*%
%ADD34C,2.700000*%
%ADD35RoundRect,0.225000X0.225000X0.250000X-0.225000X0.250000X-0.225000X-0.250000X0.225000X-0.250000X0*%
%ADD36RoundRect,0.200000X-0.200000X-0.275000X0.200000X-0.275000X0.200000X0.275000X-0.200000X0.275000X0*%
%ADD37C,0.900000*%
%ADD38R,1.250000X2.500000*%
G04 APERTURE END LIST*
D10*
%TO.C,C33*%
X124100000Y-60175000D03*
X124100000Y-62075000D03*
%TD*%
D11*
%TO.C,C34*%
X128250000Y-62325000D03*
X126350000Y-62325000D03*
%TD*%
D12*
%TO.C,C35*%
X119400000Y-61775000D03*
X119400000Y-60225000D03*
%TD*%
D13*
%TO.C,C36*%
X131700000Y-96125000D03*
X131700000Y-97675000D03*
%TD*%
%TO.C,C37*%
X121900000Y-73725000D03*
X121900000Y-75275000D03*
%TD*%
D14*
%TO.C,C38*%
X124125000Y-71300000D03*
X125675000Y-71300000D03*
%TD*%
%TO.C,C39*%
X115425000Y-57800000D03*
X116975000Y-57800000D03*
%TD*%
%TO.C,C40*%
X127425000Y-94000000D03*
X128975000Y-94000000D03*
%TD*%
D13*
%TO.C,C41*%
X127900000Y-73775000D03*
X127900000Y-75325000D03*
%TD*%
D12*
%TO.C,C42*%
X112900000Y-61775000D03*
X112900000Y-60225000D03*
%TD*%
%TO.C,C43*%
X124700000Y-97375000D03*
X124700000Y-95825000D03*
%TD*%
D10*
%TO.C,C44*%
X126500000Y-78950000D03*
X126500000Y-80850000D03*
%TD*%
D15*
%TO.C,C45*%
X110400000Y-62000000D03*
X110400000Y-60100000D03*
%TD*%
D11*
%TO.C,C46*%
X121750000Y-97600000D03*
X119850000Y-97600000D03*
%TD*%
%TO.C,C47*%
X130550000Y-80800000D03*
X128650000Y-80800000D03*
%TD*%
D16*
%TO.C,C48*%
X106150000Y-59200000D03*
X108050000Y-59200000D03*
%TD*%
D10*
%TO.C,C49*%
X117500000Y-95450000D03*
X117500000Y-97350000D03*
%TD*%
D13*
%TO.C,C50*%
X103900000Y-60025000D03*
X103900000Y-61575000D03*
%TD*%
D17*
%TO.C,L1*%
X126237500Y-60325000D03*
X128362500Y-60325000D03*
%TD*%
%TO.C,L2*%
X128437500Y-78800000D03*
X130562500Y-78800000D03*
%TD*%
D18*
%TO.C,L3*%
X108162500Y-61500000D03*
X106037500Y-61500000D03*
%TD*%
%TO.C,L4*%
X121862500Y-95500000D03*
X119737500Y-95500000D03*
%TD*%
D19*
%TO.C,U8*%
X125850000Y-73262500D03*
X124900000Y-73262500D03*
X123950000Y-73262500D03*
X123950000Y-75537500D03*
X125850000Y-75537500D03*
%TD*%
D20*
%TO.C,U9*%
X117337500Y-61850000D03*
X117337500Y-60900000D03*
X117337500Y-59950000D03*
X115062500Y-59950000D03*
X115062500Y-61850000D03*
%TD*%
%TO.C,U10*%
X129237500Y-97650000D03*
X129237500Y-96700000D03*
X129237500Y-95750000D03*
X126962500Y-95750000D03*
X126962500Y-97650000D03*
%TD*%
D21*
%TO.C,U1*%
X138575000Y-78300000D03*
X138575000Y-78800000D03*
X138575000Y-79300000D03*
X138575000Y-79800000D03*
X138575000Y-80300000D03*
D22*
X139300000Y-80525000D03*
X139800000Y-80525000D03*
X140300000Y-80525000D03*
D21*
X141025000Y-80300000D03*
X141025000Y-79800000D03*
X141025000Y-79300000D03*
X141025000Y-78800000D03*
X141025000Y-78300000D03*
D22*
X140300000Y-78075000D03*
X139800000Y-78075000D03*
X139300000Y-78075000D03*
%TD*%
D23*
%TO.C,U2*%
X148497280Y-65303680D03*
X145957280Y-65303680D03*
X143417280Y-65303680D03*
X140877280Y-65303680D03*
X138337280Y-65303680D03*
X135797280Y-65303680D03*
X133257280Y-65303680D03*
X130717280Y-65303680D03*
X128177280Y-65303680D03*
X125637280Y-65303680D03*
X123097280Y-65303680D03*
X120557280Y-65303680D03*
X118017280Y-65303680D03*
D24*
X115477280Y-65303680D03*
D23*
X112937280Y-65303680D03*
X110397280Y-65303680D03*
X107857280Y-65303680D03*
X105317280Y-65303680D03*
X102777280Y-65303680D03*
X102780000Y-90700000D03*
X105320000Y-90700000D03*
X107857280Y-90703680D03*
X110397280Y-90703680D03*
X112937280Y-90703680D03*
X115477280Y-90703680D03*
X118017280Y-90703680D03*
X120557280Y-90703680D03*
X123097280Y-90703680D03*
X125637280Y-90703680D03*
X128177280Y-90703680D03*
X130717280Y-90703680D03*
X133257280Y-90703680D03*
X135797280Y-90703680D03*
X138337280Y-90703680D03*
X140877280Y-90703680D03*
X143417280Y-90703680D03*
X145957280Y-90703680D03*
D24*
X148497280Y-90703680D03*
%TD*%
D25*
%TO.C,XS1*%
X115000000Y-80500000D03*
X115000000Y-79400000D03*
X115000000Y-78300000D03*
X115000000Y-77200000D03*
X115000000Y-76100000D03*
D26*
X104900000Y-86050000D03*
D25*
X115000000Y-75000000D03*
D27*
X114500000Y-70550000D03*
D28*
X114500000Y-85150000D03*
D26*
X104900000Y-70550000D03*
D25*
X115000000Y-73900000D03*
X115000000Y-72800000D03*
X115000000Y-71700000D03*
%TD*%
D29*
%TO.C,D1*%
X130800000Y-61275000D03*
X130800000Y-57975000D03*
%TD*%
D30*
%TO.C,J1*%
X138600000Y-57950000D03*
X136600000Y-57950000D03*
D31*
X140950000Y-52200000D03*
X134250000Y-52200000D03*
%TD*%
D32*
%TO.C,J2*%
X111000000Y-52000000D03*
D33*
X111000000Y-54540000D03*
X113540000Y-52000000D03*
X113540000Y-54540000D03*
X116080000Y-52000000D03*
X116080000Y-54540000D03*
%TD*%
D32*
%TO.C,J3*%
X111000000Y-95500000D03*
D33*
X111000000Y-98040000D03*
X113540000Y-95500000D03*
X113540000Y-98040000D03*
%TD*%
D32*
%TO.C,J4*%
X148200000Y-69500000D03*
D33*
X145660000Y-69500000D03*
X148200000Y-72040000D03*
X145660000Y-72040000D03*
X148200000Y-74580000D03*
X145660000Y-74580000D03*
X148200000Y-77120000D03*
X145660000Y-77120000D03*
X148200000Y-79660000D03*
X145660000Y-79660000D03*
X148200000Y-82200000D03*
X145660000Y-82200000D03*
X148200000Y-84740000D03*
X145660000Y-84740000D03*
X148200000Y-87280000D03*
X145660000Y-87280000D03*
%TD*%
D34*
%TO.C,H1*%
X104000000Y-54000000D03*
%TD*%
%TO.C,H2*%
X104000000Y-96000000D03*
%TD*%
%TO.C,H3*%
X146000000Y-54000000D03*
%TD*%
%TO.C,H4*%
X146000000Y-96000000D03*
%TD*%
D16*
%TO.C,C1*%
X138750000Y-75800000D03*
X140650000Y-75800000D03*
%TD*%
%TO.C,C2*%
X116200000Y-82400000D03*
X118100000Y-82400000D03*
%TD*%
D11*
%TO.C,C3*%
X148250000Y-61600000D03*
X146350000Y-61600000D03*
%TD*%
D35*
%TO.C,C4*%
X136575000Y-75800000D03*
X135025000Y-75800000D03*
%TD*%
D36*
%TO.C,R1*%
X111775000Y-57800000D03*
X113425000Y-57800000D03*
%TD*%
D37*
%TO.C,SW1*%
X129400000Y-52300000D03*
X122600000Y-52300000D03*
D38*
X128500000Y-55050000D03*
X126000000Y-55050000D03*
X123500000Y-55050000D03*
%TD*%
D36*
%TO.C,R2*%
X124175000Y-94000000D03*
X125825000Y-94000000D03*
%TD*%
M02*
