M48
; DRILL file {KiCad (6.0.0)} date Sun Jan 16 13:15:25 2022
; FORMAT={-:-/ absolute / metric / decimal}
; #@! TF.CreationDate,2022-01-16T13:15:25+00:00
; #@! TF.GenerationSoftware,Kicad,Pcbnew,(6.0.0)
; #@! TF.FileFunction,MixedPlating,1,2
FMAT,2
METRIC
; #@! TA.AperFunction,Plated,PTH,ViaDrill
T1C0.400
; #@! TA.AperFunction,Plated,PTH,ComponentDrill
T2C0.800
; #@! TA.AperFunction,Plated,PTH,ComponentDrill
T3C1.000
; #@! TA.AperFunction,NonPlated,NPTH,ComponentDrill
T4C0.900
; #@! TA.AperFunction,NonPlated,NPTH,ComponentDrill
T5C1.000
; #@! TA.AperFunction,NonPlated,NPTH,ComponentDrill
T6C2.700
%
G90
G05
T1
X113.3Y-78.3
X116.65Y-70.55
X116.95Y-85.15
X117.1Y-80.7
X122.1Y-60.825
X122.2Y-71.9
X122.3Y-68.025
X123.48Y-95.8
X127.25Y-69.5
X127.6Y-72.1
X128.0Y-77.1
X129.85Y-67.3
X133.15Y-97.85
X134.5Y-81.6
X135.6Y-77.0
X136.922Y-79.978
X136.922Y-84.0
X137.6Y-86.5
X137.8Y-76.8
X137.8Y-80.6
X139.6Y-81.5
X140.251Y-79.5
X141.9Y-75.7
X144.7Y-61.6
T2
X102.777Y-65.304
X102.78Y-90.7
X105.317Y-65.304
X105.32Y-90.7
X107.857Y-65.304
X107.857Y-90.704
X110.397Y-65.304
X110.397Y-90.704
X112.937Y-65.304
X112.937Y-90.704
X115.477Y-65.304
X115.477Y-90.704
X118.017Y-65.304
X118.017Y-90.704
X120.557Y-65.304
X120.557Y-90.704
X123.097Y-65.304
X123.097Y-90.704
X125.637Y-65.304
X125.637Y-90.704
X128.177Y-65.304
X128.177Y-90.704
X130.717Y-65.304
X130.717Y-90.704
X133.257Y-65.304
X133.257Y-90.704
X135.797Y-65.304
X135.797Y-90.704
X138.337Y-65.304
X138.337Y-90.704
X140.877Y-65.304
X140.877Y-90.704
X143.417Y-65.304
X143.417Y-90.704
X145.957Y-65.304
X145.957Y-90.704
X148.497Y-65.304
X148.497Y-90.704
T3
X111.0Y-52.0
X111.0Y-54.54
X111.0Y-95.5
X111.0Y-98.04
X113.54Y-52.0
X113.54Y-54.54
X113.54Y-95.5
X113.54Y-98.04
X116.08Y-52.0
X116.08Y-54.54
X145.66Y-69.5
X145.66Y-72.04
X145.66Y-74.58
X145.66Y-77.12
X145.66Y-79.66
X145.66Y-82.2
X145.66Y-84.74
X145.66Y-87.28
X148.2Y-69.5
X148.2Y-72.04
X148.2Y-74.58
X148.2Y-77.12
X148.2Y-79.66
X148.2Y-82.2
X148.2Y-84.74
X148.2Y-87.28
T4
X122.6Y-52.3
X129.4Y-52.3
T5
X104.5Y-73.37
X104.5Y-81.35
T6
X104.0Y-54.0
X104.0Y-96.0
X146.0Y-54.0
X146.0Y-96.0
T0
M30
