%TF.GenerationSoftware,KiCad,Pcbnew,(6.0.0)*%
%TF.CreationDate,2022-01-16T13:15:06+00:00*%
%TF.ProjectId,OpenBCI_ESP32_BASE,4f70656e-4243-4495-9f45-535033325f42,rev?*%
%TF.SameCoordinates,Original*%
%TF.FileFunction,Copper,L2,Bot*%
%TF.FilePolarity,Positive*%
%FSLAX46Y46*%
G04 Gerber Fmt 4.6, Leading zero omitted, Abs format (unit mm)*
G04 Created by KiCad (PCBNEW (6.0.0)) date 2022-01-16 13:15:06*
%MOMM*%
%LPD*%
G01*
G04 APERTURE LIST*
G04 Aperture macros list*
%AMRoundRect*
0 Rectangle with rounded corners*
0 $1 Rounding radius*
0 $2 $3 $4 $5 $6 $7 $8 $9 X,Y pos of 4 corners*
0 Add a 4 corners polygon primitive as box body*
4,1,4,$2,$3,$4,$5,$6,$7,$8,$9,$2,$3,0*
0 Add four circle primitives for the rounded corners*
1,1,$1+$1,$2,$3*
1,1,$1+$1,$4,$5*
1,1,$1+$1,$6,$7*
1,1,$1+$1,$8,$9*
0 Add four rect primitives between the rounded corners*
20,1,$1+$1,$2,$3,$4,$5,0*
20,1,$1+$1,$4,$5,$6,$7,0*
20,1,$1+$1,$6,$7,$8,$9,0*
20,1,$1+$1,$8,$9,$2,$3,0*%
G04 Aperture macros list end*
%TA.AperFunction,ComponentPad*%
%ADD10O,1.200000X2.000000*%
%TD*%
%TA.AperFunction,ComponentPad*%
%ADD11RoundRect,0.300000X0.300000X0.700000X-0.300000X0.700000X-0.300000X-0.700000X0.300000X-0.700000X0*%
%TD*%
%TA.AperFunction,ComponentPad*%
%ADD12R,1.700000X1.700000*%
%TD*%
%TA.AperFunction,ComponentPad*%
%ADD13O,1.700000X1.700000*%
%TD*%
%TA.AperFunction,ViaPad*%
%ADD14C,0.800000*%
%TD*%
%TA.AperFunction,Conductor*%
%ADD15C,0.250000*%
%TD*%
%TA.AperFunction,Conductor*%
%ADD16C,1.000000*%
%TD*%
%TA.AperFunction,Conductor*%
%ADD17C,0.500000*%
%TD*%
G04 APERTURE END LIST*
D10*
%TO.P,U2,1,3V3*%
%TO.N,+3V3*%
X148497280Y-65303680D03*
%TO.P,U2,2,CHIP_PU*%
%TO.N,unconnected-(U2-Pad2)*%
X145957280Y-65303680D03*
%TO.P,U2,3,SENSOR_VP/GPIO36/ADC1_CH0*%
%TO.N,/OpenBCI_ESP_DEVKIT/BATT*%
X143417280Y-65303680D03*
%TO.P,U2,4,SENSOR_VN/GPIO39/ADC1_CH3*%
%TO.N,unconnected-(U2-Pad4)*%
X140877280Y-65303680D03*
%TO.P,U2,5,VDET_1/GPIO34/ADC1_CH6*%
%TO.N,unconnected-(U2-Pad5)*%
X138337280Y-65303680D03*
%TO.P,U2,6,VDET_2/GPIO35/ADC1_CH7*%
%TO.N,unconnected-(U2-Pad6)*%
X135797280Y-65303680D03*
%TO.P,U2,7,32K_XP/GPIO32/ADC1_CH4*%
%TO.N,/OpenBCI_ESP_DEVKIT/SDCD*%
X133257280Y-65303680D03*
%TO.P,U2,8,32K_XN/GPIO33/ADC1_CH5*%
%TO.N,unconnected-(U2-Pad8)*%
X130717280Y-65303680D03*
%TO.P,U2,9,DAC_1/ADC2_CH8/GPIO25*%
%TO.N,/OpenBCI_ESP_DEVKIT/ADSDRDY1*%
X128177280Y-65303680D03*
%TO.P,U2,10,DAC_2/ADC2_CH9/GPIO26*%
%TO.N,/OpenBCI_ESP_DEVKIT/ADSDRDY2*%
X125637280Y-65303680D03*
%TO.P,U2,11,ADC2_CH7/GPIO27*%
%TO.N,/OpenBCI_ESP_DEVKIT/INT1*%
X123097280Y-65303680D03*
%TO.P,U2,12,MTMS/GPIO14/ADC2_CH6*%
%TO.N,/OpenBCI_ESP_DEVKIT/ADSCLK*%
X120557280Y-65303680D03*
%TO.P,U2,13,\u002AMTDI/GPIO12/ADC2_CH5*%
%TO.N,/OpenBCI_ESP_DEVKIT/ADSMISO*%
X118017280Y-65303680D03*
D11*
%TO.P,U2,14,GND*%
%TO.N,GND*%
X115477280Y-65303680D03*
D10*
%TO.P,U2,15,MTCK/GPIO13/ADC2_CH4*%
%TO.N,/OpenBCI_ESP_DEVKIT/ADSMOSI*%
X112937280Y-65303680D03*
%TO.P,U2,16,SD_DATA2/GPIO9*%
%TO.N,unconnected-(U2-Pad16)*%
X110397280Y-65303680D03*
%TO.P,U2,17,SD_DATA3/GPIO10*%
%TO.N,unconnected-(U2-Pad17)*%
X107857280Y-65303680D03*
%TO.P,U2,18,CMD*%
%TO.N,unconnected-(U2-Pad18)*%
X105317280Y-65303680D03*
%TO.P,U2,19,5V*%
%TO.N,+5V*%
X102777280Y-65303680D03*
%TO.P,U2,20,SD_CLK/GPIO6*%
%TO.N,unconnected-(U2-Pad20)*%
X102780000Y-90700000D03*
%TO.P,U2,21,SD_DATA0/GPIO7*%
%TO.N,unconnected-(U2-Pad21)*%
X105320000Y-90700000D03*
%TO.P,U2,22,SD_DATA1/GPIO8*%
%TO.N,unconnected-(U2-Pad22)*%
X107857280Y-90703680D03*
%TO.P,U2,23,\u002AMTDO/GPIO15/ADC2_CH3*%
%TO.N,/OpenBCI_ESP_DEVKIT/ADSCS1*%
X110397280Y-90703680D03*
%TO.P,U2,24,ADC2_CH2/\u002AGPIO2*%
%TO.N,unconnected-(U2-Pad24)*%
X112937280Y-90703680D03*
%TO.P,U2,25,\u002AGPIO0/BOOT/ADC2_CH1*%
%TO.N,unconnected-(U2-Pad25)*%
X115477280Y-90703680D03*
%TO.P,U2,26,ADC2_CH0/GPIO4*%
%TO.N,unconnected-(U2-Pad26)*%
X118017280Y-90703680D03*
%TO.P,U2,27,GPIO16*%
%TO.N,/OpenBCI_ESP_DEVKIT/ADSCS2*%
X120557280Y-90703680D03*
%TO.P,U2,28,GPIO17*%
%TO.N,/OpenBCI_ESP_DEVKIT/ADSRST*%
X123097280Y-90703680D03*
%TO.P,U2,29,\u002AGPIO5*%
%TO.N,/OpenBCI_ESP_DEVKIT/SDCS*%
X125637280Y-90703680D03*
%TO.P,U2,30,GPIO18*%
%TO.N,/OpenBCI_ESP_DEVKIT/SDCLK*%
X128177280Y-90703680D03*
%TO.P,U2,31,GPIO19*%
%TO.N,/OpenBCI_ESP_DEVKIT/SDMISO*%
X130717280Y-90703680D03*
%TO.P,U2,32,GND*%
%TO.N,GND*%
X133257280Y-90703680D03*
%TO.P,U2,33,GPIO21*%
%TO.N,/OpenBCI_ESP_DEVKIT/SDA*%
X135797280Y-90703680D03*
%TO.P,U2,34,U0RXD/GPIO3*%
%TO.N,unconnected-(U2-Pad34)*%
X138337280Y-90703680D03*
%TO.P,U2,35,U0TXD/GPIO1*%
%TO.N,unconnected-(U2-Pad35)*%
X140877280Y-90703680D03*
%TO.P,U2,36,GPIO22*%
%TO.N,/OpenBCI_ESP_DEVKIT/SCL*%
X143417280Y-90703680D03*
%TO.P,U2,37,GPIO23*%
%TO.N,/OpenBCI_ESP_DEVKIT/SDMOSI*%
X145957280Y-90703680D03*
D11*
%TO.P,U2,38,GND*%
%TO.N,GND*%
X148497280Y-90703680D03*
%TD*%
D12*
%TO.P,J2,1,Pin_1*%
%TO.N,+2V5*%
X111000000Y-52000000D03*
D13*
%TO.P,J2,2,Pin_2*%
%TO.N,GND*%
X111000000Y-54540000D03*
%TO.P,J2,3,Pin_3*%
%TO.N,+2V5*%
X113540000Y-52000000D03*
%TO.P,J2,4,Pin_4*%
%TO.N,GND*%
X113540000Y-54540000D03*
%TO.P,J2,5,Pin_5*%
%TO.N,unconnected-(J2-Pad5)*%
X116080000Y-52000000D03*
%TO.P,J2,6,Pin_6*%
%TO.N,GND*%
X116080000Y-54540000D03*
%TD*%
D12*
%TO.P,J3,1,Pin_1*%
%TO.N,-2V5*%
X111000000Y-95500000D03*
D13*
%TO.P,J3,2,Pin_2*%
%TO.N,GND*%
X111000000Y-98040000D03*
%TO.P,J3,3,Pin_3*%
%TO.N,-2V5*%
X113540000Y-95500000D03*
%TO.P,J3,4,Pin_4*%
%TO.N,GND*%
X113540000Y-98040000D03*
%TD*%
D12*
%TO.P,J4,1,Pin_1*%
%TO.N,+3V3*%
X148200000Y-69500000D03*
D13*
%TO.P,J4,2,Pin_2*%
X145660000Y-69500000D03*
%TO.P,J4,3,Pin_3*%
%TO.N,/OpenBCI_ESP_DEVKIT/ADSDRDY2*%
X148200000Y-72040000D03*
%TO.P,J4,4,Pin_4*%
%TO.N,/OpenBCI_ESP_DEVKIT/ADSDRDY1*%
X145660000Y-72040000D03*
%TO.P,J4,5,Pin_5*%
%TO.N,unconnected-(J4-Pad5)*%
X148200000Y-74580000D03*
%TO.P,J4,6,Pin_6*%
%TO.N,/OpenBCI_ESP_DEVKIT/ADSMISO*%
X145660000Y-74580000D03*
%TO.P,J4,7,Pin_7*%
%TO.N,unconnected-(J4-Pad7)*%
X148200000Y-77120000D03*
%TO.P,J4,8,Pin_8*%
%TO.N,/OpenBCI_ESP_DEVKIT/ADSCLK*%
X145660000Y-77120000D03*
%TO.P,J4,9,Pin_9*%
%TO.N,/OpenBCI_ESP_DEVKIT/ADSCS2*%
X148200000Y-79660000D03*
%TO.P,J4,10,Pin_10*%
%TO.N,/OpenBCI_ESP_DEVKIT/ADSCS1*%
X145660000Y-79660000D03*
%TO.P,J4,11,Pin_11*%
%TO.N,/OpenBCI_ESP_DEVKIT/ADSRST*%
X148200000Y-82200000D03*
%TO.P,J4,12,Pin_12*%
%TO.N,unconnected-(J4-Pad12)*%
X145660000Y-82200000D03*
%TO.P,J4,13,Pin_13*%
%TO.N,unconnected-(J4-Pad13)*%
X148200000Y-84740000D03*
%TO.P,J4,14,Pin_14*%
%TO.N,/OpenBCI_ESP_DEVKIT/ADSMOSI*%
X145660000Y-84740000D03*
%TO.P,J4,15,Pin_15*%
%TO.N,GND*%
X148200000Y-87280000D03*
%TO.P,J4,16,Pin_16*%
X145660000Y-87280000D03*
%TD*%
D14*
%TO.N,GND*%
X144700000Y-61600000D03*
X137800000Y-80600000D03*
X123480150Y-95800000D03*
X128000000Y-77100000D03*
X133150000Y-97850000D03*
X116650000Y-70550000D03*
X116950000Y-85150000D03*
X135600000Y-77000000D03*
%TO.N,+5V*%
X122100000Y-60825000D03*
%TO.N,Net-(C34-Pad1)*%
X122200000Y-71900000D03*
X129850000Y-67300000D03*
%TO.N,/OpenBCI_ESP_DEVKIT/INT1*%
X140251500Y-79500000D03*
X141900000Y-75700000D03*
X127250000Y-69500000D03*
%TO.N,/OpenBCI_ESP_DEVKIT/SDMOSI*%
X113299996Y-78300000D03*
X137600000Y-86500000D03*
%TO.N,/OpenBCI_ESP_DEVKIT/SCL*%
X136922280Y-79977720D03*
X136922280Y-84000000D03*
%TO.N,/OpenBCI_ESP_DEVKIT/ADSCLK*%
X122300000Y-68025000D03*
%TO.N,+3V3*%
X137800000Y-76800000D03*
X139600000Y-81500000D03*
X134500000Y-81600000D03*
X117100000Y-80700000D03*
%TO.N,/OpenBCI_ESP_DEVKIT/SDCD*%
X127600000Y-72100000D03*
%TD*%
D15*
%TO.N,GND*%
X137800000Y-79200000D02*
X135600000Y-77000000D01*
X128000000Y-77100000D02*
X135500000Y-77100000D01*
X137800000Y-80600000D02*
X137800000Y-79200000D01*
X135500000Y-77100000D02*
X135600000Y-77000000D01*
D16*
%TO.N,+5V*%
X103373600Y-63500000D02*
X121200000Y-63500000D01*
X103177280Y-65303680D02*
X103177280Y-63696320D01*
X122100000Y-62600000D02*
X122100000Y-60825000D01*
X103177280Y-63696320D02*
X103373600Y-63500000D01*
X121200000Y-63500000D02*
X122100000Y-62600000D01*
D17*
%TO.N,Net-(C34-Pad1)*%
X126229121Y-71900000D02*
X122200000Y-71900000D01*
X129850000Y-68279121D02*
X126229121Y-71900000D01*
X129850000Y-67300000D02*
X129850000Y-68279121D01*
D15*
%TO.N,/OpenBCI_ESP_DEVKIT/INT1*%
X140250000Y-77350000D02*
X141900000Y-75700000D01*
X123097280Y-65347280D02*
X123097280Y-65303680D01*
X127250000Y-69500000D02*
X123097280Y-65347280D01*
X140250000Y-79498500D02*
X140250000Y-77350000D01*
X140251500Y-79500000D02*
X140250000Y-79498500D01*
%TO.N,/OpenBCI_ESP_DEVKIT/SDMOSI*%
X135300000Y-84200000D02*
X119526998Y-84200000D01*
X137600000Y-86500000D02*
X135300000Y-84200000D01*
X119526998Y-84200000D02*
X113626998Y-78300000D01*
X113626998Y-78300000D02*
X113299996Y-78300000D01*
X113399996Y-78200000D02*
X113299996Y-78300000D01*
%TO.N,/OpenBCI_ESP_DEVKIT/SCL*%
X136922280Y-84000000D02*
X136922280Y-79977720D01*
%TO.N,/OpenBCI_ESP_DEVKIT/ADSCS2*%
X123410949Y-88250011D02*
X137813579Y-88250011D01*
X137813579Y-88250011D02*
X145228589Y-80835001D01*
X147024999Y-80835001D02*
X148200000Y-79660000D01*
X145228589Y-80835001D02*
X147024999Y-80835001D01*
X120957280Y-90703680D02*
X123410949Y-88250011D01*
%TO.N,/OpenBCI_ESP_DEVKIT/ADSRST*%
X137999978Y-88700022D02*
X143135001Y-83564999D01*
X143135001Y-83564999D02*
X146835001Y-83564999D01*
X123497280Y-90703680D02*
X125500938Y-88700022D01*
X146835001Y-83564999D02*
X148200000Y-82200000D01*
X125500938Y-88700022D02*
X137999978Y-88700022D01*
%TO.N,/OpenBCI_ESP_DEVKIT/ADSCS1*%
X113700960Y-87800000D02*
X137520000Y-87800000D01*
X110797280Y-90703680D02*
X113700960Y-87800000D01*
X137520000Y-87800000D02*
X145660000Y-79660000D01*
%TO.N,/OpenBCI_ESP_DEVKIT/ADSCLK*%
X122300000Y-68025000D02*
X122300000Y-66646400D01*
X122300000Y-66646400D02*
X120957280Y-65303680D01*
%TO.N,+3V3*%
X139600000Y-81500000D02*
X139600000Y-78600000D01*
X134500000Y-82750000D02*
X134500000Y-81600000D01*
X120223480Y-83823480D02*
X133426520Y-83823480D01*
D17*
X138360000Y-76800000D02*
X145660000Y-69500000D01*
D15*
X133426520Y-83823480D02*
X134500000Y-82750000D01*
D16*
X148200000Y-69500000D02*
X145660000Y-69500000D01*
D17*
X137800000Y-76800000D02*
X138360000Y-76800000D01*
D15*
X139600000Y-78600000D02*
X137800000Y-76800000D01*
X117100000Y-80700000D02*
X120223480Y-83823480D01*
%TO.N,/OpenBCI_ESP_DEVKIT/SDCD*%
X127600000Y-71900000D02*
X133657280Y-65842720D01*
X127600000Y-72100000D02*
X127600000Y-71900000D01*
X133657280Y-65842720D02*
X133657280Y-65303680D01*
%TD*%
%TA.AperFunction,Conductor*%
%TO.N,GND*%
G36*
X109848562Y-50528002D02*
G01*
X109895055Y-50581658D01*
X109905159Y-50651932D01*
X109875665Y-50716512D01*
X109856006Y-50734826D01*
X109823568Y-50759137D01*
X109786739Y-50786739D01*
X109699385Y-50903295D01*
X109648255Y-51039684D01*
X109641500Y-51101866D01*
X109641500Y-52898134D01*
X109648255Y-52960316D01*
X109699385Y-53096705D01*
X109786739Y-53213261D01*
X109903295Y-53300615D01*
X109911704Y-53303767D01*
X109911705Y-53303768D01*
X110020960Y-53344726D01*
X110077725Y-53387367D01*
X110102425Y-53453929D01*
X110087218Y-53523278D01*
X110067825Y-53549759D01*
X109944590Y-53678717D01*
X109938104Y-53686727D01*
X109818098Y-53862649D01*
X109813000Y-53871623D01*
X109723338Y-54064783D01*
X109719775Y-54074470D01*
X109664389Y-54274183D01*
X109665912Y-54282607D01*
X109678292Y-54286000D01*
X117398344Y-54286000D01*
X117411875Y-54282027D01*
X117413180Y-54272947D01*
X117371214Y-54105875D01*
X117367894Y-54096124D01*
X117344481Y-54042277D01*
X144137009Y-54042277D01*
X144162625Y-54310769D01*
X144163710Y-54315203D01*
X144163711Y-54315209D01*
X144225645Y-54568312D01*
X144226731Y-54572750D01*
X144327985Y-54822733D01*
X144464265Y-55055482D01*
X144467118Y-55059049D01*
X144584686Y-55206060D01*
X144632716Y-55266119D01*
X144829809Y-55450234D01*
X145051416Y-55603968D01*
X145055499Y-55605999D01*
X145055502Y-55606001D01*
X145171013Y-55663466D01*
X145292894Y-55724101D01*
X145297228Y-55725522D01*
X145297231Y-55725523D01*
X145544853Y-55806698D01*
X145544859Y-55806699D01*
X145549186Y-55808118D01*
X145553677Y-55808898D01*
X145553678Y-55808898D01*
X145811140Y-55853601D01*
X145811148Y-55853602D01*
X145814921Y-55854257D01*
X145818758Y-55854448D01*
X145898578Y-55858422D01*
X145898586Y-55858422D01*
X145900149Y-55858500D01*
X146068512Y-55858500D01*
X146070780Y-55858335D01*
X146070792Y-55858335D01*
X146201884Y-55848823D01*
X146269004Y-55843953D01*
X146273459Y-55842969D01*
X146273462Y-55842969D01*
X146527912Y-55786791D01*
X146527916Y-55786790D01*
X146532372Y-55785806D01*
X146658480Y-55738028D01*
X146780318Y-55691868D01*
X146780321Y-55691867D01*
X146784588Y-55690250D01*
X146976249Y-55583792D01*
X147016375Y-55561504D01*
X147016376Y-55561503D01*
X147020368Y-55559286D01*
X147234773Y-55395657D01*
X147423312Y-55202792D01*
X147582034Y-54984730D01*
X147667210Y-54822837D01*
X147705490Y-54750079D01*
X147705493Y-54750073D01*
X147707615Y-54746039D01*
X147770378Y-54568312D01*
X147795902Y-54496033D01*
X147795902Y-54496032D01*
X147797425Y-54491720D01*
X147849581Y-54227100D01*
X147855616Y-54105875D01*
X147862764Y-53962292D01*
X147862764Y-53962286D01*
X147862991Y-53957723D01*
X147837375Y-53689231D01*
X147834803Y-53678717D01*
X147774355Y-53431688D01*
X147773269Y-53427250D01*
X147672015Y-53177267D01*
X147556149Y-52979382D01*
X147538045Y-52948463D01*
X147538044Y-52948462D01*
X147535735Y-52944518D01*
X147417928Y-52797208D01*
X147370136Y-52737447D01*
X147370135Y-52737445D01*
X147367284Y-52733881D01*
X147170191Y-52549766D01*
X146948584Y-52396032D01*
X146944501Y-52394001D01*
X146944498Y-52393999D01*
X146779606Y-52311967D01*
X146707106Y-52275899D01*
X146702772Y-52274478D01*
X146702769Y-52274477D01*
X146455147Y-52193302D01*
X146455141Y-52193301D01*
X146450814Y-52191882D01*
X146446322Y-52191102D01*
X146188860Y-52146399D01*
X146188852Y-52146398D01*
X146185079Y-52145743D01*
X146173817Y-52145182D01*
X146101422Y-52141578D01*
X146101414Y-52141578D01*
X146099851Y-52141500D01*
X145931488Y-52141500D01*
X145929220Y-52141665D01*
X145929208Y-52141665D01*
X145798116Y-52151177D01*
X145730996Y-52156047D01*
X145726541Y-52157031D01*
X145726538Y-52157031D01*
X145472088Y-52213209D01*
X145472084Y-52213210D01*
X145467628Y-52214194D01*
X145382046Y-52246618D01*
X145219682Y-52308132D01*
X145219679Y-52308133D01*
X145215412Y-52309750D01*
X144979632Y-52440714D01*
X144765227Y-52604343D01*
X144762034Y-52607609D01*
X144762032Y-52607611D01*
X144734447Y-52635829D01*
X144576688Y-52797208D01*
X144417966Y-53015270D01*
X144380239Y-53086978D01*
X144294510Y-53249921D01*
X144294507Y-53249927D01*
X144292385Y-53253961D01*
X144290865Y-53258266D01*
X144290863Y-53258270D01*
X144221768Y-53453929D01*
X144202575Y-53508280D01*
X144196281Y-53540215D01*
X144162240Y-53712926D01*
X144150419Y-53772900D01*
X144150192Y-53777453D01*
X144150192Y-53777456D01*
X144140991Y-53962292D01*
X144137009Y-54042277D01*
X117344481Y-54042277D01*
X117282972Y-53900814D01*
X117278105Y-53891739D01*
X117162426Y-53712926D01*
X117156136Y-53704757D01*
X117012806Y-53547240D01*
X117005273Y-53540215D01*
X116838139Y-53408222D01*
X116829556Y-53402520D01*
X116792602Y-53382120D01*
X116742631Y-53331687D01*
X116727859Y-53262245D01*
X116752975Y-53195839D01*
X116780327Y-53169232D01*
X116825030Y-53137346D01*
X116959860Y-53041173D01*
X116971753Y-53029322D01*
X117103616Y-52897918D01*
X117118096Y-52883489D01*
X117248453Y-52702077D01*
X117269320Y-52659857D01*
X117345136Y-52506453D01*
X117345137Y-52506451D01*
X117347430Y-52501811D01*
X117394446Y-52347064D01*
X121637707Y-52347064D01*
X121666825Y-52539599D01*
X121669028Y-52545585D01*
X121669029Y-52545591D01*
X121731860Y-52716360D01*
X121731862Y-52716365D01*
X121734063Y-52722346D01*
X121836674Y-52887840D01*
X121841055Y-52892473D01*
X121841056Y-52892474D01*
X121966081Y-53024685D01*
X121970466Y-53029322D01*
X121975696Y-53032984D01*
X121975697Y-53032985D01*
X122052808Y-53086978D01*
X122129975Y-53141011D01*
X122135838Y-53143548D01*
X122302825Y-53215810D01*
X122302829Y-53215811D01*
X122308684Y-53218345D01*
X122314931Y-53219650D01*
X122314934Y-53219651D01*
X122494557Y-53257176D01*
X122494562Y-53257177D01*
X122499293Y-53258165D01*
X122505685Y-53258500D01*
X122648663Y-53258500D01*
X122733122Y-53249921D01*
X122787378Y-53244410D01*
X122787379Y-53244410D01*
X122793727Y-53243765D01*
X122870676Y-53219651D01*
X122973451Y-53187444D01*
X122973456Y-53187442D01*
X122979541Y-53185535D01*
X123066475Y-53137346D01*
X123144271Y-53094223D01*
X123144274Y-53094221D01*
X123149850Y-53091130D01*
X123154691Y-53086981D01*
X123154695Y-53086978D01*
X123292855Y-52968560D01*
X123297698Y-52964409D01*
X123417046Y-52810547D01*
X123421794Y-52800899D01*
X123500200Y-52641556D01*
X123503018Y-52635829D01*
X123526114Y-52547162D01*
X123550492Y-52453575D01*
X123550492Y-52453572D01*
X123552102Y-52447393D01*
X123557360Y-52347064D01*
X128437707Y-52347064D01*
X128466825Y-52539599D01*
X128469028Y-52545585D01*
X128469029Y-52545591D01*
X128531860Y-52716360D01*
X128531862Y-52716365D01*
X128534063Y-52722346D01*
X128636674Y-52887840D01*
X128641055Y-52892473D01*
X128641056Y-52892474D01*
X128766081Y-53024685D01*
X128770466Y-53029322D01*
X128775696Y-53032984D01*
X128775697Y-53032985D01*
X128852808Y-53086978D01*
X128929975Y-53141011D01*
X128935838Y-53143548D01*
X129102825Y-53215810D01*
X129102829Y-53215811D01*
X129108684Y-53218345D01*
X129114931Y-53219650D01*
X129114934Y-53219651D01*
X129294557Y-53257176D01*
X129294562Y-53257177D01*
X129299293Y-53258165D01*
X129305685Y-53258500D01*
X129448663Y-53258500D01*
X129533122Y-53249921D01*
X129587378Y-53244410D01*
X129587379Y-53244410D01*
X129593727Y-53243765D01*
X129670676Y-53219651D01*
X129773451Y-53187444D01*
X129773456Y-53187442D01*
X129779541Y-53185535D01*
X129866475Y-53137346D01*
X129944271Y-53094223D01*
X129944274Y-53094221D01*
X129949850Y-53091130D01*
X129954691Y-53086981D01*
X129954695Y-53086978D01*
X130092855Y-52968560D01*
X130097698Y-52964409D01*
X130217046Y-52810547D01*
X130221794Y-52800899D01*
X130300200Y-52641556D01*
X130303018Y-52635829D01*
X130326114Y-52547162D01*
X130350492Y-52453575D01*
X130350492Y-52453572D01*
X130352102Y-52447393D01*
X130357694Y-52340683D01*
X130361959Y-52259317D01*
X130361959Y-52259313D01*
X130362293Y-52252936D01*
X130333175Y-52060401D01*
X130330972Y-52054415D01*
X130330971Y-52054409D01*
X130268140Y-51883640D01*
X130268138Y-51883635D01*
X130265937Y-51877654D01*
X130206952Y-51782522D01*
X130166688Y-51717582D01*
X130166687Y-51717581D01*
X130163326Y-51712160D01*
X130029534Y-51570678D01*
X130022454Y-51565720D01*
X129875259Y-51462654D01*
X129870025Y-51458989D01*
X129822013Y-51438212D01*
X129697175Y-51384190D01*
X129697171Y-51384189D01*
X129691316Y-51381655D01*
X129685069Y-51380350D01*
X129685066Y-51380349D01*
X129505443Y-51342824D01*
X129505438Y-51342823D01*
X129500707Y-51341835D01*
X129494315Y-51341500D01*
X129351337Y-51341500D01*
X129282049Y-51348538D01*
X129212622Y-51355590D01*
X129212621Y-51355590D01*
X129206273Y-51356235D01*
X129149939Y-51373889D01*
X129026549Y-51412556D01*
X129026544Y-51412558D01*
X129020459Y-51414465D01*
X128944713Y-51456452D01*
X128855729Y-51505777D01*
X128855726Y-51505779D01*
X128850150Y-51508870D01*
X128845309Y-51513019D01*
X128845305Y-51513022D01*
X128782311Y-51567015D01*
X128702302Y-51635591D01*
X128582954Y-51789453D01*
X128580138Y-51795176D01*
X128580136Y-51795179D01*
X128536608Y-51883640D01*
X128496982Y-51964171D01*
X128495373Y-51970349D01*
X128495372Y-51970351D01*
X128449736Y-52145552D01*
X128447898Y-52152607D01*
X128447564Y-52158986D01*
X128439663Y-52309750D01*
X128437707Y-52347064D01*
X123557360Y-52347064D01*
X123557694Y-52340683D01*
X123561959Y-52259317D01*
X123561959Y-52259313D01*
X123562293Y-52252936D01*
X123533175Y-52060401D01*
X123530972Y-52054415D01*
X123530971Y-52054409D01*
X123468140Y-51883640D01*
X123468138Y-51883635D01*
X123465937Y-51877654D01*
X123406952Y-51782522D01*
X123366688Y-51717582D01*
X123366687Y-51717581D01*
X123363326Y-51712160D01*
X123229534Y-51570678D01*
X123222454Y-51565720D01*
X123075259Y-51462654D01*
X123070025Y-51458989D01*
X123022013Y-51438212D01*
X122897175Y-51384190D01*
X122897171Y-51384189D01*
X122891316Y-51381655D01*
X122885069Y-51380350D01*
X122885066Y-51380349D01*
X122705443Y-51342824D01*
X122705438Y-51342823D01*
X122700707Y-51341835D01*
X122694315Y-51341500D01*
X122551337Y-51341500D01*
X122482049Y-51348538D01*
X122412622Y-51355590D01*
X122412621Y-51355590D01*
X122406273Y-51356235D01*
X122349939Y-51373889D01*
X122226549Y-51412556D01*
X122226544Y-51412558D01*
X122220459Y-51414465D01*
X122144713Y-51456452D01*
X122055729Y-51505777D01*
X122055726Y-51505779D01*
X122050150Y-51508870D01*
X122045309Y-51513019D01*
X122045305Y-51513022D01*
X121982311Y-51567015D01*
X121902302Y-51635591D01*
X121782954Y-51789453D01*
X121780138Y-51795176D01*
X121780136Y-51795179D01*
X121736608Y-51883640D01*
X121696982Y-51964171D01*
X121695373Y-51970349D01*
X121695372Y-51970351D01*
X121649736Y-52145552D01*
X121647898Y-52152607D01*
X121647564Y-52158986D01*
X121639663Y-52309750D01*
X121637707Y-52347064D01*
X117394446Y-52347064D01*
X117412370Y-52288069D01*
X117441529Y-52066590D01*
X117443156Y-52000000D01*
X117424852Y-51777361D01*
X117370431Y-51560702D01*
X117281354Y-51355840D01*
X117160014Y-51168277D01*
X117009670Y-51003051D01*
X117005619Y-50999852D01*
X117005615Y-50999848D01*
X116838414Y-50867800D01*
X116838410Y-50867798D01*
X116834359Y-50864598D01*
X116638789Y-50756638D01*
X116633919Y-50754913D01*
X116633909Y-50754909D01*
X116627874Y-50752772D01*
X116570338Y-50711178D01*
X116544423Y-50645080D01*
X116558358Y-50575464D01*
X116607717Y-50524433D01*
X116669935Y-50508000D01*
X149366000Y-50508000D01*
X149434121Y-50528002D01*
X149480614Y-50581658D01*
X149492000Y-50634000D01*
X149492000Y-64023018D01*
X149471998Y-64091139D01*
X149418342Y-64137632D01*
X149348068Y-64147736D01*
X149283422Y-64118184D01*
X149143917Y-63997128D01*
X149138731Y-63994128D01*
X149138727Y-63994125D01*
X148966022Y-63894213D01*
X148960826Y-63891207D01*
X148761009Y-63821819D01*
X148755074Y-63820958D01*
X148755072Y-63820958D01*
X148557616Y-63792328D01*
X148557613Y-63792328D01*
X148551676Y-63791467D01*
X148340381Y-63801247D01*
X148209203Y-63832861D01*
X148140579Y-63849399D01*
X148140577Y-63849400D01*
X148134746Y-63850805D01*
X148129288Y-63853287D01*
X148129284Y-63853288D01*
X148039225Y-63894236D01*
X147942193Y-63938354D01*
X147769669Y-64060734D01*
X147623399Y-64213530D01*
X147508660Y-64391228D01*
X147506417Y-64396794D01*
X147438073Y-64566379D01*
X147429594Y-64587417D01*
X147389052Y-64795017D01*
X147388780Y-64800579D01*
X147388780Y-65756526D01*
X147403828Y-65914246D01*
X147463372Y-66117214D01*
X147466114Y-66122537D01*
X147466116Y-66122542D01*
X147552952Y-66291144D01*
X147560222Y-66305260D01*
X147690884Y-66471600D01*
X147695415Y-66475532D01*
X147695418Y-66475535D01*
X147781338Y-66550092D01*
X147850643Y-66610232D01*
X147855829Y-66613232D01*
X147855833Y-66613235D01*
X148017945Y-66707019D01*
X148033734Y-66716153D01*
X148233551Y-66785541D01*
X148239486Y-66786402D01*
X148239488Y-66786402D01*
X148436944Y-66815032D01*
X148436947Y-66815032D01*
X148442884Y-66815893D01*
X148654179Y-66806113D01*
X148794847Y-66772212D01*
X148853981Y-66757961D01*
X148853983Y-66757960D01*
X148859814Y-66756555D01*
X148865272Y-66754073D01*
X148865276Y-66754072D01*
X149012050Y-66687337D01*
X149052367Y-66669006D01*
X149224891Y-66546626D01*
X149229033Y-66542299D01*
X149229039Y-66542294D01*
X149274982Y-66494301D01*
X149336537Y-66458924D01*
X149407446Y-66462443D01*
X149465197Y-66503739D01*
X149491453Y-66569702D01*
X149492000Y-66581431D01*
X149492000Y-68095126D01*
X149471998Y-68163247D01*
X149418342Y-68209740D01*
X149348068Y-68219844D01*
X149305491Y-68205646D01*
X149303888Y-68204768D01*
X149296705Y-68199385D01*
X149288304Y-68196236D01*
X149288301Y-68196234D01*
X149200307Y-68163247D01*
X149160316Y-68148255D01*
X149098134Y-68141500D01*
X147301866Y-68141500D01*
X147239684Y-68148255D01*
X147103295Y-68199385D01*
X146986739Y-68286739D01*
X146899385Y-68403295D01*
X146896233Y-68411704D01*
X146891923Y-68419575D01*
X146890259Y-68418664D01*
X146854337Y-68466490D01*
X146787776Y-68491193D01*
X146778991Y-68491500D01*
X146618799Y-68491500D01*
X146550678Y-68471498D01*
X146540707Y-68464382D01*
X146418414Y-68367800D01*
X146418410Y-68367798D01*
X146414359Y-68364598D01*
X146218789Y-68256638D01*
X146213920Y-68254914D01*
X146213916Y-68254912D01*
X146013087Y-68183795D01*
X146013083Y-68183794D01*
X146008212Y-68182069D01*
X146003119Y-68181162D01*
X146003116Y-68181161D01*
X145793373Y-68143800D01*
X145793367Y-68143799D01*
X145788284Y-68142894D01*
X145714452Y-68141992D01*
X145570081Y-68140228D01*
X145570079Y-68140228D01*
X145564911Y-68140165D01*
X145344091Y-68173955D01*
X145131756Y-68243357D01*
X144933607Y-68346507D01*
X144929474Y-68349610D01*
X144929471Y-68349612D01*
X144836289Y-68419575D01*
X144754965Y-68480635D01*
X144600629Y-68642138D01*
X144474743Y-68826680D01*
X144380688Y-69029305D01*
X144320989Y-69244570D01*
X144297251Y-69466695D01*
X144310110Y-69689715D01*
X144311247Y-69694760D01*
X144311966Y-69699877D01*
X144310518Y-69700081D01*
X144306398Y-69764274D01*
X144277119Y-69810200D01*
X138191547Y-75895772D01*
X138129235Y-75929798D01*
X138076257Y-75929924D01*
X138001920Y-75914123D01*
X137901944Y-75892872D01*
X137901939Y-75892872D01*
X137895487Y-75891500D01*
X137704513Y-75891500D01*
X137698061Y-75892872D01*
X137698056Y-75892872D01*
X137611113Y-75911353D01*
X137517712Y-75931206D01*
X137511682Y-75933891D01*
X137511681Y-75933891D01*
X137349278Y-76006197D01*
X137349276Y-76006198D01*
X137343248Y-76008882D01*
X137188747Y-76121134D01*
X137060960Y-76263056D01*
X136965473Y-76428444D01*
X136906458Y-76610072D01*
X136905768Y-76616633D01*
X136905768Y-76616635D01*
X136898378Y-76686948D01*
X136886496Y-76800000D01*
X136887186Y-76806565D01*
X136905586Y-76981628D01*
X136906458Y-76989928D01*
X136965473Y-77171556D01*
X137060960Y-77336944D01*
X137188747Y-77478866D01*
X137343248Y-77591118D01*
X137349276Y-77593802D01*
X137349278Y-77593803D01*
X137511681Y-77666109D01*
X137517712Y-77668794D01*
X137611112Y-77688647D01*
X137698056Y-77707128D01*
X137698061Y-77707128D01*
X137704513Y-77708500D01*
X137760406Y-77708500D01*
X137828527Y-77728502D01*
X137849501Y-77745405D01*
X138929595Y-78825499D01*
X138963621Y-78887811D01*
X138966500Y-78914594D01*
X138966500Y-80797476D01*
X138946498Y-80865597D01*
X138934142Y-80881779D01*
X138860960Y-80963056D01*
X138765473Y-81128444D01*
X138706458Y-81310072D01*
X138705768Y-81316633D01*
X138705768Y-81316635D01*
X138695948Y-81410072D01*
X138686496Y-81500000D01*
X138687186Y-81506565D01*
X138691310Y-81545798D01*
X138706458Y-81689928D01*
X138765473Y-81871556D01*
X138768776Y-81877278D01*
X138768777Y-81877279D01*
X138794265Y-81921425D01*
X138860960Y-82036944D01*
X138988747Y-82178866D01*
X139065187Y-82234403D01*
X139132481Y-82283295D01*
X139143248Y-82291118D01*
X139149276Y-82293802D01*
X139149278Y-82293803D01*
X139262203Y-82344080D01*
X139317712Y-82368794D01*
X139411113Y-82388647D01*
X139498056Y-82407128D01*
X139498061Y-82407128D01*
X139504513Y-82408500D01*
X139695487Y-82408500D01*
X139701939Y-82407128D01*
X139701944Y-82407128D01*
X139788887Y-82388647D01*
X139882288Y-82368794D01*
X139937797Y-82344080D01*
X140050722Y-82293803D01*
X140050724Y-82293802D01*
X140056752Y-82291118D01*
X140067520Y-82283295D01*
X140134813Y-82234403D01*
X140211253Y-82178866D01*
X140339040Y-82036944D01*
X140405735Y-81921425D01*
X140431223Y-81877279D01*
X140431224Y-81877278D01*
X140434527Y-81871556D01*
X140493542Y-81689928D01*
X140508691Y-81545798D01*
X140512814Y-81506565D01*
X140513504Y-81500000D01*
X140504052Y-81410072D01*
X140494232Y-81316635D01*
X140494232Y-81316633D01*
X140493542Y-81310072D01*
X140434527Y-81128444D01*
X140339040Y-80963056D01*
X140265863Y-80881785D01*
X140235147Y-80817779D01*
X140233500Y-80797476D01*
X140233500Y-80533185D01*
X140253502Y-80465064D01*
X140307158Y-80418571D01*
X140344043Y-80408500D01*
X140346987Y-80408500D01*
X140353440Y-80407128D01*
X140353443Y-80407128D01*
X140416013Y-80393828D01*
X140533788Y-80368794D01*
X140548875Y-80362077D01*
X140702222Y-80293803D01*
X140702224Y-80293802D01*
X140708252Y-80291118D01*
X140862753Y-80178866D01*
X140962109Y-80068520D01*
X140986121Y-80041852D01*
X140986122Y-80041851D01*
X140990540Y-80036944D01*
X141086027Y-79871556D01*
X141145042Y-79689928D01*
X141152228Y-79621562D01*
X141164314Y-79506565D01*
X141165004Y-79500000D01*
X141154974Y-79404570D01*
X141145732Y-79316635D01*
X141145732Y-79316633D01*
X141145042Y-79310072D01*
X141086027Y-79128444D01*
X141076309Y-79111611D01*
X141019255Y-79012792D01*
X140990540Y-78963056D01*
X140915863Y-78880119D01*
X140885147Y-78816113D01*
X140883500Y-78795810D01*
X140883500Y-77664594D01*
X140903502Y-77596473D01*
X140920405Y-77575499D01*
X141850499Y-76645405D01*
X141912811Y-76611379D01*
X141939594Y-76608500D01*
X141995487Y-76608500D01*
X142001939Y-76607128D01*
X142001944Y-76607128D01*
X142088888Y-76588647D01*
X142182288Y-76568794D01*
X142188319Y-76566109D01*
X142350722Y-76493803D01*
X142350724Y-76493802D01*
X142356752Y-76491118D01*
X142381976Y-76472792D01*
X142458692Y-76417054D01*
X142511253Y-76378866D01*
X142515675Y-76373955D01*
X142634621Y-76241852D01*
X142634622Y-76241851D01*
X142639040Y-76236944D01*
X142734527Y-76071556D01*
X142793542Y-75889928D01*
X142797826Y-75849174D01*
X142812814Y-75706565D01*
X142813504Y-75700000D01*
X142804836Y-75617529D01*
X142794232Y-75516635D01*
X142794232Y-75516633D01*
X142793542Y-75510072D01*
X142734527Y-75328444D01*
X142639040Y-75163056D01*
X142511253Y-75021134D01*
X142356752Y-74908882D01*
X142350724Y-74906198D01*
X142350722Y-74906197D01*
X142188319Y-74833891D01*
X142188318Y-74833891D01*
X142182288Y-74831206D01*
X142088888Y-74811353D01*
X142001944Y-74792872D01*
X142001939Y-74792872D01*
X141995487Y-74791500D01*
X141804513Y-74791500D01*
X141798061Y-74792872D01*
X141798056Y-74792872D01*
X141759179Y-74801136D01*
X141688388Y-74795734D01*
X141631755Y-74752917D01*
X141607262Y-74686279D01*
X141622683Y-74616978D01*
X141643887Y-74588794D01*
X144094656Y-72138025D01*
X144156968Y-72103999D01*
X144227783Y-72109064D01*
X144284619Y-72151611D01*
X144309542Y-72219865D01*
X144310110Y-72229715D01*
X144311247Y-72234761D01*
X144311248Y-72234767D01*
X144335304Y-72341508D01*
X144359222Y-72447639D01*
X144443266Y-72654616D01*
X144494942Y-72738944D01*
X144557291Y-72840688D01*
X144559987Y-72845088D01*
X144706250Y-73013938D01*
X144878126Y-73156632D01*
X144928813Y-73186251D01*
X144951445Y-73199476D01*
X145000169Y-73251114D01*
X145013240Y-73320897D01*
X144986509Y-73386669D01*
X144946055Y-73420027D01*
X144933607Y-73426507D01*
X144929474Y-73429610D01*
X144929471Y-73429612D01*
X144905247Y-73447800D01*
X144754965Y-73560635D01*
X144600629Y-73722138D01*
X144474743Y-73906680D01*
X144380688Y-74109305D01*
X144320989Y-74324570D01*
X144297251Y-74546695D01*
X144310110Y-74769715D01*
X144311247Y-74774761D01*
X144311248Y-74774767D01*
X144323968Y-74831206D01*
X144359222Y-74987639D01*
X144443266Y-75194616D01*
X144494942Y-75278944D01*
X144557291Y-75380688D01*
X144559987Y-75385088D01*
X144706250Y-75553938D01*
X144878126Y-75696632D01*
X144911142Y-75715925D01*
X144951445Y-75739476D01*
X145000169Y-75791114D01*
X145013240Y-75860897D01*
X144986509Y-75926669D01*
X144946055Y-75960027D01*
X144933607Y-75966507D01*
X144929474Y-75969610D01*
X144929471Y-75969612D01*
X144786072Y-76077279D01*
X144754965Y-76100635D01*
X144600629Y-76262138D01*
X144474743Y-76446680D01*
X144427716Y-76547992D01*
X144398293Y-76611379D01*
X144380688Y-76649305D01*
X144320989Y-76864570D01*
X144297251Y-77086695D01*
X144297548Y-77091848D01*
X144297548Y-77091851D01*
X144308986Y-77290224D01*
X144310110Y-77309715D01*
X144311247Y-77314761D01*
X144311248Y-77314767D01*
X144334154Y-77416405D01*
X144359222Y-77527639D01*
X144443266Y-77734616D01*
X144494942Y-77818944D01*
X144557291Y-77920688D01*
X144559987Y-77925088D01*
X144706250Y-78093938D01*
X144878126Y-78236632D01*
X144948595Y-78277811D01*
X144951445Y-78279476D01*
X145000169Y-78331114D01*
X145013240Y-78400897D01*
X144986509Y-78466669D01*
X144946055Y-78500027D01*
X144933607Y-78506507D01*
X144929474Y-78509610D01*
X144929471Y-78509612D01*
X144905247Y-78527800D01*
X144754965Y-78640635D01*
X144600629Y-78802138D01*
X144597720Y-78806403D01*
X144597714Y-78806411D01*
X144579838Y-78832617D01*
X144474743Y-78986680D01*
X144436429Y-79069220D01*
X144385039Y-79179932D01*
X144380688Y-79189305D01*
X144320989Y-79404570D01*
X144297251Y-79626695D01*
X144297548Y-79631848D01*
X144297548Y-79631851D01*
X144306918Y-79794355D01*
X144310110Y-79849715D01*
X144311247Y-79854761D01*
X144311248Y-79854767D01*
X144343453Y-79997668D01*
X144338917Y-80068520D01*
X144309631Y-80114464D01*
X138490729Y-85933366D01*
X138428417Y-85967392D01*
X138357602Y-85962327D01*
X138308001Y-85928584D01*
X138211253Y-85821134D01*
X138056752Y-85708882D01*
X138050724Y-85706198D01*
X138050722Y-85706197D01*
X137888319Y-85633891D01*
X137888318Y-85633891D01*
X137882288Y-85631206D01*
X137788887Y-85611353D01*
X137701944Y-85592872D01*
X137701939Y-85592872D01*
X137695487Y-85591500D01*
X137639595Y-85591500D01*
X137571474Y-85571498D01*
X137550500Y-85554595D01*
X137088370Y-85092465D01*
X137054344Y-85030153D01*
X137059409Y-84959338D01*
X137101956Y-84902502D01*
X137151269Y-84880123D01*
X137164221Y-84877370D01*
X137198110Y-84870167D01*
X137198113Y-84870166D01*
X137204568Y-84868794D01*
X137273239Y-84838220D01*
X137373002Y-84793803D01*
X137373004Y-84793802D01*
X137379032Y-84791118D01*
X137533533Y-84678866D01*
X137553763Y-84656398D01*
X137656901Y-84541852D01*
X137656902Y-84541851D01*
X137661320Y-84536944D01*
X137756807Y-84371556D01*
X137815822Y-84189928D01*
X137835784Y-84000000D01*
X137815822Y-83810072D01*
X137756807Y-83628444D01*
X137743040Y-83604598D01*
X137700758Y-83531364D01*
X137661320Y-83463056D01*
X137588143Y-83381785D01*
X137557427Y-83317779D01*
X137555780Y-83297476D01*
X137555780Y-80680244D01*
X137575782Y-80612123D01*
X137588138Y-80595941D01*
X137661320Y-80514664D01*
X137745538Y-80368794D01*
X137753503Y-80354999D01*
X137753504Y-80354998D01*
X137756807Y-80349276D01*
X137815822Y-80167648D01*
X137816821Y-80158148D01*
X137835094Y-79984285D01*
X137835784Y-79977720D01*
X137815822Y-79787792D01*
X137756807Y-79606164D01*
X137661320Y-79440776D01*
X137633346Y-79409707D01*
X137537955Y-79303765D01*
X137537954Y-79303764D01*
X137533533Y-79298854D01*
X137379032Y-79186602D01*
X137373004Y-79183918D01*
X137373002Y-79183917D01*
X137210599Y-79111611D01*
X137210598Y-79111611D01*
X137204568Y-79108926D01*
X137102530Y-79087237D01*
X137024224Y-79070592D01*
X137024219Y-79070592D01*
X137017767Y-79069220D01*
X136826793Y-79069220D01*
X136820341Y-79070592D01*
X136820336Y-79070592D01*
X136742030Y-79087237D01*
X136639992Y-79108926D01*
X136633962Y-79111611D01*
X136633961Y-79111611D01*
X136471558Y-79183917D01*
X136471556Y-79183918D01*
X136465528Y-79186602D01*
X136311027Y-79298854D01*
X136306606Y-79303764D01*
X136306605Y-79303765D01*
X136211215Y-79409707D01*
X136183240Y-79440776D01*
X136087753Y-79606164D01*
X136028738Y-79787792D01*
X136008776Y-79977720D01*
X136009466Y-79984285D01*
X136027740Y-80158148D01*
X136028738Y-80167648D01*
X136087753Y-80349276D01*
X136091056Y-80354998D01*
X136091057Y-80354999D01*
X136099022Y-80368794D01*
X136183240Y-80514664D01*
X136256417Y-80595935D01*
X136287133Y-80659941D01*
X136288780Y-80680244D01*
X136288780Y-83297476D01*
X136268778Y-83365597D01*
X136256422Y-83381779D01*
X136183240Y-83463056D01*
X136143802Y-83531364D01*
X136101521Y-83604598D01*
X136087753Y-83628444D01*
X136037646Y-83782657D01*
X135997574Y-83841261D01*
X135932177Y-83868898D01*
X135862220Y-83856791D01*
X135828719Y-83832814D01*
X135803652Y-83807747D01*
X135796112Y-83799461D01*
X135792000Y-83792982D01*
X135742348Y-83746356D01*
X135739507Y-83743602D01*
X135719770Y-83723865D01*
X135716573Y-83721385D01*
X135707551Y-83713680D01*
X135681100Y-83688841D01*
X135675321Y-83683414D01*
X135668375Y-83679595D01*
X135668372Y-83679593D01*
X135657566Y-83673652D01*
X135641047Y-83662801D01*
X135640583Y-83662441D01*
X135625041Y-83650386D01*
X135617772Y-83647241D01*
X135617768Y-83647238D01*
X135584463Y-83632826D01*
X135573813Y-83627609D01*
X135535060Y-83606305D01*
X135515437Y-83601267D01*
X135496734Y-83594863D01*
X135485420Y-83589967D01*
X135485419Y-83589967D01*
X135478145Y-83586819D01*
X135470322Y-83585580D01*
X135470312Y-83585577D01*
X135434476Y-83579901D01*
X135422856Y-83577495D01*
X135387711Y-83568472D01*
X135387710Y-83568472D01*
X135380030Y-83566500D01*
X135359776Y-83566500D01*
X135340065Y-83564949D01*
X135327886Y-83563020D01*
X135320057Y-83561780D01*
X135312165Y-83562526D01*
X135276039Y-83565941D01*
X135264181Y-83566500D01*
X134883595Y-83566500D01*
X134815474Y-83546498D01*
X134768981Y-83492842D01*
X134758877Y-83422568D01*
X134788371Y-83357988D01*
X134794500Y-83351405D01*
X134892253Y-83253652D01*
X134900539Y-83246112D01*
X134907018Y-83242000D01*
X134953644Y-83192348D01*
X134956398Y-83189507D01*
X134976135Y-83169770D01*
X134978615Y-83166573D01*
X134986320Y-83157551D01*
X135011159Y-83131100D01*
X135016586Y-83125321D01*
X135020405Y-83118375D01*
X135020407Y-83118372D01*
X135026348Y-83107566D01*
X135037199Y-83091047D01*
X135044758Y-83081301D01*
X135049614Y-83075041D01*
X135052759Y-83067772D01*
X135052762Y-83067768D01*
X135067174Y-83034463D01*
X135072391Y-83023813D01*
X135093695Y-82985060D01*
X135098733Y-82965437D01*
X135105137Y-82946734D01*
X135110033Y-82935420D01*
X135110033Y-82935419D01*
X135113181Y-82928145D01*
X135114420Y-82920322D01*
X135114423Y-82920312D01*
X135120099Y-82884476D01*
X135122505Y-82872856D01*
X135131528Y-82837711D01*
X135131528Y-82837710D01*
X135133500Y-82830030D01*
X135133500Y-82809776D01*
X135135051Y-82790065D01*
X135136980Y-82777886D01*
X135138220Y-82770057D01*
X135134059Y-82726038D01*
X135133500Y-82714181D01*
X135133500Y-82302524D01*
X135153502Y-82234403D01*
X135165858Y-82218221D01*
X135239040Y-82136944D01*
X135334527Y-81971556D01*
X135393542Y-81789928D01*
X135399125Y-81736814D01*
X135412814Y-81606565D01*
X135413504Y-81600000D01*
X135402304Y-81493435D01*
X135394232Y-81416635D01*
X135394232Y-81416633D01*
X135393542Y-81410072D01*
X135334527Y-81228444D01*
X135239040Y-81063056D01*
X135219899Y-81041797D01*
X135115675Y-80926045D01*
X135115674Y-80926044D01*
X135111253Y-80921134D01*
X134956752Y-80808882D01*
X134950724Y-80806198D01*
X134950722Y-80806197D01*
X134788319Y-80733891D01*
X134788318Y-80733891D01*
X134782288Y-80731206D01*
X134688887Y-80711353D01*
X134601944Y-80692872D01*
X134601939Y-80692872D01*
X134595487Y-80691500D01*
X134404513Y-80691500D01*
X134398061Y-80692872D01*
X134398056Y-80692872D01*
X134311113Y-80711353D01*
X134217712Y-80731206D01*
X134211682Y-80733891D01*
X134211681Y-80733891D01*
X134049278Y-80806197D01*
X134049276Y-80806198D01*
X134043248Y-80808882D01*
X133888747Y-80921134D01*
X133884326Y-80926044D01*
X133884325Y-80926045D01*
X133780102Y-81041797D01*
X133760960Y-81063056D01*
X133665473Y-81228444D01*
X133606458Y-81410072D01*
X133605768Y-81416633D01*
X133605768Y-81416635D01*
X133597696Y-81493435D01*
X133586496Y-81600000D01*
X133587186Y-81606565D01*
X133600876Y-81736814D01*
X133606458Y-81789928D01*
X133665473Y-81971556D01*
X133760960Y-82136944D01*
X133834137Y-82218215D01*
X133864853Y-82282221D01*
X133866500Y-82302524D01*
X133866500Y-82435405D01*
X133846498Y-82503526D01*
X133829595Y-82524501D01*
X133201019Y-83153076D01*
X133138707Y-83187101D01*
X133111924Y-83189980D01*
X120538074Y-83189980D01*
X120469953Y-83169978D01*
X120448979Y-83153075D01*
X118047122Y-80751217D01*
X118013096Y-80688905D01*
X118010907Y-80675292D01*
X117994232Y-80516635D01*
X117994232Y-80516633D01*
X117993542Y-80510072D01*
X117934527Y-80328444D01*
X117839040Y-80163056D01*
X117753920Y-80068520D01*
X117715675Y-80026045D01*
X117715671Y-80026041D01*
X117711253Y-80021134D01*
X117556752Y-79908882D01*
X117550724Y-79906198D01*
X117550722Y-79906197D01*
X117388319Y-79833891D01*
X117388318Y-79833891D01*
X117382288Y-79831206D01*
X117288888Y-79811353D01*
X117201944Y-79792872D01*
X117201939Y-79792872D01*
X117195487Y-79791500D01*
X117004513Y-79791500D01*
X116998061Y-79792872D01*
X116998056Y-79792872D01*
X116911112Y-79811353D01*
X116817712Y-79831206D01*
X116811682Y-79833891D01*
X116811681Y-79833891D01*
X116649278Y-79906197D01*
X116649276Y-79906198D01*
X116643248Y-79908882D01*
X116488747Y-80021134D01*
X116461648Y-80051231D01*
X116401201Y-80088470D01*
X116330217Y-80087118D01*
X116278917Y-80056015D01*
X115238743Y-79015840D01*
X114130650Y-77907747D01*
X114123112Y-77899464D01*
X114118998Y-77892982D01*
X114113217Y-77887553D01*
X114112338Y-77886491D01*
X114100303Y-77869174D01*
X114039036Y-77763056D01*
X114007924Y-77728502D01*
X113915671Y-77626045D01*
X113915670Y-77626044D01*
X113911249Y-77621134D01*
X113756748Y-77508882D01*
X113750720Y-77506198D01*
X113750718Y-77506197D01*
X113588315Y-77433891D01*
X113588314Y-77433891D01*
X113582284Y-77431206D01*
X113488883Y-77411353D01*
X113401940Y-77392872D01*
X113401935Y-77392872D01*
X113395483Y-77391500D01*
X113204509Y-77391500D01*
X113198057Y-77392872D01*
X113198052Y-77392872D01*
X113111109Y-77411353D01*
X113017708Y-77431206D01*
X113011678Y-77433891D01*
X113011677Y-77433891D01*
X112849274Y-77506197D01*
X112849272Y-77506198D01*
X112843244Y-77508882D01*
X112688743Y-77621134D01*
X112684322Y-77626044D01*
X112684321Y-77626045D01*
X112592069Y-77728502D01*
X112560956Y-77763056D01*
X112465469Y-77928444D01*
X112406454Y-78110072D01*
X112405764Y-78116633D01*
X112405764Y-78116635D01*
X112393152Y-78236632D01*
X112386492Y-78300000D01*
X112387182Y-78306565D01*
X112397097Y-78400897D01*
X112406454Y-78489928D01*
X112465469Y-78671556D01*
X112560956Y-78836944D01*
X112688743Y-78978866D01*
X112843244Y-79091118D01*
X112849272Y-79093802D01*
X112849274Y-79093803D01*
X113011677Y-79166109D01*
X113017708Y-79168794D01*
X113101488Y-79186602D01*
X113198052Y-79207128D01*
X113198057Y-79207128D01*
X113204509Y-79208500D01*
X113395483Y-79208500D01*
X113401935Y-79207128D01*
X113401940Y-79207128D01*
X113529886Y-79179932D01*
X113600677Y-79185334D01*
X113645178Y-79214084D01*
X116335983Y-81904890D01*
X119023346Y-84592253D01*
X119030886Y-84600539D01*
X119034998Y-84607018D01*
X119040775Y-84612443D01*
X119084649Y-84653643D01*
X119087491Y-84656398D01*
X119107228Y-84676135D01*
X119110425Y-84678615D01*
X119119445Y-84686318D01*
X119151677Y-84716586D01*
X119158623Y-84720405D01*
X119158626Y-84720407D01*
X119169432Y-84726348D01*
X119185951Y-84737199D01*
X119201957Y-84749614D01*
X119209226Y-84752759D01*
X119209230Y-84752762D01*
X119242535Y-84767174D01*
X119253185Y-84772391D01*
X119291938Y-84793695D01*
X119299613Y-84795666D01*
X119299614Y-84795666D01*
X119311560Y-84798733D01*
X119330265Y-84805137D01*
X119348853Y-84813181D01*
X119356676Y-84814420D01*
X119356686Y-84814423D01*
X119392522Y-84820099D01*
X119404142Y-84822505D01*
X119439287Y-84831528D01*
X119446968Y-84833500D01*
X119467222Y-84833500D01*
X119486932Y-84835051D01*
X119506941Y-84838220D01*
X119514833Y-84837474D01*
X119550959Y-84834059D01*
X119562817Y-84833500D01*
X134985406Y-84833500D01*
X135053527Y-84853502D01*
X135074501Y-84870405D01*
X136652878Y-86448782D01*
X136686904Y-86511094D01*
X136689092Y-86524703D01*
X136706458Y-86689928D01*
X136765473Y-86871556D01*
X136768776Y-86877278D01*
X136768777Y-86877279D01*
X136826640Y-86977500D01*
X136843378Y-87046495D01*
X136820158Y-87113587D01*
X136764351Y-87157474D01*
X136717521Y-87166500D01*
X113779728Y-87166500D01*
X113768545Y-87165973D01*
X113761052Y-87164298D01*
X113753126Y-87164547D01*
X113753125Y-87164547D01*
X113692962Y-87166438D01*
X113689004Y-87166500D01*
X113661104Y-87166500D01*
X113657114Y-87167004D01*
X113645280Y-87167936D01*
X113601071Y-87169326D01*
X113593455Y-87171539D01*
X113593453Y-87171539D01*
X113581612Y-87174979D01*
X113562253Y-87178988D01*
X113560943Y-87179154D01*
X113542163Y-87181526D01*
X113534797Y-87184442D01*
X113534791Y-87184444D01*
X113501058Y-87197800D01*
X113489828Y-87201645D01*
X113454977Y-87211770D01*
X113447367Y-87213981D01*
X113440544Y-87218016D01*
X113429926Y-87224295D01*
X113412173Y-87232992D01*
X113404528Y-87236019D01*
X113393343Y-87240448D01*
X113386928Y-87245109D01*
X113357572Y-87266437D01*
X113347655Y-87272951D01*
X113309598Y-87295458D01*
X113295277Y-87309779D01*
X113280244Y-87322619D01*
X113263853Y-87334528D01*
X113258802Y-87340634D01*
X113235662Y-87368605D01*
X113227672Y-87377384D01*
X111214661Y-89390394D01*
X111152349Y-89424420D01*
X111081533Y-89419355D01*
X111052395Y-89403876D01*
X111048452Y-89401064D01*
X111043917Y-89397128D01*
X110860826Y-89291207D01*
X110661009Y-89221819D01*
X110655074Y-89220958D01*
X110655072Y-89220958D01*
X110457616Y-89192328D01*
X110457613Y-89192328D01*
X110451676Y-89191467D01*
X110240381Y-89201247D01*
X110124045Y-89229284D01*
X110040579Y-89249399D01*
X110040577Y-89249400D01*
X110034746Y-89250805D01*
X110029288Y-89253287D01*
X110029284Y-89253288D01*
X109914239Y-89305596D01*
X109842193Y-89338354D01*
X109669669Y-89460734D01*
X109523399Y-89613530D01*
X109408660Y-89791228D01*
X109329594Y-89987417D01*
X109289052Y-90195017D01*
X109288780Y-90200579D01*
X109288780Y-91156526D01*
X109303828Y-91314246D01*
X109363372Y-91517214D01*
X109366116Y-91522541D01*
X109366116Y-91522542D01*
X109457337Y-91699658D01*
X109460222Y-91705260D01*
X109590884Y-91871600D01*
X109595415Y-91875532D01*
X109595418Y-91875535D01*
X109680900Y-91949712D01*
X109750643Y-92010232D01*
X109755829Y-92013232D01*
X109755833Y-92013235D01*
X109917945Y-92107019D01*
X109933734Y-92116153D01*
X110133551Y-92185541D01*
X110139486Y-92186402D01*
X110139488Y-92186402D01*
X110336944Y-92215032D01*
X110336947Y-92215032D01*
X110342884Y-92215893D01*
X110554179Y-92206113D01*
X110694847Y-92172212D01*
X110753981Y-92157961D01*
X110753983Y-92157960D01*
X110759814Y-92156555D01*
X110765272Y-92154073D01*
X110765276Y-92154072D01*
X110925880Y-92081049D01*
X110952367Y-92069006D01*
X111124891Y-91946626D01*
X111271161Y-91793830D01*
X111385900Y-91616132D01*
X111428157Y-91511279D01*
X111462722Y-91425512D01*
X111462723Y-91425509D01*
X111464966Y-91419943D01*
X111505508Y-91212343D01*
X111505780Y-91206781D01*
X111505780Y-90943274D01*
X111525782Y-90875153D01*
X111542685Y-90854179D01*
X111613685Y-90783179D01*
X111675997Y-90749153D01*
X111746812Y-90754218D01*
X111803648Y-90796765D01*
X111828459Y-90863285D01*
X111828780Y-90872274D01*
X111828780Y-91156526D01*
X111843828Y-91314246D01*
X111903372Y-91517214D01*
X111906116Y-91522541D01*
X111906116Y-91522542D01*
X111997337Y-91699658D01*
X112000222Y-91705260D01*
X112130884Y-91871600D01*
X112135415Y-91875532D01*
X112135418Y-91875535D01*
X112220900Y-91949712D01*
X112290643Y-92010232D01*
X112295829Y-92013232D01*
X112295833Y-92013235D01*
X112457945Y-92107019D01*
X112473734Y-92116153D01*
X112673551Y-92185541D01*
X112679486Y-92186402D01*
X112679488Y-92186402D01*
X112876944Y-92215032D01*
X112876947Y-92215032D01*
X112882884Y-92215893D01*
X113094179Y-92206113D01*
X113234847Y-92172212D01*
X113293981Y-92157961D01*
X113293983Y-92157960D01*
X113299814Y-92156555D01*
X113305272Y-92154073D01*
X113305276Y-92154072D01*
X113465880Y-92081049D01*
X113492367Y-92069006D01*
X113664891Y-91946626D01*
X113811161Y-91793830D01*
X113925900Y-91616132D01*
X113968157Y-91511279D01*
X114002722Y-91425512D01*
X114002723Y-91425509D01*
X114004966Y-91419943D01*
X114045508Y-91212343D01*
X114045780Y-91206781D01*
X114045780Y-91156526D01*
X114368780Y-91156526D01*
X114383828Y-91314246D01*
X114443372Y-91517214D01*
X114446116Y-91522541D01*
X114446116Y-91522542D01*
X114537337Y-91699658D01*
X114540222Y-91705260D01*
X114670884Y-91871600D01*
X114675415Y-91875532D01*
X114675418Y-91875535D01*
X114760900Y-91949712D01*
X114830643Y-92010232D01*
X114835829Y-92013232D01*
X114835833Y-92013235D01*
X114997945Y-92107019D01*
X115013734Y-92116153D01*
X115213551Y-92185541D01*
X115219486Y-92186402D01*
X115219488Y-92186402D01*
X115416944Y-92215032D01*
X115416947Y-92215032D01*
X115422884Y-92215893D01*
X115634179Y-92206113D01*
X115774847Y-92172212D01*
X115833981Y-92157961D01*
X115833983Y-92157960D01*
X115839814Y-92156555D01*
X115845272Y-92154073D01*
X115845276Y-92154072D01*
X116005880Y-92081049D01*
X116032367Y-92069006D01*
X116204891Y-91946626D01*
X116351161Y-91793830D01*
X116465900Y-91616132D01*
X116508157Y-91511279D01*
X116542722Y-91425512D01*
X116542723Y-91425509D01*
X116544966Y-91419943D01*
X116585508Y-91212343D01*
X116585780Y-91206781D01*
X116585780Y-91156526D01*
X116908780Y-91156526D01*
X116923828Y-91314246D01*
X116983372Y-91517214D01*
X116986116Y-91522541D01*
X116986116Y-91522542D01*
X117077337Y-91699658D01*
X117080222Y-91705260D01*
X117210884Y-91871600D01*
X117215415Y-91875532D01*
X117215418Y-91875535D01*
X117300900Y-91949712D01*
X117370643Y-92010232D01*
X117375829Y-92013232D01*
X117375833Y-92013235D01*
X117537945Y-92107019D01*
X117553734Y-92116153D01*
X117753551Y-92185541D01*
X117759486Y-92186402D01*
X117759488Y-92186402D01*
X117956944Y-92215032D01*
X117956947Y-92215032D01*
X117962884Y-92215893D01*
X118174179Y-92206113D01*
X118314847Y-92172212D01*
X118373981Y-92157961D01*
X118373983Y-92157960D01*
X118379814Y-92156555D01*
X118385272Y-92154073D01*
X118385276Y-92154072D01*
X118545880Y-92081049D01*
X118572367Y-92069006D01*
X118744891Y-91946626D01*
X118891161Y-91793830D01*
X119005900Y-91616132D01*
X119048157Y-91511279D01*
X119082722Y-91425512D01*
X119082723Y-91425509D01*
X119084966Y-91419943D01*
X119125508Y-91212343D01*
X119125780Y-91206781D01*
X119125780Y-90250834D01*
X119110732Y-90093114D01*
X119051188Y-89890146D01*
X118997648Y-89786191D01*
X118957084Y-89707431D01*
X118957082Y-89707428D01*
X118954338Y-89702100D01*
X118823676Y-89535760D01*
X118819145Y-89531828D01*
X118819142Y-89531825D01*
X118668447Y-89401059D01*
X118663917Y-89397128D01*
X118658731Y-89394128D01*
X118658727Y-89394125D01*
X118486022Y-89294213D01*
X118480826Y-89291207D01*
X118281009Y-89221819D01*
X118275074Y-89220958D01*
X118275072Y-89220958D01*
X118077616Y-89192328D01*
X118077613Y-89192328D01*
X118071676Y-89191467D01*
X117860381Y-89201247D01*
X117744045Y-89229284D01*
X117660579Y-89249399D01*
X117660577Y-89249400D01*
X117654746Y-89250805D01*
X117649288Y-89253287D01*
X117649284Y-89253288D01*
X117534239Y-89305596D01*
X117462193Y-89338354D01*
X117289669Y-89460734D01*
X117143399Y-89613530D01*
X117028660Y-89791228D01*
X116949594Y-89987417D01*
X116909052Y-90195017D01*
X116908780Y-90200579D01*
X116908780Y-91156526D01*
X116585780Y-91156526D01*
X116585780Y-90250834D01*
X116570732Y-90093114D01*
X116511188Y-89890146D01*
X116457648Y-89786191D01*
X116417084Y-89707431D01*
X116417082Y-89707428D01*
X116414338Y-89702100D01*
X116283676Y-89535760D01*
X116279145Y-89531828D01*
X116279142Y-89531825D01*
X116128447Y-89401059D01*
X116123917Y-89397128D01*
X116118731Y-89394128D01*
X116118727Y-89394125D01*
X115946022Y-89294213D01*
X115940826Y-89291207D01*
X115741009Y-89221819D01*
X115735074Y-89220958D01*
X115735072Y-89220958D01*
X115537616Y-89192328D01*
X115537613Y-89192328D01*
X115531676Y-89191467D01*
X115320381Y-89201247D01*
X115204045Y-89229284D01*
X115120579Y-89249399D01*
X115120577Y-89249400D01*
X115114746Y-89250805D01*
X115109288Y-89253287D01*
X115109284Y-89253288D01*
X114994239Y-89305596D01*
X114922193Y-89338354D01*
X114749669Y-89460734D01*
X114603399Y-89613530D01*
X114488660Y-89791228D01*
X114409594Y-89987417D01*
X114369052Y-90195017D01*
X114368780Y-90200579D01*
X114368780Y-91156526D01*
X114045780Y-91156526D01*
X114045780Y-90250834D01*
X114030732Y-90093114D01*
X113971188Y-89890146D01*
X113917648Y-89786191D01*
X113877084Y-89707431D01*
X113877082Y-89707428D01*
X113874338Y-89702100D01*
X113743676Y-89535760D01*
X113739145Y-89531828D01*
X113739142Y-89531825D01*
X113588447Y-89401059D01*
X113583917Y-89397128D01*
X113578731Y-89394128D01*
X113578727Y-89394125D01*
X113406022Y-89294213D01*
X113400826Y-89291207D01*
X113395159Y-89289239D01*
X113395157Y-89289238D01*
X113371665Y-89281080D01*
X113313877Y-89239837D01*
X113287559Y-89173898D01*
X113301068Y-89104199D01*
X113323906Y-89072958D01*
X113926459Y-88470405D01*
X113988771Y-88436379D01*
X114015554Y-88433500D01*
X122027366Y-88433500D01*
X122095487Y-88453502D01*
X122141980Y-88507158D01*
X122152084Y-88577432D01*
X122122590Y-88642012D01*
X122116464Y-88648592D01*
X121374660Y-89390395D01*
X121312350Y-89424420D01*
X121241535Y-89419355D01*
X121212399Y-89403878D01*
X121208447Y-89401059D01*
X121203917Y-89397128D01*
X121020826Y-89291207D01*
X120821009Y-89221819D01*
X120815074Y-89220958D01*
X120815072Y-89220958D01*
X120617616Y-89192328D01*
X120617613Y-89192328D01*
X120611676Y-89191467D01*
X120400381Y-89201247D01*
X120284045Y-89229284D01*
X120200579Y-89249399D01*
X120200577Y-89249400D01*
X120194746Y-89250805D01*
X120189288Y-89253287D01*
X120189284Y-89253288D01*
X120074239Y-89305596D01*
X120002193Y-89338354D01*
X119829669Y-89460734D01*
X119683399Y-89613530D01*
X119568660Y-89791228D01*
X119489594Y-89987417D01*
X119449052Y-90195017D01*
X119448780Y-90200579D01*
X119448780Y-91156526D01*
X119463828Y-91314246D01*
X119523372Y-91517214D01*
X119526116Y-91522541D01*
X119526116Y-91522542D01*
X119617337Y-91699658D01*
X119620222Y-91705260D01*
X119750884Y-91871600D01*
X119755415Y-91875532D01*
X119755418Y-91875535D01*
X119840900Y-91949712D01*
X119910643Y-92010232D01*
X119915829Y-92013232D01*
X119915833Y-92013235D01*
X120077945Y-92107019D01*
X120093734Y-92116153D01*
X120293551Y-92185541D01*
X120299486Y-92186402D01*
X120299488Y-92186402D01*
X120496944Y-92215032D01*
X120496947Y-92215032D01*
X120502884Y-92215893D01*
X120714179Y-92206113D01*
X120854847Y-92172212D01*
X120913981Y-92157961D01*
X120913983Y-92157960D01*
X120919814Y-92156555D01*
X120925272Y-92154073D01*
X120925276Y-92154072D01*
X121085880Y-92081049D01*
X121112367Y-92069006D01*
X121284891Y-91946626D01*
X121431161Y-91793830D01*
X121545900Y-91616132D01*
X121588157Y-91511279D01*
X121622722Y-91425512D01*
X121622723Y-91425509D01*
X121624966Y-91419943D01*
X121665508Y-91212343D01*
X121665780Y-91206781D01*
X121665780Y-90943274D01*
X121685782Y-90875153D01*
X121702685Y-90854179D01*
X121773685Y-90783179D01*
X121835997Y-90749153D01*
X121906812Y-90754218D01*
X121963648Y-90796765D01*
X121988459Y-90863285D01*
X121988780Y-90872274D01*
X121988780Y-91156526D01*
X122003828Y-91314246D01*
X122063372Y-91517214D01*
X122066116Y-91522541D01*
X122066116Y-91522542D01*
X122157337Y-91699658D01*
X122160222Y-91705260D01*
X122290884Y-91871600D01*
X122295415Y-91875532D01*
X122295418Y-91875535D01*
X122380900Y-91949712D01*
X122450643Y-92010232D01*
X122455829Y-92013232D01*
X122455833Y-92013235D01*
X122617945Y-92107019D01*
X122633734Y-92116153D01*
X122833551Y-92185541D01*
X122839486Y-92186402D01*
X122839488Y-92186402D01*
X123036944Y-92215032D01*
X123036947Y-92215032D01*
X123042884Y-92215893D01*
X123254179Y-92206113D01*
X123394847Y-92172212D01*
X123453981Y-92157961D01*
X123453983Y-92157960D01*
X123459814Y-92156555D01*
X123465272Y-92154073D01*
X123465276Y-92154072D01*
X123625880Y-92081049D01*
X123652367Y-92069006D01*
X123824891Y-91946626D01*
X123971161Y-91793830D01*
X124085900Y-91616132D01*
X124128157Y-91511279D01*
X124162722Y-91425512D01*
X124162723Y-91425509D01*
X124164966Y-91419943D01*
X124205508Y-91212343D01*
X124205780Y-91206781D01*
X124205780Y-90943274D01*
X124225782Y-90875153D01*
X124242685Y-90854179D01*
X124313685Y-90783179D01*
X124375997Y-90749153D01*
X124446812Y-90754218D01*
X124503648Y-90796765D01*
X124528459Y-90863285D01*
X124528780Y-90872274D01*
X124528780Y-91156526D01*
X124543828Y-91314246D01*
X124603372Y-91517214D01*
X124606116Y-91522541D01*
X124606116Y-91522542D01*
X124697337Y-91699658D01*
X124700222Y-91705260D01*
X124830884Y-91871600D01*
X124835415Y-91875532D01*
X124835418Y-91875535D01*
X124920900Y-91949712D01*
X124990643Y-92010232D01*
X124995829Y-92013232D01*
X124995833Y-92013235D01*
X125157945Y-92107019D01*
X125173734Y-92116153D01*
X125373551Y-92185541D01*
X125379486Y-92186402D01*
X125379488Y-92186402D01*
X125576944Y-92215032D01*
X125576947Y-92215032D01*
X125582884Y-92215893D01*
X125794179Y-92206113D01*
X125934847Y-92172212D01*
X125993981Y-92157961D01*
X125993983Y-92157960D01*
X125999814Y-92156555D01*
X126005272Y-92154073D01*
X126005276Y-92154072D01*
X126165880Y-92081049D01*
X126192367Y-92069006D01*
X126364891Y-91946626D01*
X126511161Y-91793830D01*
X126625900Y-91616132D01*
X126668157Y-91511279D01*
X126702722Y-91425512D01*
X126702723Y-91425509D01*
X126704966Y-91419943D01*
X126745508Y-91212343D01*
X126745780Y-91206781D01*
X126745780Y-90250834D01*
X126730732Y-90093114D01*
X126671188Y-89890146D01*
X126617648Y-89786191D01*
X126577084Y-89707431D01*
X126577082Y-89707428D01*
X126574338Y-89702100D01*
X126444929Y-89537355D01*
X126418579Y-89471429D01*
X126432054Y-89401723D01*
X126481076Y-89350368D01*
X126544015Y-89333522D01*
X127276402Y-89333522D01*
X127344523Y-89353524D01*
X127391016Y-89407180D01*
X127401120Y-89477454D01*
X127367420Y-89546652D01*
X127303399Y-89613530D01*
X127188660Y-89791228D01*
X127109594Y-89987417D01*
X127069052Y-90195017D01*
X127068780Y-90200579D01*
X127068780Y-91156526D01*
X127083828Y-91314246D01*
X127143372Y-91517214D01*
X127146116Y-91522541D01*
X127146116Y-91522542D01*
X127237337Y-91699658D01*
X127240222Y-91705260D01*
X127370884Y-91871600D01*
X127375415Y-91875532D01*
X127375418Y-91875535D01*
X127460900Y-91949712D01*
X127530643Y-92010232D01*
X127535829Y-92013232D01*
X127535833Y-92013235D01*
X127697945Y-92107019D01*
X127713734Y-92116153D01*
X127913551Y-92185541D01*
X127919486Y-92186402D01*
X127919488Y-92186402D01*
X128116944Y-92215032D01*
X128116947Y-92215032D01*
X128122884Y-92215893D01*
X128334179Y-92206113D01*
X128474847Y-92172212D01*
X128533981Y-92157961D01*
X128533983Y-92157960D01*
X128539814Y-92156555D01*
X128545272Y-92154073D01*
X128545276Y-92154072D01*
X128705880Y-92081049D01*
X128732367Y-92069006D01*
X128904891Y-91946626D01*
X129051161Y-91793830D01*
X129165900Y-91616132D01*
X129208157Y-91511279D01*
X129242722Y-91425512D01*
X129242723Y-91425509D01*
X129244966Y-91419943D01*
X129285508Y-91212343D01*
X129285780Y-91206781D01*
X129285780Y-90250834D01*
X129270732Y-90093114D01*
X129211188Y-89890146D01*
X129157648Y-89786191D01*
X129117084Y-89707431D01*
X129117082Y-89707428D01*
X129114338Y-89702100D01*
X128984929Y-89537355D01*
X128958579Y-89471429D01*
X128972054Y-89401723D01*
X129021076Y-89350368D01*
X129084015Y-89333522D01*
X129816402Y-89333522D01*
X129884523Y-89353524D01*
X129931016Y-89407180D01*
X129941120Y-89477454D01*
X129907420Y-89546652D01*
X129843399Y-89613530D01*
X129728660Y-89791228D01*
X129649594Y-89987417D01*
X129609052Y-90195017D01*
X129608780Y-90200579D01*
X129608780Y-91156526D01*
X129623828Y-91314246D01*
X129683372Y-91517214D01*
X129686116Y-91522541D01*
X129686116Y-91522542D01*
X129777337Y-91699658D01*
X129780222Y-91705260D01*
X129910884Y-91871600D01*
X129915415Y-91875532D01*
X129915418Y-91875535D01*
X130000900Y-91949712D01*
X130070643Y-92010232D01*
X130075829Y-92013232D01*
X130075833Y-92013235D01*
X130237945Y-92107019D01*
X130253734Y-92116153D01*
X130453551Y-92185541D01*
X130459486Y-92186402D01*
X130459488Y-92186402D01*
X130656944Y-92215032D01*
X130656947Y-92215032D01*
X130662884Y-92215893D01*
X130874179Y-92206113D01*
X131014847Y-92172212D01*
X131073981Y-92157961D01*
X131073983Y-92157960D01*
X131079814Y-92156555D01*
X131085272Y-92154073D01*
X131085276Y-92154072D01*
X131245880Y-92081049D01*
X131272367Y-92069006D01*
X131444891Y-91946626D01*
X131591161Y-91793830D01*
X131705900Y-91616132D01*
X131748157Y-91511279D01*
X131782722Y-91425512D01*
X131782723Y-91425509D01*
X131784966Y-91419943D01*
X131825508Y-91212343D01*
X131825780Y-91206781D01*
X131825780Y-91153512D01*
X132149280Y-91153512D01*
X132149565Y-91159488D01*
X132163751Y-91308174D01*
X132166010Y-91319908D01*
X132222152Y-91511279D01*
X132226582Y-91522355D01*
X132317899Y-91699658D01*
X132324349Y-91709704D01*
X132447542Y-91866537D01*
X132455779Y-91875186D01*
X132606403Y-92005892D01*
X132616127Y-92012827D01*
X132788747Y-92112690D01*
X132799611Y-92117664D01*
X132988007Y-92183087D01*
X132988996Y-92183328D01*
X132999288Y-92181860D01*
X133003280Y-92168295D01*
X133003280Y-92164082D01*
X133511280Y-92164082D01*
X133515253Y-92177613D01*
X133524679Y-92178968D01*
X133613817Y-92157486D01*
X133625112Y-92153597D01*
X133806662Y-92071051D01*
X133817004Y-92065104D01*
X133979677Y-91949712D01*
X133988705Y-91941919D01*
X134126622Y-91797849D01*
X134134018Y-91788484D01*
X134242201Y-91620939D01*
X134247697Y-91610335D01*
X134322241Y-91425368D01*
X134325635Y-91413910D01*
X134364137Y-91216752D01*
X134365214Y-91207889D01*
X134365280Y-91205180D01*
X134365280Y-90975795D01*
X134360805Y-90960556D01*
X134359415Y-90959351D01*
X134351732Y-90957680D01*
X133529395Y-90957680D01*
X133514156Y-90962155D01*
X133512951Y-90963545D01*
X133511280Y-90971228D01*
X133511280Y-92164082D01*
X133003280Y-92164082D01*
X133003280Y-90975795D01*
X132998805Y-90960556D01*
X132997415Y-90959351D01*
X132989732Y-90957680D01*
X132167395Y-90957680D01*
X132152156Y-90962155D01*
X132150951Y-90963545D01*
X132149280Y-90971228D01*
X132149280Y-91153512D01*
X131825780Y-91153512D01*
X131825780Y-90250834D01*
X131810732Y-90093114D01*
X131751188Y-89890146D01*
X131697648Y-89786191D01*
X131657084Y-89707431D01*
X131657082Y-89707428D01*
X131654338Y-89702100D01*
X131524929Y-89537355D01*
X131498579Y-89471429D01*
X131512054Y-89401723D01*
X131561076Y-89350368D01*
X131624015Y-89333522D01*
X132357093Y-89333522D01*
X132425214Y-89353524D01*
X132471707Y-89407180D01*
X132481811Y-89477454D01*
X132448111Y-89546652D01*
X132387943Y-89609505D01*
X132380542Y-89618876D01*
X132272359Y-89786421D01*
X132266863Y-89797025D01*
X132192319Y-89981992D01*
X132188925Y-89993450D01*
X132150423Y-90190608D01*
X132149346Y-90199471D01*
X132149280Y-90202180D01*
X132149280Y-90431565D01*
X132153755Y-90446804D01*
X132155145Y-90448009D01*
X132162828Y-90449680D01*
X134347165Y-90449680D01*
X134362404Y-90445205D01*
X134363609Y-90443815D01*
X134365280Y-90436132D01*
X134365280Y-90253848D01*
X134364995Y-90247872D01*
X134350809Y-90099186D01*
X134348550Y-90087452D01*
X134292408Y-89896081D01*
X134287978Y-89885005D01*
X134196661Y-89707702D01*
X134190211Y-89697656D01*
X134064293Y-89537355D01*
X134037943Y-89471430D01*
X134051418Y-89401723D01*
X134100440Y-89350368D01*
X134163379Y-89333522D01*
X134896402Y-89333522D01*
X134964523Y-89353524D01*
X135011016Y-89407180D01*
X135021120Y-89477454D01*
X134987420Y-89546652D01*
X134923399Y-89613530D01*
X134808660Y-89791228D01*
X134729594Y-89987417D01*
X134689052Y-90195017D01*
X134688780Y-90200579D01*
X134688780Y-91156526D01*
X134703828Y-91314246D01*
X134763372Y-91517214D01*
X134766116Y-91522541D01*
X134766116Y-91522542D01*
X134857337Y-91699658D01*
X134860222Y-91705260D01*
X134990884Y-91871600D01*
X134995415Y-91875532D01*
X134995418Y-91875535D01*
X135080900Y-91949712D01*
X135150643Y-92010232D01*
X135155829Y-92013232D01*
X135155833Y-92013235D01*
X135317945Y-92107019D01*
X135333734Y-92116153D01*
X135533551Y-92185541D01*
X135539486Y-92186402D01*
X135539488Y-92186402D01*
X135736944Y-92215032D01*
X135736947Y-92215032D01*
X135742884Y-92215893D01*
X135954179Y-92206113D01*
X136094847Y-92172212D01*
X136153981Y-92157961D01*
X136153983Y-92157960D01*
X136159814Y-92156555D01*
X136165272Y-92154073D01*
X136165276Y-92154072D01*
X136325880Y-92081049D01*
X136352367Y-92069006D01*
X136524891Y-91946626D01*
X136671161Y-91793830D01*
X136785900Y-91616132D01*
X136828157Y-91511279D01*
X136862722Y-91425512D01*
X136862723Y-91425509D01*
X136864966Y-91419943D01*
X136905508Y-91212343D01*
X136905780Y-91206781D01*
X136905780Y-90250834D01*
X136890732Y-90093114D01*
X136831188Y-89890146D01*
X136777648Y-89786191D01*
X136737084Y-89707431D01*
X136737082Y-89707428D01*
X136734338Y-89702100D01*
X136604929Y-89537355D01*
X136578579Y-89471429D01*
X136592054Y-89401723D01*
X136641076Y-89350368D01*
X136704015Y-89333522D01*
X137436402Y-89333522D01*
X137504523Y-89353524D01*
X137551016Y-89407180D01*
X137561120Y-89477454D01*
X137527420Y-89546652D01*
X137463399Y-89613530D01*
X137348660Y-89791228D01*
X137269594Y-89987417D01*
X137229052Y-90195017D01*
X137228780Y-90200579D01*
X137228780Y-91156526D01*
X137243828Y-91314246D01*
X137303372Y-91517214D01*
X137306116Y-91522541D01*
X137306116Y-91522542D01*
X137397337Y-91699658D01*
X137400222Y-91705260D01*
X137530884Y-91871600D01*
X137535415Y-91875532D01*
X137535418Y-91875535D01*
X137620900Y-91949712D01*
X137690643Y-92010232D01*
X137695829Y-92013232D01*
X137695833Y-92013235D01*
X137857945Y-92107019D01*
X137873734Y-92116153D01*
X138073551Y-92185541D01*
X138079486Y-92186402D01*
X138079488Y-92186402D01*
X138276944Y-92215032D01*
X138276947Y-92215032D01*
X138282884Y-92215893D01*
X138494179Y-92206113D01*
X138634847Y-92172212D01*
X138693981Y-92157961D01*
X138693983Y-92157960D01*
X138699814Y-92156555D01*
X138705272Y-92154073D01*
X138705276Y-92154072D01*
X138865880Y-92081049D01*
X138892367Y-92069006D01*
X139064891Y-91946626D01*
X139211161Y-91793830D01*
X139325900Y-91616132D01*
X139368157Y-91511279D01*
X139402722Y-91425512D01*
X139402723Y-91425509D01*
X139404966Y-91419943D01*
X139445508Y-91212343D01*
X139445780Y-91206781D01*
X139445780Y-91156526D01*
X139768780Y-91156526D01*
X139783828Y-91314246D01*
X139843372Y-91517214D01*
X139846116Y-91522541D01*
X139846116Y-91522542D01*
X139937337Y-91699658D01*
X139940222Y-91705260D01*
X140070884Y-91871600D01*
X140075415Y-91875532D01*
X140075418Y-91875535D01*
X140160900Y-91949712D01*
X140230643Y-92010232D01*
X140235829Y-92013232D01*
X140235833Y-92013235D01*
X140397945Y-92107019D01*
X140413734Y-92116153D01*
X140613551Y-92185541D01*
X140619486Y-92186402D01*
X140619488Y-92186402D01*
X140816944Y-92215032D01*
X140816947Y-92215032D01*
X140822884Y-92215893D01*
X141034179Y-92206113D01*
X141174847Y-92172212D01*
X141233981Y-92157961D01*
X141233983Y-92157960D01*
X141239814Y-92156555D01*
X141245272Y-92154073D01*
X141245276Y-92154072D01*
X141405880Y-92081049D01*
X141432367Y-92069006D01*
X141604891Y-91946626D01*
X141751161Y-91793830D01*
X141865900Y-91616132D01*
X141908157Y-91511279D01*
X141942722Y-91425512D01*
X141942723Y-91425509D01*
X141944966Y-91419943D01*
X141985508Y-91212343D01*
X141985780Y-91206781D01*
X141985780Y-91156526D01*
X142308780Y-91156526D01*
X142323828Y-91314246D01*
X142383372Y-91517214D01*
X142386116Y-91522541D01*
X142386116Y-91522542D01*
X142477337Y-91699658D01*
X142480222Y-91705260D01*
X142610884Y-91871600D01*
X142615415Y-91875532D01*
X142615418Y-91875535D01*
X142700900Y-91949712D01*
X142770643Y-92010232D01*
X142775829Y-92013232D01*
X142775833Y-92013235D01*
X142937945Y-92107019D01*
X142953734Y-92116153D01*
X143153551Y-92185541D01*
X143159486Y-92186402D01*
X143159488Y-92186402D01*
X143356944Y-92215032D01*
X143356947Y-92215032D01*
X143362884Y-92215893D01*
X143574179Y-92206113D01*
X143714847Y-92172212D01*
X143773981Y-92157961D01*
X143773983Y-92157960D01*
X143779814Y-92156555D01*
X143785272Y-92154073D01*
X143785276Y-92154072D01*
X143945880Y-92081049D01*
X143972367Y-92069006D01*
X144144891Y-91946626D01*
X144291161Y-91793830D01*
X144405900Y-91616132D01*
X144448157Y-91511279D01*
X144482722Y-91425512D01*
X144482723Y-91425509D01*
X144484966Y-91419943D01*
X144525508Y-91212343D01*
X144525780Y-91206781D01*
X144525780Y-91156526D01*
X144848780Y-91156526D01*
X144863828Y-91314246D01*
X144923372Y-91517214D01*
X144926116Y-91522541D01*
X144926116Y-91522542D01*
X145017337Y-91699658D01*
X145020222Y-91705260D01*
X145150884Y-91871600D01*
X145155415Y-91875532D01*
X145155418Y-91875535D01*
X145240900Y-91949712D01*
X145310643Y-92010232D01*
X145315829Y-92013232D01*
X145315833Y-92013235D01*
X145477945Y-92107019D01*
X145493734Y-92116153D01*
X145693551Y-92185541D01*
X145699486Y-92186402D01*
X145699488Y-92186402D01*
X145896944Y-92215032D01*
X145896947Y-92215032D01*
X145902884Y-92215893D01*
X146114179Y-92206113D01*
X146254847Y-92172212D01*
X146313981Y-92157961D01*
X146313983Y-92157960D01*
X146319814Y-92156555D01*
X146325272Y-92154073D01*
X146325276Y-92154072D01*
X146485880Y-92081049D01*
X146512367Y-92069006D01*
X146684891Y-91946626D01*
X146831161Y-91793830D01*
X146945900Y-91616132D01*
X146988157Y-91511279D01*
X146996508Y-91490557D01*
X147389281Y-91490557D01*
X147389334Y-91492394D01*
X147390757Y-91502337D01*
X147428748Y-91666900D01*
X147433400Y-91680110D01*
X147506162Y-91830625D01*
X147513623Y-91842473D01*
X147617933Y-91973140D01*
X147627820Y-91983027D01*
X147758487Y-92087337D01*
X147770335Y-92094798D01*
X147920850Y-92167560D01*
X147934060Y-92172212D01*
X148098622Y-92210203D01*
X148108557Y-92211626D01*
X148110433Y-92211680D01*
X148225165Y-92211680D01*
X148240404Y-92207205D01*
X148241609Y-92205815D01*
X148243280Y-92198132D01*
X148243280Y-90975795D01*
X148238805Y-90960556D01*
X148237415Y-90959351D01*
X148229732Y-90957680D01*
X147407396Y-90957680D01*
X147392157Y-90962155D01*
X147390952Y-90963545D01*
X147389281Y-90971228D01*
X147389281Y-91490557D01*
X146996508Y-91490557D01*
X147022722Y-91425512D01*
X147022723Y-91425509D01*
X147024966Y-91419943D01*
X147065508Y-91212343D01*
X147065780Y-91206781D01*
X147065780Y-90431565D01*
X147389280Y-90431565D01*
X147393755Y-90446804D01*
X147395145Y-90448009D01*
X147402828Y-90449680D01*
X148225165Y-90449680D01*
X148240404Y-90445205D01*
X148241609Y-90443815D01*
X148243280Y-90436132D01*
X148243280Y-89213796D01*
X148238805Y-89198557D01*
X148237415Y-89197352D01*
X148229732Y-89195681D01*
X148110403Y-89195681D01*
X148108566Y-89195734D01*
X148098623Y-89197157D01*
X147934060Y-89235148D01*
X147920850Y-89239800D01*
X147770335Y-89312562D01*
X147758487Y-89320023D01*
X147627820Y-89424333D01*
X147617933Y-89434220D01*
X147513623Y-89564887D01*
X147506162Y-89576735D01*
X147433400Y-89727250D01*
X147428748Y-89740460D01*
X147390757Y-89905022D01*
X147389334Y-89914957D01*
X147389280Y-89916833D01*
X147389280Y-90431565D01*
X147065780Y-90431565D01*
X147065780Y-90250834D01*
X147050732Y-90093114D01*
X146991188Y-89890146D01*
X146937648Y-89786191D01*
X146897084Y-89707431D01*
X146897082Y-89707428D01*
X146894338Y-89702100D01*
X146763676Y-89535760D01*
X146759145Y-89531828D01*
X146759142Y-89531825D01*
X146608447Y-89401059D01*
X146603917Y-89397128D01*
X146598731Y-89394128D01*
X146598727Y-89394125D01*
X146426022Y-89294213D01*
X146420826Y-89291207D01*
X146221009Y-89221819D01*
X146215074Y-89220958D01*
X146215072Y-89220958D01*
X146017616Y-89192328D01*
X146017613Y-89192328D01*
X146011676Y-89191467D01*
X145800381Y-89201247D01*
X145684045Y-89229284D01*
X145600579Y-89249399D01*
X145600577Y-89249400D01*
X145594746Y-89250805D01*
X145589288Y-89253287D01*
X145589284Y-89253288D01*
X145474239Y-89305596D01*
X145402193Y-89338354D01*
X145229669Y-89460734D01*
X145083399Y-89613530D01*
X144968660Y-89791228D01*
X144889594Y-89987417D01*
X144849052Y-90195017D01*
X144848780Y-90200579D01*
X144848780Y-91156526D01*
X144525780Y-91156526D01*
X144525780Y-90250834D01*
X144510732Y-90093114D01*
X144451188Y-89890146D01*
X144397648Y-89786191D01*
X144357084Y-89707431D01*
X144357082Y-89707428D01*
X144354338Y-89702100D01*
X144223676Y-89535760D01*
X144219145Y-89531828D01*
X144219142Y-89531825D01*
X144068447Y-89401059D01*
X144063917Y-89397128D01*
X144058731Y-89394128D01*
X144058727Y-89394125D01*
X143886022Y-89294213D01*
X143880826Y-89291207D01*
X143681009Y-89221819D01*
X143675074Y-89220958D01*
X143675072Y-89220958D01*
X143477616Y-89192328D01*
X143477613Y-89192328D01*
X143471676Y-89191467D01*
X143260381Y-89201247D01*
X143144045Y-89229284D01*
X143060579Y-89249399D01*
X143060577Y-89249400D01*
X143054746Y-89250805D01*
X143049288Y-89253287D01*
X143049284Y-89253288D01*
X142934239Y-89305596D01*
X142862193Y-89338354D01*
X142689669Y-89460734D01*
X142543399Y-89613530D01*
X142428660Y-89791228D01*
X142349594Y-89987417D01*
X142309052Y-90195017D01*
X142308780Y-90200579D01*
X142308780Y-91156526D01*
X141985780Y-91156526D01*
X141985780Y-90250834D01*
X141970732Y-90093114D01*
X141911188Y-89890146D01*
X141857648Y-89786191D01*
X141817084Y-89707431D01*
X141817082Y-89707428D01*
X141814338Y-89702100D01*
X141683676Y-89535760D01*
X141679145Y-89531828D01*
X141679142Y-89531825D01*
X141528447Y-89401059D01*
X141523917Y-89397128D01*
X141518731Y-89394128D01*
X141518727Y-89394125D01*
X141346022Y-89294213D01*
X141340826Y-89291207D01*
X141141009Y-89221819D01*
X141135074Y-89220958D01*
X141135072Y-89220958D01*
X140937616Y-89192328D01*
X140937613Y-89192328D01*
X140931676Y-89191467D01*
X140720381Y-89201247D01*
X140604045Y-89229284D01*
X140520579Y-89249399D01*
X140520577Y-89249400D01*
X140514746Y-89250805D01*
X140509288Y-89253287D01*
X140509284Y-89253288D01*
X140394239Y-89305596D01*
X140322193Y-89338354D01*
X140149669Y-89460734D01*
X140003399Y-89613530D01*
X139888660Y-89791228D01*
X139809594Y-89987417D01*
X139769052Y-90195017D01*
X139768780Y-90200579D01*
X139768780Y-91156526D01*
X139445780Y-91156526D01*
X139445780Y-90250834D01*
X139430732Y-90093114D01*
X139371188Y-89890146D01*
X139317648Y-89786191D01*
X139277084Y-89707431D01*
X139277082Y-89707428D01*
X139274338Y-89702100D01*
X139143676Y-89535760D01*
X139139145Y-89531828D01*
X139139142Y-89531825D01*
X138988447Y-89401059D01*
X138983917Y-89397128D01*
X138978731Y-89394128D01*
X138978727Y-89394125D01*
X138806022Y-89294213D01*
X138800826Y-89291207D01*
X138622504Y-89229283D01*
X138564715Y-89188042D01*
X138538396Y-89122104D01*
X138551904Y-89052404D01*
X138574743Y-89021161D01*
X140047938Y-87547966D01*
X144328257Y-87547966D01*
X144358565Y-87682446D01*
X144361645Y-87692275D01*
X144441770Y-87889603D01*
X144446413Y-87898794D01*
X144557694Y-88080388D01*
X144563777Y-88088699D01*
X144703213Y-88249667D01*
X144710580Y-88256883D01*
X144874434Y-88392916D01*
X144882881Y-88398831D01*
X145066756Y-88506279D01*
X145076042Y-88510729D01*
X145275001Y-88586703D01*
X145284899Y-88589579D01*
X145388250Y-88610606D01*
X145402299Y-88609410D01*
X145406000Y-88599065D01*
X145406000Y-88598517D01*
X145914000Y-88598517D01*
X145918064Y-88612359D01*
X145931478Y-88614393D01*
X145938184Y-88613534D01*
X145948262Y-88611392D01*
X146152255Y-88550191D01*
X146161842Y-88546433D01*
X146353095Y-88452739D01*
X146361945Y-88447464D01*
X146535328Y-88323792D01*
X146543200Y-88317139D01*
X146694052Y-88166812D01*
X146700730Y-88158965D01*
X146828022Y-87981819D01*
X146829147Y-87982627D01*
X146876669Y-87938876D01*
X146946607Y-87926661D01*
X147012046Y-87954197D01*
X147039870Y-87986028D01*
X147097690Y-88080383D01*
X147103777Y-88088699D01*
X147243213Y-88249667D01*
X147250580Y-88256883D01*
X147414434Y-88392916D01*
X147422881Y-88398831D01*
X147606756Y-88506279D01*
X147616042Y-88510729D01*
X147815001Y-88586703D01*
X147824899Y-88589579D01*
X147928250Y-88610606D01*
X147942299Y-88609410D01*
X147946000Y-88599065D01*
X147946000Y-87552115D01*
X147941525Y-87536876D01*
X147940135Y-87535671D01*
X147932452Y-87534000D01*
X145932115Y-87534000D01*
X145916876Y-87538475D01*
X145915671Y-87539865D01*
X145914000Y-87547548D01*
X145914000Y-88598517D01*
X145406000Y-88598517D01*
X145406000Y-87552115D01*
X145401525Y-87536876D01*
X145400135Y-87535671D01*
X145392452Y-87534000D01*
X144343225Y-87534000D01*
X144329694Y-87537973D01*
X144328257Y-87547966D01*
X140047938Y-87547966D01*
X143360500Y-84235404D01*
X143422812Y-84201378D01*
X143449595Y-84198499D01*
X144234626Y-84198499D01*
X144302747Y-84218501D01*
X144349240Y-84272157D01*
X144359344Y-84342431D01*
X144356043Y-84358171D01*
X144320989Y-84484570D01*
X144297251Y-84706695D01*
X144297548Y-84711848D01*
X144297548Y-84711851D01*
X144306690Y-84870405D01*
X144310110Y-84929715D01*
X144311247Y-84934761D01*
X144311248Y-84934767D01*
X144316786Y-84959338D01*
X144359222Y-85147639D01*
X144443266Y-85354616D01*
X144494942Y-85438944D01*
X144557291Y-85540688D01*
X144559987Y-85545088D01*
X144706250Y-85713938D01*
X144878126Y-85856632D01*
X144951955Y-85899774D01*
X145000679Y-85951412D01*
X145013750Y-86021195D01*
X144987019Y-86086967D01*
X144946562Y-86120327D01*
X144938457Y-86124546D01*
X144929738Y-86130036D01*
X144759433Y-86257905D01*
X144751726Y-86264748D01*
X144604590Y-86418717D01*
X144598104Y-86426727D01*
X144478098Y-86602649D01*
X144473000Y-86611623D01*
X144383338Y-86804783D01*
X144379775Y-86814470D01*
X144324389Y-87014183D01*
X144325912Y-87022607D01*
X144338292Y-87026000D01*
X148328000Y-87026000D01*
X148396121Y-87046002D01*
X148442614Y-87099658D01*
X148454000Y-87152000D01*
X148454000Y-88598517D01*
X148458064Y-88612359D01*
X148471478Y-88614393D01*
X148478184Y-88613534D01*
X148488262Y-88611392D01*
X148692255Y-88550191D01*
X148701842Y-88546433D01*
X148893095Y-88452739D01*
X148901945Y-88447464D01*
X149075328Y-88323792D01*
X149083200Y-88317139D01*
X149234052Y-88166812D01*
X149240730Y-88158965D01*
X149263678Y-88127029D01*
X149319672Y-88083381D01*
X149390376Y-88076935D01*
X149453340Y-88109738D01*
X149488574Y-88171374D01*
X149492000Y-88200555D01*
X149492000Y-89262517D01*
X149471998Y-89330638D01*
X149418342Y-89377131D01*
X149348068Y-89387235D01*
X149287392Y-89360989D01*
X149236078Y-89320026D01*
X149224225Y-89312562D01*
X149073710Y-89239800D01*
X149060500Y-89235148D01*
X148895938Y-89197157D01*
X148886003Y-89195734D01*
X148884127Y-89195680D01*
X148769395Y-89195680D01*
X148754156Y-89200155D01*
X148752951Y-89201545D01*
X148751280Y-89209228D01*
X148751280Y-92193564D01*
X148755755Y-92208803D01*
X148757145Y-92210008D01*
X148764828Y-92211679D01*
X148884157Y-92211679D01*
X148885994Y-92211626D01*
X148895937Y-92210203D01*
X149060500Y-92172212D01*
X149073710Y-92167560D01*
X149224225Y-92094798D01*
X149236078Y-92087334D01*
X149287392Y-92046371D01*
X149353108Y-92019504D01*
X149422918Y-92032432D01*
X149474657Y-92081049D01*
X149492000Y-92144843D01*
X149492000Y-99366000D01*
X149471998Y-99434121D01*
X149418342Y-99480614D01*
X149366000Y-99492000D01*
X114206654Y-99492000D01*
X114138533Y-99471998D01*
X114092040Y-99418342D01*
X114081936Y-99348068D01*
X114111430Y-99283488D01*
X114151221Y-99252849D01*
X114233095Y-99212739D01*
X114241945Y-99207464D01*
X114415328Y-99083792D01*
X114423200Y-99077139D01*
X114574052Y-98926812D01*
X114580730Y-98918965D01*
X114705003Y-98746020D01*
X114710313Y-98737183D01*
X114804670Y-98546267D01*
X114808469Y-98536672D01*
X114870377Y-98332910D01*
X114872555Y-98322837D01*
X114873986Y-98311962D01*
X114871775Y-98297778D01*
X114858617Y-98294000D01*
X109683225Y-98294000D01*
X109669694Y-98297973D01*
X109668257Y-98307966D01*
X109698565Y-98442446D01*
X109701645Y-98452275D01*
X109781770Y-98649603D01*
X109786413Y-98658794D01*
X109897694Y-98840388D01*
X109903777Y-98848699D01*
X110043213Y-99009667D01*
X110050580Y-99016883D01*
X110214434Y-99152916D01*
X110222876Y-99158828D01*
X110391240Y-99257212D01*
X110439963Y-99308851D01*
X110453034Y-99378634D01*
X110426302Y-99444406D01*
X110368255Y-99485284D01*
X110327669Y-99492000D01*
X100634000Y-99492000D01*
X100565879Y-99471998D01*
X100519386Y-99418342D01*
X100508000Y-99366000D01*
X100508000Y-96042277D01*
X102137009Y-96042277D01*
X102162625Y-96310769D01*
X102163710Y-96315203D01*
X102163711Y-96315209D01*
X102219004Y-96541173D01*
X102226731Y-96572750D01*
X102327985Y-96822733D01*
X102374702Y-96902520D01*
X102446270Y-97024748D01*
X102464265Y-97055482D01*
X102576377Y-97195671D01*
X102584686Y-97206060D01*
X102632716Y-97266119D01*
X102829809Y-97450234D01*
X103051416Y-97603968D01*
X103055499Y-97605999D01*
X103055502Y-97606001D01*
X103171013Y-97663466D01*
X103292894Y-97724101D01*
X103297228Y-97725522D01*
X103297231Y-97725523D01*
X103544853Y-97806698D01*
X103544859Y-97806699D01*
X103549186Y-97808118D01*
X103553677Y-97808898D01*
X103553678Y-97808898D01*
X103811140Y-97853601D01*
X103811148Y-97853602D01*
X103814921Y-97854257D01*
X103818758Y-97854448D01*
X103898578Y-97858422D01*
X103898586Y-97858422D01*
X103900149Y-97858500D01*
X104068512Y-97858500D01*
X104070780Y-97858335D01*
X104070792Y-97858335D01*
X104201884Y-97848823D01*
X104269004Y-97843953D01*
X104273459Y-97842969D01*
X104273462Y-97842969D01*
X104527912Y-97786791D01*
X104527916Y-97786790D01*
X104532372Y-97785806D01*
X104658480Y-97738028D01*
X104780318Y-97691868D01*
X104780321Y-97691867D01*
X104784588Y-97690250D01*
X105020368Y-97559286D01*
X105234773Y-97395657D01*
X105423312Y-97202792D01*
X105582034Y-96984730D01*
X105652001Y-96851745D01*
X105705490Y-96750079D01*
X105705493Y-96750073D01*
X105707615Y-96746039D01*
X105770378Y-96568312D01*
X105795902Y-96496033D01*
X105795902Y-96496032D01*
X105797425Y-96491720D01*
X105815871Y-96398134D01*
X109641500Y-96398134D01*
X109648255Y-96460316D01*
X109699385Y-96596705D01*
X109786739Y-96713261D01*
X109903295Y-96800615D01*
X109911704Y-96803767D01*
X109911705Y-96803768D01*
X110020960Y-96844726D01*
X110077725Y-96887367D01*
X110102425Y-96953929D01*
X110087218Y-97023278D01*
X110067825Y-97049759D01*
X109944590Y-97178717D01*
X109938104Y-97186727D01*
X109818098Y-97362649D01*
X109813000Y-97371623D01*
X109723338Y-97564783D01*
X109719775Y-97574470D01*
X109664389Y-97774183D01*
X109665912Y-97782607D01*
X109678292Y-97786000D01*
X114858344Y-97786000D01*
X114871875Y-97782027D01*
X114873180Y-97772947D01*
X114831214Y-97605875D01*
X114827894Y-97596124D01*
X114742972Y-97400814D01*
X114738105Y-97391739D01*
X114622426Y-97212926D01*
X114616136Y-97204757D01*
X114472806Y-97047240D01*
X114465273Y-97040215D01*
X114298139Y-96908222D01*
X114289556Y-96902520D01*
X114252602Y-96882120D01*
X114202631Y-96831687D01*
X114187859Y-96762245D01*
X114212975Y-96695839D01*
X114240327Y-96669232D01*
X114263797Y-96652491D01*
X114419860Y-96541173D01*
X114578096Y-96383489D01*
X114708453Y-96202077D01*
X114787431Y-96042277D01*
X144137009Y-96042277D01*
X144162625Y-96310769D01*
X144163710Y-96315203D01*
X144163711Y-96315209D01*
X144219004Y-96541173D01*
X144226731Y-96572750D01*
X144327985Y-96822733D01*
X144374702Y-96902520D01*
X144446270Y-97024748D01*
X144464265Y-97055482D01*
X144576377Y-97195671D01*
X144584686Y-97206060D01*
X144632716Y-97266119D01*
X144829809Y-97450234D01*
X145051416Y-97603968D01*
X145055499Y-97605999D01*
X145055502Y-97606001D01*
X145171013Y-97663466D01*
X145292894Y-97724101D01*
X145297228Y-97725522D01*
X145297231Y-97725523D01*
X145544853Y-97806698D01*
X145544859Y-97806699D01*
X145549186Y-97808118D01*
X145553677Y-97808898D01*
X145553678Y-97808898D01*
X145811140Y-97853601D01*
X145811148Y-97853602D01*
X145814921Y-97854257D01*
X145818758Y-97854448D01*
X145898578Y-97858422D01*
X145898586Y-97858422D01*
X145900149Y-97858500D01*
X146068512Y-97858500D01*
X146070780Y-97858335D01*
X146070792Y-97858335D01*
X146201884Y-97848823D01*
X146269004Y-97843953D01*
X146273459Y-97842969D01*
X146273462Y-97842969D01*
X146527912Y-97786791D01*
X146527916Y-97786790D01*
X146532372Y-97785806D01*
X146658480Y-97738028D01*
X146780318Y-97691868D01*
X146780321Y-97691867D01*
X146784588Y-97690250D01*
X147020368Y-97559286D01*
X147234773Y-97395657D01*
X147423312Y-97202792D01*
X147582034Y-96984730D01*
X147652001Y-96851745D01*
X147705490Y-96750079D01*
X147705493Y-96750073D01*
X147707615Y-96746039D01*
X147770378Y-96568312D01*
X147795902Y-96496033D01*
X147795902Y-96496032D01*
X147797425Y-96491720D01*
X147849581Y-96227100D01*
X147851058Y-96197438D01*
X147862764Y-95962292D01*
X147862764Y-95962286D01*
X147862991Y-95957723D01*
X147837375Y-95689231D01*
X147806546Y-95563240D01*
X147774355Y-95431688D01*
X147773269Y-95427250D01*
X147672015Y-95177267D01*
X147535735Y-94944518D01*
X147417928Y-94797208D01*
X147370136Y-94737447D01*
X147370135Y-94737445D01*
X147367284Y-94733881D01*
X147170191Y-94549766D01*
X146948584Y-94396032D01*
X146944501Y-94394001D01*
X146944498Y-94393999D01*
X146779606Y-94311967D01*
X146707106Y-94275899D01*
X146702772Y-94274478D01*
X146702769Y-94274477D01*
X146455147Y-94193302D01*
X146455141Y-94193301D01*
X146450814Y-94191882D01*
X146446322Y-94191102D01*
X146188860Y-94146399D01*
X146188852Y-94146398D01*
X146185079Y-94145743D01*
X146173817Y-94145182D01*
X146101422Y-94141578D01*
X146101414Y-94141578D01*
X146099851Y-94141500D01*
X145931488Y-94141500D01*
X145929220Y-94141665D01*
X145929208Y-94141665D01*
X145800156Y-94151029D01*
X145730996Y-94156047D01*
X145726541Y-94157031D01*
X145726538Y-94157031D01*
X145472088Y-94213209D01*
X145472084Y-94213210D01*
X145467628Y-94214194D01*
X145394895Y-94241750D01*
X145219682Y-94308132D01*
X145219679Y-94308133D01*
X145215412Y-94309750D01*
X144979632Y-94440714D01*
X144765227Y-94604343D01*
X144576688Y-94797208D01*
X144417966Y-95015270D01*
X144415844Y-95019304D01*
X144294510Y-95249921D01*
X144294507Y-95249927D01*
X144292385Y-95253961D01*
X144290865Y-95258266D01*
X144290863Y-95258270D01*
X144206683Y-95496646D01*
X144202575Y-95508280D01*
X144150419Y-95772900D01*
X144150192Y-95777453D01*
X144150192Y-95777456D01*
X144140991Y-95962292D01*
X144137009Y-96042277D01*
X114787431Y-96042277D01*
X114807430Y-96001811D01*
X114872370Y-95788069D01*
X114901529Y-95566590D01*
X114903156Y-95500000D01*
X114884852Y-95277361D01*
X114830431Y-95060702D01*
X114741354Y-94855840D01*
X114620014Y-94668277D01*
X114469670Y-94503051D01*
X114465619Y-94499852D01*
X114465615Y-94499848D01*
X114298414Y-94367800D01*
X114298410Y-94367798D01*
X114294359Y-94364598D01*
X114098789Y-94256638D01*
X114093920Y-94254914D01*
X114093916Y-94254912D01*
X113893087Y-94183795D01*
X113893083Y-94183794D01*
X113888212Y-94182069D01*
X113883119Y-94181162D01*
X113883116Y-94181161D01*
X113673373Y-94143800D01*
X113673367Y-94143799D01*
X113668284Y-94142894D01*
X113594452Y-94141992D01*
X113450081Y-94140228D01*
X113450079Y-94140228D01*
X113444911Y-94140165D01*
X113224091Y-94173955D01*
X113011756Y-94243357D01*
X112945336Y-94277933D01*
X112887325Y-94308132D01*
X112813607Y-94346507D01*
X112809474Y-94349610D01*
X112809471Y-94349612D01*
X112639100Y-94477530D01*
X112634965Y-94480635D01*
X112565917Y-94552890D01*
X112554283Y-94565064D01*
X112492759Y-94600494D01*
X112421846Y-94597037D01*
X112364060Y-94555791D01*
X112345207Y-94522243D01*
X112303767Y-94411703D01*
X112300615Y-94403295D01*
X112213261Y-94286739D01*
X112096705Y-94199385D01*
X111960316Y-94148255D01*
X111898134Y-94141500D01*
X110101866Y-94141500D01*
X110039684Y-94148255D01*
X109903295Y-94199385D01*
X109786739Y-94286739D01*
X109699385Y-94403295D01*
X109648255Y-94539684D01*
X109641500Y-94601866D01*
X109641500Y-96398134D01*
X105815871Y-96398134D01*
X105849581Y-96227100D01*
X105851058Y-96197438D01*
X105862764Y-95962292D01*
X105862764Y-95962286D01*
X105862991Y-95957723D01*
X105837375Y-95689231D01*
X105806546Y-95563240D01*
X105774355Y-95431688D01*
X105773269Y-95427250D01*
X105672015Y-95177267D01*
X105535735Y-94944518D01*
X105417928Y-94797208D01*
X105370136Y-94737447D01*
X105370135Y-94737445D01*
X105367284Y-94733881D01*
X105170191Y-94549766D01*
X104948584Y-94396032D01*
X104944501Y-94394001D01*
X104944498Y-94393999D01*
X104779606Y-94311967D01*
X104707106Y-94275899D01*
X104702772Y-94274478D01*
X104702769Y-94274477D01*
X104455147Y-94193302D01*
X104455141Y-94193301D01*
X104450814Y-94191882D01*
X104446322Y-94191102D01*
X104188860Y-94146399D01*
X104188852Y-94146398D01*
X104185079Y-94145743D01*
X104173817Y-94145182D01*
X104101422Y-94141578D01*
X104101414Y-94141578D01*
X104099851Y-94141500D01*
X103931488Y-94141500D01*
X103929220Y-94141665D01*
X103929208Y-94141665D01*
X103800156Y-94151029D01*
X103730996Y-94156047D01*
X103726541Y-94157031D01*
X103726538Y-94157031D01*
X103472088Y-94213209D01*
X103472084Y-94213210D01*
X103467628Y-94214194D01*
X103394895Y-94241750D01*
X103219682Y-94308132D01*
X103219679Y-94308133D01*
X103215412Y-94309750D01*
X102979632Y-94440714D01*
X102765227Y-94604343D01*
X102576688Y-94797208D01*
X102417966Y-95015270D01*
X102415844Y-95019304D01*
X102294510Y-95249921D01*
X102294507Y-95249927D01*
X102292385Y-95253961D01*
X102290865Y-95258266D01*
X102290863Y-95258270D01*
X102206683Y-95496646D01*
X102202575Y-95508280D01*
X102150419Y-95772900D01*
X102150192Y-95777453D01*
X102150192Y-95777456D01*
X102140991Y-95962292D01*
X102137009Y-96042277D01*
X100508000Y-96042277D01*
X100508000Y-91152846D01*
X101671500Y-91152846D01*
X101686548Y-91310566D01*
X101746092Y-91513534D01*
X101748836Y-91518861D01*
X101748836Y-91518862D01*
X101825081Y-91666900D01*
X101842942Y-91701580D01*
X101973604Y-91867920D01*
X101978135Y-91871852D01*
X101978138Y-91871855D01*
X102094859Y-91973140D01*
X102133363Y-92006552D01*
X102138549Y-92009552D01*
X102138553Y-92009555D01*
X102273000Y-92087334D01*
X102316454Y-92112473D01*
X102516271Y-92181861D01*
X102522206Y-92182722D01*
X102522208Y-92182722D01*
X102719664Y-92211352D01*
X102719667Y-92211352D01*
X102725604Y-92212213D01*
X102936899Y-92202433D01*
X103078551Y-92168295D01*
X103136701Y-92154281D01*
X103136703Y-92154280D01*
X103142534Y-92152875D01*
X103147992Y-92150393D01*
X103147996Y-92150392D01*
X103270267Y-92094798D01*
X103335087Y-92065326D01*
X103507611Y-91942946D01*
X103653881Y-91790150D01*
X103768620Y-91612452D01*
X103810801Y-91507786D01*
X103845442Y-91421832D01*
X103845443Y-91421829D01*
X103847686Y-91416263D01*
X103888228Y-91208663D01*
X103888500Y-91203101D01*
X103888500Y-91152846D01*
X104211500Y-91152846D01*
X104226548Y-91310566D01*
X104286092Y-91513534D01*
X104288836Y-91518861D01*
X104288836Y-91518862D01*
X104365081Y-91666900D01*
X104382942Y-91701580D01*
X104513604Y-91867920D01*
X104518135Y-91871852D01*
X104518138Y-91871855D01*
X104634859Y-91973140D01*
X104673363Y-92006552D01*
X104678549Y-92009552D01*
X104678553Y-92009555D01*
X104813000Y-92087334D01*
X104856454Y-92112473D01*
X105056271Y-92181861D01*
X105062206Y-92182722D01*
X105062208Y-92182722D01*
X105259664Y-92211352D01*
X105259667Y-92211352D01*
X105265604Y-92212213D01*
X105476899Y-92202433D01*
X105618551Y-92168295D01*
X105676701Y-92154281D01*
X105676703Y-92154280D01*
X105682534Y-92152875D01*
X105687992Y-92150393D01*
X105687996Y-92150392D01*
X105810267Y-92094798D01*
X105875087Y-92065326D01*
X106047611Y-91942946D01*
X106193881Y-91790150D01*
X106308620Y-91612452D01*
X106350801Y-91507786D01*
X106385442Y-91421832D01*
X106385443Y-91421829D01*
X106387686Y-91416263D01*
X106428228Y-91208663D01*
X106428500Y-91203101D01*
X106428500Y-91156526D01*
X106748780Y-91156526D01*
X106763828Y-91314246D01*
X106823372Y-91517214D01*
X106826116Y-91522541D01*
X106826116Y-91522542D01*
X106917337Y-91699658D01*
X106920222Y-91705260D01*
X107050884Y-91871600D01*
X107055415Y-91875532D01*
X107055418Y-91875535D01*
X107140900Y-91949712D01*
X107210643Y-92010232D01*
X107215829Y-92013232D01*
X107215833Y-92013235D01*
X107377945Y-92107019D01*
X107393734Y-92116153D01*
X107593551Y-92185541D01*
X107599486Y-92186402D01*
X107599488Y-92186402D01*
X107796944Y-92215032D01*
X107796947Y-92215032D01*
X107802884Y-92215893D01*
X108014179Y-92206113D01*
X108154847Y-92172212D01*
X108213981Y-92157961D01*
X108213983Y-92157960D01*
X108219814Y-92156555D01*
X108225272Y-92154073D01*
X108225276Y-92154072D01*
X108385880Y-92081049D01*
X108412367Y-92069006D01*
X108584891Y-91946626D01*
X108731161Y-91793830D01*
X108845900Y-91616132D01*
X108888157Y-91511279D01*
X108922722Y-91425512D01*
X108922723Y-91425509D01*
X108924966Y-91419943D01*
X108965508Y-91212343D01*
X108965780Y-91206781D01*
X108965780Y-90250834D01*
X108950732Y-90093114D01*
X108891188Y-89890146D01*
X108837648Y-89786191D01*
X108797084Y-89707431D01*
X108797082Y-89707428D01*
X108794338Y-89702100D01*
X108663676Y-89535760D01*
X108659145Y-89531828D01*
X108659142Y-89531825D01*
X108508447Y-89401059D01*
X108503917Y-89397128D01*
X108498731Y-89394128D01*
X108498727Y-89394125D01*
X108326022Y-89294213D01*
X108320826Y-89291207D01*
X108121009Y-89221819D01*
X108115074Y-89220958D01*
X108115072Y-89220958D01*
X107917616Y-89192328D01*
X107917613Y-89192328D01*
X107911676Y-89191467D01*
X107700381Y-89201247D01*
X107584045Y-89229284D01*
X107500579Y-89249399D01*
X107500577Y-89249400D01*
X107494746Y-89250805D01*
X107489288Y-89253287D01*
X107489284Y-89253288D01*
X107374239Y-89305596D01*
X107302193Y-89338354D01*
X107129669Y-89460734D01*
X106983399Y-89613530D01*
X106868660Y-89791228D01*
X106789594Y-89987417D01*
X106749052Y-90195017D01*
X106748780Y-90200579D01*
X106748780Y-91156526D01*
X106428500Y-91156526D01*
X106428500Y-90247154D01*
X106413452Y-90089434D01*
X106353908Y-89886466D01*
X106302962Y-89787548D01*
X106259804Y-89703751D01*
X106259802Y-89703748D01*
X106257058Y-89698420D01*
X106126396Y-89532080D01*
X106121865Y-89528148D01*
X106121862Y-89528145D01*
X105971167Y-89397379D01*
X105966637Y-89393448D01*
X105961451Y-89390448D01*
X105961447Y-89390445D01*
X105788742Y-89290533D01*
X105783546Y-89287527D01*
X105583729Y-89218139D01*
X105577794Y-89217278D01*
X105577792Y-89217278D01*
X105380336Y-89188648D01*
X105380333Y-89188648D01*
X105374396Y-89187787D01*
X105163101Y-89197567D01*
X105031923Y-89229181D01*
X104963299Y-89245719D01*
X104963297Y-89245720D01*
X104957466Y-89247125D01*
X104952008Y-89249607D01*
X104952004Y-89249608D01*
X104860513Y-89291207D01*
X104764913Y-89334674D01*
X104592389Y-89457054D01*
X104446119Y-89609850D01*
X104331380Y-89787548D01*
X104329137Y-89793114D01*
X104287716Y-89895894D01*
X104252314Y-89983737D01*
X104211772Y-90191337D01*
X104211500Y-90196899D01*
X104211500Y-91152846D01*
X103888500Y-91152846D01*
X103888500Y-90247154D01*
X103873452Y-90089434D01*
X103813908Y-89886466D01*
X103762962Y-89787548D01*
X103719804Y-89703751D01*
X103719802Y-89703748D01*
X103717058Y-89698420D01*
X103586396Y-89532080D01*
X103581865Y-89528148D01*
X103581862Y-89528145D01*
X103431167Y-89397379D01*
X103426637Y-89393448D01*
X103421451Y-89390448D01*
X103421447Y-89390445D01*
X103248742Y-89290533D01*
X103243546Y-89287527D01*
X103043729Y-89218139D01*
X103037794Y-89217278D01*
X103037792Y-89217278D01*
X102840336Y-89188648D01*
X102840333Y-89188648D01*
X102834396Y-89187787D01*
X102623101Y-89197567D01*
X102491923Y-89229181D01*
X102423299Y-89245719D01*
X102423297Y-89245720D01*
X102417466Y-89247125D01*
X102412008Y-89249607D01*
X102412004Y-89249608D01*
X102320513Y-89291207D01*
X102224913Y-89334674D01*
X102052389Y-89457054D01*
X101906119Y-89609850D01*
X101791380Y-89787548D01*
X101789137Y-89793114D01*
X101747716Y-89895894D01*
X101712314Y-89983737D01*
X101671772Y-90191337D01*
X101671500Y-90196899D01*
X101671500Y-91152846D01*
X100508000Y-91152846D01*
X100508000Y-81342925D01*
X103486645Y-81342925D01*
X103504570Y-81539888D01*
X103506308Y-81545794D01*
X103506309Y-81545798D01*
X103524194Y-81606565D01*
X103560410Y-81729619D01*
X103563263Y-81735077D01*
X103563265Y-81735081D01*
X103576660Y-81760702D01*
X103652040Y-81904890D01*
X103775968Y-82059025D01*
X103780692Y-82062989D01*
X103787933Y-82069065D01*
X103927474Y-82186154D01*
X103932872Y-82189121D01*
X103932877Y-82189125D01*
X104076180Y-82267905D01*
X104100787Y-82281433D01*
X104106654Y-82283294D01*
X104106656Y-82283295D01*
X104283436Y-82339373D01*
X104289306Y-82341235D01*
X104443227Y-82358500D01*
X104549769Y-82358500D01*
X104552825Y-82358200D01*
X104552832Y-82358200D01*
X104611340Y-82352463D01*
X104696833Y-82344080D01*
X104702734Y-82342298D01*
X104702736Y-82342298D01*
X104776053Y-82320162D01*
X104886169Y-82286916D01*
X105060796Y-82194066D01*
X105147062Y-82123709D01*
X105209287Y-82072960D01*
X105209290Y-82072957D01*
X105214062Y-82069065D01*
X105289994Y-81977279D01*
X105336201Y-81921425D01*
X105336203Y-81921421D01*
X105340130Y-81916675D01*
X105434198Y-81742701D01*
X105492682Y-81553768D01*
X105499023Y-81493435D01*
X105512711Y-81363204D01*
X105512711Y-81363202D01*
X105513355Y-81357075D01*
X105495430Y-81160112D01*
X105487960Y-81134729D01*
X105460609Y-81041797D01*
X105439590Y-80970381D01*
X105433198Y-80958153D01*
X105374482Y-80845842D01*
X105347960Y-80795110D01*
X105224032Y-80640975D01*
X105217727Y-80635684D01*
X105153051Y-80581415D01*
X105072526Y-80513846D01*
X105067128Y-80510879D01*
X105067123Y-80510875D01*
X104904608Y-80421533D01*
X104904609Y-80421533D01*
X104899213Y-80418567D01*
X104893346Y-80416706D01*
X104893344Y-80416705D01*
X104716564Y-80360627D01*
X104716563Y-80360627D01*
X104710694Y-80358765D01*
X104556773Y-80341500D01*
X104450231Y-80341500D01*
X104447175Y-80341800D01*
X104447168Y-80341800D01*
X104388660Y-80347537D01*
X104303167Y-80355920D01*
X104297266Y-80357702D01*
X104297264Y-80357702D01*
X104269419Y-80366109D01*
X104113831Y-80413084D01*
X103939204Y-80505934D01*
X103882435Y-80552234D01*
X103790713Y-80627040D01*
X103790710Y-80627043D01*
X103785938Y-80630935D01*
X103782011Y-80635682D01*
X103782009Y-80635684D01*
X103663799Y-80778575D01*
X103663797Y-80778579D01*
X103659870Y-80783325D01*
X103565802Y-80957299D01*
X103507318Y-81146232D01*
X103486645Y-81342925D01*
X100508000Y-81342925D01*
X100508000Y-73362925D01*
X103486645Y-73362925D01*
X103504570Y-73559888D01*
X103560410Y-73749619D01*
X103563263Y-73755077D01*
X103563265Y-73755081D01*
X103576436Y-73780274D01*
X103652040Y-73924890D01*
X103775968Y-74079025D01*
X103780692Y-74082989D01*
X103787933Y-74089065D01*
X103927474Y-74206154D01*
X103932872Y-74209121D01*
X103932877Y-74209125D01*
X104076180Y-74287905D01*
X104100787Y-74301433D01*
X104106654Y-74303294D01*
X104106656Y-74303295D01*
X104283436Y-74359373D01*
X104289306Y-74361235D01*
X104443227Y-74378500D01*
X104549769Y-74378500D01*
X104552825Y-74378200D01*
X104552832Y-74378200D01*
X104611340Y-74372463D01*
X104696833Y-74364080D01*
X104702734Y-74362298D01*
X104702736Y-74362298D01*
X104776053Y-74340162D01*
X104886169Y-74306916D01*
X105060796Y-74214066D01*
X105183125Y-74114297D01*
X105209287Y-74092960D01*
X105209290Y-74092957D01*
X105214062Y-74089065D01*
X105226344Y-74074219D01*
X105336201Y-73941425D01*
X105336203Y-73941421D01*
X105340130Y-73936675D01*
X105434198Y-73762701D01*
X105492682Y-73573768D01*
X105493520Y-73565798D01*
X105512711Y-73383204D01*
X105512711Y-73383202D01*
X105513355Y-73377075D01*
X105498051Y-73208909D01*
X105495989Y-73186251D01*
X105495988Y-73186248D01*
X105495430Y-73180112D01*
X105467194Y-73084171D01*
X105445373Y-73010031D01*
X105439590Y-72990381D01*
X105429919Y-72971881D01*
X105385667Y-72887237D01*
X105347960Y-72815110D01*
X105224032Y-72660975D01*
X105217727Y-72655684D01*
X105173145Y-72618276D01*
X105072526Y-72533846D01*
X105067128Y-72530879D01*
X105067123Y-72530875D01*
X104904608Y-72441533D01*
X104904609Y-72441533D01*
X104899213Y-72438567D01*
X104893346Y-72436706D01*
X104893344Y-72436705D01*
X104716564Y-72380627D01*
X104716563Y-72380627D01*
X104710694Y-72378765D01*
X104556773Y-72361500D01*
X104450231Y-72361500D01*
X104447175Y-72361800D01*
X104447168Y-72361800D01*
X104388660Y-72367537D01*
X104303167Y-72375920D01*
X104297266Y-72377702D01*
X104297264Y-72377702D01*
X104223947Y-72399838D01*
X104113831Y-72433084D01*
X103939204Y-72525934D01*
X103874360Y-72578820D01*
X103790713Y-72647040D01*
X103790710Y-72647043D01*
X103785938Y-72650935D01*
X103782011Y-72655682D01*
X103782009Y-72655684D01*
X103663799Y-72798575D01*
X103663797Y-72798579D01*
X103659870Y-72803325D01*
X103565802Y-72977299D01*
X103507318Y-73166232D01*
X103506674Y-73172357D01*
X103506674Y-73172358D01*
X103492298Y-73309144D01*
X103486645Y-73362925D01*
X100508000Y-73362925D01*
X100508000Y-65756526D01*
X101668780Y-65756526D01*
X101683828Y-65914246D01*
X101743372Y-66117214D01*
X101746114Y-66122537D01*
X101746116Y-66122542D01*
X101832952Y-66291144D01*
X101840222Y-66305260D01*
X101970884Y-66471600D01*
X101975415Y-66475532D01*
X101975418Y-66475535D01*
X102061338Y-66550092D01*
X102130643Y-66610232D01*
X102135829Y-66613232D01*
X102135833Y-66613235D01*
X102297945Y-66707019D01*
X102313734Y-66716153D01*
X102513551Y-66785541D01*
X102519486Y-66786402D01*
X102519488Y-66786402D01*
X102716944Y-66815032D01*
X102716947Y-66815032D01*
X102722884Y-66815893D01*
X102934179Y-66806113D01*
X103074847Y-66772212D01*
X103133981Y-66757961D01*
X103133983Y-66757960D01*
X103139814Y-66756555D01*
X103145272Y-66754073D01*
X103145276Y-66754072D01*
X103292050Y-66687337D01*
X103332367Y-66669006D01*
X103504891Y-66546626D01*
X103651161Y-66393830D01*
X103765900Y-66216132D01*
X103808229Y-66111099D01*
X103846142Y-66060004D01*
X103881494Y-66031581D01*
X103881499Y-66031576D01*
X103886305Y-66027712D01*
X104009852Y-65880475D01*
X104068959Y-65841150D01*
X104139947Y-65840024D01*
X104200274Y-65877455D01*
X104227276Y-65925999D01*
X104283372Y-66117214D01*
X104286114Y-66122537D01*
X104286116Y-66122542D01*
X104372952Y-66291144D01*
X104380222Y-66305260D01*
X104510884Y-66471600D01*
X104515415Y-66475532D01*
X104515418Y-66475535D01*
X104601338Y-66550092D01*
X104670643Y-66610232D01*
X104675829Y-66613232D01*
X104675833Y-66613235D01*
X104837945Y-66707019D01*
X104853734Y-66716153D01*
X105053551Y-66785541D01*
X105059486Y-66786402D01*
X105059488Y-66786402D01*
X105256944Y-66815032D01*
X105256947Y-66815032D01*
X105262884Y-66815893D01*
X105474179Y-66806113D01*
X105614847Y-66772212D01*
X105673981Y-66757961D01*
X105673983Y-66757960D01*
X105679814Y-66756555D01*
X105685272Y-66754073D01*
X105685276Y-66754072D01*
X105832050Y-66687337D01*
X105872367Y-66669006D01*
X106044891Y-66546626D01*
X106191161Y-66393830D01*
X106305900Y-66216132D01*
X106351760Y-66102338D01*
X106382722Y-66025512D01*
X106382723Y-66025509D01*
X106384966Y-66019943D01*
X106425508Y-65812343D01*
X106425780Y-65806781D01*
X106425780Y-64850834D01*
X106410732Y-64693114D01*
X106409044Y-64687360D01*
X106409043Y-64687354D01*
X106403943Y-64669971D01*
X106403959Y-64598974D01*
X106442356Y-64539257D01*
X106506944Y-64509778D01*
X106524847Y-64508500D01*
X106652019Y-64508500D01*
X106720140Y-64528502D01*
X106766633Y-64582158D01*
X106775683Y-64658650D01*
X106749052Y-64795017D01*
X106748780Y-64800579D01*
X106748780Y-65756526D01*
X106763828Y-65914246D01*
X106823372Y-66117214D01*
X106826114Y-66122537D01*
X106826116Y-66122542D01*
X106912952Y-66291144D01*
X106920222Y-66305260D01*
X107050884Y-66471600D01*
X107055415Y-66475532D01*
X107055418Y-66475535D01*
X107141338Y-66550092D01*
X107210643Y-66610232D01*
X107215829Y-66613232D01*
X107215833Y-66613235D01*
X107377945Y-66707019D01*
X107393734Y-66716153D01*
X107593551Y-66785541D01*
X107599486Y-66786402D01*
X107599488Y-66786402D01*
X107796944Y-66815032D01*
X107796947Y-66815032D01*
X107802884Y-66815893D01*
X108014179Y-66806113D01*
X108154847Y-66772212D01*
X108213981Y-66757961D01*
X108213983Y-66757960D01*
X108219814Y-66756555D01*
X108225272Y-66754073D01*
X108225276Y-66754072D01*
X108372050Y-66687337D01*
X108412367Y-66669006D01*
X108584891Y-66546626D01*
X108731161Y-66393830D01*
X108845900Y-66216132D01*
X108891760Y-66102338D01*
X108922722Y-66025512D01*
X108922723Y-66025509D01*
X108924966Y-66019943D01*
X108965508Y-65812343D01*
X108965780Y-65806781D01*
X108965780Y-64850834D01*
X108950732Y-64693114D01*
X108949044Y-64687360D01*
X108949043Y-64687354D01*
X108943943Y-64669971D01*
X108943959Y-64598974D01*
X108982356Y-64539257D01*
X109046944Y-64509778D01*
X109064847Y-64508500D01*
X109192019Y-64508500D01*
X109260140Y-64528502D01*
X109306633Y-64582158D01*
X109315683Y-64658650D01*
X109289052Y-64795017D01*
X109288780Y-64800579D01*
X109288780Y-65756526D01*
X109303828Y-65914246D01*
X109363372Y-66117214D01*
X109366114Y-66122537D01*
X109366116Y-66122542D01*
X109452952Y-66291144D01*
X109460222Y-66305260D01*
X109590884Y-66471600D01*
X109595415Y-66475532D01*
X109595418Y-66475535D01*
X109681338Y-66550092D01*
X109750643Y-66610232D01*
X109755829Y-66613232D01*
X109755833Y-66613235D01*
X109917945Y-66707019D01*
X109933734Y-66716153D01*
X110133551Y-66785541D01*
X110139486Y-66786402D01*
X110139488Y-66786402D01*
X110336944Y-66815032D01*
X110336947Y-66815032D01*
X110342884Y-66815893D01*
X110554179Y-66806113D01*
X110694847Y-66772212D01*
X110753981Y-66757961D01*
X110753983Y-66757960D01*
X110759814Y-66756555D01*
X110765272Y-66754073D01*
X110765276Y-66754072D01*
X110912050Y-66687337D01*
X110952367Y-66669006D01*
X111124891Y-66546626D01*
X111271161Y-66393830D01*
X111385900Y-66216132D01*
X111431760Y-66102338D01*
X111462722Y-66025512D01*
X111462723Y-66025509D01*
X111464966Y-66019943D01*
X111505508Y-65812343D01*
X111505780Y-65806781D01*
X111505780Y-64850834D01*
X111490732Y-64693114D01*
X111489044Y-64687360D01*
X111489043Y-64687354D01*
X111483943Y-64669971D01*
X111483959Y-64598974D01*
X111522356Y-64539257D01*
X111586944Y-64509778D01*
X111604847Y-64508500D01*
X111732019Y-64508500D01*
X111800140Y-64528502D01*
X111846633Y-64582158D01*
X111855683Y-64658650D01*
X111829052Y-64795017D01*
X111828780Y-64800579D01*
X111828780Y-65756526D01*
X111843828Y-65914246D01*
X111903372Y-66117214D01*
X111906114Y-66122537D01*
X111906116Y-66122542D01*
X111992952Y-66291144D01*
X112000222Y-66305260D01*
X112130884Y-66471600D01*
X112135415Y-66475532D01*
X112135418Y-66475535D01*
X112221338Y-66550092D01*
X112290643Y-66610232D01*
X112295829Y-66613232D01*
X112295833Y-66613235D01*
X112457945Y-66707019D01*
X112473734Y-66716153D01*
X112673551Y-66785541D01*
X112679486Y-66786402D01*
X112679488Y-66786402D01*
X112876944Y-66815032D01*
X112876947Y-66815032D01*
X112882884Y-66815893D01*
X113094179Y-66806113D01*
X113234847Y-66772212D01*
X113293981Y-66757961D01*
X113293983Y-66757960D01*
X113299814Y-66756555D01*
X113305272Y-66754073D01*
X113305276Y-66754072D01*
X113452050Y-66687337D01*
X113492367Y-66669006D01*
X113664891Y-66546626D01*
X113811161Y-66393830D01*
X113925900Y-66216132D01*
X113971760Y-66102338D01*
X113976508Y-66090557D01*
X114369281Y-66090557D01*
X114369334Y-66092394D01*
X114370757Y-66102337D01*
X114408748Y-66266900D01*
X114413400Y-66280110D01*
X114486162Y-66430625D01*
X114493623Y-66442473D01*
X114597933Y-66573140D01*
X114607820Y-66583027D01*
X114738487Y-66687337D01*
X114750335Y-66694798D01*
X114900850Y-66767560D01*
X114914060Y-66772212D01*
X115078622Y-66810203D01*
X115088557Y-66811626D01*
X115090433Y-66811680D01*
X115205165Y-66811680D01*
X115220404Y-66807205D01*
X115221609Y-66805815D01*
X115223280Y-66798132D01*
X115223280Y-66793564D01*
X115731280Y-66793564D01*
X115735755Y-66808803D01*
X115737145Y-66810008D01*
X115744828Y-66811679D01*
X115864157Y-66811679D01*
X115865994Y-66811626D01*
X115875937Y-66810203D01*
X116040500Y-66772212D01*
X116053710Y-66767560D01*
X116204225Y-66694798D01*
X116216073Y-66687337D01*
X116346740Y-66583027D01*
X116356627Y-66573140D01*
X116460937Y-66442473D01*
X116468398Y-66430625D01*
X116541160Y-66280110D01*
X116545812Y-66266900D01*
X116583803Y-66102338D01*
X116585226Y-66092403D01*
X116585280Y-66090527D01*
X116585280Y-65575795D01*
X116580805Y-65560556D01*
X116579415Y-65559351D01*
X116571732Y-65557680D01*
X115749395Y-65557680D01*
X115734156Y-65562155D01*
X115732951Y-65563545D01*
X115731280Y-65571228D01*
X115731280Y-66793564D01*
X115223280Y-66793564D01*
X115223280Y-65575795D01*
X115218805Y-65560556D01*
X115217415Y-65559351D01*
X115209732Y-65557680D01*
X114387396Y-65557680D01*
X114372157Y-65562155D01*
X114370952Y-65563545D01*
X114369281Y-65571228D01*
X114369281Y-66090557D01*
X113976508Y-66090557D01*
X114002722Y-66025512D01*
X114002723Y-66025509D01*
X114004966Y-66019943D01*
X114045508Y-65812343D01*
X114045780Y-65806781D01*
X114045780Y-64850834D01*
X114030732Y-64693114D01*
X114029044Y-64687360D01*
X114029043Y-64687354D01*
X114023943Y-64669971D01*
X114023959Y-64598974D01*
X114062356Y-64539257D01*
X114126944Y-64509778D01*
X114144847Y-64508500D01*
X114243280Y-64508500D01*
X114311401Y-64528502D01*
X114357894Y-64582158D01*
X114369280Y-64634500D01*
X114369280Y-65031565D01*
X114373755Y-65046804D01*
X114375145Y-65048009D01*
X114382828Y-65049680D01*
X116567164Y-65049680D01*
X116582403Y-65045205D01*
X116583608Y-65043815D01*
X116585279Y-65036132D01*
X116585279Y-64634500D01*
X116605281Y-64566379D01*
X116658937Y-64519886D01*
X116711279Y-64508500D01*
X116812019Y-64508500D01*
X116880140Y-64528502D01*
X116926633Y-64582158D01*
X116935683Y-64658650D01*
X116909052Y-64795017D01*
X116908780Y-64800579D01*
X116908780Y-65756526D01*
X116923828Y-65914246D01*
X116983372Y-66117214D01*
X116986114Y-66122537D01*
X116986116Y-66122542D01*
X117072952Y-66291144D01*
X117080222Y-66305260D01*
X117210884Y-66471600D01*
X117215415Y-66475532D01*
X117215418Y-66475535D01*
X117301338Y-66550092D01*
X117370643Y-66610232D01*
X117375829Y-66613232D01*
X117375833Y-66613235D01*
X117537945Y-66707019D01*
X117553734Y-66716153D01*
X117753551Y-66785541D01*
X117759486Y-66786402D01*
X117759488Y-66786402D01*
X117956944Y-66815032D01*
X117956947Y-66815032D01*
X117962884Y-66815893D01*
X118174179Y-66806113D01*
X118314847Y-66772212D01*
X118373981Y-66757961D01*
X118373983Y-66757960D01*
X118379814Y-66756555D01*
X118385272Y-66754073D01*
X118385276Y-66754072D01*
X118532050Y-66687337D01*
X118572367Y-66669006D01*
X118744891Y-66546626D01*
X118891161Y-66393830D01*
X119005900Y-66216132D01*
X119051760Y-66102338D01*
X119082722Y-66025512D01*
X119082723Y-66025509D01*
X119084966Y-66019943D01*
X119125508Y-65812343D01*
X119125780Y-65806781D01*
X119125780Y-64850834D01*
X119110732Y-64693114D01*
X119109044Y-64687360D01*
X119109043Y-64687354D01*
X119103943Y-64669971D01*
X119103959Y-64598974D01*
X119142356Y-64539257D01*
X119206944Y-64509778D01*
X119224847Y-64508500D01*
X119352019Y-64508500D01*
X119420140Y-64528502D01*
X119466633Y-64582158D01*
X119475683Y-64658650D01*
X119449052Y-64795017D01*
X119448780Y-64800579D01*
X119448780Y-65756526D01*
X119463828Y-65914246D01*
X119523372Y-66117214D01*
X119526114Y-66122537D01*
X119526116Y-66122542D01*
X119612952Y-66291144D01*
X119620222Y-66305260D01*
X119750884Y-66471600D01*
X119755415Y-66475532D01*
X119755418Y-66475535D01*
X119841338Y-66550092D01*
X119910643Y-66610232D01*
X119915829Y-66613232D01*
X119915833Y-66613235D01*
X120077945Y-66707019D01*
X120093734Y-66716153D01*
X120293551Y-66785541D01*
X120299486Y-66786402D01*
X120299488Y-66786402D01*
X120496944Y-66815032D01*
X120496947Y-66815032D01*
X120502884Y-66815893D01*
X120714179Y-66806113D01*
X120854847Y-66772212D01*
X120913981Y-66757961D01*
X120913983Y-66757960D01*
X120919814Y-66756555D01*
X120925272Y-66754073D01*
X120925276Y-66754072D01*
X121072050Y-66687337D01*
X121112367Y-66669006D01*
X121209488Y-66600113D01*
X121276622Y-66577015D01*
X121345587Y-66593879D01*
X121371483Y-66613788D01*
X121629595Y-66871900D01*
X121663621Y-66934212D01*
X121666500Y-66960995D01*
X121666500Y-67322476D01*
X121646498Y-67390597D01*
X121634142Y-67406779D01*
X121560960Y-67488056D01*
X121465473Y-67653444D01*
X121406458Y-67835072D01*
X121386496Y-68025000D01*
X121387186Y-68031565D01*
X121402321Y-68175562D01*
X121406458Y-68214928D01*
X121465473Y-68396556D01*
X121560960Y-68561944D01*
X121565378Y-68566851D01*
X121565379Y-68566852D01*
X121622088Y-68629834D01*
X121688747Y-68703866D01*
X121843248Y-68816118D01*
X121849276Y-68818802D01*
X121849278Y-68818803D01*
X122011681Y-68891109D01*
X122017712Y-68893794D01*
X122111112Y-68913647D01*
X122198056Y-68932128D01*
X122198061Y-68932128D01*
X122204513Y-68933500D01*
X122395487Y-68933500D01*
X122401939Y-68932128D01*
X122401944Y-68932128D01*
X122488888Y-68913647D01*
X122582288Y-68893794D01*
X122588319Y-68891109D01*
X122750722Y-68818803D01*
X122750724Y-68818802D01*
X122756752Y-68816118D01*
X122911253Y-68703866D01*
X122977912Y-68629834D01*
X123034621Y-68566852D01*
X123034622Y-68566851D01*
X123039040Y-68561944D01*
X123134527Y-68396556D01*
X123193542Y-68214928D01*
X123197680Y-68175562D01*
X123212814Y-68031565D01*
X123213504Y-68025000D01*
X123193542Y-67835072D01*
X123134527Y-67653444D01*
X123039040Y-67488056D01*
X122965863Y-67406785D01*
X122935147Y-67342779D01*
X122933500Y-67322476D01*
X122933500Y-66941259D01*
X122953502Y-66873138D01*
X123007158Y-66826645D01*
X123053674Y-66815394D01*
X123175680Y-66809746D01*
X123254179Y-66806113D01*
X123432839Y-66763056D01*
X123453989Y-66757959D01*
X123453991Y-66757958D01*
X123459814Y-66756555D01*
X123484011Y-66745553D01*
X123554297Y-66735566D01*
X123618829Y-66765165D01*
X123625255Y-66771159D01*
X126302878Y-69448783D01*
X126336904Y-69511095D01*
X126339093Y-69524706D01*
X126356458Y-69689928D01*
X126415473Y-69871556D01*
X126510960Y-70036944D01*
X126638747Y-70178866D01*
X126644089Y-70182747D01*
X126644091Y-70182749D01*
X126649169Y-70186438D01*
X126657721Y-70192651D01*
X126701075Y-70248871D01*
X126707153Y-70319607D01*
X126672757Y-70383683D01*
X125951845Y-71104595D01*
X125889533Y-71138621D01*
X125862750Y-71141500D01*
X122742587Y-71141500D01*
X122668528Y-71117437D01*
X122662098Y-71112765D01*
X122662091Y-71112761D01*
X122656752Y-71108882D01*
X122650724Y-71106198D01*
X122650722Y-71106197D01*
X122488319Y-71033891D01*
X122488318Y-71033891D01*
X122482288Y-71031206D01*
X122388888Y-71011353D01*
X122301944Y-70992872D01*
X122301939Y-70992872D01*
X122295487Y-70991500D01*
X122104513Y-70991500D01*
X122098061Y-70992872D01*
X122098056Y-70992872D01*
X122011112Y-71011353D01*
X121917712Y-71031206D01*
X121911682Y-71033891D01*
X121911681Y-71033891D01*
X121749278Y-71106197D01*
X121749276Y-71106198D01*
X121743248Y-71108882D01*
X121737907Y-71112762D01*
X121737906Y-71112763D01*
X121734062Y-71115556D01*
X121588747Y-71221134D01*
X121584326Y-71226044D01*
X121584325Y-71226045D01*
X121482064Y-71339618D01*
X121460960Y-71363056D01*
X121365473Y-71528444D01*
X121306458Y-71710072D01*
X121286496Y-71900000D01*
X121306458Y-72089928D01*
X121365473Y-72271556D01*
X121460960Y-72436944D01*
X121465378Y-72441851D01*
X121465379Y-72441852D01*
X121556286Y-72542814D01*
X121588747Y-72578866D01*
X121677270Y-72643182D01*
X121737904Y-72687235D01*
X121743248Y-72691118D01*
X121749276Y-72693802D01*
X121749278Y-72693803D01*
X121857704Y-72742077D01*
X121917712Y-72768794D01*
X121983365Y-72782749D01*
X122098056Y-72807128D01*
X122098061Y-72807128D01*
X122104513Y-72808500D01*
X122295487Y-72808500D01*
X122301939Y-72807128D01*
X122301944Y-72807128D01*
X122416635Y-72782749D01*
X122482288Y-72768794D01*
X122542296Y-72742077D01*
X122650722Y-72693803D01*
X122650724Y-72693802D01*
X122656752Y-72691118D01*
X122662091Y-72687239D01*
X122662098Y-72687235D01*
X122668528Y-72682563D01*
X122742587Y-72658500D01*
X126162051Y-72658500D01*
X126181001Y-72659933D01*
X126195236Y-72662099D01*
X126195240Y-72662099D01*
X126202470Y-72663199D01*
X126209762Y-72662606D01*
X126209765Y-72662606D01*
X126255139Y-72658915D01*
X126265354Y-72658500D01*
X126273414Y-72658500D01*
X126286704Y-72656951D01*
X126301628Y-72655211D01*
X126306003Y-72654778D01*
X126371460Y-72649454D01*
X126371463Y-72649453D01*
X126378758Y-72648860D01*
X126385722Y-72646604D01*
X126391681Y-72645413D01*
X126397536Y-72644029D01*
X126404802Y-72643182D01*
X126473448Y-72618265D01*
X126477576Y-72616848D01*
X126540057Y-72596607D01*
X126540059Y-72596606D01*
X126547020Y-72594351D01*
X126553275Y-72590555D01*
X126558749Y-72588049D01*
X126564179Y-72585330D01*
X126571058Y-72582833D01*
X126577179Y-72578820D01*
X126632097Y-72542814D01*
X126635814Y-72540469D01*
X126651200Y-72531132D01*
X126719813Y-72512891D01*
X126787396Y-72534641D01*
X126825686Y-72575848D01*
X126860960Y-72636944D01*
X126865378Y-72641851D01*
X126865379Y-72641852D01*
X126979678Y-72768794D01*
X126988747Y-72778866D01*
X127143248Y-72891118D01*
X127149276Y-72893802D01*
X127149278Y-72893803D01*
X127224148Y-72927137D01*
X127317712Y-72968794D01*
X127385421Y-72983186D01*
X127498056Y-73007128D01*
X127498061Y-73007128D01*
X127504513Y-73008500D01*
X127695487Y-73008500D01*
X127701939Y-73007128D01*
X127701944Y-73007128D01*
X127814579Y-72983186D01*
X127882288Y-72968794D01*
X127975852Y-72927137D01*
X128050722Y-72893803D01*
X128050724Y-72893802D01*
X128056752Y-72891118D01*
X128211253Y-72778866D01*
X128220322Y-72768794D01*
X128334621Y-72641852D01*
X128334622Y-72641851D01*
X128339040Y-72636944D01*
X128434527Y-72471556D01*
X128493542Y-72289928D01*
X128494872Y-72277279D01*
X128512814Y-72106565D01*
X128513504Y-72100000D01*
X128511756Y-72083365D01*
X128499091Y-71962863D01*
X128511863Y-71893025D01*
X128535306Y-71860598D01*
X133639484Y-66756420D01*
X133676428Y-66730814D01*
X133723505Y-66709409D01*
X133812367Y-66669006D01*
X133984891Y-66546626D01*
X134131161Y-66393830D01*
X134245900Y-66216132D01*
X134291760Y-66102338D01*
X134322722Y-66025512D01*
X134322723Y-66025509D01*
X134324966Y-66019943D01*
X134365508Y-65812343D01*
X134365780Y-65806781D01*
X134365780Y-65756526D01*
X134688780Y-65756526D01*
X134703828Y-65914246D01*
X134763372Y-66117214D01*
X134766114Y-66122537D01*
X134766116Y-66122542D01*
X134852952Y-66291144D01*
X134860222Y-66305260D01*
X134990884Y-66471600D01*
X134995415Y-66475532D01*
X134995418Y-66475535D01*
X135081338Y-66550092D01*
X135150643Y-66610232D01*
X135155829Y-66613232D01*
X135155833Y-66613235D01*
X135317945Y-66707019D01*
X135333734Y-66716153D01*
X135533551Y-66785541D01*
X135539486Y-66786402D01*
X135539488Y-66786402D01*
X135736944Y-66815032D01*
X135736947Y-66815032D01*
X135742884Y-66815893D01*
X135954179Y-66806113D01*
X136094847Y-66772212D01*
X136153981Y-66757961D01*
X136153983Y-66757960D01*
X136159814Y-66756555D01*
X136165272Y-66754073D01*
X136165276Y-66754072D01*
X136312050Y-66687337D01*
X136352367Y-66669006D01*
X136524891Y-66546626D01*
X136671161Y-66393830D01*
X136785900Y-66216132D01*
X136831760Y-66102338D01*
X136862722Y-66025512D01*
X136862723Y-66025509D01*
X136864966Y-66019943D01*
X136905508Y-65812343D01*
X136905780Y-65806781D01*
X136905780Y-65756526D01*
X137228780Y-65756526D01*
X137243828Y-65914246D01*
X137303372Y-66117214D01*
X137306114Y-66122537D01*
X137306116Y-66122542D01*
X137392952Y-66291144D01*
X137400222Y-66305260D01*
X137530884Y-66471600D01*
X137535415Y-66475532D01*
X137535418Y-66475535D01*
X137621338Y-66550092D01*
X137690643Y-66610232D01*
X137695829Y-66613232D01*
X137695833Y-66613235D01*
X137857945Y-66707019D01*
X137873734Y-66716153D01*
X138073551Y-66785541D01*
X138079486Y-66786402D01*
X138079488Y-66786402D01*
X138276944Y-66815032D01*
X138276947Y-66815032D01*
X138282884Y-66815893D01*
X138494179Y-66806113D01*
X138634847Y-66772212D01*
X138693981Y-66757961D01*
X138693983Y-66757960D01*
X138699814Y-66756555D01*
X138705272Y-66754073D01*
X138705276Y-66754072D01*
X138852050Y-66687337D01*
X138892367Y-66669006D01*
X139064891Y-66546626D01*
X139211161Y-66393830D01*
X139325900Y-66216132D01*
X139371760Y-66102338D01*
X139402722Y-66025512D01*
X139402723Y-66025509D01*
X139404966Y-66019943D01*
X139445508Y-65812343D01*
X139445780Y-65806781D01*
X139445780Y-65756526D01*
X139768780Y-65756526D01*
X139783828Y-65914246D01*
X139843372Y-66117214D01*
X139846114Y-66122537D01*
X139846116Y-66122542D01*
X139932952Y-66291144D01*
X139940222Y-66305260D01*
X140070884Y-66471600D01*
X140075415Y-66475532D01*
X140075418Y-66475535D01*
X140161338Y-66550092D01*
X140230643Y-66610232D01*
X140235829Y-66613232D01*
X140235833Y-66613235D01*
X140397945Y-66707019D01*
X140413734Y-66716153D01*
X140613551Y-66785541D01*
X140619486Y-66786402D01*
X140619488Y-66786402D01*
X140816944Y-66815032D01*
X140816947Y-66815032D01*
X140822884Y-66815893D01*
X141034179Y-66806113D01*
X141174847Y-66772212D01*
X141233981Y-66757961D01*
X141233983Y-66757960D01*
X141239814Y-66756555D01*
X141245272Y-66754073D01*
X141245276Y-66754072D01*
X141392050Y-66687337D01*
X141432367Y-66669006D01*
X141604891Y-66546626D01*
X141751161Y-66393830D01*
X141865900Y-66216132D01*
X141911760Y-66102338D01*
X141942722Y-66025512D01*
X141942723Y-66025509D01*
X141944966Y-66019943D01*
X141985508Y-65812343D01*
X141985780Y-65806781D01*
X141985780Y-65756526D01*
X142308780Y-65756526D01*
X142323828Y-65914246D01*
X142383372Y-66117214D01*
X142386114Y-66122537D01*
X142386116Y-66122542D01*
X142472952Y-66291144D01*
X142480222Y-66305260D01*
X142610884Y-66471600D01*
X142615415Y-66475532D01*
X142615418Y-66475535D01*
X142701338Y-66550092D01*
X142770643Y-66610232D01*
X142775829Y-66613232D01*
X142775833Y-66613235D01*
X142937945Y-66707019D01*
X142953734Y-66716153D01*
X143153551Y-66785541D01*
X143159486Y-66786402D01*
X143159488Y-66786402D01*
X143356944Y-66815032D01*
X143356947Y-66815032D01*
X143362884Y-66815893D01*
X143574179Y-66806113D01*
X143714847Y-66772212D01*
X143773981Y-66757961D01*
X143773983Y-66757960D01*
X143779814Y-66756555D01*
X143785272Y-66754073D01*
X143785276Y-66754072D01*
X143932050Y-66687337D01*
X143972367Y-66669006D01*
X144144891Y-66546626D01*
X144291161Y-66393830D01*
X144405900Y-66216132D01*
X144451760Y-66102338D01*
X144482722Y-66025512D01*
X144482723Y-66025509D01*
X144484966Y-66019943D01*
X144525508Y-65812343D01*
X144525780Y-65806781D01*
X144525780Y-65756526D01*
X144848780Y-65756526D01*
X144863828Y-65914246D01*
X144923372Y-66117214D01*
X144926114Y-66122537D01*
X144926116Y-66122542D01*
X145012952Y-66291144D01*
X145020222Y-66305260D01*
X145150884Y-66471600D01*
X145155415Y-66475532D01*
X145155418Y-66475535D01*
X145241338Y-66550092D01*
X145310643Y-66610232D01*
X145315829Y-66613232D01*
X145315833Y-66613235D01*
X145477945Y-66707019D01*
X145493734Y-66716153D01*
X145693551Y-66785541D01*
X145699486Y-66786402D01*
X145699488Y-66786402D01*
X145896944Y-66815032D01*
X145896947Y-66815032D01*
X145902884Y-66815893D01*
X146114179Y-66806113D01*
X146254847Y-66772212D01*
X146313981Y-66757961D01*
X146313983Y-66757960D01*
X146319814Y-66756555D01*
X146325272Y-66754073D01*
X146325276Y-66754072D01*
X146472050Y-66687337D01*
X146512367Y-66669006D01*
X146684891Y-66546626D01*
X146831161Y-66393830D01*
X146945900Y-66216132D01*
X146991760Y-66102338D01*
X147022722Y-66025512D01*
X147022723Y-66025509D01*
X147024966Y-66019943D01*
X147065508Y-65812343D01*
X147065780Y-65806781D01*
X147065780Y-64850834D01*
X147050732Y-64693114D01*
X146991188Y-64490146D01*
X146919009Y-64350001D01*
X146897084Y-64307431D01*
X146897082Y-64307428D01*
X146894338Y-64302100D01*
X146763676Y-64135760D01*
X146759145Y-64131828D01*
X146759142Y-64131825D01*
X146608447Y-64001059D01*
X146603917Y-63997128D01*
X146598731Y-63994128D01*
X146598727Y-63994125D01*
X146426022Y-63894213D01*
X146420826Y-63891207D01*
X146221009Y-63821819D01*
X146215074Y-63820958D01*
X146215072Y-63820958D01*
X146017616Y-63792328D01*
X146017613Y-63792328D01*
X146011676Y-63791467D01*
X145800381Y-63801247D01*
X145669203Y-63832861D01*
X145600579Y-63849399D01*
X145600577Y-63849400D01*
X145594746Y-63850805D01*
X145589288Y-63853287D01*
X145589284Y-63853288D01*
X145499225Y-63894236D01*
X145402193Y-63938354D01*
X145229669Y-64060734D01*
X145083399Y-64213530D01*
X144968660Y-64391228D01*
X144966417Y-64396794D01*
X144898073Y-64566379D01*
X144889594Y-64587417D01*
X144849052Y-64795017D01*
X144848780Y-64800579D01*
X144848780Y-65756526D01*
X144525780Y-65756526D01*
X144525780Y-64850834D01*
X144510732Y-64693114D01*
X144451188Y-64490146D01*
X144379009Y-64350001D01*
X144357084Y-64307431D01*
X144357082Y-64307428D01*
X144354338Y-64302100D01*
X144223676Y-64135760D01*
X144219145Y-64131828D01*
X144219142Y-64131825D01*
X144068447Y-64001059D01*
X144063917Y-63997128D01*
X144058731Y-63994128D01*
X144058727Y-63994125D01*
X143886022Y-63894213D01*
X143880826Y-63891207D01*
X143681009Y-63821819D01*
X143675074Y-63820958D01*
X143675072Y-63820958D01*
X143477616Y-63792328D01*
X143477613Y-63792328D01*
X143471676Y-63791467D01*
X143260381Y-63801247D01*
X143129203Y-63832861D01*
X143060579Y-63849399D01*
X143060577Y-63849400D01*
X143054746Y-63850805D01*
X143049288Y-63853287D01*
X143049284Y-63853288D01*
X142959225Y-63894236D01*
X142862193Y-63938354D01*
X142689669Y-64060734D01*
X142543399Y-64213530D01*
X142428660Y-64391228D01*
X142426417Y-64396794D01*
X142358073Y-64566379D01*
X142349594Y-64587417D01*
X142309052Y-64795017D01*
X142308780Y-64800579D01*
X142308780Y-65756526D01*
X141985780Y-65756526D01*
X141985780Y-64850834D01*
X141970732Y-64693114D01*
X141911188Y-64490146D01*
X141839009Y-64350001D01*
X141817084Y-64307431D01*
X141817082Y-64307428D01*
X141814338Y-64302100D01*
X141683676Y-64135760D01*
X141679145Y-64131828D01*
X141679142Y-64131825D01*
X141528447Y-64001059D01*
X141523917Y-63997128D01*
X141518731Y-63994128D01*
X141518727Y-63994125D01*
X141346022Y-63894213D01*
X141340826Y-63891207D01*
X141141009Y-63821819D01*
X141135074Y-63820958D01*
X141135072Y-63820958D01*
X140937616Y-63792328D01*
X140937613Y-63792328D01*
X140931676Y-63791467D01*
X140720381Y-63801247D01*
X140589203Y-63832861D01*
X140520579Y-63849399D01*
X140520577Y-63849400D01*
X140514746Y-63850805D01*
X140509288Y-63853287D01*
X140509284Y-63853288D01*
X140419225Y-63894236D01*
X140322193Y-63938354D01*
X140149669Y-64060734D01*
X140003399Y-64213530D01*
X139888660Y-64391228D01*
X139886417Y-64396794D01*
X139818073Y-64566379D01*
X139809594Y-64587417D01*
X139769052Y-64795017D01*
X139768780Y-64800579D01*
X139768780Y-65756526D01*
X139445780Y-65756526D01*
X139445780Y-64850834D01*
X139430732Y-64693114D01*
X139371188Y-64490146D01*
X139299009Y-64350001D01*
X139277084Y-64307431D01*
X139277082Y-64307428D01*
X139274338Y-64302100D01*
X139143676Y-64135760D01*
X139139145Y-64131828D01*
X139139142Y-64131825D01*
X138988447Y-64001059D01*
X138983917Y-63997128D01*
X138978731Y-63994128D01*
X138978727Y-63994125D01*
X138806022Y-63894213D01*
X138800826Y-63891207D01*
X138601009Y-63821819D01*
X138595074Y-63820958D01*
X138595072Y-63820958D01*
X138397616Y-63792328D01*
X138397613Y-63792328D01*
X138391676Y-63791467D01*
X138180381Y-63801247D01*
X138049203Y-63832861D01*
X137980579Y-63849399D01*
X137980577Y-63849400D01*
X137974746Y-63850805D01*
X137969288Y-63853287D01*
X137969284Y-63853288D01*
X137879225Y-63894236D01*
X137782193Y-63938354D01*
X137609669Y-64060734D01*
X137463399Y-64213530D01*
X137348660Y-64391228D01*
X137346417Y-64396794D01*
X137278073Y-64566379D01*
X137269594Y-64587417D01*
X137229052Y-64795017D01*
X137228780Y-64800579D01*
X137228780Y-65756526D01*
X136905780Y-65756526D01*
X136905780Y-64850834D01*
X136890732Y-64693114D01*
X136831188Y-64490146D01*
X136759009Y-64350001D01*
X136737084Y-64307431D01*
X136737082Y-64307428D01*
X136734338Y-64302100D01*
X136603676Y-64135760D01*
X136599145Y-64131828D01*
X136599142Y-64131825D01*
X136448447Y-64001059D01*
X136443917Y-63997128D01*
X136438731Y-63994128D01*
X136438727Y-63994125D01*
X136266022Y-63894213D01*
X136260826Y-63891207D01*
X136061009Y-63821819D01*
X136055074Y-63820958D01*
X136055072Y-63820958D01*
X135857616Y-63792328D01*
X135857613Y-63792328D01*
X135851676Y-63791467D01*
X135640381Y-63801247D01*
X135509203Y-63832861D01*
X135440579Y-63849399D01*
X135440577Y-63849400D01*
X135434746Y-63850805D01*
X135429288Y-63853287D01*
X135429284Y-63853288D01*
X135339225Y-63894236D01*
X135242193Y-63938354D01*
X135069669Y-64060734D01*
X134923399Y-64213530D01*
X134808660Y-64391228D01*
X134806417Y-64396794D01*
X134738073Y-64566379D01*
X134729594Y-64587417D01*
X134689052Y-64795017D01*
X134688780Y-64800579D01*
X134688780Y-65756526D01*
X134365780Y-65756526D01*
X134365780Y-64850834D01*
X134350732Y-64693114D01*
X134291188Y-64490146D01*
X134219009Y-64350001D01*
X134197084Y-64307431D01*
X134197082Y-64307428D01*
X134194338Y-64302100D01*
X134063676Y-64135760D01*
X134059145Y-64131828D01*
X134059142Y-64131825D01*
X133908447Y-64001059D01*
X133903917Y-63997128D01*
X133898731Y-63994128D01*
X133898727Y-63994125D01*
X133726022Y-63894213D01*
X133720826Y-63891207D01*
X133521009Y-63821819D01*
X133515074Y-63820958D01*
X133515072Y-63820958D01*
X133317616Y-63792328D01*
X133317613Y-63792328D01*
X133311676Y-63791467D01*
X133100381Y-63801247D01*
X132969203Y-63832861D01*
X132900579Y-63849399D01*
X132900577Y-63849400D01*
X132894746Y-63850805D01*
X132889288Y-63853287D01*
X132889284Y-63853288D01*
X132799225Y-63894236D01*
X132702193Y-63938354D01*
X132529669Y-64060734D01*
X132383399Y-64213530D01*
X132268660Y-64391228D01*
X132266417Y-64396794D01*
X132198073Y-64566379D01*
X132189594Y-64587417D01*
X132149052Y-64795017D01*
X132148780Y-64800579D01*
X132148780Y-65756526D01*
X132163828Y-65914246D01*
X132223372Y-66117214D01*
X132266523Y-66200996D01*
X132270844Y-66209386D01*
X132284253Y-66279104D01*
X132257840Y-66345005D01*
X132247923Y-66356173D01*
X130936266Y-67667830D01*
X130873954Y-67701856D01*
X130803139Y-67696791D01*
X130746303Y-67654244D01*
X130721492Y-67587724D01*
X130727338Y-67539799D01*
X130741502Y-67496206D01*
X130743542Y-67489928D01*
X130763504Y-67300000D01*
X130743542Y-67110072D01*
X130699243Y-66973734D01*
X130697215Y-66902767D01*
X130733878Y-66841969D01*
X130797590Y-66810643D01*
X130813249Y-66808933D01*
X130874179Y-66806113D01*
X131014847Y-66772212D01*
X131073981Y-66757961D01*
X131073983Y-66757960D01*
X131079814Y-66756555D01*
X131085272Y-66754073D01*
X131085276Y-66754072D01*
X131232050Y-66687337D01*
X131272367Y-66669006D01*
X131444891Y-66546626D01*
X131591161Y-66393830D01*
X131705900Y-66216132D01*
X131751760Y-66102338D01*
X131782722Y-66025512D01*
X131782723Y-66025509D01*
X131784966Y-66019943D01*
X131825508Y-65812343D01*
X131825780Y-65806781D01*
X131825780Y-64850834D01*
X131810732Y-64693114D01*
X131751188Y-64490146D01*
X131679009Y-64350001D01*
X131657084Y-64307431D01*
X131657082Y-64307428D01*
X131654338Y-64302100D01*
X131523676Y-64135760D01*
X131519145Y-64131828D01*
X131519142Y-64131825D01*
X131368447Y-64001059D01*
X131363917Y-63997128D01*
X131358731Y-63994128D01*
X131358727Y-63994125D01*
X131186022Y-63894213D01*
X131180826Y-63891207D01*
X130981009Y-63821819D01*
X130975074Y-63820958D01*
X130975072Y-63820958D01*
X130777616Y-63792328D01*
X130777613Y-63792328D01*
X130771676Y-63791467D01*
X130560381Y-63801247D01*
X130429203Y-63832861D01*
X130360579Y-63849399D01*
X130360577Y-63849400D01*
X130354746Y-63850805D01*
X130349288Y-63853287D01*
X130349284Y-63853288D01*
X130259225Y-63894236D01*
X130162193Y-63938354D01*
X129989669Y-64060734D01*
X129843399Y-64213530D01*
X129728660Y-64391228D01*
X129726417Y-64396794D01*
X129658073Y-64566379D01*
X129649594Y-64587417D01*
X129609052Y-64795017D01*
X129608780Y-64800579D01*
X129608780Y-65756526D01*
X129623828Y-65914246D01*
X129683372Y-66117214D01*
X129742194Y-66231423D01*
X129755602Y-66301139D01*
X129729189Y-66367040D01*
X129671341Y-66408199D01*
X129656374Y-66412360D01*
X129631973Y-66417547D01*
X129567712Y-66431206D01*
X129561682Y-66433891D01*
X129561681Y-66433891D01*
X129399278Y-66506197D01*
X129399276Y-66506198D01*
X129393248Y-66508882D01*
X129387907Y-66512762D01*
X129387906Y-66512763D01*
X129347254Y-66542299D01*
X129238747Y-66621134D01*
X129234326Y-66626044D01*
X129234325Y-66626045D01*
X129115548Y-66757961D01*
X129110960Y-66763056D01*
X129052686Y-66863990D01*
X129026812Y-66908805D01*
X129015473Y-66928444D01*
X128956458Y-67110072D01*
X128936496Y-67300000D01*
X128956458Y-67489928D01*
X129015473Y-67671556D01*
X129018776Y-67677278D01*
X129018777Y-67677279D01*
X129074619Y-67773999D01*
X129091500Y-67836999D01*
X129091500Y-67912750D01*
X129071498Y-67980871D01*
X129054595Y-68001845D01*
X128132364Y-68924076D01*
X128070052Y-68958102D01*
X127999237Y-68953037D01*
X127949637Y-68919294D01*
X127861253Y-68821134D01*
X127706752Y-68708882D01*
X127700724Y-68706198D01*
X127700722Y-68706197D01*
X127538319Y-68633891D01*
X127538318Y-68633891D01*
X127532288Y-68631206D01*
X127438887Y-68611353D01*
X127351944Y-68592872D01*
X127351939Y-68592872D01*
X127345487Y-68591500D01*
X127289594Y-68591500D01*
X127221473Y-68571498D01*
X127200499Y-68554595D01*
X125668921Y-67023017D01*
X125634895Y-66960705D01*
X125639960Y-66889890D01*
X125682507Y-66833054D01*
X125752189Y-66808057D01*
X125775246Y-66806989D01*
X125794179Y-66806113D01*
X125934847Y-66772212D01*
X125993981Y-66757961D01*
X125993983Y-66757960D01*
X125999814Y-66756555D01*
X126005272Y-66754073D01*
X126005276Y-66754072D01*
X126152050Y-66687337D01*
X126192367Y-66669006D01*
X126364891Y-66546626D01*
X126511161Y-66393830D01*
X126625900Y-66216132D01*
X126671760Y-66102338D01*
X126702722Y-66025512D01*
X126702723Y-66025509D01*
X126704966Y-66019943D01*
X126745508Y-65812343D01*
X126745780Y-65806781D01*
X126745780Y-65756526D01*
X127068780Y-65756526D01*
X127083828Y-65914246D01*
X127143372Y-66117214D01*
X127146114Y-66122537D01*
X127146116Y-66122542D01*
X127232952Y-66291144D01*
X127240222Y-66305260D01*
X127370884Y-66471600D01*
X127375415Y-66475532D01*
X127375418Y-66475535D01*
X127461338Y-66550092D01*
X127530643Y-66610232D01*
X127535829Y-66613232D01*
X127535833Y-66613235D01*
X127697945Y-66707019D01*
X127713734Y-66716153D01*
X127913551Y-66785541D01*
X127919486Y-66786402D01*
X127919488Y-66786402D01*
X128116944Y-66815032D01*
X128116947Y-66815032D01*
X128122884Y-66815893D01*
X128334179Y-66806113D01*
X128474847Y-66772212D01*
X128533981Y-66757961D01*
X128533983Y-66757960D01*
X128539814Y-66756555D01*
X128545272Y-66754073D01*
X128545276Y-66754072D01*
X128692050Y-66687337D01*
X128732367Y-66669006D01*
X128904891Y-66546626D01*
X129051161Y-66393830D01*
X129165900Y-66216132D01*
X129211760Y-66102338D01*
X129242722Y-66025512D01*
X129242723Y-66025509D01*
X129244966Y-66019943D01*
X129285508Y-65812343D01*
X129285780Y-65806781D01*
X129285780Y-64850834D01*
X129270732Y-64693114D01*
X129211188Y-64490146D01*
X129139009Y-64350001D01*
X129117084Y-64307431D01*
X129117082Y-64307428D01*
X129114338Y-64302100D01*
X128983676Y-64135760D01*
X128979145Y-64131828D01*
X128979142Y-64131825D01*
X128828447Y-64001059D01*
X128823917Y-63997128D01*
X128818731Y-63994128D01*
X128818727Y-63994125D01*
X128646022Y-63894213D01*
X128640826Y-63891207D01*
X128441009Y-63821819D01*
X128435074Y-63820958D01*
X128435072Y-63820958D01*
X128237616Y-63792328D01*
X128237613Y-63792328D01*
X128231676Y-63791467D01*
X128020381Y-63801247D01*
X127889203Y-63832861D01*
X127820579Y-63849399D01*
X127820577Y-63849400D01*
X127814746Y-63850805D01*
X127809288Y-63853287D01*
X127809284Y-63853288D01*
X127719225Y-63894236D01*
X127622193Y-63938354D01*
X127449669Y-64060734D01*
X127303399Y-64213530D01*
X127188660Y-64391228D01*
X127186417Y-64396794D01*
X127118073Y-64566379D01*
X127109594Y-64587417D01*
X127069052Y-64795017D01*
X127068780Y-64800579D01*
X127068780Y-65756526D01*
X126745780Y-65756526D01*
X126745780Y-64850834D01*
X126730732Y-64693114D01*
X126671188Y-64490146D01*
X126599009Y-64350001D01*
X126577084Y-64307431D01*
X126577082Y-64307428D01*
X126574338Y-64302100D01*
X126443676Y-64135760D01*
X126439145Y-64131828D01*
X126439142Y-64131825D01*
X126288447Y-64001059D01*
X126283917Y-63997128D01*
X126278731Y-63994128D01*
X126278727Y-63994125D01*
X126106022Y-63894213D01*
X126100826Y-63891207D01*
X125901009Y-63821819D01*
X125895074Y-63820958D01*
X125895072Y-63820958D01*
X125697616Y-63792328D01*
X125697613Y-63792328D01*
X125691676Y-63791467D01*
X125480381Y-63801247D01*
X125349203Y-63832861D01*
X125280579Y-63849399D01*
X125280577Y-63849400D01*
X125274746Y-63850805D01*
X125269288Y-63853287D01*
X125269284Y-63853288D01*
X125179225Y-63894236D01*
X125082193Y-63938354D01*
X124909669Y-64060734D01*
X124763399Y-64213530D01*
X124648660Y-64391228D01*
X124646417Y-64396794D01*
X124578073Y-64566379D01*
X124569594Y-64587417D01*
X124529052Y-64795017D01*
X124528780Y-64800579D01*
X124528780Y-65578684D01*
X124508778Y-65646805D01*
X124455122Y-65693298D01*
X124384848Y-65703402D01*
X124320268Y-65673908D01*
X124313685Y-65667779D01*
X124242685Y-65596779D01*
X124208659Y-65534467D01*
X124205780Y-65507684D01*
X124205780Y-64850834D01*
X124190732Y-64693114D01*
X124131188Y-64490146D01*
X124059009Y-64350001D01*
X124037084Y-64307431D01*
X124037082Y-64307428D01*
X124034338Y-64302100D01*
X123903676Y-64135760D01*
X123899145Y-64131828D01*
X123899142Y-64131825D01*
X123748447Y-64001059D01*
X123743917Y-63997128D01*
X123738731Y-63994128D01*
X123738727Y-63994125D01*
X123566022Y-63894213D01*
X123560826Y-63891207D01*
X123361009Y-63821819D01*
X123355074Y-63820958D01*
X123355072Y-63820958D01*
X123157616Y-63792328D01*
X123157613Y-63792328D01*
X123151676Y-63791467D01*
X122940381Y-63801247D01*
X122809203Y-63832861D01*
X122740579Y-63849399D01*
X122740577Y-63849400D01*
X122734746Y-63850805D01*
X122729288Y-63853287D01*
X122729284Y-63853288D01*
X122639225Y-63894236D01*
X122542193Y-63938354D01*
X122537305Y-63941821D01*
X122532102Y-63944813D01*
X122530938Y-63942789D01*
X122473526Y-63962553D01*
X122404559Y-63945700D01*
X122355651Y-63894236D01*
X122342331Y-63824500D01*
X122368827Y-63758633D01*
X122378644Y-63747591D01*
X122769383Y-63356851D01*
X122779527Y-63347749D01*
X122804218Y-63327897D01*
X122809025Y-63324032D01*
X122841292Y-63285578D01*
X122844472Y-63281931D01*
X122846115Y-63280119D01*
X122848309Y-63277925D01*
X122875642Y-63244651D01*
X122876348Y-63243800D01*
X122901013Y-63214406D01*
X122936154Y-63172526D01*
X122938722Y-63167856D01*
X122942103Y-63163739D01*
X122985977Y-63081914D01*
X122986606Y-63080755D01*
X123028462Y-63004619D01*
X123028465Y-63004611D01*
X123031433Y-62999213D01*
X123033045Y-62994131D01*
X123035562Y-62989437D01*
X123062762Y-62900469D01*
X123063108Y-62899358D01*
X123089373Y-62816563D01*
X123091235Y-62810694D01*
X123091829Y-62805398D01*
X123093387Y-62800302D01*
X123102790Y-62707743D01*
X123102911Y-62706607D01*
X123108500Y-62656773D01*
X123108500Y-62653246D01*
X123108555Y-62652261D01*
X123109002Y-62646581D01*
X123113374Y-62603538D01*
X123109059Y-62557891D01*
X123108500Y-62546033D01*
X123108500Y-60775231D01*
X123107814Y-60768227D01*
X123094681Y-60634301D01*
X123094080Y-60628167D01*
X123036916Y-60438831D01*
X122944066Y-60264204D01*
X122873709Y-60177938D01*
X122822960Y-60115713D01*
X122822957Y-60115710D01*
X122819065Y-60110938D01*
X122812724Y-60105692D01*
X122671425Y-59988799D01*
X122671421Y-59988797D01*
X122666675Y-59984870D01*
X122492701Y-59890802D01*
X122303768Y-59832318D01*
X122297643Y-59831674D01*
X122297642Y-59831674D01*
X122113204Y-59812289D01*
X122113202Y-59812289D01*
X122107075Y-59811645D01*
X122024576Y-59819153D01*
X121916251Y-59829011D01*
X121916248Y-59829012D01*
X121910112Y-59829570D01*
X121904206Y-59831308D01*
X121904202Y-59831309D01*
X121799076Y-59862249D01*
X121720381Y-59885410D01*
X121714923Y-59888263D01*
X121714919Y-59888265D01*
X121624147Y-59935720D01*
X121545110Y-59977040D01*
X121390975Y-60100968D01*
X121263846Y-60252474D01*
X121260879Y-60257872D01*
X121260875Y-60257877D01*
X121257397Y-60264204D01*
X121168567Y-60425787D01*
X121166706Y-60431654D01*
X121166705Y-60431656D01*
X121110627Y-60608436D01*
X121108765Y-60614306D01*
X121091500Y-60768227D01*
X121091500Y-62130074D01*
X121071498Y-62198195D01*
X121054596Y-62219169D01*
X120819171Y-62454595D01*
X120756858Y-62488620D01*
X120730075Y-62491500D01*
X103435440Y-62491500D01*
X103421832Y-62490763D01*
X103390336Y-62487341D01*
X103390332Y-62487341D01*
X103384211Y-62486676D01*
X103366211Y-62488251D01*
X103334209Y-62491050D01*
X103329384Y-62491379D01*
X103326913Y-62491500D01*
X103323831Y-62491500D01*
X103301363Y-62493703D01*
X103281089Y-62495691D01*
X103279774Y-62495813D01*
X103247513Y-62498636D01*
X103187187Y-62503913D01*
X103182068Y-62505400D01*
X103176767Y-62505920D01*
X103087794Y-62532782D01*
X103086654Y-62533120D01*
X102997263Y-62559091D01*
X102992529Y-62561545D01*
X102987431Y-62563084D01*
X102981987Y-62565978D01*
X102981986Y-62565979D01*
X102905431Y-62606684D01*
X102904263Y-62607298D01*
X102899701Y-62609663D01*
X102821674Y-62650108D01*
X102817511Y-62653431D01*
X102812804Y-62655934D01*
X102808030Y-62659828D01*
X102808028Y-62659829D01*
X102740705Y-62714737D01*
X102739760Y-62715500D01*
X102700627Y-62746739D01*
X102698136Y-62749230D01*
X102697409Y-62749880D01*
X102693063Y-62753592D01*
X102674188Y-62768987D01*
X102659538Y-62780935D01*
X102655615Y-62785677D01*
X102655613Y-62785679D01*
X102630303Y-62816273D01*
X102622313Y-62825053D01*
X102507901Y-62939465D01*
X102497758Y-62948567D01*
X102468255Y-62972288D01*
X102445662Y-62999213D01*
X102435989Y-63010741D01*
X102432808Y-63014389D01*
X102431165Y-63016201D01*
X102428971Y-63018395D01*
X102401638Y-63051669D01*
X102400976Y-63052467D01*
X102341126Y-63123794D01*
X102338558Y-63128464D01*
X102335177Y-63132581D01*
X102311229Y-63177244D01*
X102291303Y-63214406D01*
X102290674Y-63215565D01*
X102248818Y-63291701D01*
X102248815Y-63291709D01*
X102245847Y-63297107D01*
X102244235Y-63302189D01*
X102241718Y-63306883D01*
X102214518Y-63395851D01*
X102214198Y-63396879D01*
X102186045Y-63485626D01*
X102185451Y-63490922D01*
X102183893Y-63496018D01*
X102183270Y-63502154D01*
X102174498Y-63588507D01*
X102174369Y-63589713D01*
X102168780Y-63639547D01*
X102168780Y-63643074D01*
X102168725Y-63644059D01*
X102168278Y-63649739D01*
X102163906Y-63692782D01*
X102164486Y-63698913D01*
X102168221Y-63738429D01*
X102168780Y-63750287D01*
X102168780Y-63911139D01*
X102148778Y-63979260D01*
X102115680Y-64013909D01*
X102049669Y-64060734D01*
X101903399Y-64213530D01*
X101788660Y-64391228D01*
X101786417Y-64396794D01*
X101718073Y-64566379D01*
X101709594Y-64587417D01*
X101669052Y-64795017D01*
X101668780Y-64800579D01*
X101668780Y-65756526D01*
X100508000Y-65756526D01*
X100508000Y-54042277D01*
X102137009Y-54042277D01*
X102162625Y-54310769D01*
X102163710Y-54315203D01*
X102163711Y-54315209D01*
X102225645Y-54568312D01*
X102226731Y-54572750D01*
X102327985Y-54822733D01*
X102464265Y-55055482D01*
X102467118Y-55059049D01*
X102584686Y-55206060D01*
X102632716Y-55266119D01*
X102829809Y-55450234D01*
X103051416Y-55603968D01*
X103055499Y-55605999D01*
X103055502Y-55606001D01*
X103171013Y-55663466D01*
X103292894Y-55724101D01*
X103297228Y-55725522D01*
X103297231Y-55725523D01*
X103544853Y-55806698D01*
X103544859Y-55806699D01*
X103549186Y-55808118D01*
X103553677Y-55808898D01*
X103553678Y-55808898D01*
X103811140Y-55853601D01*
X103811148Y-55853602D01*
X103814921Y-55854257D01*
X103818758Y-55854448D01*
X103898578Y-55858422D01*
X103898586Y-55858422D01*
X103900149Y-55858500D01*
X104068512Y-55858500D01*
X104070780Y-55858335D01*
X104070792Y-55858335D01*
X104201884Y-55848823D01*
X104269004Y-55843953D01*
X104273459Y-55842969D01*
X104273462Y-55842969D01*
X104527912Y-55786791D01*
X104527916Y-55786790D01*
X104532372Y-55785806D01*
X104658480Y-55738028D01*
X104780318Y-55691868D01*
X104780321Y-55691867D01*
X104784588Y-55690250D01*
X104976249Y-55583792D01*
X105016375Y-55561504D01*
X105016376Y-55561503D01*
X105020368Y-55559286D01*
X105234773Y-55395657D01*
X105423312Y-55202792D01*
X105582034Y-54984730D01*
X105667210Y-54822837D01*
X105675034Y-54807966D01*
X109668257Y-54807966D01*
X109698565Y-54942446D01*
X109701645Y-54952275D01*
X109781770Y-55149603D01*
X109786413Y-55158794D01*
X109897694Y-55340388D01*
X109903777Y-55348699D01*
X110043213Y-55509667D01*
X110050580Y-55516883D01*
X110214434Y-55652916D01*
X110222881Y-55658831D01*
X110406756Y-55766279D01*
X110416042Y-55770729D01*
X110615001Y-55846703D01*
X110624899Y-55849579D01*
X110728250Y-55870606D01*
X110742299Y-55869410D01*
X110746000Y-55859065D01*
X110746000Y-55858517D01*
X111254000Y-55858517D01*
X111258064Y-55872359D01*
X111271478Y-55874393D01*
X111278184Y-55873534D01*
X111288262Y-55871392D01*
X111492255Y-55810191D01*
X111501842Y-55806433D01*
X111693095Y-55712739D01*
X111701945Y-55707464D01*
X111875328Y-55583792D01*
X111883200Y-55577139D01*
X112034052Y-55426812D01*
X112040730Y-55418965D01*
X112168022Y-55241819D01*
X112169147Y-55242627D01*
X112216669Y-55198876D01*
X112286607Y-55186661D01*
X112352046Y-55214197D01*
X112379870Y-55246028D01*
X112437690Y-55340383D01*
X112443777Y-55348699D01*
X112583213Y-55509667D01*
X112590580Y-55516883D01*
X112754434Y-55652916D01*
X112762881Y-55658831D01*
X112946756Y-55766279D01*
X112956042Y-55770729D01*
X113155001Y-55846703D01*
X113164899Y-55849579D01*
X113268250Y-55870606D01*
X113282299Y-55869410D01*
X113286000Y-55859065D01*
X113286000Y-55858517D01*
X113794000Y-55858517D01*
X113798064Y-55872359D01*
X113811478Y-55874393D01*
X113818184Y-55873534D01*
X113828262Y-55871392D01*
X114032255Y-55810191D01*
X114041842Y-55806433D01*
X114233095Y-55712739D01*
X114241945Y-55707464D01*
X114415328Y-55583792D01*
X114423200Y-55577139D01*
X114574052Y-55426812D01*
X114580730Y-55418965D01*
X114708022Y-55241819D01*
X114709147Y-55242627D01*
X114756669Y-55198876D01*
X114826607Y-55186661D01*
X114892046Y-55214197D01*
X114919870Y-55246028D01*
X114977690Y-55340383D01*
X114983777Y-55348699D01*
X115123213Y-55509667D01*
X115130580Y-55516883D01*
X115294434Y-55652916D01*
X115302881Y-55658831D01*
X115486756Y-55766279D01*
X115496042Y-55770729D01*
X115695001Y-55846703D01*
X115704899Y-55849579D01*
X115808250Y-55870606D01*
X115822299Y-55869410D01*
X115826000Y-55859065D01*
X115826000Y-55858517D01*
X116334000Y-55858517D01*
X116338064Y-55872359D01*
X116351478Y-55874393D01*
X116358184Y-55873534D01*
X116368262Y-55871392D01*
X116572255Y-55810191D01*
X116581842Y-55806433D01*
X116773095Y-55712739D01*
X116781945Y-55707464D01*
X116955328Y-55583792D01*
X116963200Y-55577139D01*
X117114052Y-55426812D01*
X117120730Y-55418965D01*
X117245003Y-55246020D01*
X117250313Y-55237183D01*
X117344670Y-55046267D01*
X117348469Y-55036672D01*
X117410377Y-54832910D01*
X117412555Y-54822837D01*
X117413986Y-54811962D01*
X117411775Y-54797778D01*
X117398617Y-54794000D01*
X116352115Y-54794000D01*
X116336876Y-54798475D01*
X116335671Y-54799865D01*
X116334000Y-54807548D01*
X116334000Y-55858517D01*
X115826000Y-55858517D01*
X115826000Y-54812115D01*
X115821525Y-54796876D01*
X115820135Y-54795671D01*
X115812452Y-54794000D01*
X113812115Y-54794000D01*
X113796876Y-54798475D01*
X113795671Y-54799865D01*
X113794000Y-54807548D01*
X113794000Y-55858517D01*
X113286000Y-55858517D01*
X113286000Y-54812115D01*
X113281525Y-54796876D01*
X113280135Y-54795671D01*
X113272452Y-54794000D01*
X111272115Y-54794000D01*
X111256876Y-54798475D01*
X111255671Y-54799865D01*
X111254000Y-54807548D01*
X111254000Y-55858517D01*
X110746000Y-55858517D01*
X110746000Y-54812115D01*
X110741525Y-54796876D01*
X110740135Y-54795671D01*
X110732452Y-54794000D01*
X109683225Y-54794000D01*
X109669694Y-54797973D01*
X109668257Y-54807966D01*
X105675034Y-54807966D01*
X105705490Y-54750079D01*
X105705493Y-54750073D01*
X105707615Y-54746039D01*
X105770378Y-54568312D01*
X105795902Y-54496033D01*
X105795902Y-54496032D01*
X105797425Y-54491720D01*
X105849581Y-54227100D01*
X105855616Y-54105875D01*
X105862764Y-53962292D01*
X105862764Y-53962286D01*
X105862991Y-53957723D01*
X105837375Y-53689231D01*
X105834803Y-53678717D01*
X105774355Y-53431688D01*
X105773269Y-53427250D01*
X105672015Y-53177267D01*
X105556149Y-52979382D01*
X105538045Y-52948463D01*
X105538044Y-52948462D01*
X105535735Y-52944518D01*
X105417928Y-52797208D01*
X105370136Y-52737447D01*
X105370135Y-52737445D01*
X105367284Y-52733881D01*
X105170191Y-52549766D01*
X104948584Y-52396032D01*
X104944501Y-52394001D01*
X104944498Y-52393999D01*
X104779606Y-52311967D01*
X104707106Y-52275899D01*
X104702772Y-52274478D01*
X104702769Y-52274477D01*
X104455147Y-52193302D01*
X104455141Y-52193301D01*
X104450814Y-52191882D01*
X104446322Y-52191102D01*
X104188860Y-52146399D01*
X104188852Y-52146398D01*
X104185079Y-52145743D01*
X104173817Y-52145182D01*
X104101422Y-52141578D01*
X104101414Y-52141578D01*
X104099851Y-52141500D01*
X103931488Y-52141500D01*
X103929220Y-52141665D01*
X103929208Y-52141665D01*
X103798116Y-52151177D01*
X103730996Y-52156047D01*
X103726541Y-52157031D01*
X103726538Y-52157031D01*
X103472088Y-52213209D01*
X103472084Y-52213210D01*
X103467628Y-52214194D01*
X103382046Y-52246618D01*
X103219682Y-52308132D01*
X103219679Y-52308133D01*
X103215412Y-52309750D01*
X102979632Y-52440714D01*
X102765227Y-52604343D01*
X102762034Y-52607609D01*
X102762032Y-52607611D01*
X102734447Y-52635829D01*
X102576688Y-52797208D01*
X102417966Y-53015270D01*
X102380239Y-53086978D01*
X102294510Y-53249921D01*
X102294507Y-53249927D01*
X102292385Y-53253961D01*
X102290865Y-53258266D01*
X102290863Y-53258270D01*
X102221768Y-53453929D01*
X102202575Y-53508280D01*
X102196281Y-53540215D01*
X102162240Y-53712926D01*
X102150419Y-53772900D01*
X102150192Y-53777453D01*
X102150192Y-53777456D01*
X102140991Y-53962292D01*
X102137009Y-54042277D01*
X100508000Y-54042277D01*
X100508000Y-50634000D01*
X100528002Y-50565879D01*
X100581658Y-50519386D01*
X100634000Y-50508000D01*
X109780441Y-50508000D01*
X109848562Y-50528002D01*
G37*
%TD.AperFunction*%
%TD*%
M02*
