%TF.GenerationSoftware,KiCad,Pcbnew,(6.0.0)*%
%TF.CreationDate,2022-01-16T13:19:40+00:00*%
%TF.ProjectId,OpenBCI_ESP32_INPUT,4f70656e-4243-4495-9f45-535033325f49,rev?*%
%TF.SameCoordinates,Original*%
%TF.FileFunction,Legend,Top*%
%TF.FilePolarity,Positive*%
%FSLAX46Y46*%
G04 Gerber Fmt 4.6, Leading zero omitted, Abs format (unit mm)*
G04 Created by KiCad (PCBNEW (6.0.0)) date 2022-01-16 13:19:40*
%MOMM*%
%LPD*%
G01*
G04 APERTURE LIST*
%ADD10C,0.150000*%
%ADD11C,0.300000*%
%ADD12C,0.100000*%
%ADD13C,0.120000*%
%ADD14C,0.010000*%
G04 APERTURE END LIST*
D10*
X139914285Y-79247619D02*
X139961904Y-79200000D01*
X140057142Y-79152380D01*
X140295238Y-79152380D01*
X140390476Y-79200000D01*
X140438095Y-79247619D01*
X140485714Y-79342857D01*
X140485714Y-79438095D01*
X140438095Y-79580952D01*
X139866666Y-80152380D01*
X140485714Y-80152380D01*
X139914285Y-73247619D02*
X139961904Y-73200000D01*
X140057142Y-73152380D01*
X140295238Y-73152380D01*
X140390476Y-73200000D01*
X140438095Y-73247619D01*
X140485714Y-73342857D01*
X140485714Y-73438095D01*
X140438095Y-73580952D01*
X139866666Y-74152380D01*
X140485714Y-74152380D01*
X140609523Y-71052380D02*
X140609523Y-70052380D01*
X140847619Y-70052380D01*
X140990476Y-70100000D01*
X141085714Y-70195238D01*
X141133333Y-70290476D01*
X141180952Y-70480952D01*
X141180952Y-70623809D01*
X141133333Y-70814285D01*
X141085714Y-70909523D01*
X140990476Y-71004761D01*
X140847619Y-71052380D01*
X140609523Y-71052380D01*
X142180952Y-71052380D02*
X141847619Y-70576190D01*
X141609523Y-71052380D02*
X141609523Y-70052380D01*
X141990476Y-70052380D01*
X142085714Y-70100000D01*
X142133333Y-70147619D01*
X142180952Y-70242857D01*
X142180952Y-70385714D01*
X142133333Y-70480952D01*
X142085714Y-70528571D01*
X141990476Y-70576190D01*
X141609523Y-70576190D01*
X142609523Y-71052380D02*
X142609523Y-70052380D01*
X142847619Y-70052380D01*
X142990476Y-70100000D01*
X143085714Y-70195238D01*
X143133333Y-70290476D01*
X143180952Y-70480952D01*
X143180952Y-70623809D01*
X143133333Y-70814285D01*
X143085714Y-70909523D01*
X142990476Y-71004761D01*
X142847619Y-71052380D01*
X142609523Y-71052380D01*
X143800000Y-70576190D02*
X143800000Y-71052380D01*
X143466666Y-70052380D02*
X143800000Y-70576190D01*
X144133333Y-70052380D01*
D11*
X120050000Y-56421428D02*
X119907142Y-56350000D01*
X119835714Y-56278571D01*
X119764285Y-56135714D01*
X119764285Y-56064285D01*
X119835714Y-55921428D01*
X119907142Y-55850000D01*
X120050000Y-55778571D01*
X120335714Y-55778571D01*
X120478571Y-55850000D01*
X120550000Y-55921428D01*
X120621428Y-56064285D01*
X120621428Y-56135714D01*
X120550000Y-56278571D01*
X120478571Y-56350000D01*
X120335714Y-56421428D01*
X120050000Y-56421428D01*
X119907142Y-56492857D01*
X119835714Y-56564285D01*
X119764285Y-56707142D01*
X119764285Y-56992857D01*
X119835714Y-57135714D01*
X119907142Y-57207142D01*
X120050000Y-57278571D01*
X120335714Y-57278571D01*
X120478571Y-57207142D01*
X120550000Y-57135714D01*
X120621428Y-56992857D01*
X120621428Y-56707142D01*
X120550000Y-56564285D01*
X120478571Y-56492857D01*
X120335714Y-56421428D01*
X123264285Y-57135714D02*
X123192857Y-57207142D01*
X122978571Y-57278571D01*
X122835714Y-57278571D01*
X122621428Y-57207142D01*
X122478571Y-57064285D01*
X122407142Y-56921428D01*
X122335714Y-56635714D01*
X122335714Y-56421428D01*
X122407142Y-56135714D01*
X122478571Y-55992857D01*
X122621428Y-55850000D01*
X122835714Y-55778571D01*
X122978571Y-55778571D01*
X123192857Y-55850000D01*
X123264285Y-55921428D01*
X123907142Y-57278571D02*
X123907142Y-55778571D01*
X124550000Y-57278571D02*
X124550000Y-56492857D01*
X124478571Y-56350000D01*
X124335714Y-56278571D01*
X124121428Y-56278571D01*
X123978571Y-56350000D01*
X123907142Y-56421428D01*
X125907142Y-57278571D02*
X125907142Y-56492857D01*
X125835714Y-56350000D01*
X125692857Y-56278571D01*
X125407142Y-56278571D01*
X125264285Y-56350000D01*
X125907142Y-57207142D02*
X125764285Y-57278571D01*
X125407142Y-57278571D01*
X125264285Y-57207142D01*
X125192857Y-57064285D01*
X125192857Y-56921428D01*
X125264285Y-56778571D01*
X125407142Y-56707142D01*
X125764285Y-56707142D01*
X125907142Y-56635714D01*
X126621428Y-56278571D02*
X126621428Y-57278571D01*
X126621428Y-56421428D02*
X126692857Y-56350000D01*
X126835714Y-56278571D01*
X127050000Y-56278571D01*
X127192857Y-56350000D01*
X127264285Y-56492857D01*
X127264285Y-57278571D01*
X127978571Y-56278571D02*
X127978571Y-57278571D01*
X127978571Y-56421428D02*
X128050000Y-56350000D01*
X128192857Y-56278571D01*
X128407142Y-56278571D01*
X128550000Y-56350000D01*
X128621428Y-56492857D01*
X128621428Y-57278571D01*
X129907142Y-57207142D02*
X129764285Y-57278571D01*
X129478571Y-57278571D01*
X129335714Y-57207142D01*
X129264285Y-57064285D01*
X129264285Y-56492857D01*
X129335714Y-56350000D01*
X129478571Y-56278571D01*
X129764285Y-56278571D01*
X129907142Y-56350000D01*
X129978571Y-56492857D01*
X129978571Y-56635714D01*
X129264285Y-56778571D01*
X130835714Y-57278571D02*
X130692857Y-57207142D01*
X130621428Y-57064285D01*
X130621428Y-55778571D01*
X132478571Y-56850000D02*
X133192857Y-56850000D01*
X132335714Y-57278571D02*
X132835714Y-55778571D01*
X133335714Y-57278571D01*
X133835714Y-57278571D02*
X133835714Y-55778571D01*
X134192857Y-55778571D01*
X134407142Y-55850000D01*
X134550000Y-55992857D01*
X134621428Y-56135714D01*
X134692857Y-56421428D01*
X134692857Y-56635714D01*
X134621428Y-56921428D01*
X134550000Y-57064285D01*
X134407142Y-57207142D01*
X134192857Y-57278571D01*
X133835714Y-57278571D01*
X135264285Y-57207142D02*
X135478571Y-57278571D01*
X135835714Y-57278571D01*
X135978571Y-57207142D01*
X136050000Y-57135714D01*
X136121428Y-56992857D01*
X136121428Y-56850000D01*
X136050000Y-56707142D01*
X135978571Y-56635714D01*
X135835714Y-56564285D01*
X135550000Y-56492857D01*
X135407142Y-56421428D01*
X135335714Y-56350000D01*
X135264285Y-56207142D01*
X135264285Y-56064285D01*
X135335714Y-55921428D01*
X135407142Y-55850000D01*
X135550000Y-55778571D01*
X135907142Y-55778571D01*
X136121428Y-55850000D01*
X137550000Y-57278571D02*
X136692857Y-57278571D01*
X137121428Y-57278571D02*
X137121428Y-55778571D01*
X136978571Y-55992857D01*
X136835714Y-56135714D01*
X136692857Y-56207142D01*
X138121428Y-55921428D02*
X138192857Y-55850000D01*
X138335714Y-55778571D01*
X138692857Y-55778571D01*
X138835714Y-55850000D01*
X138907142Y-55921428D01*
X138978571Y-56064285D01*
X138978571Y-56207142D01*
X138907142Y-56421428D01*
X138050000Y-57278571D01*
X138978571Y-57278571D01*
X139692857Y-57278571D02*
X139978571Y-57278571D01*
X140121428Y-57207142D01*
X140192857Y-57135714D01*
X140335714Y-56921428D01*
X140407142Y-56635714D01*
X140407142Y-56064285D01*
X140335714Y-55921428D01*
X140264285Y-55850000D01*
X140121428Y-55778571D01*
X139835714Y-55778571D01*
X139692857Y-55850000D01*
X139621428Y-55921428D01*
X139550000Y-56064285D01*
X139550000Y-56421428D01*
X139621428Y-56564285D01*
X139692857Y-56635714D01*
X139835714Y-56707142D01*
X140121428Y-56707142D01*
X140264285Y-56635714D01*
X140335714Y-56564285D01*
X140407142Y-56421428D01*
X141121428Y-57278571D02*
X141407142Y-57278571D01*
X141550000Y-57207142D01*
X141621428Y-57135714D01*
X141764285Y-56921428D01*
X141835714Y-56635714D01*
X141835714Y-56064285D01*
X141764285Y-55921428D01*
X141692857Y-55850000D01*
X141550000Y-55778571D01*
X141264285Y-55778571D01*
X141121428Y-55850000D01*
X141050000Y-55921428D01*
X140978571Y-56064285D01*
X140978571Y-56421428D01*
X141050000Y-56564285D01*
X141121428Y-56635714D01*
X141264285Y-56707142D01*
X141550000Y-56707142D01*
X141692857Y-56635714D01*
X141764285Y-56564285D01*
X141835714Y-56421428D01*
D10*
X140485714Y-78452380D02*
X139914285Y-78452380D01*
X140200000Y-78452380D02*
X140200000Y-77452380D01*
X140104761Y-77595238D01*
X140009523Y-77690476D01*
X139914285Y-77738095D01*
D11*
X119485714Y-53178571D02*
X119771428Y-53178571D01*
X119914285Y-53250000D01*
X120057142Y-53392857D01*
X120128571Y-53678571D01*
X120128571Y-54178571D01*
X120057142Y-54464285D01*
X119914285Y-54607142D01*
X119771428Y-54678571D01*
X119485714Y-54678571D01*
X119342857Y-54607142D01*
X119200000Y-54464285D01*
X119128571Y-54178571D01*
X119128571Y-53678571D01*
X119200000Y-53392857D01*
X119342857Y-53250000D01*
X119485714Y-53178571D01*
X120771428Y-53678571D02*
X120771428Y-55178571D01*
X120771428Y-53750000D02*
X120914285Y-53678571D01*
X121200000Y-53678571D01*
X121342857Y-53750000D01*
X121414285Y-53821428D01*
X121485714Y-53964285D01*
X121485714Y-54392857D01*
X121414285Y-54535714D01*
X121342857Y-54607142D01*
X121200000Y-54678571D01*
X120914285Y-54678571D01*
X120771428Y-54607142D01*
X122700000Y-54607142D02*
X122557142Y-54678571D01*
X122271428Y-54678571D01*
X122128571Y-54607142D01*
X122057142Y-54464285D01*
X122057142Y-53892857D01*
X122128571Y-53750000D01*
X122271428Y-53678571D01*
X122557142Y-53678571D01*
X122700000Y-53750000D01*
X122771428Y-53892857D01*
X122771428Y-54035714D01*
X122057142Y-54178571D01*
X123414285Y-53678571D02*
X123414285Y-54678571D01*
X123414285Y-53821428D02*
X123485714Y-53750000D01*
X123628571Y-53678571D01*
X123842857Y-53678571D01*
X123985714Y-53750000D01*
X124057142Y-53892857D01*
X124057142Y-54678571D01*
X125271428Y-53892857D02*
X125485714Y-53964285D01*
X125557142Y-54035714D01*
X125628571Y-54178571D01*
X125628571Y-54392857D01*
X125557142Y-54535714D01*
X125485714Y-54607142D01*
X125342857Y-54678571D01*
X124771428Y-54678571D01*
X124771428Y-53178571D01*
X125271428Y-53178571D01*
X125414285Y-53250000D01*
X125485714Y-53321428D01*
X125557142Y-53464285D01*
X125557142Y-53607142D01*
X125485714Y-53750000D01*
X125414285Y-53821428D01*
X125271428Y-53892857D01*
X124771428Y-53892857D01*
X127128571Y-54535714D02*
X127057142Y-54607142D01*
X126842857Y-54678571D01*
X126700000Y-54678571D01*
X126485714Y-54607142D01*
X126342857Y-54464285D01*
X126271428Y-54321428D01*
X126200000Y-54035714D01*
X126200000Y-53821428D01*
X126271428Y-53535714D01*
X126342857Y-53392857D01*
X126485714Y-53250000D01*
X126700000Y-53178571D01*
X126842857Y-53178571D01*
X127057142Y-53250000D01*
X127128571Y-53321428D01*
X127771428Y-54678571D02*
X127771428Y-53178571D01*
X129628571Y-54678571D02*
X129628571Y-53178571D01*
X130342857Y-53678571D02*
X130342857Y-54678571D01*
X130342857Y-53821428D02*
X130414285Y-53750000D01*
X130557142Y-53678571D01*
X130771428Y-53678571D01*
X130914285Y-53750000D01*
X130985714Y-53892857D01*
X130985714Y-54678571D01*
X131700000Y-53678571D02*
X131700000Y-55178571D01*
X131700000Y-53750000D02*
X131842857Y-53678571D01*
X132128571Y-53678571D01*
X132271428Y-53750000D01*
X132342857Y-53821428D01*
X132414285Y-53964285D01*
X132414285Y-54392857D01*
X132342857Y-54535714D01*
X132271428Y-54607142D01*
X132128571Y-54678571D01*
X131842857Y-54678571D01*
X131700000Y-54607142D01*
X133700000Y-53678571D02*
X133700000Y-54678571D01*
X133057142Y-53678571D02*
X133057142Y-54464285D01*
X133128571Y-54607142D01*
X133271428Y-54678571D01*
X133485714Y-54678571D01*
X133628571Y-54607142D01*
X133700000Y-54535714D01*
X134200000Y-53678571D02*
X134771428Y-53678571D01*
X134414285Y-53178571D02*
X134414285Y-54464285D01*
X134485714Y-54607142D01*
X134628571Y-54678571D01*
X134771428Y-54678571D01*
X136914285Y-53892857D02*
X137128571Y-53964285D01*
X137200000Y-54035714D01*
X137271428Y-54178571D01*
X137271428Y-54392857D01*
X137200000Y-54535714D01*
X137128571Y-54607142D01*
X136985714Y-54678571D01*
X136414285Y-54678571D01*
X136414285Y-53178571D01*
X136914285Y-53178571D01*
X137057142Y-53250000D01*
X137128571Y-53321428D01*
X137200000Y-53464285D01*
X137200000Y-53607142D01*
X137128571Y-53750000D01*
X137057142Y-53821428D01*
X136914285Y-53892857D01*
X136414285Y-53892857D01*
X138128571Y-54678571D02*
X137985714Y-54607142D01*
X137914285Y-54535714D01*
X137842857Y-54392857D01*
X137842857Y-53964285D01*
X137914285Y-53821428D01*
X137985714Y-53750000D01*
X138128571Y-53678571D01*
X138342857Y-53678571D01*
X138485714Y-53750000D01*
X138557142Y-53821428D01*
X138628571Y-53964285D01*
X138628571Y-54392857D01*
X138557142Y-54535714D01*
X138485714Y-54607142D01*
X138342857Y-54678571D01*
X138128571Y-54678571D01*
X139914285Y-54678571D02*
X139914285Y-53892857D01*
X139842857Y-53750000D01*
X139700000Y-53678571D01*
X139414285Y-53678571D01*
X139271428Y-53750000D01*
X139914285Y-54607142D02*
X139771428Y-54678571D01*
X139414285Y-54678571D01*
X139271428Y-54607142D01*
X139200000Y-54464285D01*
X139200000Y-54321428D01*
X139271428Y-54178571D01*
X139414285Y-54107142D01*
X139771428Y-54107142D01*
X139914285Y-54035714D01*
X140628571Y-54678571D02*
X140628571Y-53678571D01*
X140628571Y-53964285D02*
X140700000Y-53821428D01*
X140771428Y-53750000D01*
X140914285Y-53678571D01*
X141057142Y-53678571D01*
X142200000Y-54678571D02*
X142200000Y-53178571D01*
X142200000Y-54607142D02*
X142057142Y-54678571D01*
X141771428Y-54678571D01*
X141628571Y-54607142D01*
X141557142Y-54535714D01*
X141485714Y-54392857D01*
X141485714Y-53964285D01*
X141557142Y-53821428D01*
X141628571Y-53750000D01*
X141771428Y-53678571D01*
X142057142Y-53678571D01*
X142200000Y-53750000D01*
D10*
X141933333Y-76957142D02*
X141885714Y-77004761D01*
X141742857Y-77052380D01*
X141647619Y-77052380D01*
X141504761Y-77004761D01*
X141409523Y-76909523D01*
X141361904Y-76814285D01*
X141314285Y-76623809D01*
X141314285Y-76480952D01*
X141361904Y-76290476D01*
X141409523Y-76195238D01*
X141504761Y-76100000D01*
X141647619Y-76052380D01*
X141742857Y-76052380D01*
X141885714Y-76100000D01*
X141933333Y-76147619D01*
X142314285Y-77004761D02*
X142457142Y-77052380D01*
X142695238Y-77052380D01*
X142790476Y-77004761D01*
X142838095Y-76957142D01*
X142885714Y-76861904D01*
X142885714Y-76766666D01*
X142838095Y-76671428D01*
X142790476Y-76623809D01*
X142695238Y-76576190D01*
X142504761Y-76528571D01*
X142409523Y-76480952D01*
X142361904Y-76433333D01*
X142314285Y-76338095D01*
X142314285Y-76242857D01*
X142361904Y-76147619D01*
X142409523Y-76100000D01*
X142504761Y-76052380D01*
X142742857Y-76052380D01*
X142885714Y-76100000D01*
X140485714Y-72452380D02*
X139914285Y-72452380D01*
X140200000Y-72452380D02*
X140200000Y-71452380D01*
X140104761Y-71595238D01*
X140009523Y-71690476D01*
X139914285Y-71738095D01*
D12*
%TO.C,C1*%
X122066666Y-87585714D02*
X122028571Y-87623809D01*
X121914285Y-87661904D01*
X121838095Y-87661904D01*
X121723809Y-87623809D01*
X121647619Y-87547619D01*
X121609523Y-87471428D01*
X121571428Y-87319047D01*
X121571428Y-87204761D01*
X121609523Y-87052380D01*
X121647619Y-86976190D01*
X121723809Y-86900000D01*
X121838095Y-86861904D01*
X121914285Y-86861904D01*
X122028571Y-86900000D01*
X122066666Y-86938095D01*
X122828571Y-87661904D02*
X122371428Y-87661904D01*
X122600000Y-87661904D02*
X122600000Y-86861904D01*
X122523809Y-86976190D01*
X122447619Y-87052380D01*
X122371428Y-87090476D01*
%TO.C,C2*%
X122066666Y-84285714D02*
X122028571Y-84323809D01*
X121914285Y-84361904D01*
X121838095Y-84361904D01*
X121723809Y-84323809D01*
X121647619Y-84247619D01*
X121609523Y-84171428D01*
X121571428Y-84019047D01*
X121571428Y-83904761D01*
X121609523Y-83752380D01*
X121647619Y-83676190D01*
X121723809Y-83600000D01*
X121838095Y-83561904D01*
X121914285Y-83561904D01*
X122028571Y-83600000D01*
X122066666Y-83638095D01*
X122371428Y-83638095D02*
X122409523Y-83600000D01*
X122485714Y-83561904D01*
X122676190Y-83561904D01*
X122752380Y-83600000D01*
X122790476Y-83638095D01*
X122828571Y-83714285D01*
X122828571Y-83790476D01*
X122790476Y-83904761D01*
X122333333Y-84361904D01*
X122828571Y-84361904D01*
%TO.C,C3*%
X121966666Y-80785714D02*
X121928571Y-80823809D01*
X121814285Y-80861904D01*
X121738095Y-80861904D01*
X121623809Y-80823809D01*
X121547619Y-80747619D01*
X121509523Y-80671428D01*
X121471428Y-80519047D01*
X121471428Y-80404761D01*
X121509523Y-80252380D01*
X121547619Y-80176190D01*
X121623809Y-80100000D01*
X121738095Y-80061904D01*
X121814285Y-80061904D01*
X121928571Y-80100000D01*
X121966666Y-80138095D01*
X122233333Y-80061904D02*
X122728571Y-80061904D01*
X122461904Y-80366666D01*
X122576190Y-80366666D01*
X122652380Y-80404761D01*
X122690476Y-80442857D01*
X122728571Y-80519047D01*
X122728571Y-80709523D01*
X122690476Y-80785714D01*
X122652380Y-80823809D01*
X122576190Y-80861904D01*
X122347619Y-80861904D01*
X122271428Y-80823809D01*
X122233333Y-80785714D01*
%TO.C,C4*%
X122066666Y-77385714D02*
X122028571Y-77423809D01*
X121914285Y-77461904D01*
X121838095Y-77461904D01*
X121723809Y-77423809D01*
X121647619Y-77347619D01*
X121609523Y-77271428D01*
X121571428Y-77119047D01*
X121571428Y-77004761D01*
X121609523Y-76852380D01*
X121647619Y-76776190D01*
X121723809Y-76700000D01*
X121838095Y-76661904D01*
X121914285Y-76661904D01*
X122028571Y-76700000D01*
X122066666Y-76738095D01*
X122752380Y-76928571D02*
X122752380Y-77461904D01*
X122561904Y-76623809D02*
X122371428Y-77195238D01*
X122866666Y-77195238D01*
%TO.C,C5*%
X122066666Y-73985714D02*
X122028571Y-74023809D01*
X121914285Y-74061904D01*
X121838095Y-74061904D01*
X121723809Y-74023809D01*
X121647619Y-73947619D01*
X121609523Y-73871428D01*
X121571428Y-73719047D01*
X121571428Y-73604761D01*
X121609523Y-73452380D01*
X121647619Y-73376190D01*
X121723809Y-73300000D01*
X121838095Y-73261904D01*
X121914285Y-73261904D01*
X122028571Y-73300000D01*
X122066666Y-73338095D01*
X122790476Y-73261904D02*
X122409523Y-73261904D01*
X122371428Y-73642857D01*
X122409523Y-73604761D01*
X122485714Y-73566666D01*
X122676190Y-73566666D01*
X122752380Y-73604761D01*
X122790476Y-73642857D01*
X122828571Y-73719047D01*
X122828571Y-73909523D01*
X122790476Y-73985714D01*
X122752380Y-74023809D01*
X122676190Y-74061904D01*
X122485714Y-74061904D01*
X122409523Y-74023809D01*
X122371428Y-73985714D01*
%TO.C,C6*%
X122066666Y-70585714D02*
X122028571Y-70623809D01*
X121914285Y-70661904D01*
X121838095Y-70661904D01*
X121723809Y-70623809D01*
X121647619Y-70547619D01*
X121609523Y-70471428D01*
X121571428Y-70319047D01*
X121571428Y-70204761D01*
X121609523Y-70052380D01*
X121647619Y-69976190D01*
X121723809Y-69900000D01*
X121838095Y-69861904D01*
X121914285Y-69861904D01*
X122028571Y-69900000D01*
X122066666Y-69938095D01*
X122752380Y-69861904D02*
X122600000Y-69861904D01*
X122523809Y-69900000D01*
X122485714Y-69938095D01*
X122409523Y-70052380D01*
X122371428Y-70204761D01*
X122371428Y-70509523D01*
X122409523Y-70585714D01*
X122447619Y-70623809D01*
X122523809Y-70661904D01*
X122676190Y-70661904D01*
X122752380Y-70623809D01*
X122790476Y-70585714D01*
X122828571Y-70509523D01*
X122828571Y-70319047D01*
X122790476Y-70242857D01*
X122752380Y-70204761D01*
X122676190Y-70166666D01*
X122523809Y-70166666D01*
X122447619Y-70204761D01*
X122409523Y-70242857D01*
X122371428Y-70319047D01*
%TO.C,C7*%
X122066666Y-67185714D02*
X122028571Y-67223809D01*
X121914285Y-67261904D01*
X121838095Y-67261904D01*
X121723809Y-67223809D01*
X121647619Y-67147619D01*
X121609523Y-67071428D01*
X121571428Y-66919047D01*
X121571428Y-66804761D01*
X121609523Y-66652380D01*
X121647619Y-66576190D01*
X121723809Y-66500000D01*
X121838095Y-66461904D01*
X121914285Y-66461904D01*
X122028571Y-66500000D01*
X122066666Y-66538095D01*
X122333333Y-66461904D02*
X122866666Y-66461904D01*
X122523809Y-67261904D01*
%TO.C,C8*%
X122066666Y-63785714D02*
X122028571Y-63823809D01*
X121914285Y-63861904D01*
X121838095Y-63861904D01*
X121723809Y-63823809D01*
X121647619Y-63747619D01*
X121609523Y-63671428D01*
X121571428Y-63519047D01*
X121571428Y-63404761D01*
X121609523Y-63252380D01*
X121647619Y-63176190D01*
X121723809Y-63100000D01*
X121838095Y-63061904D01*
X121914285Y-63061904D01*
X122028571Y-63100000D01*
X122066666Y-63138095D01*
X122523809Y-63404761D02*
X122447619Y-63366666D01*
X122409523Y-63328571D01*
X122371428Y-63252380D01*
X122371428Y-63214285D01*
X122409523Y-63138095D01*
X122447619Y-63100000D01*
X122523809Y-63061904D01*
X122676190Y-63061904D01*
X122752380Y-63100000D01*
X122790476Y-63138095D01*
X122828571Y-63214285D01*
X122828571Y-63252380D01*
X122790476Y-63328571D01*
X122752380Y-63366666D01*
X122676190Y-63404761D01*
X122523809Y-63404761D01*
X122447619Y-63442857D01*
X122409523Y-63480952D01*
X122371428Y-63557142D01*
X122371428Y-63709523D01*
X122409523Y-63785714D01*
X122447619Y-63823809D01*
X122523809Y-63861904D01*
X122676190Y-63861904D01*
X122752380Y-63823809D01*
X122790476Y-63785714D01*
X122828571Y-63709523D01*
X122828571Y-63557142D01*
X122790476Y-63480952D01*
X122752380Y-63442857D01*
X122676190Y-63404761D01*
%TO.C,C9*%
X113666666Y-87585714D02*
X113628571Y-87623809D01*
X113514285Y-87661904D01*
X113438095Y-87661904D01*
X113323809Y-87623809D01*
X113247619Y-87547619D01*
X113209523Y-87471428D01*
X113171428Y-87319047D01*
X113171428Y-87204761D01*
X113209523Y-87052380D01*
X113247619Y-86976190D01*
X113323809Y-86900000D01*
X113438095Y-86861904D01*
X113514285Y-86861904D01*
X113628571Y-86900000D01*
X113666666Y-86938095D01*
X114047619Y-87661904D02*
X114200000Y-87661904D01*
X114276190Y-87623809D01*
X114314285Y-87585714D01*
X114390476Y-87471428D01*
X114428571Y-87319047D01*
X114428571Y-87014285D01*
X114390476Y-86938095D01*
X114352380Y-86900000D01*
X114276190Y-86861904D01*
X114123809Y-86861904D01*
X114047619Y-86900000D01*
X114009523Y-86938095D01*
X113971428Y-87014285D01*
X113971428Y-87204761D01*
X114009523Y-87280952D01*
X114047619Y-87319047D01*
X114123809Y-87357142D01*
X114276190Y-87357142D01*
X114352380Y-87319047D01*
X114390476Y-87280952D01*
X114428571Y-87204761D01*
%TO.C,C10*%
X113085714Y-84285714D02*
X113047619Y-84323809D01*
X112933333Y-84361904D01*
X112857142Y-84361904D01*
X112742857Y-84323809D01*
X112666666Y-84247619D01*
X112628571Y-84171428D01*
X112590476Y-84019047D01*
X112590476Y-83904761D01*
X112628571Y-83752380D01*
X112666666Y-83676190D01*
X112742857Y-83600000D01*
X112857142Y-83561904D01*
X112933333Y-83561904D01*
X113047619Y-83600000D01*
X113085714Y-83638095D01*
X113847619Y-84361904D02*
X113390476Y-84361904D01*
X113619047Y-84361904D02*
X113619047Y-83561904D01*
X113542857Y-83676190D01*
X113466666Y-83752380D01*
X113390476Y-83790476D01*
X114342857Y-83561904D02*
X114419047Y-83561904D01*
X114495238Y-83600000D01*
X114533333Y-83638095D01*
X114571428Y-83714285D01*
X114609523Y-83866666D01*
X114609523Y-84057142D01*
X114571428Y-84209523D01*
X114533333Y-84285714D01*
X114495238Y-84323809D01*
X114419047Y-84361904D01*
X114342857Y-84361904D01*
X114266666Y-84323809D01*
X114228571Y-84285714D01*
X114190476Y-84209523D01*
X114152380Y-84057142D01*
X114152380Y-83866666D01*
X114190476Y-83714285D01*
X114228571Y-83638095D01*
X114266666Y-83600000D01*
X114342857Y-83561904D01*
%TO.C,C11*%
X113085714Y-80785714D02*
X113047619Y-80823809D01*
X112933333Y-80861904D01*
X112857142Y-80861904D01*
X112742857Y-80823809D01*
X112666666Y-80747619D01*
X112628571Y-80671428D01*
X112590476Y-80519047D01*
X112590476Y-80404761D01*
X112628571Y-80252380D01*
X112666666Y-80176190D01*
X112742857Y-80100000D01*
X112857142Y-80061904D01*
X112933333Y-80061904D01*
X113047619Y-80100000D01*
X113085714Y-80138095D01*
X113847619Y-80861904D02*
X113390476Y-80861904D01*
X113619047Y-80861904D02*
X113619047Y-80061904D01*
X113542857Y-80176190D01*
X113466666Y-80252380D01*
X113390476Y-80290476D01*
X114609523Y-80861904D02*
X114152380Y-80861904D01*
X114380952Y-80861904D02*
X114380952Y-80061904D01*
X114304761Y-80176190D01*
X114228571Y-80252380D01*
X114152380Y-80290476D01*
%TO.C,C12*%
X113085714Y-77285714D02*
X113047619Y-77323809D01*
X112933333Y-77361904D01*
X112857142Y-77361904D01*
X112742857Y-77323809D01*
X112666666Y-77247619D01*
X112628571Y-77171428D01*
X112590476Y-77019047D01*
X112590476Y-76904761D01*
X112628571Y-76752380D01*
X112666666Y-76676190D01*
X112742857Y-76600000D01*
X112857142Y-76561904D01*
X112933333Y-76561904D01*
X113047619Y-76600000D01*
X113085714Y-76638095D01*
X113847619Y-77361904D02*
X113390476Y-77361904D01*
X113619047Y-77361904D02*
X113619047Y-76561904D01*
X113542857Y-76676190D01*
X113466666Y-76752380D01*
X113390476Y-76790476D01*
X114152380Y-76638095D02*
X114190476Y-76600000D01*
X114266666Y-76561904D01*
X114457142Y-76561904D01*
X114533333Y-76600000D01*
X114571428Y-76638095D01*
X114609523Y-76714285D01*
X114609523Y-76790476D01*
X114571428Y-76904761D01*
X114114285Y-77361904D01*
X114609523Y-77361904D01*
%TO.C,C13*%
X112985714Y-73885714D02*
X112947619Y-73923809D01*
X112833333Y-73961904D01*
X112757142Y-73961904D01*
X112642857Y-73923809D01*
X112566666Y-73847619D01*
X112528571Y-73771428D01*
X112490476Y-73619047D01*
X112490476Y-73504761D01*
X112528571Y-73352380D01*
X112566666Y-73276190D01*
X112642857Y-73200000D01*
X112757142Y-73161904D01*
X112833333Y-73161904D01*
X112947619Y-73200000D01*
X112985714Y-73238095D01*
X113747619Y-73961904D02*
X113290476Y-73961904D01*
X113519047Y-73961904D02*
X113519047Y-73161904D01*
X113442857Y-73276190D01*
X113366666Y-73352380D01*
X113290476Y-73390476D01*
X114014285Y-73161904D02*
X114509523Y-73161904D01*
X114242857Y-73466666D01*
X114357142Y-73466666D01*
X114433333Y-73504761D01*
X114471428Y-73542857D01*
X114509523Y-73619047D01*
X114509523Y-73809523D01*
X114471428Y-73885714D01*
X114433333Y-73923809D01*
X114357142Y-73961904D01*
X114128571Y-73961904D01*
X114052380Y-73923809D01*
X114014285Y-73885714D01*
%TO.C,C14*%
X112985714Y-70585714D02*
X112947619Y-70623809D01*
X112833333Y-70661904D01*
X112757142Y-70661904D01*
X112642857Y-70623809D01*
X112566666Y-70547619D01*
X112528571Y-70471428D01*
X112490476Y-70319047D01*
X112490476Y-70204761D01*
X112528571Y-70052380D01*
X112566666Y-69976190D01*
X112642857Y-69900000D01*
X112757142Y-69861904D01*
X112833333Y-69861904D01*
X112947619Y-69900000D01*
X112985714Y-69938095D01*
X113747619Y-70661904D02*
X113290476Y-70661904D01*
X113519047Y-70661904D02*
X113519047Y-69861904D01*
X113442857Y-69976190D01*
X113366666Y-70052380D01*
X113290476Y-70090476D01*
X114433333Y-70128571D02*
X114433333Y-70661904D01*
X114242857Y-69823809D02*
X114052380Y-70395238D01*
X114547619Y-70395238D01*
%TO.C,C15*%
X112985714Y-67085714D02*
X112947619Y-67123809D01*
X112833333Y-67161904D01*
X112757142Y-67161904D01*
X112642857Y-67123809D01*
X112566666Y-67047619D01*
X112528571Y-66971428D01*
X112490476Y-66819047D01*
X112490476Y-66704761D01*
X112528571Y-66552380D01*
X112566666Y-66476190D01*
X112642857Y-66400000D01*
X112757142Y-66361904D01*
X112833333Y-66361904D01*
X112947619Y-66400000D01*
X112985714Y-66438095D01*
X113747619Y-67161904D02*
X113290476Y-67161904D01*
X113519047Y-67161904D02*
X113519047Y-66361904D01*
X113442857Y-66476190D01*
X113366666Y-66552380D01*
X113290476Y-66590476D01*
X114471428Y-66361904D02*
X114090476Y-66361904D01*
X114052380Y-66742857D01*
X114090476Y-66704761D01*
X114166666Y-66666666D01*
X114357142Y-66666666D01*
X114433333Y-66704761D01*
X114471428Y-66742857D01*
X114509523Y-66819047D01*
X114509523Y-67009523D01*
X114471428Y-67085714D01*
X114433333Y-67123809D01*
X114357142Y-67161904D01*
X114166666Y-67161904D01*
X114090476Y-67123809D01*
X114052380Y-67085714D01*
%TO.C,C16*%
X113085714Y-63685714D02*
X113047619Y-63723809D01*
X112933333Y-63761904D01*
X112857142Y-63761904D01*
X112742857Y-63723809D01*
X112666666Y-63647619D01*
X112628571Y-63571428D01*
X112590476Y-63419047D01*
X112590476Y-63304761D01*
X112628571Y-63152380D01*
X112666666Y-63076190D01*
X112742857Y-63000000D01*
X112857142Y-62961904D01*
X112933333Y-62961904D01*
X113047619Y-63000000D01*
X113085714Y-63038095D01*
X113847619Y-63761904D02*
X113390476Y-63761904D01*
X113619047Y-63761904D02*
X113619047Y-62961904D01*
X113542857Y-63076190D01*
X113466666Y-63152380D01*
X113390476Y-63190476D01*
X114533333Y-62961904D02*
X114380952Y-62961904D01*
X114304761Y-63000000D01*
X114266666Y-63038095D01*
X114190476Y-63152380D01*
X114152380Y-63304761D01*
X114152380Y-63609523D01*
X114190476Y-63685714D01*
X114228571Y-63723809D01*
X114304761Y-63761904D01*
X114457142Y-63761904D01*
X114533333Y-63723809D01*
X114571428Y-63685714D01*
X114609523Y-63609523D01*
X114609523Y-63419047D01*
X114571428Y-63342857D01*
X114533333Y-63304761D01*
X114457142Y-63266666D01*
X114304761Y-63266666D01*
X114228571Y-63304761D01*
X114190476Y-63342857D01*
X114152380Y-63419047D01*
%TO.C,C17*%
X130685714Y-88485714D02*
X130647619Y-88523809D01*
X130533333Y-88561904D01*
X130457142Y-88561904D01*
X130342857Y-88523809D01*
X130266666Y-88447619D01*
X130228571Y-88371428D01*
X130190476Y-88219047D01*
X130190476Y-88104761D01*
X130228571Y-87952380D01*
X130266666Y-87876190D01*
X130342857Y-87800000D01*
X130457142Y-87761904D01*
X130533333Y-87761904D01*
X130647619Y-87800000D01*
X130685714Y-87838095D01*
X131447619Y-88561904D02*
X130990476Y-88561904D01*
X131219047Y-88561904D02*
X131219047Y-87761904D01*
X131142857Y-87876190D01*
X131066666Y-87952380D01*
X130990476Y-87990476D01*
X131714285Y-87761904D02*
X132247619Y-87761904D01*
X131904761Y-88561904D01*
%TO.C,C18*%
X132385714Y-82385714D02*
X132347619Y-82423809D01*
X132233333Y-82461904D01*
X132157142Y-82461904D01*
X132042857Y-82423809D01*
X131966666Y-82347619D01*
X131928571Y-82271428D01*
X131890476Y-82119047D01*
X131890476Y-82004761D01*
X131928571Y-81852380D01*
X131966666Y-81776190D01*
X132042857Y-81700000D01*
X132157142Y-81661904D01*
X132233333Y-81661904D01*
X132347619Y-81700000D01*
X132385714Y-81738095D01*
X133147619Y-82461904D02*
X132690476Y-82461904D01*
X132919047Y-82461904D02*
X132919047Y-81661904D01*
X132842857Y-81776190D01*
X132766666Y-81852380D01*
X132690476Y-81890476D01*
X133604761Y-82004761D02*
X133528571Y-81966666D01*
X133490476Y-81928571D01*
X133452380Y-81852380D01*
X133452380Y-81814285D01*
X133490476Y-81738095D01*
X133528571Y-81700000D01*
X133604761Y-81661904D01*
X133757142Y-81661904D01*
X133833333Y-81700000D01*
X133871428Y-81738095D01*
X133909523Y-81814285D01*
X133909523Y-81852380D01*
X133871428Y-81928571D01*
X133833333Y-81966666D01*
X133757142Y-82004761D01*
X133604761Y-82004761D01*
X133528571Y-82042857D01*
X133490476Y-82080952D01*
X133452380Y-82157142D01*
X133452380Y-82309523D01*
X133490476Y-82385714D01*
X133528571Y-82423809D01*
X133604761Y-82461904D01*
X133757142Y-82461904D01*
X133833333Y-82423809D01*
X133871428Y-82385714D01*
X133909523Y-82309523D01*
X133909523Y-82157142D01*
X133871428Y-82080952D01*
X133833333Y-82042857D01*
X133757142Y-82004761D01*
%TO.C,C19*%
X132285714Y-63585714D02*
X132247619Y-63623809D01*
X132133333Y-63661904D01*
X132057142Y-63661904D01*
X131942857Y-63623809D01*
X131866666Y-63547619D01*
X131828571Y-63471428D01*
X131790476Y-63319047D01*
X131790476Y-63204761D01*
X131828571Y-63052380D01*
X131866666Y-62976190D01*
X131942857Y-62900000D01*
X132057142Y-62861904D01*
X132133333Y-62861904D01*
X132247619Y-62900000D01*
X132285714Y-62938095D01*
X133047619Y-63661904D02*
X132590476Y-63661904D01*
X132819047Y-63661904D02*
X132819047Y-62861904D01*
X132742857Y-62976190D01*
X132666666Y-63052380D01*
X132590476Y-63090476D01*
X133428571Y-63661904D02*
X133580952Y-63661904D01*
X133657142Y-63623809D01*
X133695238Y-63585714D01*
X133771428Y-63471428D01*
X133809523Y-63319047D01*
X133809523Y-63014285D01*
X133771428Y-62938095D01*
X133733333Y-62900000D01*
X133657142Y-62861904D01*
X133504761Y-62861904D01*
X133428571Y-62900000D01*
X133390476Y-62938095D01*
X133352380Y-63014285D01*
X133352380Y-63204761D01*
X133390476Y-63280952D01*
X133428571Y-63319047D01*
X133504761Y-63357142D01*
X133657142Y-63357142D01*
X133733333Y-63319047D01*
X133771428Y-63280952D01*
X133809523Y-63204761D01*
%TO.C,C20*%
X132185714Y-67685714D02*
X132147619Y-67723809D01*
X132033333Y-67761904D01*
X131957142Y-67761904D01*
X131842857Y-67723809D01*
X131766666Y-67647619D01*
X131728571Y-67571428D01*
X131690476Y-67419047D01*
X131690476Y-67304761D01*
X131728571Y-67152380D01*
X131766666Y-67076190D01*
X131842857Y-67000000D01*
X131957142Y-66961904D01*
X132033333Y-66961904D01*
X132147619Y-67000000D01*
X132185714Y-67038095D01*
X132490476Y-67038095D02*
X132528571Y-67000000D01*
X132604761Y-66961904D01*
X132795238Y-66961904D01*
X132871428Y-67000000D01*
X132909523Y-67038095D01*
X132947619Y-67114285D01*
X132947619Y-67190476D01*
X132909523Y-67304761D01*
X132452380Y-67761904D01*
X132947619Y-67761904D01*
X133442857Y-66961904D02*
X133519047Y-66961904D01*
X133595238Y-67000000D01*
X133633333Y-67038095D01*
X133671428Y-67114285D01*
X133709523Y-67266666D01*
X133709523Y-67457142D01*
X133671428Y-67609523D01*
X133633333Y-67685714D01*
X133595238Y-67723809D01*
X133519047Y-67761904D01*
X133442857Y-67761904D01*
X133366666Y-67723809D01*
X133328571Y-67685714D01*
X133290476Y-67609523D01*
X133252380Y-67457142D01*
X133252380Y-67266666D01*
X133290476Y-67114285D01*
X133328571Y-67038095D01*
X133366666Y-67000000D01*
X133442857Y-66961904D01*
%TO.C,C21*%
X128985714Y-82385714D02*
X128947619Y-82423809D01*
X128833333Y-82461904D01*
X128757142Y-82461904D01*
X128642857Y-82423809D01*
X128566666Y-82347619D01*
X128528571Y-82271428D01*
X128490476Y-82119047D01*
X128490476Y-82004761D01*
X128528571Y-81852380D01*
X128566666Y-81776190D01*
X128642857Y-81700000D01*
X128757142Y-81661904D01*
X128833333Y-81661904D01*
X128947619Y-81700000D01*
X128985714Y-81738095D01*
X129290476Y-81738095D02*
X129328571Y-81700000D01*
X129404761Y-81661904D01*
X129595238Y-81661904D01*
X129671428Y-81700000D01*
X129709523Y-81738095D01*
X129747619Y-81814285D01*
X129747619Y-81890476D01*
X129709523Y-82004761D01*
X129252380Y-82461904D01*
X129747619Y-82461904D01*
X130509523Y-82461904D02*
X130052380Y-82461904D01*
X130280952Y-82461904D02*
X130280952Y-81661904D01*
X130204761Y-81776190D01*
X130128571Y-81852380D01*
X130052380Y-81890476D01*
%TO.C,C22*%
X125685714Y-87285714D02*
X125647619Y-87323809D01*
X125533333Y-87361904D01*
X125457142Y-87361904D01*
X125342857Y-87323809D01*
X125266666Y-87247619D01*
X125228571Y-87171428D01*
X125190476Y-87019047D01*
X125190476Y-86904761D01*
X125228571Y-86752380D01*
X125266666Y-86676190D01*
X125342857Y-86600000D01*
X125457142Y-86561904D01*
X125533333Y-86561904D01*
X125647619Y-86600000D01*
X125685714Y-86638095D01*
X125990476Y-86638095D02*
X126028571Y-86600000D01*
X126104761Y-86561904D01*
X126295238Y-86561904D01*
X126371428Y-86600000D01*
X126409523Y-86638095D01*
X126447619Y-86714285D01*
X126447619Y-86790476D01*
X126409523Y-86904761D01*
X125952380Y-87361904D01*
X126447619Y-87361904D01*
X126752380Y-86638095D02*
X126790476Y-86600000D01*
X126866666Y-86561904D01*
X127057142Y-86561904D01*
X127133333Y-86600000D01*
X127171428Y-86638095D01*
X127209523Y-86714285D01*
X127209523Y-86790476D01*
X127171428Y-86904761D01*
X126714285Y-87361904D01*
X127209523Y-87361904D01*
%TO.C,C23*%
X125685714Y-82385714D02*
X125647619Y-82423809D01*
X125533333Y-82461904D01*
X125457142Y-82461904D01*
X125342857Y-82423809D01*
X125266666Y-82347619D01*
X125228571Y-82271428D01*
X125190476Y-82119047D01*
X125190476Y-82004761D01*
X125228571Y-81852380D01*
X125266666Y-81776190D01*
X125342857Y-81700000D01*
X125457142Y-81661904D01*
X125533333Y-81661904D01*
X125647619Y-81700000D01*
X125685714Y-81738095D01*
X125990476Y-81738095D02*
X126028571Y-81700000D01*
X126104761Y-81661904D01*
X126295238Y-81661904D01*
X126371428Y-81700000D01*
X126409523Y-81738095D01*
X126447619Y-81814285D01*
X126447619Y-81890476D01*
X126409523Y-82004761D01*
X125952380Y-82461904D01*
X126447619Y-82461904D01*
X126714285Y-81661904D02*
X127209523Y-81661904D01*
X126942857Y-81966666D01*
X127057142Y-81966666D01*
X127133333Y-82004761D01*
X127171428Y-82042857D01*
X127209523Y-82119047D01*
X127209523Y-82309523D01*
X127171428Y-82385714D01*
X127133333Y-82423809D01*
X127057142Y-82461904D01*
X126828571Y-82461904D01*
X126752380Y-82423809D01*
X126714285Y-82385714D01*
%TO.C,C24*%
X123585714Y-66685714D02*
X123547619Y-66723809D01*
X123433333Y-66761904D01*
X123357142Y-66761904D01*
X123242857Y-66723809D01*
X123166666Y-66647619D01*
X123128571Y-66571428D01*
X123090476Y-66419047D01*
X123090476Y-66304761D01*
X123128571Y-66152380D01*
X123166666Y-66076190D01*
X123242857Y-66000000D01*
X123357142Y-65961904D01*
X123433333Y-65961904D01*
X123547619Y-66000000D01*
X123585714Y-66038095D01*
X123890476Y-66038095D02*
X123928571Y-66000000D01*
X124004761Y-65961904D01*
X124195238Y-65961904D01*
X124271428Y-66000000D01*
X124309523Y-66038095D01*
X124347619Y-66114285D01*
X124347619Y-66190476D01*
X124309523Y-66304761D01*
X123852380Y-66761904D01*
X124347619Y-66761904D01*
X125033333Y-66228571D02*
X125033333Y-66761904D01*
X124842857Y-65923809D02*
X124652380Y-66495238D01*
X125147619Y-66495238D01*
%TO.C,C25*%
X141385714Y-68585714D02*
X141347619Y-68623809D01*
X141233333Y-68661904D01*
X141157142Y-68661904D01*
X141042857Y-68623809D01*
X140966666Y-68547619D01*
X140928571Y-68471428D01*
X140890476Y-68319047D01*
X140890476Y-68204761D01*
X140928571Y-68052380D01*
X140966666Y-67976190D01*
X141042857Y-67900000D01*
X141157142Y-67861904D01*
X141233333Y-67861904D01*
X141347619Y-67900000D01*
X141385714Y-67938095D01*
X141690476Y-67938095D02*
X141728571Y-67900000D01*
X141804761Y-67861904D01*
X141995238Y-67861904D01*
X142071428Y-67900000D01*
X142109523Y-67938095D01*
X142147619Y-68014285D01*
X142147619Y-68090476D01*
X142109523Y-68204761D01*
X141652380Y-68661904D01*
X142147619Y-68661904D01*
X142871428Y-67861904D02*
X142490476Y-67861904D01*
X142452380Y-68242857D01*
X142490476Y-68204761D01*
X142566666Y-68166666D01*
X142757142Y-68166666D01*
X142833333Y-68204761D01*
X142871428Y-68242857D01*
X142909523Y-68319047D01*
X142909523Y-68509523D01*
X142871428Y-68585714D01*
X142833333Y-68623809D01*
X142757142Y-68661904D01*
X142566666Y-68661904D01*
X142490476Y-68623809D01*
X142452380Y-68585714D01*
%TO.C,C26*%
X141385714Y-66885714D02*
X141347619Y-66923809D01*
X141233333Y-66961904D01*
X141157142Y-66961904D01*
X141042857Y-66923809D01*
X140966666Y-66847619D01*
X140928571Y-66771428D01*
X140890476Y-66619047D01*
X140890476Y-66504761D01*
X140928571Y-66352380D01*
X140966666Y-66276190D01*
X141042857Y-66200000D01*
X141157142Y-66161904D01*
X141233333Y-66161904D01*
X141347619Y-66200000D01*
X141385714Y-66238095D01*
X141690476Y-66238095D02*
X141728571Y-66200000D01*
X141804761Y-66161904D01*
X141995238Y-66161904D01*
X142071428Y-66200000D01*
X142109523Y-66238095D01*
X142147619Y-66314285D01*
X142147619Y-66390476D01*
X142109523Y-66504761D01*
X141652380Y-66961904D01*
X142147619Y-66961904D01*
X142833333Y-66161904D02*
X142680952Y-66161904D01*
X142604761Y-66200000D01*
X142566666Y-66238095D01*
X142490476Y-66352380D01*
X142452380Y-66504761D01*
X142452380Y-66809523D01*
X142490476Y-66885714D01*
X142528571Y-66923809D01*
X142604761Y-66961904D01*
X142757142Y-66961904D01*
X142833333Y-66923809D01*
X142871428Y-66885714D01*
X142909523Y-66809523D01*
X142909523Y-66619047D01*
X142871428Y-66542857D01*
X142833333Y-66504761D01*
X142757142Y-66466666D01*
X142604761Y-66466666D01*
X142528571Y-66504761D01*
X142490476Y-66542857D01*
X142452380Y-66619047D01*
%TO.C,C27*%
X135885714Y-68085714D02*
X135847619Y-68123809D01*
X135733333Y-68161904D01*
X135657142Y-68161904D01*
X135542857Y-68123809D01*
X135466666Y-68047619D01*
X135428571Y-67971428D01*
X135390476Y-67819047D01*
X135390476Y-67704761D01*
X135428571Y-67552380D01*
X135466666Y-67476190D01*
X135542857Y-67400000D01*
X135657142Y-67361904D01*
X135733333Y-67361904D01*
X135847619Y-67400000D01*
X135885714Y-67438095D01*
X136190476Y-67438095D02*
X136228571Y-67400000D01*
X136304761Y-67361904D01*
X136495238Y-67361904D01*
X136571428Y-67400000D01*
X136609523Y-67438095D01*
X136647619Y-67514285D01*
X136647619Y-67590476D01*
X136609523Y-67704761D01*
X136152380Y-68161904D01*
X136647619Y-68161904D01*
X136914285Y-67361904D02*
X137447619Y-67361904D01*
X137104761Y-68161904D01*
%TO.C,C28*%
X138185714Y-64685714D02*
X138147619Y-64723809D01*
X138033333Y-64761904D01*
X137957142Y-64761904D01*
X137842857Y-64723809D01*
X137766666Y-64647619D01*
X137728571Y-64571428D01*
X137690476Y-64419047D01*
X137690476Y-64304761D01*
X137728571Y-64152380D01*
X137766666Y-64076190D01*
X137842857Y-64000000D01*
X137957142Y-63961904D01*
X138033333Y-63961904D01*
X138147619Y-64000000D01*
X138185714Y-64038095D01*
X138490476Y-64038095D02*
X138528571Y-64000000D01*
X138604761Y-63961904D01*
X138795238Y-63961904D01*
X138871428Y-64000000D01*
X138909523Y-64038095D01*
X138947619Y-64114285D01*
X138947619Y-64190476D01*
X138909523Y-64304761D01*
X138452380Y-64761904D01*
X138947619Y-64761904D01*
X139404761Y-64304761D02*
X139328571Y-64266666D01*
X139290476Y-64228571D01*
X139252380Y-64152380D01*
X139252380Y-64114285D01*
X139290476Y-64038095D01*
X139328571Y-64000000D01*
X139404761Y-63961904D01*
X139557142Y-63961904D01*
X139633333Y-64000000D01*
X139671428Y-64038095D01*
X139709523Y-64114285D01*
X139709523Y-64152380D01*
X139671428Y-64228571D01*
X139633333Y-64266666D01*
X139557142Y-64304761D01*
X139404761Y-64304761D01*
X139328571Y-64342857D01*
X139290476Y-64380952D01*
X139252380Y-64457142D01*
X139252380Y-64609523D01*
X139290476Y-64685714D01*
X139328571Y-64723809D01*
X139404761Y-64761904D01*
X139557142Y-64761904D01*
X139633333Y-64723809D01*
X139671428Y-64685714D01*
X139709523Y-64609523D01*
X139709523Y-64457142D01*
X139671428Y-64380952D01*
X139633333Y-64342857D01*
X139557142Y-64304761D01*
%TO.C,C29*%
X135710714Y-82385714D02*
X135672619Y-82423809D01*
X135558333Y-82461904D01*
X135482142Y-82461904D01*
X135367857Y-82423809D01*
X135291666Y-82347619D01*
X135253571Y-82271428D01*
X135215476Y-82119047D01*
X135215476Y-82004761D01*
X135253571Y-81852380D01*
X135291666Y-81776190D01*
X135367857Y-81700000D01*
X135482142Y-81661904D01*
X135558333Y-81661904D01*
X135672619Y-81700000D01*
X135710714Y-81738095D01*
X136015476Y-81738095D02*
X136053571Y-81700000D01*
X136129761Y-81661904D01*
X136320238Y-81661904D01*
X136396428Y-81700000D01*
X136434523Y-81738095D01*
X136472619Y-81814285D01*
X136472619Y-81890476D01*
X136434523Y-82004761D01*
X135977380Y-82461904D01*
X136472619Y-82461904D01*
X136853571Y-82461904D02*
X137005952Y-82461904D01*
X137082142Y-82423809D01*
X137120238Y-82385714D01*
X137196428Y-82271428D01*
X137234523Y-82119047D01*
X137234523Y-81814285D01*
X137196428Y-81738095D01*
X137158333Y-81700000D01*
X137082142Y-81661904D01*
X136929761Y-81661904D01*
X136853571Y-81700000D01*
X136815476Y-81738095D01*
X136777380Y-81814285D01*
X136777380Y-82004761D01*
X136815476Y-82080952D01*
X136853571Y-82119047D01*
X136929761Y-82157142D01*
X137082142Y-82157142D01*
X137158333Y-82119047D01*
X137196428Y-82080952D01*
X137234523Y-82004761D01*
%TO.C,C30*%
X135685714Y-86785714D02*
X135647619Y-86823809D01*
X135533333Y-86861904D01*
X135457142Y-86861904D01*
X135342857Y-86823809D01*
X135266666Y-86747619D01*
X135228571Y-86671428D01*
X135190476Y-86519047D01*
X135190476Y-86404761D01*
X135228571Y-86252380D01*
X135266666Y-86176190D01*
X135342857Y-86100000D01*
X135457142Y-86061904D01*
X135533333Y-86061904D01*
X135647619Y-86100000D01*
X135685714Y-86138095D01*
X135952380Y-86061904D02*
X136447619Y-86061904D01*
X136180952Y-86366666D01*
X136295238Y-86366666D01*
X136371428Y-86404761D01*
X136409523Y-86442857D01*
X136447619Y-86519047D01*
X136447619Y-86709523D01*
X136409523Y-86785714D01*
X136371428Y-86823809D01*
X136295238Y-86861904D01*
X136066666Y-86861904D01*
X135990476Y-86823809D01*
X135952380Y-86785714D01*
X136942857Y-86061904D02*
X137019047Y-86061904D01*
X137095238Y-86100000D01*
X137133333Y-86138095D01*
X137171428Y-86214285D01*
X137209523Y-86366666D01*
X137209523Y-86557142D01*
X137171428Y-86709523D01*
X137133333Y-86785714D01*
X137095238Y-86823809D01*
X137019047Y-86861904D01*
X136942857Y-86861904D01*
X136866666Y-86823809D01*
X136828571Y-86785714D01*
X136790476Y-86709523D01*
X136752380Y-86557142D01*
X136752380Y-86366666D01*
X136790476Y-86214285D01*
X136828571Y-86138095D01*
X136866666Y-86100000D01*
X136942857Y-86061904D01*
%TO.C,C31*%
X126185714Y-66585714D02*
X126147619Y-66623809D01*
X126033333Y-66661904D01*
X125957142Y-66661904D01*
X125842857Y-66623809D01*
X125766666Y-66547619D01*
X125728571Y-66471428D01*
X125690476Y-66319047D01*
X125690476Y-66204761D01*
X125728571Y-66052380D01*
X125766666Y-65976190D01*
X125842857Y-65900000D01*
X125957142Y-65861904D01*
X126033333Y-65861904D01*
X126147619Y-65900000D01*
X126185714Y-65938095D01*
X126452380Y-65861904D02*
X126947619Y-65861904D01*
X126680952Y-66166666D01*
X126795238Y-66166666D01*
X126871428Y-66204761D01*
X126909523Y-66242857D01*
X126947619Y-66319047D01*
X126947619Y-66509523D01*
X126909523Y-66585714D01*
X126871428Y-66623809D01*
X126795238Y-66661904D01*
X126566666Y-66661904D01*
X126490476Y-66623809D01*
X126452380Y-66585714D01*
X127709523Y-66661904D02*
X127252380Y-66661904D01*
X127480952Y-66661904D02*
X127480952Y-65861904D01*
X127404761Y-65976190D01*
X127328571Y-66052380D01*
X127252380Y-66090476D01*
%TO.C,C32*%
X129185714Y-63585714D02*
X129147619Y-63623809D01*
X129033333Y-63661904D01*
X128957142Y-63661904D01*
X128842857Y-63623809D01*
X128766666Y-63547619D01*
X128728571Y-63471428D01*
X128690476Y-63319047D01*
X128690476Y-63204761D01*
X128728571Y-63052380D01*
X128766666Y-62976190D01*
X128842857Y-62900000D01*
X128957142Y-62861904D01*
X129033333Y-62861904D01*
X129147619Y-62900000D01*
X129185714Y-62938095D01*
X129452380Y-62861904D02*
X129947619Y-62861904D01*
X129680952Y-63166666D01*
X129795238Y-63166666D01*
X129871428Y-63204761D01*
X129909523Y-63242857D01*
X129947619Y-63319047D01*
X129947619Y-63509523D01*
X129909523Y-63585714D01*
X129871428Y-63623809D01*
X129795238Y-63661904D01*
X129566666Y-63661904D01*
X129490476Y-63623809D01*
X129452380Y-63585714D01*
X130252380Y-62938095D02*
X130290476Y-62900000D01*
X130366666Y-62861904D01*
X130557142Y-62861904D01*
X130633333Y-62900000D01*
X130671428Y-62938095D01*
X130709523Y-63014285D01*
X130709523Y-63090476D01*
X130671428Y-63204761D01*
X130214285Y-63661904D01*
X130709523Y-63661904D01*
%TO.C,J1*%
X106533333Y-56961904D02*
X106533333Y-57533333D01*
X106495238Y-57647619D01*
X106419047Y-57723809D01*
X106304761Y-57761904D01*
X106228571Y-57761904D01*
X107333333Y-57761904D02*
X106876190Y-57761904D01*
X107104761Y-57761904D02*
X107104761Y-56961904D01*
X107028571Y-57076190D01*
X106952380Y-57152380D01*
X106876190Y-57190476D01*
%TO.C,R1*%
X122066666Y-89461904D02*
X121800000Y-89080952D01*
X121609523Y-89461904D02*
X121609523Y-88661904D01*
X121914285Y-88661904D01*
X121990476Y-88700000D01*
X122028571Y-88738095D01*
X122066666Y-88814285D01*
X122066666Y-88928571D01*
X122028571Y-89004761D01*
X121990476Y-89042857D01*
X121914285Y-89080952D01*
X121609523Y-89080952D01*
X122828571Y-89461904D02*
X122371428Y-89461904D01*
X122600000Y-89461904D02*
X122600000Y-88661904D01*
X122523809Y-88776190D01*
X122447619Y-88852380D01*
X122371428Y-88890476D01*
%TO.C,R2*%
X122066666Y-85961904D02*
X121800000Y-85580952D01*
X121609523Y-85961904D02*
X121609523Y-85161904D01*
X121914285Y-85161904D01*
X121990476Y-85200000D01*
X122028571Y-85238095D01*
X122066666Y-85314285D01*
X122066666Y-85428571D01*
X122028571Y-85504761D01*
X121990476Y-85542857D01*
X121914285Y-85580952D01*
X121609523Y-85580952D01*
X122371428Y-85238095D02*
X122409523Y-85200000D01*
X122485714Y-85161904D01*
X122676190Y-85161904D01*
X122752380Y-85200000D01*
X122790476Y-85238095D01*
X122828571Y-85314285D01*
X122828571Y-85390476D01*
X122790476Y-85504761D01*
X122333333Y-85961904D01*
X122828571Y-85961904D01*
%TO.C,R3*%
X122066666Y-82561904D02*
X121800000Y-82180952D01*
X121609523Y-82561904D02*
X121609523Y-81761904D01*
X121914285Y-81761904D01*
X121990476Y-81800000D01*
X122028571Y-81838095D01*
X122066666Y-81914285D01*
X122066666Y-82028571D01*
X122028571Y-82104761D01*
X121990476Y-82142857D01*
X121914285Y-82180952D01*
X121609523Y-82180952D01*
X122333333Y-81761904D02*
X122828571Y-81761904D01*
X122561904Y-82066666D01*
X122676190Y-82066666D01*
X122752380Y-82104761D01*
X122790476Y-82142857D01*
X122828571Y-82219047D01*
X122828571Y-82409523D01*
X122790476Y-82485714D01*
X122752380Y-82523809D01*
X122676190Y-82561904D01*
X122447619Y-82561904D01*
X122371428Y-82523809D01*
X122333333Y-82485714D01*
%TO.C,R4*%
X122066666Y-79061904D02*
X121800000Y-78680952D01*
X121609523Y-79061904D02*
X121609523Y-78261904D01*
X121914285Y-78261904D01*
X121990476Y-78300000D01*
X122028571Y-78338095D01*
X122066666Y-78414285D01*
X122066666Y-78528571D01*
X122028571Y-78604761D01*
X121990476Y-78642857D01*
X121914285Y-78680952D01*
X121609523Y-78680952D01*
X122752380Y-78528571D02*
X122752380Y-79061904D01*
X122561904Y-78223809D02*
X122371428Y-78795238D01*
X122866666Y-78795238D01*
%TO.C,R5*%
X122066666Y-75761904D02*
X121800000Y-75380952D01*
X121609523Y-75761904D02*
X121609523Y-74961904D01*
X121914285Y-74961904D01*
X121990476Y-75000000D01*
X122028571Y-75038095D01*
X122066666Y-75114285D01*
X122066666Y-75228571D01*
X122028571Y-75304761D01*
X121990476Y-75342857D01*
X121914285Y-75380952D01*
X121609523Y-75380952D01*
X122790476Y-74961904D02*
X122409523Y-74961904D01*
X122371428Y-75342857D01*
X122409523Y-75304761D01*
X122485714Y-75266666D01*
X122676190Y-75266666D01*
X122752380Y-75304761D01*
X122790476Y-75342857D01*
X122828571Y-75419047D01*
X122828571Y-75609523D01*
X122790476Y-75685714D01*
X122752380Y-75723809D01*
X122676190Y-75761904D01*
X122485714Y-75761904D01*
X122409523Y-75723809D01*
X122371428Y-75685714D01*
%TO.C,R6*%
X122066666Y-72361904D02*
X121800000Y-71980952D01*
X121609523Y-72361904D02*
X121609523Y-71561904D01*
X121914285Y-71561904D01*
X121990476Y-71600000D01*
X122028571Y-71638095D01*
X122066666Y-71714285D01*
X122066666Y-71828571D01*
X122028571Y-71904761D01*
X121990476Y-71942857D01*
X121914285Y-71980952D01*
X121609523Y-71980952D01*
X122752380Y-71561904D02*
X122600000Y-71561904D01*
X122523809Y-71600000D01*
X122485714Y-71638095D01*
X122409523Y-71752380D01*
X122371428Y-71904761D01*
X122371428Y-72209523D01*
X122409523Y-72285714D01*
X122447619Y-72323809D01*
X122523809Y-72361904D01*
X122676190Y-72361904D01*
X122752380Y-72323809D01*
X122790476Y-72285714D01*
X122828571Y-72209523D01*
X122828571Y-72019047D01*
X122790476Y-71942857D01*
X122752380Y-71904761D01*
X122676190Y-71866666D01*
X122523809Y-71866666D01*
X122447619Y-71904761D01*
X122409523Y-71942857D01*
X122371428Y-72019047D01*
%TO.C,R7*%
X122066666Y-68861904D02*
X121800000Y-68480952D01*
X121609523Y-68861904D02*
X121609523Y-68061904D01*
X121914285Y-68061904D01*
X121990476Y-68100000D01*
X122028571Y-68138095D01*
X122066666Y-68214285D01*
X122066666Y-68328571D01*
X122028571Y-68404761D01*
X121990476Y-68442857D01*
X121914285Y-68480952D01*
X121609523Y-68480952D01*
X122333333Y-68061904D02*
X122866666Y-68061904D01*
X122523809Y-68861904D01*
%TO.C,R8*%
X122066666Y-65561904D02*
X121800000Y-65180952D01*
X121609523Y-65561904D02*
X121609523Y-64761904D01*
X121914285Y-64761904D01*
X121990476Y-64800000D01*
X122028571Y-64838095D01*
X122066666Y-64914285D01*
X122066666Y-65028571D01*
X122028571Y-65104761D01*
X121990476Y-65142857D01*
X121914285Y-65180952D01*
X121609523Y-65180952D01*
X122523809Y-65104761D02*
X122447619Y-65066666D01*
X122409523Y-65028571D01*
X122371428Y-64952380D01*
X122371428Y-64914285D01*
X122409523Y-64838095D01*
X122447619Y-64800000D01*
X122523809Y-64761904D01*
X122676190Y-64761904D01*
X122752380Y-64800000D01*
X122790476Y-64838095D01*
X122828571Y-64914285D01*
X122828571Y-64952380D01*
X122790476Y-65028571D01*
X122752380Y-65066666D01*
X122676190Y-65104761D01*
X122523809Y-65104761D01*
X122447619Y-65142857D01*
X122409523Y-65180952D01*
X122371428Y-65257142D01*
X122371428Y-65409523D01*
X122409523Y-65485714D01*
X122447619Y-65523809D01*
X122523809Y-65561904D01*
X122676190Y-65561904D01*
X122752380Y-65523809D01*
X122790476Y-65485714D01*
X122828571Y-65409523D01*
X122828571Y-65257142D01*
X122790476Y-65180952D01*
X122752380Y-65142857D01*
X122676190Y-65104761D01*
%TO.C,R9*%
X113666666Y-89361904D02*
X113400000Y-88980952D01*
X113209523Y-89361904D02*
X113209523Y-88561904D01*
X113514285Y-88561904D01*
X113590476Y-88600000D01*
X113628571Y-88638095D01*
X113666666Y-88714285D01*
X113666666Y-88828571D01*
X113628571Y-88904761D01*
X113590476Y-88942857D01*
X113514285Y-88980952D01*
X113209523Y-88980952D01*
X114047619Y-89361904D02*
X114200000Y-89361904D01*
X114276190Y-89323809D01*
X114314285Y-89285714D01*
X114390476Y-89171428D01*
X114428571Y-89019047D01*
X114428571Y-88714285D01*
X114390476Y-88638095D01*
X114352380Y-88600000D01*
X114276190Y-88561904D01*
X114123809Y-88561904D01*
X114047619Y-88600000D01*
X114009523Y-88638095D01*
X113971428Y-88714285D01*
X113971428Y-88904761D01*
X114009523Y-88980952D01*
X114047619Y-89019047D01*
X114123809Y-89057142D01*
X114276190Y-89057142D01*
X114352380Y-89019047D01*
X114390476Y-88980952D01*
X114428571Y-88904761D01*
%TO.C,R10*%
X112985714Y-86061904D02*
X112719047Y-85680952D01*
X112528571Y-86061904D02*
X112528571Y-85261904D01*
X112833333Y-85261904D01*
X112909523Y-85300000D01*
X112947619Y-85338095D01*
X112985714Y-85414285D01*
X112985714Y-85528571D01*
X112947619Y-85604761D01*
X112909523Y-85642857D01*
X112833333Y-85680952D01*
X112528571Y-85680952D01*
X113747619Y-86061904D02*
X113290476Y-86061904D01*
X113519047Y-86061904D02*
X113519047Y-85261904D01*
X113442857Y-85376190D01*
X113366666Y-85452380D01*
X113290476Y-85490476D01*
X114242857Y-85261904D02*
X114319047Y-85261904D01*
X114395238Y-85300000D01*
X114433333Y-85338095D01*
X114471428Y-85414285D01*
X114509523Y-85566666D01*
X114509523Y-85757142D01*
X114471428Y-85909523D01*
X114433333Y-85985714D01*
X114395238Y-86023809D01*
X114319047Y-86061904D01*
X114242857Y-86061904D01*
X114166666Y-86023809D01*
X114128571Y-85985714D01*
X114090476Y-85909523D01*
X114052380Y-85757142D01*
X114052380Y-85566666D01*
X114090476Y-85414285D01*
X114128571Y-85338095D01*
X114166666Y-85300000D01*
X114242857Y-85261904D01*
%TO.C,R11*%
X113085714Y-82661904D02*
X112819047Y-82280952D01*
X112628571Y-82661904D02*
X112628571Y-81861904D01*
X112933333Y-81861904D01*
X113009523Y-81900000D01*
X113047619Y-81938095D01*
X113085714Y-82014285D01*
X113085714Y-82128571D01*
X113047619Y-82204761D01*
X113009523Y-82242857D01*
X112933333Y-82280952D01*
X112628571Y-82280952D01*
X113847619Y-82661904D02*
X113390476Y-82661904D01*
X113619047Y-82661904D02*
X113619047Y-81861904D01*
X113542857Y-81976190D01*
X113466666Y-82052380D01*
X113390476Y-82090476D01*
X114609523Y-82661904D02*
X114152380Y-82661904D01*
X114380952Y-82661904D02*
X114380952Y-81861904D01*
X114304761Y-81976190D01*
X114228571Y-82052380D01*
X114152380Y-82090476D01*
%TO.C,R12*%
X113085714Y-79061904D02*
X112819047Y-78680952D01*
X112628571Y-79061904D02*
X112628571Y-78261904D01*
X112933333Y-78261904D01*
X113009523Y-78300000D01*
X113047619Y-78338095D01*
X113085714Y-78414285D01*
X113085714Y-78528571D01*
X113047619Y-78604761D01*
X113009523Y-78642857D01*
X112933333Y-78680952D01*
X112628571Y-78680952D01*
X113847619Y-79061904D02*
X113390476Y-79061904D01*
X113619047Y-79061904D02*
X113619047Y-78261904D01*
X113542857Y-78376190D01*
X113466666Y-78452380D01*
X113390476Y-78490476D01*
X114152380Y-78338095D02*
X114190476Y-78300000D01*
X114266666Y-78261904D01*
X114457142Y-78261904D01*
X114533333Y-78300000D01*
X114571428Y-78338095D01*
X114609523Y-78414285D01*
X114609523Y-78490476D01*
X114571428Y-78604761D01*
X114114285Y-79061904D01*
X114609523Y-79061904D01*
%TO.C,R13*%
X113085714Y-75661904D02*
X112819047Y-75280952D01*
X112628571Y-75661904D02*
X112628571Y-74861904D01*
X112933333Y-74861904D01*
X113009523Y-74900000D01*
X113047619Y-74938095D01*
X113085714Y-75014285D01*
X113085714Y-75128571D01*
X113047619Y-75204761D01*
X113009523Y-75242857D01*
X112933333Y-75280952D01*
X112628571Y-75280952D01*
X113847619Y-75661904D02*
X113390476Y-75661904D01*
X113619047Y-75661904D02*
X113619047Y-74861904D01*
X113542857Y-74976190D01*
X113466666Y-75052380D01*
X113390476Y-75090476D01*
X114114285Y-74861904D02*
X114609523Y-74861904D01*
X114342857Y-75166666D01*
X114457142Y-75166666D01*
X114533333Y-75204761D01*
X114571428Y-75242857D01*
X114609523Y-75319047D01*
X114609523Y-75509523D01*
X114571428Y-75585714D01*
X114533333Y-75623809D01*
X114457142Y-75661904D01*
X114228571Y-75661904D01*
X114152380Y-75623809D01*
X114114285Y-75585714D01*
%TO.C,R14*%
X112985714Y-72261904D02*
X112719047Y-71880952D01*
X112528571Y-72261904D02*
X112528571Y-71461904D01*
X112833333Y-71461904D01*
X112909523Y-71500000D01*
X112947619Y-71538095D01*
X112985714Y-71614285D01*
X112985714Y-71728571D01*
X112947619Y-71804761D01*
X112909523Y-71842857D01*
X112833333Y-71880952D01*
X112528571Y-71880952D01*
X113747619Y-72261904D02*
X113290476Y-72261904D01*
X113519047Y-72261904D02*
X113519047Y-71461904D01*
X113442857Y-71576190D01*
X113366666Y-71652380D01*
X113290476Y-71690476D01*
X114433333Y-71728571D02*
X114433333Y-72261904D01*
X114242857Y-71423809D02*
X114052380Y-71995238D01*
X114547619Y-71995238D01*
%TO.C,R15*%
X112985714Y-68961904D02*
X112719047Y-68580952D01*
X112528571Y-68961904D02*
X112528571Y-68161904D01*
X112833333Y-68161904D01*
X112909523Y-68200000D01*
X112947619Y-68238095D01*
X112985714Y-68314285D01*
X112985714Y-68428571D01*
X112947619Y-68504761D01*
X112909523Y-68542857D01*
X112833333Y-68580952D01*
X112528571Y-68580952D01*
X113747619Y-68961904D02*
X113290476Y-68961904D01*
X113519047Y-68961904D02*
X113519047Y-68161904D01*
X113442857Y-68276190D01*
X113366666Y-68352380D01*
X113290476Y-68390476D01*
X114471428Y-68161904D02*
X114090476Y-68161904D01*
X114052380Y-68542857D01*
X114090476Y-68504761D01*
X114166666Y-68466666D01*
X114357142Y-68466666D01*
X114433333Y-68504761D01*
X114471428Y-68542857D01*
X114509523Y-68619047D01*
X114509523Y-68809523D01*
X114471428Y-68885714D01*
X114433333Y-68923809D01*
X114357142Y-68961904D01*
X114166666Y-68961904D01*
X114090476Y-68923809D01*
X114052380Y-68885714D01*
%TO.C,R16*%
X113085714Y-65461904D02*
X112819047Y-65080952D01*
X112628571Y-65461904D02*
X112628571Y-64661904D01*
X112933333Y-64661904D01*
X113009523Y-64700000D01*
X113047619Y-64738095D01*
X113085714Y-64814285D01*
X113085714Y-64928571D01*
X113047619Y-65004761D01*
X113009523Y-65042857D01*
X112933333Y-65080952D01*
X112628571Y-65080952D01*
X113847619Y-65461904D02*
X113390476Y-65461904D01*
X113619047Y-65461904D02*
X113619047Y-64661904D01*
X113542857Y-64776190D01*
X113466666Y-64852380D01*
X113390476Y-64890476D01*
X114533333Y-64661904D02*
X114380952Y-64661904D01*
X114304761Y-64700000D01*
X114266666Y-64738095D01*
X114190476Y-64852380D01*
X114152380Y-65004761D01*
X114152380Y-65309523D01*
X114190476Y-65385714D01*
X114228571Y-65423809D01*
X114304761Y-65461904D01*
X114457142Y-65461904D01*
X114533333Y-65423809D01*
X114571428Y-65385714D01*
X114609523Y-65309523D01*
X114609523Y-65119047D01*
X114571428Y-65042857D01*
X114533333Y-65004761D01*
X114457142Y-64966666D01*
X114304761Y-64966666D01*
X114228571Y-65004761D01*
X114190476Y-65042857D01*
X114152380Y-65119047D01*
%TO.C,R17*%
X126585714Y-63761904D02*
X126319047Y-63380952D01*
X126128571Y-63761904D02*
X126128571Y-62961904D01*
X126433333Y-62961904D01*
X126509523Y-63000000D01*
X126547619Y-63038095D01*
X126585714Y-63114285D01*
X126585714Y-63228571D01*
X126547619Y-63304761D01*
X126509523Y-63342857D01*
X126433333Y-63380952D01*
X126128571Y-63380952D01*
X127347619Y-63761904D02*
X126890476Y-63761904D01*
X127119047Y-63761904D02*
X127119047Y-62961904D01*
X127042857Y-63076190D01*
X126966666Y-63152380D01*
X126890476Y-63190476D01*
X127614285Y-62961904D02*
X128147619Y-62961904D01*
X127804761Y-63761904D01*
%TO.C,U1*%
X108990476Y-87661904D02*
X108990476Y-88309523D01*
X109028571Y-88385714D01*
X109066666Y-88423809D01*
X109142857Y-88461904D01*
X109295238Y-88461904D01*
X109371428Y-88423809D01*
X109409523Y-88385714D01*
X109447619Y-88309523D01*
X109447619Y-87661904D01*
X110247619Y-88461904D02*
X109790476Y-88461904D01*
X110019047Y-88461904D02*
X110019047Y-87661904D01*
X109942857Y-87776190D01*
X109866666Y-87852380D01*
X109790476Y-87890476D01*
%TO.C,U2*%
X108890476Y-82561904D02*
X108890476Y-83209523D01*
X108928571Y-83285714D01*
X108966666Y-83323809D01*
X109042857Y-83361904D01*
X109195238Y-83361904D01*
X109271428Y-83323809D01*
X109309523Y-83285714D01*
X109347619Y-83209523D01*
X109347619Y-82561904D01*
X109690476Y-82638095D02*
X109728571Y-82600000D01*
X109804761Y-82561904D01*
X109995238Y-82561904D01*
X110071428Y-82600000D01*
X110109523Y-82638095D01*
X110147619Y-82714285D01*
X110147619Y-82790476D01*
X110109523Y-82904761D01*
X109652380Y-83361904D01*
X110147619Y-83361904D01*
%TO.C,U3*%
X109090476Y-75661904D02*
X109090476Y-76309523D01*
X109128571Y-76385714D01*
X109166666Y-76423809D01*
X109242857Y-76461904D01*
X109395238Y-76461904D01*
X109471428Y-76423809D01*
X109509523Y-76385714D01*
X109547619Y-76309523D01*
X109547619Y-75661904D01*
X109852380Y-75661904D02*
X110347619Y-75661904D01*
X110080952Y-75966666D01*
X110195238Y-75966666D01*
X110271428Y-76004761D01*
X110309523Y-76042857D01*
X110347619Y-76119047D01*
X110347619Y-76309523D01*
X110309523Y-76385714D01*
X110271428Y-76423809D01*
X110195238Y-76461904D01*
X109966666Y-76461904D01*
X109890476Y-76423809D01*
X109852380Y-76385714D01*
%TO.C,U4*%
X109090476Y-70661904D02*
X109090476Y-71309523D01*
X109128571Y-71385714D01*
X109166666Y-71423809D01*
X109242857Y-71461904D01*
X109395238Y-71461904D01*
X109471428Y-71423809D01*
X109509523Y-71385714D01*
X109547619Y-71309523D01*
X109547619Y-70661904D01*
X110271428Y-70928571D02*
X110271428Y-71461904D01*
X110080952Y-70623809D02*
X109890476Y-71195238D01*
X110385714Y-71195238D01*
%TO.C,U5*%
X109190476Y-66561904D02*
X109190476Y-67209523D01*
X109228571Y-67285714D01*
X109266666Y-67323809D01*
X109342857Y-67361904D01*
X109495238Y-67361904D01*
X109571428Y-67323809D01*
X109609523Y-67285714D01*
X109647619Y-67209523D01*
X109647619Y-66561904D01*
X110409523Y-66561904D02*
X110028571Y-66561904D01*
X109990476Y-66942857D01*
X110028571Y-66904761D01*
X110104761Y-66866666D01*
X110295238Y-66866666D01*
X110371428Y-66904761D01*
X110409523Y-66942857D01*
X110447619Y-67019047D01*
X110447619Y-67209523D01*
X110409523Y-67285714D01*
X110371428Y-67323809D01*
X110295238Y-67361904D01*
X110104761Y-67361904D01*
X110028571Y-67323809D01*
X109990476Y-67285714D01*
%TO.C,U6*%
X109190476Y-62661904D02*
X109190476Y-63309523D01*
X109228571Y-63385714D01*
X109266666Y-63423809D01*
X109342857Y-63461904D01*
X109495238Y-63461904D01*
X109571428Y-63423809D01*
X109609523Y-63385714D01*
X109647619Y-63309523D01*
X109647619Y-62661904D01*
X110371428Y-62661904D02*
X110219047Y-62661904D01*
X110142857Y-62700000D01*
X110104761Y-62738095D01*
X110028571Y-62852380D01*
X109990476Y-63004761D01*
X109990476Y-63309523D01*
X110028571Y-63385714D01*
X110066666Y-63423809D01*
X110142857Y-63461904D01*
X110295238Y-63461904D01*
X110371428Y-63423809D01*
X110409523Y-63385714D01*
X110447619Y-63309523D01*
X110447619Y-63119047D01*
X110409523Y-63042857D01*
X110371428Y-63004761D01*
X110295238Y-62966666D01*
X110142857Y-62966666D01*
X110066666Y-63004761D01*
X110028571Y-63042857D01*
X109990476Y-63119047D01*
%TO.C,U7*%
X124490476Y-68261904D02*
X124490476Y-68909523D01*
X124528571Y-68985714D01*
X124566666Y-69023809D01*
X124642857Y-69061904D01*
X124795238Y-69061904D01*
X124871428Y-69023809D01*
X124909523Y-68985714D01*
X124947619Y-68909523D01*
X124947619Y-68261904D01*
X125252380Y-68261904D02*
X125785714Y-68261904D01*
X125442857Y-69061904D01*
%TO.C,J2*%
X146663333Y-66291904D02*
X146663333Y-66863333D01*
X146625238Y-66977619D01*
X146549047Y-67053809D01*
X146434761Y-67091904D01*
X146358571Y-67091904D01*
X147006190Y-66368095D02*
X147044285Y-66330000D01*
X147120476Y-66291904D01*
X147310952Y-66291904D01*
X147387142Y-66330000D01*
X147425238Y-66368095D01*
X147463333Y-66444285D01*
X147463333Y-66520476D01*
X147425238Y-66634761D01*
X146968095Y-67091904D01*
X147463333Y-67091904D01*
%TO.C,C33*%
X112885714Y-60385714D02*
X112847619Y-60423809D01*
X112733333Y-60461904D01*
X112657142Y-60461904D01*
X112542857Y-60423809D01*
X112466666Y-60347619D01*
X112428571Y-60271428D01*
X112390476Y-60119047D01*
X112390476Y-60004761D01*
X112428571Y-59852380D01*
X112466666Y-59776190D01*
X112542857Y-59700000D01*
X112657142Y-59661904D01*
X112733333Y-59661904D01*
X112847619Y-59700000D01*
X112885714Y-59738095D01*
X113152380Y-59661904D02*
X113647619Y-59661904D01*
X113380952Y-59966666D01*
X113495238Y-59966666D01*
X113571428Y-60004761D01*
X113609523Y-60042857D01*
X113647619Y-60119047D01*
X113647619Y-60309523D01*
X113609523Y-60385714D01*
X113571428Y-60423809D01*
X113495238Y-60461904D01*
X113266666Y-60461904D01*
X113190476Y-60423809D01*
X113152380Y-60385714D01*
X113914285Y-59661904D02*
X114409523Y-59661904D01*
X114142857Y-59966666D01*
X114257142Y-59966666D01*
X114333333Y-60004761D01*
X114371428Y-60042857D01*
X114409523Y-60119047D01*
X114409523Y-60309523D01*
X114371428Y-60385714D01*
X114333333Y-60423809D01*
X114257142Y-60461904D01*
X114028571Y-60461904D01*
X113952380Y-60423809D01*
X113914285Y-60385714D01*
%TO.C,C34*%
X122085714Y-91085714D02*
X122047619Y-91123809D01*
X121933333Y-91161904D01*
X121857142Y-91161904D01*
X121742857Y-91123809D01*
X121666666Y-91047619D01*
X121628571Y-90971428D01*
X121590476Y-90819047D01*
X121590476Y-90704761D01*
X121628571Y-90552380D01*
X121666666Y-90476190D01*
X121742857Y-90400000D01*
X121857142Y-90361904D01*
X121933333Y-90361904D01*
X122047619Y-90400000D01*
X122085714Y-90438095D01*
X122352380Y-90361904D02*
X122847619Y-90361904D01*
X122580952Y-90666666D01*
X122695238Y-90666666D01*
X122771428Y-90704761D01*
X122809523Y-90742857D01*
X122847619Y-90819047D01*
X122847619Y-91009523D01*
X122809523Y-91085714D01*
X122771428Y-91123809D01*
X122695238Y-91161904D01*
X122466666Y-91161904D01*
X122390476Y-91123809D01*
X122352380Y-91085714D01*
X123533333Y-90628571D02*
X123533333Y-91161904D01*
X123342857Y-90323809D02*
X123152380Y-90895238D01*
X123647619Y-90895238D01*
%TO.C,C35*%
X122085714Y-94585714D02*
X122047619Y-94623809D01*
X121933333Y-94661904D01*
X121857142Y-94661904D01*
X121742857Y-94623809D01*
X121666666Y-94547619D01*
X121628571Y-94471428D01*
X121590476Y-94319047D01*
X121590476Y-94204761D01*
X121628571Y-94052380D01*
X121666666Y-93976190D01*
X121742857Y-93900000D01*
X121857142Y-93861904D01*
X121933333Y-93861904D01*
X122047619Y-93900000D01*
X122085714Y-93938095D01*
X122352380Y-93861904D02*
X122847619Y-93861904D01*
X122580952Y-94166666D01*
X122695238Y-94166666D01*
X122771428Y-94204761D01*
X122809523Y-94242857D01*
X122847619Y-94319047D01*
X122847619Y-94509523D01*
X122809523Y-94585714D01*
X122771428Y-94623809D01*
X122695238Y-94661904D01*
X122466666Y-94661904D01*
X122390476Y-94623809D01*
X122352380Y-94585714D01*
X123571428Y-93861904D02*
X123190476Y-93861904D01*
X123152380Y-94242857D01*
X123190476Y-94204761D01*
X123266666Y-94166666D01*
X123457142Y-94166666D01*
X123533333Y-94204761D01*
X123571428Y-94242857D01*
X123609523Y-94319047D01*
X123609523Y-94509523D01*
X123571428Y-94585714D01*
X123533333Y-94623809D01*
X123457142Y-94661904D01*
X123266666Y-94661904D01*
X123190476Y-94623809D01*
X123152380Y-94585714D01*
%TO.C,R22*%
X112985714Y-62061904D02*
X112719047Y-61680952D01*
X112528571Y-62061904D02*
X112528571Y-61261904D01*
X112833333Y-61261904D01*
X112909523Y-61300000D01*
X112947619Y-61338095D01*
X112985714Y-61414285D01*
X112985714Y-61528571D01*
X112947619Y-61604761D01*
X112909523Y-61642857D01*
X112833333Y-61680952D01*
X112528571Y-61680952D01*
X113290476Y-61338095D02*
X113328571Y-61300000D01*
X113404761Y-61261904D01*
X113595238Y-61261904D01*
X113671428Y-61300000D01*
X113709523Y-61338095D01*
X113747619Y-61414285D01*
X113747619Y-61490476D01*
X113709523Y-61604761D01*
X113252380Y-62061904D01*
X113747619Y-62061904D01*
X114052380Y-61338095D02*
X114090476Y-61300000D01*
X114166666Y-61261904D01*
X114357142Y-61261904D01*
X114433333Y-61300000D01*
X114471428Y-61338095D01*
X114509523Y-61414285D01*
X114509523Y-61490476D01*
X114471428Y-61604761D01*
X114014285Y-62061904D01*
X114509523Y-62061904D01*
%TO.C,R23*%
X121985714Y-92861904D02*
X121719047Y-92480952D01*
X121528571Y-92861904D02*
X121528571Y-92061904D01*
X121833333Y-92061904D01*
X121909523Y-92100000D01*
X121947619Y-92138095D01*
X121985714Y-92214285D01*
X121985714Y-92328571D01*
X121947619Y-92404761D01*
X121909523Y-92442857D01*
X121833333Y-92480952D01*
X121528571Y-92480952D01*
X122290476Y-92138095D02*
X122328571Y-92100000D01*
X122404761Y-92061904D01*
X122595238Y-92061904D01*
X122671428Y-92100000D01*
X122709523Y-92138095D01*
X122747619Y-92214285D01*
X122747619Y-92290476D01*
X122709523Y-92404761D01*
X122252380Y-92861904D01*
X122747619Y-92861904D01*
X123014285Y-92061904D02*
X123509523Y-92061904D01*
X123242857Y-92366666D01*
X123357142Y-92366666D01*
X123433333Y-92404761D01*
X123471428Y-92442857D01*
X123509523Y-92519047D01*
X123509523Y-92709523D01*
X123471428Y-92785714D01*
X123433333Y-92823809D01*
X123357142Y-92861904D01*
X123128571Y-92861904D01*
X123052380Y-92823809D01*
X123014285Y-92785714D01*
%TO.C,R24*%
X122085714Y-96261904D02*
X121819047Y-95880952D01*
X121628571Y-96261904D02*
X121628571Y-95461904D01*
X121933333Y-95461904D01*
X122009523Y-95500000D01*
X122047619Y-95538095D01*
X122085714Y-95614285D01*
X122085714Y-95728571D01*
X122047619Y-95804761D01*
X122009523Y-95842857D01*
X121933333Y-95880952D01*
X121628571Y-95880952D01*
X122390476Y-95538095D02*
X122428571Y-95500000D01*
X122504761Y-95461904D01*
X122695238Y-95461904D01*
X122771428Y-95500000D01*
X122809523Y-95538095D01*
X122847619Y-95614285D01*
X122847619Y-95690476D01*
X122809523Y-95804761D01*
X122352380Y-96261904D01*
X122847619Y-96261904D01*
X123533333Y-95728571D02*
X123533333Y-96261904D01*
X123342857Y-95423809D02*
X123152380Y-95995238D01*
X123647619Y-95995238D01*
%TO.C,J3*%
X107933333Y-50661904D02*
X107933333Y-51233333D01*
X107895238Y-51347619D01*
X107819047Y-51423809D01*
X107704761Y-51461904D01*
X107628571Y-51461904D01*
X108238095Y-50661904D02*
X108733333Y-50661904D01*
X108466666Y-50966666D01*
X108580952Y-50966666D01*
X108657142Y-51004761D01*
X108695238Y-51042857D01*
X108733333Y-51119047D01*
X108733333Y-51309523D01*
X108695238Y-51385714D01*
X108657142Y-51423809D01*
X108580952Y-51461904D01*
X108352380Y-51461904D01*
X108276190Y-51423809D01*
X108238095Y-51385714D01*
%TO.C,J4*%
X107933333Y-98261904D02*
X107933333Y-98833333D01*
X107895238Y-98947619D01*
X107819047Y-99023809D01*
X107704761Y-99061904D01*
X107628571Y-99061904D01*
X108657142Y-98528571D02*
X108657142Y-99061904D01*
X108466666Y-98223809D02*
X108276190Y-98795238D01*
X108771428Y-98795238D01*
%TO.C,R25*%
X126885714Y-62161904D02*
X126619047Y-61780952D01*
X126428571Y-62161904D02*
X126428571Y-61361904D01*
X126733333Y-61361904D01*
X126809523Y-61400000D01*
X126847619Y-61438095D01*
X126885714Y-61514285D01*
X126885714Y-61628571D01*
X126847619Y-61704761D01*
X126809523Y-61742857D01*
X126733333Y-61780952D01*
X126428571Y-61780952D01*
X127190476Y-61438095D02*
X127228571Y-61400000D01*
X127304761Y-61361904D01*
X127495238Y-61361904D01*
X127571428Y-61400000D01*
X127609523Y-61438095D01*
X127647619Y-61514285D01*
X127647619Y-61590476D01*
X127609523Y-61704761D01*
X127152380Y-62161904D01*
X127647619Y-62161904D01*
X128371428Y-61361904D02*
X127990476Y-61361904D01*
X127952380Y-61742857D01*
X127990476Y-61704761D01*
X128066666Y-61666666D01*
X128257142Y-61666666D01*
X128333333Y-61704761D01*
X128371428Y-61742857D01*
X128409523Y-61819047D01*
X128409523Y-62009523D01*
X128371428Y-62085714D01*
X128333333Y-62123809D01*
X128257142Y-62161904D01*
X128066666Y-62161904D01*
X127990476Y-62123809D01*
X127952380Y-62085714D01*
%TO.C,R26*%
X121585714Y-60361904D02*
X121319047Y-59980952D01*
X121128571Y-60361904D02*
X121128571Y-59561904D01*
X121433333Y-59561904D01*
X121509523Y-59600000D01*
X121547619Y-59638095D01*
X121585714Y-59714285D01*
X121585714Y-59828571D01*
X121547619Y-59904761D01*
X121509523Y-59942857D01*
X121433333Y-59980952D01*
X121128571Y-59980952D01*
X121890476Y-59638095D02*
X121928571Y-59600000D01*
X122004761Y-59561904D01*
X122195238Y-59561904D01*
X122271428Y-59600000D01*
X122309523Y-59638095D01*
X122347619Y-59714285D01*
X122347619Y-59790476D01*
X122309523Y-59904761D01*
X121852380Y-60361904D01*
X122347619Y-60361904D01*
X123033333Y-59561904D02*
X122880952Y-59561904D01*
X122804761Y-59600000D01*
X122766666Y-59638095D01*
X122690476Y-59752380D01*
X122652380Y-59904761D01*
X122652380Y-60209523D01*
X122690476Y-60285714D01*
X122728571Y-60323809D01*
X122804761Y-60361904D01*
X122957142Y-60361904D01*
X123033333Y-60323809D01*
X123071428Y-60285714D01*
X123109523Y-60209523D01*
X123109523Y-60019047D01*
X123071428Y-59942857D01*
X123033333Y-59904761D01*
X122957142Y-59866666D01*
X122804761Y-59866666D01*
X122728571Y-59904761D01*
X122690476Y-59942857D01*
X122652380Y-60019047D01*
%TO.C,R27*%
X126885714Y-60361904D02*
X126619047Y-59980952D01*
X126428571Y-60361904D02*
X126428571Y-59561904D01*
X126733333Y-59561904D01*
X126809523Y-59600000D01*
X126847619Y-59638095D01*
X126885714Y-59714285D01*
X126885714Y-59828571D01*
X126847619Y-59904761D01*
X126809523Y-59942857D01*
X126733333Y-59980952D01*
X126428571Y-59980952D01*
X127190476Y-59638095D02*
X127228571Y-59600000D01*
X127304761Y-59561904D01*
X127495238Y-59561904D01*
X127571428Y-59600000D01*
X127609523Y-59638095D01*
X127647619Y-59714285D01*
X127647619Y-59790476D01*
X127609523Y-59904761D01*
X127152380Y-60361904D01*
X127647619Y-60361904D01*
X127914285Y-59561904D02*
X128447619Y-59561904D01*
X128104761Y-60361904D01*
%TO.C,R29*%
X141085714Y-65661904D02*
X140819047Y-65280952D01*
X140628571Y-65661904D02*
X140628571Y-64861904D01*
X140933333Y-64861904D01*
X141009523Y-64900000D01*
X141047619Y-64938095D01*
X141085714Y-65014285D01*
X141085714Y-65128571D01*
X141047619Y-65204761D01*
X141009523Y-65242857D01*
X140933333Y-65280952D01*
X140628571Y-65280952D01*
X141390476Y-64938095D02*
X141428571Y-64900000D01*
X141504761Y-64861904D01*
X141695238Y-64861904D01*
X141771428Y-64900000D01*
X141809523Y-64938095D01*
X141847619Y-65014285D01*
X141847619Y-65090476D01*
X141809523Y-65204761D01*
X141352380Y-65661904D01*
X141847619Y-65661904D01*
X142228571Y-65661904D02*
X142380952Y-65661904D01*
X142457142Y-65623809D01*
X142495238Y-65585714D01*
X142571428Y-65471428D01*
X142609523Y-65319047D01*
X142609523Y-65014285D01*
X142571428Y-64938095D01*
X142533333Y-64900000D01*
X142457142Y-64861904D01*
X142304761Y-64861904D01*
X142228571Y-64900000D01*
X142190476Y-64938095D01*
X142152380Y-65014285D01*
X142152380Y-65204761D01*
X142190476Y-65280952D01*
X142228571Y-65319047D01*
X142304761Y-65357142D01*
X142457142Y-65357142D01*
X142533333Y-65319047D01*
X142571428Y-65280952D01*
X142609523Y-65204761D01*
%TO.C,R28*%
X141135714Y-63861904D02*
X140869047Y-63480952D01*
X140678571Y-63861904D02*
X140678571Y-63061904D01*
X140983333Y-63061904D01*
X141059523Y-63100000D01*
X141097619Y-63138095D01*
X141135714Y-63214285D01*
X141135714Y-63328571D01*
X141097619Y-63404761D01*
X141059523Y-63442857D01*
X140983333Y-63480952D01*
X140678571Y-63480952D01*
X141440476Y-63138095D02*
X141478571Y-63100000D01*
X141554761Y-63061904D01*
X141745238Y-63061904D01*
X141821428Y-63100000D01*
X141859523Y-63138095D01*
X141897619Y-63214285D01*
X141897619Y-63290476D01*
X141859523Y-63404761D01*
X141402380Y-63861904D01*
X141897619Y-63861904D01*
X142354761Y-63404761D02*
X142278571Y-63366666D01*
X142240476Y-63328571D01*
X142202380Y-63252380D01*
X142202380Y-63214285D01*
X142240476Y-63138095D01*
X142278571Y-63100000D01*
X142354761Y-63061904D01*
X142507142Y-63061904D01*
X142583333Y-63100000D01*
X142621428Y-63138095D01*
X142659523Y-63214285D01*
X142659523Y-63252380D01*
X142621428Y-63328571D01*
X142583333Y-63366666D01*
X142507142Y-63404761D01*
X142354761Y-63404761D01*
X142278571Y-63442857D01*
X142240476Y-63480952D01*
X142202380Y-63557142D01*
X142202380Y-63709523D01*
X142240476Y-63785714D01*
X142278571Y-63823809D01*
X142354761Y-63861904D01*
X142507142Y-63861904D01*
X142583333Y-63823809D01*
X142621428Y-63785714D01*
X142659523Y-63709523D01*
X142659523Y-63557142D01*
X142621428Y-63480952D01*
X142583333Y-63442857D01*
X142507142Y-63404761D01*
D13*
%TO.C,C1*%
X120140580Y-86790000D02*
X119859420Y-86790000D01*
X120140580Y-87810000D02*
X119859420Y-87810000D01*
%TO.C,C2*%
X120140580Y-84410000D02*
X119859420Y-84410000D01*
X120140580Y-83390000D02*
X119859420Y-83390000D01*
%TO.C,C3*%
X120140580Y-80910000D02*
X119859420Y-80910000D01*
X120140580Y-79890000D02*
X119859420Y-79890000D01*
%TO.C,C4*%
X120140580Y-76490000D02*
X119859420Y-76490000D01*
X120140580Y-77510000D02*
X119859420Y-77510000D01*
%TO.C,C5*%
X120140580Y-74110000D02*
X119859420Y-74110000D01*
X120140580Y-73090000D02*
X119859420Y-73090000D01*
%TO.C,C6*%
X120140580Y-69690000D02*
X119859420Y-69690000D01*
X120140580Y-70710000D02*
X119859420Y-70710000D01*
%TO.C,C7*%
X120140580Y-67310000D02*
X119859420Y-67310000D01*
X120140580Y-66290000D02*
X119859420Y-66290000D01*
%TO.C,C8*%
X120140580Y-63910000D02*
X119859420Y-63910000D01*
X120140580Y-62890000D02*
X119859420Y-62890000D01*
%TO.C,C9*%
X116140580Y-87810000D02*
X115859420Y-87810000D01*
X116140580Y-86790000D02*
X115859420Y-86790000D01*
%TO.C,C10*%
X116140580Y-84410000D02*
X115859420Y-84410000D01*
X116140580Y-83390000D02*
X115859420Y-83390000D01*
%TO.C,C11*%
X116140580Y-79890000D02*
X115859420Y-79890000D01*
X116140580Y-80910000D02*
X115859420Y-80910000D01*
%TO.C,C12*%
X116140580Y-76490000D02*
X115859420Y-76490000D01*
X116140580Y-77510000D02*
X115859420Y-77510000D01*
%TO.C,C13*%
X116140580Y-73090000D02*
X115859420Y-73090000D01*
X116140580Y-74110000D02*
X115859420Y-74110000D01*
%TO.C,C14*%
X116140580Y-70710000D02*
X115859420Y-70710000D01*
X116140580Y-69690000D02*
X115859420Y-69690000D01*
%TO.C,C15*%
X116140580Y-66290000D02*
X115859420Y-66290000D01*
X116140580Y-67310000D02*
X115859420Y-67310000D01*
%TO.C,C16*%
X116140580Y-63910000D02*
X115859420Y-63910000D01*
X116140580Y-62890000D02*
X115859420Y-62890000D01*
%TO.C,C17*%
X130488748Y-84740000D02*
X131911252Y-84740000D01*
X130488748Y-87460000D02*
X131911252Y-87460000D01*
%TO.C,C18*%
X132759420Y-83910000D02*
X133040580Y-83910000D01*
X132759420Y-82890000D02*
X133040580Y-82890000D01*
%TO.C,C19*%
X132559420Y-65110000D02*
X132840580Y-65110000D01*
X132559420Y-64090000D02*
X132840580Y-64090000D01*
%TO.C,C20*%
X132559420Y-65790000D02*
X132840580Y-65790000D01*
X132559420Y-66810000D02*
X132840580Y-66810000D01*
%TO.C,C21*%
X129615580Y-83910000D02*
X129334420Y-83910000D01*
X129615580Y-82890000D02*
X129334420Y-82890000D01*
%TO.C,C22*%
X125938748Y-86135000D02*
X126461252Y-86135000D01*
X125938748Y-84665000D02*
X126461252Y-84665000D01*
%TO.C,C23*%
X126059420Y-83910000D02*
X126340580Y-83910000D01*
X126059420Y-82890000D02*
X126340580Y-82890000D01*
%TO.C,C24*%
X124770580Y-65610000D02*
X124489420Y-65610000D01*
X124770580Y-64590000D02*
X124489420Y-64590000D01*
%TO.C,C25*%
X139029420Y-68810000D02*
X139310580Y-68810000D01*
X139029420Y-67790000D02*
X139310580Y-67790000D01*
%TO.C,C26*%
X139034420Y-65990000D02*
X139315580Y-65990000D01*
X139034420Y-67010000D02*
X139315580Y-67010000D01*
%TO.C,C27*%
X135759420Y-65990000D02*
X136040580Y-65990000D01*
X135759420Y-67010000D02*
X136040580Y-67010000D01*
%TO.C,C28*%
X135759420Y-64910000D02*
X136040580Y-64910000D01*
X135759420Y-63890000D02*
X136040580Y-63890000D01*
%TO.C,C29*%
X136365580Y-83910000D02*
X136084420Y-83910000D01*
X136365580Y-82890000D02*
X136084420Y-82890000D01*
%TO.C,C30*%
X136340580Y-84690000D02*
X136059420Y-84690000D01*
X136340580Y-85710000D02*
X136059420Y-85710000D01*
%TO.C,C31*%
X129134420Y-66810000D02*
X129415580Y-66810000D01*
X129134420Y-65790000D02*
X129415580Y-65790000D01*
%TO.C,C32*%
X129159420Y-64090000D02*
X129440580Y-64090000D01*
X129159420Y-65110000D02*
X129440580Y-65110000D01*
%TO.C,J1*%
X102530000Y-63560000D02*
X99870000Y-63560000D01*
X102927071Y-75370000D02*
X102530000Y-75370000D01*
X102927071Y-84770000D02*
X102530000Y-84770000D01*
X105467071Y-59370000D02*
X105012929Y-59370000D01*
X105467071Y-61910000D02*
X105012929Y-61910000D01*
X105467071Y-72070000D02*
X105012929Y-72070000D01*
X102530000Y-88960000D02*
X99870000Y-88960000D01*
X105467071Y-85530000D02*
X105012929Y-85530000D01*
X102927071Y-60130000D02*
X102530000Y-60130000D01*
X102927071Y-62670000D02*
X102530000Y-62670000D01*
X102927071Y-80450000D02*
X102530000Y-80450000D01*
X105467071Y-72830000D02*
X105012929Y-72830000D01*
X102927071Y-88070000D02*
X102530000Y-88070000D01*
X102927071Y-87310000D02*
X102530000Y-87310000D01*
X105467071Y-69530000D02*
X105012929Y-69530000D01*
X102530000Y-71180000D02*
X99870000Y-71180000D01*
X102927071Y-82990000D02*
X102530000Y-82990000D01*
X102446000Y-88960000D02*
X102446000Y-63560000D01*
X105467071Y-70290000D02*
X105012929Y-70290000D01*
X102927071Y-72830000D02*
X102530000Y-72830000D01*
X105467071Y-67750000D02*
X105012929Y-67750000D01*
X102530000Y-76260000D02*
X99870000Y-76260000D01*
X105400000Y-90610000D02*
X105012929Y-90610000D01*
X105467071Y-75370000D02*
X105012929Y-75370000D01*
X102530000Y-66100000D02*
X99870000Y-66100000D01*
X102446000Y-58353000D02*
X107907000Y-58353000D01*
X105467071Y-77150000D02*
X105012929Y-77150000D01*
X102927071Y-70290000D02*
X102530000Y-70290000D01*
X102927071Y-65210000D02*
X102530000Y-65210000D01*
X99906000Y-63560000D02*
X99906000Y-88960000D01*
X102530000Y-83880000D02*
X99870000Y-83880000D01*
X102530000Y-81340000D02*
X99870000Y-81340000D01*
X102927071Y-64450000D02*
X102530000Y-64450000D01*
X102927071Y-77910000D02*
X102530000Y-77910000D01*
X105467071Y-60130000D02*
X105012929Y-60130000D01*
X107907000Y-63560000D02*
X107907000Y-88960000D01*
X105400000Y-89850000D02*
X105012929Y-89850000D01*
X102446000Y-88960000D02*
X102446000Y-91500000D01*
X102927071Y-66990000D02*
X102530000Y-66990000D01*
X105467071Y-84770000D02*
X105012929Y-84770000D01*
X105467071Y-66990000D02*
X105012929Y-66990000D01*
X107907000Y-91500000D02*
X102446000Y-91500000D01*
X105467071Y-65210000D02*
X105012929Y-65210000D01*
X102927071Y-82230000D02*
X102530000Y-82230000D01*
X102927071Y-67750000D02*
X102530000Y-67750000D01*
X102530000Y-78800000D02*
X99870000Y-78800000D01*
X102446000Y-63560000D02*
X102446000Y-58353000D01*
X105467071Y-80450000D02*
X105012929Y-80450000D01*
X105467071Y-74610000D02*
X105012929Y-74610000D01*
X105467071Y-77910000D02*
X105012929Y-77910000D01*
X105467071Y-82990000D02*
X105012929Y-82990000D01*
X105467071Y-64450000D02*
X105012929Y-64450000D01*
X105467071Y-62670000D02*
X105012929Y-62670000D01*
X102927071Y-72070000D02*
X102530000Y-72070000D01*
X105467071Y-82230000D02*
X105012929Y-82230000D01*
X107907000Y-58353000D02*
X107907000Y-63560000D01*
X102530000Y-68640000D02*
X99870000Y-68640000D01*
X102530000Y-73720000D02*
X99870000Y-73720000D01*
X107907000Y-88960000D02*
X102446000Y-88960000D01*
X102927071Y-69530000D02*
X102530000Y-69530000D01*
X105467071Y-79690000D02*
X105012929Y-79690000D01*
X102927071Y-61910000D02*
X102530000Y-61910000D01*
X105467071Y-87310000D02*
X105012929Y-87310000D01*
X102927071Y-77150000D02*
X102530000Y-77150000D01*
X102927071Y-85530000D02*
X102530000Y-85530000D01*
X102530000Y-86420000D02*
X99870000Y-86420000D01*
X102927071Y-90610000D02*
X102530000Y-90610000D01*
X105467071Y-88070000D02*
X105012929Y-88070000D01*
X102927071Y-89850000D02*
X102530000Y-89850000D01*
X107907000Y-63560000D02*
X102530000Y-63560000D01*
X102927071Y-79690000D02*
X102530000Y-79690000D01*
X102927071Y-59370000D02*
X102530000Y-59370000D01*
X107907000Y-88960000D02*
X107907000Y-91500000D01*
X102927071Y-74610000D02*
X102530000Y-74610000D01*
D12*
X102446000Y-66100000D02*
X99906000Y-66100000D01*
X99906000Y-66100000D02*
X99906000Y-63623500D01*
X99906000Y-63623500D02*
X102446000Y-63623500D01*
X102446000Y-63623500D02*
X102446000Y-66100000D01*
G36*
X102446000Y-66100000D02*
G01*
X99906000Y-66100000D01*
X99906000Y-63623500D01*
X102446000Y-63623500D01*
X102446000Y-66100000D01*
G37*
X102446000Y-66100000D02*
X99906000Y-66100000D01*
X99906000Y-63623500D01*
X102446000Y-63623500D01*
X102446000Y-66100000D01*
D13*
%TO.C,R1*%
X120237258Y-89522500D02*
X119762742Y-89522500D01*
X120237258Y-88477500D02*
X119762742Y-88477500D01*
%TO.C,R2*%
X120237258Y-85077500D02*
X119762742Y-85077500D01*
X120237258Y-86122500D02*
X119762742Y-86122500D01*
%TO.C,R3*%
X120237258Y-82722500D02*
X119762742Y-82722500D01*
X120237258Y-81677500D02*
X119762742Y-81677500D01*
%TO.C,R4*%
X120237258Y-78177500D02*
X119762742Y-78177500D01*
X120237258Y-79222500D02*
X119762742Y-79222500D01*
%TO.C,R5*%
X120237258Y-74777500D02*
X119762742Y-74777500D01*
X120237258Y-75822500D02*
X119762742Y-75822500D01*
%TO.C,R6*%
X120237258Y-72422500D02*
X119762742Y-72422500D01*
X120237258Y-71377500D02*
X119762742Y-71377500D01*
%TO.C,R7*%
X120237258Y-67977500D02*
X119762742Y-67977500D01*
X120237258Y-69022500D02*
X119762742Y-69022500D01*
%TO.C,R8*%
X120237258Y-65622500D02*
X119762742Y-65622500D01*
X120237258Y-64577500D02*
X119762742Y-64577500D01*
%TO.C,R9*%
X116237258Y-88477500D02*
X115762742Y-88477500D01*
X116237258Y-89522500D02*
X115762742Y-89522500D01*
%TO.C,R10*%
X116237258Y-86122500D02*
X115762742Y-86122500D01*
X116237258Y-85077500D02*
X115762742Y-85077500D01*
%TO.C,R11*%
X116237258Y-81677500D02*
X115762742Y-81677500D01*
X116237258Y-82722500D02*
X115762742Y-82722500D01*
%TO.C,R12*%
X116237258Y-79222500D02*
X115762742Y-79222500D01*
X116237258Y-78177500D02*
X115762742Y-78177500D01*
%TO.C,R13*%
X116237258Y-74777500D02*
X115762742Y-74777500D01*
X116237258Y-75822500D02*
X115762742Y-75822500D01*
%TO.C,R14*%
X116237258Y-72422500D02*
X115762742Y-72422500D01*
X116237258Y-71377500D02*
X115762742Y-71377500D01*
%TO.C,R15*%
X116237258Y-67977500D02*
X115762742Y-67977500D01*
X116237258Y-69022500D02*
X115762742Y-69022500D01*
%TO.C,R16*%
X116237258Y-64577500D02*
X115762742Y-64577500D01*
X116237258Y-65622500D02*
X115762742Y-65622500D01*
%TO.C,R17*%
X124837258Y-62877500D02*
X124362742Y-62877500D01*
X124837258Y-63922500D02*
X124362742Y-63922500D01*
%TO.C,U1*%
X111700000Y-88840000D02*
X109800000Y-88840000D01*
X110300000Y-91160000D02*
X111700000Y-91160000D01*
%TO.C,U2*%
X111700000Y-83840000D02*
X109800000Y-83840000D01*
X110300000Y-86160000D02*
X111700000Y-86160000D01*
%TO.C,U3*%
X111700000Y-76840000D02*
X109800000Y-76840000D01*
X110300000Y-79160000D02*
X111700000Y-79160000D01*
%TO.C,U4*%
X110300000Y-74160000D02*
X111700000Y-74160000D01*
X111700000Y-71840000D02*
X109800000Y-71840000D01*
%TO.C,U5*%
X110300000Y-70160000D02*
X111700000Y-70160000D01*
X111700000Y-67840000D02*
X109800000Y-67840000D01*
%TO.C,U6*%
X111700000Y-63840000D02*
X109800000Y-63840000D01*
X110300000Y-66160000D02*
X111700000Y-66160000D01*
%TO.C,U7*%
X126290000Y-79510000D02*
X126290000Y-78560000D01*
X126290000Y-70240000D02*
X125000000Y-70240000D01*
X136510000Y-79510000D02*
X136510000Y-78560000D01*
X135560000Y-69290000D02*
X136510000Y-69290000D01*
X127240000Y-69290000D02*
X126290000Y-69290000D01*
X136510000Y-69290000D02*
X136510000Y-70240000D01*
X127240000Y-79510000D02*
X126290000Y-79510000D01*
X126290000Y-69290000D02*
X126290000Y-70240000D01*
X135560000Y-79510000D02*
X136510000Y-79510000D01*
%TO.C,J2*%
X149530000Y-68170000D02*
X149530000Y-69500000D01*
X148200000Y-68170000D02*
X149530000Y-68170000D01*
X146930000Y-68170000D02*
X146930000Y-70770000D01*
X144330000Y-68170000D02*
X146930000Y-68170000D01*
X146930000Y-70770000D02*
X149530000Y-70770000D01*
X144330000Y-88610000D02*
X149530000Y-88610000D01*
X149530000Y-70770000D02*
X149530000Y-88610000D01*
X144330000Y-68170000D02*
X144330000Y-88610000D01*
%TO.C,R18*%
X142437258Y-78522500D02*
X141962742Y-78522500D01*
X142437258Y-77477500D02*
X141962742Y-77477500D01*
%TO.C,R19*%
X142437258Y-80222500D02*
X141962742Y-80222500D01*
X142437258Y-79177500D02*
X141962742Y-79177500D01*
%TO.C,R20*%
X142437258Y-72522500D02*
X141962742Y-72522500D01*
X142437258Y-71477500D02*
X141962742Y-71477500D01*
%TO.C,R21*%
X142437258Y-74222500D02*
X141962742Y-74222500D01*
X142437258Y-73177500D02*
X141962742Y-73177500D01*
%TO.C,C33*%
X116140580Y-60510000D02*
X115859420Y-60510000D01*
X116140580Y-59490000D02*
X115859420Y-59490000D01*
%TO.C,C34*%
X120140580Y-90190000D02*
X119859420Y-90190000D01*
X120140580Y-91210000D02*
X119859420Y-91210000D01*
%TO.C,C35*%
X120140580Y-94610000D02*
X119859420Y-94610000D01*
X120140580Y-93590000D02*
X119859420Y-93590000D01*
%TO.C,R22*%
X116237258Y-62222500D02*
X115762742Y-62222500D01*
X116237258Y-61177500D02*
X115762742Y-61177500D01*
%TO.C,R23*%
X120237258Y-92922500D02*
X119762742Y-92922500D01*
X120237258Y-91877500D02*
X119762742Y-91877500D01*
%TO.C,R24*%
X120237258Y-95277500D02*
X119762742Y-95277500D01*
X120237258Y-96322500D02*
X119762742Y-96322500D01*
%TO.C,J3*%
X117410000Y-55870000D02*
X117410000Y-50670000D01*
X112270000Y-50670000D02*
X117410000Y-50670000D01*
X109670000Y-50670000D02*
X111000000Y-50670000D01*
X109670000Y-55870000D02*
X109670000Y-53270000D01*
X109670000Y-52000000D02*
X109670000Y-50670000D01*
X109670000Y-53270000D02*
X112270000Y-53270000D01*
X112270000Y-53270000D02*
X112270000Y-50670000D01*
X109670000Y-55870000D02*
X117410000Y-55870000D01*
%TO.C,J4*%
X109670000Y-95500000D02*
X109670000Y-94170000D01*
X109670000Y-99370000D02*
X114870000Y-99370000D01*
X112270000Y-94170000D02*
X114870000Y-94170000D01*
X109670000Y-99370000D02*
X109670000Y-96770000D01*
X112270000Y-96770000D02*
X112270000Y-94170000D01*
X109670000Y-94170000D02*
X111000000Y-94170000D01*
X109670000Y-96770000D02*
X112270000Y-96770000D01*
X114870000Y-99370000D02*
X114870000Y-94170000D01*
D14*
%TO.C,LOGO1*%
X134503910Y-89142348D02*
X134582454Y-89142778D01*
X134582454Y-89142778D02*
X134639298Y-89143942D01*
X134639298Y-89143942D02*
X134678105Y-89146207D01*
X134678105Y-89146207D02*
X134702538Y-89149940D01*
X134702538Y-89149940D02*
X134716262Y-89155506D01*
X134716262Y-89155506D02*
X134722940Y-89163273D01*
X134722940Y-89163273D02*
X134726236Y-89173605D01*
X134726236Y-89173605D02*
X134726556Y-89174943D01*
X134726556Y-89174943D02*
X134731562Y-89199079D01*
X134731562Y-89199079D02*
X134740829Y-89246701D01*
X134740829Y-89246701D02*
X134753392Y-89312741D01*
X134753392Y-89312741D02*
X134768287Y-89392128D01*
X134768287Y-89392128D02*
X134784551Y-89479796D01*
X134784551Y-89479796D02*
X134785119Y-89482875D01*
X134785119Y-89482875D02*
X134801410Y-89568789D01*
X134801410Y-89568789D02*
X134816652Y-89644696D01*
X134816652Y-89644696D02*
X134829861Y-89706045D01*
X134829861Y-89706045D02*
X134840054Y-89748282D01*
X134840054Y-89748282D02*
X134846248Y-89766855D01*
X134846248Y-89766855D02*
X134846543Y-89767184D01*
X134846543Y-89767184D02*
X134864788Y-89776253D01*
X134864788Y-89776253D02*
X134902405Y-89791367D01*
X134902405Y-89791367D02*
X134951271Y-89809262D01*
X134951271Y-89809262D02*
X134951543Y-89809358D01*
X134951543Y-89809358D02*
X135013093Y-89832493D01*
X135013093Y-89832493D02*
X135085657Y-89861965D01*
X135085657Y-89861965D02*
X135154057Y-89891597D01*
X135154057Y-89891597D02*
X135157294Y-89893062D01*
X135157294Y-89893062D02*
X135268702Y-89943626D01*
X135268702Y-89943626D02*
X135515399Y-89775160D01*
X135515399Y-89775160D02*
X135591077Y-89723803D01*
X135591077Y-89723803D02*
X135659631Y-89677889D01*
X135659631Y-89677889D02*
X135717088Y-89640030D01*
X135717088Y-89640030D02*
X135759476Y-89612837D01*
X135759476Y-89612837D02*
X135782825Y-89598921D01*
X135782825Y-89598921D02*
X135785042Y-89597889D01*
X135785042Y-89597889D02*
X135802010Y-89602484D01*
X135802010Y-89602484D02*
X135833701Y-89624655D01*
X135833701Y-89624655D02*
X135881352Y-89665447D01*
X135881352Y-89665447D02*
X135946198Y-89725905D01*
X135946198Y-89725905D02*
X136012397Y-89790227D01*
X136012397Y-89790227D02*
X136076214Y-89853612D01*
X136076214Y-89853612D02*
X136133329Y-89911451D01*
X136133329Y-89911451D02*
X136180305Y-89960175D01*
X136180305Y-89960175D02*
X136213703Y-89996210D01*
X136213703Y-89996210D02*
X136230085Y-90015984D01*
X136230085Y-90015984D02*
X136230694Y-90017002D01*
X136230694Y-90017002D02*
X136232505Y-90030572D01*
X136232505Y-90030572D02*
X136225683Y-90052733D01*
X136225683Y-90052733D02*
X136208540Y-90086478D01*
X136208540Y-90086478D02*
X136179393Y-90134800D01*
X136179393Y-90134800D02*
X136136555Y-90200692D01*
X136136555Y-90200692D02*
X136079448Y-90285517D01*
X136079448Y-90285517D02*
X136028766Y-90360177D01*
X136028766Y-90360177D02*
X135983461Y-90427140D01*
X135983461Y-90427140D02*
X135946150Y-90482516D01*
X135946150Y-90482516D02*
X135919452Y-90522420D01*
X135919452Y-90522420D02*
X135905985Y-90542962D01*
X135905985Y-90542962D02*
X135905137Y-90544356D01*
X135905137Y-90544356D02*
X135906781Y-90564038D01*
X135906781Y-90564038D02*
X135919245Y-90602293D01*
X135919245Y-90602293D02*
X135940048Y-90651889D01*
X135940048Y-90651889D02*
X135947462Y-90667728D01*
X135947462Y-90667728D02*
X135979814Y-90738290D01*
X135979814Y-90738290D02*
X136014328Y-90818353D01*
X136014328Y-90818353D02*
X136042365Y-90887629D01*
X136042365Y-90887629D02*
X136062568Y-90939045D01*
X136062568Y-90939045D02*
X136078615Y-90978119D01*
X136078615Y-90978119D02*
X136087888Y-90998541D01*
X136087888Y-90998541D02*
X136089041Y-91000114D01*
X136089041Y-91000114D02*
X136106096Y-91002721D01*
X136106096Y-91002721D02*
X136146298Y-91009863D01*
X136146298Y-91009863D02*
X136204302Y-91020523D01*
X136204302Y-91020523D02*
X136274763Y-91033685D01*
X136274763Y-91033685D02*
X136352335Y-91048333D01*
X136352335Y-91048333D02*
X136431672Y-91063449D01*
X136431672Y-91063449D02*
X136507431Y-91078018D01*
X136507431Y-91078018D02*
X136574264Y-91091022D01*
X136574264Y-91091022D02*
X136626828Y-91101445D01*
X136626828Y-91101445D02*
X136659776Y-91108270D01*
X136659776Y-91108270D02*
X136667857Y-91110199D01*
X136667857Y-91110199D02*
X136676205Y-91114962D01*
X136676205Y-91114962D02*
X136682506Y-91125718D01*
X136682506Y-91125718D02*
X136687045Y-91146098D01*
X136687045Y-91146098D02*
X136690104Y-91179734D01*
X136690104Y-91179734D02*
X136691967Y-91230255D01*
X136691967Y-91230255D02*
X136692918Y-91301292D01*
X136692918Y-91301292D02*
X136693240Y-91396476D01*
X136693240Y-91396476D02*
X136693257Y-91435492D01*
X136693257Y-91435492D02*
X136693257Y-91752799D01*
X136693257Y-91752799D02*
X136617057Y-91767839D01*
X136617057Y-91767839D02*
X136574663Y-91775995D01*
X136574663Y-91775995D02*
X136511400Y-91787899D01*
X136511400Y-91787899D02*
X136434962Y-91802116D01*
X136434962Y-91802116D02*
X136353043Y-91817210D01*
X136353043Y-91817210D02*
X136330400Y-91821355D01*
X136330400Y-91821355D02*
X136254806Y-91836053D01*
X136254806Y-91836053D02*
X136188953Y-91850505D01*
X136188953Y-91850505D02*
X136138366Y-91863375D01*
X136138366Y-91863375D02*
X136108574Y-91873322D01*
X136108574Y-91873322D02*
X136103612Y-91876287D01*
X136103612Y-91876287D02*
X136091426Y-91897283D01*
X136091426Y-91897283D02*
X136073953Y-91937967D01*
X136073953Y-91937967D02*
X136054577Y-91990322D01*
X136054577Y-91990322D02*
X136050734Y-92001600D01*
X136050734Y-92001600D02*
X136025339Y-92071523D01*
X136025339Y-92071523D02*
X135993817Y-92150418D01*
X135993817Y-92150418D02*
X135962969Y-92221266D01*
X135962969Y-92221266D02*
X135962817Y-92221595D01*
X135962817Y-92221595D02*
X135911447Y-92332733D01*
X135911447Y-92332733D02*
X136080399Y-92581253D01*
X136080399Y-92581253D02*
X136249352Y-92829772D01*
X136249352Y-92829772D02*
X136032429Y-93047058D01*
X136032429Y-93047058D02*
X135966819Y-93111726D01*
X135966819Y-93111726D02*
X135906979Y-93168733D01*
X135906979Y-93168733D02*
X135856267Y-93215033D01*
X135856267Y-93215033D02*
X135818046Y-93247584D01*
X135818046Y-93247584D02*
X135795675Y-93263343D01*
X135795675Y-93263343D02*
X135792466Y-93264343D01*
X135792466Y-93264343D02*
X135773626Y-93256469D01*
X135773626Y-93256469D02*
X135735180Y-93234578D01*
X135735180Y-93234578D02*
X135681330Y-93201267D01*
X135681330Y-93201267D02*
X135616276Y-93159131D01*
X135616276Y-93159131D02*
X135545940Y-93111943D01*
X135545940Y-93111943D02*
X135474555Y-93063810D01*
X135474555Y-93063810D02*
X135410908Y-93021928D01*
X135410908Y-93021928D02*
X135359041Y-92988871D01*
X135359041Y-92988871D02*
X135322995Y-92967218D01*
X135322995Y-92967218D02*
X135306867Y-92959543D01*
X135306867Y-92959543D02*
X135287189Y-92966037D01*
X135287189Y-92966037D02*
X135249875Y-92983150D01*
X135249875Y-92983150D02*
X135202621Y-93007326D01*
X135202621Y-93007326D02*
X135197612Y-93010013D01*
X135197612Y-93010013D02*
X135133977Y-93041927D01*
X135133977Y-93041927D02*
X135090341Y-93057579D01*
X135090341Y-93057579D02*
X135063202Y-93057745D01*
X135063202Y-93057745D02*
X135049057Y-93043204D01*
X135049057Y-93043204D02*
X135048975Y-93043000D01*
X135048975Y-93043000D02*
X135041905Y-93025779D01*
X135041905Y-93025779D02*
X135025042Y-92984899D01*
X135025042Y-92984899D02*
X134999695Y-92923525D01*
X134999695Y-92923525D02*
X134967171Y-92844819D01*
X134967171Y-92844819D02*
X134928778Y-92751947D01*
X134928778Y-92751947D02*
X134885822Y-92648072D01*
X134885822Y-92648072D02*
X134844222Y-92547502D01*
X134844222Y-92547502D02*
X134798504Y-92436516D01*
X134798504Y-92436516D02*
X134756526Y-92333703D01*
X134756526Y-92333703D02*
X134719548Y-92242215D01*
X134719548Y-92242215D02*
X134688827Y-92165201D01*
X134688827Y-92165201D02*
X134665622Y-92105815D01*
X134665622Y-92105815D02*
X134651190Y-92067209D01*
X134651190Y-92067209D02*
X134646743Y-92052800D01*
X134646743Y-92052800D02*
X134657896Y-92036272D01*
X134657896Y-92036272D02*
X134687069Y-92009930D01*
X134687069Y-92009930D02*
X134725971Y-91980887D01*
X134725971Y-91980887D02*
X134836757Y-91889039D01*
X134836757Y-91889039D02*
X134923351Y-91783759D01*
X134923351Y-91783759D02*
X134984716Y-91667266D01*
X134984716Y-91667266D02*
X135019815Y-91541776D01*
X135019815Y-91541776D02*
X135027608Y-91409507D01*
X135027608Y-91409507D02*
X135021943Y-91348457D01*
X135021943Y-91348457D02*
X134991078Y-91221795D01*
X134991078Y-91221795D02*
X134937920Y-91109941D01*
X134937920Y-91109941D02*
X134865767Y-91014001D01*
X134865767Y-91014001D02*
X134777917Y-90935076D01*
X134777917Y-90935076D02*
X134677665Y-90874270D01*
X134677665Y-90874270D02*
X134568310Y-90832687D01*
X134568310Y-90832687D02*
X134453147Y-90811428D01*
X134453147Y-90811428D02*
X134335475Y-90811599D01*
X134335475Y-90811599D02*
X134218590Y-90834301D01*
X134218590Y-90834301D02*
X134105789Y-90880638D01*
X134105789Y-90880638D02*
X134000369Y-90951713D01*
X134000369Y-90951713D02*
X133956368Y-90991911D01*
X133956368Y-90991911D02*
X133871979Y-91095129D01*
X133871979Y-91095129D02*
X133813222Y-91207925D01*
X133813222Y-91207925D02*
X133779704Y-91327010D01*
X133779704Y-91327010D02*
X133771035Y-91449095D01*
X133771035Y-91449095D02*
X133786823Y-91570893D01*
X133786823Y-91570893D02*
X133826678Y-91689116D01*
X133826678Y-91689116D02*
X133890207Y-91800475D01*
X133890207Y-91800475D02*
X133977021Y-91901684D01*
X133977021Y-91901684D02*
X134074029Y-91980887D01*
X134074029Y-91980887D02*
X134114437Y-92011162D01*
X134114437Y-92011162D02*
X134142982Y-92037219D01*
X134142982Y-92037219D02*
X134153257Y-92052825D01*
X134153257Y-92052825D02*
X134147877Y-92069843D01*
X134147877Y-92069843D02*
X134132575Y-92110500D01*
X134132575Y-92110500D02*
X134108612Y-92171642D01*
X134108612Y-92171642D02*
X134077244Y-92250119D01*
X134077244Y-92250119D02*
X134039732Y-92342780D01*
X134039732Y-92342780D02*
X133997333Y-92446472D01*
X133997333Y-92446472D02*
X133955663Y-92547526D01*
X133955663Y-92547526D02*
X133909690Y-92658607D01*
X133909690Y-92658607D02*
X133867107Y-92761541D01*
X133867107Y-92761541D02*
X133829221Y-92853165D01*
X133829221Y-92853165D02*
X133797340Y-92930316D01*
X133797340Y-92930316D02*
X133772771Y-92989831D01*
X133772771Y-92989831D02*
X133756820Y-93028544D01*
X133756820Y-93028544D02*
X133750910Y-93043000D01*
X133750910Y-93043000D02*
X133736948Y-93057685D01*
X133736948Y-93057685D02*
X133709940Y-93057642D01*
X133709940Y-93057642D02*
X133666413Y-93042099D01*
X133666413Y-93042099D02*
X133602890Y-93010284D01*
X133602890Y-93010284D02*
X133602388Y-93010013D01*
X133602388Y-93010013D02*
X133554560Y-92985323D01*
X133554560Y-92985323D02*
X133515897Y-92967338D01*
X133515897Y-92967338D02*
X133494095Y-92959614D01*
X133494095Y-92959614D02*
X133493133Y-92959543D01*
X133493133Y-92959543D02*
X133476721Y-92967378D01*
X133476721Y-92967378D02*
X133440487Y-92989165D01*
X133440487Y-92989165D02*
X133388474Y-93022328D01*
X133388474Y-93022328D02*
X133324725Y-93064291D01*
X133324725Y-93064291D02*
X133254060Y-93111943D01*
X133254060Y-93111943D02*
X133182116Y-93160191D01*
X133182116Y-93160191D02*
X133117274Y-93202151D01*
X133117274Y-93202151D02*
X133063735Y-93235227D01*
X133063735Y-93235227D02*
X133025697Y-93256821D01*
X133025697Y-93256821D02*
X133007533Y-93264343D01*
X133007533Y-93264343D02*
X132990808Y-93254457D01*
X132990808Y-93254457D02*
X132957180Y-93226826D01*
X132957180Y-93226826D02*
X132910010Y-93184495D01*
X132910010Y-93184495D02*
X132852658Y-93130505D01*
X132852658Y-93130505D02*
X132788484Y-93067899D01*
X132788484Y-93067899D02*
X132767497Y-93046983D01*
X132767497Y-93046983D02*
X132550499Y-92829623D01*
X132550499Y-92829623D02*
X132715668Y-92587220D01*
X132715668Y-92587220D02*
X132765864Y-92512781D01*
X132765864Y-92512781D02*
X132809919Y-92445972D01*
X132809919Y-92445972D02*
X132845362Y-92390665D01*
X132845362Y-92390665D02*
X132869719Y-92350729D01*
X132869719Y-92350729D02*
X132880522Y-92330036D01*
X132880522Y-92330036D02*
X132880838Y-92328563D01*
X132880838Y-92328563D02*
X132875143Y-92309058D01*
X132875143Y-92309058D02*
X132859826Y-92269822D01*
X132859826Y-92269822D02*
X132837537Y-92217430D01*
X132837537Y-92217430D02*
X132821893Y-92182355D01*
X132821893Y-92182355D02*
X132792641Y-92115201D01*
X132792641Y-92115201D02*
X132765094Y-92047358D01*
X132765094Y-92047358D02*
X132743737Y-91990034D01*
X132743737Y-91990034D02*
X132737935Y-91972572D01*
X132737935Y-91972572D02*
X132721452Y-91925938D01*
X132721452Y-91925938D02*
X132705340Y-91889905D01*
X132705340Y-91889905D02*
X132696490Y-91876287D01*
X132696490Y-91876287D02*
X132676960Y-91867952D01*
X132676960Y-91867952D02*
X132634334Y-91856137D01*
X132634334Y-91856137D02*
X132574145Y-91842181D01*
X132574145Y-91842181D02*
X132501922Y-91827422D01*
X132501922Y-91827422D02*
X132469600Y-91821355D01*
X132469600Y-91821355D02*
X132387522Y-91806273D01*
X132387522Y-91806273D02*
X132308795Y-91791669D01*
X132308795Y-91791669D02*
X132241109Y-91778980D01*
X132241109Y-91778980D02*
X132192160Y-91769642D01*
X132192160Y-91769642D02*
X132182943Y-91767839D01*
X132182943Y-91767839D02*
X132106743Y-91752799D01*
X132106743Y-91752799D02*
X132106743Y-91435492D01*
X132106743Y-91435492D02*
X132106914Y-91331154D01*
X132106914Y-91331154D02*
X132107616Y-91252213D01*
X132107616Y-91252213D02*
X132109134Y-91195038D01*
X132109134Y-91195038D02*
X132111749Y-91155999D01*
X132111749Y-91155999D02*
X132115746Y-91131465D01*
X132115746Y-91131465D02*
X132121409Y-91117805D01*
X132121409Y-91117805D02*
X132129020Y-91111389D01*
X132129020Y-91111389D02*
X132132143Y-91110199D01*
X132132143Y-91110199D02*
X132150978Y-91105980D01*
X132150978Y-91105980D02*
X132192588Y-91097562D01*
X132192588Y-91097562D02*
X132251630Y-91085961D01*
X132251630Y-91085961D02*
X132322757Y-91072195D01*
X132322757Y-91072195D02*
X132400625Y-91057280D01*
X132400625Y-91057280D02*
X132479887Y-91042232D01*
X132479887Y-91042232D02*
X132555198Y-91028069D01*
X132555198Y-91028069D02*
X132621213Y-91015806D01*
X132621213Y-91015806D02*
X132672587Y-91006461D01*
X132672587Y-91006461D02*
X132703975Y-91001050D01*
X132703975Y-91001050D02*
X132710959Y-91000114D01*
X132710959Y-91000114D02*
X132717285Y-90987596D01*
X132717285Y-90987596D02*
X132731290Y-90954246D01*
X132731290Y-90954246D02*
X132750355Y-90906377D01*
X132750355Y-90906377D02*
X132757634Y-90887629D01*
X132757634Y-90887629D02*
X132786996Y-90815195D01*
X132786996Y-90815195D02*
X132821571Y-90735170D01*
X132821571Y-90735170D02*
X132852537Y-90667728D01*
X132852537Y-90667728D02*
X132875323Y-90616159D01*
X132875323Y-90616159D02*
X132890482Y-90573785D01*
X132890482Y-90573785D02*
X132895542Y-90547834D01*
X132895542Y-90547834D02*
X132894736Y-90544356D01*
X132894736Y-90544356D02*
X132884041Y-90527936D01*
X132884041Y-90527936D02*
X132859620Y-90491417D01*
X132859620Y-90491417D02*
X132824095Y-90438687D01*
X132824095Y-90438687D02*
X132780087Y-90373635D01*
X132780087Y-90373635D02*
X132730217Y-90300151D01*
X132730217Y-90300151D02*
X132720356Y-90285645D01*
X132720356Y-90285645D02*
X132662492Y-90199704D01*
X132662492Y-90199704D02*
X132619956Y-90134261D01*
X132619956Y-90134261D02*
X132591054Y-90086304D01*
X132591054Y-90086304D02*
X132574090Y-90052820D01*
X132574090Y-90052820D02*
X132567367Y-90030795D01*
X132567367Y-90030795D02*
X132569190Y-90017217D01*
X132569190Y-90017217D02*
X132569236Y-90017131D01*
X132569236Y-90017131D02*
X132583586Y-89999297D01*
X132583586Y-89999297D02*
X132615323Y-89964817D01*
X132615323Y-89964817D02*
X132661010Y-89917268D01*
X132661010Y-89917268D02*
X132717204Y-89860222D01*
X132717204Y-89860222D02*
X132780468Y-89797255D01*
X132780468Y-89797255D02*
X132787602Y-89790227D01*
X132787602Y-89790227D02*
X132867330Y-89713020D01*
X132867330Y-89713020D02*
X132928857Y-89656330D01*
X132928857Y-89656330D02*
X132973421Y-89619110D01*
X132973421Y-89619110D02*
X133002257Y-89600315D01*
X133002257Y-89600315D02*
X133014958Y-89597889D01*
X133014958Y-89597889D02*
X133033494Y-89608471D01*
X133033494Y-89608471D02*
X133071961Y-89632916D01*
X133071961Y-89632916D02*
X133126386Y-89668612D01*
X133126386Y-89668612D02*
X133192798Y-89712947D01*
X133192798Y-89712947D02*
X133267225Y-89763311D01*
X133267225Y-89763311D02*
X133284601Y-89775160D01*
X133284601Y-89775160D02*
X133531297Y-89943626D01*
X133531297Y-89943626D02*
X133642706Y-89893062D01*
X133642706Y-89893062D02*
X133710457Y-89863595D01*
X133710457Y-89863595D02*
X133783183Y-89833959D01*
X133783183Y-89833959D02*
X133845703Y-89810330D01*
X133845703Y-89810330D02*
X133848457Y-89809358D01*
X133848457Y-89809358D02*
X133897360Y-89791457D01*
X133897360Y-89791457D02*
X133935057Y-89776320D01*
X133935057Y-89776320D02*
X133953425Y-89767210D01*
X133953425Y-89767210D02*
X133953456Y-89767184D01*
X133953456Y-89767184D02*
X133959285Y-89750717D01*
X133959285Y-89750717D02*
X133969192Y-89710219D01*
X133969192Y-89710219D02*
X133982195Y-89650242D01*
X133982195Y-89650242D02*
X133997309Y-89575340D01*
X133997309Y-89575340D02*
X134013552Y-89490064D01*
X134013552Y-89490064D02*
X134014881Y-89482875D01*
X134014881Y-89482875D02*
X134031175Y-89395014D01*
X134031175Y-89395014D02*
X134046133Y-89315260D01*
X134046133Y-89315260D02*
X134058791Y-89248681D01*
X134058791Y-89248681D02*
X134068186Y-89200347D01*
X134068186Y-89200347D02*
X134073354Y-89175325D01*
X134073354Y-89175325D02*
X134073444Y-89174943D01*
X134073444Y-89174943D02*
X134076589Y-89164299D01*
X134076589Y-89164299D02*
X134082704Y-89156262D01*
X134082704Y-89156262D02*
X134095453Y-89150467D01*
X134095453Y-89150467D02*
X134118500Y-89146547D01*
X134118500Y-89146547D02*
X134155509Y-89144135D01*
X134155509Y-89144135D02*
X134210144Y-89142865D01*
X134210144Y-89142865D02*
X134286067Y-89142371D01*
X134286067Y-89142371D02*
X134386944Y-89142286D01*
X134386944Y-89142286D02*
X134400000Y-89142286D01*
X134400000Y-89142286D02*
X134503910Y-89142348D01*
X134503910Y-89142348D02*
X134503910Y-89142348D01*
G36*
X134503910Y-89142348D02*
G01*
X134582454Y-89142778D01*
X134639298Y-89143942D01*
X134678105Y-89146207D01*
X134702538Y-89149940D01*
X134716262Y-89155506D01*
X134722940Y-89163273D01*
X134726236Y-89173605D01*
X134726556Y-89174943D01*
X134731562Y-89199079D01*
X134740829Y-89246701D01*
X134753392Y-89312741D01*
X134768287Y-89392128D01*
X134784551Y-89479796D01*
X134785119Y-89482875D01*
X134801410Y-89568789D01*
X134816652Y-89644696D01*
X134829861Y-89706045D01*
X134840054Y-89748282D01*
X134846248Y-89766855D01*
X134846543Y-89767184D01*
X134864788Y-89776253D01*
X134902405Y-89791367D01*
X134951271Y-89809262D01*
X134951543Y-89809358D01*
X135013093Y-89832493D01*
X135085657Y-89861965D01*
X135154057Y-89891597D01*
X135157294Y-89893062D01*
X135268702Y-89943626D01*
X135515399Y-89775160D01*
X135591077Y-89723803D01*
X135659631Y-89677889D01*
X135717088Y-89640030D01*
X135759476Y-89612837D01*
X135782825Y-89598921D01*
X135785042Y-89597889D01*
X135802010Y-89602484D01*
X135833701Y-89624655D01*
X135881352Y-89665447D01*
X135946198Y-89725905D01*
X136012397Y-89790227D01*
X136076214Y-89853612D01*
X136133329Y-89911451D01*
X136180305Y-89960175D01*
X136213703Y-89996210D01*
X136230085Y-90015984D01*
X136230694Y-90017002D01*
X136232505Y-90030572D01*
X136225683Y-90052733D01*
X136208540Y-90086478D01*
X136179393Y-90134800D01*
X136136555Y-90200692D01*
X136079448Y-90285517D01*
X136028766Y-90360177D01*
X135983461Y-90427140D01*
X135946150Y-90482516D01*
X135919452Y-90522420D01*
X135905985Y-90542962D01*
X135905137Y-90544356D01*
X135906781Y-90564038D01*
X135919245Y-90602293D01*
X135940048Y-90651889D01*
X135947462Y-90667728D01*
X135979814Y-90738290D01*
X136014328Y-90818353D01*
X136042365Y-90887629D01*
X136062568Y-90939045D01*
X136078615Y-90978119D01*
X136087888Y-90998541D01*
X136089041Y-91000114D01*
X136106096Y-91002721D01*
X136146298Y-91009863D01*
X136204302Y-91020523D01*
X136274763Y-91033685D01*
X136352335Y-91048333D01*
X136431672Y-91063449D01*
X136507431Y-91078018D01*
X136574264Y-91091022D01*
X136626828Y-91101445D01*
X136659776Y-91108270D01*
X136667857Y-91110199D01*
X136676205Y-91114962D01*
X136682506Y-91125718D01*
X136687045Y-91146098D01*
X136690104Y-91179734D01*
X136691967Y-91230255D01*
X136692918Y-91301292D01*
X136693240Y-91396476D01*
X136693257Y-91435492D01*
X136693257Y-91752799D01*
X136617057Y-91767839D01*
X136574663Y-91775995D01*
X136511400Y-91787899D01*
X136434962Y-91802116D01*
X136353043Y-91817210D01*
X136330400Y-91821355D01*
X136254806Y-91836053D01*
X136188953Y-91850505D01*
X136138366Y-91863375D01*
X136108574Y-91873322D01*
X136103612Y-91876287D01*
X136091426Y-91897283D01*
X136073953Y-91937967D01*
X136054577Y-91990322D01*
X136050734Y-92001600D01*
X136025339Y-92071523D01*
X135993817Y-92150418D01*
X135962969Y-92221266D01*
X135962817Y-92221595D01*
X135911447Y-92332733D01*
X136080399Y-92581253D01*
X136249352Y-92829772D01*
X136032429Y-93047058D01*
X135966819Y-93111726D01*
X135906979Y-93168733D01*
X135856267Y-93215033D01*
X135818046Y-93247584D01*
X135795675Y-93263343D01*
X135792466Y-93264343D01*
X135773626Y-93256469D01*
X135735180Y-93234578D01*
X135681330Y-93201267D01*
X135616276Y-93159131D01*
X135545940Y-93111943D01*
X135474555Y-93063810D01*
X135410908Y-93021928D01*
X135359041Y-92988871D01*
X135322995Y-92967218D01*
X135306867Y-92959543D01*
X135287189Y-92966037D01*
X135249875Y-92983150D01*
X135202621Y-93007326D01*
X135197612Y-93010013D01*
X135133977Y-93041927D01*
X135090341Y-93057579D01*
X135063202Y-93057745D01*
X135049057Y-93043204D01*
X135048975Y-93043000D01*
X135041905Y-93025779D01*
X135025042Y-92984899D01*
X134999695Y-92923525D01*
X134967171Y-92844819D01*
X134928778Y-92751947D01*
X134885822Y-92648072D01*
X134844222Y-92547502D01*
X134798504Y-92436516D01*
X134756526Y-92333703D01*
X134719548Y-92242215D01*
X134688827Y-92165201D01*
X134665622Y-92105815D01*
X134651190Y-92067209D01*
X134646743Y-92052800D01*
X134657896Y-92036272D01*
X134687069Y-92009930D01*
X134725971Y-91980887D01*
X134836757Y-91889039D01*
X134923351Y-91783759D01*
X134984716Y-91667266D01*
X135019815Y-91541776D01*
X135027608Y-91409507D01*
X135021943Y-91348457D01*
X134991078Y-91221795D01*
X134937920Y-91109941D01*
X134865767Y-91014001D01*
X134777917Y-90935076D01*
X134677665Y-90874270D01*
X134568310Y-90832687D01*
X134453147Y-90811428D01*
X134335475Y-90811599D01*
X134218590Y-90834301D01*
X134105789Y-90880638D01*
X134000369Y-90951713D01*
X133956368Y-90991911D01*
X133871979Y-91095129D01*
X133813222Y-91207925D01*
X133779704Y-91327010D01*
X133771035Y-91449095D01*
X133786823Y-91570893D01*
X133826678Y-91689116D01*
X133890207Y-91800475D01*
X133977021Y-91901684D01*
X134074029Y-91980887D01*
X134114437Y-92011162D01*
X134142982Y-92037219D01*
X134153257Y-92052825D01*
X134147877Y-92069843D01*
X134132575Y-92110500D01*
X134108612Y-92171642D01*
X134077244Y-92250119D01*
X134039732Y-92342780D01*
X133997333Y-92446472D01*
X133955663Y-92547526D01*
X133909690Y-92658607D01*
X133867107Y-92761541D01*
X133829221Y-92853165D01*
X133797340Y-92930316D01*
X133772771Y-92989831D01*
X133756820Y-93028544D01*
X133750910Y-93043000D01*
X133736948Y-93057685D01*
X133709940Y-93057642D01*
X133666413Y-93042099D01*
X133602890Y-93010284D01*
X133602388Y-93010013D01*
X133554560Y-92985323D01*
X133515897Y-92967338D01*
X133494095Y-92959614D01*
X133493133Y-92959543D01*
X133476721Y-92967378D01*
X133440487Y-92989165D01*
X133388474Y-93022328D01*
X133324725Y-93064291D01*
X133254060Y-93111943D01*
X133182116Y-93160191D01*
X133117274Y-93202151D01*
X133063735Y-93235227D01*
X133025697Y-93256821D01*
X133007533Y-93264343D01*
X132990808Y-93254457D01*
X132957180Y-93226826D01*
X132910010Y-93184495D01*
X132852658Y-93130505D01*
X132788484Y-93067899D01*
X132767497Y-93046983D01*
X132550499Y-92829623D01*
X132715668Y-92587220D01*
X132765864Y-92512781D01*
X132809919Y-92445972D01*
X132845362Y-92390665D01*
X132869719Y-92350729D01*
X132880522Y-92330036D01*
X132880838Y-92328563D01*
X132875143Y-92309058D01*
X132859826Y-92269822D01*
X132837537Y-92217430D01*
X132821893Y-92182355D01*
X132792641Y-92115201D01*
X132765094Y-92047358D01*
X132743737Y-91990034D01*
X132737935Y-91972572D01*
X132721452Y-91925938D01*
X132705340Y-91889905D01*
X132696490Y-91876287D01*
X132676960Y-91867952D01*
X132634334Y-91856137D01*
X132574145Y-91842181D01*
X132501922Y-91827422D01*
X132469600Y-91821355D01*
X132387522Y-91806273D01*
X132308795Y-91791669D01*
X132241109Y-91778980D01*
X132192160Y-91769642D01*
X132182943Y-91767839D01*
X132106743Y-91752799D01*
X132106743Y-91435492D01*
X132106914Y-91331154D01*
X132107616Y-91252213D01*
X132109134Y-91195038D01*
X132111749Y-91155999D01*
X132115746Y-91131465D01*
X132121409Y-91117805D01*
X132129020Y-91111389D01*
X132132143Y-91110199D01*
X132150978Y-91105980D01*
X132192588Y-91097562D01*
X132251630Y-91085961D01*
X132322757Y-91072195D01*
X132400625Y-91057280D01*
X132479887Y-91042232D01*
X132555198Y-91028069D01*
X132621213Y-91015806D01*
X132672587Y-91006461D01*
X132703975Y-91001050D01*
X132710959Y-91000114D01*
X132717285Y-90987596D01*
X132731290Y-90954246D01*
X132750355Y-90906377D01*
X132757634Y-90887629D01*
X132786996Y-90815195D01*
X132821571Y-90735170D01*
X132852537Y-90667728D01*
X132875323Y-90616159D01*
X132890482Y-90573785D01*
X132895542Y-90547834D01*
X132894736Y-90544356D01*
X132884041Y-90527936D01*
X132859620Y-90491417D01*
X132824095Y-90438687D01*
X132780087Y-90373635D01*
X132730217Y-90300151D01*
X132720356Y-90285645D01*
X132662492Y-90199704D01*
X132619956Y-90134261D01*
X132591054Y-90086304D01*
X132574090Y-90052820D01*
X132567367Y-90030795D01*
X132569190Y-90017217D01*
X132569236Y-90017131D01*
X132583586Y-89999297D01*
X132615323Y-89964817D01*
X132661010Y-89917268D01*
X132717204Y-89860222D01*
X132780468Y-89797255D01*
X132787602Y-89790227D01*
X132867330Y-89713020D01*
X132928857Y-89656330D01*
X132973421Y-89619110D01*
X133002257Y-89600315D01*
X133014958Y-89597889D01*
X133033494Y-89608471D01*
X133071961Y-89632916D01*
X133126386Y-89668612D01*
X133192798Y-89712947D01*
X133267225Y-89763311D01*
X133284601Y-89775160D01*
X133531297Y-89943626D01*
X133642706Y-89893062D01*
X133710457Y-89863595D01*
X133783183Y-89833959D01*
X133845703Y-89810330D01*
X133848457Y-89809358D01*
X133897360Y-89791457D01*
X133935057Y-89776320D01*
X133953425Y-89767210D01*
X133953456Y-89767184D01*
X133959285Y-89750717D01*
X133969192Y-89710219D01*
X133982195Y-89650242D01*
X133997309Y-89575340D01*
X134013552Y-89490064D01*
X134014881Y-89482875D01*
X134031175Y-89395014D01*
X134046133Y-89315260D01*
X134058791Y-89248681D01*
X134068186Y-89200347D01*
X134073354Y-89175325D01*
X134073444Y-89174943D01*
X134076589Y-89164299D01*
X134082704Y-89156262D01*
X134095453Y-89150467D01*
X134118500Y-89146547D01*
X134155509Y-89144135D01*
X134210144Y-89142865D01*
X134286067Y-89142371D01*
X134386944Y-89142286D01*
X134400000Y-89142286D01*
X134503910Y-89142348D01*
G37*
X134503910Y-89142348D02*
X134582454Y-89142778D01*
X134639298Y-89143942D01*
X134678105Y-89146207D01*
X134702538Y-89149940D01*
X134716262Y-89155506D01*
X134722940Y-89163273D01*
X134726236Y-89173605D01*
X134726556Y-89174943D01*
X134731562Y-89199079D01*
X134740829Y-89246701D01*
X134753392Y-89312741D01*
X134768287Y-89392128D01*
X134784551Y-89479796D01*
X134785119Y-89482875D01*
X134801410Y-89568789D01*
X134816652Y-89644696D01*
X134829861Y-89706045D01*
X134840054Y-89748282D01*
X134846248Y-89766855D01*
X134846543Y-89767184D01*
X134864788Y-89776253D01*
X134902405Y-89791367D01*
X134951271Y-89809262D01*
X134951543Y-89809358D01*
X135013093Y-89832493D01*
X135085657Y-89861965D01*
X135154057Y-89891597D01*
X135157294Y-89893062D01*
X135268702Y-89943626D01*
X135515399Y-89775160D01*
X135591077Y-89723803D01*
X135659631Y-89677889D01*
X135717088Y-89640030D01*
X135759476Y-89612837D01*
X135782825Y-89598921D01*
X135785042Y-89597889D01*
X135802010Y-89602484D01*
X135833701Y-89624655D01*
X135881352Y-89665447D01*
X135946198Y-89725905D01*
X136012397Y-89790227D01*
X136076214Y-89853612D01*
X136133329Y-89911451D01*
X136180305Y-89960175D01*
X136213703Y-89996210D01*
X136230085Y-90015984D01*
X136230694Y-90017002D01*
X136232505Y-90030572D01*
X136225683Y-90052733D01*
X136208540Y-90086478D01*
X136179393Y-90134800D01*
X136136555Y-90200692D01*
X136079448Y-90285517D01*
X136028766Y-90360177D01*
X135983461Y-90427140D01*
X135946150Y-90482516D01*
X135919452Y-90522420D01*
X135905985Y-90542962D01*
X135905137Y-90544356D01*
X135906781Y-90564038D01*
X135919245Y-90602293D01*
X135940048Y-90651889D01*
X135947462Y-90667728D01*
X135979814Y-90738290D01*
X136014328Y-90818353D01*
X136042365Y-90887629D01*
X136062568Y-90939045D01*
X136078615Y-90978119D01*
X136087888Y-90998541D01*
X136089041Y-91000114D01*
X136106096Y-91002721D01*
X136146298Y-91009863D01*
X136204302Y-91020523D01*
X136274763Y-91033685D01*
X136352335Y-91048333D01*
X136431672Y-91063449D01*
X136507431Y-91078018D01*
X136574264Y-91091022D01*
X136626828Y-91101445D01*
X136659776Y-91108270D01*
X136667857Y-91110199D01*
X136676205Y-91114962D01*
X136682506Y-91125718D01*
X136687045Y-91146098D01*
X136690104Y-91179734D01*
X136691967Y-91230255D01*
X136692918Y-91301292D01*
X136693240Y-91396476D01*
X136693257Y-91435492D01*
X136693257Y-91752799D01*
X136617057Y-91767839D01*
X136574663Y-91775995D01*
X136511400Y-91787899D01*
X136434962Y-91802116D01*
X136353043Y-91817210D01*
X136330400Y-91821355D01*
X136254806Y-91836053D01*
X136188953Y-91850505D01*
X136138366Y-91863375D01*
X136108574Y-91873322D01*
X136103612Y-91876287D01*
X136091426Y-91897283D01*
X136073953Y-91937967D01*
X136054577Y-91990322D01*
X136050734Y-92001600D01*
X136025339Y-92071523D01*
X135993817Y-92150418D01*
X135962969Y-92221266D01*
X135962817Y-92221595D01*
X135911447Y-92332733D01*
X136080399Y-92581253D01*
X136249352Y-92829772D01*
X136032429Y-93047058D01*
X135966819Y-93111726D01*
X135906979Y-93168733D01*
X135856267Y-93215033D01*
X135818046Y-93247584D01*
X135795675Y-93263343D01*
X135792466Y-93264343D01*
X135773626Y-93256469D01*
X135735180Y-93234578D01*
X135681330Y-93201267D01*
X135616276Y-93159131D01*
X135545940Y-93111943D01*
X135474555Y-93063810D01*
X135410908Y-93021928D01*
X135359041Y-92988871D01*
X135322995Y-92967218D01*
X135306867Y-92959543D01*
X135287189Y-92966037D01*
X135249875Y-92983150D01*
X135202621Y-93007326D01*
X135197612Y-93010013D01*
X135133977Y-93041927D01*
X135090341Y-93057579D01*
X135063202Y-93057745D01*
X135049057Y-93043204D01*
X135048975Y-93043000D01*
X135041905Y-93025779D01*
X135025042Y-92984899D01*
X134999695Y-92923525D01*
X134967171Y-92844819D01*
X134928778Y-92751947D01*
X134885822Y-92648072D01*
X134844222Y-92547502D01*
X134798504Y-92436516D01*
X134756526Y-92333703D01*
X134719548Y-92242215D01*
X134688827Y-92165201D01*
X134665622Y-92105815D01*
X134651190Y-92067209D01*
X134646743Y-92052800D01*
X134657896Y-92036272D01*
X134687069Y-92009930D01*
X134725971Y-91980887D01*
X134836757Y-91889039D01*
X134923351Y-91783759D01*
X134984716Y-91667266D01*
X135019815Y-91541776D01*
X135027608Y-91409507D01*
X135021943Y-91348457D01*
X134991078Y-91221795D01*
X134937920Y-91109941D01*
X134865767Y-91014001D01*
X134777917Y-90935076D01*
X134677665Y-90874270D01*
X134568310Y-90832687D01*
X134453147Y-90811428D01*
X134335475Y-90811599D01*
X134218590Y-90834301D01*
X134105789Y-90880638D01*
X134000369Y-90951713D01*
X133956368Y-90991911D01*
X133871979Y-91095129D01*
X133813222Y-91207925D01*
X133779704Y-91327010D01*
X133771035Y-91449095D01*
X133786823Y-91570893D01*
X133826678Y-91689116D01*
X133890207Y-91800475D01*
X133977021Y-91901684D01*
X134074029Y-91980887D01*
X134114437Y-92011162D01*
X134142982Y-92037219D01*
X134153257Y-92052825D01*
X134147877Y-92069843D01*
X134132575Y-92110500D01*
X134108612Y-92171642D01*
X134077244Y-92250119D01*
X134039732Y-92342780D01*
X133997333Y-92446472D01*
X133955663Y-92547526D01*
X133909690Y-92658607D01*
X133867107Y-92761541D01*
X133829221Y-92853165D01*
X133797340Y-92930316D01*
X133772771Y-92989831D01*
X133756820Y-93028544D01*
X133750910Y-93043000D01*
X133736948Y-93057685D01*
X133709940Y-93057642D01*
X133666413Y-93042099D01*
X133602890Y-93010284D01*
X133602388Y-93010013D01*
X133554560Y-92985323D01*
X133515897Y-92967338D01*
X133494095Y-92959614D01*
X133493133Y-92959543D01*
X133476721Y-92967378D01*
X133440487Y-92989165D01*
X133388474Y-93022328D01*
X133324725Y-93064291D01*
X133254060Y-93111943D01*
X133182116Y-93160191D01*
X133117274Y-93202151D01*
X133063735Y-93235227D01*
X133025697Y-93256821D01*
X133007533Y-93264343D01*
X132990808Y-93254457D01*
X132957180Y-93226826D01*
X132910010Y-93184495D01*
X132852658Y-93130505D01*
X132788484Y-93067899D01*
X132767497Y-93046983D01*
X132550499Y-92829623D01*
X132715668Y-92587220D01*
X132765864Y-92512781D01*
X132809919Y-92445972D01*
X132845362Y-92390665D01*
X132869719Y-92350729D01*
X132880522Y-92330036D01*
X132880838Y-92328563D01*
X132875143Y-92309058D01*
X132859826Y-92269822D01*
X132837537Y-92217430D01*
X132821893Y-92182355D01*
X132792641Y-92115201D01*
X132765094Y-92047358D01*
X132743737Y-91990034D01*
X132737935Y-91972572D01*
X132721452Y-91925938D01*
X132705340Y-91889905D01*
X132696490Y-91876287D01*
X132676960Y-91867952D01*
X132634334Y-91856137D01*
X132574145Y-91842181D01*
X132501922Y-91827422D01*
X132469600Y-91821355D01*
X132387522Y-91806273D01*
X132308795Y-91791669D01*
X132241109Y-91778980D01*
X132192160Y-91769642D01*
X132182943Y-91767839D01*
X132106743Y-91752799D01*
X132106743Y-91435492D01*
X132106914Y-91331154D01*
X132107616Y-91252213D01*
X132109134Y-91195038D01*
X132111749Y-91155999D01*
X132115746Y-91131465D01*
X132121409Y-91117805D01*
X132129020Y-91111389D01*
X132132143Y-91110199D01*
X132150978Y-91105980D01*
X132192588Y-91097562D01*
X132251630Y-91085961D01*
X132322757Y-91072195D01*
X132400625Y-91057280D01*
X132479887Y-91042232D01*
X132555198Y-91028069D01*
X132621213Y-91015806D01*
X132672587Y-91006461D01*
X132703975Y-91001050D01*
X132710959Y-91000114D01*
X132717285Y-90987596D01*
X132731290Y-90954246D01*
X132750355Y-90906377D01*
X132757634Y-90887629D01*
X132786996Y-90815195D01*
X132821571Y-90735170D01*
X132852537Y-90667728D01*
X132875323Y-90616159D01*
X132890482Y-90573785D01*
X132895542Y-90547834D01*
X132894736Y-90544356D01*
X132884041Y-90527936D01*
X132859620Y-90491417D01*
X132824095Y-90438687D01*
X132780087Y-90373635D01*
X132730217Y-90300151D01*
X132720356Y-90285645D01*
X132662492Y-90199704D01*
X132619956Y-90134261D01*
X132591054Y-90086304D01*
X132574090Y-90052820D01*
X132567367Y-90030795D01*
X132569190Y-90017217D01*
X132569236Y-90017131D01*
X132583586Y-89999297D01*
X132615323Y-89964817D01*
X132661010Y-89917268D01*
X132717204Y-89860222D01*
X132780468Y-89797255D01*
X132787602Y-89790227D01*
X132867330Y-89713020D01*
X132928857Y-89656330D01*
X132973421Y-89619110D01*
X133002257Y-89600315D01*
X133014958Y-89597889D01*
X133033494Y-89608471D01*
X133071961Y-89632916D01*
X133126386Y-89668612D01*
X133192798Y-89712947D01*
X133267225Y-89763311D01*
X133284601Y-89775160D01*
X133531297Y-89943626D01*
X133642706Y-89893062D01*
X133710457Y-89863595D01*
X133783183Y-89833959D01*
X133845703Y-89810330D01*
X133848457Y-89809358D01*
X133897360Y-89791457D01*
X133935057Y-89776320D01*
X133953425Y-89767210D01*
X133953456Y-89767184D01*
X133959285Y-89750717D01*
X133969192Y-89710219D01*
X133982195Y-89650242D01*
X133997309Y-89575340D01*
X134013552Y-89490064D01*
X134014881Y-89482875D01*
X134031175Y-89395014D01*
X134046133Y-89315260D01*
X134058791Y-89248681D01*
X134068186Y-89200347D01*
X134073354Y-89175325D01*
X134073444Y-89174943D01*
X134076589Y-89164299D01*
X134082704Y-89156262D01*
X134095453Y-89150467D01*
X134118500Y-89146547D01*
X134155509Y-89144135D01*
X134210144Y-89142865D01*
X134286067Y-89142371D01*
X134386944Y-89142286D01*
X134400000Y-89142286D01*
X134503910Y-89142348D01*
X132568303Y-93831239D02*
X132625527Y-93869735D01*
X132625527Y-93869735D02*
X132669749Y-93925335D01*
X132669749Y-93925335D02*
X132696167Y-93996086D01*
X132696167Y-93996086D02*
X132701510Y-94048162D01*
X132701510Y-94048162D02*
X132700903Y-94069893D01*
X132700903Y-94069893D02*
X132695822Y-94086531D01*
X132695822Y-94086531D02*
X132681855Y-94101437D01*
X132681855Y-94101437D02*
X132654589Y-94117973D01*
X132654589Y-94117973D02*
X132609612Y-94139498D01*
X132609612Y-94139498D02*
X132542511Y-94169374D01*
X132542511Y-94169374D02*
X132542171Y-94169524D01*
X132542171Y-94169524D02*
X132480407Y-94197813D01*
X132480407Y-94197813D02*
X132429759Y-94222933D01*
X132429759Y-94222933D02*
X132395404Y-94242179D01*
X132395404Y-94242179D02*
X132382518Y-94252848D01*
X132382518Y-94252848D02*
X132382514Y-94252934D01*
X132382514Y-94252934D02*
X132393872Y-94276166D01*
X132393872Y-94276166D02*
X132420431Y-94301774D01*
X132420431Y-94301774D02*
X132450923Y-94320221D01*
X132450923Y-94320221D02*
X132466370Y-94323886D01*
X132466370Y-94323886D02*
X132508515Y-94311212D01*
X132508515Y-94311212D02*
X132544808Y-94279471D01*
X132544808Y-94279471D02*
X132562517Y-94244572D01*
X132562517Y-94244572D02*
X132579552Y-94218845D01*
X132579552Y-94218845D02*
X132612922Y-94189546D01*
X132612922Y-94189546D02*
X132652149Y-94164235D01*
X132652149Y-94164235D02*
X132686756Y-94150471D01*
X132686756Y-94150471D02*
X132693993Y-94149714D01*
X132693993Y-94149714D02*
X132702139Y-94162160D01*
X132702139Y-94162160D02*
X132702630Y-94193972D01*
X132702630Y-94193972D02*
X132696643Y-94236866D01*
X132696643Y-94236866D02*
X132685357Y-94282558D01*
X132685357Y-94282558D02*
X132669950Y-94322761D01*
X132669950Y-94322761D02*
X132669171Y-94324322D01*
X132669171Y-94324322D02*
X132622804Y-94389062D01*
X132622804Y-94389062D02*
X132562711Y-94433097D01*
X132562711Y-94433097D02*
X132494465Y-94454711D01*
X132494465Y-94454711D02*
X132423638Y-94452185D01*
X132423638Y-94452185D02*
X132355804Y-94423804D01*
X132355804Y-94423804D02*
X132352788Y-94421808D01*
X132352788Y-94421808D02*
X132299427Y-94373448D01*
X132299427Y-94373448D02*
X132264340Y-94310352D01*
X132264340Y-94310352D02*
X132244922Y-94227387D01*
X132244922Y-94227387D02*
X132242316Y-94204078D01*
X132242316Y-94204078D02*
X132237701Y-94094055D01*
X132237701Y-94094055D02*
X132243233Y-94042748D01*
X132243233Y-94042748D02*
X132382514Y-94042748D01*
X132382514Y-94042748D02*
X132384324Y-94074753D01*
X132384324Y-94074753D02*
X132394222Y-94084093D01*
X132394222Y-94084093D02*
X132418898Y-94077105D01*
X132418898Y-94077105D02*
X132457795Y-94060587D01*
X132457795Y-94060587D02*
X132501275Y-94039881D01*
X132501275Y-94039881D02*
X132502356Y-94039333D01*
X132502356Y-94039333D02*
X132539209Y-94019949D01*
X132539209Y-94019949D02*
X132554000Y-94007013D01*
X132554000Y-94007013D02*
X132550353Y-93993451D01*
X132550353Y-93993451D02*
X132534995Y-93975632D01*
X132534995Y-93975632D02*
X132495923Y-93949845D01*
X132495923Y-93949845D02*
X132453846Y-93947950D01*
X132453846Y-93947950D02*
X132416103Y-93966717D01*
X132416103Y-93966717D02*
X132390034Y-94002915D01*
X132390034Y-94002915D02*
X132382514Y-94042748D01*
X132382514Y-94042748D02*
X132243233Y-94042748D01*
X132243233Y-94042748D02*
X132247194Y-94006027D01*
X132247194Y-94006027D02*
X132271550Y-93936212D01*
X132271550Y-93936212D02*
X132305456Y-93887302D01*
X132305456Y-93887302D02*
X132366653Y-93837878D01*
X132366653Y-93837878D02*
X132434063Y-93813359D01*
X132434063Y-93813359D02*
X132502880Y-93811797D01*
X132502880Y-93811797D02*
X132568303Y-93831239D01*
X132568303Y-93831239D02*
X132568303Y-93831239D01*
G36*
X132271550Y-93936212D02*
G01*
X132305456Y-93887302D01*
X132366653Y-93837878D01*
X132434063Y-93813359D01*
X132502880Y-93811797D01*
X132568303Y-93831239D01*
X132625527Y-93869735D01*
X132669749Y-93925335D01*
X132696167Y-93996086D01*
X132701510Y-94048162D01*
X132700903Y-94069893D01*
X132695822Y-94086531D01*
X132681855Y-94101437D01*
X132654589Y-94117973D01*
X132609612Y-94139498D01*
X132542511Y-94169374D01*
X132542171Y-94169524D01*
X132480407Y-94197813D01*
X132429759Y-94222933D01*
X132395404Y-94242179D01*
X132382518Y-94252848D01*
X132382514Y-94252934D01*
X132393872Y-94276166D01*
X132420431Y-94301774D01*
X132450923Y-94320221D01*
X132466370Y-94323886D01*
X132508515Y-94311212D01*
X132544808Y-94279471D01*
X132562517Y-94244572D01*
X132579552Y-94218845D01*
X132612922Y-94189546D01*
X132652149Y-94164235D01*
X132686756Y-94150471D01*
X132693993Y-94149714D01*
X132702139Y-94162160D01*
X132702630Y-94193972D01*
X132696643Y-94236866D01*
X132685357Y-94282558D01*
X132669950Y-94322761D01*
X132669171Y-94324322D01*
X132622804Y-94389062D01*
X132562711Y-94433097D01*
X132494465Y-94454711D01*
X132423638Y-94452185D01*
X132355804Y-94423804D01*
X132352788Y-94421808D01*
X132299427Y-94373448D01*
X132264340Y-94310352D01*
X132244922Y-94227387D01*
X132242316Y-94204078D01*
X132237701Y-94094055D01*
X132243233Y-94042748D01*
X132382514Y-94042748D01*
X132384324Y-94074753D01*
X132394222Y-94084093D01*
X132418898Y-94077105D01*
X132457795Y-94060587D01*
X132501275Y-94039881D01*
X132502356Y-94039333D01*
X132539209Y-94019949D01*
X132554000Y-94007013D01*
X132550353Y-93993451D01*
X132534995Y-93975632D01*
X132495923Y-93949845D01*
X132453846Y-93947950D01*
X132416103Y-93966717D01*
X132390034Y-94002915D01*
X132382514Y-94042748D01*
X132243233Y-94042748D01*
X132247194Y-94006027D01*
X132271550Y-93936212D01*
G37*
X132271550Y-93936212D02*
X132305456Y-93887302D01*
X132366653Y-93837878D01*
X132434063Y-93813359D01*
X132502880Y-93811797D01*
X132568303Y-93831239D01*
X132625527Y-93869735D01*
X132669749Y-93925335D01*
X132696167Y-93996086D01*
X132701510Y-94048162D01*
X132700903Y-94069893D01*
X132695822Y-94086531D01*
X132681855Y-94101437D01*
X132654589Y-94117973D01*
X132609612Y-94139498D01*
X132542511Y-94169374D01*
X132542171Y-94169524D01*
X132480407Y-94197813D01*
X132429759Y-94222933D01*
X132395404Y-94242179D01*
X132382518Y-94252848D01*
X132382514Y-94252934D01*
X132393872Y-94276166D01*
X132420431Y-94301774D01*
X132450923Y-94320221D01*
X132466370Y-94323886D01*
X132508515Y-94311212D01*
X132544808Y-94279471D01*
X132562517Y-94244572D01*
X132579552Y-94218845D01*
X132612922Y-94189546D01*
X132652149Y-94164235D01*
X132686756Y-94150471D01*
X132693993Y-94149714D01*
X132702139Y-94162160D01*
X132702630Y-94193972D01*
X132696643Y-94236866D01*
X132685357Y-94282558D01*
X132669950Y-94322761D01*
X132669171Y-94324322D01*
X132622804Y-94389062D01*
X132562711Y-94433097D01*
X132494465Y-94454711D01*
X132423638Y-94452185D01*
X132355804Y-94423804D01*
X132352788Y-94421808D01*
X132299427Y-94373448D01*
X132264340Y-94310352D01*
X132244922Y-94227387D01*
X132242316Y-94204078D01*
X132237701Y-94094055D01*
X132243233Y-94042748D01*
X132382514Y-94042748D01*
X132384324Y-94074753D01*
X132394222Y-94084093D01*
X132418898Y-94077105D01*
X132457795Y-94060587D01*
X132501275Y-94039881D01*
X132502356Y-94039333D01*
X132539209Y-94019949D01*
X132554000Y-94007013D01*
X132550353Y-93993451D01*
X132534995Y-93975632D01*
X132495923Y-93949845D01*
X132453846Y-93947950D01*
X132416103Y-93966717D01*
X132390034Y-94002915D01*
X132382514Y-94042748D01*
X132243233Y-94042748D01*
X132247194Y-94006027D01*
X132271550Y-93936212D01*
X133116093Y-93827780D02*
X133162672Y-93854723D01*
X133162672Y-93854723D02*
X133195057Y-93881466D01*
X133195057Y-93881466D02*
X133218742Y-93909484D01*
X133218742Y-93909484D02*
X133235059Y-93943748D01*
X133235059Y-93943748D02*
X133245339Y-93989227D01*
X133245339Y-93989227D02*
X133250914Y-94050892D01*
X133250914Y-94050892D02*
X133253116Y-94133711D01*
X133253116Y-94133711D02*
X133253371Y-94193246D01*
X133253371Y-94193246D02*
X133253371Y-94412391D01*
X133253371Y-94412391D02*
X133191686Y-94440044D01*
X133191686Y-94440044D02*
X133130000Y-94467697D01*
X133130000Y-94467697D02*
X133122743Y-94227670D01*
X133122743Y-94227670D02*
X133119744Y-94138028D01*
X133119744Y-94138028D02*
X133116598Y-94072962D01*
X133116598Y-94072962D02*
X133112701Y-94028026D01*
X133112701Y-94028026D02*
X133107447Y-93998770D01*
X133107447Y-93998770D02*
X133100231Y-93980748D01*
X133100231Y-93980748D02*
X133090450Y-93969511D01*
X133090450Y-93969511D02*
X133087312Y-93967079D01*
X133087312Y-93967079D02*
X133039761Y-93948083D01*
X133039761Y-93948083D02*
X132991697Y-93955600D01*
X132991697Y-93955600D02*
X132963086Y-93975543D01*
X132963086Y-93975543D02*
X132951447Y-93989675D01*
X132951447Y-93989675D02*
X132943391Y-94008220D01*
X132943391Y-94008220D02*
X132938271Y-94036334D01*
X132938271Y-94036334D02*
X132935441Y-94079173D01*
X132935441Y-94079173D02*
X132934256Y-94141895D01*
X132934256Y-94141895D02*
X132934057Y-94207261D01*
X132934057Y-94207261D02*
X132934018Y-94289268D01*
X132934018Y-94289268D02*
X132932614Y-94347316D01*
X132932614Y-94347316D02*
X132927914Y-94386465D01*
X132927914Y-94386465D02*
X132917987Y-94411780D01*
X132917987Y-94411780D02*
X132900903Y-94428323D01*
X132900903Y-94428323D02*
X132874732Y-94441156D01*
X132874732Y-94441156D02*
X132839775Y-94454491D01*
X132839775Y-94454491D02*
X132801596Y-94469007D01*
X132801596Y-94469007D02*
X132806141Y-94211389D01*
X132806141Y-94211389D02*
X132807971Y-94118519D01*
X132807971Y-94118519D02*
X132810112Y-94049889D01*
X132810112Y-94049889D02*
X132813181Y-94000711D01*
X132813181Y-94000711D02*
X132817794Y-93966198D01*
X132817794Y-93966198D02*
X132824568Y-93941562D01*
X132824568Y-93941562D02*
X132834119Y-93922016D01*
X132834119Y-93922016D02*
X132845634Y-93904770D01*
X132845634Y-93904770D02*
X132901190Y-93849680D01*
X132901190Y-93849680D02*
X132968980Y-93817822D01*
X132968980Y-93817822D02*
X133042713Y-93810191D01*
X133042713Y-93810191D02*
X133116093Y-93827780D01*
X133116093Y-93827780D02*
X133116093Y-93827780D01*
G36*
X133116093Y-93827780D02*
G01*
X133162672Y-93854723D01*
X133195057Y-93881466D01*
X133218742Y-93909484D01*
X133235059Y-93943748D01*
X133245339Y-93989227D01*
X133250914Y-94050892D01*
X133253116Y-94133711D01*
X133253371Y-94193246D01*
X133253371Y-94412391D01*
X133191686Y-94440044D01*
X133130000Y-94467697D01*
X133122743Y-94227670D01*
X133119744Y-94138028D01*
X133116598Y-94072962D01*
X133112701Y-94028026D01*
X133107447Y-93998770D01*
X133100231Y-93980748D01*
X133090450Y-93969511D01*
X133087312Y-93967079D01*
X133039761Y-93948083D01*
X132991697Y-93955600D01*
X132963086Y-93975543D01*
X132951447Y-93989675D01*
X132943391Y-94008220D01*
X132938271Y-94036334D01*
X132935441Y-94079173D01*
X132934256Y-94141895D01*
X132934057Y-94207261D01*
X132934018Y-94289268D01*
X132932614Y-94347316D01*
X132927914Y-94386465D01*
X132917987Y-94411780D01*
X132900903Y-94428323D01*
X132874732Y-94441156D01*
X132839775Y-94454491D01*
X132801596Y-94469007D01*
X132806141Y-94211389D01*
X132807971Y-94118519D01*
X132810112Y-94049889D01*
X132813181Y-94000711D01*
X132817794Y-93966198D01*
X132824568Y-93941562D01*
X132834119Y-93922016D01*
X132845634Y-93904770D01*
X132901190Y-93849680D01*
X132968980Y-93817822D01*
X133042713Y-93810191D01*
X133116093Y-93827780D01*
G37*
X133116093Y-93827780D02*
X133162672Y-93854723D01*
X133195057Y-93881466D01*
X133218742Y-93909484D01*
X133235059Y-93943748D01*
X133245339Y-93989227D01*
X133250914Y-94050892D01*
X133253116Y-94133711D01*
X133253371Y-94193246D01*
X133253371Y-94412391D01*
X133191686Y-94440044D01*
X133130000Y-94467697D01*
X133122743Y-94227670D01*
X133119744Y-94138028D01*
X133116598Y-94072962D01*
X133112701Y-94028026D01*
X133107447Y-93998770D01*
X133100231Y-93980748D01*
X133090450Y-93969511D01*
X133087312Y-93967079D01*
X133039761Y-93948083D01*
X132991697Y-93955600D01*
X132963086Y-93975543D01*
X132951447Y-93989675D01*
X132943391Y-94008220D01*
X132938271Y-94036334D01*
X132935441Y-94079173D01*
X132934256Y-94141895D01*
X132934057Y-94207261D01*
X132934018Y-94289268D01*
X132932614Y-94347316D01*
X132927914Y-94386465D01*
X132917987Y-94411780D01*
X132900903Y-94428323D01*
X132874732Y-94441156D01*
X132839775Y-94454491D01*
X132801596Y-94469007D01*
X132806141Y-94211389D01*
X132807971Y-94118519D01*
X132810112Y-94049889D01*
X132813181Y-94000711D01*
X132817794Y-93966198D01*
X132824568Y-93941562D01*
X132834119Y-93922016D01*
X132845634Y-93904770D01*
X132901190Y-93849680D01*
X132968980Y-93817822D01*
X133042713Y-93810191D01*
X133116093Y-93827780D01*
X136179833Y-93858663D02*
X136182048Y-93896850D01*
X136182048Y-93896850D02*
X136183784Y-93954886D01*
X136183784Y-93954886D02*
X136184899Y-94028180D01*
X136184899Y-94028180D02*
X136185257Y-94105055D01*
X136185257Y-94105055D02*
X136185257Y-94365196D01*
X136185257Y-94365196D02*
X136139326Y-94411127D01*
X136139326Y-94411127D02*
X136107675Y-94439429D01*
X136107675Y-94439429D02*
X136079890Y-94450893D01*
X136079890Y-94450893D02*
X136041915Y-94450168D01*
X136041915Y-94450168D02*
X136026840Y-94448321D01*
X136026840Y-94448321D02*
X135979726Y-94442948D01*
X135979726Y-94442948D02*
X135940756Y-94439869D01*
X135940756Y-94439869D02*
X135931257Y-94439585D01*
X135931257Y-94439585D02*
X135899233Y-94441445D01*
X135899233Y-94441445D02*
X135853432Y-94446114D01*
X135853432Y-94446114D02*
X135835674Y-94448321D01*
X135835674Y-94448321D02*
X135792057Y-94451735D01*
X135792057Y-94451735D02*
X135762745Y-94444320D01*
X135762745Y-94444320D02*
X135733680Y-94421427D01*
X135733680Y-94421427D02*
X135723188Y-94411127D01*
X135723188Y-94411127D02*
X135677257Y-94365196D01*
X135677257Y-94365196D02*
X135677257Y-93878602D01*
X135677257Y-93878602D02*
X135714226Y-93861758D01*
X135714226Y-93861758D02*
X135746059Y-93849282D01*
X135746059Y-93849282D02*
X135764683Y-93844914D01*
X135764683Y-93844914D02*
X135769458Y-93858718D01*
X135769458Y-93858718D02*
X135773921Y-93897286D01*
X135773921Y-93897286D02*
X135777775Y-93956356D01*
X135777775Y-93956356D02*
X135780722Y-94031663D01*
X135780722Y-94031663D02*
X135782143Y-94095286D01*
X135782143Y-94095286D02*
X135786114Y-94345657D01*
X135786114Y-94345657D02*
X135820759Y-94350556D01*
X135820759Y-94350556D02*
X135852268Y-94347131D01*
X135852268Y-94347131D02*
X135867708Y-94336041D01*
X135867708Y-94336041D02*
X135872023Y-94315308D01*
X135872023Y-94315308D02*
X135875708Y-94271145D01*
X135875708Y-94271145D02*
X135878469Y-94209146D01*
X135878469Y-94209146D02*
X135880012Y-94134909D01*
X135880012Y-94134909D02*
X135880235Y-94096706D01*
X135880235Y-94096706D02*
X135880457Y-93876783D01*
X135880457Y-93876783D02*
X135926166Y-93860849D01*
X135926166Y-93860849D02*
X135958518Y-93850015D01*
X135958518Y-93850015D02*
X135976115Y-93844962D01*
X135976115Y-93844962D02*
X135976623Y-93844914D01*
X135976623Y-93844914D02*
X135978388Y-93858648D01*
X135978388Y-93858648D02*
X135980329Y-93896730D01*
X135980329Y-93896730D02*
X135982282Y-93954482D01*
X135982282Y-93954482D02*
X135984084Y-94027227D01*
X135984084Y-94027227D02*
X135985343Y-94095286D01*
X135985343Y-94095286D02*
X135989314Y-94345657D01*
X135989314Y-94345657D02*
X136076400Y-94345657D01*
X136076400Y-94345657D02*
X136080396Y-94117240D01*
X136080396Y-94117240D02*
X136084392Y-93888822D01*
X136084392Y-93888822D02*
X136126847Y-93866868D01*
X136126847Y-93866868D02*
X136158192Y-93851793D01*
X136158192Y-93851793D02*
X136176744Y-93844951D01*
X136176744Y-93844951D02*
X136177279Y-93844914D01*
X136177279Y-93844914D02*
X136179833Y-93858663D01*
X136179833Y-93858663D02*
X136179833Y-93858663D01*
G36*
X136179833Y-93858663D02*
G01*
X136182048Y-93896850D01*
X136183784Y-93954886D01*
X136184899Y-94028180D01*
X136185257Y-94105055D01*
X136185257Y-94365196D01*
X136139326Y-94411127D01*
X136107675Y-94439429D01*
X136079890Y-94450893D01*
X136041915Y-94450168D01*
X136026840Y-94448321D01*
X135979726Y-94442948D01*
X135940756Y-94439869D01*
X135931257Y-94439585D01*
X135899233Y-94441445D01*
X135853432Y-94446114D01*
X135835674Y-94448321D01*
X135792057Y-94451735D01*
X135762745Y-94444320D01*
X135733680Y-94421427D01*
X135723188Y-94411127D01*
X135677257Y-94365196D01*
X135677257Y-93878602D01*
X135714226Y-93861758D01*
X135746059Y-93849282D01*
X135764683Y-93844914D01*
X135769458Y-93858718D01*
X135773921Y-93897286D01*
X135777775Y-93956356D01*
X135780722Y-94031663D01*
X135782143Y-94095286D01*
X135786114Y-94345657D01*
X135820759Y-94350556D01*
X135852268Y-94347131D01*
X135867708Y-94336041D01*
X135872023Y-94315308D01*
X135875708Y-94271145D01*
X135878469Y-94209146D01*
X135880012Y-94134909D01*
X135880235Y-94096706D01*
X135880457Y-93876783D01*
X135926166Y-93860849D01*
X135958518Y-93850015D01*
X135976115Y-93844962D01*
X135976623Y-93844914D01*
X135978388Y-93858648D01*
X135980329Y-93896730D01*
X135982282Y-93954482D01*
X135984084Y-94027227D01*
X135985343Y-94095286D01*
X135989314Y-94345657D01*
X136076400Y-94345657D01*
X136080396Y-94117240D01*
X136084392Y-93888822D01*
X136126847Y-93866868D01*
X136158192Y-93851793D01*
X136176744Y-93844951D01*
X136177279Y-93844914D01*
X136179833Y-93858663D01*
G37*
X136179833Y-93858663D02*
X136182048Y-93896850D01*
X136183784Y-93954886D01*
X136184899Y-94028180D01*
X136185257Y-94105055D01*
X136185257Y-94365196D01*
X136139326Y-94411127D01*
X136107675Y-94439429D01*
X136079890Y-94450893D01*
X136041915Y-94450168D01*
X136026840Y-94448321D01*
X135979726Y-94442948D01*
X135940756Y-94439869D01*
X135931257Y-94439585D01*
X135899233Y-94441445D01*
X135853432Y-94446114D01*
X135835674Y-94448321D01*
X135792057Y-94451735D01*
X135762745Y-94444320D01*
X135733680Y-94421427D01*
X135723188Y-94411127D01*
X135677257Y-94365196D01*
X135677257Y-93878602D01*
X135714226Y-93861758D01*
X135746059Y-93849282D01*
X135764683Y-93844914D01*
X135769458Y-93858718D01*
X135773921Y-93897286D01*
X135777775Y-93956356D01*
X135780722Y-94031663D01*
X135782143Y-94095286D01*
X135786114Y-94345657D01*
X135820759Y-94350556D01*
X135852268Y-94347131D01*
X135867708Y-94336041D01*
X135872023Y-94315308D01*
X135875708Y-94271145D01*
X135878469Y-94209146D01*
X135880012Y-94134909D01*
X135880235Y-94096706D01*
X135880457Y-93876783D01*
X135926166Y-93860849D01*
X135958518Y-93850015D01*
X135976115Y-93844962D01*
X135976623Y-93844914D01*
X135978388Y-93858648D01*
X135980329Y-93896730D01*
X135982282Y-93954482D01*
X135984084Y-94027227D01*
X135985343Y-94095286D01*
X135989314Y-94345657D01*
X136076400Y-94345657D01*
X136080396Y-94117240D01*
X136084392Y-93888822D01*
X136126847Y-93866868D01*
X136158192Y-93851793D01*
X136176744Y-93844951D01*
X136177279Y-93844914D01*
X136179833Y-93858663D01*
X134929926Y-93849755D02*
X134995858Y-93874084D01*
X134995858Y-93874084D02*
X135049273Y-93917117D01*
X135049273Y-93917117D02*
X135070164Y-93947409D01*
X135070164Y-93947409D02*
X135092939Y-94002994D01*
X135092939Y-94002994D02*
X135092466Y-94043186D01*
X135092466Y-94043186D02*
X135068562Y-94070217D01*
X135068562Y-94070217D02*
X135059717Y-94074813D01*
X135059717Y-94074813D02*
X135021530Y-94089144D01*
X135021530Y-94089144D02*
X135002028Y-94085472D01*
X135002028Y-94085472D02*
X134995422Y-94061407D01*
X134995422Y-94061407D02*
X134995086Y-94048114D01*
X134995086Y-94048114D02*
X134982992Y-93999210D01*
X134982992Y-93999210D02*
X134951471Y-93964999D01*
X134951471Y-93964999D02*
X134907659Y-93948476D01*
X134907659Y-93948476D02*
X134858695Y-93952634D01*
X134858695Y-93952634D02*
X134818894Y-93974227D01*
X134818894Y-93974227D02*
X134805450Y-93986544D01*
X134805450Y-93986544D02*
X134795921Y-94001487D01*
X134795921Y-94001487D02*
X134789485Y-94024075D01*
X134789485Y-94024075D02*
X134785317Y-94059328D01*
X134785317Y-94059328D02*
X134782597Y-94112266D01*
X134782597Y-94112266D02*
X134780502Y-94187907D01*
X134780502Y-94187907D02*
X134779960Y-94211857D01*
X134779960Y-94211857D02*
X134777981Y-94293790D01*
X134777981Y-94293790D02*
X134775731Y-94351455D01*
X134775731Y-94351455D02*
X134772357Y-94389608D01*
X134772357Y-94389608D02*
X134767006Y-94413004D01*
X134767006Y-94413004D02*
X134758824Y-94426398D01*
X134758824Y-94426398D02*
X134746959Y-94434545D01*
X134746959Y-94434545D02*
X134739362Y-94438144D01*
X134739362Y-94438144D02*
X134707102Y-94450452D01*
X134707102Y-94450452D02*
X134688111Y-94454514D01*
X134688111Y-94454514D02*
X134681836Y-94440948D01*
X134681836Y-94440948D02*
X134678006Y-94399934D01*
X134678006Y-94399934D02*
X134676600Y-94330999D01*
X134676600Y-94330999D02*
X134677598Y-94233669D01*
X134677598Y-94233669D02*
X134677908Y-94218657D01*
X134677908Y-94218657D02*
X134680101Y-94129859D01*
X134680101Y-94129859D02*
X134682693Y-94065019D01*
X134682693Y-94065019D02*
X134686382Y-94019067D01*
X134686382Y-94019067D02*
X134691864Y-93986935D01*
X134691864Y-93986935D02*
X134699835Y-93963553D01*
X134699835Y-93963553D02*
X134710993Y-93943852D01*
X134710993Y-93943852D02*
X134716830Y-93935410D01*
X134716830Y-93935410D02*
X134750296Y-93898057D01*
X134750296Y-93898057D02*
X134787727Y-93869003D01*
X134787727Y-93869003D02*
X134792309Y-93866467D01*
X134792309Y-93866467D02*
X134859426Y-93846443D01*
X134859426Y-93846443D02*
X134929926Y-93849755D01*
X134929926Y-93849755D02*
X134929926Y-93849755D01*
G36*
X134929926Y-93849755D02*
G01*
X134995858Y-93874084D01*
X135049273Y-93917117D01*
X135070164Y-93947409D01*
X135092939Y-94002994D01*
X135092466Y-94043186D01*
X135068562Y-94070217D01*
X135059717Y-94074813D01*
X135021530Y-94089144D01*
X135002028Y-94085472D01*
X134995422Y-94061407D01*
X134995086Y-94048114D01*
X134982992Y-93999210D01*
X134951471Y-93964999D01*
X134907659Y-93948476D01*
X134858695Y-93952634D01*
X134818894Y-93974227D01*
X134805450Y-93986544D01*
X134795921Y-94001487D01*
X134789485Y-94024075D01*
X134785317Y-94059328D01*
X134782597Y-94112266D01*
X134780502Y-94187907D01*
X134779960Y-94211857D01*
X134777981Y-94293790D01*
X134775731Y-94351455D01*
X134772357Y-94389608D01*
X134767006Y-94413004D01*
X134758824Y-94426398D01*
X134746959Y-94434545D01*
X134739362Y-94438144D01*
X134707102Y-94450452D01*
X134688111Y-94454514D01*
X134681836Y-94440948D01*
X134678006Y-94399934D01*
X134676600Y-94330999D01*
X134677598Y-94233669D01*
X134677908Y-94218657D01*
X134680101Y-94129859D01*
X134682693Y-94065019D01*
X134686382Y-94019067D01*
X134691864Y-93986935D01*
X134699835Y-93963553D01*
X134710993Y-93943852D01*
X134716830Y-93935410D01*
X134750296Y-93898057D01*
X134787727Y-93869003D01*
X134792309Y-93866467D01*
X134859426Y-93846443D01*
X134929926Y-93849755D01*
G37*
X134929926Y-93849755D02*
X134995858Y-93874084D01*
X135049273Y-93917117D01*
X135070164Y-93947409D01*
X135092939Y-94002994D01*
X135092466Y-94043186D01*
X135068562Y-94070217D01*
X135059717Y-94074813D01*
X135021530Y-94089144D01*
X135002028Y-94085472D01*
X134995422Y-94061407D01*
X134995086Y-94048114D01*
X134982992Y-93999210D01*
X134951471Y-93964999D01*
X134907659Y-93948476D01*
X134858695Y-93952634D01*
X134818894Y-93974227D01*
X134805450Y-93986544D01*
X134795921Y-94001487D01*
X134789485Y-94024075D01*
X134785317Y-94059328D01*
X134782597Y-94112266D01*
X134780502Y-94187907D01*
X134779960Y-94211857D01*
X134777981Y-94293790D01*
X134775731Y-94351455D01*
X134772357Y-94389608D01*
X134767006Y-94413004D01*
X134758824Y-94426398D01*
X134746959Y-94434545D01*
X134739362Y-94438144D01*
X134707102Y-94450452D01*
X134688111Y-94454514D01*
X134681836Y-94440948D01*
X134678006Y-94399934D01*
X134676600Y-94330999D01*
X134677598Y-94233669D01*
X134677908Y-94218657D01*
X134680101Y-94129859D01*
X134682693Y-94065019D01*
X134686382Y-94019067D01*
X134691864Y-93986935D01*
X134699835Y-93963553D01*
X134710993Y-93943852D01*
X134716830Y-93935410D01*
X134750296Y-93898057D01*
X134787727Y-93869003D01*
X134792309Y-93866467D01*
X134859426Y-93846443D01*
X134929926Y-93849755D01*
X134439744Y-93850968D02*
X134496616Y-93872087D01*
X134496616Y-93872087D02*
X134497267Y-93872493D01*
X134497267Y-93872493D02*
X134532440Y-93898380D01*
X134532440Y-93898380D02*
X134558407Y-93928633D01*
X134558407Y-93928633D02*
X134576670Y-93968058D01*
X134576670Y-93968058D02*
X134588732Y-94021462D01*
X134588732Y-94021462D02*
X134596096Y-94093651D01*
X134596096Y-94093651D02*
X134600264Y-94189432D01*
X134600264Y-94189432D02*
X134600629Y-94203078D01*
X134600629Y-94203078D02*
X134605876Y-94408842D01*
X134605876Y-94408842D02*
X134561716Y-94431678D01*
X134561716Y-94431678D02*
X134529763Y-94447110D01*
X134529763Y-94447110D02*
X134510470Y-94454423D01*
X134510470Y-94454423D02*
X134509578Y-94454514D01*
X134509578Y-94454514D02*
X134506239Y-94441022D01*
X134506239Y-94441022D02*
X134503587Y-94404626D01*
X134503587Y-94404626D02*
X134501956Y-94351452D01*
X134501956Y-94351452D02*
X134501600Y-94308393D01*
X134501600Y-94308393D02*
X134501592Y-94238641D01*
X134501592Y-94238641D02*
X134498403Y-94194837D01*
X134498403Y-94194837D02*
X134487288Y-94173944D01*
X134487288Y-94173944D02*
X134463501Y-94172925D01*
X134463501Y-94172925D02*
X134422296Y-94188741D01*
X134422296Y-94188741D02*
X134360086Y-94217815D01*
X134360086Y-94217815D02*
X134314341Y-94241963D01*
X134314341Y-94241963D02*
X134290813Y-94262913D01*
X134290813Y-94262913D02*
X134283896Y-94285747D01*
X134283896Y-94285747D02*
X134283886Y-94286877D01*
X134283886Y-94286877D02*
X134295299Y-94326212D01*
X134295299Y-94326212D02*
X134329092Y-94347462D01*
X134329092Y-94347462D02*
X134380809Y-94350539D01*
X134380809Y-94350539D02*
X134418061Y-94350006D01*
X134418061Y-94350006D02*
X134437703Y-94360735D01*
X134437703Y-94360735D02*
X134449952Y-94386505D01*
X134449952Y-94386505D02*
X134457002Y-94419337D01*
X134457002Y-94419337D02*
X134446842Y-94437966D01*
X134446842Y-94437966D02*
X134443017Y-94440632D01*
X134443017Y-94440632D02*
X134407001Y-94451340D01*
X134407001Y-94451340D02*
X134356566Y-94452856D01*
X134356566Y-94452856D02*
X134304626Y-94445759D01*
X134304626Y-94445759D02*
X134267822Y-94432788D01*
X134267822Y-94432788D02*
X134216938Y-94389585D01*
X134216938Y-94389585D02*
X134188014Y-94329446D01*
X134188014Y-94329446D02*
X134182286Y-94282462D01*
X134182286Y-94282462D02*
X134186657Y-94240082D01*
X134186657Y-94240082D02*
X134202475Y-94205488D01*
X134202475Y-94205488D02*
X134233797Y-94174763D01*
X134233797Y-94174763D02*
X134284678Y-94143990D01*
X134284678Y-94143990D02*
X134359176Y-94109252D01*
X134359176Y-94109252D02*
X134363714Y-94107288D01*
X134363714Y-94107288D02*
X134430821Y-94076287D01*
X134430821Y-94076287D02*
X134472232Y-94050862D01*
X134472232Y-94050862D02*
X134489981Y-94028014D01*
X134489981Y-94028014D02*
X134486107Y-94004745D01*
X134486107Y-94004745D02*
X134462643Y-93978056D01*
X134462643Y-93978056D02*
X134455627Y-93971914D01*
X134455627Y-93971914D02*
X134408630Y-93948100D01*
X134408630Y-93948100D02*
X134359933Y-93949103D01*
X134359933Y-93949103D02*
X134317522Y-93972451D01*
X134317522Y-93972451D02*
X134289384Y-94015675D01*
X134289384Y-94015675D02*
X134286769Y-94024160D01*
X134286769Y-94024160D02*
X134261308Y-94065308D01*
X134261308Y-94065308D02*
X134229001Y-94085128D01*
X134229001Y-94085128D02*
X134182286Y-94104770D01*
X134182286Y-94104770D02*
X134182286Y-94053950D01*
X134182286Y-94053950D02*
X134196496Y-93980082D01*
X134196496Y-93980082D02*
X134238675Y-93912327D01*
X134238675Y-93912327D02*
X134260624Y-93889661D01*
X134260624Y-93889661D02*
X134310517Y-93860569D01*
X134310517Y-93860569D02*
X134373967Y-93847400D01*
X134373967Y-93847400D02*
X134439744Y-93850968D01*
X134439744Y-93850968D02*
X134439744Y-93850968D01*
G36*
X134439744Y-93850968D02*
G01*
X134496616Y-93872087D01*
X134497267Y-93872493D01*
X134532440Y-93898380D01*
X134558407Y-93928633D01*
X134576670Y-93968058D01*
X134588732Y-94021462D01*
X134596096Y-94093651D01*
X134600264Y-94189432D01*
X134600629Y-94203078D01*
X134605876Y-94408842D01*
X134561716Y-94431678D01*
X134529763Y-94447110D01*
X134510470Y-94454423D01*
X134509578Y-94454514D01*
X134506239Y-94441022D01*
X134503587Y-94404626D01*
X134501956Y-94351452D01*
X134501600Y-94308393D01*
X134501592Y-94238641D01*
X134498403Y-94194837D01*
X134487288Y-94173944D01*
X134463501Y-94172925D01*
X134422296Y-94188741D01*
X134360086Y-94217815D01*
X134314341Y-94241963D01*
X134290813Y-94262913D01*
X134283896Y-94285747D01*
X134283886Y-94286877D01*
X134295299Y-94326212D01*
X134329092Y-94347462D01*
X134380809Y-94350539D01*
X134418061Y-94350006D01*
X134437703Y-94360735D01*
X134449952Y-94386505D01*
X134457002Y-94419337D01*
X134446842Y-94437966D01*
X134443017Y-94440632D01*
X134407001Y-94451340D01*
X134356566Y-94452856D01*
X134304626Y-94445759D01*
X134267822Y-94432788D01*
X134216938Y-94389585D01*
X134188014Y-94329446D01*
X134182286Y-94282462D01*
X134186657Y-94240082D01*
X134202475Y-94205488D01*
X134233797Y-94174763D01*
X134284678Y-94143990D01*
X134359176Y-94109252D01*
X134363714Y-94107288D01*
X134430821Y-94076287D01*
X134472232Y-94050862D01*
X134489981Y-94028014D01*
X134486107Y-94004745D01*
X134462643Y-93978056D01*
X134455627Y-93971914D01*
X134408630Y-93948100D01*
X134359933Y-93949103D01*
X134317522Y-93972451D01*
X134289384Y-94015675D01*
X134286769Y-94024160D01*
X134261308Y-94065308D01*
X134229001Y-94085128D01*
X134182286Y-94104770D01*
X134182286Y-94053950D01*
X134196496Y-93980082D01*
X134238675Y-93912327D01*
X134260624Y-93889661D01*
X134310517Y-93860569D01*
X134373967Y-93847400D01*
X134439744Y-93850968D01*
G37*
X134439744Y-93850968D02*
X134496616Y-93872087D01*
X134497267Y-93872493D01*
X134532440Y-93898380D01*
X134558407Y-93928633D01*
X134576670Y-93968058D01*
X134588732Y-94021462D01*
X134596096Y-94093651D01*
X134600264Y-94189432D01*
X134600629Y-94203078D01*
X134605876Y-94408842D01*
X134561716Y-94431678D01*
X134529763Y-94447110D01*
X134510470Y-94454423D01*
X134509578Y-94454514D01*
X134506239Y-94441022D01*
X134503587Y-94404626D01*
X134501956Y-94351452D01*
X134501600Y-94308393D01*
X134501592Y-94238641D01*
X134498403Y-94194837D01*
X134487288Y-94173944D01*
X134463501Y-94172925D01*
X134422296Y-94188741D01*
X134360086Y-94217815D01*
X134314341Y-94241963D01*
X134290813Y-94262913D01*
X134283896Y-94285747D01*
X134283886Y-94286877D01*
X134295299Y-94326212D01*
X134329092Y-94347462D01*
X134380809Y-94350539D01*
X134418061Y-94350006D01*
X134437703Y-94360735D01*
X134449952Y-94386505D01*
X134457002Y-94419337D01*
X134446842Y-94437966D01*
X134443017Y-94440632D01*
X134407001Y-94451340D01*
X134356566Y-94452856D01*
X134304626Y-94445759D01*
X134267822Y-94432788D01*
X134216938Y-94389585D01*
X134188014Y-94329446D01*
X134182286Y-94282462D01*
X134186657Y-94240082D01*
X134202475Y-94205488D01*
X134233797Y-94174763D01*
X134284678Y-94143990D01*
X134359176Y-94109252D01*
X134363714Y-94107288D01*
X134430821Y-94076287D01*
X134472232Y-94050862D01*
X134489981Y-94028014D01*
X134486107Y-94004745D01*
X134462643Y-93978056D01*
X134455627Y-93971914D01*
X134408630Y-93948100D01*
X134359933Y-93949103D01*
X134317522Y-93972451D01*
X134289384Y-94015675D01*
X134286769Y-94024160D01*
X134261308Y-94065308D01*
X134229001Y-94085128D01*
X134182286Y-94104770D01*
X134182286Y-94053950D01*
X134196496Y-93980082D01*
X134238675Y-93912327D01*
X134260624Y-93889661D01*
X134310517Y-93860569D01*
X134373967Y-93847400D01*
X134439744Y-93850968D01*
X131441115Y-93821962D02*
X131509145Y-93857733D01*
X131509145Y-93857733D02*
X131559351Y-93915301D01*
X131559351Y-93915301D02*
X131577185Y-93952312D01*
X131577185Y-93952312D02*
X131591063Y-94007882D01*
X131591063Y-94007882D02*
X131598167Y-94078096D01*
X131598167Y-94078096D02*
X131598840Y-94154727D01*
X131598840Y-94154727D02*
X131593427Y-94229552D01*
X131593427Y-94229552D02*
X131582270Y-94294342D01*
X131582270Y-94294342D02*
X131565714Y-94340873D01*
X131565714Y-94340873D02*
X131560626Y-94348887D01*
X131560626Y-94348887D02*
X131500355Y-94408707D01*
X131500355Y-94408707D02*
X131428769Y-94444535D01*
X131428769Y-94444535D02*
X131351092Y-94455020D01*
X131351092Y-94455020D02*
X131272548Y-94438810D01*
X131272548Y-94438810D02*
X131250689Y-94429092D01*
X131250689Y-94429092D02*
X131208122Y-94399143D01*
X131208122Y-94399143D02*
X131170763Y-94359433D01*
X131170763Y-94359433D02*
X131167232Y-94354397D01*
X131167232Y-94354397D02*
X131152881Y-94330124D01*
X131152881Y-94330124D02*
X131143394Y-94304178D01*
X131143394Y-94304178D02*
X131137790Y-94270022D01*
X131137790Y-94270022D02*
X131135086Y-94221119D01*
X131135086Y-94221119D02*
X131134299Y-94150935D01*
X131134299Y-94150935D02*
X131134286Y-94135200D01*
X131134286Y-94135200D02*
X131134322Y-94130192D01*
X131134322Y-94130192D02*
X131279429Y-94130192D01*
X131279429Y-94130192D02*
X131280273Y-94196430D01*
X131280273Y-94196430D02*
X131283596Y-94240386D01*
X131283596Y-94240386D02*
X131290583Y-94268779D01*
X131290583Y-94268779D02*
X131302416Y-94288325D01*
X131302416Y-94288325D02*
X131308457Y-94294857D01*
X131308457Y-94294857D02*
X131343186Y-94319680D01*
X131343186Y-94319680D02*
X131376903Y-94318548D01*
X131376903Y-94318548D02*
X131410995Y-94297016D01*
X131410995Y-94297016D02*
X131431329Y-94274029D01*
X131431329Y-94274029D02*
X131443371Y-94240478D01*
X131443371Y-94240478D02*
X131450134Y-94187569D01*
X131450134Y-94187569D02*
X131450598Y-94181399D01*
X131450598Y-94181399D02*
X131451752Y-94085513D01*
X131451752Y-94085513D02*
X131439688Y-94014299D01*
X131439688Y-94014299D02*
X131414570Y-93968194D01*
X131414570Y-93968194D02*
X131376560Y-93947635D01*
X131376560Y-93947635D02*
X131362992Y-93946514D01*
X131362992Y-93946514D02*
X131327364Y-93952152D01*
X131327364Y-93952152D02*
X131302994Y-93971686D01*
X131302994Y-93971686D02*
X131288093Y-94009042D01*
X131288093Y-94009042D02*
X131280875Y-94068150D01*
X131280875Y-94068150D02*
X131279429Y-94130192D01*
X131279429Y-94130192D02*
X131134322Y-94130192D01*
X131134322Y-94130192D02*
X131134826Y-94060413D01*
X131134826Y-94060413D02*
X131137096Y-94008159D01*
X131137096Y-94008159D02*
X131142068Y-93971949D01*
X131142068Y-93971949D02*
X131150713Y-93945299D01*
X131150713Y-93945299D02*
X131164005Y-93921722D01*
X131164005Y-93921722D02*
X131166943Y-93917338D01*
X131166943Y-93917338D02*
X131216313Y-93858249D01*
X131216313Y-93858249D02*
X131270109Y-93823947D01*
X131270109Y-93823947D02*
X131335602Y-93810331D01*
X131335602Y-93810331D02*
X131357842Y-93809665D01*
X131357842Y-93809665D02*
X131441115Y-93821962D01*
X131441115Y-93821962D02*
X131441115Y-93821962D01*
G36*
X131137096Y-94008159D02*
G01*
X131142068Y-93971949D01*
X131150713Y-93945299D01*
X131164005Y-93921722D01*
X131166943Y-93917338D01*
X131216313Y-93858249D01*
X131270109Y-93823947D01*
X131335602Y-93810331D01*
X131357842Y-93809665D01*
X131441115Y-93821962D01*
X131509145Y-93857733D01*
X131559351Y-93915301D01*
X131577185Y-93952312D01*
X131591063Y-94007882D01*
X131598167Y-94078096D01*
X131598840Y-94154727D01*
X131593427Y-94229552D01*
X131582270Y-94294342D01*
X131565714Y-94340873D01*
X131560626Y-94348887D01*
X131500355Y-94408707D01*
X131428769Y-94444535D01*
X131351092Y-94455020D01*
X131272548Y-94438810D01*
X131250689Y-94429092D01*
X131208122Y-94399143D01*
X131170763Y-94359433D01*
X131167232Y-94354397D01*
X131152881Y-94330124D01*
X131143394Y-94304178D01*
X131137790Y-94270022D01*
X131135086Y-94221119D01*
X131134299Y-94150935D01*
X131134286Y-94135200D01*
X131134322Y-94130192D01*
X131279429Y-94130192D01*
X131280273Y-94196430D01*
X131283596Y-94240386D01*
X131290583Y-94268779D01*
X131302416Y-94288325D01*
X131308457Y-94294857D01*
X131343186Y-94319680D01*
X131376903Y-94318548D01*
X131410995Y-94297016D01*
X131431329Y-94274029D01*
X131443371Y-94240478D01*
X131450134Y-94187569D01*
X131450598Y-94181399D01*
X131451752Y-94085513D01*
X131439688Y-94014299D01*
X131414570Y-93968194D01*
X131376560Y-93947635D01*
X131362992Y-93946514D01*
X131327364Y-93952152D01*
X131302994Y-93971686D01*
X131288093Y-94009042D01*
X131280875Y-94068150D01*
X131279429Y-94130192D01*
X131134322Y-94130192D01*
X131134826Y-94060413D01*
X131137096Y-94008159D01*
G37*
X131137096Y-94008159D02*
X131142068Y-93971949D01*
X131150713Y-93945299D01*
X131164005Y-93921722D01*
X131166943Y-93917338D01*
X131216313Y-93858249D01*
X131270109Y-93823947D01*
X131335602Y-93810331D01*
X131357842Y-93809665D01*
X131441115Y-93821962D01*
X131509145Y-93857733D01*
X131559351Y-93915301D01*
X131577185Y-93952312D01*
X131591063Y-94007882D01*
X131598167Y-94078096D01*
X131598840Y-94154727D01*
X131593427Y-94229552D01*
X131582270Y-94294342D01*
X131565714Y-94340873D01*
X131560626Y-94348887D01*
X131500355Y-94408707D01*
X131428769Y-94444535D01*
X131351092Y-94455020D01*
X131272548Y-94438810D01*
X131250689Y-94429092D01*
X131208122Y-94399143D01*
X131170763Y-94359433D01*
X131167232Y-94354397D01*
X131152881Y-94330124D01*
X131143394Y-94304178D01*
X131137790Y-94270022D01*
X131135086Y-94221119D01*
X131134299Y-94150935D01*
X131134286Y-94135200D01*
X131134322Y-94130192D01*
X131279429Y-94130192D01*
X131280273Y-94196430D01*
X131283596Y-94240386D01*
X131290583Y-94268779D01*
X131302416Y-94288325D01*
X131308457Y-94294857D01*
X131343186Y-94319680D01*
X131376903Y-94318548D01*
X131410995Y-94297016D01*
X131431329Y-94274029D01*
X131443371Y-94240478D01*
X131450134Y-94187569D01*
X131450598Y-94181399D01*
X131451752Y-94085513D01*
X131439688Y-94014299D01*
X131414570Y-93968194D01*
X131376560Y-93947635D01*
X131362992Y-93946514D01*
X131327364Y-93952152D01*
X131302994Y-93971686D01*
X131288093Y-94009042D01*
X131280875Y-94068150D01*
X131279429Y-94130192D01*
X131134322Y-94130192D01*
X131134826Y-94060413D01*
X131137096Y-94008159D01*
X131999744Y-93819918D02*
X132055201Y-93847568D01*
X132055201Y-93847568D02*
X132104148Y-93898480D01*
X132104148Y-93898480D02*
X132117629Y-93917338D01*
X132117629Y-93917338D02*
X132132314Y-93942015D01*
X132132314Y-93942015D02*
X132141842Y-93968816D01*
X132141842Y-93968816D02*
X132147293Y-94004587D01*
X132147293Y-94004587D02*
X132149747Y-94056169D01*
X132149747Y-94056169D02*
X132150286Y-94124267D01*
X132150286Y-94124267D02*
X132147852Y-94217588D01*
X132147852Y-94217588D02*
X132139394Y-94287657D01*
X132139394Y-94287657D02*
X132123174Y-94339931D01*
X132123174Y-94339931D02*
X132097454Y-94379869D01*
X132097454Y-94379869D02*
X132060497Y-94412929D01*
X132060497Y-94412929D02*
X132057782Y-94414886D01*
X132057782Y-94414886D02*
X132021360Y-94434908D01*
X132021360Y-94434908D02*
X131977502Y-94444815D01*
X131977502Y-94444815D02*
X131921724Y-94447257D01*
X131921724Y-94447257D02*
X131831048Y-94447257D01*
X131831048Y-94447257D02*
X131831010Y-94535283D01*
X131831010Y-94535283D02*
X131830166Y-94584308D01*
X131830166Y-94584308D02*
X131825024Y-94613065D01*
X131825024Y-94613065D02*
X131811587Y-94630311D01*
X131811587Y-94630311D02*
X131785858Y-94644808D01*
X131785858Y-94644808D02*
X131779679Y-94647769D01*
X131779679Y-94647769D02*
X131750764Y-94661648D01*
X131750764Y-94661648D02*
X131728376Y-94670414D01*
X131728376Y-94670414D02*
X131711729Y-94671171D01*
X131711729Y-94671171D02*
X131700036Y-94661023D01*
X131700036Y-94661023D02*
X131692510Y-94637073D01*
X131692510Y-94637073D02*
X131688366Y-94596426D01*
X131688366Y-94596426D02*
X131686815Y-94536186D01*
X131686815Y-94536186D02*
X131687071Y-94453455D01*
X131687071Y-94453455D02*
X131688349Y-94345339D01*
X131688349Y-94345339D02*
X131688748Y-94313000D01*
X131688748Y-94313000D02*
X131690185Y-94201524D01*
X131690185Y-94201524D02*
X131691472Y-94128603D01*
X131691472Y-94128603D02*
X131830971Y-94128603D01*
X131830971Y-94128603D02*
X131831755Y-94190499D01*
X131831755Y-94190499D02*
X131835240Y-94230997D01*
X131835240Y-94230997D02*
X131843124Y-94257708D01*
X131843124Y-94257708D02*
X131857105Y-94278244D01*
X131857105Y-94278244D02*
X131866597Y-94288260D01*
X131866597Y-94288260D02*
X131905404Y-94317567D01*
X131905404Y-94317567D02*
X131939763Y-94319952D01*
X131939763Y-94319952D02*
X131975216Y-94295750D01*
X131975216Y-94295750D02*
X131976114Y-94294857D01*
X131976114Y-94294857D02*
X131990539Y-94276153D01*
X131990539Y-94276153D02*
X131999313Y-94250732D01*
X131999313Y-94250732D02*
X132003739Y-94211584D01*
X132003739Y-94211584D02*
X132005118Y-94151697D01*
X132005118Y-94151697D02*
X132005143Y-94138430D01*
X132005143Y-94138430D02*
X132001812Y-94055901D01*
X132001812Y-94055901D02*
X131990969Y-93998691D01*
X131990969Y-93998691D02*
X131971340Y-93963766D01*
X131971340Y-93963766D02*
X131941650Y-93948094D01*
X131941650Y-93948094D02*
X131924491Y-93946514D01*
X131924491Y-93946514D02*
X131883766Y-93953926D01*
X131883766Y-93953926D02*
X131855832Y-93978330D01*
X131855832Y-93978330D02*
X131839017Y-94022980D01*
X131839017Y-94022980D02*
X131831650Y-94091130D01*
X131831650Y-94091130D02*
X131830971Y-94128603D01*
X131830971Y-94128603D02*
X131691472Y-94128603D01*
X131691472Y-94128603D02*
X131691708Y-94115245D01*
X131691708Y-94115245D02*
X131693677Y-94050333D01*
X131693677Y-94050333D02*
X131696450Y-94002958D01*
X131696450Y-94002958D02*
X131700388Y-93969290D01*
X131700388Y-93969290D02*
X131705849Y-93945498D01*
X131705849Y-93945498D02*
X131713192Y-93927753D01*
X131713192Y-93927753D02*
X131722777Y-93912224D01*
X131722777Y-93912224D02*
X131726887Y-93906381D01*
X131726887Y-93906381D02*
X131781405Y-93851185D01*
X131781405Y-93851185D02*
X131850336Y-93819890D01*
X131850336Y-93819890D02*
X131930072Y-93811165D01*
X131930072Y-93811165D02*
X131999744Y-93819918D01*
X131999744Y-93819918D02*
X131999744Y-93819918D01*
G36*
X131693677Y-94050333D02*
G01*
X131696450Y-94002958D01*
X131700388Y-93969290D01*
X131705849Y-93945498D01*
X131713192Y-93927753D01*
X131722777Y-93912224D01*
X131726887Y-93906381D01*
X131781405Y-93851185D01*
X131850336Y-93819890D01*
X131930072Y-93811165D01*
X131999744Y-93819918D01*
X132055201Y-93847568D01*
X132104148Y-93898480D01*
X132117629Y-93917338D01*
X132132314Y-93942015D01*
X132141842Y-93968816D01*
X132147293Y-94004587D01*
X132149747Y-94056169D01*
X132150286Y-94124267D01*
X132147852Y-94217588D01*
X132139394Y-94287657D01*
X132123174Y-94339931D01*
X132097454Y-94379869D01*
X132060497Y-94412929D01*
X132057782Y-94414886D01*
X132021360Y-94434908D01*
X131977502Y-94444815D01*
X131921724Y-94447257D01*
X131831048Y-94447257D01*
X131831010Y-94535283D01*
X131830166Y-94584308D01*
X131825024Y-94613065D01*
X131811587Y-94630311D01*
X131785858Y-94644808D01*
X131779679Y-94647769D01*
X131750764Y-94661648D01*
X131728376Y-94670414D01*
X131711729Y-94671171D01*
X131700036Y-94661023D01*
X131692510Y-94637073D01*
X131688366Y-94596426D01*
X131686815Y-94536186D01*
X131687071Y-94453455D01*
X131688349Y-94345339D01*
X131688748Y-94313000D01*
X131690185Y-94201524D01*
X131691472Y-94128603D01*
X131830971Y-94128603D01*
X131831755Y-94190499D01*
X131835240Y-94230997D01*
X131843124Y-94257708D01*
X131857105Y-94278244D01*
X131866597Y-94288260D01*
X131905404Y-94317567D01*
X131939763Y-94319952D01*
X131975216Y-94295750D01*
X131976114Y-94294857D01*
X131990539Y-94276153D01*
X131999313Y-94250732D01*
X132003739Y-94211584D01*
X132005118Y-94151697D01*
X132005143Y-94138430D01*
X132001812Y-94055901D01*
X131990969Y-93998691D01*
X131971340Y-93963766D01*
X131941650Y-93948094D01*
X131924491Y-93946514D01*
X131883766Y-93953926D01*
X131855832Y-93978330D01*
X131839017Y-94022980D01*
X131831650Y-94091130D01*
X131830971Y-94128603D01*
X131691472Y-94128603D01*
X131691708Y-94115245D01*
X131693677Y-94050333D01*
G37*
X131693677Y-94050333D02*
X131696450Y-94002958D01*
X131700388Y-93969290D01*
X131705849Y-93945498D01*
X131713192Y-93927753D01*
X131722777Y-93912224D01*
X131726887Y-93906381D01*
X131781405Y-93851185D01*
X131850336Y-93819890D01*
X131930072Y-93811165D01*
X131999744Y-93819918D01*
X132055201Y-93847568D01*
X132104148Y-93898480D01*
X132117629Y-93917338D01*
X132132314Y-93942015D01*
X132141842Y-93968816D01*
X132147293Y-94004587D01*
X132149747Y-94056169D01*
X132150286Y-94124267D01*
X132147852Y-94217588D01*
X132139394Y-94287657D01*
X132123174Y-94339931D01*
X132097454Y-94379869D01*
X132060497Y-94412929D01*
X132057782Y-94414886D01*
X132021360Y-94434908D01*
X131977502Y-94444815D01*
X131921724Y-94447257D01*
X131831048Y-94447257D01*
X131831010Y-94535283D01*
X131830166Y-94584308D01*
X131825024Y-94613065D01*
X131811587Y-94630311D01*
X131785858Y-94644808D01*
X131779679Y-94647769D01*
X131750764Y-94661648D01*
X131728376Y-94670414D01*
X131711729Y-94671171D01*
X131700036Y-94661023D01*
X131692510Y-94637073D01*
X131688366Y-94596426D01*
X131686815Y-94536186D01*
X131687071Y-94453455D01*
X131688349Y-94345339D01*
X131688748Y-94313000D01*
X131690185Y-94201524D01*
X131691472Y-94128603D01*
X131830971Y-94128603D01*
X131831755Y-94190499D01*
X131835240Y-94230997D01*
X131843124Y-94257708D01*
X131857105Y-94278244D01*
X131866597Y-94288260D01*
X131905404Y-94317567D01*
X131939763Y-94319952D01*
X131975216Y-94295750D01*
X131976114Y-94294857D01*
X131990539Y-94276153D01*
X131999313Y-94250732D01*
X132003739Y-94211584D01*
X132005118Y-94151697D01*
X132005143Y-94138430D01*
X132001812Y-94055901D01*
X131990969Y-93998691D01*
X131971340Y-93963766D01*
X131941650Y-93948094D01*
X131924491Y-93946514D01*
X131883766Y-93953926D01*
X131855832Y-93978330D01*
X131839017Y-94022980D01*
X131831650Y-94091130D01*
X131830971Y-94128603D01*
X131691472Y-94128603D01*
X131691708Y-94115245D01*
X131693677Y-94050333D01*
X135590117Y-93965358D02*
X135589933Y-94073837D01*
X135589933Y-94073837D02*
X135589219Y-94157287D01*
X135589219Y-94157287D02*
X135587675Y-94219704D01*
X135587675Y-94219704D02*
X135585001Y-94265085D01*
X135585001Y-94265085D02*
X135580894Y-94297429D01*
X135580894Y-94297429D02*
X135575055Y-94320733D01*
X135575055Y-94320733D02*
X135567182Y-94338995D01*
X135567182Y-94338995D02*
X135561221Y-94349418D01*
X135561221Y-94349418D02*
X135511855Y-94405945D01*
X135511855Y-94405945D02*
X135449264Y-94441377D01*
X135449264Y-94441377D02*
X135380013Y-94454090D01*
X135380013Y-94454090D02*
X135310668Y-94442463D01*
X135310668Y-94442463D02*
X135269375Y-94421568D01*
X135269375Y-94421568D02*
X135226025Y-94385422D01*
X135226025Y-94385422D02*
X135196481Y-94341276D01*
X135196481Y-94341276D02*
X135178655Y-94283462D01*
X135178655Y-94283462D02*
X135170463Y-94206313D01*
X135170463Y-94206313D02*
X135169302Y-94149714D01*
X135169302Y-94149714D02*
X135169458Y-94145647D01*
X135169458Y-94145647D02*
X135270857Y-94145647D01*
X135270857Y-94145647D02*
X135271476Y-94210550D01*
X135271476Y-94210550D02*
X135274314Y-94253514D01*
X135274314Y-94253514D02*
X135280840Y-94281622D01*
X135280840Y-94281622D02*
X135292523Y-94301953D01*
X135292523Y-94301953D02*
X135306483Y-94317288D01*
X135306483Y-94317288D02*
X135353365Y-94346890D01*
X135353365Y-94346890D02*
X135403701Y-94349419D01*
X135403701Y-94349419D02*
X135451276Y-94324705D01*
X135451276Y-94324705D02*
X135454979Y-94321356D01*
X135454979Y-94321356D02*
X135470783Y-94303935D01*
X135470783Y-94303935D02*
X135480693Y-94283209D01*
X135480693Y-94283209D02*
X135486058Y-94252362D01*
X135486058Y-94252362D02*
X135488228Y-94204577D01*
X135488228Y-94204577D02*
X135488571Y-94151748D01*
X135488571Y-94151748D02*
X135487827Y-94085381D01*
X135487827Y-94085381D02*
X135484748Y-94041106D01*
X135484748Y-94041106D02*
X135478061Y-94012009D01*
X135478061Y-94012009D02*
X135466496Y-93991173D01*
X135466496Y-93991173D02*
X135457013Y-93980107D01*
X135457013Y-93980107D02*
X135412960Y-93952198D01*
X135412960Y-93952198D02*
X135362224Y-93948843D01*
X135362224Y-93948843D02*
X135313796Y-93970159D01*
X135313796Y-93970159D02*
X135304450Y-93978073D01*
X135304450Y-93978073D02*
X135288540Y-93995647D01*
X135288540Y-93995647D02*
X135278610Y-94016587D01*
X135278610Y-94016587D02*
X135273278Y-94047782D01*
X135273278Y-94047782D02*
X135271163Y-94096122D01*
X135271163Y-94096122D02*
X135270857Y-94145647D01*
X135270857Y-94145647D02*
X135169458Y-94145647D01*
X135169458Y-94145647D02*
X135172810Y-94058568D01*
X135172810Y-94058568D02*
X135184726Y-93990086D01*
X135184726Y-93990086D02*
X135207135Y-93938600D01*
X135207135Y-93938600D02*
X135242124Y-93898443D01*
X135242124Y-93898443D02*
X135269375Y-93877861D01*
X135269375Y-93877861D02*
X135318907Y-93855625D01*
X135318907Y-93855625D02*
X135376316Y-93845304D01*
X135376316Y-93845304D02*
X135429682Y-93848067D01*
X135429682Y-93848067D02*
X135459543Y-93859212D01*
X135459543Y-93859212D02*
X135471261Y-93862383D01*
X135471261Y-93862383D02*
X135479037Y-93850557D01*
X135479037Y-93850557D02*
X135484465Y-93818866D01*
X135484465Y-93818866D02*
X135488571Y-93770593D01*
X135488571Y-93770593D02*
X135493067Y-93716829D01*
X135493067Y-93716829D02*
X135499313Y-93684482D01*
X135499313Y-93684482D02*
X135510676Y-93665985D01*
X135510676Y-93665985D02*
X135530528Y-93653770D01*
X135530528Y-93653770D02*
X135543000Y-93648362D01*
X135543000Y-93648362D02*
X135590171Y-93628601D01*
X135590171Y-93628601D02*
X135590117Y-93965358D01*
X135590117Y-93965358D02*
X135590117Y-93965358D01*
G36*
X135184726Y-93990086D02*
G01*
X135207135Y-93938600D01*
X135242124Y-93898443D01*
X135269375Y-93877861D01*
X135318907Y-93855625D01*
X135376316Y-93845304D01*
X135429682Y-93848067D01*
X135459543Y-93859212D01*
X135471261Y-93862383D01*
X135479037Y-93850557D01*
X135484465Y-93818866D01*
X135488571Y-93770593D01*
X135493067Y-93716829D01*
X135499313Y-93684482D01*
X135510676Y-93665985D01*
X135530528Y-93653770D01*
X135543000Y-93648362D01*
X135590171Y-93628601D01*
X135590117Y-93965358D01*
X135589933Y-94073837D01*
X135589219Y-94157287D01*
X135587675Y-94219704D01*
X135585001Y-94265085D01*
X135580894Y-94297429D01*
X135575055Y-94320733D01*
X135567182Y-94338995D01*
X135561221Y-94349418D01*
X135511855Y-94405945D01*
X135449264Y-94441377D01*
X135380013Y-94454090D01*
X135310668Y-94442463D01*
X135269375Y-94421568D01*
X135226025Y-94385422D01*
X135196481Y-94341276D01*
X135178655Y-94283462D01*
X135170463Y-94206313D01*
X135169302Y-94149714D01*
X135169458Y-94145647D01*
X135270857Y-94145647D01*
X135271476Y-94210550D01*
X135274314Y-94253514D01*
X135280840Y-94281622D01*
X135292523Y-94301953D01*
X135306483Y-94317288D01*
X135353365Y-94346890D01*
X135403701Y-94349419D01*
X135451276Y-94324705D01*
X135454979Y-94321356D01*
X135470783Y-94303935D01*
X135480693Y-94283209D01*
X135486058Y-94252362D01*
X135488228Y-94204577D01*
X135488571Y-94151748D01*
X135487827Y-94085381D01*
X135484748Y-94041106D01*
X135478061Y-94012009D01*
X135466496Y-93991173D01*
X135457013Y-93980107D01*
X135412960Y-93952198D01*
X135362224Y-93948843D01*
X135313796Y-93970159D01*
X135304450Y-93978073D01*
X135288540Y-93995647D01*
X135278610Y-94016587D01*
X135273278Y-94047782D01*
X135271163Y-94096122D01*
X135270857Y-94145647D01*
X135169458Y-94145647D01*
X135172810Y-94058568D01*
X135184726Y-93990086D01*
G37*
X135184726Y-93990086D02*
X135207135Y-93938600D01*
X135242124Y-93898443D01*
X135269375Y-93877861D01*
X135318907Y-93855625D01*
X135376316Y-93845304D01*
X135429682Y-93848067D01*
X135459543Y-93859212D01*
X135471261Y-93862383D01*
X135479037Y-93850557D01*
X135484465Y-93818866D01*
X135488571Y-93770593D01*
X135493067Y-93716829D01*
X135499313Y-93684482D01*
X135510676Y-93665985D01*
X135530528Y-93653770D01*
X135543000Y-93648362D01*
X135590171Y-93628601D01*
X135590117Y-93965358D01*
X135589933Y-94073837D01*
X135589219Y-94157287D01*
X135587675Y-94219704D01*
X135585001Y-94265085D01*
X135580894Y-94297429D01*
X135575055Y-94320733D01*
X135567182Y-94338995D01*
X135561221Y-94349418D01*
X135511855Y-94405945D01*
X135449264Y-94441377D01*
X135380013Y-94454090D01*
X135310668Y-94442463D01*
X135269375Y-94421568D01*
X135226025Y-94385422D01*
X135196481Y-94341276D01*
X135178655Y-94283462D01*
X135170463Y-94206313D01*
X135169302Y-94149714D01*
X135169458Y-94145647D01*
X135270857Y-94145647D01*
X135271476Y-94210550D01*
X135274314Y-94253514D01*
X135280840Y-94281622D01*
X135292523Y-94301953D01*
X135306483Y-94317288D01*
X135353365Y-94346890D01*
X135403701Y-94349419D01*
X135451276Y-94324705D01*
X135454979Y-94321356D01*
X135470783Y-94303935D01*
X135480693Y-94283209D01*
X135486058Y-94252362D01*
X135488228Y-94204577D01*
X135488571Y-94151748D01*
X135487827Y-94085381D01*
X135484748Y-94041106D01*
X135478061Y-94012009D01*
X135466496Y-93991173D01*
X135457013Y-93980107D01*
X135412960Y-93952198D01*
X135362224Y-93948843D01*
X135313796Y-93970159D01*
X135304450Y-93978073D01*
X135288540Y-93995647D01*
X135278610Y-94016587D01*
X135273278Y-94047782D01*
X135271163Y-94096122D01*
X135270857Y-94145647D01*
X135169458Y-94145647D01*
X135172810Y-94058568D01*
X135184726Y-93990086D01*
X137553595Y-93866966D02*
X137611021Y-93904497D01*
X137611021Y-93904497D02*
X137638719Y-93938096D01*
X137638719Y-93938096D02*
X137660662Y-93999064D01*
X137660662Y-93999064D02*
X137662405Y-94047308D01*
X137662405Y-94047308D02*
X137658457Y-94111816D01*
X137658457Y-94111816D02*
X137509686Y-94176934D01*
X137509686Y-94176934D02*
X137437349Y-94210202D01*
X137437349Y-94210202D02*
X137390084Y-94236964D01*
X137390084Y-94236964D02*
X137365507Y-94260144D01*
X137365507Y-94260144D02*
X137361237Y-94282667D01*
X137361237Y-94282667D02*
X137374889Y-94307455D01*
X137374889Y-94307455D02*
X137389943Y-94323886D01*
X137389943Y-94323886D02*
X137433746Y-94350235D01*
X137433746Y-94350235D02*
X137481389Y-94352081D01*
X137481389Y-94352081D02*
X137525145Y-94331546D01*
X137525145Y-94331546D02*
X137557289Y-94290752D01*
X137557289Y-94290752D02*
X137563038Y-94276347D01*
X137563038Y-94276347D02*
X137590576Y-94231356D01*
X137590576Y-94231356D02*
X137622258Y-94212182D01*
X137622258Y-94212182D02*
X137665714Y-94195779D01*
X137665714Y-94195779D02*
X137665714Y-94257966D01*
X137665714Y-94257966D02*
X137661872Y-94300283D01*
X137661872Y-94300283D02*
X137646823Y-94335969D01*
X137646823Y-94335969D02*
X137615280Y-94376943D01*
X137615280Y-94376943D02*
X137610592Y-94382267D01*
X137610592Y-94382267D02*
X137575506Y-94418720D01*
X137575506Y-94418720D02*
X137545347Y-94438283D01*
X137545347Y-94438283D02*
X137507615Y-94447283D01*
X137507615Y-94447283D02*
X137476335Y-94450230D01*
X137476335Y-94450230D02*
X137420385Y-94450965D01*
X137420385Y-94450965D02*
X137380555Y-94441660D01*
X137380555Y-94441660D02*
X137355708Y-94427846D01*
X137355708Y-94427846D02*
X137316656Y-94397467D01*
X137316656Y-94397467D02*
X137289625Y-94364613D01*
X137289625Y-94364613D02*
X137272517Y-94323294D01*
X137272517Y-94323294D02*
X137263238Y-94267521D01*
X137263238Y-94267521D02*
X137259693Y-94191305D01*
X137259693Y-94191305D02*
X137259410Y-94152622D01*
X137259410Y-94152622D02*
X137260372Y-94106247D01*
X137260372Y-94106247D02*
X137348007Y-94106247D01*
X137348007Y-94106247D02*
X137349023Y-94131126D01*
X137349023Y-94131126D02*
X137351556Y-94135200D01*
X137351556Y-94135200D02*
X137368274Y-94129665D01*
X137368274Y-94129665D02*
X137404249Y-94115017D01*
X137404249Y-94115017D02*
X137452331Y-94094190D01*
X137452331Y-94094190D02*
X137462386Y-94089714D01*
X137462386Y-94089714D02*
X137523152Y-94058814D01*
X137523152Y-94058814D02*
X137556632Y-94031657D01*
X137556632Y-94031657D02*
X137563990Y-94006220D01*
X137563990Y-94006220D02*
X137546391Y-93980481D01*
X137546391Y-93980481D02*
X137531856Y-93969109D01*
X137531856Y-93969109D02*
X137479410Y-93946364D01*
X137479410Y-93946364D02*
X137430322Y-93950122D01*
X137430322Y-93950122D02*
X137389227Y-93977884D01*
X137389227Y-93977884D02*
X137360758Y-94027152D01*
X137360758Y-94027152D02*
X137351631Y-94066257D01*
X137351631Y-94066257D02*
X137348007Y-94106247D01*
X137348007Y-94106247D02*
X137260372Y-94106247D01*
X137260372Y-94106247D02*
X137261285Y-94062249D01*
X137261285Y-94062249D02*
X137268196Y-93995384D01*
X137268196Y-93995384D02*
X137281884Y-93946695D01*
X137281884Y-93946695D02*
X137304096Y-93910849D01*
X137304096Y-93910849D02*
X137336574Y-93882513D01*
X137336574Y-93882513D02*
X137350733Y-93873355D01*
X137350733Y-93873355D02*
X137415053Y-93849507D01*
X137415053Y-93849507D02*
X137485473Y-93848006D01*
X137485473Y-93848006D02*
X137553595Y-93866966D01*
X137553595Y-93866966D02*
X137553595Y-93866966D01*
G36*
X137268196Y-93995384D02*
G01*
X137281884Y-93946695D01*
X137304096Y-93910849D01*
X137336574Y-93882513D01*
X137350733Y-93873355D01*
X137415053Y-93849507D01*
X137485473Y-93848006D01*
X137553595Y-93866966D01*
X137611021Y-93904497D01*
X137638719Y-93938096D01*
X137660662Y-93999064D01*
X137662405Y-94047308D01*
X137658457Y-94111816D01*
X137509686Y-94176934D01*
X137437349Y-94210202D01*
X137390084Y-94236964D01*
X137365507Y-94260144D01*
X137361237Y-94282667D01*
X137374889Y-94307455D01*
X137389943Y-94323886D01*
X137433746Y-94350235D01*
X137481389Y-94352081D01*
X137525145Y-94331546D01*
X137557289Y-94290752D01*
X137563038Y-94276347D01*
X137590576Y-94231356D01*
X137622258Y-94212182D01*
X137665714Y-94195779D01*
X137665714Y-94257966D01*
X137661872Y-94300283D01*
X137646823Y-94335969D01*
X137615280Y-94376943D01*
X137610592Y-94382267D01*
X137575506Y-94418720D01*
X137545347Y-94438283D01*
X137507615Y-94447283D01*
X137476335Y-94450230D01*
X137420385Y-94450965D01*
X137380555Y-94441660D01*
X137355708Y-94427846D01*
X137316656Y-94397467D01*
X137289625Y-94364613D01*
X137272517Y-94323294D01*
X137263238Y-94267521D01*
X137259693Y-94191305D01*
X137259410Y-94152622D01*
X137260372Y-94106247D01*
X137348007Y-94106247D01*
X137349023Y-94131126D01*
X137351556Y-94135200D01*
X137368274Y-94129665D01*
X137404249Y-94115017D01*
X137452331Y-94094190D01*
X137462386Y-94089714D01*
X137523152Y-94058814D01*
X137556632Y-94031657D01*
X137563990Y-94006220D01*
X137546391Y-93980481D01*
X137531856Y-93969109D01*
X137479410Y-93946364D01*
X137430322Y-93950122D01*
X137389227Y-93977884D01*
X137360758Y-94027152D01*
X137351631Y-94066257D01*
X137348007Y-94106247D01*
X137260372Y-94106247D01*
X137261285Y-94062249D01*
X137268196Y-93995384D01*
G37*
X137268196Y-93995384D02*
X137281884Y-93946695D01*
X137304096Y-93910849D01*
X137336574Y-93882513D01*
X137350733Y-93873355D01*
X137415053Y-93849507D01*
X137485473Y-93848006D01*
X137553595Y-93866966D01*
X137611021Y-93904497D01*
X137638719Y-93938096D01*
X137660662Y-93999064D01*
X137662405Y-94047308D01*
X137658457Y-94111816D01*
X137509686Y-94176934D01*
X137437349Y-94210202D01*
X137390084Y-94236964D01*
X137365507Y-94260144D01*
X137361237Y-94282667D01*
X137374889Y-94307455D01*
X137389943Y-94323886D01*
X137433746Y-94350235D01*
X137481389Y-94352081D01*
X137525145Y-94331546D01*
X137557289Y-94290752D01*
X137563038Y-94276347D01*
X137590576Y-94231356D01*
X137622258Y-94212182D01*
X137665714Y-94195779D01*
X137665714Y-94257966D01*
X137661872Y-94300283D01*
X137646823Y-94335969D01*
X137615280Y-94376943D01*
X137610592Y-94382267D01*
X137575506Y-94418720D01*
X137545347Y-94438283D01*
X137507615Y-94447283D01*
X137476335Y-94450230D01*
X137420385Y-94450965D01*
X137380555Y-94441660D01*
X137355708Y-94427846D01*
X137316656Y-94397467D01*
X137289625Y-94364613D01*
X137272517Y-94323294D01*
X137263238Y-94267521D01*
X137259693Y-94191305D01*
X137259410Y-94152622D01*
X137260372Y-94106247D01*
X137348007Y-94106247D01*
X137349023Y-94131126D01*
X137351556Y-94135200D01*
X137368274Y-94129665D01*
X137404249Y-94115017D01*
X137452331Y-94094190D01*
X137462386Y-94089714D01*
X137523152Y-94058814D01*
X137556632Y-94031657D01*
X137563990Y-94006220D01*
X137546391Y-93980481D01*
X137531856Y-93969109D01*
X137479410Y-93946364D01*
X137430322Y-93950122D01*
X137389227Y-93977884D01*
X137360758Y-94027152D01*
X137351631Y-94066257D01*
X137348007Y-94106247D01*
X137260372Y-94106247D01*
X137261285Y-94062249D01*
X137268196Y-93995384D01*
X137052600Y-93858752D02*
X137069948Y-93866334D01*
X137069948Y-93866334D02*
X137111356Y-93899128D01*
X137111356Y-93899128D02*
X137146765Y-93946547D01*
X137146765Y-93946547D02*
X137168664Y-93997151D01*
X137168664Y-93997151D02*
X137172229Y-94022098D01*
X137172229Y-94022098D02*
X137160279Y-94056927D01*
X137160279Y-94056927D02*
X137134067Y-94075357D01*
X137134067Y-94075357D02*
X137105964Y-94086516D01*
X137105964Y-94086516D02*
X137093095Y-94088572D01*
X137093095Y-94088572D02*
X137086829Y-94073649D01*
X137086829Y-94073649D02*
X137074456Y-94041175D01*
X137074456Y-94041175D02*
X137069028Y-94026502D01*
X137069028Y-94026502D02*
X137038590Y-93975744D01*
X137038590Y-93975744D02*
X136994520Y-93950427D01*
X136994520Y-93950427D02*
X136938010Y-93951206D01*
X136938010Y-93951206D02*
X136933825Y-93952203D01*
X136933825Y-93952203D02*
X136903655Y-93966507D01*
X136903655Y-93966507D02*
X136881476Y-93994393D01*
X136881476Y-93994393D02*
X136866327Y-94039287D01*
X136866327Y-94039287D02*
X136857250Y-94104615D01*
X136857250Y-94104615D02*
X136853286Y-94193804D01*
X136853286Y-94193804D02*
X136852914Y-94241261D01*
X136852914Y-94241261D02*
X136852730Y-94316071D01*
X136852730Y-94316071D02*
X136851522Y-94367069D01*
X136851522Y-94367069D02*
X136848309Y-94399471D01*
X136848309Y-94399471D02*
X136842109Y-94418495D01*
X136842109Y-94418495D02*
X136831940Y-94429356D01*
X136831940Y-94429356D02*
X136816819Y-94437272D01*
X136816819Y-94437272D02*
X136815946Y-94437670D01*
X136815946Y-94437670D02*
X136786828Y-94449981D01*
X136786828Y-94449981D02*
X136772403Y-94454514D01*
X136772403Y-94454514D02*
X136770186Y-94440809D01*
X136770186Y-94440809D02*
X136768289Y-94402925D01*
X136768289Y-94402925D02*
X136766847Y-94345715D01*
X136766847Y-94345715D02*
X136765998Y-94274027D01*
X136765998Y-94274027D02*
X136765829Y-94221565D01*
X136765829Y-94221565D02*
X136766692Y-94120047D01*
X136766692Y-94120047D02*
X136770070Y-94043032D01*
X136770070Y-94043032D02*
X136777142Y-93986023D01*
X136777142Y-93986023D02*
X136789088Y-93944526D01*
X136789088Y-93944526D02*
X136807090Y-93914043D01*
X136807090Y-93914043D02*
X136832327Y-93890080D01*
X136832327Y-93890080D02*
X136857247Y-93873355D01*
X136857247Y-93873355D02*
X136917171Y-93851097D01*
X136917171Y-93851097D02*
X136986911Y-93846076D01*
X136986911Y-93846076D02*
X137052600Y-93858752D01*
X137052600Y-93858752D02*
X137052600Y-93858752D01*
G36*
X137052600Y-93858752D02*
G01*
X137069948Y-93866334D01*
X137111356Y-93899128D01*
X137146765Y-93946547D01*
X137168664Y-93997151D01*
X137172229Y-94022098D01*
X137160279Y-94056927D01*
X137134067Y-94075357D01*
X137105964Y-94086516D01*
X137093095Y-94088572D01*
X137086829Y-94073649D01*
X137074456Y-94041175D01*
X137069028Y-94026502D01*
X137038590Y-93975744D01*
X136994520Y-93950427D01*
X136938010Y-93951206D01*
X136933825Y-93952203D01*
X136903655Y-93966507D01*
X136881476Y-93994393D01*
X136866327Y-94039287D01*
X136857250Y-94104615D01*
X136853286Y-94193804D01*
X136852914Y-94241261D01*
X136852730Y-94316071D01*
X136851522Y-94367069D01*
X136848309Y-94399471D01*
X136842109Y-94418495D01*
X136831940Y-94429356D01*
X136816819Y-94437272D01*
X136815946Y-94437670D01*
X136786828Y-94449981D01*
X136772403Y-94454514D01*
X136770186Y-94440809D01*
X136768289Y-94402925D01*
X136766847Y-94345715D01*
X136765998Y-94274027D01*
X136765829Y-94221565D01*
X136766692Y-94120047D01*
X136770070Y-94043032D01*
X136777142Y-93986023D01*
X136789088Y-93944526D01*
X136807090Y-93914043D01*
X136832327Y-93890080D01*
X136857247Y-93873355D01*
X136917171Y-93851097D01*
X136986911Y-93846076D01*
X137052600Y-93858752D01*
G37*
X137052600Y-93858752D02*
X137069948Y-93866334D01*
X137111356Y-93899128D01*
X137146765Y-93946547D01*
X137168664Y-93997151D01*
X137172229Y-94022098D01*
X137160279Y-94056927D01*
X137134067Y-94075357D01*
X137105964Y-94086516D01*
X137093095Y-94088572D01*
X137086829Y-94073649D01*
X137074456Y-94041175D01*
X137069028Y-94026502D01*
X137038590Y-93975744D01*
X136994520Y-93950427D01*
X136938010Y-93951206D01*
X136933825Y-93952203D01*
X136903655Y-93966507D01*
X136881476Y-93994393D01*
X136866327Y-94039287D01*
X136857250Y-94104615D01*
X136853286Y-94193804D01*
X136852914Y-94241261D01*
X136852730Y-94316071D01*
X136851522Y-94367069D01*
X136848309Y-94399471D01*
X136842109Y-94418495D01*
X136831940Y-94429356D01*
X136816819Y-94437272D01*
X136815946Y-94437670D01*
X136786828Y-94449981D01*
X136772403Y-94454514D01*
X136770186Y-94440809D01*
X136768289Y-94402925D01*
X136766847Y-94345715D01*
X136765998Y-94274027D01*
X136765829Y-94221565D01*
X136766692Y-94120047D01*
X136770070Y-94043032D01*
X136777142Y-93986023D01*
X136789088Y-93944526D01*
X136807090Y-93914043D01*
X136832327Y-93890080D01*
X136857247Y-93873355D01*
X136917171Y-93851097D01*
X136986911Y-93846076D01*
X137052600Y-93858752D01*
X133775886Y-93751289D02*
X133780139Y-93810613D01*
X133780139Y-93810613D02*
X133785025Y-93845572D01*
X133785025Y-93845572D02*
X133791795Y-93860820D01*
X133791795Y-93860820D02*
X133801702Y-93861015D01*
X133801702Y-93861015D02*
X133804914Y-93859195D01*
X133804914Y-93859195D02*
X133847644Y-93846015D01*
X133847644Y-93846015D02*
X133903227Y-93846785D01*
X133903227Y-93846785D02*
X133959737Y-93860333D01*
X133959737Y-93860333D02*
X133995082Y-93877861D01*
X133995082Y-93877861D02*
X134031321Y-93905861D01*
X134031321Y-93905861D02*
X134057813Y-93937549D01*
X134057813Y-93937549D02*
X134075999Y-93977813D01*
X134075999Y-93977813D02*
X134087322Y-94031543D01*
X134087322Y-94031543D02*
X134093222Y-94103626D01*
X134093222Y-94103626D02*
X134095143Y-94198951D01*
X134095143Y-94198951D02*
X134095177Y-94217237D01*
X134095177Y-94217237D02*
X134095200Y-94422646D01*
X134095200Y-94422646D02*
X134049491Y-94438580D01*
X134049491Y-94438580D02*
X134017027Y-94449420D01*
X134017027Y-94449420D02*
X133999215Y-94454468D01*
X133999215Y-94454468D02*
X133998691Y-94454514D01*
X133998691Y-94454514D02*
X133996937Y-94440828D01*
X133996937Y-94440828D02*
X133995444Y-94403076D01*
X133995444Y-94403076D02*
X133994326Y-94346224D01*
X133994326Y-94346224D02*
X133993697Y-94275234D01*
X133993697Y-94275234D02*
X133993600Y-94232073D01*
X133993600Y-94232073D02*
X133993398Y-94146973D01*
X133993398Y-94146973D02*
X133992358Y-94085981D01*
X133992358Y-94085981D02*
X133989831Y-94044177D01*
X133989831Y-94044177D02*
X133985164Y-94016642D01*
X133985164Y-94016642D02*
X133977707Y-93998456D01*
X133977707Y-93998456D02*
X133966811Y-93984698D01*
X133966811Y-93984698D02*
X133960007Y-93978073D01*
X133960007Y-93978073D02*
X133913272Y-93951375D01*
X133913272Y-93951375D02*
X133862272Y-93949375D01*
X133862272Y-93949375D02*
X133816001Y-93971955D01*
X133816001Y-93971955D02*
X133807444Y-93980107D01*
X133807444Y-93980107D02*
X133794893Y-93995436D01*
X133794893Y-93995436D02*
X133786188Y-94013618D01*
X133786188Y-94013618D02*
X133780631Y-94039909D01*
X133780631Y-94039909D02*
X133777526Y-94079562D01*
X133777526Y-94079562D02*
X133776176Y-94137832D01*
X133776176Y-94137832D02*
X133775886Y-94218173D01*
X133775886Y-94218173D02*
X133775886Y-94422646D01*
X133775886Y-94422646D02*
X133730177Y-94438580D01*
X133730177Y-94438580D02*
X133697713Y-94449420D01*
X133697713Y-94449420D02*
X133679901Y-94454468D01*
X133679901Y-94454468D02*
X133679377Y-94454514D01*
X133679377Y-94454514D02*
X133678037Y-94440623D01*
X133678037Y-94440623D02*
X133676828Y-94401439D01*
X133676828Y-94401439D02*
X133675801Y-94340700D01*
X133675801Y-94340700D02*
X133675002Y-94262141D01*
X133675002Y-94262141D02*
X133674481Y-94169498D01*
X133674481Y-94169498D02*
X133674286Y-94066509D01*
X133674286Y-94066509D02*
X133674286Y-93669342D01*
X133674286Y-93669342D02*
X133721457Y-93649444D01*
X133721457Y-93649444D02*
X133768629Y-93629547D01*
X133768629Y-93629547D02*
X133775886Y-93751289D01*
X133775886Y-93751289D02*
X133775886Y-93751289D01*
G36*
X133775886Y-93751289D02*
G01*
X133780139Y-93810613D01*
X133785025Y-93845572D01*
X133791795Y-93860820D01*
X133801702Y-93861015D01*
X133804914Y-93859195D01*
X133847644Y-93846015D01*
X133903227Y-93846785D01*
X133959737Y-93860333D01*
X133995082Y-93877861D01*
X134031321Y-93905861D01*
X134057813Y-93937549D01*
X134075999Y-93977813D01*
X134087322Y-94031543D01*
X134093222Y-94103626D01*
X134095143Y-94198951D01*
X134095177Y-94217237D01*
X134095200Y-94422646D01*
X134049491Y-94438580D01*
X134017027Y-94449420D01*
X133999215Y-94454468D01*
X133998691Y-94454514D01*
X133996937Y-94440828D01*
X133995444Y-94403076D01*
X133994326Y-94346224D01*
X133993697Y-94275234D01*
X133993600Y-94232073D01*
X133993398Y-94146973D01*
X133992358Y-94085981D01*
X133989831Y-94044177D01*
X133985164Y-94016642D01*
X133977707Y-93998456D01*
X133966811Y-93984698D01*
X133960007Y-93978073D01*
X133913272Y-93951375D01*
X133862272Y-93949375D01*
X133816001Y-93971955D01*
X133807444Y-93980107D01*
X133794893Y-93995436D01*
X133786188Y-94013618D01*
X133780631Y-94039909D01*
X133777526Y-94079562D01*
X133776176Y-94137832D01*
X133775886Y-94218173D01*
X133775886Y-94422646D01*
X133730177Y-94438580D01*
X133697713Y-94449420D01*
X133679901Y-94454468D01*
X133679377Y-94454514D01*
X133678037Y-94440623D01*
X133676828Y-94401439D01*
X133675801Y-94340700D01*
X133675002Y-94262141D01*
X133674481Y-94169498D01*
X133674286Y-94066509D01*
X133674286Y-93669342D01*
X133721457Y-93649444D01*
X133768629Y-93629547D01*
X133775886Y-93751289D01*
G37*
X133775886Y-93751289D02*
X133780139Y-93810613D01*
X133785025Y-93845572D01*
X133791795Y-93860820D01*
X133801702Y-93861015D01*
X133804914Y-93859195D01*
X133847644Y-93846015D01*
X133903227Y-93846785D01*
X133959737Y-93860333D01*
X133995082Y-93877861D01*
X134031321Y-93905861D01*
X134057813Y-93937549D01*
X134075999Y-93977813D01*
X134087322Y-94031543D01*
X134093222Y-94103626D01*
X134095143Y-94198951D01*
X134095177Y-94217237D01*
X134095200Y-94422646D01*
X134049491Y-94438580D01*
X134017027Y-94449420D01*
X133999215Y-94454468D01*
X133998691Y-94454514D01*
X133996937Y-94440828D01*
X133995444Y-94403076D01*
X133994326Y-94346224D01*
X133993697Y-94275234D01*
X133993600Y-94232073D01*
X133993398Y-94146973D01*
X133992358Y-94085981D01*
X133989831Y-94044177D01*
X133985164Y-94016642D01*
X133977707Y-93998456D01*
X133966811Y-93984698D01*
X133960007Y-93978073D01*
X133913272Y-93951375D01*
X133862272Y-93949375D01*
X133816001Y-93971955D01*
X133807444Y-93980107D01*
X133794893Y-93995436D01*
X133786188Y-94013618D01*
X133780631Y-94039909D01*
X133777526Y-94079562D01*
X133776176Y-94137832D01*
X133775886Y-94218173D01*
X133775886Y-94422646D01*
X133730177Y-94438580D01*
X133697713Y-94449420D01*
X133679901Y-94454468D01*
X133679377Y-94454514D01*
X133678037Y-94440623D01*
X133676828Y-94401439D01*
X133675801Y-94340700D01*
X133675002Y-94262141D01*
X133674481Y-94169498D01*
X133674286Y-94066509D01*
X133674286Y-93669342D01*
X133721457Y-93649444D01*
X133768629Y-93629547D01*
X133775886Y-93751289D01*
X136544876Y-93856335D02*
X136586667Y-93875344D01*
X136586667Y-93875344D02*
X136619469Y-93898378D01*
X136619469Y-93898378D02*
X136643503Y-93924133D01*
X136643503Y-93924133D02*
X136660097Y-93957358D01*
X136660097Y-93957358D02*
X136670577Y-94002800D01*
X136670577Y-94002800D02*
X136676271Y-94065207D01*
X136676271Y-94065207D02*
X136678507Y-94149327D01*
X136678507Y-94149327D02*
X136678743Y-94204721D01*
X136678743Y-94204721D02*
X136678743Y-94420826D01*
X136678743Y-94420826D02*
X136641774Y-94437670D01*
X136641774Y-94437670D02*
X136612656Y-94449981D01*
X136612656Y-94449981D02*
X136598231Y-94454514D01*
X136598231Y-94454514D02*
X136595472Y-94441025D01*
X136595472Y-94441025D02*
X136593282Y-94404653D01*
X136593282Y-94404653D02*
X136591942Y-94351542D01*
X136591942Y-94351542D02*
X136591657Y-94309372D01*
X136591657Y-94309372D02*
X136590434Y-94248447D01*
X136590434Y-94248447D02*
X136587136Y-94200115D01*
X136587136Y-94200115D02*
X136582321Y-94170518D01*
X136582321Y-94170518D02*
X136578496Y-94164229D01*
X136578496Y-94164229D02*
X136552783Y-94170652D01*
X136552783Y-94170652D02*
X136512418Y-94187125D01*
X136512418Y-94187125D02*
X136465679Y-94209458D01*
X136465679Y-94209458D02*
X136420845Y-94233457D01*
X136420845Y-94233457D02*
X136386193Y-94254930D01*
X136386193Y-94254930D02*
X136370002Y-94269685D01*
X136370002Y-94269685D02*
X136369938Y-94269845D01*
X136369938Y-94269845D02*
X136371330Y-94297152D01*
X136371330Y-94297152D02*
X136383818Y-94323219D01*
X136383818Y-94323219D02*
X136405743Y-94344392D01*
X136405743Y-94344392D02*
X136437743Y-94351474D01*
X136437743Y-94351474D02*
X136465092Y-94350649D01*
X136465092Y-94350649D02*
X136503826Y-94350042D01*
X136503826Y-94350042D02*
X136524158Y-94359116D01*
X136524158Y-94359116D02*
X136536369Y-94383092D01*
X136536369Y-94383092D02*
X136537909Y-94387613D01*
X136537909Y-94387613D02*
X136543203Y-94421806D01*
X136543203Y-94421806D02*
X136529047Y-94442568D01*
X136529047Y-94442568D02*
X136492148Y-94452462D01*
X136492148Y-94452462D02*
X136452289Y-94454292D01*
X136452289Y-94454292D02*
X136380562Y-94440727D01*
X136380562Y-94440727D02*
X136343432Y-94421355D01*
X136343432Y-94421355D02*
X136297576Y-94375845D01*
X136297576Y-94375845D02*
X136273256Y-94319983D01*
X136273256Y-94319983D02*
X136271073Y-94260957D01*
X136271073Y-94260957D02*
X136291629Y-94205953D01*
X136291629Y-94205953D02*
X136322549Y-94171486D01*
X136322549Y-94171486D02*
X136353420Y-94152189D01*
X136353420Y-94152189D02*
X136401942Y-94127759D01*
X136401942Y-94127759D02*
X136458485Y-94102985D01*
X136458485Y-94102985D02*
X136467910Y-94099199D01*
X136467910Y-94099199D02*
X136530019Y-94071791D01*
X136530019Y-94071791D02*
X136565822Y-94047634D01*
X136565822Y-94047634D02*
X136577337Y-94023619D01*
X136577337Y-94023619D02*
X136566580Y-93996635D01*
X136566580Y-93996635D02*
X136548114Y-93975543D01*
X136548114Y-93975543D02*
X136504469Y-93949572D01*
X136504469Y-93949572D02*
X136456446Y-93947624D01*
X136456446Y-93947624D02*
X136412406Y-93967637D01*
X136412406Y-93967637D02*
X136380709Y-94007551D01*
X136380709Y-94007551D02*
X136376549Y-94017848D01*
X136376549Y-94017848D02*
X136352327Y-94055724D01*
X136352327Y-94055724D02*
X136316965Y-94083842D01*
X136316965Y-94083842D02*
X136272343Y-94106917D01*
X136272343Y-94106917D02*
X136272343Y-94041485D01*
X136272343Y-94041485D02*
X136274969Y-94001506D01*
X136274969Y-94001506D02*
X136286230Y-93969997D01*
X136286230Y-93969997D02*
X136311199Y-93936378D01*
X136311199Y-93936378D02*
X136335169Y-93910484D01*
X136335169Y-93910484D02*
X136372441Y-93873817D01*
X136372441Y-93873817D02*
X136401401Y-93854121D01*
X136401401Y-93854121D02*
X136432505Y-93846220D01*
X136432505Y-93846220D02*
X136467713Y-93844914D01*
X136467713Y-93844914D02*
X136544876Y-93856335D01*
X136544876Y-93856335D02*
X136544876Y-93856335D01*
G36*
X136544876Y-93856335D02*
G01*
X136586667Y-93875344D01*
X136619469Y-93898378D01*
X136643503Y-93924133D01*
X136660097Y-93957358D01*
X136670577Y-94002800D01*
X136676271Y-94065207D01*
X136678507Y-94149327D01*
X136678743Y-94204721D01*
X136678743Y-94420826D01*
X136641774Y-94437670D01*
X136612656Y-94449981D01*
X136598231Y-94454514D01*
X136595472Y-94441025D01*
X136593282Y-94404653D01*
X136591942Y-94351542D01*
X136591657Y-94309372D01*
X136590434Y-94248447D01*
X136587136Y-94200115D01*
X136582321Y-94170518D01*
X136578496Y-94164229D01*
X136552783Y-94170652D01*
X136512418Y-94187125D01*
X136465679Y-94209458D01*
X136420845Y-94233457D01*
X136386193Y-94254930D01*
X136370002Y-94269685D01*
X136369938Y-94269845D01*
X136371330Y-94297152D01*
X136383818Y-94323219D01*
X136405743Y-94344392D01*
X136437743Y-94351474D01*
X136465092Y-94350649D01*
X136503826Y-94350042D01*
X136524158Y-94359116D01*
X136536369Y-94383092D01*
X136537909Y-94387613D01*
X136543203Y-94421806D01*
X136529047Y-94442568D01*
X136492148Y-94452462D01*
X136452289Y-94454292D01*
X136380562Y-94440727D01*
X136343432Y-94421355D01*
X136297576Y-94375845D01*
X136273256Y-94319983D01*
X136271073Y-94260957D01*
X136291629Y-94205953D01*
X136322549Y-94171486D01*
X136353420Y-94152189D01*
X136401942Y-94127759D01*
X136458485Y-94102985D01*
X136467910Y-94099199D01*
X136530019Y-94071791D01*
X136565822Y-94047634D01*
X136577337Y-94023619D01*
X136566580Y-93996635D01*
X136548114Y-93975543D01*
X136504469Y-93949572D01*
X136456446Y-93947624D01*
X136412406Y-93967637D01*
X136380709Y-94007551D01*
X136376549Y-94017848D01*
X136352327Y-94055724D01*
X136316965Y-94083842D01*
X136272343Y-94106917D01*
X136272343Y-94041485D01*
X136274969Y-94001506D01*
X136286230Y-93969997D01*
X136311199Y-93936378D01*
X136335169Y-93910484D01*
X136372441Y-93873817D01*
X136401401Y-93854121D01*
X136432505Y-93846220D01*
X136467713Y-93844914D01*
X136544876Y-93856335D01*
G37*
X136544876Y-93856335D02*
X136586667Y-93875344D01*
X136619469Y-93898378D01*
X136643503Y-93924133D01*
X136660097Y-93957358D01*
X136670577Y-94002800D01*
X136676271Y-94065207D01*
X136678507Y-94149327D01*
X136678743Y-94204721D01*
X136678743Y-94420826D01*
X136641774Y-94437670D01*
X136612656Y-94449981D01*
X136598231Y-94454514D01*
X136595472Y-94441025D01*
X136593282Y-94404653D01*
X136591942Y-94351542D01*
X136591657Y-94309372D01*
X136590434Y-94248447D01*
X136587136Y-94200115D01*
X136582321Y-94170518D01*
X136578496Y-94164229D01*
X136552783Y-94170652D01*
X136512418Y-94187125D01*
X136465679Y-94209458D01*
X136420845Y-94233457D01*
X136386193Y-94254930D01*
X136370002Y-94269685D01*
X136369938Y-94269845D01*
X136371330Y-94297152D01*
X136383818Y-94323219D01*
X136405743Y-94344392D01*
X136437743Y-94351474D01*
X136465092Y-94350649D01*
X136503826Y-94350042D01*
X136524158Y-94359116D01*
X136536369Y-94383092D01*
X136537909Y-94387613D01*
X136543203Y-94421806D01*
X136529047Y-94442568D01*
X136492148Y-94452462D01*
X136452289Y-94454292D01*
X136380562Y-94440727D01*
X136343432Y-94421355D01*
X136297576Y-94375845D01*
X136273256Y-94319983D01*
X136271073Y-94260957D01*
X136291629Y-94205953D01*
X136322549Y-94171486D01*
X136353420Y-94152189D01*
X136401942Y-94127759D01*
X136458485Y-94102985D01*
X136467910Y-94099199D01*
X136530019Y-94071791D01*
X136565822Y-94047634D01*
X136577337Y-94023619D01*
X136566580Y-93996635D01*
X136548114Y-93975543D01*
X136504469Y-93949572D01*
X136456446Y-93947624D01*
X136412406Y-93967637D01*
X136380709Y-94007551D01*
X136376549Y-94017848D01*
X136352327Y-94055724D01*
X136316965Y-94083842D01*
X136272343Y-94106917D01*
X136272343Y-94041485D01*
X136274969Y-94001506D01*
X136286230Y-93969997D01*
X136311199Y-93936378D01*
X136335169Y-93910484D01*
X136372441Y-93873817D01*
X136401401Y-93854121D01*
X136432505Y-93846220D01*
X136467713Y-93844914D01*
X136544876Y-93856335D01*
D13*
%TO.C,R25*%
X124837258Y-61177500D02*
X124362742Y-61177500D01*
X124837258Y-62222500D02*
X124362742Y-62222500D01*
%TO.C,R26*%
X119562742Y-60522500D02*
X120037258Y-60522500D01*
X119562742Y-59477500D02*
X120037258Y-59477500D01*
%TO.C,R27*%
X124837258Y-59477500D02*
X124362742Y-59477500D01*
X124837258Y-60522500D02*
X124362742Y-60522500D01*
%TO.C,R29*%
X144012742Y-65027500D02*
X144487258Y-65027500D01*
X144012742Y-66072500D02*
X144487258Y-66072500D01*
%TO.C,R28*%
X144012742Y-63227500D02*
X144487258Y-63227500D01*
X144012742Y-64272500D02*
X144487258Y-64272500D01*
%TD*%
M02*
